<svg id="Layer_1" data-name="Layer 1" xmlns="http://www.w3.org/2000/svg" xmlns:xlink="http://www.w3.org/1999/xlink" viewBox="0 0 3348.68 2926.34"><defs><style>.cls-1{fill:#f2f2f5;stroke:#231f20;}.cls-1,.cls-3{stroke-miterlimit:10;}.cls-2{fill:url(#linear-gradient);}.cls-3{fill:none;stroke:#110f0d;}.cls-4{fill:#fff;}.cls-5{fill:url(#linear-gradient-3);}.cls-6{fill:#51328f;}</style><linearGradient id="linear-gradient" x1="-879.51" y1="1463.17" x2="2292.01" y2="1463.17" gradientUnits="userSpaceOnUse"><stop offset="0.35" stop-color="#5a50ff"/><stop offset="0.57" stop-color="#7358ff"/><stop offset="0.81" stop-color="#d376ff"/></linearGradient><linearGradient id="linear-gradient-3" x1="2536.91" y1="1463.17" x2="1575.44" y2="1463.17" xlink:href="#linear-gradient"/></defs><circle class="cls-1" cx="1672.89" cy="1469.99" r="721.07"/><path class="cls-2" d="M1674.34,352.37c-613.47,0-1110.79,497.32-1110.79,1110.8S1060.87,2574,1674.34,2574s1110.8-497.32,1110.8-1110.79S2287.82,352.37,1674.34,352.37Zm0,1773c-365.71,0-662.17-296.46-662.17-662.17S1308.63,801,1674.34,801s662.18,296.47,662.18,662.18S2040.05,2125.34,1674.34,2125.34Z"/><path class="cls-2" d="M1674.34,352.37c-613.47,0-1110.79,497.32-1110.79,1110.8S1060.87,2574,1674.34,2574s1110.8-497.32,1110.8-1110.79S2287.82,352.37,1674.34,352.37Zm0,1773c-365.71,0-662.17-296.46-662.17-662.17S1308.63,801,1674.34,801s662.18,296.47,662.18,662.18S2040.05,2125.34,1674.34,2125.34Z"/><circle class="cls-3" cx="1674.34" cy="1463.17" r="1110.79"/><path class="cls-4" d="M1788.44,521.69a75.86,75.86,0,0,1,34.49-23,84.08,84.08,0,0,1,43-2.26q26.64,5.2,43.74,22t20,41.76l-36.34-7.11a37.75,37.75,0,0,0-11.94-18q-8.47-7-21.11-9.51a49.25,49.25,0,0,0-26.07,1.46,44.55,44.55,0,0,0-20.46,14.75q-8.39,10.54-11.39,25.9-3.09,15.79.83,28.75a44.69,44.69,0,0,0,13.73,21.43q9.83,8.49,24.5,11.35,18.06,3.54,31.58-3.9t20.26-23.93L1839,590.75l4.68-23.92L1929,583.51l-5.38,27.54a75.51,75.51,0,0,1-19.5,27.82A77.92,77.92,0,0,1,1873,656.1q-18,5.26-38.34,1.29-22.8-4.46-39.19-18.32a76.24,76.24,0,0,1-23.31-34.2q-6.92-20.34-2.37-43.59T1788.44,521.69Z"/><path class="cls-4" d="M2057,670.76l-86.53-34.47q-4.35,13.37.58,24t16.68,15.31q16.66,6.64,29.42-4.87l32.27,12.85a58.06,58.06,0,0,1-30.85,20.27q-18.93,5.22-40.07-3.21-17.1-6.81-27.64-19.8a57.5,57.5,0,0,1-12.6-29.9q-2.06-16.91,5.18-35.07,7.32-18.37,20.34-29.29a56.16,56.16,0,0,1,29.45-13q16.44-2.12,34,4.86,16.88,6.72,27.34,19.31a55.2,55.2,0,0,1,12.55,28.77q2.1,16.18-4.8,33.49A73,73,0,0,1,2057,670.76Zm-22.89-30.16q4.73-12.48-.44-22.83t-17.12-15.12q-11.34-4.51-21.87-.41t-17,15.89Z"/><path class="cls-4" d="M2135.36,662.46l-30.3,53.69q-3.17,5.61-1.87,9.63t7.7,7.65l13,7.35-13.34,23.63L2093,754.47q-35.46-20-16-54.46l30.18-53.48-13.22-7.47,13-23,13.22,7.46,15.49-27.44L2163.84,612l-15.48,27.44,24.83,14-13,23Z"/><path class="cls-4" d="M2283.65,768l-17.31-14.07-63.71,78.34-25.34-20.61L2241,733.29l-11.24-9.14,16.68-20.52,11.25,9.14,4.06-5q14.8-18.21,32.12-18.36t37.75,17.37l-17.12,21.06q-9-7.59-15.14-7.27t-13,8.69l-3.33,4.11,17.3,14.07Z"/><path class="cls-4" d="M2353.41,804.86a41.37,41.37,0,0,1,20.77,11.56l-23.82,24-6-6q-10.77-10.7-21.26-11.07t-23,12.19l-44.74,45-22.85-22.69,89.8-90.4,22.85,22.69-15.89,16A47.92,47.92,0,0,1,2353.41,804.86Z"/><path class="cls-4" d="M2409.57,979.9l-56.61-74q-10.59,9.26-11.8,20.91t6.46,21.69q10.9,14.25,27.76,10.91l21.1,27.58a58,58,0,0,1-36.87,1.58q-18.92-5.22-32.75-23.31-11.19-14.61-13.58-31.17A57.39,57.39,0,0,1,2317.8,902q6.91-15.57,22.44-27.45,15.71-12,32.47-14.71a56.12,56.12,0,0,1,32,3.92q15.2,6.62,26.66,21.59,11,14.43,13.57,30.6a55.27,55.27,0,0,1-4,31.13q-6.51,15-21.3,26.29A72.63,72.63,0,0,1,2409.57,979.9Zm-4.18-37.63q10.46-8.29,11.33-19.82t-6.95-21.76q-7.41-9.69-18.56-11.58t-22.72,4.94Z"/><path class="cls-4" d="M2478.94,1106.85l-43.74-82.24q-12,7.4-15.07,18.69t2.83,22.46q8.43,15.84,25.59,15.31l16.31,30.66a58,58,0,0,1-36.64-4.48q-17.8-8.25-28.49-28.35-8.64-16.26-8.29-33a57.35,57.35,0,0,1,9.72-31q9.36-14.24,26.63-23.41,17.46-9.28,34.44-9.2a56.16,56.16,0,0,1,30.89,9.1q13.92,9,22.77,25.67,8.52,16,8.37,32.41a55.2,55.2,0,0,1-9,30.06q-8.86,13.71-25.31,22.45A74.08,74.08,0,0,1,2478.94,1106.85Zm2-37.81q11.67-6.46,14.43-17.7t-3.3-22.6q-5.71-10.77-16.41-14.46t-23.23,1.15Z"/><path class="cls-4" d="M2570.68,1243.49a57.57,57.57,0,0,1,26.65,17.8q10.59,12.56,13.92,30.65,4.26,23.31-4.59,40.71t-28.94,26.46l-6.26-34.16a25.42,25.42,0,0,0,11.11-11.5q3.45-7.31,1.71-16.8-2.47-13.58-13.78-19.69t-29.39-2.8q-17.87,3.28-26.26,13t-5.9,23.29q3.53,19.23,21.79,22l6.26,34.16q-21.32-1.49-36.12-14.66t-19-36.27q-3.32-18.09,2.15-33.59a57.41,57.41,0,0,1,18.6-26.09q13.14-10.6,32.6-14.16T2570.68,1243.49Z"/><path class="cls-4" d="M2502.54,1414.94a58.68,58.68,0,0,1,22.72-23.5q14.8-8.65,34.35-9t34.64,8a59.89,59.89,0,0,1,23.51,23.18,72.14,72.14,0,0,1,1.12,66.69,60,60,0,0,1-22.71,24q-14.82,8.88-34.35,9.2t-34.65-8.27a61.37,61.37,0,0,1-23.51-23.53,69.57,69.57,0,0,1-8.73-33.55A67,67,0,0,1,2502.54,1414.94Zm24.63,49.15a31.54,31.54,0,0,0,13.2,12.09q8.7,4.46,20.89,4.25t20.73-5a32.09,32.09,0,0,0,12.79-12.29,31.54,31.54,0,0,0,4.1-16.29,30.39,30.39,0,0,0-10.39-22.83q-10.15-9.25-28.33-9t-28,9.67a29.69,29.69,0,0,0-9.63,22.94A32.79,32.79,0,0,0,2527.17,1464.09Z"/><path class="cls-4" d="M2593.4,1655.84q-16.38,11.64-41.82,7.66l-73.85-11.56,5-31.81,69.54,10.88q15,2.34,24.24-3.89t11.26-19.19q2.07-13.18-4.81-22.06t-21.88-11.22l-69.53-10.88,5-31.81,125.89,19.7-5,31.81-15.68-2.45a44.53,44.53,0,0,1,10.3,18.25,51,51,0,0,1,1.26,22.43Q2609.77,1644.2,2593.4,1655.84Z"/><path class="cls-4" d="M2467.84,1696.11a49.79,49.79,0,0,1,20.63-13.8,38.79,38.79,0,0,1,22.8-.87l-10.11,30.81a18.7,18.7,0,0,0-14.57,2.72q-6.65,4.37-9.65,13.54-2.86,8.74-.87,14.84a12,12,0,0,0,8.11,8.11q5.9,1.93,10.93-3.07t12.68-17.26a179.39,179.39,0,0,1,13.84-19.67,38.73,38.73,0,0,1,15.4-11.16q9.22-3.75,21,.12a34.9,34.9,0,0,1,16.86,11.7q6.59,8.34,8,20.77t-3.44,27.07q-7.1,21.64-22.14,31t-33.84,4.63l9.61-29.28a18.31,18.31,0,0,0,14.21-2q6.34-3.84,9.29-12.8,2.72-8.31.8-13.9a11.58,11.58,0,0,0-7.81-7.53q-6.12-2-11.3,3.07t-12.68,16.9a170.07,170.07,0,0,1-13.88,19.41,40.35,40.35,0,0,1-15.4,11.17q-9.12,3.78-21.13-.16a34.75,34.75,0,0,1-17-11.88q-6.56-8.46-7.84-20.73t3.51-26.93A66.52,66.52,0,0,1,2467.84,1696.11Z"/><path class="cls-4" d="M2490.41,1953.87l-113.08-58.71,14.94-28.79,14.29,7.42a42.46,42.46,0,0,1-4.06-20.38,50.21,50.21,0,0,1,5.83-21.46q6.89-13.28,17.8-20.56A44.59,44.59,0,0,1,2451,1804q14-.15,29.05,7.7l66.34,34.44-14.84,28.58-62.26-32.33q-13.47-7-24.21-4t-16.79,14.61q-6.14,11.83-2.4,22.34t17.23,17.49l62.26,32.33Z"/><path class="cls-4" d="M2482.87,2040l-140.07-96.7,18.29-26.49,140.07,96.69Z"/><path class="cls-4" d="M2379.91,2059.5l-47.43-39.36q-5-4.11-9.15-3.56t-8.9,6.22l-9.55,11.5L2284,2017l12.92-15.58q26-31.32,56.44-6.06l47.26,39.22,9.7-11.68,20.35,16.89-9.7,11.68,24.25,20.12-20.71,25-24.25-20.13-18.21,22-20.35-16.89Z"/><path class="cls-4" d="M2339.5,2103.59a56.54,56.54,0,0,1-.05,31.1,55.75,55.75,0,0,1-16.49,25.82q-10.56,9.57-22.34,12.51a50.83,50.83,0,0,1-22.43.77l12.21,13.46-24,21.79-85.61-94.38,24-21.79,12.52,13.8a48,48,0,0,1,2.72-22.5q4.16-11.68,14.72-21.26a54,54,0,0,1,27.28-13.57,57.89,57.89,0,0,1,31.19,3.23q15.83,6,29,20.46Q2335.15,2087.34,2339.5,2103.59Zm-75,48.29a32.45,32.45,0,0,0,17.85,1.19,33.14,33.14,0,0,0,15.45-8,32.36,32.36,0,0,0,9.87-32.09q-2.14-9.39-9.87-17.9a41.32,41.32,0,0,0-17-11.74,33.93,33.93,0,0,0-18.09-1.45,31.46,31.46,0,0,0-15.27,7.64,33.15,33.15,0,0,0-9.42,14.6,32.43,32.43,0,0,0-.55,17.88q2.23,9.32,10.11,18T2264.52,2151.88Z"/><path class="cls-4" d="M2184.34,2233.54l-34.55-51q-3.61-5.34-7.8-6t-10.27,3.49l-12.38,8.38-15.22-22.48,16.76-11.34q33.72-22.82,55.89,9.94l34.43,50.85,12.57-8.5,14.82,21.9-12.57,8.51,17.66,26.09-26.85,18.18-17.66-26.09-23.62,16-14.83-21.9Z"/><path class="cls-4" d="M2120.4,2302.52l-61.78-111.45,28.16-15.61,61.78,111.44Zm36.23,3.45a18.88,18.88,0,0,1,13,23.53,21.21,21.21,0,0,1-24.75,13.72,18.88,18.88,0,0,1-13-23.54,21.21,21.21,0,0,1,24.74-13.71Z"/><path class="cls-4" d="M2015.86,2219.42a58.8,58.8,0,0,1,30.08,12.79q13.38,10.73,20.7,28.85t4.9,35.22a59.87,59.87,0,0,1-13.21,30.26,72.2,72.2,0,0,1-61.86,25,60,60,0,0,1-30.51-12.62q-13.59-10.64-20.9-28.77t-4.7-35.3a61.3,61.3,0,0,1,13.54-30.39,69.47,69.47,0,0,1,28.19-20.18A67.07,67.07,0,0,1,2015.86,2219.42ZM1978.8,2260a31.55,31.55,0,0,0-6.55,16.66q-1,9.72,3.52,21t12.06,17.58a32,32,0,0,0,16.05,7.54,31.66,31.66,0,0,0,16.68-2,30.36,30.36,0,0,0,17.58-17.88q5-12.81-1.79-29.66t-19.08-22.68a29.64,29.64,0,0,0-24.86-.76A32.81,32.81,0,0,0,1978.8,2260Z"/><path class="cls-4" d="M1823.44,2390.25q-16.71-11.16-22-36.35l-15.51-73.13,31.5-6.68,14.6,68.85q3.15,14.85,12.27,21.27t21.94,3.69q13.05-2.76,18.89-12.35t2.7-24.44l-14.6-68.85,31.5-6.68,26.43,124.65-31.5,6.68-3.29-15.52a44.46,44.46,0,0,1-13.39,16.12,51,51,0,0,1-20.51,9.17Q1840.15,2401.4,1823.44,2390.25Z"/><path class="cls-4" d="M1549.34,2403.28a76,76,0,0,1-34.77,22.61,84.13,84.13,0,0,1-43,1.76q-26.57-5.52-43.48-22.53t-19.47-42l36.26,7.53a37.67,37.67,0,0,0,11.73,18.17q8.39,7.14,21,9.76a49.37,49.37,0,0,0,26.08-1.16,44.59,44.59,0,0,0,20.64-14.51q8.51-10.44,11.69-25.76,3.27-15.77-.49-28.76a44.76,44.76,0,0,0-13.49-21.59q-9.72-8.59-24.36-11.64-18-3.73-31.63,3.54t-20.54,23.68l54,11.23-5,23.87-85.12-17.68,5.71-27.47a75.43,75.43,0,0,1,19.82-27.6,78,78,0,0,1,31.34-16.86q18.08-5.05,38.35-.85,22.74,4.73,39,18.78a76.14,76.14,0,0,1,22.91,34.47q6.67,20.41,1.86,43.61T1549.34,2403.28Z"/><path class="cls-4" d="M1282.53,2251.07l86.13,35.48q4.48-13.32-.31-24t-16.5-15.5q-16.59-6.84-29.48,4.52l-32.11-13.23a58.06,58.06,0,0,1,31.09-19.9q19-5,40,3.68,17,7,27.41,20.12a57.41,57.41,0,0,1,12.25,30.05q1.86,16.92-5.59,35-7.55,18.3-20.68,29a56.11,56.11,0,0,1-29.6,12.68q-16.46,1.92-33.9-5.26-16.8-6.91-27.11-19.63a55.28,55.28,0,0,1-12.22-28.91q-1.9-16.22,5.19-33.44A73.14,73.14,0,0,1,1282.53,2251.07Zm22.54,30.43q-4.87,12.4.17,22.83t17,15.31q11.26,4.65,21.86.68t17.16-15.69Z"/><path class="cls-4" d="M1204.09,2258.47l30.91-53.33q3.23-5.57,2-9.61c-.83-2.7-3.37-5.27-7.62-7.74l-12.93-7.49,13.61-23.48,17.51,10.15q35.22,20.42,15.38,54.64l-30.8,53.13,13.14,7.61L1232,2305.23l-13.13-7.61-15.81,27.26-28-16.26,15.8-27.27-24.67-14.3,13.26-22.88Z"/><path class="cls-4" d="M1057,2151.26l17.15,14.27,64.6-77.59,25.1,20.89-64.6,77.6,11.13,9.27L1093.49,2216l-11.14-9.27-4.12,4.95q-15,18-32.32,18t-37.56-17.8l17.37-20.86q8.87,7.68,15,7.44t13.1-8.54l3.38-4.07-17.14-14.27Z"/><path class="cls-4" d="M987.68,2113.54a41.25,41.25,0,0,1-20.64-11.8l24.1-23.7,6,6.06q10.64,10.83,21.13,11.32t23.11-11.93l45.26-44.51,22.58,22.95-90.84,89.36-22.58-23,16.07-15.81A47.72,47.72,0,0,1,987.68,2113.54Z"/><path class="cls-4" d="M933.55,1937.89l55.75,74.62q10.69-9.13,12.05-20.77T995.13,1970q-10.74-14.37-27.62-11.23l-20.79-27.82a58,58,0,0,1,36.89-1.15q18.85,5.43,32.48,23.68,11,14.74,13.21,31.32a57.32,57.32,0,0,1-4.88,32.08q-7.1,15.5-22.76,27.19-15.84,11.84-32.64,14.34a56.18,56.18,0,0,1-31.91-4.29q-15.12-6.8-26.41-21.9-10.87-14.55-13.22-30.75a55.32,55.32,0,0,1,4.34-31.09q6.67-14.89,21.6-26A73,73,0,0,1,933.55,1937.89Zm3.75,37.68q-10.54,8.16-11.56,19.69t6.7,21.84q7.29,9.76,18.42,11.78t22.78-4.67Z"/><path class="cls-4" d="M865.67,1810.14l42.77,82.75q12-7.26,15.29-18.52t-2.57-22.49q-8.24-15.93-25.41-15.6l-16-30.85a58,58,0,0,1,36.58,4.91q17.72,8.45,28.16,28.68,8.46,16.35,7.91,33.07a57.37,57.37,0,0,1-10.08,30.84q-9.52,14.11-26.9,23.09-17.57,9.09-34.55,8.8a56.17,56.17,0,0,1-30.78-9.46q-13.8-9.18-22.46-25.93-8.34-16.14-8-32.5a55.21,55.21,0,0,1,9.37-30q9-13.59,25.57-22.15A73.9,73.9,0,0,1,865.67,1810.14Zm-2.48,37.79q-11.73,6.33-14.63,17.53t3,22.64q5.6,10.83,16.24,14.65t23.24-.88Z"/><path class="cls-4" d="M775.52,1672.45a57.64,57.64,0,0,1-26.44-18.11q-10.44-12.67-13.55-30.81-4-23.35,5.05-40.66t29.25-26.12l5.86,34.23a25.46,25.46,0,0,0-11.24,11.37q-3.54,7.26-1.91,16.78,2.33,13.61,13.55,19.85t29.36,3.14q17.91-3.06,26.41-12.69t6.17-23.22q-3.3-19.28-21.54-22.22l-5.86-34.23q21.3,1.73,36,15.08t18.62,36.48q3.1,18.14-2.54,33.57a57.54,57.54,0,0,1-18.9,25.87Q830.5,1671.2,811,1674.54T775.52,1672.45Z"/><path class="cls-4" d="M846,1501.62a58.64,58.64,0,0,1-22.74,23.49q-14.81,8.64-34.36,9T754.29,1526a60,60,0,0,1-23.5-23.2,72.22,72.22,0,0,1-1.08-66.69,60,60,0,0,1,22.73-23.94q14.82-8.88,34.36-9.19t34.64,8.3a61.37,61.37,0,0,1,23.5,23.54,69.59,69.59,0,0,1,8.71,33.56A67.1,67.1,0,0,1,846,1501.62Zm-24.61-49.17a31.46,31.46,0,0,0-13.19-12.09q-8.7-4.45-20.89-4.26T766.6,1441a32.12,32.12,0,0,0-12.8,12.29,31.64,31.64,0,0,0-4.11,16.28,30.43,30.43,0,0,0,10.38,22.84q10.15,9.27,28.32,9t28-9.66a29.66,29.66,0,0,0,9.63-22.93A32.74,32.74,0,0,0,821.41,1452.45Z"/><path class="cls-4" d="M757.56,1259.88q16.52-11.45,41.91-7.17l73.71,12.41-5.34,31.75-69.41-11.68q-15-2.52-24.28,3.61t-11.49,19.06q-2.2,13.16,4.56,22.1T789,1341.44l69.41,11.68L853,1384.88l-125.65-21.16,5.34-31.75,15.65,2.63a44.37,44.37,0,0,1-10.08-18.37,50.8,50.8,0,0,1-1-22.44Q741.06,1271.34,757.56,1259.88Z"/><path class="cls-4" d="M883.58,1221.06a49.66,49.66,0,0,1-20.79,13.56,38.83,38.83,0,0,1-22.8.61l10.47-30.7a18.66,18.66,0,0,0,14.6-2.55q6.69-4.27,9.8-13.42,3-8.71,1-14.83a12,12,0,0,0-8-8.21q-5.88-2-11,2.94t-12.88,17.12a180.73,180.73,0,0,1-14.07,19.5,38.68,38.68,0,0,1-15.53,11q-9.27,3.64-21-.36a34.94,34.94,0,0,1-16.72-11.9q-6.48-8.41-7.71-20.86t3.75-27q7.37-21.56,22.51-30.72t33.89-4.23l-9.95,29.17A18.3,18.3,0,0,0,805,1152q-6.39,3.78-9.44,12.7-2.82,8.28-1,13.89a11.61,11.61,0,0,0,7.73,7.62q6.11,2.07,11.33-2.94t12.88-16.75a170.29,170.29,0,0,1,14.1-19.25,40.29,40.29,0,0,1,15.54-11q9.15-3.67,21.12.4a34.8,34.8,0,0,1,16.9,12.08q6.45,8.52,7.6,20.82t-3.82,26.89Q892.89,1211.23,883.58,1221.06Z"/><path class="cls-4" d="M864,963.05l112.39,60-15.27,28.6-14.2-7.58a42.48,42.48,0,0,1,3.82,20.42,50.27,50.27,0,0,1-6.08,21.4q-7,13.18-18,20.35a44.54,44.54,0,0,1-24.94,7.15q-13.94,0-29-8l-65.94-35.22,15.17-28.4,61.88,33q13.39,7.15,24.17,4.31t17-14.42q6.28-11.76,2.66-22.3t-17-17.7l-61.88-33Z"/><path class="cls-4" d="M872.57,877l138.94,98.3-18.6,26.29L854,903.31Z"/><path class="cls-4" d="M975.72,858.71l47,39.91q4.9,4.17,9.11,3.66t9-6.11l9.68-11.39,20.68,17.57L1058,917.77q-26.37,31-56.51,5.41l-46.8-39.76L944.9,895l-20.16-17.12,9.83-11.57-24-20.4,21-24.72,24,20.4L974,819.85,994.19,837Z"/><path class="cls-4" d="M1016.64,815.09a56.41,56.41,0,0,1,.41-31.09,55.69,55.69,0,0,1,16.78-25.63q10.67-9.45,22.49-12.25a50.66,50.66,0,0,1,22.43-.52l-12-13.6L1091,710.49l84.51,95.36-24.27,21.51-12.35-13.94a48,48,0,0,1-3,22.47q-4.29,11.63-15,21.09a54.08,54.08,0,0,1-27.43,13.25,57.81,57.81,0,0,1-31.15-3.59q-15.76-6.15-28.73-20.79Q1020.79,831.39,1016.64,815.09Zm75.53-47.42a32.49,32.49,0,0,0-17.84-1.4,33.11,33.11,0,0,0-15.54,7.78,32.31,32.31,0,0,0-10.24,32q2,9.4,9.67,18A41.37,41.37,0,0,0,1075.09,836a34,34,0,0,0,18.07,1.66,31.49,31.49,0,0,0,15.36-7.47,33.18,33.18,0,0,0,9.59-14.49,32.4,32.4,0,0,0,.75-17.88q-2.11-9.33-9.9-18.11T1092.17,767.67Z"/><path class="cls-4" d="M1173.28,686.94l34,51.44c2.37,3.58,4.94,5.61,7.73,6.06s6.22-.66,10.31-3.36l12.48-8.24,15,22.65-16.89,11.15q-34,22.43-55.77-10.58l-33.83-51.25-12.67,8.36L1119,691.1l12.67-8.37-17.36-26.29,27.06-17.87,17.36,26.3,23.8-15.72,14.57,22.08Z"/><path class="cls-4" d="M1201.84,614.84a18.89,18.89,0,0,1-12.78-23.69,21.23,21.23,0,0,1,24.9-13.43,18.89,18.89,0,0,1,12.78,23.69,21.23,21.23,0,0,1-24.9,13.43Zm36.19,3.87,60.48,112.15-28.34,15.28L1209.68,634Z"/><path class="cls-4" d="M1341.6,703a58.76,58.76,0,0,1-29.93-13.13q-13.26-10.87-20.35-29.1t-4.5-35.27a59.83,59.83,0,0,1,13.56-30.1,72.15,72.15,0,0,1,62.15-24.23,59.92,59.92,0,0,1,30.36,13q13.47,10.8,20.57,29t4.28,35.36a61.31,61.31,0,0,1-13.89,30.22,69.53,69.53,0,0,1-28.42,19.85A67.06,67.06,0,0,1,1341.6,703Zm37.53-40.18a31.55,31.55,0,0,0,6.75-16.58q1.14-9.71-3.28-21.06t-11.85-17.72a32,32,0,0,0-16-7.72,31.45,31.45,0,0,0-16.69,1.82,30.42,30.42,0,0,0-17.8,17.67q-5.14,12.75,1.45,29.68t18.81,22.91a29.74,29.74,0,0,0,24.85,1A32.78,32.78,0,0,0,1379.13,662.82Z"/><path class="cls-4" d="M1536,534.43q16.57,11.36,21.63,36.61l14.65,73.3-31.58,6.31-13.79-69q-3-14.89-12-21.41t-21.9-4q-13.08,2.63-19,12.14t-3,24.4l13.8,69-31.58,6.31-25-124.94,31.57-6.32,3.11,15.57a44.52,44.52,0,0,1,13.58-16,50.88,50.88,0,0,1,20.62-8.93Q1519.42,523.1,1536,534.43Z"/><polygon class="cls-4" points="1672.89 525.2 1683.09 556.58 1716.07 556.58 1689.39 575.97 1699.58 607.34 1672.89 587.95 1646.21 607.34 1656.4 575.97 1629.71 556.58 1662.7 556.58 1672.89 525.2"/><polygon class="cls-4" points="1680.02 2327.65 1690.21 2359.03 1723.19 2359.03 1696.51 2378.41 1706.7 2409.79 1680.02 2390.4 1653.33 2409.79 1663.52 2378.41 1636.84 2359.03 1669.82 2359.03 1680.02 2327.65"/><circle class="cls-5" cx="1682.56" cy="1463.17" r="350.74"/><polygon class="cls-6" points="1472.6 1673.39 1519.32 1408.41 1610.09 1339.57 1613.85 1336.38 1617.12 1340.19 1617.79 1340.98 1617.51 1343 1602.08 1430.51 1774.2 1430.51 1713.96 1507.03 1588.59 1507.03 1572.74 1596.87 1760.61 1596.87 1798.47 1673.9 1472.6 1673.39"/><polygon class="cls-6" points="1905.75 1263.15 1845.19 1340.19 1611.4 1340.19 1610.55 1339.18 1610.29 1338.86 1537.16 1263.15 1905.75 1263.15"/></svg>