<svg width="102" height="104" viewBox="0 0 102 104" fill="none" xmlns="http://www.w3.org/2000/svg">
<path d="M51 101.953C78.3502 101.953 100.5 79.5932 100.5 52.0388C100.5 24.4843 78.3502 2.12497 51 2.12497C23.6498 2.12497 1.5 24.4843 1.5 52.0388C1.5 79.5932 23.6498 101.953 51 101.953Z" fill="#CB73FE" stroke="#CB73FE" stroke-width="3"/>
<path d="M24.0829 82.7774L30.7362 45.0473L43.6604 35.2456L44.1959 34.7908L44.6607 35.3336L44.756 35.4462L44.7156 35.7335L42.5185 48.1942H67.0271L58.4496 59.0887H40.5986L38.3423 71.8815H65.0913L70.483 82.8496L24.0829 82.7774Z" fill="#321E67"/>
<path d="M85.7588 24.364L77.1364 35.3336H43.8467L43.7254 35.1907L43.6879 35.1445L33.2755 24.364H85.7588Z" fill="#321E67"/>
</svg>
