<svg width="100" height="100" viewBox="0 0 100 100" fill="none" xmlns="http://www.w3.org/2000/svg">
<mask id="mask0_1035_5996" style="mask-type:luminance" maskUnits="userSpaceOnUse" x="0" y="0" width="100" height="100">
<path d="M100 0H0V100H100V0Z" fill="white"/>
</mask>
<g mask="url(#mask0_1035_5996)">
<path d="M100 0H0V100H100V0Z" fill="white"/>
<path d="M100 0H0V100H100V0Z" fill="#EFEEFF"/>
<path d="M49.5232 72.3663C61.6691 72.3663 71.5153 62.5201 71.5153 50.3743C71.5153 38.2284 61.6691 28.3823 49.5232 28.3823C37.3774 28.3823 27.5312 38.2284 27.5312 50.3743C27.5312 62.5201 37.3774 72.3663 49.5232 72.3663Z" fill="white"/>
<path fill-rule="evenodd" clip-rule="evenodd" d="M76.1491 41.1206L78.3913 43.362C80.1664 45.1053 81.1318 47.4712 81.1318 49.9617C81.163 52.4522 80.1976 54.8212 78.4536 56.5926C78.4328 56.6154 78.4121 56.6355 78.3913 56.6555C78.3809 56.6656 78.3706 56.6756 78.3602 56.686L76.1491 58.8962C75.2771 59.7679 74.7789 60.9509 74.7789 62.1992V65.4026C74.7789 70.5703 70.5747 74.776 65.4051 74.776H62.1975C60.9518 74.776 59.7684 75.271 58.8964 76.1427L56.6542 78.3841C54.8168 80.2239 52.4189 81.1236 50.0209 81.1236C47.623 81.1236 45.225 80.2239 43.3877 78.4183L41.1143 76.1427C40.2423 75.271 39.0589 74.776 37.8132 74.776H34.6056C29.436 74.776 25.2319 70.5703 25.2319 65.4026V62.1992C25.2319 60.9509 24.7336 59.7679 23.8616 58.8651L21.6194 56.6548C17.9758 53.0156 17.9446 47.0665 21.5882 43.3962L23.8616 41.1206C24.7336 40.2489 25.2319 39.0659 25.2319 37.7896V34.6142C25.2319 29.4465 29.436 25.247 34.6056 25.247H37.8132C39.0589 25.247 40.2423 24.7458 41.1143 23.8741L43.3565 21.6327C47.0001 17.9624 52.9483 17.9624 56.623 21.6047L58.8964 23.8741C59.7684 24.7458 60.9518 25.247 62.1975 25.247H65.4051C70.5747 25.247 74.7789 29.4465 74.7789 34.6142V37.8238C74.7789 39.0659 75.2771 40.2489 76.1491 41.1206ZM64.4893 42.7964C65.4011 41.8846 65.4011 40.4063 64.4893 39.4945C63.5775 38.5827 62.0991 38.5827 61.1873 39.4945L44.1619 56.5199L38.8167 51.1695C37.9054 50.2571 36.4271 50.2563 35.5148 51.1675C34.6024 52.0788 34.6016 53.5571 35.5129 54.4695L40.858 59.8208C41.2917 60.2547 41.807 60.5994 42.3737 60.8343C42.9405 61.0692 43.548 61.19 44.1614 61.19C44.7749 61.19 45.3823 61.0692 45.9491 60.8343C46.5156 60.5995 47.0303 60.2555 47.4639 59.8218L64.4893 42.7964Z" fill="#5E51FE"/>
</g>
</svg>
