<svg width="100" height="100" viewBox="0 0 100 100" fill="none" xmlns="http://www.w3.org/2000/svg">
<g clip-path="url(#clip0_1035_5980)">
<mask id="mask0_1035_5980" style="mask-type:luminance" maskUnits="userSpaceOnUse" x="0" y="0" width="100" height="100">
<path d="M100 0H0V100H100V0Z" fill="white"/>
</mask>
<g mask="url(#mask0_1035_5980)">
<path d="M100 0H0V100H100V0Z" fill="white"/>
<path d="M100 0H0V100H100V0Z" fill="#EFEEFF"/>
<path fill-rule="evenodd" clip-rule="evenodd" d="M56.9646 36.6639C56.9646 44.984 50.1562 51.6516 41.6604 51.6516C33.1676 51.6516 26.356 44.984 26.356 36.6639C26.356 28.3438 33.1676 21.6763 41.6604 21.6763C50.1562 21.6763 56.9646 28.3438 56.9646 36.6639ZM18.5312 68.6222C18.5312 60.9203 29.1857 58.9933 41.6601 58.9933C54.2022 58.9933 64.7891 60.9867 64.7891 68.6946C64.7891 76.3965 54.1345 78.3235 41.6601 78.3235C29.118 78.3235 18.5312 76.3302 18.5312 68.6222Z" fill="#5E51FE"/>
<path d="M63.1322 36.9353C63.1322 41.1723 61.8327 45.1258 59.554 48.4098C59.3169 48.7475 59.5263 49.2029 59.9389 49.2753C60.5116 49.3688 61.0998 49.4261 61.7003 49.4381C67.6742 49.5919 73.0353 45.8254 74.5165 40.153C76.712 31.7364 70.2701 24.1792 62.0636 24.1792C61.1737 24.1792 60.3207 24.2697 59.4893 24.4356C59.3754 24.4597 59.2522 24.514 59.1906 24.6105C59.1105 24.7341 59.1691 24.8939 59.2491 24.9995C61.7157 28.386 63.1322 32.5084 63.1322 36.9353Z" fill="#5E51FE"/>
<path d="M80.7776 59.9735C79.6844 57.6907 77.0454 56.1256 73.03 55.3566C71.1362 54.9043 66.006 54.2619 61.2361 54.3524C61.1653 54.3614 61.1253 54.4097 61.1191 54.4399C61.1099 54.4881 61.1314 54.5605 61.2238 54.6117C63.4286 55.6793 71.9491 60.3233 70.8775 70.1181C70.8313 70.5463 71.1793 70.9082 71.6135 70.8479C73.7105 70.5554 79.1055 69.4185 80.7776 65.8842C81.7045 64.0145 81.7045 61.8432 80.7776 59.9735Z" fill="#5E51FE"/>
</g>
</g>
<defs>
<clipPath id="clip0_1035_5980">
<rect width="100" height="100" rx="12" fill="white"/>
</clipPath>
</defs>
</svg>
