<svg width="100" height="100" viewBox="0 0 100 100" fill="none" xmlns="http://www.w3.org/2000/svg">
<g clip-path="url(#clip0_1035_6009)">
<mask id="mask0_1035_6009" style="mask-type:luminance" maskUnits="userSpaceOnUse" x="0" y="0" width="100" height="100">
<path d="M100 0H0V100H100V0Z" fill="white"/>
</mask>
<g mask="url(#mask0_1035_6009)">
<path d="M100 0H0V100H100V0Z" fill="white"/>
<path d="M100 0H0V100H100V0Z" fill="#EFEEFF"/>
<path d="M39.0981 69.9914C39.1727 69.7749 39.2931 69.577 39.451 69.4112C39.6089 69.2453 39.8007 69.1154 40.0133 69.0303C40.2259 68.9451 40.4543 68.9067 40.683 68.9177C40.9117 68.9286 41.1354 68.9887 41.3389 69.0938C44.1465 70.5525 47.2658 71.309 50.4297 71.2982C53.5935 71.2875 56.7077 70.51 59.5053 69.0323C59.7105 68.9241 59.9368 68.862 60.1685 68.8504C60.4002 68.8388 60.6316 68.8779 60.8466 68.965C61.0616 69.0521 61.255 69.1851 61.4133 69.3547C61.5716 69.5242 61.691 69.7263 61.7631 69.9468L64.5216 78.4454C64.6437 78.8187 64.7061 79.2091 64.7062 79.6019V82.4496C64.7057 82.9383 64.6088 83.4222 64.421 83.8735C64.2333 84.3247 63.9584 84.7345 63.6121 85.0794C63.2658 85.4243 62.8549 85.6976 62.4029 85.8835C61.9509 86.0695 61.4667 86.1645 60.9779 86.1631H39.7135C38.7289 86.1619 37.785 85.7703 37.0889 85.0742C36.3927 84.378 36.0011 83.4341 36 82.4496V79.621C35.9991 79.2116 36.0665 78.805 36.1994 78.4178L39.0981 69.9914Z" fill="#5E51FE"/>
<path d="M49.5783 60.4388C60.2919 60.4388 68.9769 51.7538 68.9769 41.0402C68.9769 30.3267 60.2919 21.6416 49.5783 21.6416C38.8648 21.6416 30.1797 30.3267 30.1797 41.0402C30.1797 51.7538 38.8648 60.4388 49.5783 60.4388Z" fill="white"/>
<path d="M49.9993 65.9282C64.8912 65.9282 76.9634 53.856 76.9634 38.9641C76.9634 24.0722 64.8912 12 49.9993 12C35.1075 12 23.0352 24.0722 23.0352 38.9641C23.0352 53.856 35.1075 65.9282 49.9993 65.9282Z" fill="#5E51FE"/>
<path d="M64.3532 30.7251L47.3278 47.7505C47.111 47.9675 46.8535 48.1396 46.5702 48.257C46.2868 48.3744 45.9831 48.4349 45.6763 48.4349C45.3696 48.4349 45.0659 48.3744 44.7825 48.257C44.4991 48.1396 44.2417 47.9675 44.0248 47.7505L38.6797 42.3991" stroke="white" stroke-width="4.66961" stroke-linecap="round" stroke-linejoin="round"/>
</g>
</g>
<defs>
<clipPath id="clip0_1035_6009">
<rect width="100" height="100" rx="12" fill="white"/>
</clipPath>
</defs>
</svg>
