<svg id="Layer_1" data-name="Layer 1" xmlns="http://www.w3.org/2000/svg" viewBox="0 0 39 39"><defs><style>.cls-1{fill:#5e51fe;}.cls-2{fill:#fff;}</style></defs><path class="cls-1" d="M39,20.05a19.5,19.5,0,1,0-19.5,19.5A19.5,19.5,0,0,0,39,20.05Z"/><path class="cls-2" d="M31.59,20.59a5,5,0,0,0-1.89-3.15,4.72,4.72,0,0,0-3.36-.86,4.74,4.74,0,0,0-4,2.59,5.78,5.78,0,0,0-.31,4.71,4.44,4.44,0,0,0,2.67,2.81,6,6,0,0,0,2.82.34,4.34,4.34,0,0,0,3.92-3.15c.05-.14,0-.16-.11-.16h-2.1c-.11,0-.18,0-.21.14a1.44,1.44,0,0,1-.56.66,2.76,2.76,0,0,1-2.9.18,2.19,2.19,0,0,1-1.11-2c0-.19,0-.23.22-.23h7v-.35a.86.86,0,0,1,0-.39v-.44A4,4,0,0,1,31.59,20.59Zm-2.8.16H24.65c-.13,0-.16,0-.15-.16a2.15,2.15,0,0,1,2.38-2,2,2,0,0,1,2.08,2C29,20.8,28.87,20.75,28.79,20.75Z"/><path class="cls-2" d="M31.73,22.11a.37.37,0,0,1,0-.39Z"/><path class="cls-2" d="M20.09,20.43a3.51,3.51,0,0,0-1.76-1.11l.37-.2a2.94,2.94,0,0,0,1.39-1.72,3.74,3.74,0,0,0,.1-1.37,2.86,2.86,0,0,0-2-2.65A7.11,7.11,0,0,0,15.81,13H9.46c-.16,0-.18.05-.18.21V26.61c0,.16,0,.2.2.2H16a7,7,0,0,0,1.64-.18,3.94,3.94,0,0,0,2.5-6.2ZM12.3,15.55c0-.13,0-.16.18-.16h1.66a13.64,13.64,0,0,1,1.77.06,1.41,1.41,0,0,1,1.3,1.18,1.54,1.54,0,0,1-1.63,2c-1,0-2.08,0-3.14,0-.12,0-.14-.05-.14-.17C12.3,17.49,12.32,16.52,12.3,15.55Zm3.77,8.88c-.94.08-1.87,0-2.81,0h-.78c-.14,0-.18,0-.18-.16,0-.58,0-1.16,0-1.74s0-1.15,0-1.73c0-.14,0-.17.18-.17h3.24a2.35,2.35,0,0,1,1.36.35,1.8,1.8,0,0,1,.71,1.65A1.66,1.66,0,0,1,16.07,24.43Z"/><path class="cls-2" d="M26.73,15.11H24.12c-.15,0-.2,0-.2-.2,0-.33,0-.67,0-1,0-.13,0-.16.16-.16h5.31c.12,0,.15,0,.14.15,0,.34,0,.68,0,1,0,.14,0,.18-.18.18Z"/></svg>