<svg width="39" height="39" viewBox="0 0 39 39" fill="none" xmlns="http://www.w3.org/2000/svg">
<path d="M38.9999 19.4999C38.9999 8.73042 30.2694 0 19.4999 0C8.73042 0 0 8.73042 0 19.4999C0 30.2694 8.73042 38.9999 19.4999 38.9999C30.2694 38.9999 38.9999 30.2694 38.9999 19.4999Z" fill="#5E51FE"/>
<g clip-path="url(#clip0_83_5890)">
<mask id="mask0_83_5890" style="mask-type:luminance" maskUnits="userSpaceOnUse" x="8" y="8" width="22" height="22">
<path d="M28.1654 18.9997C28.1669 20.2071 27.9291 21.4028 27.4658 22.5178C27.0026 23.6327 26.3229 24.6448 25.4662 25.4956C24.6165 26.3438 23.6079 27.0162 22.4982 27.4745C21.3885 27.9327 20.1993 28.1678 18.9987 28.1663C13.936 28.1663 9.83204 24.0624 9.83204 18.9997C9.82874 16.6492 10.7316 14.388 12.3529 12.6861C13.2082 11.7834 14.2388 11.0648 15.3816 10.5742C16.5243 10.0836 17.7551 9.83141 18.9987 9.83302C20.1993 9.83154 21.3885 10.0666 22.4982 10.5249C23.6079 10.9831 24.6165 11.6556 25.4662 12.5037C26.3229 13.3545 27.0026 14.3666 27.4658 15.4816C27.9291 16.5966 28.1669 17.7923 28.1654 18.9997Z" fill="white" stroke="white" stroke-width="2" stroke-linecap="round" stroke-linejoin="round"/>
<path d="M28.1657 18.9999C26.8282 18.9999 23.1387 18.4957 19.8364 19.9454C16.249 21.5207 13.6516 23.9645 12.5195 25.4839" stroke="black" stroke-width="2" stroke-linecap="round" stroke-linejoin="round"/>
<path d="M15.5625 10.499C16.9971 11.8231 20.1275 15.1942 21.2917 18.5409C22.4558 21.8877 22.8867 26.0026 23.1525 27.1736" stroke="black" stroke-width="2" stroke-linecap="round" stroke-linejoin="round"/>
<path d="M9.90234 17.8536C11.6339 17.9581 16.2177 18.0521 19.1511 16.7994C22.0844 15.5468 24.6084 13.2428 25.4742 12.5117" stroke="black" stroke-width="2" stroke-linecap="round" stroke-linejoin="round"/>
<path d="M10.5195 22.489C11.3274 24.4441 12.7841 26.0612 14.6445 27.0682M9.83204 18.9997C9.82874 16.6492 10.7316 14.388 12.3529 12.6861C13.2082 11.7834 14.2388 11.0648 15.3816 10.5742C16.5243 10.0836 17.7551 9.83141 18.9987 9.83302M22.6654 10.5957C23.7095 11.0521 24.6593 11.6992 25.4662 12.5037C26.3229 13.3545 27.0026 14.3666 27.4658 15.4816C27.9291 16.5966 28.1669 17.7923 28.1654 18.9997C28.1654 20.1281 27.9614 21.2093 27.5879 22.208M18.9987 28.1663C20.1993 28.1678 21.3885 27.9327 22.4982 27.4745C23.6079 27.0162 24.6165 26.3438 25.4662 25.4956" stroke="white" stroke-width="2" stroke-linecap="round" stroke-linejoin="round"/>
</mask>
<g mask="url(#mask0_83_5890)">
<path d="M8 8H30V30H8V8Z" fill="white"/>
</g>
</g>
<defs>
<clipPath id="clip0_83_5890">
<rect width="22" height="22" fill="white" transform="translate(8 8)"/>
</clipPath>
</defs>
</svg>
