<svg id="Layer_1" data-name="Layer 1" xmlns="http://www.w3.org/2000/svg" viewBox="0 0 39 39"><defs><style>.cls-1{fill:#5e51fe;}.cls-2{fill:#fff;}</style></defs><path class="cls-1" d="M39,20.05a19.5,19.5,0,1,0-19.5,19.5A19.5,19.5,0,0,0,39,20.05Z" transform="translate(0 -0.55)"/><path class="cls-2" d="M16.13,32.57c0-1.88,0-3.75,0-5.63,0-.29-.08-.37-.37-.36-1,0-2.06,0-3.09,0-.68,0-.84-.17-.84-.84q0-2.07,0-4.14c0-.66.19-.85.85-.86,1,0,2.08,0,3.12,0,.27,0,.33-.07.33-.33,0-1.3-.05-2.6.05-3.89a6.31,6.31,0,0,1,6-6c1.45-.12,2.92,0,4.37,0,.48,0,.69.21.7.68q0,2.07,0,4.14c0,.47-.19.65-.66.67-1,0-1.92,0-2.89,0s-1.5.46-1.51,1.54,0,1.88,0,2.81c0,.26.07.34.33.34,1.18,0,2.36,0,3.54,0a2.55,2.55,0,0,1,.39,0c.47,0,.63.22.63.69,0,.77,0,1.53,0,2.3V25.8c0,.62-.16.78-.79.78-1.25,0-2.5,0-3.75,0-.31,0-.39.09-.39.39q0,5.48,0,11c0,1-.11,1.08-1.07,1.08H17c-.73,0-.9-.18-.9-.9C16.13,36.25,16.13,34.41,16.13,32.57Z" transform="translate(0 -0.55)"/></svg>