<svg width="111" height="102" viewBox="0 0 111 102" fill="none" xmlns="http://www.w3.org/2000/svg">
<path d="M51.1426 78.6287C51.5471 75.0931 51.9669 71.3859 52.4018 67.6801C52.4596 67.1842 52.5711 66.6888 52.7154 66.2109C52.7646 66.0505 52.9831 65.8537 53.1447 65.8313C53.5376 65.7772 53.9425 65.7995 54.3415 65.8182C57.4663 65.9687 60.582 66.2265 63.6468 66.8776C67.0315 67.5961 70.4626 67.4014 73.8814 67.4839C76.2677 66.9898 78.7011 67.1283 81.1083 66.9404C82.7344 66.813 84.3353 66.8772 85.9288 67.1118C86.9478 67.2617 87.9342 67.2571 88.9275 67.0205C90.5069 66.6451 92.085 66.3989 93.7066 66.7987C94.227 66.9275 94.7006 66.6802 95.0971 66.3473C96.0271 65.5675 96.8727 64.715 97.5615 63.6999C98.9757 61.616 100.516 59.6124 101.849 57.4779C103.717 54.4845 105.294 51.3261 106.65 48.0643C107.118 46.9404 107.413 45.7731 107.622 44.5736C108.244 40.9947 108.954 37.429 109.516 33.8409C110.142 29.8565 110.651 25.8577 110.098 21.8038C109.991 21.017 110.132 20.1962 110.165 19.3909C110.192 18.7228 109.889 18.224 109.357 17.865C109.027 17.6419 108.679 17.3798 108.304 17.2987C105.84 16.7678 103.376 16.2084 100.831 16.2564C100.53 16.2628 100.228 16.2948 99.9288 16.3324C95.8228 16.8398 91.697 16.7477 87.5747 16.7357C86.9728 16.7333 86.3704 16.6257 85.7715 16.5418C82.5751 16.0966 79.3651 15.7925 76.1443 15.6057C75.6408 15.576 75.1326 15.5365 74.6416 15.4296C72.4636 14.9586 70.2404 14.8769 68.0352 14.6805C65.7189 14.4744 63.4278 14.1486 61.1431 13.7367C53.9918 12.4507 46.8399 11.1747 39.6859 9.90357C36.009 9.24951 32.3754 8.43912 28.8355 7.21869C28.07 6.9551 27.3424 6.65211 26.609 6.31609C24.1387 5.18541 21.5857 4.22327 19.1602 3.00702C16.8899 1.86849 14.4504 1.26877 12.0864 0.432629C11.7102 0.300082 11.3046 0.209726 10.9083 0.190205C10.5079 0.171258 10.1069 0.285468 9.8453 0.645037C8.71795 2.19957 7.84393 3.90703 6.94428 5.59322C5.85166 7.64227 4.98377 9.775 4.38485 12.0378C3.71267 14.5746 3.03211 17.101 2.60239 19.6939C2.15704 22.3815 1.65184 25.0596 1.17296 27.7412C0.97777 28.8342 0.857318 29.9251 0.858242 31.0467C0.862777 34.4734 0.935231 37.893 1.4282 41.2903C1.3088 43.6669 2.32268 45.8191 2.81229 48.0726C3.07723 49.2875 3.89143 50.1826 5.11723 50.6963C9.57805 52.5657 14.0639 54.3665 18.6731 55.8432C20.6856 56.4871 22.6919 57.1158 24.6562 57.9293C26.7878 58.8111 29.0616 59.3697 31.302 59.9582C33.6451 60.574 35.9573 61.2624 38.2141 62.1461C38.8646 62.4006 39.5642 62.5525 40.2536 62.682C41.4576 62.9086 42.5545 63.4121 43.6614 63.8956C43.9918 64.0404 44.1818 64.5345 44.0494 64.9312C43.8271 65.6016 43.5977 66.2693 43.3527 66.9305C42.6185 68.9102 41.8362 70.8724 41.1503 72.8685C40.6596 74.2958 40.1978 75.7475 39.8947 77.2224C39.3243 80.0004 38.288 82.6311 37.5138 85.3445C37.2646 86.2163 37.0349 87.093 36.7941 87.9677C36.72 88.239 36.1189 88.634 35.8321 88.5892C34.4369 88.3708 33.0436 88.1425 31.6488 87.9293C30.7518 87.7922 29.8561 87.6258 28.9528 87.567C28.2054 87.5181 27.5689 87.8454 27.194 88.5307C26.6612 89.5045 26.1438 90.4861 26.0033 91.6171C25.9411 92.1161 25.8149 92.6075 25.7053 93.0993C25.5055 93.9954 25.1386 94.8154 24.6055 95.5687C23.2634 97.4643 21.8366 99.2819 20.1961 100.94C18.6383 102.515 17.162 104.172 15.6754 105.815C15.2728 106.261 14.9434 106.778 14.61 107.281C14.1398 107.99 14.5521 108.954 15.4222 109.178C16.0066 109.328 16.5987 109.465 17.1966 109.555C19.1035 109.843 20.9306 110.399 22.7134 111.123C24.9515 112.033 27.2172 112.881 29.4288 113.853C31.5692 114.793 33.7848 115.383 36.0777 115.807C39.3546 116.411 42.6548 116.841 45.9563 117.258C47.8538 117.498 49.7741 117.626 51.6865 117.667C54.4188 117.726 57.1215 117.972 59.7988 118.518C60.3911 118.639 60.9922 118.724 61.5933 118.789C62.5852 118.897 63.3113 118.118 63.1952 117.089C63.1616 116.789 63.1246 116.487 63.0496 116.196C62.4256 113.755 61.7963 111.315 61.1616 108.877C60.7785 107.405 60.2027 106.014 59.3946 104.719C59.0757 104.208 58.8477 103.641 58.5549 103.113C57.7935 101.743 57.4844 100.344 57.9235 98.7683C58.2473 97.6085 58.3599 96.3893 58.5428 95.1929C58.6392 94.5667 58.1902 94.0956 57.5001 93.9839C55.1118 93.5997 52.7248 93.208 50.3393 92.8012C49.7983 92.7084 49.5038 92.2765 49.5525 91.7021C49.8883 87.7838 50.321 83.8751 50.8979 79.9845C50.959 79.5917 51.0412 79.1963 51.1426 78.6287ZM51.4281 54.7025C50.9529 54.701 50.4351 54.8661 50.0861 54.3731C50.0328 54.2983 50.0099 54.1827 50.0138 54.0885C50.024 53.802 50.169 53.701 50.3605 53.8557C50.7343 54.1595 51.0867 54.4903 51.4428 54.8C51.3955 54.7493 51.3481 54.6985 51.302 54.648C51.2596 54.6917 51.1745 54.7662 51.1819 54.7752C51.2896 54.9328 51.3766 54.9048 51.4281 54.7025ZM49.6211 100.741C49.816 100.769 50.0581 100.734 50.1998 100.838C52.954 102.841 55.6496 104.92 58.2595 107.106C58.5393 107.341 58.6691 107.785 58.7948 108.157C58.8393 108.288 58.6782 108.501 58.5797 108.658C58.5512 108.703 58.3874 108.716 58.3262 108.678C57.9008 108.419 57.4493 108.184 57.0736 107.862C54.7884 105.903 52.518 103.925 50.2524 101.943C50.0308 101.748 49.8324 101.503 49.6954 101.244C49.6179 101.097 49.6848 100.873 49.6863 100.685C49.1238 100.612 49.0073 100.533 49.1692 100.344C49.2146 100.29 49.3433 100.266 49.4163 100.288C49.6443 100.353 49.7084 100.518 49.6211 100.741ZM22.7276 46.6242C22.4702 45.3171 22.3532 44.135 22.3967 42.915C22.4608 41.1065 22.3399 39.2932 22.3723 37.4828C22.399 35.9766 22.5243 34.4712 22.6415 32.9682C22.6517 32.8393 22.9472 32.6127 23.0766 32.6345C23.6654 32.732 24.2714 32.8338 24.8196 33.0586C26.8641 33.8966 28.8624 34.8495 30.9273 35.6309C32.5312 36.2378 34.1146 36.8589 35.6266 37.6723C36.2427 38.0041 36.9406 38.18 37.5676 38.4944C38.0275 38.7252 38.3496 39.1249 38.353 39.6869C38.3543 39.9883 38.3448 40.2929 38.3067 40.5925C37.8893 43.8912 37.7061 47.2062 37.576 50.5255C37.5605 50.9213 37.4564 51.3244 37.3264 51.701C37.2731 51.8556 37.0098 52.0815 36.8983 52.0527C34.8511 51.5384 32.7724 51.1069 30.7813 50.422C28.2166 49.5397 25.8194 48.2363 23.3548 47.1028C23.1783 47.0213 23.0362 46.8626 22.7276 46.6242ZM101.993 40.8973C100.521 41.4484 99.1081 41.4754 97.7144 41.629C96.7183 41.7382 95.6817 41.7299 94.736 42.016C92.7849 42.607 90.7812 42.6593 88.7869 42.8248C88.0936 42.8817 87.3872 42.7902 86.6884 42.7487C86.2736 42.7246 85.9189 42.328 85.9586 41.9621C86.2624 39.1698 86.5526 36.3752 86.8842 33.5853C86.9787 32.7908 87.1693 32.0033 87.3658 31.2259C87.4377 30.9452 87.6717 30.7115 88.0093 30.6872C88.6078 30.6441 89.2073 30.5884 89.8071 30.5814C91.5114 30.5615 93.2497 30.7745 94.9123 30.5075C97.6817 30.0639 100.513 30.071 103.241 29.3508C103.331 29.3271 103.46 29.3207 103.527 29.3686C103.677 29.4722 103.911 29.6141 103.914 29.744C103.926 30.3434 103.928 30.9539 103.827 31.542C103.354 34.3156 102.849 37.0835 102.343 39.8525C102.291 40.1432 102.156 40.419 101.993 40.8973ZM7.50022 28.5969C7.63369 28.0145 7.80726 27.2291 7.99802 26.448C8.09384 26.055 8.56175 25.7745 8.91249 25.8846C9.29464 26.0054 9.68655 26.1074 10.0472 26.2769C12.1354 27.265 14.2091 28.2839 16.2997 29.266C17.4821 29.8219 18.6974 30.3081 19.8717 30.8805C20.0922 30.9878 20.2771 31.3374 20.3222 31.6018C20.4076 32.0925 20.4211 32.605 20.3886 33.1029C20.2435 35.3148 20.1979 37.5226 20.2824 39.7408C20.3471 41.4454 20.2001 43.1584 20.1412 44.8666C20.1234 45.3966 19.6115 45.6717 19.0673 45.454C18.7873 45.3425 18.5052 45.2358 18.233 45.109C17.0488 44.5566 15.9071 43.8874 14.6792 43.4644C12.0449 42.5556 10.0266 40.7097 7.81869 39.1504C7.53062 38.9477 7.28782 38.4917 7.26166 38.1359C7.0324 35.0202 6.93279 31.9035 7.50022 28.5969ZM38.2136 36.1618C37.4584 35.9052 36.7738 35.7343 36.1446 35.4463C34.5913 34.7357 33.0429 34.0401 31.4305 33.4522C28.9769 32.5578 26.6116 31.4203 24.2101 30.3852C24.1172 30.3455 24.0303 30.2941 23.9417 30.245C23.3928 29.938 23.0667 29.353 23.1759 28.7342C23.7381 25.5575 24.3152 22.3834 24.8997 19.2106C24.934 19.0257 25.0925 18.8631 25.217 18.6469C25.488 18.7081 25.7934 18.7281 26.0559 18.8441C27.2518 19.3743 28.4662 19.8731 29.6171 20.4901C32.4782 22.0237 35.4648 23.1697 38.6854 23.6731C39.0757 23.7338 39.4602 23.8845 39.8182 24.0548C39.9706 24.1269 40.0867 24.345 40.1463 24.521C40.2075 24.7024 40.2161 24.9192 40.1857 25.1112C39.6745 28.397 39.1607 31.6837 38.6272 34.9656C38.5664 35.3418 38.377 35.6989 38.2136 36.1618ZM82.282 50.8949L82.2832 50.8951C82.124 51.7869 81.9647 52.6787 81.8055 53.5705C81.77 53.7692 81.7359 53.9669 81.6942 54.1645C81.2881 56.1016 80.9451 56.4146 78.8924 56.6773C78.2943 56.7538 77.6934 56.8246 77.0919 56.8556C74.1833 57.0091 71.2672 56.9894 68.3637 57.2796C67.8769 57.3286 67.3682 57.1775 66.8729 57.1018C66.4436 57.0367 66.1467 56.6466 66.2096 56.2657C66.2589 55.9682 66.2533 55.648 66.367 55.3774C67.5489 52.5625 67.9589 49.5636 68.4992 46.5956C68.643 45.8049 68.8262 45.0225 69.0071 44.2397C69.0913 43.8753 69.5458 43.5553 69.91 43.6114C71.4998 43.8594 73.0905 44.1025 74.6754 44.3855C76.265 44.6707 77.8578 44.859 79.4783 44.8203C80.2815 44.801 81.0872 44.8538 81.8909 44.8961C82.4801 44.927 82.8646 45.2853 82.8478 45.8104C82.8214 46.7118 82.7916 47.6177 82.6921 48.5125C82.6079 49.3138 82.4235 50.1025 82.282 50.8949ZM82.9654 42.6183C81.3081 42.5902 79.5063 42.5606 77.7047 42.5298C75.2705 42.4886 72.9182 41.9096 70.5526 41.4269C69.8751 41.2879 69.6012 40.8123 69.6912 40.0786C69.704 39.9783 69.7103 39.8782 69.7268 39.7786C70.1659 37.0976 70.7283 34.4361 70.9607 31.7208C71.0288 30.9306 71.2677 30.1453 71.5148 29.3859C71.586 29.1666 71.9384 28.9732 72.199 28.8993C72.4731 28.8213 72.7959 28.8726 73.091 28.9137C76.1803 29.3488 79.2733 29.7627 82.3558 30.2427C85.0768 30.6658 85.2011 30.2497 84.6815 33.3893C84.6161 33.7839 84.6402 34.1944 84.5895 34.593C84.3053 36.7876 84.0185 38.9819 83.7144 41.173C83.6456 41.6657 83.5359 42.1652 82.9654 42.6183ZM85.6026 45.1181C86.495 45.0878 87.3948 45.087 88.2896 45.0212C89.9945 44.8976 91.7345 44.9071 93.392 44.5469C95.3692 44.1182 97.3561 43.9155 99.3492 43.6563C101.712 43.349 101.54 43.8592 100.919 45.6874C100.111 48.0679 99.2226 50.4225 98.3599 52.7844C98.222 53.1622 98.0549 53.5309 97.8762 53.8925C97.6301 54.3881 97.2253 54.6093 96.6615 54.5945C94.3356 54.5354 92.0583 54.6991 89.7976 55.4091C88.4752 55.824 87.0194 55.8229 85.6186 55.9662C85.2269 56.0065 84.8191 55.9004 84.4203 55.851C84.0844 55.8089 83.7362 55.3327 83.7814 54.9717C83.8424 54.4725 83.91 53.9719 83.991 53.475C84.3955 50.9878 84.7985 48.5016 85.2228 46.0179C85.2694 45.7353 85.4481 45.4737 85.6026 45.1181ZM103.97 18.924C104.096 20.4487 104.182 21.7494 104.319 23.0454C104.427 24.0554 104.457 25.0566 104.252 26.0568C104.163 26.4895 103.892 26.8025 103.493 26.912C102.427 27.206 101.354 27.6219 100.27 27.6694C98.8504 27.7324 97.4758 28.0521 96.077 28.1625C93.9686 28.3281 91.8498 28.3649 89.7346 28.4396C89.4366 28.4505 89.1356 28.3558 88.8364 28.3164C88.1802 28.23 87.9209 27.9594 87.9157 27.3932C87.8908 24.8486 88.4534 22.387 88.9597 19.918C89.0569 19.4457 89.5674 18.9909 90.0273 18.9923C90.9316 18.9949 91.8414 19.1036 92.7413 19.0528C95.3552 18.9057 97.9677 18.716 100.578 18.5105C101.691 18.4222 102.778 18.4369 103.97 18.924ZM8.6964 23.1904C8.73517 22.5642 8.72155 21.9658 8.81849 21.3872C9.18282 19.2106 9.57823 17.0397 9.97486 14.8689C10.0652 14.3775 10.1954 13.8919 10.3215 13.4082C10.435 12.9735 10.8566 12.7232 11.2145 12.8576C12.8005 13.4574 14.3832 14.0681 15.9759 14.6512C17.7575 15.3039 19.5492 15.9289 21.3355 16.5696C21.5235 16.6365 21.7028 16.73 21.8859 16.8101C22.5461 17.0959 22.8445 17.535 22.7257 18.2148C22.1703 21.3749 21.5926 24.5309 21.0199 27.6879C21.0024 27.786 20.9565 27.8778 20.9253 27.9735C20.8618 28.171 20.4044 28.4431 20.2083 28.3927C19.8236 28.2932 19.4166 28.2398 19.0599 28.0774C16.9708 27.1225 14.893 26.1413 12.8104 25.1722C11.9027 24.7499 10.9872 24.3429 10.0807 23.9144C9.63697 23.7006 9.20629 23.4571 8.6964 23.1904ZM86.0514 23.6511C85.9397 24.5206 85.8341 25.4207 85.7046 26.3178C85.648 26.714 85.5489 27.1039 85.4575 27.4938C85.3761 27.842 84.9254 28.1768 84.5644 28.1597C84.1628 28.1406 83.7612 28.1291 83.3618 28.0834C81.8624 27.9105 80.3679 27.6307 78.8635 27.5646C76.835 27.4766 74.8754 27.0241 72.8969 26.6631C71.9847 26.4964 71.6819 26.0963 71.7534 25.208C71.9411 22.9012 72.1436 20.5971 72.3539 18.2931C72.3909 17.8921 72.7987 17.5677 73.1811 17.5937C76.0908 17.7929 79.003 17.9707 81.9097 18.2079C83.212 18.3148 84.5052 18.5368 85.8008 18.7246C86.4318 18.8155 86.8011 19.3595 86.6894 20.0496C86.4956 21.2428 86.2694 22.4302 86.0514 23.6511ZM55.1004 32.072C55.1295 30.8251 55.1276 29.7238 55.1955 28.626C55.2259 28.1329 55.3396 27.6251 55.5239 27.1672C55.6157 26.9401 55.9313 26.7375 56.1859 26.6612C56.4583 26.5779 56.7833 26.6244 57.0778 26.6693C59.6612 27.0588 62.2442 27.4509 64.8239 27.8616C66.014 28.0511 67.1983 28.2805 68.3829 28.501C68.7538 28.5698 69.0794 29.0073 69.0287 29.3777C68.7477 31.4678 68.4828 33.5609 68.1618 35.6452C67.9481 37.0361 67.6583 38.4146 67.3824 39.7944C67.273 40.3426 66.8337 40.6782 66.3208 40.6507C65.2177 40.5908 64.1135 40.5448 63.0138 40.4446C62.6292 40.4092 62.2573 40.2313 61.8885 40.1219C61.7731 39.6629 61.6826 39.2725 61.5758 38.8869C60.7209 35.8082 59.0845 33.4243 55.8548 32.4554C55.6687 32.3991 55.5019 32.2783 55.1004 32.072ZM41.6147 17.2023C41.6222 17.2036 41.6297 17.2049 41.6384 17.2065C41.5679 17.6015 41.4973 17.9964 41.4268 18.3914C40.7689 22.0612 41.0454 21.7683 37.4543 21.1078C36.3784 20.9105 35.3133 20.5807 34.2859 20.1972C31.7483 19.2494 29.3676 17.954 26.9516 16.742C26.7727 16.6524 26.5967 16.5543 26.4256 16.4507C26.1281 16.2719 25.9167 15.769 26.0105 15.3948C26.2057 14.6171 26.3453 13.8141 26.6414 13.0749C28.4195 8.62982 27.045 9.22896 31.7436 10.3769C34.2733 10.9953 36.7751 11.7202 39.35 12.1429C39.944 12.24 40.5382 12.3435 41.1224 12.4812C41.8777 12.6584 42.371 12.8746 42.1941 13.9439C42.0139 15.0319 41.8088 16.1155 41.6147 17.2023ZM62.3292 25.3027C62.3234 25.335 62.3189 25.3675 62.3134 25.3985C60.6304 25.098 58.945 24.8111 57.2654 24.4919C56.3272 24.3128 56.0525 23.9844 56.073 23.073C56.1094 21.4697 56.0454 19.869 56.3655 18.2703C57.0017 15.1029 56.7257 15.2484 60.0416 15.8354C60.4378 15.9062 60.8345 15.9745 61.2303 16.0477C63.4059 16.4529 65.5795 16.8552 67.8121 16.7835C68.3021 16.7672 68.8012 16.9294 69.2929 17.0249C69.6868 17.1016 69.9637 17.46 69.9876 17.8859C70.1272 20.4126 69.6992 22.8956 69.4063 25.3899C69.3954 25.4867 69.3785 25.6029 69.3182 25.6677C69.1869 25.8071 69.0432 25.9659 68.8721 26.0341C68.2909 26.2673 67.686 26.1952 67.0883 26.0974C65.4999 25.8343 63.9147 25.5679 62.3292 25.3027ZM53.6903 50.0658C54.7212 49.7551 55.5877 49.5101 56.4412 49.2306C56.8183 49.1069 57.2212 48.9751 57.5297 48.7405C59.1602 47.4976 60.4717 46.0028 61.073 43.9852C61.1843 43.6129 61.319 43.2461 61.5204 42.6425C62.7328 42.8795 63.9053 42.5647 65.1027 42.6991C65.4004 42.733 65.6921 42.8223 65.9865 42.889C66.3634 42.9742 66.6703 43.3802 66.6211 43.7777C66.2613 46.6753 65.9498 49.611 65.0024 52.3679C63.1403 57.7861 64.5974 57.0261 58.6734 56.2809C57.4764 56.1299 56.2918 55.8735 55.1039 55.6499C53.6842 55.3823 53.4853 55.1468 53.5145 53.6269C53.5358 52.5246 53.6205 51.4259 53.6903 50.0658ZM44.7988 37.6249C43.6009 37.6084 42.5187 37.3959 41.4504 37.091C41.1125 36.9948 40.813 36.5696 40.8572 36.1571C40.9642 35.1561 41.1972 34.1595 41.2003 33.1591C41.2075 30.815 41.8001 28.5664 42.1673 26.2802C42.2316 25.8841 42.307 25.4695 42.4883 25.1212C42.6059 24.8936 42.9015 24.6951 43.1573 24.6191C43.4308 24.5372 43.7572 24.5827 44.0515 24.6288C46.5389 25.0179 48.9973 25.612 51.5325 25.6764C51.8284 25.6844 52.1207 25.8058 52.4136 25.8812C52.7838 25.9755 53.1741 26.4169 53.156 26.7405C53.0791 28.0468 53.0044 29.3549 52.9072 30.6602C52.8689 31.1686 52.7312 31.6528 52.2943 31.9964C51.5168 32.1588 50.724 32.2991 49.9447 32.4932C48.5178 32.8472 47.3784 33.6511 46.5355 34.8476C46.1902 35.3383 45.9464 35.8997 45.6306 36.4123C45.3712 36.8312 45.0723 37.2277 44.7988 37.6249ZM13.7225 3.43549C14.4466 3.56481 14.9479 3.60692 15.4182 3.75113C15.8909 3.89579 16.3332 4.13884 16.7859 4.34529C17.6059 4.71987 18.4198 5.10742 19.2422 5.476C21.1622 6.33667 23.0877 7.18808 25.0096 8.04524C25.2909 8.17109 25.603 8.77023 25.543 9.05559C25.1521 10.9288 24.5975 12.7497 23.7463 14.4663C23.6301 14.7006 23.2788 14.8378 22.953 14.7386C21.9962 14.4485 21.0112 14.2226 20.0891 13.8452C18.14 13.0473 16.2037 12.2349 14.1709 11.654C13.3172 11.4106 12.5295 10.92 11.7264 10.5152C11.3325 10.3167 11.1634 9.89301 11.2653 9.50878C11.3679 9.12082 11.441 8.71858 11.5961 8.3528C12.2538 6.79387 12.9385 5.2423 13.7225 3.43549ZM48.7699 23.1465C47.698 22.9551 47.1012 22.8524 46.5069 22.7424C42.5257 22.0058 42.8583 22.4753 43.5791 18.3528C43.8396 16.8652 44.1551 15.3861 44.4603 13.9065C44.5364 13.5382 44.9902 13.2578 45.3814 13.2918C45.6817 13.3185 45.9851 13.3342 46.2808 13.387C48.5643 13.7909 50.8484 14.1988 53.1299 14.614C53.4266 14.6682 53.744 14.7134 53.9994 14.8551C54.243 14.9909 54.5305 15.1755 54.4872 15.5472C54.1903 18.0421 53.8808 20.536 53.6945 23.0429C53.669 23.387 53.1845 23.7029 52.7907 23.6544C51.2886 23.4681 49.789 23.2747 48.7699 23.1465ZM92.1163 64.1706C89.6548 64.6128 87.2212 65.1997 84.6702 64.7505C83.5942 64.5609 82.4614 64.7034 81.3545 64.6864C81.1552 64.6829 80.952 64.6581 80.7594 64.6096C80.676 64.5883 80.5979 64.4949 80.5441 64.4161C80.4966 64.3448 80.4402 64.2296 80.4659 64.165C81.1298 62.4854 81.7854 60.8018 82.4873 59.1392C82.732 58.5588 83.1881 58.1724 83.8816 58.1642C84.5856 58.1554 85.2913 58.093 85.994 58.1057C87.6201 58.1359 89.2332 57.9306 90.7562 57.4259C92.3174 56.9088 93.9096 56.8919 95.5009 56.7442C95.9114 56.706 96.2602 57.1643 96.1327 57.5337C95.5347 59.2674 93.7089 62.4941 92.5797 63.7932C92.4507 63.9419 92.2719 64.0458 92.1163 64.1706ZM77.1813 64.8524C75.4963 65.0078 74.0055 65.2106 72.509 65.2651C71.0089 65.3188 69.5025 65.2639 68.0018 65.1843C66.5164 65.1049 65.0216 64.9994 63.6152 64.2484C63.6975 63.7876 63.7206 63.3854 63.8442 63.0166C64.1929 61.9754 64.5718 60.9447 64.9663 59.9193C65.029 59.7549 65.2296 59.6434 65.4183 59.4553C66.4545 59.452 67.5454 59.4866 68.6336 59.4361C72.1324 59.2715 75.6303 59.0759 79.1285 58.8932C79.6059 58.8682 79.8726 59.1837 79.77 59.6216C79.328 61.5011 78.5026 63.1877 77.1813 64.8524ZM39.9949 52.7056C39.6058 52.0709 39.7 51.3636 39.738 50.6771C39.8155 49.2747 40.0481 47.8718 40.0029 46.4744C39.934 44.341 40.4482 42.2937 40.6939 40.2075C40.705 40.1095 40.7255 39.9876 40.7891 39.9259C40.9298 39.7908 41.1151 39.5714 41.257 39.5877C42.148 39.6943 43.0345 39.8398 43.9143 40.0162C44.0726 40.0483 44.2631 40.2592 44.3118 40.4242C44.3936 40.7054 44.3829 41.0162 44.3948 41.3157C44.4375 42.3179 44.3776 43.3351 44.5314 44.3186C44.8489 46.3658 45.5907 48.19 47.6088 49.1976C47.8477 49.3172 48.0096 49.5948 48.2638 49.858C48.0695 50.9461 47.8885 52.0313 47.6789 53.1115C47.5318 53.8709 47.1369 54.1874 46.4407 54.0669C44.4641 53.7242 42.4902 53.3589 40.5189 52.9863C40.3338 52.9533 40.1721 52.8039 39.9949 52.7056ZM20.1893 48.451C20.252 48.8172 20.3745 49.2082 20.3753 49.5979C20.3773 50.6992 20.3472 51.8012 20.2954 52.9019C20.2642 53.5718 19.9257 53.824 19.3327 53.6566C16.0533 52.7288 12.8965 51.4524 9.7136 50.2496C9.52752 50.1792 9.32683 50.0972 9.18816 49.9622C8.97728 49.758 8.71461 49.5277 8.65003 49.265C8.12116 47.1238 7.81382 44.9478 7.73852 42.7427C7.7344 42.6151 7.97935 42.4781 8.18149 42.272C10.3963 44.0081 12.9475 45.152 15.544 46.2295C17.1082 46.8793 18.6056 47.6876 20.1893 48.451ZM22.7949 54.544C22.2177 52.9247 22.847 51.4248 22.7386 49.929C22.7324 49.8484 23.0786 49.6321 23.1958 49.6723C24.3352 50.0526 25.5032 50.3445 26.5595 50.9676C27.4199 51.475 28.3246 51.8993 29.2757 52.2576C30.9758 52.8995 32.7052 53.3853 34.4746 53.7692C35.157 53.9167 35.8273 54.153 36.4708 54.4256C36.7139 54.5279 36.9823 54.8193 37.0389 55.0691C37.3128 56.2843 37.0664 57.463 36.6105 58.5953C36.5551 58.7328 36.2875 58.8248 36.1029 58.861C35.9141 58.8991 35.6984 58.8721 35.5067 58.8263C31.8804 57.9608 28.3558 56.7483 24.8018 55.6432C24.0597 55.4133 23.4087 54.8894 22.7949 54.544ZM58.7431 116.226C58.3535 116.211 58.0533 116.213 57.7556 116.187C56.621 116.088 55.702 115.607 54.7801 114.899C49.5899 110.913 44.6041 106.694 39.8961 102.147C38.6652 100.958 37.4585 99.7493 36.4488 98.363C36.3665 98.2496 36.4405 98.0001 36.4884 97.8254C36.5038 97.7679 36.6619 97.7295 36.7584 97.7198C37.6018 97.6333 38.3412 97.8922 38.9958 98.418C40.8787 99.9244 42.7947 101.389 44.4364 103.177C45.1146 103.914 45.8739 104.586 46.64 105.234C50.0937 108.156 53.5652 111.059 57.0267 113.974C57.565 114.426 58.1099 114.877 58.5875 115.389C58.7448 115.556 58.6938 115.913 58.7431 116.226ZM44.1237 115.054C43.1452 114.986 42.5323 114.722 41.9356 114.288C40.2192 113.041 38.7778 111.488 37.1721 110.123C33.025 106.598 29.385 102.579 25.775 98.5293C25.7099 98.4561 25.6167 98.3536 25.6269 98.2747C25.6619 97.9926 25.6534 97.6386 25.8194 97.4555C25.9902 97.2668 26.3899 97.1101 26.6089 97.1825C26.9718 97.3037 27.3049 97.5836 27.592 97.8566C30.4321 100.555 33.1598 103.374 36.1503 105.912C36.3027 106.042 36.4154 106.215 36.5596 106.355C37.7114 107.477 38.8634 108.598 40.0212 109.714C41.4679 111.108 42.927 112.49 44.3611 113.897C44.5596 114.092 44.656 114.398 44.7712 114.665C44.8039 114.74 44.7577 114.934 44.7161 114.945C44.4381 115.016 44.1513 115.05 44.1237 115.054ZM61.1122 63.8463C60.7421 63.916 60.3501 64.0806 59.9754 64.047C57.8844 63.8569 55.7952 63.6273 53.7083 63.393C53.2622 63.3429 52.8595 62.7775 52.9173 62.2675C53.0629 60.9785 53.24 59.6926 53.4096 58.4054C53.4335 58.2212 53.8832 57.885 54.0764 57.9015C54.5735 57.9455 55.0749 57.9722 55.5669 58.0523C57.541 58.3729 59.4961 58.822 61.5103 58.8754C62.1811 58.8939 62.6132 59.503 62.4534 60.1178C62.1263 61.3756 61.7667 62.6213 61.1122 63.8463ZM50.6278 115.658C49.4089 115.537 48.6941 115.226 48.0884 114.635C47.5133 114.073 46.8768 113.575 46.2941 113.02C44.4004 111.215 42.5163 109.4 40.6322 107.584C38.8934 105.91 37.2239 104.156 35.4058 102.574C33.1242 100.588 31.0975 98.3506 28.9072 96.2767C28.7648 96.141 28.6583 95.9618 28.5585 95.7889C28.5115 95.7074 28.4745 95.5278 28.506 95.5091C28.646 95.4213 28.8343 95.2922 28.964 95.3269C29.4431 95.4573 29.9996 95.5349 30.3589 95.8336C31.9802 97.1831 33.6809 98.4749 35.0993 100.02C37.7603 102.918 40.6223 105.595 43.5532 108.201C45.8073 110.205 48.1658 112.092 50.4793 114.029C50.788 114.287 51.1271 114.513 51.4036 114.802C51.5169 114.921 51.5276 115.163 51.5362 115.352C51.5472 115.584 51.3893 115.693 51.1341 115.68C50.8351 115.667 50.5349 115.655 50.6278 115.658ZM36.6918 113.861C35.4046 113.683 34.64 113.365 33.9129 112.699C31.9814 110.934 29.9605 109.261 27.9228 107.617C25.9533 106.028 24.274 104.157 22.5519 102.324C22.3505 102.11 22.2788 101.758 22.5068 101.493C22.8989 101.042 23.3103 100.604 23.7526 100.201C23.8658 100.098 24.196 100.058 24.2972 100.144C24.9862 100.729 25.7236 101.286 26.2935 101.977C29.1209 105.415 32.3487 108.447 35.6596 111.401C36.3328 112.002 36.9478 112.671 37.5809 113.317C37.633 113.37 37.6193 113.497 37.618 113.59C37.6176 113.822 37.4793 113.929 37.2194 113.906C36.9175 113.882 36.6174 113.854 36.6918 113.861ZM39.3913 55.7046C39.8213 55.493 39.9094 55.4087 39.9944 55.4137C42.0964 55.5276 44.144 55.9753 46.1803 56.4722C46.3288 56.509 46.5513 56.7705 46.531 56.8912C46.263 58.471 45.8618 60.0142 44.9748 61.3784C44.8897 61.5106 44.627 61.5816 44.4461 61.5826C44.1507 61.5863 43.825 61.5729 43.5627 61.4556C42.2832 60.8836 40.9634 60.4518 39.5863 60.1893C39.2964 60.1336 38.9365 59.5862 38.9751 59.2483C39.1072 58.0633 39.2518 56.8806 39.3913 55.7046ZM59.7206 113.53C59.4441 113.334 59.111 113.132 58.8154 112.886C55.0286 109.718 51.2162 106.579 47.4797 103.352C46.1161 102.175 44.9353 100.785 43.6782 99.4848C43.6359 99.4414 43.6339 99.2949 43.6735 99.2456C43.8258 99.0601 44.0387 99.0237 44.2188 99.1777C45.289 100.089 46.3608 100.998 47.4115 101.933C48.0884 102.535 48.7021 103.211 49.3921 103.797C52.7712 106.663 56.0034 109.706 59.5647 112.357C59.7899 112.524 59.9259 112.818 60.0818 113.065C60.1217 113.128 60.1176 113.266 60.0746 113.327C60.0221 113.399 59.9068 113.427 59.7206 113.53ZM28.076 110.871C26.8587 110.604 24.4897 109.738 23.9136 109.347C23.7489 109.236 23.5734 109.128 23.4386 108.986C22.2034 107.685 21.0471 106.316 20.1084 104.783C19.9982 104.603 20.1376 104.224 20.2428 103.973C20.3401 103.744 20.8361 103.686 21.0318 103.853C21.5601 104.304 22.1433 104.713 22.5835 105.24C23.6761 106.551 24.9739 107.637 26.2361 108.765C26.8285 109.295 27.4203 109.827 27.9872 110.385C28.0832 110.479 28.0495 110.704 28.076 110.871ZM48.9006 79.7073C48.7647 79.8368 48.6466 80.0387 48.4885 80.0772C48.321 80.1177 48.1 80.0347 47.9275 79.9526C46.6545 79.3446 45.6452 78.3864 44.6271 77.442C44.0455 76.9024 43.4653 76.3617 42.904 75.8014C42.7701 75.6685 42.6415 75.4559 42.6419 75.2817C42.6432 75.0012 42.725 74.7082 42.8289 74.4423C42.9161 74.2195 43.3827 74.1977 43.6231 74.3726C45.4661 75.7219 47.1339 77.2707 48.7566 78.8703C48.823 78.936 48.8778 79.038 48.8886 79.1284C48.9109 79.3195 48.8993 79.5135 48.9006 79.7073ZM47.2815 87.2734C45.2707 85.7941 43.2495 84.3092 41.235 82.8152C41.0789 82.6989 40.9298 82.5287 40.864 82.3516C40.8014 82.1854 40.7856 81.93 40.8744 81.7985C40.9578 81.6762 41.2786 81.5592 41.3697 81.6229C42.8564 82.6421 44.3349 83.6712 45.7877 84.7368C46.4315 85.2081 47.0176 85.7588 47.6195 86.2854C47.8945 86.5254 47.838 86.6832 47.2815 87.2734ZM42.2462 78.1357C43.26 78.7384 44.0447 79.6552 44.9747 80.3904C45.9124 81.132 46.9013 81.8098 47.8653 82.5189C47.9447 82.5767 48.0146 82.6519 48.0792 82.7276C48.1439 82.8032 48.2429 82.8875 48.2459 82.9714C48.2521 83.1519 48.2547 83.36 48.1706 83.5077C48.0543 83.7138 47.8335 83.7308 47.6396 83.5962C46.5745 82.8574 45.4828 82.1524 44.4596 81.3583C43.5963 80.6877 42.7837 79.9415 42.009 79.17C41.7026 78.8615 41.7793 78.4394 42.2462 78.1357ZM44.0039 71.3288C44.0581 71.0616 44.4956 70.8437 44.6984 70.9927C45.7336 71.7556 46.7789 72.5049 47.7893 73.2992C48.2544 73.6656 48.6577 74.1131 49.0659 74.5474C49.1952 74.6846 49.2477 74.8926 49.337 75.0675C49.4435 75.2749 49.2769 75.7847 49.059 75.8278C48.8901 75.8617 48.6515 75.8845 48.5381 75.795C47.6846 75.1197 46.84 74.4306 46.0208 73.714C45.3514 73.1279 44.708 72.5106 44.0826 71.8785C43.9785 71.7728 44.0256 71.5159 44.0039 71.3288ZM40.2784 85.2935C40.328 85.2383 40.3683 85.1634 40.4303 85.1322C40.5133 85.0907 40.6361 85.0344 40.7024 85.0655C41.6224 85.5117 46.6852 89.3137 47.3377 90.0377C47.403 90.1096 47.4888 90.2108 47.4821 90.2916C47.4678 90.4646 47.4193 90.6431 47.3441 90.7988C47.3135 90.8626 47.1695 90.9151 47.0871 90.9029C46.8947 90.875 46.6659 90.8572 46.5274 90.7427C44.5327 89.1087 42.548 87.4624 40.5714 85.8059C40.4284 85.6881 40.3731 85.4668 40.2784 85.2935ZM50.3219 63.8969C49.3761 63.3371 48.5436 62.6232 47.8105 61.7835C47.505 61.4342 47.4675 60.8764 47.7229 60.3722C47.8451 60.1326 48.3123 59.9712 48.4971 60.099C49.3328 60.6802 50.0809 61.3636 50.6148 62.2279C50.96 62.7856 50.9191 63.3807 50.3219 63.8969ZM45.1983 67.8343C45.4416 67.7713 45.7779 67.5674 45.942 67.6607C47.3496 68.4696 48.5173 69.574 49.5863 70.7864C49.6514 70.8596 49.7148 70.9568 49.7289 71.0503C49.7562 71.2346 49.8216 71.4782 49.7354 71.5948C49.6528 71.7057 49.3377 71.7763 49.2222 71.7057C47.7614 70.8143 46.3141 69.8971 45.2775 68.4892C45.1817 68.3581 45.229 68.1217 45.1983 67.8343ZM49.7686 67.8994C49.6735 67.8722 49.5587 67.8696 49.4894 67.8123C48.4958 67.0031 47.5058 66.188 46.5204 65.3687C46.4489 65.3098 46.3683 65.2018 46.3725 65.1205C46.3863 64.8423 46.3922 64.5511 46.4866 64.295C46.5663 64.0785 47.1024 63.9974 47.2716 64.1481C48.0824 64.8684 48.9075 65.5732 49.679 66.3339C49.9471 66.5983 50.1058 66.9945 50.2437 67.3562C50.2892 67.4746 50.129 67.6895 50.0282 67.8381C49.9914 67.893 49.8591 67.881 49.7686 67.8994ZM41.3961 89.8789C40.614 89.7443 39.9374 89.6646 39.2839 89.4991C39.0154 89.4307 38.7854 89.1615 38.8551 88.8215C38.912 88.5458 38.9689 88.2343 39.1358 88.0244C39.3425 87.764 39.6657 87.8781 39.9064 88.0441C40.3092 88.3224 40.7298 88.5936 41.0661 88.942C41.2449 89.1252 41.2598 89.4649 41.3961 89.8789ZM48.9772 57.1306C49.0418 57.0704 49.0973 56.9893 49.1736 56.9568C49.2486 56.924 49.3661 56.9053 49.4287 56.9421C50.1042 57.3434 50.6362 57.8742 50.881 58.642C50.9024 58.7086 50.8731 58.8226 50.8233 58.8714C50.7593 58.9356 50.6263 59.0131 50.5683 58.9861C49.847 58.6547 49.2914 58.1416 48.9532 57.416C48.9177 57.3417 48.9676 57.2276 48.9772 57.1306ZM17.524 106.946C17.7028 106.763 17.8677 106.522 18.0953 106.388C18.2142 106.318 18.4673 106.393 18.6159 106.48C18.7762 106.573 18.9121 106.738 19.0085 106.901C19.1019 107.06 19.2186 107.296 19.1619 107.427C19.1074 107.553 18.8407 107.654 18.6713 107.648C18.3912 107.638 18.0953 107.572 17.8438 107.452C17.7088 107.389 17.6532 107.163 17.524 106.946ZM50.5278 50.1559C50.7115 50.1247 50.9519 50.0061 51.0682 50.0794C51.4263 50.3061 51.5176 50.6993 51.4949 51.1066C51.4902 51.1904 51.4259 51.2917 51.3576 51.3436C51.3116 51.3789 51.1908 51.374 51.137 51.3375C50.5883 50.9652 50.3898 50.5696 50.5278 50.1559ZM55.4487 101.969L55.6623 102.1L55.418 102.148L55.4487 101.969Z" fill="white"/>
</svg>
