<svg width="39" height="39" viewBox="0 0 39 39" fill="none" xmlns="http://www.w3.org/2000/svg">
<path d="M38.9997 19.4999C38.9997 8.73042 30.2693 0 19.4998 0C8.73029 0 -0.00012207 8.73042 -0.00012207 19.4999C-0.00012207 30.2694 8.73029 38.9999 19.4998 38.9999C30.2693 38.9999 38.9997 30.2694 38.9997 19.4999Z" fill="#5E51FE"/>
<path d="M19.3238 16.1039C17.5494 16.1039 16.1014 17.552 16.1014 19.3264C16.1014 21.1008 17.5494 22.5489 19.3238 22.5489C21.0982 22.5489 22.5462 21.1008 22.5462 19.3264C22.5462 17.552 21.0982 16.1039 19.3238 16.1039ZM28.9887 19.3264C28.9887 17.992 29.0007 16.6696 28.9258 15.3376C28.8509 13.7904 28.4979 12.4173 27.3666 11.2859C26.2328 10.1521 24.8621 9.8016 23.315 9.72666C21.9806 9.65172 20.6582 9.6638 19.3262 9.6638C17.9918 9.6638 16.6695 9.65172 15.3375 9.72666C13.7903 9.8016 12.4172 10.1546 11.2859 11.2859C10.1521 12.4197 9.8016 13.7904 9.72666 15.3376C9.65172 16.672 9.6638 17.9944 9.6638 19.3264C9.6638 20.6584 9.65172 21.9832 9.72666 23.3152C9.8016 24.8624 10.1545 26.2355 11.2859 27.3669C12.4197 28.5007 13.7903 28.8512 15.3375 28.9262C16.6719 29.0011 17.9942 28.989 19.3262 28.989C20.6606 28.989 21.983 29.0011 23.315 28.9262C24.8621 28.8512 26.2352 28.4983 27.3666 27.3669C28.5003 26.2331 28.8509 24.8624 28.9258 23.3152C29.0032 21.9832 28.9887 20.6608 28.9887 19.3264ZM19.3238 24.2846C16.58 24.2846 14.3657 22.0702 14.3657 19.3264C14.3657 16.5826 16.58 14.3682 19.3238 14.3682C22.0676 14.3682 24.2819 16.5826 24.2819 19.3264C24.2819 22.0702 22.0676 24.2846 19.3238 24.2846ZM24.485 15.3231C23.8444 15.3231 23.3271 14.8058 23.3271 14.1651C23.3271 13.5245 23.8444 13.0072 24.485 13.0072C25.1256 13.0072 25.6429 13.5245 25.6429 14.1651C25.6431 14.3172 25.6133 14.4679 25.5552 14.6085C25.4971 14.7491 25.4118 14.8768 25.3042 14.9844C25.1967 15.0919 25.0689 15.1772 24.9284 15.2353C24.7878 15.2935 24.6371 15.3233 24.485 15.3231Z" fill="white"/>
</svg>
