<svg width="39" height="39" viewBox="0 0 39 39" fill="none" xmlns="http://www.w3.org/2000/svg">
<path d="M38.9999 19.4999C38.9999 8.73042 30.2694 0 19.4999 0C8.73042 0 0 8.73042 0 19.4999C0 30.2694 8.73042 38.9999 19.4999 38.9999C30.2694 38.9999 38.9999 30.2694 38.9999 19.4999Z" fill="#5E51FE"/>
<path d="M14.0389 11.4346C14.0389 12.5802 13.0279 13.5089 11.7807 13.5089C10.5336 13.5089 9.52258 12.5802 9.52258 11.4346C9.52258 10.289 10.5336 9.36035 11.7807 9.36035C13.0279 9.36035 14.0389 10.289 14.0389 11.4346Z" fill="white"/>
<path d="M9.83044 15.0332H13.6906V26.5214H9.83044V15.0332Z" fill="white"/>
<path d="M19.9066 15.0322H16.0464V26.5205H19.9066C19.9066 26.5205 19.9066 22.9038 19.9066 20.6425C19.9066 19.2852 20.3784 17.922 22.2612 17.922C24.389 17.922 24.3762 19.6982 24.3663 21.0742C24.3533 22.873 24.3844 24.7085 24.3844 26.5205H28.2444V20.4572C28.2117 16.5857 27.1846 14.8018 23.8052 14.8018C21.7984 14.8018 20.5545 15.6966 19.9066 16.5061V15.0322Z" fill="white"/>
</svg>
