<svg width="39" height="39" viewBox="0 0 39 39" fill="none" xmlns="http://www.w3.org/2000/svg">
<path d="M38.9996 19.4999C38.9996 8.73042 30.2692 0 19.4997 0C8.73017 0 -0.000244141 8.73042 -0.000244141 19.4999C-0.000244141 30.2694 8.73017 38.9999 19.4997 38.9999C30.2692 38.9999 38.9996 30.2694 38.9996 19.4999Z" fill="#CB73FE"/>
<path d="M18.9998 8C16.6137 8.00283 14.3261 8.95571 12.6389 10.6496C10.9517 12.3435 10.0026 14.6402 9.99976 17.0357C9.99757 18.9933 10.6344 20.8976 11.8129 22.4571C11.8129 22.4571 12.0583 22.7816 12.0984 22.8284L18.9998 31L25.9044 22.8243C25.9404 22.7808 26.1867 22.4571 26.1867 22.4571L26.1875 22.4547C27.3651 20.8957 28.0016 18.9923 27.9998 17.0357C27.9969 14.6402 27.0478 12.3435 25.3606 10.6496C23.6734 8.95571 21.3858 8.00283 18.9998 8ZM18.9998 20.3214C18.3525 20.3214 17.7197 20.1287 17.1815 19.7677C16.6433 19.4066 16.2239 18.8935 15.9762 18.2931C15.7284 17.6927 15.6636 17.0321 15.7899 16.3947C15.9162 15.7573 16.2279 15.1719 16.6856 14.7124C17.1433 14.2528 17.7264 13.9399 18.3613 13.8131C18.9961 13.6864 19.6542 13.7514 20.2522 14.0001C20.8502 14.2488 21.3613 14.6699 21.7209 15.2103C22.0805 15.7506 22.2725 16.3859 22.2725 17.0357C22.2714 17.9068 21.9262 18.7419 21.3127 19.3579C20.6992 19.9738 19.8674 20.3203 18.9998 20.3214Z" fill="white"/>
</svg>
