<svg width="1139" height="263" viewBox="0 0 1139 263" fill="none" xmlns="http://www.w3.org/2000/svg">
<path d="M261.932 135.872L244.031 117.573L227.439 100.613L203.97 76.6201L231.157 163.91L261.932 135.872L231.157 163.91L261.884 262.563L304.211 179.092L261.932 135.872Z" fill="white"/>
<path d="M261.932 135.872L244.031 117.573L227.439 100.613L203.97 76.6201L231.157 163.91L261.932 135.872L231.157 163.91L261.884 262.563L304.211 179.092L261.932 135.872Z" fill="url(#paint0_linear_83_5908)"/>
<path d="M385.066 75.3457H430.927L402.443 255.196H356.582L385.066 75.3457Z" fill="white"/>
<path d="M626.648 167.399C625.869 172.313 624.762 177.227 623.002 182.141H481.48C481.611 191.641 485.228 199.827 492.932 207.037C500.309 214.247 510.22 217.847 523.326 217.847C533.154 217.847 542.464 214.896 551.209 209.328C559.246 204.087 567.146 195.568 569.252 192.623L603.364 217.192C599.533 222.76 585.665 235.866 569.092 245.367C552.089 255.522 534.599 260.436 516.586 260.436C498.572 260.436 482.914 255.849 470.231 247.003C457.547 238.157 447.571 226.693 441.61 212.606C435.649 198.518 433.728 183.777 436.321 167.399C437.517 159.868 439.689 152.33 442.52 144.793C451.253 124.81 465.091 107.778 484.58 94.345C503.414 80.9122 523.778 74.3623 546.057 74.3623C596.177 74.3623 634.953 114.982 626.648 167.399ZM490.939 143.157H577.753C571.328 125.792 558.318 116.951 539.317 116.951C527.853 116.951 517.936 119.575 509.244 124.816C500.499 130.384 494.324 136.28 490.939 143.163V143.157Z" fill="white"/>
<path d="M942.121 167.399C942.121 172.313 941.794 177.227 940.812 182.141H799.291C800.927 191.641 805.841 199.827 814.687 207.037C823.206 214.247 833.688 217.847 846.788 217.847C856.616 217.847 865.462 214.896 873.321 209.328C880.525 204.087 887.081 195.568 888.717 192.623L926.719 217.192C923.768 222.76 911.977 235.866 896.908 245.367C881.512 255.522 864.808 260.436 846.788 260.436C828.768 260.436 812.391 255.849 798.303 247.003C784.216 238.157 772.425 226.693 764.233 212.606C756.042 198.518 751.788 183.777 751.788 167.399C751.788 159.868 752.77 152.33 754.406 144.793C759.974 124.81 771.111 107.778 788.476 94.345C805.181 80.9122 824.509 74.3623 846.788 74.3623C896.908 74.3623 942.115 114.982 942.115 167.399H942.121ZM802.569 143.157H889.383C880.21 125.792 865.795 116.951 846.794 116.951C835.33 116.951 825.83 119.575 817.965 124.816C810.1 130.384 804.859 136.28 802.569 143.163V143.157Z" fill="white"/>
<path d="M1139 75.3443C1106.9 107.124 1084.95 128.415 1066.93 146.429C1085.27 176.567 1106.89 211.618 1133.1 255.189H1082L1035.15 177.876L1005.34 207.359V255.189H959.482V0H1005.02V23.2607L1005.34 151.022C1021.07 135.953 1049.24 107.778 1081.67 75.3502H1139V75.3443Z" fill="white"/>
<path d="M0 255.227L27.419 99.7375L80.6805 59.3437L82.8876 57.4697L84.8032 59.7066L85.1959 60.1706L85.0293 61.3544L75.9749 112.706H176.977L141.628 157.604H68.0627L58.7644 210.324H169L191.219 255.524L0 255.227Z" fill="white"/>
<path d="M254.171 14.5L218.638 59.7066H81.4475L80.9477 59.1176L80.7931 58.9272L37.8828 14.5H254.171Z" fill="white"/>
<path d="M580.445 14.4922L591.612 26.0452L621.184 56.6707L623.361 58.9194L623.504 59.1336L624.028 59.6928H667.92V257.17H715.434V59.6928H764.46L766.852 56.6707L788.798 28.752L800.006 14.4922H580.445Z" fill="white"/>
<path d="M381.482 26.7363L304.21 179.091L261.931 135.871L381.482 26.7363Z" fill="white"/>
<defs>
<linearGradient id="paint0_linear_83_5908" x1="299.196" y1="250.302" x2="210.77" y2="88.9227" gradientUnits="userSpaceOnUse">
<stop stop-color="#D376FF"/>
<stop offset="1" stop-color="#5A50FF"/>
</linearGradient>
</defs>
</svg>
