<svg width="39" height="39" viewBox="0 0 39 39" fill="none" xmlns="http://www.w3.org/2000/svg">
<path d="M38.9999 19.4999C38.9999 8.73042 30.2694 0 19.4999 0C8.73042 0 0 8.73042 0 19.4999C0 30.2694 8.73042 38.9999 19.4999 38.9999C30.2694 38.9999 38.9999 30.2694 38.9999 19.4999Z" fill="#CB73FE"/>
<path d="M11.1 16.6033L19.5 21.7686L27.9 16.6033L19.5 11.438L11.1 16.6033ZM30 16.6033V26.9339C30 27.4819 29.7787 28.0074 29.3849 28.3948C28.9911 28.7823 28.457 29 27.9 29H11.1C10.543 29 10.0089 28.7823 9.61508 28.3948C9.22125 28.0074 9 27.4819 9 26.9339V16.6033C9 15.8492 9.4095 15.1983 10.0185 14.8368L19.5 9L28.9815 14.8368C29.5905 15.1983 30 15.8492 30 16.6033Z" fill="white"/>
</svg>
