<svg width="39" height="39" viewBox="0 0 39 39" fill="none" xmlns="http://www.w3.org/2000/svg">
<path d="M38.9997 19.4999C38.9997 8.73042 30.2693 0 19.4998 0C8.73029 0 -0.00012207 8.73042 -0.00012207 19.4999C-0.00012207 30.2694 8.73029 38.9999 19.4998 38.9999C30.2693 38.9999 38.9997 30.2694 38.9997 19.4999Z" fill="#CB73FE"/>
<path d="M9.9999 10H17.7628L19.1081 16.0528L17.4253 17.7357C18.4147 19.2756 19.724 20.5846 21.2642 21.5737L22.947 19.8917L28.9999 21.2371V29H28.0951C24.6121 29.0059 21.2021 28.0015 18.2785 26.1084C16.1226 24.7132 14.2867 22.8773 12.8915 20.7214C10.9984 17.7978 9.99397 14.3878 9.9999 10.9048V10Z" fill="white"/>
</svg>
