<svg width="270" height="272" viewBox="0 0 270 272" fill="none" xmlns="http://www.w3.org/2000/svg">
<rect x="0.5" y="0.5" width="269" height="271" rx="11.5" fill="white" stroke="#E1DEFC"/>
<path opacity="0.8" d="M29.306 33.452C28.442 34.64 27.23 35.234 25.67 35.234C24.11 35.234 22.892 34.64 22.016 33.452C21.152 32.264 20.72 30.68 20.72 28.7C20.72 26.72 21.152 25.136 22.016 23.948C22.892 22.76 24.11 22.166 25.67 22.166C27.23 22.166 28.442 22.76 29.306 23.948C30.182 25.136 30.62 26.72 30.62 28.7C30.62 30.68 30.182 32.264 29.306 33.452ZM25.67 33.218C26.606 33.218 27.32 32.828 27.812 32.048C28.304 31.268 28.55 30.152 28.55 28.7C28.55 27.248 28.304 26.132 27.812 25.352C27.32 24.572 26.606 24.182 25.67 24.182C24.746 24.182 24.032 24.572 23.528 25.352C23.036 26.132 22.79 27.248 22.79 28.7C22.79 30.152 23.036 31.268 23.528 32.048C24.032 32.828 24.746 33.218 25.67 33.218ZM36.2 27.152C37.4 27.152 38.414 27.512 39.242 28.232C40.07 28.94 40.484 29.924 40.484 31.184C40.484 32.444 40.058 33.434 39.206 34.154C38.354 34.874 37.31 35.234 36.074 35.234C35.078 35.234 34.196 35.006 33.428 34.55C32.66 34.082 32.114 33.41 31.79 32.534L33.572 31.508C33.908 32.648 34.742 33.218 36.074 33.218C36.782 33.218 37.346 33.038 37.766 32.678C38.198 32.306 38.414 31.808 38.414 31.184C38.414 30.56 38.204 30.068 37.784 29.708C37.364 29.348 36.806 29.168 36.11 29.168H32.438L32.924 22.4H39.944V24.344H34.832L34.616 27.152H36.2Z" fill="#030438"/>
<path opacity="0.8" d="M28.73 230.4H30.8V243H28.73V237.546H23.33V243H21.26V230.4H23.33V235.566H28.73V230.4ZM39.2586 234H41.2026V243H39.2586V241.848C38.6706 242.772 37.7406 243.234 36.4686 243.234C35.4366 243.234 34.6026 242.904 33.9666 242.244C33.3306 241.584 33.0126 240.678 33.0126 239.526V234H34.9566V239.328C34.9566 240 35.1366 240.516 35.4966 240.876C35.8566 241.236 36.3486 241.416 36.9726 241.416C37.6566 241.416 38.2086 241.206 38.6286 240.786C39.0486 240.354 39.2586 239.7 39.2586 238.824V234ZM53.3038 233.766C54.3238 233.766 55.1458 234.096 55.7698 234.756C56.3938 235.416 56.7058 236.304 56.7058 237.42V243H54.7618V237.546C54.7618 236.922 54.6058 236.442 54.2938 236.106C53.9818 235.758 53.5558 235.584 53.0158 235.584C52.4158 235.584 51.9358 235.782 51.5758 236.178C51.2278 236.574 51.0538 237.168 51.0538 237.96V243H49.1098V237.546C49.1098 236.922 48.9598 236.442 48.6598 236.106C48.3718 235.758 47.9578 235.584 47.4178 235.584C46.8298 235.584 46.3498 235.788 45.9778 236.196C45.6058 236.592 45.4198 237.18 45.4198 237.96V243H43.4758V234H45.4198V235.08C45.9958 234.204 46.8538 233.766 47.9938 233.766C49.1458 233.766 49.9978 234.24 50.5498 235.188C51.1498 234.24 52.0678 233.766 53.3038 233.766ZM65.9143 234H67.8583V243H65.9143V241.704C65.1823 242.724 64.1323 243.234 62.7643 243.234C61.5283 243.234 60.4723 242.778 59.5963 241.866C58.7203 240.942 58.2823 239.82 58.2823 238.5C58.2823 237.168 58.7203 236.046 59.5963 235.134C60.4723 234.222 61.5283 233.766 62.7643 233.766C64.1323 233.766 65.1823 234.27 65.9143 235.278V234ZM61.0363 240.57C61.5763 241.11 62.2543 241.38 63.0703 241.38C63.8863 241.38 64.5643 241.11 65.1043 240.57C65.6443 240.018 65.9143 239.328 65.9143 238.5C65.9143 237.672 65.6443 236.988 65.1043 236.448C64.5643 235.896 63.8863 235.62 63.0703 235.62C62.2543 235.62 61.5763 235.896 61.0363 236.448C60.4963 236.988 60.2263 237.672 60.2263 238.5C60.2263 239.328 60.4963 240.018 61.0363 240.57ZM77.2522 234H79.1962V243H77.2522V241.704C76.5202 242.724 75.4702 243.234 74.1022 243.234C72.8662 243.234 71.8102 242.778 70.9342 241.866C70.0582 240.942 69.6202 239.82 69.6202 238.5C69.6202 237.168 70.0582 236.046 70.9342 235.134C71.8102 234.222 72.8662 233.766 74.1022 233.766C75.4702 233.766 76.5202 234.27 77.2522 235.278V234ZM72.3742 240.57C72.9142 241.11 73.5922 241.38 74.4082 241.38C75.2242 241.38 75.9022 241.11 76.4422 240.57C76.9822 240.018 77.2522 239.328 77.2522 238.5C77.2522 237.672 76.9822 236.988 76.4422 236.448C75.9022 235.896 75.2242 235.62 74.4082 235.62C73.5922 235.62 72.9142 235.896 72.3742 236.448C71.8342 236.988 71.5642 237.672 71.5642 238.5C71.5642 239.328 71.8342 240.018 72.3742 240.57ZM86.1961 233.766C87.2281 233.766 88.0621 234.096 88.6981 234.756C89.3341 235.416 89.6521 236.322 89.6521 237.474V243H87.7081V237.672C87.7081 237 87.5281 236.484 87.1681 236.124C86.8081 235.764 86.3161 235.584 85.6921 235.584C85.0081 235.584 84.4561 235.8 84.0361 236.232C83.6161 236.652 83.4061 237.3 83.4061 238.176V243H81.4621V234H83.4061V235.152C83.9941 234.228 84.9241 233.766 86.1961 233.766ZM93.4913 236.484C93.4913 236.784 93.6533 237.024 93.9773 237.204C94.3133 237.372 94.7153 237.522 95.1833 237.654C95.6633 237.774 96.1433 237.918 96.6233 238.086C97.1033 238.254 97.5053 238.542 97.8293 238.95C98.1653 239.346 98.3333 239.85 98.3333 240.462C98.3333 241.326 97.9973 242.004 97.3253 242.496C96.6653 242.988 95.8313 243.234 94.8233 243.234C93.9353 243.234 93.1733 243.048 92.5373 242.676C91.9013 242.304 91.4393 241.788 91.1513 241.128L92.8253 240.156C93.1373 241.02 93.8033 241.452 94.8233 241.452C95.8433 241.452 96.3533 241.116 96.3533 240.444C96.3533 240.156 96.1853 239.922 95.8493 239.742C95.5253 239.562 95.1233 239.412 94.6433 239.292C94.1753 239.16 93.7013 239.01 93.2213 238.842C92.7413 238.674 92.3333 238.398 91.9973 238.014C91.6733 237.618 91.5113 237.12 91.5113 236.52C91.5113 235.692 91.8233 235.026 92.4473 234.522C93.0833 234.018 93.8693 233.766 94.8053 233.766C95.5493 233.766 96.2093 233.934 96.7853 234.27C97.3733 234.594 97.8233 235.05 98.1353 235.638L96.4973 236.556C96.1853 235.872 95.6213 235.53 94.8053 235.53C94.4333 235.53 94.1213 235.614 93.8693 235.782C93.6173 235.938 93.4913 236.172 93.4913 236.484Z" fill="#030438"/>
<path opacity="0.8" d="M214.083 243V241.38L218.475 236.898C219.543 235.83 220.077 234.906 220.077 234.126C220.077 233.514 219.891 233.04 219.519 232.704C219.159 232.356 218.697 232.182 218.133 232.182C217.077 232.182 216.297 232.704 215.793 233.748L214.047 232.722C214.443 231.882 215.001 231.246 215.721 230.814C216.441 230.382 217.239 230.166 218.115 230.166C219.219 230.166 220.167 230.514 220.959 231.21C221.751 231.906 222.147 232.854 222.147 234.054C222.147 235.338 221.433 236.706 220.005 238.158L217.161 241.002H222.381V243H214.083ZM232.183 241.452C231.319 242.64 230.107 243.234 228.547 243.234C226.987 243.234 225.769 242.64 224.893 241.452C224.029 240.264 223.597 238.68 223.597 236.7C223.597 234.72 224.029 233.136 224.893 231.948C225.769 230.76 226.987 230.166 228.547 230.166C230.107 230.166 231.319 230.76 232.183 231.948C233.059 233.136 233.497 234.72 233.497 236.7C233.497 238.68 233.059 240.264 232.183 241.452ZM228.547 241.218C229.483 241.218 230.197 240.828 230.689 240.048C231.181 239.268 231.427 238.152 231.427 236.7C231.427 235.248 231.181 234.132 230.689 233.352C230.197 232.572 229.483 232.182 228.547 232.182C227.623 232.182 226.909 232.572 226.405 233.352C225.913 234.132 225.667 235.248 225.667 236.7C225.667 238.152 225.913 239.268 226.405 240.048C226.909 240.828 227.623 241.218 228.547 241.218ZM234.509 243V241.38L238.901 236.898C239.969 235.83 240.503 234.906 240.503 234.126C240.503 233.514 240.317 233.04 239.945 232.704C239.585 232.356 239.123 232.182 238.559 232.182C237.503 232.182 236.723 232.704 236.219 233.748L234.473 232.722C234.869 231.882 235.427 231.246 236.147 230.814C236.867 230.382 237.665 230.166 238.541 230.166C239.645 230.166 240.593 230.514 241.385 231.21C242.177 231.906 242.573 232.854 242.573 234.054C242.573 235.338 241.859 236.706 240.431 238.158L237.587 241.002H242.807V243H234.509ZM246.849 230.4H248.649V243H246.579V232.614L244.041 233.334L243.537 231.57L246.849 230.4Z" fill="#030438"/>
<path opacity="0.5" d="M68.0575 147.764H74.3914V124H68.0575V132.933H60.3339V124H54V147.764H60.3339V138.225H68.0575V147.764ZM96.5654 128.854H90.1991V139C90.1991 141.191 89.0357 142.472 87.1938 142.472C85.3841 142.472 84.1885 141.191 84.1885 139V128.854H77.8868V139.843C77.8868 144.832 80.5044 147.933 84.7053 147.933C87.2585 147.933 89.1651 146.685 90.1991 145.067V147.764H96.5654V128.854ZM124.86 147.764H131.194V136.742C131.194 131.787 128.447 128.685 123.858 128.685C121.176 128.685 119.043 130.236 117.815 132.157C116.619 129.966 114.486 128.685 111.772 128.685C109.316 128.685 107.538 129.831 106.504 131.348V128.854H100.17V147.764H106.504V137.618C106.504 135.562 107.668 134.416 109.542 134.416C111.352 134.416 112.515 135.562 112.515 137.618V147.764H118.849V137.618C118.849 135.562 120.012 134.416 121.854 134.416C123.664 134.416 124.86 135.562 124.86 137.618V147.764ZM133.629 138.292C133.629 144.326 137.055 148 141.353 148C143.906 148 145.748 146.82 146.685 145.135V147.764H153.019V128.854H146.685V131.483C145.748 129.798 143.938 128.618 141.353 128.618C137.055 128.618 133.629 132.258 133.629 138.292ZM146.685 138.292C146.685 140.854 145.166 142.236 143.389 142.236C141.579 142.236 140.092 140.82 140.092 138.292C140.092 135.73 141.579 134.382 143.389 134.382C145.166 134.382 146.685 135.764 146.685 138.292ZM155.594 138.292C155.594 144.326 159.02 148 163.317 148C165.871 148 167.713 146.82 168.65 145.135V147.764H174.983V128.854H168.65V131.483C167.713 129.798 165.903 128.618 163.317 128.618C159.02 128.618 155.594 132.258 155.594 138.292ZM168.65 138.292C168.65 140.854 167.131 142.236 165.353 142.236C163.544 142.236 162.057 140.82 162.057 138.292C162.057 135.73 163.544 134.382 165.353 134.382C167.131 134.382 168.65 135.764 168.65 138.292ZM190.938 147.764H197.271V136.742C197.271 131.787 194.654 128.685 190.453 128.685C187.9 128.685 185.993 129.933 184.927 131.551V128.854H178.593V147.764H184.927V137.618C184.927 135.427 186.09 134.146 187.964 134.146C189.774 134.146 190.938 135.427 190.938 137.618V147.764ZM216 142.202C215.968 135.022 206.305 137.18 206.305 134.483C206.305 133.775 206.855 133.337 207.889 133.337C209.246 133.337 210.054 134.045 210.248 135.225H215.968C215.548 131.483 212.962 128.618 208.018 128.618C203.106 128.618 200.488 131.348 200.488 134.652C200.488 141.596 210.119 139.337 210.119 142.101C210.119 142.775 209.504 143.315 208.438 143.315C207.113 143.315 206.111 142.64 205.95 141.393H199.81C200.068 145.169 203.429 148 208.47 148C213.156 148 216 145.506 216 142.202Z" fill="#0F1941"/>
</svg>
