<svg width="270" height="272" viewBox="0 0 270 272" fill="none" xmlns="http://www.w3.org/2000/svg">
<rect x="0.5" y="0.5" width="269" height="271" rx="11.5" fill="white" stroke="#E1DEFC"/>
<path opacity="0.8" d="M29.306 33.452C28.442 34.64 27.23 35.234 25.67 35.234C24.11 35.234 22.892 34.64 22.016 33.452C21.152 32.264 20.72 30.68 20.72 28.7C20.72 26.72 21.152 25.136 22.016 23.948C22.892 22.76 24.11 22.166 25.67 22.166C27.23 22.166 28.442 22.76 29.306 23.948C30.182 25.136 30.62 26.72 30.62 28.7C30.62 30.68 30.182 32.264 29.306 33.452ZM25.67 33.218C26.606 33.218 27.32 32.828 27.812 32.048C28.304 31.268 28.55 30.152 28.55 28.7C28.55 27.248 28.304 26.132 27.812 25.352C27.32 24.572 26.606 24.182 25.67 24.182C24.746 24.182 24.032 24.572 23.528 25.352C23.036 26.132 22.79 27.248 22.79 28.7C22.79 30.152 23.036 31.268 23.528 32.048C24.032 32.828 24.746 33.218 25.67 33.218ZM41.4719 30.806V32.732H40.0319V35H37.9439V32.732H31.7519V30.806L36.0899 22.4H38.3399L34.0019 30.806H37.9439V27.53H40.0319V30.806H41.4719Z" fill="#030438"/>
<path opacity="0.8" d="M28.442 243L25.778 238.41H23.33V243H21.26V230.4H26.3C27.428 230.4 28.382 230.796 29.162 231.588C29.954 232.368 30.35 233.322 30.35 234.45C30.35 235.254 30.116 235.992 29.648 236.664C29.192 237.324 28.592 237.804 27.848 238.104L30.71 243H28.442ZM23.33 232.344V236.556H26.3C26.852 236.556 27.32 236.352 27.704 235.944C28.088 235.536 28.28 235.038 28.28 234.45C28.28 233.862 28.088 233.364 27.704 232.956C27.32 232.548 26.852 232.344 26.3 232.344H23.33ZM33.2285 239.328C33.3725 240.012 33.7025 240.54 34.2185 240.912C34.7345 241.272 35.3645 241.452 36.1085 241.452C37.1405 241.452 37.9145 241.08 38.4305 240.336L40.0325 241.272C39.1445 242.58 37.8305 243.234 36.0905 243.234C34.6265 243.234 33.4445 242.79 32.5445 241.902C31.6445 241.002 31.1945 239.868 31.1945 238.5C31.1945 237.156 31.6385 236.034 32.5265 235.134C33.4145 234.222 34.5545 233.766 35.9465 233.766C37.2665 233.766 38.3465 234.228 39.1865 235.152C40.0385 236.076 40.4645 237.198 40.4645 238.518C40.4645 238.722 40.4405 238.992 40.3925 239.328H33.2285ZM33.2105 237.744H38.5025C38.3705 237.012 38.0645 236.46 37.5845 236.088C37.1165 235.716 36.5645 235.53 35.9285 235.53C35.2085 235.53 34.6085 235.728 34.1285 236.124C33.6485 236.52 33.3425 237.06 33.2105 237.744ZM43.5695 236.484C43.5695 236.784 43.7315 237.024 44.0555 237.204C44.3915 237.372 44.7935 237.522 45.2615 237.654C45.7415 237.774 46.2215 237.918 46.7015 238.086C47.1815 238.254 47.5835 238.542 47.9075 238.95C48.2435 239.346 48.4115 239.85 48.4115 240.462C48.4115 241.326 48.0755 242.004 47.4035 242.496C46.7435 242.988 45.9095 243.234 44.9015 243.234C44.0135 243.234 43.2515 243.048 42.6155 242.676C41.9795 242.304 41.5175 241.788 41.2295 241.128L42.9035 240.156C43.2155 241.02 43.8815 241.452 44.9015 241.452C45.9215 241.452 46.4315 241.116 46.4315 240.444C46.4315 240.156 46.2635 239.922 45.9275 239.742C45.6035 239.562 45.2015 239.412 44.7215 239.292C44.2535 239.16 43.7795 239.01 43.2995 238.842C42.8195 238.674 42.4115 238.398 42.0755 238.014C41.7515 237.618 41.5895 237.12 41.5895 236.52C41.5895 235.692 41.9015 235.026 42.5255 234.522C43.1615 234.018 43.9475 233.766 44.8835 233.766C45.6275 233.766 46.2875 233.934 46.8635 234.27C47.4515 234.594 47.9015 235.05 48.2135 235.638L46.5755 236.556C46.2635 235.872 45.6995 235.53 44.8835 235.53C44.5115 235.53 44.1995 235.614 43.9475 235.782C43.6955 235.938 43.5695 236.172 43.5695 236.484ZM50.0149 243V229.86H51.9589V243H50.0149ZM60.282 234H62.352L58.896 243.288C58.032 245.616 56.568 246.72 54.504 246.6V244.782C55.116 244.818 55.608 244.686 55.98 244.386C56.352 244.098 56.658 243.642 56.898 243.018L56.988 242.838L53.172 234H55.296L57.978 240.534L60.282 234Z" fill="#030438"/>
<path opacity="0.8" d="M210.972 243V241.38L215.364 236.898C216.432 235.83 216.966 234.906 216.966 234.126C216.966 233.514 216.78 233.04 216.408 232.704C216.048 232.356 215.586 232.182 215.022 232.182C213.966 232.182 213.186 232.704 212.682 233.748L210.936 232.722C211.332 231.882 211.89 231.246 212.61 230.814C213.33 230.382 214.128 230.166 215.004 230.166C216.108 230.166 217.056 230.514 217.848 231.21C218.64 231.906 219.036 232.854 219.036 234.054C219.036 235.338 218.322 236.706 216.894 238.158L214.05 241.002H219.27V243H210.972ZM229.072 241.452C228.208 242.64 226.996 243.234 225.436 243.234C223.876 243.234 222.658 242.64 221.782 241.452C220.918 240.264 220.486 238.68 220.486 236.7C220.486 234.72 220.918 233.136 221.782 231.948C222.658 230.76 223.876 230.166 225.436 230.166C226.996 230.166 228.208 230.76 229.072 231.948C229.948 233.136 230.386 234.72 230.386 236.7C230.386 238.68 229.948 240.264 229.072 241.452ZM225.436 241.218C226.372 241.218 227.086 240.828 227.578 240.048C228.07 239.268 228.316 238.152 228.316 236.7C228.316 235.248 228.07 234.132 227.578 233.352C227.086 232.572 226.372 232.182 225.436 232.182C224.512 232.182 223.798 232.572 223.294 233.352C222.802 234.132 222.556 235.248 222.556 236.7C222.556 238.152 222.802 239.268 223.294 240.048C223.798 240.828 224.512 241.218 225.436 241.218ZM231.398 243V241.38L235.79 236.898C236.858 235.83 237.392 234.906 237.392 234.126C237.392 233.514 237.206 233.04 236.834 232.704C236.474 232.356 236.012 232.182 235.448 232.182C234.392 232.182 233.612 232.704 233.108 233.748L231.362 232.722C231.758 231.882 232.316 231.246 233.036 230.814C233.756 230.382 234.554 230.166 235.43 230.166C236.534 230.166 237.482 230.514 238.274 231.21C239.066 231.906 239.462 232.854 239.462 234.054C239.462 235.338 238.748 236.706 237.32 238.158L234.476 241.002H239.696V243H231.398ZM245.141 235.152C246.341 235.152 247.355 235.512 248.183 236.232C249.011 236.94 249.425 237.924 249.425 239.184C249.425 240.444 248.999 241.434 248.147 242.154C247.295 242.874 246.251 243.234 245.015 243.234C244.019 243.234 243.137 243.006 242.369 242.55C241.601 242.082 241.055 241.41 240.731 240.534L242.513 239.508C242.849 240.648 243.683 241.218 245.015 241.218C245.723 241.218 246.287 241.038 246.707 240.678C247.139 240.306 247.355 239.808 247.355 239.184C247.355 238.56 247.145 238.068 246.725 237.708C246.305 237.348 245.747 237.168 245.051 237.168H241.379L241.865 230.4H248.885V232.344H243.773L243.557 235.152H245.141Z" fill="#030438"/>
<g opacity="0.5">
<mask id="mask0_83_5824" style="mask-type:luminance" maskUnits="userSpaceOnUse" x="83" y="115" width="104" height="43">
<path d="M187 115H83V157.616H187V115Z" fill="white"/>
</mask>
<g mask="url(#mask0_83_5824)">
<path d="M89.763 148.25H83.1802C83.0941 148.123 83.0001 148.051 83.0026 147.981C83.0538 142.927 82.9032 137.858 83.231 132.82C83.5779 127.506 87.4514 123.727 92.8947 122.856C94.3408 122.627 95.811 122.566 97.389 122.412V129.401C96.8514 129.401 96.3139 129.401 95.8005 129.401C91.2684 129.466 89.7979 130.939 89.7683 135.506C89.747 139.223 89.7683 142.941 89.7683 146.656L89.763 148.25Z" fill="#0F1941"/>
<path d="M162.085 122.515C162.247 123.069 162.327 123.41 162.443 123.741C165.242 131.755 168.041 139.767 170.84 147.777C171.795 150.511 170.746 151.992 167.838 152.078C167.144 152.097 166.448 152.078 165.757 152.078V157.626C167.743 157.535 169.644 157.492 171.539 157.357C173.711 157.196 175.144 155.911 176.109 154.059C176.563 153.187 176.953 152.284 177.275 151.355C179.447 144.972 181.603 138.581 183.743 132.184C184.818 129.017 185.893 125.854 187.001 122.545C185.237 122.545 183.638 122.521 182.039 122.545C180.614 122.571 179.705 123.303 179.316 124.682C178.805 126.488 178.281 128.289 177.759 130.093C176.773 133.506 175.783 136.918 174.714 140.614C174.504 139.931 174.381 139.552 174.27 139.168C172.781 133.966 171.278 128.77 169.744 123.59C169.62 123.176 169.166 122.569 168.843 122.555C166.66 122.461 164.47 122.515 162.085 122.515ZM147.699 130.343C147.699 127.84 146.532 125.429 144.721 124.082C140.939 121.268 133.407 121.144 129.571 123.913C127.152 125.657 126.189 128.141 126.461 131.071C126.708 133.705 128.299 135.385 130.643 136.364C132.049 136.932 133.485 137.424 134.944 137.837C136.7 138.353 138.503 138.708 140.24 139.27C141.137 139.56 141.954 140.146 141.852 141.31C141.764 142.409 140.984 142.909 140.054 143.248C136.608 144.508 133.82 143.291 132.216 139.842H125.953C125.606 143.495 127.472 146.509 130.877 147.817C133.667 148.893 136.57 148.893 139.479 148.624C141.691 148.43 143.817 147.933 145.635 146.573C148.089 144.734 148.895 142.159 148.661 139.227C148.438 136.447 146.726 134.778 144.223 133.877C142.672 133.321 141.068 132.921 139.487 132.442C137.737 131.904 135.955 131.455 134.264 130.775C133.753 130.571 133.189 129.7 133.218 129.163C133.248 128.625 133.837 127.854 134.377 127.579C136.595 126.464 139.423 127.197 141.076 129.052C141.557 129.59 142.25 130.195 142.903 130.267C144.492 130.453 146.105 130.335 147.699 130.335V130.343ZM152.115 115.04V148.24H158.768C158.801 147.777 158.849 147.385 158.849 146.992C158.849 137.598 158.849 128.206 158.849 118.813C158.852 118.411 158.824 118.008 158.766 117.609C158.553 116.265 157.537 115.171 156.206 115.064C154.876 114.956 153.543 115.031 152.115 115.031V115.04ZM89.7529 148.258V146.667C89.7529 142.952 89.737 139.235 89.7529 135.517C89.7825 130.947 91.253 129.477 95.7851 129.412C96.3093 129.412 96.8306 129.412 97.3735 129.412V122.424C95.7956 122.577 94.3253 122.639 92.8792 122.867C87.436 123.738 83.5625 127.517 83.2156 132.832C82.8877 137.869 83.0383 142.939 82.9872 147.992C82.9872 148.065 83.0787 148.137 83.1647 148.261L89.7529 148.258Z" fill="#0F1941"/>
<path d="M162.087 122.514C164.471 122.514 166.657 122.469 168.845 122.56C169.167 122.573 169.622 123.181 169.745 123.595C171.28 128.778 172.769 133.973 174.269 139.167C174.379 139.551 174.503 139.93 174.712 140.613C175.788 136.917 176.772 133.506 177.758 130.092C178.28 128.288 178.804 126.487 179.314 124.681C179.704 123.302 180.613 122.571 182.038 122.544C183.65 122.514 185.236 122.544 187 122.544C185.881 125.853 184.809 129.017 183.742 132.183C181.591 138.575 179.435 144.966 177.274 151.354C176.952 152.283 176.562 153.187 176.108 154.059C175.145 155.91 173.713 157.195 171.538 157.357C169.657 157.496 167.742 157.539 165.756 157.625V152.083C166.447 152.083 167.143 152.099 167.837 152.083C170.745 151.999 171.793 150.518 170.839 147.782C168.049 139.766 165.25 131.754 162.442 123.745C162.329 123.401 162.248 123.052 162.087 122.514Z" fill="#0F1941"/>
<path d="M147.696 130.334C146.102 130.334 144.489 130.453 142.911 130.278C142.258 130.205 141.567 129.601 141.083 129.063C139.43 127.208 136.602 126.474 134.385 127.59C133.847 127.859 133.253 128.617 133.226 129.173C133.199 129.73 133.764 130.571 134.272 130.786C135.963 131.466 137.745 131.92 139.495 132.452C141.075 132.931 142.68 133.332 144.231 133.888C146.734 134.788 148.446 136.458 148.669 139.237C148.903 142.17 148.097 144.745 145.642 146.584C143.825 147.944 141.699 148.441 139.487 148.635C136.568 148.903 133.665 148.887 130.885 147.828C127.48 146.519 125.614 143.506 125.961 139.853H132.232C133.845 143.301 136.624 144.519 140.07 143.259C141 142.92 141.78 142.42 141.868 141.32C141.965 140.157 141.148 139.571 140.256 139.28C138.519 138.718 136.716 138.364 134.96 137.847C133.501 137.434 132.065 136.943 130.659 136.374C128.315 135.396 126.724 133.716 126.477 131.082C126.208 128.152 127.17 125.668 129.587 123.924C133.423 121.155 140.954 121.279 144.736 124.093C146.529 125.421 147.696 127.832 147.696 130.334Z" fill="#0F1941"/>
<path d="M152.115 115.032C153.543 115.032 154.884 114.948 156.206 115.056C157.529 115.163 158.553 116.263 158.765 117.601C158.824 118 158.852 118.403 158.849 118.806C158.849 128.198 158.849 137.591 158.849 146.984C158.849 147.377 158.8 147.769 158.768 148.232H152.115V115.032Z" fill="#0F1941"/>
<path d="M123.238 137.11C123.238 135.766 123.302 134.514 123.238 133.28C122.808 126.157 118.668 122.151 111.537 121.95C105.505 121.78 101.258 124.95 100.121 130.882C99.6837 133.341 99.603 135.851 99.8814 138.333C100.333 142.806 102.403 146.462 106.87 147.978C111.497 149.545 115.991 149.08 119.846 145.747C121.458 144.352 122.437 142.54 122.891 140.333C121.348 140.333 119.964 140.368 118.59 140.333C118.011 140.289 117.43 140.384 116.896 140.611C116.362 140.838 115.89 141.19 115.52 141.637C114.158 143.196 111.249 143.602 109.306 142.64C107.486 141.736 106.373 139.414 106.733 137.121L123.238 137.11ZM106.593 132.707C106.518 130.936 107.075 129.447 108.515 128.441C110.236 127.24 112.152 127.215 113.98 128.148C115.808 129.081 116.184 130.793 116.308 132.718L106.593 132.707Z" fill="#0F1941"/>
</g>
</g>
</svg>
