<svg width="130" height="272" viewBox="0 0 130 272" fill="none" xmlns="http://www.w3.org/2000/svg">
<rect x="-139.5" y="0.5" width="269" height="271" rx="11.5" fill="white" stroke="#E1DEFC"/>
<path opacity="0.8" d="M70.4271 243V241.38L74.8191 236.898C75.8871 235.83 76.4211 234.906 76.4211 234.126C76.4211 233.514 76.2351 233.04 75.8631 232.704C75.5031 232.356 75.0411 232.182 74.4771 232.182C73.4211 232.182 72.6411 232.704 72.1371 233.748L70.3911 232.722C70.7871 231.882 71.3451 231.246 72.0651 230.814C72.7851 230.382 73.5831 230.166 74.4591 230.166C75.5631 230.166 76.5111 230.514 77.3031 231.21C78.0951 231.906 78.4911 232.854 78.4911 234.054C78.4911 235.338 77.7771 236.706 76.3491 238.158L73.5051 241.002H78.7251V243H70.4271ZM88.5267 241.452C87.6627 242.64 86.4507 243.234 84.8907 243.234C83.3307 243.234 82.1127 242.64 81.2367 241.452C80.3727 240.264 79.9407 238.68 79.9407 236.7C79.9407 234.72 80.3727 233.136 81.2367 231.948C82.1127 230.76 83.3307 230.166 84.8907 230.166C86.4507 230.166 87.6627 230.76 88.5267 231.948C89.4027 233.136 89.8407 234.72 89.8407 236.7C89.8407 238.68 89.4027 240.264 88.5267 241.452ZM84.8907 241.218C85.8267 241.218 86.5407 240.828 87.0327 240.048C87.5247 239.268 87.7707 238.152 87.7707 236.7C87.7707 235.248 87.5247 234.132 87.0327 233.352C86.5407 232.572 85.8267 232.182 84.8907 232.182C83.9667 232.182 83.2527 232.572 82.7487 233.352C82.2567 234.132 82.0107 235.248 82.0107 236.7C82.0107 238.152 82.2567 239.268 82.7487 240.048C83.2527 240.828 83.9667 241.218 84.8907 241.218ZM90.8529 243V241.38L95.2449 236.898C96.3129 235.83 96.8469 234.906 96.8469 234.126C96.8469 233.514 96.6609 233.04 96.2889 232.704C95.9289 232.356 95.4669 232.182 94.9029 232.182C93.8469 232.182 93.0669 232.704 92.5629 233.748L90.8169 232.722C91.2129 231.882 91.7709 231.246 92.4909 230.814C93.2109 230.382 94.0089 230.166 94.8849 230.166C95.9889 230.166 96.9369 230.514 97.7289 231.21C98.5209 231.906 98.9169 232.854 98.9169 234.054C98.9169 235.338 98.2029 236.706 96.7749 238.158L93.9309 241.002H99.1509V243H90.8529ZM109.693 238.806V240.732H108.253V243H106.165V240.732H99.9726V238.806L104.311 230.4H106.561L102.223 238.806H106.165V235.53H108.253V238.806H109.693Z" fill="#030438"/>
<g opacity="0.5">
<mask id="mask0_83_5785" style="mask-type:luminance" maskUnits="userSpaceOnUse" x="-78" y="122" width="147" height="28">
<path d="M68.8983 122H-78V149.543H68.8983V122Z" fill="white"/>
</mask>
<g mask="url(#mask0_83_5785)">
<mask id="mask1_83_5785" style="mask-type:luminance" maskUnits="userSpaceOnUse" x="-78" y="122" width="147" height="28">
<path d="M68.8097 122H-77.4688V149.543H68.8097V122Z" fill="white"/>
</mask>
<g mask="url(#mask1_83_5785)">
<path d="M2.40852 136.598C3.03974 137.344 3.36117 138.354 3.36117 139.628C3.36117 140.73 3.03974 141.705 2.38572 142.543C1.74287 143.381 0.85929 144.035 -0.242447 144.482C-1.34418 144.941 -2.5722 145.171 -3.91489 145.171C-6.3135 145.171 -8.24161 144.62 -9.69897 143.518C-11.1566 142.417 -11.891 140.879 -11.9141 138.905H-8.96448C-8.91866 140.006 -8.42511 140.913 -7.50711 141.602C-6.58888 142.302 -5.38388 142.646 -3.9263 142.646C-2.62965 142.646 -1.58514 142.394 -0.770402 141.877C0.0329342 141.361 0.4346 140.684 0.4346 139.846C0.4346 139.123 0.239475 138.572 -0.139172 138.193C-0.517818 137.815 -1.02298 137.551 -1.63118 137.401C-2.23939 137.252 -3.11157 137.115 -4.23633 136.965C-5.81998 136.77 -7.11684 136.518 -8.12671 136.208C-9.1368 135.898 -9.95154 135.393 -10.5714 134.716C-11.191 134.027 -11.5124 133.086 -11.5124 131.893C-11.5124 130.814 -11.2024 129.85 -10.5942 129.012C-9.98596 128.174 -9.14821 127.52 -8.0923 127.05C-7.0366 126.579 -5.843 126.35 -4.52311 126.35C-2.36568 126.35 -0.609696 126.854 0.75602 127.865C2.11012 128.874 2.86763 130.309 3.00532 132.18H0.0559559C-0.0589314 131.216 -0.529435 130.424 -1.34417 129.804C-2.15913 129.184 -3.18041 128.863 -4.40844 128.863C-5.63647 128.863 -6.66935 129.115 -7.43827 129.632C-8.20718 130.148 -8.58583 130.825 -8.58583 131.663C-8.58583 132.283 -8.40232 132.765 -8.04647 133.098C-7.69063 133.43 -7.22011 133.66 -6.65773 133.786C-6.09536 133.901 -5.2348 134.039 -4.08702 134.188C-2.48035 134.383 -1.14904 134.647 -0.104746 134.98C0.939548 135.313 1.7773 135.852 2.42014 136.598H2.40852ZM10.1895 129.287H14.8376V126.591H10.1895V122H7.24017V126.591H3.92355V129.287H7.24017V140.156C7.24017 141.808 7.6074 143.025 8.34189 143.794C9.07638 144.563 10.3044 144.941 12.0374 144.941H15.4228V142.244H10.2011V129.287H10.1895ZM42.4383 129.001C43.7352 129.001 44.8369 129.345 45.7551 130.045C46.6617 130.745 47.27 131.675 47.5569 132.857H50.5407C50.1849 130.837 49.3013 129.253 47.8898 128.105C46.478 126.958 44.6992 126.373 42.5416 126.373C40.7628 126.373 39.1905 126.763 37.8248 127.543C36.4591 128.323 35.3918 129.425 34.6343 130.837C33.877 132.248 33.4981 133.89 33.4981 135.737C33.4981 137.585 33.8654 139.226 34.6115 140.649C35.3574 142.072 36.4017 143.186 37.7446 143.977C39.0873 144.769 40.6481 145.171 42.4269 145.171C44.6074 145.171 46.4092 144.586 47.8323 143.427C49.2439 142.267 50.1505 140.661 50.5293 138.618H47.5797C47.3158 139.846 46.7306 140.798 45.8124 141.498C44.8944 142.199 43.7696 142.543 42.4269 142.543C40.6709 142.543 39.248 141.912 38.1576 140.649C37.0673 139.387 36.5166 137.746 36.5166 135.737C36.5166 133.729 37.0673 132.122 38.1576 130.871C39.248 129.62 40.6709 129.001 42.4269 129.001H42.4383ZM66.7684 128.392C65.4027 127.05 63.6009 126.373 61.363 126.373C59.9284 126.373 58.7004 126.671 57.7135 127.268C56.7151 127.865 55.9231 128.645 55.3149 129.609V122H52.3656V144.953H55.3149V135.772C55.3149 133.706 55.8085 132.076 56.8069 130.871C57.8052 129.666 59.1481 129.07 60.8581 129.07C62.4647 129.07 63.7041 129.563 64.5649 130.561C65.4257 131.56 65.8618 133.006 65.8618 134.899V144.941H68.8112V134.716C68.8112 131.835 68.1227 129.724 66.757 128.381L66.7684 128.392ZM28.1043 129.287H32.7522V126.591H28.1043V122H25.155V126.591H21.8381V129.287H25.155V140.156C25.155 141.808 25.5222 143.025 26.2567 143.794C26.9912 144.563 28.219 144.941 29.952 144.941H33.3376V142.244H28.1157V129.287H28.1043ZM16.8574 124.949H19.8068V122H16.8574V124.949ZM16.8574 144.953H19.8068V126.591H16.8574V144.953Z" fill="#0F1941"/>
</g>
</g>
</g>
</svg>
