<svg width="130" height="272" viewBox="0 0 130 272" fill="none" xmlns="http://www.w3.org/2000/svg">
<rect x="0.5" y="0.5" width="269" height="271" rx="11.5" fill="white" stroke="#E1DEFC"/>
<path opacity="0.8" d="M29.306 33.452C28.442 34.64 27.23 35.234 25.67 35.234C24.11 35.234 22.892 34.64 22.016 33.452C21.152 32.264 20.72 30.68 20.72 28.7C20.72 26.72 21.152 25.136 22.016 23.948C22.892 22.76 24.11 22.166 25.67 22.166C27.23 22.166 28.442 22.76 29.306 23.948C30.182 25.136 30.62 26.72 30.62 28.7C30.62 30.68 30.182 32.264 29.306 33.452ZM25.67 33.218C26.606 33.218 27.32 32.828 27.812 32.048C28.304 31.268 28.55 30.152 28.55 28.7C28.55 27.248 28.304 26.132 27.812 25.352C27.32 24.572 26.606 24.182 25.67 24.182C24.746 24.182 24.032 24.572 23.528 25.352C23.036 26.132 22.79 27.248 22.79 28.7C22.79 30.152 23.036 31.268 23.528 32.048C24.032 32.828 24.746 33.218 25.67 33.218ZM36.2519 26.63C37.5599 26.63 38.6279 27.032 39.4559 27.836C40.2839 28.628 40.6979 29.66 40.6979 30.932C40.6979 32.204 40.2839 33.242 39.4559 34.046C38.6279 34.838 37.5599 35.234 36.2519 35.234C34.9319 35.234 33.8579 34.838 33.0299 34.046C32.2019 33.242 31.7879 32.204 31.7879 30.932C31.7879 29.972 32.0399 29.126 32.5439 28.394L36.5399 22.4H38.8979L36.0179 26.63H36.2519ZM36.2519 33.272C36.9479 33.272 37.5179 33.062 37.9619 32.642C38.4059 32.21 38.6279 31.64 38.6279 30.932C38.6279 30.224 38.4059 29.66 37.9619 29.24C37.5179 28.808 36.9479 28.592 36.2519 28.592C35.5439 28.592 34.9679 28.808 34.5239 29.24C34.0799 29.66 33.8579 30.224 33.8579 30.932C33.8579 31.64 34.0799 32.21 34.5239 32.642C34.9679 33.062 35.5439 33.272 36.2519 33.272Z" fill="#030438"/>
<path opacity="0.8" d="M24.464 243L20.09 230.4H22.358L25.706 240.498L29.072 230.4H31.322L26.948 243H24.464ZM34.0266 232.29C33.7866 232.53 33.4986 232.65 33.1626 232.65C32.8266 232.65 32.5326 232.53 32.2806 232.29C32.0406 232.038 31.9206 231.744 31.9206 231.408C31.9206 231.072 32.0406 230.784 32.2806 230.544C32.5206 230.292 32.8146 230.166 33.1626 230.166C33.5106 230.166 33.8046 230.292 34.0446 230.544C34.2846 230.784 34.4046 231.072 34.4046 231.408C34.4046 231.744 34.2786 232.038 34.0266 232.29ZM32.1906 243V234H34.1346V243H32.1906ZM38.0851 236.484C38.0851 236.784 38.2471 237.024 38.5711 237.204C38.9071 237.372 39.3091 237.522 39.7771 237.654C40.2571 237.774 40.7371 237.918 41.2171 238.086C41.6971 238.254 42.0991 238.542 42.4231 238.95C42.7591 239.346 42.9271 239.85 42.9271 240.462C42.9271 241.326 42.5911 242.004 41.9191 242.496C41.2591 242.988 40.4251 243.234 39.4171 243.234C38.5291 243.234 37.7671 243.048 37.1311 242.676C36.4951 242.304 36.0331 241.788 35.7451 241.128L37.4191 240.156C37.7311 241.02 38.3971 241.452 39.4171 241.452C40.4371 241.452 40.9471 241.116 40.9471 240.444C40.9471 240.156 40.7791 239.922 40.4431 239.742C40.1191 239.562 39.7171 239.412 39.2371 239.292C38.7691 239.16 38.2951 239.01 37.8151 238.842C37.3351 238.674 36.9271 238.398 36.5911 238.014C36.2671 237.618 36.1051 237.12 36.1051 236.52C36.1051 235.692 36.4171 235.026 37.0411 234.522C37.6771 234.018 38.4631 233.766 39.3991 233.766C40.1431 233.766 40.8031 233.934 41.3791 234.27C41.9671 234.594 42.4171 235.05 42.7291 235.638L41.0911 236.556C40.7791 235.872 40.2151 235.53 39.3991 235.53C39.0271 235.53 38.7151 235.614 38.4631 235.782C38.2111 235.938 38.0851 236.172 38.0851 236.484ZM51.5354 234H53.4794V243H51.5354V241.704C50.8034 242.724 49.7534 243.234 48.3854 243.234C47.1494 243.234 46.0934 242.778 45.2174 241.866C44.3414 240.942 43.9034 239.82 43.9034 238.5C43.9034 237.168 44.3414 236.046 45.2174 235.134C46.0934 234.222 47.1494 233.766 48.3854 233.766C49.7534 233.766 50.8034 234.27 51.5354 235.278V234ZM46.6574 240.57C47.1974 241.11 47.8754 241.38 48.6914 241.38C49.5074 241.38 50.1854 241.11 50.7254 240.57C51.2654 240.018 51.5354 239.328 51.5354 238.5C51.5354 237.672 51.2654 236.988 50.7254 236.448C50.1854 235.896 49.5074 235.62 48.6914 235.62C47.8754 235.62 47.1974 235.896 46.6574 236.448C46.1174 236.988 45.8474 237.672 45.8474 238.5C45.8474 239.328 46.1174 240.018 46.6574 240.57Z" fill="#030438"/>
<g opacity="0.5">
<mask id="mask0_83_5845" style="mask-type:luminance" maskUnits="userSpaceOnUse" x="88" y="121" width="94" height="30">
<path d="M181.913 121H88V151H181.913V121Z" fill="white"/>
</mask>
<g mask="url(#mask0_83_5845)">
<path d="M128.695 150.567H121.087L125.846 121.526H133.453L128.695 150.567Z" fill="#0F1941"/>
<path d="M114.735 121.526L107.285 141.33L106.471 137.313C105.093 132.679 100.773 127.644 95.9526 125.14L102.777 150.537H110.822L122.78 121.526H114.735Z" fill="#0F1941"/>
<path d="M100.365 121.526H88.1251L88 122.113C97.5479 124.523 103.871 130.332 106.469 137.315L103.808 123.968C103.37 122.113 102.024 121.588 100.365 121.526Z" fill="#0F1941"/>
</g>
</g>
</svg>
