<svg width="270" height="272" viewBox="0 0 270 272" fill="none" xmlns="http://www.w3.org/2000/svg">
<rect x="0.5" y="0.5" width="269" height="271" rx="11.5" fill="white" stroke="#E1DEFC"/>
<path opacity="0.8" d="M29.306 33.452C28.442 34.64 27.23 35.234 25.67 35.234C24.11 35.234 22.892 34.64 22.016 33.452C21.152 32.264 20.72 30.68 20.72 28.7C20.72 26.72 21.152 25.136 22.016 23.948C22.892 22.76 24.11 22.166 25.67 22.166C27.23 22.166 28.442 22.76 29.306 23.948C30.182 25.136 30.62 26.72 30.62 28.7C30.62 30.68 30.182 32.264 29.306 33.452ZM25.67 33.218C26.606 33.218 27.32 32.828 27.812 32.048C28.304 31.268 28.55 30.152 28.55 28.7C28.55 27.248 28.304 26.132 27.812 25.352C27.32 24.572 26.606 24.182 25.67 24.182C24.746 24.182 24.032 24.572 23.528 25.352C23.036 26.132 22.79 27.248 22.79 28.7C22.79 30.152 23.036 31.268 23.528 32.048C24.032 32.828 24.746 33.218 25.67 33.218ZM36.8929 27.548C37.8049 27.764 38.5429 28.19 39.1069 28.826C39.6829 29.45 39.9709 30.236 39.9709 31.184C39.9709 32.444 39.5449 33.434 38.6929 34.154C37.8409 34.874 36.7969 35.234 35.5609 35.234C34.6009 35.234 33.7369 35.012 32.9689 34.568C32.2129 34.124 31.6669 33.476 31.3309 32.624L33.0949 31.598C33.4669 32.678 34.2889 33.218 35.5609 33.218C36.2809 33.218 36.8509 33.038 37.2709 32.678C37.6909 32.306 37.9009 31.808 37.9009 31.184C37.9009 30.56 37.6909 30.068 37.2709 29.708C36.8509 29.348 36.2809 29.168 35.5609 29.168H35.0929L34.2649 27.926L36.9829 24.344H31.7089V22.4H39.4489V24.164L36.8929 27.548Z" fill="#030438"/>
<path opacity="0.8" d="M24.464 243L20.09 230.4H22.358L25.706 240.498L29.072 230.4H31.322L26.948 243H24.464ZM34.0266 232.29C33.7866 232.53 33.4986 232.65 33.1626 232.65C32.8266 232.65 32.5326 232.53 32.2806 232.29C32.0406 232.038 31.9206 231.744 31.9206 231.408C31.9206 231.072 32.0406 230.784 32.2806 230.544C32.5206 230.292 32.8146 230.166 33.1626 230.166C33.5106 230.166 33.8046 230.292 34.0446 230.544C34.2846 230.784 34.4046 231.072 34.4046 231.408C34.4046 231.744 34.2786 232.038 34.0266 232.29ZM32.1906 243V234H34.1346V243H32.1906ZM41.4138 235.872H39.1818V240.192C39.1818 240.564 39.2658 240.834 39.4338 241.002C39.6018 241.158 39.8478 241.248 40.1718 241.272C40.5078 241.284 40.9218 241.278 41.4138 241.254V243C39.9258 243.18 38.8578 243.054 38.2098 242.622C37.5618 242.178 37.2378 241.368 37.2378 240.192V235.872H35.5818V234H37.2378V232.056L39.1818 231.48V234H41.4138V235.872ZM49.9358 234H51.8798V243H49.9358V241.704C49.2038 242.724 48.1538 243.234 46.7858 243.234C45.5498 243.234 44.4938 242.778 43.6178 241.866C42.7418 240.942 42.3038 239.82 42.3038 238.5C42.3038 237.168 42.7418 236.046 43.6178 235.134C44.4938 234.222 45.5498 233.766 46.7858 233.766C48.1538 233.766 49.2038 234.27 49.9358 235.278V234ZM45.0578 240.57C45.5978 241.11 46.2758 241.38 47.0918 241.38C47.9078 241.38 48.5858 241.11 49.1258 240.57C49.6658 240.018 49.9358 239.328 49.9358 238.5C49.9358 237.672 49.6658 236.988 49.1258 236.448C48.5858 235.896 47.9078 235.62 47.0918 235.62C46.2758 235.62 45.5978 235.896 45.0578 236.448C44.5178 236.988 44.2478 237.672 44.2478 238.5C44.2478 239.328 44.5178 240.018 45.0578 240.57ZM54.1457 243V229.86H56.0897V243H54.1457Z" fill="#030438"/>
<path opacity="0.8" d="M211.078 243V241.38L215.47 236.898C216.538 235.83 217.072 234.906 217.072 234.126C217.072 233.514 216.886 233.04 216.514 232.704C216.154 232.356 215.692 232.182 215.128 232.182C214.072 232.182 213.292 232.704 212.788 233.748L211.042 232.722C211.438 231.882 211.996 231.246 212.716 230.814C213.436 230.382 214.234 230.166 215.11 230.166C216.214 230.166 217.162 230.514 217.954 231.21C218.746 231.906 219.142 232.854 219.142 234.054C219.142 235.338 218.428 236.706 217 238.158L214.156 241.002H219.376V243H211.078ZM229.177 241.452C228.313 242.64 227.101 243.234 225.541 243.234C223.981 243.234 222.763 242.64 221.887 241.452C221.023 240.264 220.591 238.68 220.591 236.7C220.591 234.72 221.023 233.136 221.887 231.948C222.763 230.76 223.981 230.166 225.541 230.166C227.101 230.166 228.313 230.76 229.177 231.948C230.053 233.136 230.491 234.72 230.491 236.7C230.491 238.68 230.053 240.264 229.177 241.452ZM225.541 241.218C226.477 241.218 227.191 240.828 227.683 240.048C228.175 239.268 228.421 238.152 228.421 236.7C228.421 235.248 228.175 234.132 227.683 233.352C227.191 232.572 226.477 232.182 225.541 232.182C224.617 232.182 223.903 232.572 223.399 233.352C222.907 234.132 222.661 235.248 222.661 236.7C222.661 238.152 222.907 239.268 223.399 240.048C223.903 240.828 224.617 241.218 225.541 241.218ZM231.503 243V241.38L235.895 236.898C236.963 235.83 237.497 234.906 237.497 234.126C237.497 233.514 237.311 233.04 236.939 232.704C236.579 232.356 236.117 232.182 235.553 232.182C234.497 232.182 233.717 232.704 233.213 233.748L231.467 232.722C231.863 231.882 232.421 231.246 233.141 230.814C233.861 230.382 234.659 230.166 235.535 230.166C236.639 230.166 237.587 230.514 238.379 231.21C239.171 231.906 239.567 232.854 239.567 234.054C239.567 235.338 238.853 236.706 237.425 238.158L234.581 241.002H239.801V243H231.503ZM241.031 243V241.38L245.423 236.898C246.491 235.83 247.025 234.906 247.025 234.126C247.025 233.514 246.839 233.04 246.467 232.704C246.107 232.356 245.645 232.182 245.081 232.182C244.025 232.182 243.245 232.704 242.741 233.748L240.995 232.722C241.391 231.882 241.949 231.246 242.669 230.814C243.389 230.382 244.187 230.166 245.063 230.166C246.167 230.166 247.115 230.514 247.907 231.21C248.699 231.906 249.095 232.854 249.095 234.054C249.095 235.338 248.381 236.706 246.953 238.158L244.109 241.002H249.329V243H241.031Z" fill="#030438"/>
<g opacity="0.5">
<mask id="mask0_83_5810" style="mask-type:luminance" maskUnits="userSpaceOnUse" x="83" y="119" width="105" height="34">
<path d="M188 119H83V152.6H188V119Z" fill="white"/>
</mask>
<g mask="url(#mask0_83_5810)">
<path d="M93.1323 121.294L99.9272 143.11H100.183L106.949 121.294H117.082L106.173 152.233H93.9048L83 121.294H93.1323Z" fill="#0F1941"/>
<path d="M120.393 152.233V129.029H129.299V152.233H120.393ZM124.846 126.612C123.697 126.633 122.585 126.232 121.748 125.494C121.342 125.157 121.016 124.743 120.793 124.28C120.57 123.817 120.455 123.314 120.455 122.806C120.455 122.298 120.57 121.795 120.793 121.332C121.016 120.869 121.342 120.455 121.748 120.118C122.597 119.399 123.701 119.001 124.846 119.001C125.991 119.001 127.095 119.399 127.944 120.118C128.349 120.456 128.674 120.87 128.896 121.333C129.118 121.796 129.233 122.298 129.233 122.806C129.233 123.314 129.118 123.816 128.896 124.279C128.674 124.743 128.349 125.156 127.944 125.494C127.109 126.234 125.995 126.635 124.846 126.612Z" fill="#0F1941"/>
<path d="M147.773 145.979C147.602 146.023 147.326 146.073 146.946 146.13C146.639 146.187 146.326 146.218 146.013 146.223C145.687 146.233 145.363 146.182 145.059 146.072C144.825 145.97 144.632 145.801 144.509 145.589C144.385 145.333 144.325 145.054 144.332 144.773V135.073H148.595V129.028H144.353V123.471H135.451V129.028H132.287V135.073H135.451V145.558C135.376 146.97 135.729 148.373 136.467 149.607C137.195 150.706 138.298 151.541 139.598 151.977C141.252 152.504 143.004 152.704 144.745 152.565C145.625 152.532 146.5 152.426 147.36 152.248C148.103 152.091 148.673 151.956 149.07 151.842L147.773 145.979Z" fill="#0F1941"/>
<path d="M159.156 152.596C157.72 152.623 156.294 152.377 154.963 151.873C153.799 151.41 152.809 150.632 152.121 149.638C151.389 148.489 151.03 147.165 151.089 145.829C151.056 144.71 151.293 143.6 151.783 142.58C152.222 141.701 152.888 140.938 153.72 140.36C154.593 139.765 155.572 139.32 156.611 139.045C157.78 138.733 158.98 138.536 160.193 138.457C161.569 138.357 162.683 138.236 163.534 138.094C164.187 138.013 164.814 137.802 165.372 137.475C165.552 137.352 165.697 137.191 165.796 137.004C165.894 136.818 165.943 136.612 165.938 136.404V136.342C165.952 136.07 165.891 135.8 165.76 135.557C165.63 135.313 165.436 135.106 165.195 134.953C164.629 134.611 163.964 134.442 163.291 134.47C162.561 134.443 161.84 134.627 161.225 134.996C160.955 135.182 160.731 135.421 160.567 135.695C160.403 135.969 160.304 136.272 160.275 136.585H152.059C152.16 135.19 152.654 133.845 153.493 132.687C154.439 131.424 155.74 130.431 157.252 129.817C158.904 129.09 160.96 128.727 163.419 128.727C165.032 128.706 166.641 128.906 168.193 129.318C169.488 129.649 170.707 130.197 171.791 130.935C172.732 131.568 173.505 132.395 174.051 133.352C174.577 134.271 174.848 135.299 174.84 136.342V152.233H166.517V148.973H166.323C165.878 149.78 165.262 150.495 164.513 151.073C163.806 151.61 162.987 152.005 162.109 152.233C161.148 152.485 160.154 152.607 159.156 152.596ZM162.047 147.341C162.705 147.347 163.356 147.215 163.951 146.954C164.541 146.705 165.048 146.314 165.422 145.821C165.81 145.293 166.009 144.663 165.988 144.022V142.089C165.748 142.182 165.496 142.267 165.228 142.348C164.959 142.429 164.691 142.502 164.402 142.572C164.113 142.642 163.799 142.711 163.464 142.769C163.129 142.828 162.803 142.885 162.448 142.936C161.856 143.007 161.283 143.176 160.754 143.434C160.358 143.625 160.024 143.913 159.788 144.266C159.579 144.595 159.472 144.971 159.478 145.353C159.461 145.637 159.519 145.92 159.645 146.178C159.772 146.436 159.964 146.661 160.205 146.834C160.746 147.191 161.399 147.369 162.06 147.341H162.047Z" fill="#0F1941"/>
<path d="M188.001 121.294V152.233H179.091V121.294H188.001Z" fill="#0F1941"/>
</g>
</g>
</svg>
