<svg width="270" height="272" viewBox="0 0 270 272" fill="none" xmlns="http://www.w3.org/2000/svg">
<rect x="0.5" y="0.5" width="269" height="271" rx="11.5" fill="white" stroke="#E1DEFC"/>
<path opacity="0.8" d="M29.306 33.452C28.442 34.64 27.23 35.234 25.67 35.234C24.11 35.234 22.892 34.64 22.016 33.452C21.152 32.264 20.72 30.68 20.72 28.7C20.72 26.72 21.152 25.136 22.016 23.948C22.892 22.76 24.11 22.166 25.67 22.166C27.23 22.166 28.442 22.76 29.306 23.948C30.182 25.136 30.62 26.72 30.62 28.7C30.62 30.68 30.182 32.264 29.306 33.452ZM25.67 33.218C26.606 33.218 27.32 32.828 27.812 32.048C28.304 31.268 28.55 30.152 28.55 28.7C28.55 27.248 28.304 26.132 27.812 25.352C27.32 24.572 26.606 24.182 25.67 24.182C24.746 24.182 24.032 24.572 23.528 25.352C23.036 26.132 22.79 27.248 22.79 28.7C22.79 30.152 23.036 31.268 23.528 32.048C24.032 32.828 24.746 33.218 25.67 33.218ZM31.6322 35V33.38L36.0242 28.898C37.0922 27.83 37.6262 26.906 37.6262 26.126C37.6262 25.514 37.4402 25.04 37.0682 24.704C36.7082 24.356 36.2462 24.182 35.6822 24.182C34.6262 24.182 33.8462 24.704 33.3422 25.748L31.5962 24.722C31.9922 23.882 32.5502 23.246 33.2702 22.814C33.9902 22.382 34.7882 22.166 35.6642 22.166C36.7682 22.166 37.7162 22.514 38.5082 23.21C39.3002 23.906 39.6962 24.854 39.6962 26.054C39.6962 27.338 38.9822 28.706 37.5542 30.158L34.7102 33.002H39.9302V35H31.6322Z" fill="#030438"/>
<path opacity="0.8" d="M30.53 243H28.172L25.4 238.446L22.628 243H20.27L24.23 236.52L20.504 230.4H22.844L25.4 234.594L27.956 230.4H30.314L26.588 236.52L30.53 243ZM36.697 230.4C37.885 230.4 38.875 230.796 39.667 231.588C40.471 232.38 40.873 233.364 40.873 234.54C40.873 235.704 40.471 236.688 39.667 237.492C38.875 238.284 37.885 238.68 36.697 238.68H34.123V243H32.053V230.4H36.697ZM36.697 236.736C37.309 236.736 37.813 236.532 38.209 236.124C38.605 235.704 38.803 235.176 38.803 234.54C38.803 233.904 38.605 233.382 38.209 232.974C37.813 232.554 37.309 232.344 36.697 232.344H34.123V236.736H36.697Z" fill="#030438"/>
<path opacity="0.8" d="M211.06 243V241.38L215.452 236.898C216.52 235.83 217.054 234.906 217.054 234.126C217.054 233.514 216.868 233.04 216.496 232.704C216.136 232.356 215.674 232.182 215.11 232.182C214.054 232.182 213.274 232.704 212.77 233.748L211.024 232.722C211.42 231.882 211.978 231.246 212.698 230.814C213.418 230.382 214.216 230.166 215.092 230.166C216.196 230.166 217.144 230.514 217.936 231.21C218.728 231.906 219.124 232.854 219.124 234.054C219.124 235.338 218.41 236.706 216.982 238.158L214.138 241.002H219.358V243H211.06ZM229.16 241.452C228.296 242.64 227.084 243.234 225.524 243.234C223.964 243.234 222.746 242.64 221.87 241.452C221.006 240.264 220.574 238.68 220.574 236.7C220.574 234.72 221.006 233.136 221.87 231.948C222.746 230.76 223.964 230.166 225.524 230.166C227.084 230.166 228.296 230.76 229.16 231.948C230.036 233.136 230.474 234.72 230.474 236.7C230.474 238.68 230.036 240.264 229.16 241.452ZM225.524 241.218C226.46 241.218 227.174 240.828 227.666 240.048C228.158 239.268 228.404 238.152 228.404 236.7C228.404 235.248 228.158 234.132 227.666 233.352C227.174 232.572 226.46 232.182 225.524 232.182C224.6 232.182 223.886 232.572 223.382 233.352C222.89 234.132 222.644 235.248 222.644 236.7C222.644 238.152 222.89 239.268 223.382 240.048C223.886 240.828 224.6 241.218 225.524 241.218ZM231.486 243V241.38L235.878 236.898C236.946 235.83 237.48 234.906 237.48 234.126C237.48 233.514 237.294 233.04 236.922 232.704C236.562 232.356 236.1 232.182 235.536 232.182C234.48 232.182 233.7 232.704 233.196 233.748L231.45 232.722C231.846 231.882 232.404 231.246 233.124 230.814C233.844 230.382 234.642 230.166 235.518 230.166C236.622 230.166 237.57 230.514 238.362 231.21C239.154 231.906 239.55 232.854 239.55 234.054C239.55 235.338 238.836 236.706 237.408 238.158L234.564 241.002H239.784V243H231.486ZM246.291 235.548C247.203 235.764 247.941 236.19 248.505 236.826C249.081 237.45 249.369 238.236 249.369 239.184C249.369 240.444 248.943 241.434 248.091 242.154C247.239 242.874 246.195 243.234 244.959 243.234C243.999 243.234 243.135 243.012 242.367 242.568C241.611 242.124 241.065 241.476 240.729 240.624L242.493 239.598C242.865 240.678 243.687 241.218 244.959 241.218C245.679 241.218 246.249 241.038 246.669 240.678C247.089 240.306 247.299 239.808 247.299 239.184C247.299 238.56 247.089 238.068 246.669 237.708C246.249 237.348 245.679 237.168 244.959 237.168H244.491L243.663 235.926L246.381 232.344H241.107V230.4H248.847V232.164L246.291 235.548Z" fill="#030438"/>
<g opacity="0.5">
<path d="M151.122 153.214C153.957 153.214 157.568 153.235 160.378 153.207C161.699 153.195 162.824 152.65 163.666 151.723C164.873 150.405 165.075 148.86 164.287 147.315C163.516 145.804 162.178 144.96 160.324 144.962C158.967 144.962 157.61 144.962 156.253 144.962C154.798 144.962 152.61 144.978 151.112 144.955C151.095 144.955 151.078 144.958 151.062 144.964C151.045 144.97 151.031 144.979 151.018 144.991C151.006 145.002 150.996 145.016 150.989 145.031C150.982 145.046 150.979 145.062 150.979 145.078C150.979 145.192 150.979 145.378 150.979 145.679C151 147.938 150.979 150.199 150.989 152.459C150.989 152.787 150.989 152.975 150.983 153.08C150.982 153.097 150.984 153.115 150.991 153.132C150.997 153.148 151.007 153.164 151.02 153.177C151.033 153.189 151.049 153.199 151.067 153.206C151.084 153.212 151.103 153.215 151.122 153.214Z" fill="#0F1941"/>
<path d="M144.069 140.981C144.07 140.951 144.062 140.92 144.045 140.895C144.028 140.869 144.004 140.849 143.975 140.836C143.946 140.823 143.914 140.819 143.883 140.824C143.852 140.829 143.823 140.843 143.8 140.864C143.65 140.997 143.481 141.151 143.411 141.215C140.92 143.558 138.507 145.975 135.901 148.204C135.877 148.224 135.858 148.25 135.844 148.278C135.831 148.306 135.824 148.336 135.822 148.367C135.821 148.397 135.826 148.428 135.837 148.457C135.848 148.486 135.865 148.513 135.887 148.535C137.399 150.029 142.57 154.791 143.819 155.934C143.842 155.956 143.871 155.97 143.902 155.975C143.934 155.981 143.966 155.977 143.995 155.964C144.024 155.952 144.049 155.931 144.065 155.905C144.082 155.878 144.09 155.848 144.089 155.817C144.089 155.817 144.073 155.817 144.073 148.463C144.073 146.273 144.075 143.263 144.069 140.981Z" fill="#0F1941"/>
<path d="M170.254 111.053C170.157 109.527 169.523 108.085 168.463 106.982C167.403 105.88 165.986 105.188 164.464 105.032L164.417 105H163.865H163.8H143.097H126.403H106.465H106.402H105.666C105.655 105.019 105.642 105.037 105.627 105.054C104.071 105.258 102.642 106.02 101.607 107.199C100.571 108.378 100 109.892 100 111.461V118.324L100.016 118.316C100.016 122.611 100.016 126.904 100.016 131.193C100.016 139.716 100.041 148.241 100.016 156.766L100.005 156.758V160.537C100.005 162.251 100.686 163.895 101.899 165.107C103.112 166.319 104.757 167 106.472 167H114.869H144.337C144.35 165.813 144.289 163.914 144.496 163.094C144.901 161.496 145.995 160.617 147.398 159.991C147.557 159.92 147.724 159.867 147.883 159.797C147.967 159.76 148.96 159.463 148.96 159.463L146.217 159.453L137.107 159.38C135.616 157.876 131.412 153.724 131.412 153.724C129.894 155.184 127.42 157.573 125.839 159.096C125.739 159.194 125.604 159.249 125.463 159.248H117.2C117.152 159.249 117.106 159.235 117.067 159.209C117.027 159.183 116.997 159.145 116.979 159.101C116.962 159.058 116.958 159.009 116.968 158.963C116.978 158.917 117.002 158.875 117.037 158.843C118.184 157.746 121.381 154.685 123.097 152.995C124.259 151.849 126.084 150.242 127.271 149.12C127.271 149.12 122.323 144.346 120.101 142.28C119.235 141.474 117.288 139.627 116.584 138.963C116.564 138.944 116.549 138.919 116.543 138.891C116.537 138.864 116.539 138.835 116.549 138.808C116.56 138.782 116.578 138.76 116.601 138.744C116.624 138.728 116.652 138.719 116.68 138.72C119.232 138.72 122.893 138.72 125.395 138.72C125.449 138.719 125.503 138.729 125.553 138.749C125.604 138.769 125.65 138.799 125.688 138.837C126.157 139.305 127.845 141 128.588 141.738C129.439 142.585 130.306 143.419 131.177 144.245L131.447 144.502C132.938 143.019 135.458 140.627 137.06 139.018C137.255 138.822 137.519 138.711 137.795 138.709H138.273C145.762 138.729 153.251 138.697 160.739 138.735H160.882C162.874 138.739 164.821 139.322 166.488 140.413C168.154 141.504 169.467 143.055 170.267 144.878V111.08L170.254 111.053Z" fill="#0F1941"/>
<path d="M161.973 159.357C161.652 159.394 161.329 159.412 161.007 159.41C157.966 159.383 154.925 159.398 151.884 159.4C151.052 159.4 150.98 159.469 150.979 160.297C150.979 162.066 150.979 165.08 150.979 167C154.435 167 157.892 166.998 161.349 166.993L161.342 167H163.845C165.484 167.001 167.062 166.365 168.254 165.225C169.446 164.084 170.163 162.525 170.257 160.866L170.267 160.848V153.223C169.542 154.896 168.393 156.345 166.936 157.422C165.479 158.5 163.767 159.167 161.973 159.357Z" fill="#0F1941"/>
</g>
</svg>
