<svg width="120" height="39" viewBox="0 0 120 39" fill="none" xmlns="http://www.w3.org/2000/svg">
<rect width="120" height="39" rx="8" fill="#5E51FE"/>
<path d="M19.3687 24.252C17.4727 24.252 15.9067 23.622 14.6707 22.362C13.4347 21.102 12.8167 19.548 12.8167 17.7C12.8167 15.84 13.4347 14.286 14.6707 13.038C15.9067 11.778 17.4727 11.148 19.3687 11.148C20.5087 11.148 21.5587 11.418 22.5187 11.958C23.4907 12.486 24.2467 13.206 24.7867 14.118L22.6447 15.36C22.3327 14.796 21.8887 14.358 21.3127 14.046C20.7367 13.722 20.0887 13.56 19.3687 13.56C18.1447 13.56 17.1547 13.944 16.3987 14.712C15.6547 15.48 15.2827 16.476 15.2827 17.7C15.2827 18.912 15.6547 19.902 16.3987 20.67C17.1547 21.438 18.1447 21.822 19.3687 21.822C20.0887 21.822 20.7367 21.666 21.3127 21.354C21.9007 21.03 22.3447 20.592 22.6447 20.04L24.7867 21.282C24.2467 22.194 23.4967 22.92 22.5367 23.46C21.5767 23.988 20.5207 24.252 19.3687 24.252ZM33.0973 15H35.4193V24H33.0973V22.938C32.4013 23.814 31.4233 24.252 30.1633 24.252C28.9633 24.252 27.9313 23.796 27.0673 22.884C26.2153 21.96 25.7893 20.832 25.7893 19.5C25.7893 18.168 26.2153 17.046 27.0673 16.134C27.9313 15.21 28.9633 14.748 30.1633 14.748C31.4233 14.748 32.4013 15.186 33.0973 16.062V15ZM28.8133 21.336C29.2813 21.804 29.8753 22.038 30.5953 22.038C31.3153 22.038 31.9093 21.804 32.3773 21.336C32.8573 20.856 33.0973 20.244 33.0973 19.5C33.0973 18.756 32.8573 18.15 32.3773 17.682C31.9093 17.202 31.3153 16.962 30.5953 16.962C29.8753 16.962 29.2813 17.202 28.8133 17.682C28.3453 18.15 28.1113 18.756 28.1113 19.5C28.1113 20.244 28.3453 20.856 28.8133 21.336ZM39.5966 17.556C39.5966 17.796 39.7526 17.994 40.0646 18.15C40.3886 18.294 40.7786 18.426 41.2346 18.546C41.6906 18.654 42.1466 18.798 42.6026 18.978C43.0586 19.146 43.4426 19.434 43.7546 19.842C44.0786 20.25 44.2406 20.76 44.2406 21.372C44.2406 22.296 43.8926 23.01 43.1966 23.514C42.5126 24.006 41.6546 24.252 40.6226 24.252C38.7746 24.252 37.5146 23.538 36.8426 22.11L38.8586 20.976C39.1226 21.756 39.7106 22.146 40.6226 22.146C41.4506 22.146 41.8646 21.888 41.8646 21.372C41.8646 21.132 41.7026 20.94 41.3786 20.796C41.0666 20.64 40.6826 20.502 40.2266 20.382C39.7706 20.262 39.3146 20.112 38.8586 19.932C38.4026 19.752 38.0126 19.47 37.6886 19.086C37.3766 18.69 37.2206 18.198 37.2206 17.61C37.2206 16.722 37.5446 16.026 38.1926 15.522C38.8526 15.006 39.6686 14.748 40.6406 14.748C41.3726 14.748 42.0386 14.916 42.6386 15.252C43.2386 15.576 43.7126 16.044 44.0606 16.656L42.0806 17.736C41.7926 17.124 41.3126 16.818 40.6406 16.818C40.3406 16.818 40.0886 16.884 39.8846 17.016C39.6926 17.148 39.5966 17.328 39.5966 17.556ZM47.5728 20.454C47.8848 21.582 48.7308 22.146 50.1108 22.146C50.9988 22.146 51.6708 21.846 52.1268 21.246L53.9988 22.326C53.1108 23.61 51.8028 24.252 50.0748 24.252C48.5868 24.252 47.3928 23.802 46.4928 22.902C45.5928 22.002 45.1428 20.868 45.1428 19.5C45.1428 18.144 45.5868 17.016 46.4748 16.116C47.3628 15.204 48.5028 14.748 49.8948 14.748C51.2148 14.748 52.3008 15.204 53.1528 16.116C54.0168 17.028 54.4488 18.156 54.4488 19.5C54.4488 19.8 54.4188 20.118 54.3588 20.454H47.5728ZM47.5368 18.654H52.1268C51.9948 18.042 51.7188 17.586 51.2988 17.286C50.8908 16.986 50.4228 16.836 49.8948 16.836C49.2708 16.836 48.7548 16.998 48.3468 17.322C47.9388 17.634 47.6688 18.078 47.5368 18.654ZM64.9798 24.252C63.7318 24.252 62.6818 23.976 61.8298 23.424C60.9778 22.86 60.3778 22.098 60.0298 21.138L62.1538 19.896C62.6458 21.18 63.6118 21.822 65.0518 21.822C65.7478 21.822 66.2578 21.696 66.5818 21.444C66.9058 21.192 67.0678 20.874 67.0678 20.49C67.0678 20.046 66.8698 19.704 66.4738 19.464C66.0778 19.212 65.3698 18.942 64.3498 18.654C63.7858 18.486 63.3058 18.318 62.9098 18.15C62.5258 17.982 62.1358 17.76 61.7398 17.484C61.3558 17.196 61.0618 16.836 60.8578 16.404C60.6538 15.972 60.5518 15.468 60.5518 14.892C60.5518 13.752 60.9538 12.846 61.7578 12.174C62.5738 11.49 63.5518 11.148 64.6918 11.148C65.7118 11.148 66.6058 11.4 67.3738 11.904C68.1538 12.396 68.7598 13.086 69.1918 13.974L67.1038 15.18C66.5998 14.1 65.7958 13.56 64.6918 13.56C64.1758 13.56 63.7678 13.68 63.4678 13.92C63.1798 14.148 63.0358 14.448 63.0358 14.82C63.0358 15.216 63.1978 15.54 63.5218 15.792C63.8578 16.032 64.4938 16.296 65.4298 16.584C65.8138 16.704 66.1018 16.8 66.2938 16.872C66.4978 16.932 66.7678 17.034 67.1038 17.178C67.4518 17.31 67.7158 17.436 67.8958 17.556C68.0878 17.676 68.3038 17.838 68.5438 18.042C68.7838 18.246 68.9638 18.456 69.0838 18.672C69.2158 18.888 69.3238 19.152 69.4078 19.464C69.5038 19.764 69.5518 20.094 69.5518 20.454C69.5518 21.618 69.1258 22.542 68.2738 23.226C67.4338 23.91 66.3358 24.252 64.9798 24.252ZM75.9483 17.232H73.9143V20.976C73.9143 21.288 73.9923 21.516 74.1483 21.66C74.3043 21.804 74.5323 21.888 74.8323 21.912C75.1323 21.924 75.5043 21.918 75.9483 21.894V24C74.3523 24.18 73.2243 24.03 72.5643 23.55C71.9163 23.07 71.5923 22.212 71.5923 20.976V17.232H70.0263V15H71.5923V13.182L73.9143 12.48V15H75.9483V17.232ZM83.6661 15H85.9881V24H83.6661V22.992C83.1021 23.832 82.2081 24.252 80.9841 24.252C80.0001 24.252 79.1841 23.922 78.5361 23.262C77.9001 22.602 77.5821 21.69 77.5821 20.526V15H79.9041V20.238C79.9041 20.838 80.0661 21.3 80.3901 21.624C80.7141 21.936 81.1461 22.092 81.6861 22.092C82.2861 22.092 82.7661 21.906 83.1261 21.534C83.4861 21.162 83.6661 20.604 83.6661 19.86V15ZM94.9367 11.4H97.2587V24H94.9367V22.938C94.2527 23.814 93.2807 24.252 92.0207 24.252C90.8087 24.252 89.7707 23.796 88.9067 22.884C88.0547 21.96 87.6287 20.832 87.6287 19.5C87.6287 18.168 88.0547 17.046 88.9067 16.134C89.7707 15.21 90.8087 14.748 92.0207 14.748C93.2807 14.748 94.2527 15.186 94.9367 16.062V11.4ZM90.6527 21.336C91.1327 21.804 91.7327 22.038 92.4527 22.038C93.1727 22.038 93.7667 21.804 94.2347 21.336C94.7027 20.856 94.9367 20.244 94.9367 19.5C94.9367 18.756 94.7027 18.15 94.2347 17.682C93.7667 17.202 93.1727 16.962 92.4527 16.962C91.7327 16.962 91.1327 17.202 90.6527 17.682C90.1847 18.15 89.9507 18.756 89.9507 19.5C89.9507 20.244 90.1847 20.856 90.6527 21.336ZM105.25 15H107.734L104.458 24C103.99 25.296 103.366 26.232 102.586 26.808C101.818 27.396 100.858 27.66 99.7063 27.6V25.44C100.33 25.452 100.822 25.32 101.182 25.044C101.554 24.768 101.848 24.324 102.064 23.712L98.3743 15H100.912L103.252 21.048L105.25 15Z" fill="white"/>
</svg>
