<svg width="746" height="125" viewBox="0 0 746 125" fill="none" xmlns="http://www.w3.org/2000/svg">
<rect width="746" height="125" rx="16" fill="#030438"/>
<path d="M45.872 51.336C44.832 51.336 43.896 51.232 43.064 51.024C42.248 50.832 41.544 50.536 40.952 50.136C40.376 49.72 39.92 49.208 39.584 48.6C39.264 47.976 39.08 47.264 39.032 46.464L42.056 45.48C42.088 46.2 42.264 46.8 42.584 47.28C42.92 47.76 43.392 48.112 44 48.336C44.608 48.56 45.288 48.672 46.04 48.672C46.76 48.672 47.368 48.584 47.864 48.408C48.36 48.232 48.736 48 48.992 47.712C49.248 47.408 49.376 47.08 49.376 46.728C49.376 46.312 49.216 45.976 48.896 45.72C48.576 45.464 48.136 45.248 47.576 45.072C47.032 44.896 46.408 44.728 45.704 44.568C44.92 44.392 44.144 44.192 43.376 43.968C42.624 43.744 41.936 43.456 41.312 43.104C40.704 42.752 40.216 42.296 39.848 41.736C39.496 41.176 39.32 40.472 39.32 39.624C39.32 38.648 39.56 37.808 40.04 37.104C40.536 36.384 41.256 35.824 42.2 35.424C43.144 35.024 44.28 34.824 45.608 34.824C46.952 34.824 48.096 35.024 49.04 35.424C50 35.808 50.744 36.36 51.272 37.08C51.8 37.784 52.088 38.624 52.136 39.6L49.016 40.464C49.016 39.968 48.936 39.536 48.776 39.168C48.616 38.8 48.392 38.496 48.104 38.256C47.816 38 47.456 37.808 47.024 37.68C46.608 37.552 46.128 37.488 45.584 37.488C44.96 37.488 44.416 37.568 43.952 37.728C43.504 37.888 43.16 38.104 42.92 38.376C42.696 38.648 42.584 38.968 42.584 39.336C42.584 39.768 42.76 40.128 43.112 40.416C43.48 40.688 43.96 40.912 44.552 41.088C45.16 41.264 45.824 41.432 46.544 41.592C47.232 41.736 47.928 41.92 48.632 42.144C49.352 42.352 50.016 42.632 50.624 42.984C51.248 43.32 51.744 43.784 52.112 44.376C52.496 44.952 52.688 45.68 52.688 46.56C52.688 47.52 52.432 48.36 51.92 49.08C51.408 49.8 50.64 50.36 49.616 50.76C48.608 51.144 47.36 51.336 45.872 51.336ZM61.0963 51.336C60.0563 51.336 59.1283 51.192 58.3123 50.904C57.5123 50.616 56.8323 50.2 56.2723 49.656C55.7123 49.112 55.2803 48.44 54.9763 47.64C54.6883 46.84 54.5443 45.936 54.5443 44.928C54.5443 43.936 54.6803 43.024 54.9523 42.192C55.2403 41.344 55.6563 40.616 56.2003 40.008C56.7443 39.384 57.4083 38.904 58.1923 38.568C58.9763 38.232 59.8643 38.064 60.8563 38.064C61.8163 38.064 62.6723 38.224 63.4243 38.544C64.1763 38.848 64.8003 39.312 65.2963 39.936C65.8083 40.56 66.1763 41.328 66.4003 42.24C66.6403 43.136 66.7283 44.168 66.6643 45.336L56.7763 45.432V43.536L64.6723 43.464L63.4483 44.424C63.5603 43.576 63.5043 42.88 63.2803 42.336C63.0563 41.792 62.7283 41.392 62.2963 41.136C61.8803 40.88 61.4163 40.752 60.9043 40.752C60.2963 40.752 59.7603 40.912 59.2963 41.232C58.8323 41.552 58.4723 42.024 58.2163 42.648C57.9603 43.256 57.8323 43.992 57.8323 44.856C57.8323 46.216 58.1283 47.216 58.7203 47.856C59.3283 48.496 60.1203 48.816 61.0963 48.816C61.5443 48.816 61.9203 48.76 62.2243 48.648C62.5443 48.52 62.8003 48.36 62.9923 48.168C63.2003 47.976 63.3603 47.76 63.4723 47.52C63.6003 47.28 63.7043 47.04 63.7843 46.8L66.7843 47.448C66.6403 48.04 66.4243 48.576 66.1363 49.056C65.8643 49.52 65.4963 49.928 65.0323 50.28C64.5683 50.616 64.0083 50.872 63.3523 51.048C62.7123 51.24 61.9603 51.336 61.0963 51.336ZM69.1856 51V44.904V38.4H72.0416L72.0656 42.696H72.5216C72.6496 41.624 72.8656 40.752 73.1696 40.08C73.4896 39.408 73.9296 38.912 74.4896 38.592C75.0496 38.272 75.7456 38.112 76.5776 38.112C76.7216 38.112 76.8736 38.12 77.0336 38.136C77.2096 38.136 77.4096 38.16 77.6336 38.208L77.4896 41.88C77.2496 41.768 76.9856 41.688 76.6976 41.64C76.4096 41.592 76.1536 41.568 75.9296 41.568C75.3056 41.568 74.7696 41.712 74.3216 42C73.8736 42.288 73.5056 42.704 73.2176 43.248C72.9456 43.776 72.7616 44.424 72.6656 45.192V51H69.1856ZM82.9874 51L78.7874 38.424H82.6034L85.2674 48.264H85.6514L88.3154 38.424H91.9874L87.7634 51H82.9874ZM93.8418 51V38.4H97.2978V51H93.8418ZM95.5938 36.504C94.9218 36.504 94.4018 36.368 94.0338 36.096C93.6818 35.808 93.5058 35.392 93.5058 34.848C93.5058 34.288 93.6818 33.864 94.0338 33.576C94.4018 33.288 94.9218 33.144 95.5938 33.144C96.2818 33.144 96.8018 33.288 97.1538 33.576C97.5218 33.864 97.7058 34.288 97.7058 34.848C97.7058 35.376 97.5218 35.784 97.1538 36.072C96.8018 36.36 96.2818 36.504 95.5938 36.504ZM106.33 51.336C105.242 51.336 104.29 51.176 103.474 50.856C102.658 50.536 101.978 50.088 101.434 49.512C100.89 48.936 100.482 48.256 100.21 47.472C99.9381 46.672 99.8021 45.8 99.8021 44.856C99.8021 43.864 99.9381 42.96 100.21 42.144C100.498 41.312 100.914 40.592 101.458 39.984C102.002 39.376 102.674 38.904 103.474 38.568C104.274 38.232 105.186 38.064 106.21 38.064C107.234 38.064 108.122 38.232 108.874 38.568C109.642 38.904 110.258 39.376 110.722 39.984C111.202 40.576 111.53 41.28 111.706 42.096L108.514 43.128C108.466 42.632 108.33 42.208 108.106 41.856C107.898 41.488 107.61 41.216 107.242 41.04C106.89 40.848 106.49 40.752 106.042 40.752C105.578 40.752 105.178 40.848 104.842 41.04C104.506 41.216 104.218 41.48 103.978 41.832C103.754 42.168 103.578 42.584 103.45 43.08C103.338 43.56 103.282 44.104 103.282 44.712C103.282 45.576 103.394 46.312 103.618 46.92C103.858 47.512 104.202 47.968 104.65 48.288C105.114 48.592 105.682 48.744 106.354 48.744C106.994 48.744 107.506 48.624 107.89 48.384C108.274 48.128 108.554 47.808 108.73 47.424C108.922 47.024 109.042 46.616 109.09 46.2L112.114 46.872C112.034 47.496 111.858 48.08 111.586 48.624C111.33 49.168 110.962 49.64 110.482 50.04C110.002 50.44 109.418 50.76 108.73 51C108.058 51.224 107.258 51.336 106.33 51.336ZM119.948 51.336C118.908 51.336 117.98 51.192 117.164 50.904C116.364 50.616 115.684 50.2 115.124 49.656C114.564 49.112 114.132 48.44 113.828 47.64C113.54 46.84 113.396 45.936 113.396 44.928C113.396 43.936 113.532 43.024 113.804 42.192C114.092 41.344 114.508 40.616 115.052 40.008C115.596 39.384 116.26 38.904 117.044 38.568C117.828 38.232 118.716 38.064 119.708 38.064C120.668 38.064 121.524 38.224 122.276 38.544C123.028 38.848 123.652 39.312 124.148 39.936C124.66 40.56 125.028 41.328 125.252 42.24C125.492 43.136 125.58 44.168 125.516 45.336L115.628 45.432V43.536L123.524 43.464L122.3 44.424C122.412 43.576 122.356 42.88 122.132 42.336C121.908 41.792 121.58 41.392 121.148 41.136C120.732 40.88 120.268 40.752 119.756 40.752C119.148 40.752 118.612 40.912 118.148 41.232C117.684 41.552 117.324 42.024 117.068 42.648C116.812 43.256 116.684 43.992 116.684 44.856C116.684 46.216 116.98 47.216 117.572 47.856C118.18 48.496 118.972 48.816 119.948 48.816C120.396 48.816 120.772 48.76 121.076 48.648C121.396 48.52 121.652 48.36 121.844 48.168C122.052 47.976 122.212 47.76 122.324 47.52C122.452 47.28 122.556 47.04 122.636 46.8L125.636 47.448C125.492 48.04 125.276 48.576 124.988 49.056C124.716 49.52 124.348 49.928 123.884 50.28C123.42 50.616 122.86 50.872 122.204 51.048C121.564 51.24 120.812 51.336 119.948 51.336ZM133.218 51.336C132.37 51.336 131.602 51.256 130.914 51.096C130.226 50.936 129.634 50.704 129.138 50.4C128.642 50.096 128.242 49.736 127.938 49.32C127.634 48.888 127.434 48.408 127.338 47.88L129.978 46.8C130.042 47.152 130.218 47.48 130.506 47.784C130.794 48.088 131.178 48.336 131.658 48.528C132.154 48.704 132.746 48.792 133.434 48.792C134.17 48.792 134.738 48.688 135.138 48.48C135.538 48.256 135.738 47.944 135.738 47.544C135.738 47.24 135.626 47 135.402 46.824C135.178 46.648 134.85 46.496 134.418 46.368C133.986 46.24 133.466 46.12 132.858 46.008C132.266 45.864 131.658 45.712 131.034 45.552C130.426 45.392 129.858 45.168 129.33 44.88C128.818 44.592 128.394 44.216 128.058 43.752C127.738 43.272 127.578 42.664 127.578 41.928C127.578 41.16 127.786 40.488 128.202 39.912C128.618 39.336 129.226 38.888 130.026 38.568C130.826 38.232 131.802 38.064 132.954 38.064C133.994 38.064 134.906 38.208 135.69 38.496C136.474 38.768 137.114 39.168 137.61 39.696C138.122 40.208 138.466 40.824 138.642 41.544L135.834 42.48C135.77 42.096 135.61 41.76 135.354 41.472C135.114 41.184 134.786 40.968 134.37 40.824C133.97 40.68 133.498 40.608 132.954 40.608C132.266 40.608 131.73 40.72 131.346 40.944C130.978 41.168 130.794 41.464 130.794 41.832C130.794 42.136 130.914 42.384 131.154 42.576C131.41 42.768 131.762 42.928 132.21 43.056C132.658 43.168 133.186 43.288 133.794 43.416C134.434 43.544 135.058 43.696 135.666 43.872C136.274 44.032 136.818 44.248 137.298 44.52C137.794 44.792 138.186 45.152 138.474 45.6C138.762 46.048 138.906 46.624 138.906 47.328C138.906 48.16 138.682 48.88 138.234 49.488C137.786 50.08 137.138 50.536 136.29 50.856C135.442 51.176 134.418 51.336 133.218 51.336ZM149.308 51L145.732 35.16H149.5L151.852 48.048H152.116L154.9 35.16H159.292L162.076 48.048H162.364L164.716 35.16H168.292L164.668 51H159.844L157.156 38.112H156.94L154.252 51H149.308ZM175.706 51.336C174.666 51.336 173.738 51.192 172.922 50.904C172.122 50.616 171.442 50.2 170.882 49.656C170.322 49.112 169.89 48.44 169.586 47.64C169.298 46.84 169.154 45.936 169.154 44.928C169.154 43.936 169.29 43.024 169.562 42.192C169.85 41.344 170.266 40.616 170.81 40.008C171.354 39.384 172.018 38.904 172.802 38.568C173.586 38.232 174.474 38.064 175.466 38.064C176.426 38.064 177.282 38.224 178.034 38.544C178.786 38.848 179.41 39.312 179.906 39.936C180.418 40.56 180.786 41.328 181.01 42.24C181.25 43.136 181.338 44.168 181.274 45.336L171.386 45.432V43.536L179.282 43.464L178.058 44.424C178.17 43.576 178.114 42.88 177.89 42.336C177.666 41.792 177.338 41.392 176.906 41.136C176.49 40.88 176.026 40.752 175.514 40.752C174.906 40.752 174.37 40.912 173.906 41.232C173.442 41.552 173.082 42.024 172.826 42.648C172.57 43.256 172.442 43.992 172.442 44.856C172.442 46.216 172.738 47.216 173.33 47.856C173.938 48.496 174.73 48.816 175.706 48.816C176.154 48.816 176.53 48.76 176.834 48.648C177.154 48.52 177.41 48.36 177.602 48.168C177.81 47.976 177.97 47.76 178.082 47.52C178.21 47.28 178.314 47.04 178.394 46.8L181.394 47.448C181.25 48.04 181.034 48.576 180.746 49.056C180.474 49.52 180.106 49.928 179.642 50.28C179.178 50.616 178.618 50.872 177.962 51.048C177.322 51.24 176.57 51.336 175.706 51.336ZM191.918 46.536V43.824H195.542C196.694 43.824 197.558 43.592 198.134 43.128C198.71 42.648 198.998 41.864 198.998 40.776C198.998 39.816 198.726 39.088 198.182 38.592C197.654 38.08 196.83 37.824 195.71 37.824H191.918V35.16H195.806C196.83 35.16 197.75 35.28 198.566 35.52C199.398 35.76 200.102 36.12 200.678 36.6C201.27 37.064 201.718 37.656 202.022 38.376C202.326 39.08 202.478 39.912 202.478 40.872C202.478 42.104 202.198 43.144 201.638 43.992C201.078 44.824 200.246 45.456 199.142 45.888C198.054 46.32 196.694 46.536 195.062 46.536H191.918ZM189.494 51V35.16H192.95V51H189.494ZM204.725 51V44.904V38.4H207.581L207.605 42.696H208.061C208.189 41.624 208.405 40.752 208.709 40.08C209.029 39.408 209.469 38.912 210.029 38.592C210.589 38.272 211.285 38.112 212.117 38.112C212.261 38.112 212.413 38.12 212.573 38.136C212.749 38.136 212.949 38.16 213.173 38.208L213.029 41.88C212.789 41.768 212.525 41.688 212.237 41.64C211.949 41.592 211.693 41.568 211.469 41.568C210.845 41.568 210.309 41.712 209.861 42C209.413 42.288 209.045 42.704 208.757 43.248C208.485 43.776 208.301 44.424 208.205 45.192V51H204.725ZM220.796 51.336C219.532 51.336 218.42 51.088 217.46 50.592C216.5 50.08 215.748 49.336 215.204 48.36C214.66 47.368 214.388 46.136 214.388 44.664C214.388 43.192 214.66 41.968 215.204 40.992C215.764 40.016 216.524 39.288 217.484 38.808C218.46 38.312 219.564 38.064 220.796 38.064C222.06 38.064 223.172 38.312 224.132 38.808C225.108 39.304 225.868 40.048 226.412 41.04C226.972 42.016 227.252 43.24 227.252 44.712C227.252 46.2 226.964 47.44 226.388 48.432C225.828 49.408 225.06 50.136 224.084 50.616C223.124 51.096 222.028 51.336 220.796 51.336ZM220.916 48.768C221.54 48.768 222.06 48.624 222.476 48.336C222.908 48.048 223.228 47.616 223.436 47.04C223.66 46.448 223.772 45.736 223.772 44.904C223.772 44.024 223.652 43.28 223.412 42.672C223.188 42.048 222.852 41.576 222.404 41.256C221.956 40.92 221.388 40.752 220.7 40.752C220.108 40.752 219.596 40.896 219.164 41.184C218.732 41.456 218.404 41.888 218.18 42.48C217.956 43.056 217.844 43.768 217.844 44.616C217.844 45.976 218.116 47.008 218.66 47.712C219.204 48.416 219.956 48.768 220.916 48.768ZM232.355 51L228.155 38.424H231.971L234.635 48.264H235.019L237.683 38.424H241.355L237.131 51H232.355ZM243.209 51V38.4H246.665V51H243.209ZM244.961 36.504C244.289 36.504 243.769 36.368 243.401 36.096C243.049 35.808 242.873 35.392 242.873 34.848C242.873 34.288 243.049 33.864 243.401 33.576C243.769 33.288 244.289 33.144 244.961 33.144C245.649 33.144 246.169 33.288 246.521 33.576C246.889 33.864 247.073 34.288 247.073 34.848C247.073 35.376 246.889 35.784 246.521 36.072C246.169 36.36 245.649 36.504 244.961 36.504ZM254.449 51.336C253.393 51.336 252.465 51.064 251.665 50.52C250.881 49.976 250.273 49.208 249.841 48.216C249.409 47.224 249.193 46.048 249.193 44.688C249.193 43.408 249.385 42.272 249.769 41.28C250.153 40.288 250.721 39.512 251.473 38.952C252.225 38.392 253.161 38.112 254.281 38.112C255.097 38.112 255.785 38.264 256.345 38.568C256.905 38.872 257.361 39.32 257.713 39.912C258.081 40.488 258.369 41.184 258.577 42H259.129C259.017 41.488 258.913 40.992 258.817 40.512C258.737 40.016 258.673 39.544 258.625 39.096C258.577 38.648 258.553 38.256 258.553 37.92V33.84H262.009V44.808V51H259.129V47.352H258.649C258.473 48.248 258.201 48.992 257.833 49.584C257.465 50.176 256.993 50.616 256.417 50.904C255.857 51.192 255.201 51.336 254.449 51.336ZM255.601 48.504C256.129 48.504 256.577 48.392 256.945 48.168C257.313 47.944 257.617 47.656 257.857 47.304C258.097 46.936 258.273 46.544 258.385 46.128C258.497 45.696 258.553 45.296 258.553 44.928V44.472C258.553 44.168 258.505 43.856 258.409 43.536C258.329 43.2 258.209 42.872 258.049 42.552C257.889 42.232 257.689 41.952 257.449 41.712C257.209 41.456 256.929 41.256 256.609 41.112C256.289 40.968 255.937 40.896 255.553 40.896C254.977 40.896 254.489 41.056 254.089 41.376C253.689 41.696 253.377 42.144 253.153 42.72C252.929 43.28 252.817 43.936 252.817 44.688C252.817 45.456 252.929 46.128 253.153 46.704C253.393 47.28 253.721 47.728 254.137 48.048C254.553 48.352 255.041 48.504 255.601 48.504ZM271.049 51.336C270.009 51.336 269.081 51.192 268.265 50.904C267.465 50.616 266.785 50.2 266.225 49.656C265.665 49.112 265.233 48.44 264.929 47.64C264.641 46.84 264.497 45.936 264.497 44.928C264.497 43.936 264.633 43.024 264.905 42.192C265.193 41.344 265.609 40.616 266.153 40.008C266.697 39.384 267.361 38.904 268.145 38.568C268.929 38.232 269.817 38.064 270.809 38.064C271.769 38.064 272.625 38.224 273.377 38.544C274.129 38.848 274.753 39.312 275.249 39.936C275.761 40.56 276.129 41.328 276.353 42.24C276.593 43.136 276.681 44.168 276.617 45.336L266.729 45.432V43.536L274.625 43.464L273.401 44.424C273.513 43.576 273.457 42.88 273.233 42.336C273.009 41.792 272.681 41.392 272.249 41.136C271.833 40.88 271.369 40.752 270.857 40.752C270.249 40.752 269.713 40.912 269.249 41.232C268.785 41.552 268.425 42.024 268.169 42.648C267.913 43.256 267.785 43.992 267.785 44.856C267.785 46.216 268.081 47.216 268.673 47.856C269.281 48.496 270.073 48.816 271.049 48.816C271.497 48.816 271.873 48.76 272.177 48.648C272.497 48.52 272.753 48.36 272.945 48.168C273.153 47.976 273.313 47.76 273.425 47.52C273.553 47.28 273.657 47.04 273.737 46.8L276.737 47.448C276.593 48.04 276.377 48.576 276.089 49.056C275.817 49.52 275.449 49.928 274.985 50.28C274.521 50.616 273.961 50.872 273.305 51.048C272.665 51.24 271.913 51.336 271.049 51.336ZM280.67 50.928C279.918 50.928 279.35 50.768 278.966 50.448C278.598 50.128 278.414 49.632 278.414 48.96C278.414 48.272 278.598 47.768 278.966 47.448C279.35 47.128 279.918 46.968 280.67 46.968C281.438 46.968 282.006 47.128 282.374 47.448C282.758 47.768 282.95 48.272 282.95 48.96C282.95 50.272 282.19 50.928 280.67 50.928ZM280.67 42.6C279.918 42.6 279.35 42.44 278.966 42.12C278.598 41.8 278.414 41.304 278.414 40.632C278.414 39.944 278.598 39.44 278.966 39.12C279.35 38.8 279.918 38.64 280.67 38.64C281.438 38.64 282.006 38.8 282.374 39.12C282.758 39.44 282.95 39.944 282.95 40.632C282.95 41.944 282.19 42.6 280.67 42.6Z" fill="white"/>
<path opacity="0.8" d="M46.304 90.152C45.5147 90.856 44.496 91.208 43.248 91.208C42 91.208 40.9813 90.856 40.192 90.152C39.4027 89.4373 39.008 88.4827 39.008 87.288V79.8H40.848V87.176C40.848 87.8587 41.0453 88.4027 41.44 88.808C41.8453 89.2133 42.448 89.416 43.248 89.416C44.048 89.416 44.6453 89.2133 45.04 88.808C45.4453 88.4027 45.648 87.8587 45.648 87.176V79.8H47.488V87.288C47.488 88.4827 47.0933 89.4373 46.304 90.152ZM57.6881 91H55.5921L53.1281 86.952L50.6641 91H48.5681L52.0881 85.24L48.7761 79.8H50.8561L53.1281 83.528L55.4001 79.8H57.4961L54.1841 85.24L57.6881 91ZM59.3619 92.6H58.4819L64.8819 78.2H65.7619L59.3619 92.6ZM74.6321 90.152C73.8428 90.856 72.8241 91.208 71.5761 91.208C70.3281 91.208 69.3095 90.856 68.5201 90.152C67.7308 89.4373 67.3361 88.4827 67.3361 87.288V79.8H69.1761V87.176C69.1761 87.8587 69.3735 88.4027 69.7681 88.808C70.1735 89.2133 70.7761 89.416 71.5761 89.416C72.3761 89.416 72.9735 89.2133 73.3681 88.808C73.7735 88.4027 73.9761 87.8587 73.9761 87.176V79.8H75.8161V87.288C75.8161 88.4827 75.4215 89.4373 74.6321 90.152ZM77.9325 79.8H79.7725V91H77.9325V79.8ZM90.4106 79.8C91.9466 79.8 93.2213 80.3387 94.2346 81.416C95.2586 82.4933 95.7706 83.8213 95.7706 85.4C95.7706 86.968 95.2586 88.296 94.2346 89.384C93.2213 90.4613 91.9466 91 90.4106 91H86.0106V79.8H90.4106ZM90.4106 89.24C91.4666 89.24 92.3253 88.8773 92.9866 88.152C93.6586 87.4267 93.9946 86.5093 93.9946 85.4C93.9946 84.28 93.6586 83.3627 92.9866 82.648C92.3253 81.9227 91.4666 81.56 90.4106 81.56H87.8506V89.24H90.4106ZM98.6961 87.736C98.8241 88.344 99.1175 88.8133 99.5761 89.144C100.035 89.464 100.595 89.624 101.256 89.624C102.173 89.624 102.861 89.2933 103.32 88.632L104.744 89.464C103.955 90.6267 102.787 91.208 101.24 91.208C99.9388 91.208 98.8881 90.8133 98.0881 90.024C97.2881 89.224 96.8881 88.216 96.8881 87C96.8881 85.8053 97.2828 84.808 98.0721 84.008C98.8615 83.1973 99.8748 82.792 101.112 82.792C102.285 82.792 103.245 83.2027 103.992 84.024C104.749 84.8453 105.128 85.8427 105.128 87.016C105.128 87.1973 105.107 87.4373 105.064 87.736H98.6961ZM98.6801 86.328H103.384C103.267 85.6773 102.995 85.1867 102.568 84.856C102.152 84.5253 101.661 84.36 101.096 84.36C100.456 84.36 99.9228 84.536 99.4961 84.888C99.0695 85.24 98.7975 85.72 98.6801 86.328ZM107.888 85.208C107.888 85.4747 108.032 85.688 108.32 85.848C108.619 85.9973 108.976 86.1307 109.392 86.248C109.819 86.3547 110.245 86.4827 110.672 86.632C111.099 86.7813 111.456 87.0373 111.744 87.4C112.043 87.752 112.192 88.2 112.192 88.744C112.192 89.512 111.893 90.1147 111.296 90.552C110.709 90.9893 109.968 91.208 109.072 91.208C108.283 91.208 107.605 91.0427 107.04 90.712C106.475 90.3813 106.064 89.9227 105.808 89.336L107.296 88.472C107.573 89.24 108.165 89.624 109.072 89.624C109.979 89.624 110.432 89.3253 110.432 88.728C110.432 88.472 110.283 88.264 109.984 88.104C109.696 87.944 109.339 87.8107 108.912 87.704C108.496 87.5867 108.075 87.4533 107.648 87.304C107.221 87.1547 106.859 86.9093 106.56 86.568C106.272 86.216 106.128 85.7733 106.128 85.24C106.128 84.504 106.405 83.912 106.96 83.464C107.525 83.016 108.224 82.792 109.056 82.792C109.717 82.792 110.304 82.9413 110.816 83.24C111.339 83.528 111.739 83.9333 112.016 84.456L110.56 85.272C110.283 84.664 109.781 84.36 109.056 84.36C108.725 84.36 108.448 84.4347 108.224 84.584C108 84.7227 107.888 84.9307 107.888 85.208ZM115.249 81.48C115.036 81.6933 114.78 81.8 114.481 81.8C114.183 81.8 113.921 81.6933 113.697 81.48C113.484 81.256 113.377 80.9947 113.377 80.696C113.377 80.3973 113.484 80.1413 113.697 79.928C113.911 79.704 114.172 79.592 114.481 79.592C114.791 79.592 115.052 79.704 115.265 79.928C115.479 80.1413 115.585 80.3973 115.585 80.696C115.585 80.9947 115.473 81.256 115.249 81.48ZM113.617 91V83H115.345V91H113.617ZM123.72 83H125.416V90.632C125.416 91.848 125.016 92.7813 124.216 93.432C123.416 94.0827 122.445 94.408 121.304 94.408C119.458 94.408 118.194 93.7627 117.512 92.472L119 91.608C119.416 92.4293 120.194 92.84 121.336 92.84C122.082 92.84 122.664 92.6427 123.08 92.248C123.506 91.864 123.72 91.3253 123.72 90.632V89.656C123.069 90.584 122.141 91.048 120.936 91.048C119.805 91.048 118.85 90.648 118.072 89.848C117.293 89.0373 116.904 88.0613 116.904 86.92C116.904 85.7787 117.293 84.808 118.072 84.008C118.85 83.1973 119.805 82.792 120.936 82.792C122.141 82.792 123.069 83.256 123.72 84.184V83ZM119.352 88.712C119.842 89.192 120.45 89.432 121.176 89.432C121.901 89.432 122.504 89.192 122.984 88.712C123.474 88.232 123.72 87.6347 123.72 86.92C123.72 86.2053 123.474 85.608 122.984 85.128C122.504 84.648 121.901 84.408 121.176 84.408C120.45 84.408 119.842 84.648 119.352 85.128C118.872 85.608 118.632 86.2053 118.632 86.92C118.632 87.6347 118.872 88.232 119.352 88.712ZM131.638 82.792C132.555 82.792 133.297 83.0853 133.862 83.672C134.427 84.2587 134.71 85.064 134.71 86.088V91H132.982V86.264C132.982 85.6667 132.822 85.208 132.502 84.888C132.182 84.568 131.745 84.408 131.19 84.408C130.582 84.408 130.091 84.6 129.718 84.984C129.345 85.3573 129.158 85.9333 129.158 86.712V91H127.43V83H129.158V84.024C129.681 83.2027 130.507 82.792 131.638 82.792Z" fill="white"/>
<path opacity="0.8" d="M172.488 91L169.32 79.8H171.256L173.608 88.552L176.152 79.8H177.848L180.376 88.552L182.728 79.8H184.664L181.496 91H179.368L177 82.824L174.616 91H172.488ZM186.399 87.736C186.527 88.344 186.821 88.8133 187.279 89.144C187.738 89.464 188.298 89.624 188.959 89.624C189.877 89.624 190.565 89.2933 191.023 88.632L192.447 89.464C191.658 90.6267 190.49 91.208 188.943 91.208C187.642 91.208 186.591 90.8133 185.791 90.024C184.991 89.224 184.591 88.216 184.591 87C184.591 85.8053 184.986 84.808 185.775 84.008C186.565 83.1973 187.578 82.792 188.815 82.792C189.989 82.792 190.949 83.2027 191.695 84.024C192.453 84.8453 192.831 85.8427 192.831 87.016C192.831 87.1973 192.81 87.4373 192.767 87.736H186.399ZM186.383 86.328H191.087C190.97 85.6773 190.698 85.1867 190.271 84.856C189.855 84.5253 189.365 84.36 188.799 84.36C188.159 84.36 187.626 84.536 187.199 84.888C186.773 85.24 186.501 85.72 186.383 86.328ZM198.88 82.792C199.978 82.792 200.917 83.1973 201.696 84.008C202.474 84.8187 202.864 85.816 202.864 87C202.864 88.1733 202.474 89.1707 201.696 89.992C200.917 90.8027 199.978 91.208 198.88 91.208C197.664 91.208 196.73 90.7547 196.08 89.848V91H194.352V79.8H196.08V84.136C196.73 83.24 197.664 82.792 198.88 82.792ZM196.8 88.84C197.28 89.32 197.882 89.56 198.608 89.56C199.333 89.56 199.936 89.32 200.416 88.84C200.896 88.3493 201.136 87.736 201.136 87C201.136 86.264 200.896 85.656 200.416 85.176C199.936 84.6853 199.333 84.44 198.608 84.44C197.882 84.44 197.28 84.6853 196.8 85.176C196.32 85.656 196.08 86.264 196.08 87C196.08 87.736 196.32 88.3493 196.8 88.84ZM212.942 79.8C214.478 79.8 215.753 80.3387 216.766 81.416C217.79 82.4933 218.302 83.8213 218.302 85.4C218.302 86.968 217.79 88.296 216.766 89.384C215.753 90.4613 214.478 91 212.942 91H208.542V79.8H212.942ZM212.942 89.24C213.998 89.24 214.857 88.8773 215.518 88.152C216.19 87.4267 216.526 86.5093 216.526 85.4C216.526 84.28 216.19 83.3627 215.518 82.648C214.857 81.9227 213.998 81.56 212.942 81.56H210.382V89.24H212.942ZM221.227 87.736C221.355 88.344 221.649 88.8133 222.107 89.144C222.566 89.464 223.126 89.624 223.787 89.624C224.705 89.624 225.393 89.2933 225.851 88.632L227.275 89.464C226.486 90.6267 225.318 91.208 223.771 91.208C222.47 91.208 221.419 90.8133 220.619 90.024C219.819 89.224 219.419 88.216 219.419 87C219.419 85.8053 219.814 84.808 220.603 84.008C221.393 83.1973 222.406 82.792 223.643 82.792C224.817 82.792 225.777 83.2027 226.523 84.024C227.281 84.8453 227.659 85.8427 227.659 87.016C227.659 87.1973 227.638 87.4373 227.595 87.736H221.227ZM221.211 86.328H225.915C225.798 85.6773 225.526 85.1867 225.099 84.856C224.683 84.5253 224.193 84.36 223.627 84.36C222.987 84.36 222.454 84.536 222.027 84.888C221.601 85.24 221.329 85.72 221.211 86.328ZM234.291 83H236.179L233.059 91H231.059L227.939 83H229.827L232.067 89.08L234.291 83ZM238.321 87.736C238.449 88.344 238.742 88.8133 239.201 89.144C239.66 89.464 240.22 89.624 240.881 89.624C241.798 89.624 242.486 89.2933 242.945 88.632L244.369 89.464C243.58 90.6267 242.412 91.208 240.865 91.208C239.564 91.208 238.513 90.8133 237.713 90.024C236.913 89.224 236.513 88.216 236.513 87C236.513 85.8053 236.908 84.808 237.697 84.008C238.486 83.1973 239.5 82.792 240.737 82.792C241.91 82.792 242.87 83.2027 243.617 84.024C244.374 84.8453 244.753 85.8427 244.753 87.016C244.753 87.1973 244.732 87.4373 244.689 87.736H238.321ZM238.305 86.328H243.009C242.892 85.6773 242.62 85.1867 242.193 84.856C241.777 84.5253 241.286 84.36 240.721 84.36C240.081 84.36 239.548 84.536 239.121 84.888C238.694 85.24 238.422 85.72 238.305 86.328ZM246.274 91V79.32H248.002V91H246.274ZM253.784 91.208C252.611 91.208 251.613 90.8027 250.792 89.992C249.971 89.1813 249.56 88.184 249.56 87C249.56 85.816 249.971 84.8187 250.792 84.008C251.613 83.1973 252.611 82.792 253.784 82.792C254.968 82.792 255.965 83.1973 256.776 84.008C257.597 84.8187 258.008 85.816 258.008 87C258.008 88.184 257.597 89.1813 256.776 89.992C255.965 90.8027 254.968 91.208 253.784 91.208ZM252.008 88.808C252.488 89.288 253.08 89.528 253.784 89.528C254.488 89.528 255.08 89.288 255.56 88.808C256.04 88.328 256.28 87.7253 256.28 87C256.28 86.2747 256.04 85.672 255.56 85.192C255.08 84.712 254.488 84.472 253.784 84.472C253.08 84.472 252.488 84.712 252.008 85.192C251.528 85.672 251.288 86.2747 251.288 87C251.288 87.7253 251.528 88.328 252.008 88.808ZM264.099 82.792C265.197 82.792 266.136 83.2027 266.915 84.024C267.693 84.8347 268.083 85.8267 268.083 87C268.083 88.184 267.693 89.1813 266.915 89.992C266.136 90.8027 265.197 91.208 264.099 91.208C262.883 91.208 261.949 90.76 261.299 89.864V94.2H259.571V83H261.299V84.152C261.949 83.2453 262.883 82.792 264.099 82.792ZM262.019 88.84C262.499 89.32 263.101 89.56 263.827 89.56C264.552 89.56 265.155 89.32 265.635 88.84C266.115 88.3493 266.355 87.736 266.355 87C266.355 86.264 266.115 85.656 265.635 85.176C265.155 84.6853 264.552 84.44 263.827 84.44C263.101 84.44 262.499 84.6853 262.019 85.176C261.539 85.656 261.299 86.264 261.299 87C261.299 87.736 261.539 88.3493 262.019 88.84ZM278.385 82.792C279.291 82.792 280.022 83.0853 280.577 83.672C281.131 84.2587 281.409 85.048 281.409 86.04V91H279.681V86.152C279.681 85.5973 279.542 85.1707 279.265 84.872C278.987 84.5627 278.609 84.408 278.129 84.408C277.595 84.408 277.169 84.584 276.849 84.936C276.539 85.288 276.385 85.816 276.385 86.52V91H274.657V86.152C274.657 85.5973 274.523 85.1707 274.257 84.872C274.001 84.5627 273.633 84.408 273.153 84.408C272.63 84.408 272.203 84.5893 271.873 84.952C271.542 85.304 271.377 85.8267 271.377 86.52V91H269.649V83H271.377V83.96C271.889 83.1813 272.651 82.792 273.665 82.792C274.689 82.792 275.446 83.2133 275.937 84.056C276.47 83.2133 277.286 82.792 278.385 82.792ZM284.618 87.736C284.746 88.344 285.039 88.8133 285.498 89.144C285.957 89.464 286.517 89.624 287.178 89.624C288.095 89.624 288.783 89.2933 289.242 88.632L290.666 89.464C289.877 90.6267 288.709 91.208 287.162 91.208C285.861 91.208 284.81 90.8133 284.01 90.024C283.21 89.224 282.81 88.216 282.81 87C282.81 85.8053 283.205 84.808 283.994 84.008C284.783 83.1973 285.797 82.792 287.034 82.792C288.207 82.792 289.167 83.2027 289.914 84.024C290.671 84.8453 291.05 85.8427 291.05 87.016C291.05 87.1973 291.029 87.4373 290.986 87.736H284.618ZM284.602 86.328H289.306C289.189 85.6773 288.917 85.1867 288.49 84.856C288.074 84.5253 287.583 84.36 287.018 84.36C286.378 84.36 285.845 84.536 285.418 84.888C284.991 85.24 284.719 85.72 284.602 86.328ZM296.779 82.792C297.696 82.792 298.437 83.0853 299.003 83.672C299.568 84.2587 299.851 85.064 299.851 86.088V91H298.123V86.264C298.123 85.6667 297.963 85.208 297.643 84.888C297.323 84.568 296.885 84.408 296.331 84.408C295.723 84.408 295.232 84.6 294.859 84.984C294.485 85.3573 294.299 85.9333 294.299 86.712V91H292.571V83H294.299V84.024C294.821 83.2027 295.648 82.792 296.779 82.792ZM306.175 84.664H304.191V88.504C304.191 88.8347 304.266 89.0747 304.415 89.224C304.564 89.3627 304.783 89.4427 305.071 89.464C305.37 89.4747 305.738 89.4693 306.175 89.448V91C304.852 91.16 303.903 91.048 303.327 90.664C302.751 90.2693 302.463 89.5493 302.463 88.504V84.664H300.991V83H302.463V81.272L304.191 80.76V83H306.175V84.664Z" fill="white"/>
</svg>
