<svg width="1141" height="37" viewBox="0 0 1141 37" fill="none" xmlns="http://www.w3.org/2000/svg">
<g opacity="0.5">
<path d="M0 18.3849H1141" stroke="#CB73FE" stroke-width="3" stroke-dasharray="6 6"/>
<g clip-path="url(#clip0_83_4399)">
<path d="M569.75 36.3849C579.691 36.3849 587.75 28.326 587.75 18.3849C587.75 8.44376 579.691 0.384888 569.75 0.384888C559.809 0.384888 551.75 8.44376 551.75 18.3849C551.75 28.326 559.809 36.3849 569.75 36.3849Z" fill="#CB73FE"/>
<path d="M578.706 14.674C580.731 10.2831 577.849 7.40307 573.458 9.42564C571.785 4.88839 567.708 4.88839 566.036 9.42564C561.645 7.40041 558.765 10.2831 560.788 14.674C556.25 16.3463 556.25 20.4234 560.788 22.0957C558.762 26.4866 561.645 29.3666 566.036 27.3441C567.708 31.8813 571.785 31.8813 573.458 27.3441C577.849 29.3693 580.729 26.4866 578.706 22.0957C583.247 20.4243 583.247 16.3454 578.706 14.674Z" fill="#FEF4F1"/>
</g>
</g>
<defs>
<clipPath id="clip0_83_4399">
<rect width="36" height="36" fill="white" transform="translate(551.75 0.384888)"/>
</clipPath>
</defs>
</svg>
