<svg width="138" height="32" viewBox="0 0 138 32" fill="none" xmlns="http://www.w3.org/2000/svg">
<path d="M31.7354 16.5561L29.5666 14.339L27.5564 12.284L24.7129 9.37714L28.0068 19.9531L31.7354 16.5561L28.0068 19.9531L31.7297 31.9057L36.858 21.7925L31.7354 16.5561Z" fill="url(#paint0_linear_178_21447)"/>
<path d="M46.6542 9.2229H52.2107L48.7596 31.0134H43.2031L46.6542 9.2229Z" fill="white"/>
<path d="M75.9242 20.3762C75.8297 20.9716 75.6957 21.5669 75.4823 22.1623H58.3357C58.3516 23.3134 58.7898 24.3052 59.7232 25.1787C60.617 26.0523 61.8178 26.4884 63.4057 26.4884C64.5964 26.4884 65.7244 26.1309 66.784 25.4562C67.7577 24.8212 68.7149 23.7891 68.9701 23.4323L73.103 26.4091C72.6389 27.0838 70.9587 28.6716 68.9506 29.8227C66.8907 31.0531 64.7716 31.6484 62.5891 31.6484C60.4065 31.6484 58.5095 31.0927 56.9728 30.0209C55.4361 28.9491 54.2273 27.5602 53.5051 25.8534C52.7829 24.1466 52.5501 22.3605 52.8643 20.3762C53.0092 19.4637 53.2723 18.5505 53.6154 17.6373C54.6735 15.2162 56.35 13.1526 58.7113 11.5251C60.9933 9.89755 63.4605 9.10397 66.1598 9.10397C72.2323 9.10397 76.9304 14.0254 75.9242 20.3762ZM59.4818 17.439H70.0001C69.2216 15.3351 67.6453 14.264 65.3431 14.264C63.9542 14.264 62.7527 14.5819 61.6996 15.2169C60.6401 15.8915 59.8919 16.6058 59.4818 17.4398V17.439Z" fill="white"/>
<path d="M114.147 20.3762C114.147 20.9716 114.107 21.5669 113.988 22.1623H96.8416C97.0398 23.3134 97.6352 24.3052 98.707 25.1787C99.7391 26.0523 101.009 26.4884 102.596 26.4884C103.787 26.4884 104.859 26.1309 105.811 25.4562C106.684 24.8212 107.478 23.7891 107.676 23.4323L112.281 26.4091C111.923 27.0838 110.495 28.6716 108.669 29.8227C106.803 31.0531 104.78 31.6484 102.596 31.6484C100.413 31.6484 98.4287 31.0927 96.7219 30.0209C95.0151 28.9491 93.5866 27.5602 92.5941 25.8534C91.6015 24.1466 91.0862 22.3605 91.0862 20.3762C91.0862 19.4637 91.2051 18.5505 91.4033 17.6372C92.078 15.2162 93.4273 13.1526 95.5312 11.5251C97.5552 9.89754 99.897 9.10397 102.596 9.10397C108.669 9.10397 114.146 14.0254 114.146 20.3762H114.147ZM97.2387 17.439H107.757C106.646 15.3351 104.899 14.264 102.597 14.264C101.208 14.264 100.057 14.5819 99.1041 15.2169C98.1512 15.8915 97.5162 16.6058 97.2387 17.4398V17.439Z" fill="white"/>
<path d="M138 9.2229C134.111 13.0733 131.451 15.6529 129.268 17.8355C131.491 21.4869 134.11 25.7337 137.285 31.0127H131.094L125.418 21.6455L121.806 25.2177V31.0127H116.25V0.0942535H121.767V2.91249L121.806 18.3919C123.711 16.5662 127.125 13.1526 131.054 9.22362H138V9.2229Z" fill="white"/>
<path d="M0 31.017L3.32206 12.1781L9.77518 7.28401L10.0426 7.05696L10.2747 7.32797L10.3223 7.38419L10.3021 7.52763L9.20504 13.7494H21.4424L17.1595 19.1891H8.24641L7.11984 25.5766H20.4758L23.1679 31.0531L0 31.017Z" fill="white"/>
<path d="M30.7951 1.85078L26.4899 7.32797H9.86809L9.80755 7.25661L9.78881 7.23355L4.58984 1.85078H30.7951Z" fill="white"/>
<path d="M70.3262 1.85007L71.6791 3.24982L75.2621 6.96038L75.5259 7.23284L75.5432 7.25879L75.6066 7.32654H80.9245V31.2527H86.6813V7.32654H92.6213L92.911 6.96038L95.57 3.57778L96.9279 1.85007H70.3262Z" fill="white"/>
<path d="M46.2201 3.33344L36.8579 21.7925L31.7354 16.5561L46.2201 3.33344Z" fill="white"/>
<defs>
<linearGradient id="paint0_linear_178_21447" x1="36.2504" y1="30.4202" x2="25.5367" y2="10.8677" gradientUnits="userSpaceOnUse">
<stop stop-color="#D376FF"/>
<stop offset="1" stop-color="#5A50FF"/>
</linearGradient>
</defs>
</svg>
