<svg width="284" height="217" viewBox="0 0 284 217" fill="none" xmlns="http://www.w3.org/2000/svg">
<path d="M227.627 64.1836H227.564L191.738 79.4814L142.721 100.412C142.53 100.493 142.324 100.535 142.116 100.536C141.908 100.537 141.702 100.497 141.51 100.418L90.9388 79.4377L54.2327 64.2086L54.1767 64.1836H54.1142C53.535 64.1842 52.9798 64.4146 52.5702 64.8241C52.1607 65.2337 51.9303 65.7889 51.9297 66.3681L51.9297 161.238C51.9303 161.817 52.1607 162.373 52.5702 162.782C52.9798 163.192 53.535 163.422 54.1142 163.423H227.627C228.206 163.422 228.761 163.192 229.171 162.782C229.58 162.373 229.811 161.817 229.811 161.238V66.3681C229.811 65.7889 229.58 65.2337 229.171 64.8241C228.761 64.4146 228.206 64.1842 227.627 64.1836Z" fill="white"/>
<path d="M227.786 64.805C227.722 64.8051 227.66 64.7855 227.607 64.7491L141.301 4.64276C141.038 4.46069 140.726 4.36339 140.407 4.36394C140.087 4.36448 139.775 4.46284 139.513 4.6458L53.8283 64.7485C53.7605 64.7957 53.6768 64.8141 53.5955 64.7996C53.5142 64.7852 53.4419 64.7391 53.3945 64.6715C53.347 64.6039 53.3284 64.5203 53.3425 64.4389C53.3566 64.3575 53.4024 64.2851 53.4698 64.2374L139.155 4.13474C139.522 3.87864 139.958 3.74097 140.406 3.74024C140.853 3.7395 141.29 3.87574 141.658 4.13063L227.964 64.2368C228.019 64.2748 228.06 64.3292 228.081 64.3921C228.103 64.455 228.103 64.5231 228.083 64.5865C228.063 64.6499 228.024 64.7053 227.97 64.7446C227.917 64.7839 227.852 64.8051 227.786 64.805Z" fill="#3F80FD"/>
<path d="M58.7256 66.9382L140.492 6.33887L222.88 71.2499L144.705 117.592L102.263 107.919L58.7256 66.9382Z" fill="#A3C3FF"/>
<path d="M105.846 146.215H65.4515C64.951 146.216 64.4707 146.017 64.1162 145.664C63.7618 145.311 63.5623 144.831 63.5615 144.33C63.5608 143.83 63.7589 143.35 64.1123 142.995C64.4657 142.641 64.9454 142.441 65.446 142.44H105.846C106.347 142.44 106.827 142.638 107.182 142.991C107.536 143.345 107.736 143.824 107.736 144.325C107.737 144.825 107.539 145.306 107.186 145.66C106.832 146.015 106.352 146.214 105.852 146.215H105.846Z" fill="#3395FF"/>
<path d="M79.944 138.101H65.4512C64.9509 138.101 64.4709 137.903 64.1168 137.549C63.7626 137.196 63.5632 136.716 63.5625 136.216C63.5618 135.716 63.7597 135.236 64.1128 134.881C64.4659 134.527 64.9453 134.327 65.4456 134.326H79.944C80.1919 134.326 80.4375 134.374 80.6668 134.468C80.896 134.563 81.1044 134.701 81.2801 134.876C81.4557 135.051 81.5952 135.259 81.6904 135.488C81.7857 135.717 81.8349 135.963 81.8353 136.211C81.8356 136.459 81.7871 136.704 81.6926 136.933C81.598 137.163 81.4591 137.371 81.284 137.546C81.1089 137.722 80.9009 137.861 80.672 137.956C80.443 138.051 80.1975 138.1 79.9496 138.101H79.944Z" fill="#3395FF"/>
<path d="M141.642 100.691C141.335 100.691 141.031 100.632 140.746 100.516L90.3184 79.5916L90.3184 14.0956C90.319 13.5165 90.5494 12.9612 90.9589 12.5517C91.3685 12.1422 91.9237 11.9118 92.5029 11.9111L189.245 11.9111C189.825 11.9118 190.38 12.1422 190.789 12.5517C191.199 12.9612 191.429 13.5165 191.43 14.0956V79.6374L191.335 79.6779L142.564 100.506C142.272 100.628 141.959 100.691 141.642 100.691Z" fill="white"/>
<path d="M141.643 100.847C141.315 100.847 140.991 100.784 140.688 100.66L90.1631 79.6957L90.1631 14.0954C90.1638 13.4749 90.4106 12.88 90.8494 12.4412C91.2882 12.0024 91.8831 11.7556 92.5036 11.7549L189.246 11.7549C189.867 11.7556 190.462 12.0024 190.9 12.4412C191.339 12.88 191.586 13.4749 191.587 14.0954V79.7402L142.626 100.649C142.315 100.78 141.98 100.847 141.643 100.847ZM90.7872 79.2787L140.926 100.083C141.393 100.273 141.917 100.27 142.383 100.074L190.963 79.3281V14.0954C190.962 13.6404 190.781 13.2041 190.459 12.8824C190.138 12.5606 189.701 12.3796 189.246 12.3791L92.5036 12.3791C92.0486 12.3796 91.6123 12.5606 91.2906 12.8824C90.9688 13.2041 90.7878 13.6404 90.7872 14.0954L90.7872 79.2787Z" fill="#3F80FD"/>
<path d="M227.162 64.1836H227.099L191.273 79.4814L142.256 100.412C142.065 100.493 141.859 100.535 141.651 100.536C141.444 100.537 141.238 100.497 141.045 100.418L90.474 79.4377L53.7679 64.2086L53.7118 64.1836H53.6493C53.0702 64.1842 52.5149 64.4146 52.1054 64.8241C51.6959 65.2337 51.4655 65.7889 51.4648 66.3681L51.4648 161.238C51.4655 161.817 51.6959 162.373 52.1054 162.782C52.5149 163.192 53.0702 163.422 53.6493 163.423H227.162C227.741 163.422 228.296 163.192 228.706 162.782C229.115 162.373 229.346 161.817 229.346 161.238V66.3681C229.346 65.7889 229.115 65.2337 228.706 64.8241C228.296 64.4146 227.741 64.1842 227.162 64.1836ZM228.722 161.238C228.722 161.652 228.558 162.049 228.265 162.341C227.972 162.634 227.576 162.798 227.162 162.799H53.6493C53.2356 162.798 52.8388 162.634 52.5462 162.341C52.2536 162.049 52.0892 161.652 52.089 161.238L52.089 66.3681C52.0896 65.9646 52.2461 65.5769 52.5258 65.2861C52.8056 64.9953 53.1869 64.8239 53.5901 64.8077L90.474 80.1118L140.805 100.996C141.35 101.217 141.96 101.214 142.503 100.986L191.273 80.1586L227.224 64.8077C227.627 64.8251 228.007 64.997 228.286 65.2876C228.565 65.5783 228.721 65.9652 228.722 66.3681V161.238Z" fill="#3F80FD"/>
<path d="M133.789 36.3936L99.4608 36.3936C98.7993 36.3926 98.1652 36.1292 97.6978 35.6611C97.2303 35.193 96.9678 34.5585 96.9678 33.897C96.9678 33.2355 97.2303 32.601 97.6978 32.1329C98.1652 31.6648 98.7993 31.4013 99.4608 31.4004L133.789 31.4004C134.45 31.4013 135.084 31.6648 135.552 32.1329C136.019 32.601 136.282 33.2355 136.282 33.897C136.282 34.5585 136.019 35.193 135.552 35.6611C135.084 36.1292 134.45 36.3926 133.789 36.3936Z" fill="#3F80FD"/>
<path d="M116.003 25.7812H99.4634C98.8012 25.7812 98.1662 25.5182 97.698 25.05C97.2298 24.5818 96.9668 23.9468 96.9668 23.2847C96.9668 22.6225 97.2298 21.9875 97.698 21.5193C98.1662 21.0511 98.8012 20.7881 99.4634 20.7881L116.003 20.7881C116.665 20.7881 117.3 21.0511 117.769 21.5193C118.237 21.9875 118.5 22.6225 118.5 23.2847C118.5 23.9468 118.237 24.5818 117.769 25.05C117.3 25.5182 116.665 25.7812 116.003 25.7812Z" fill="#3F80FD"/>
<path d="M166.55 61.3604L114.122 61.3604C113.46 61.3594 112.826 61.096 112.359 60.6279C111.891 60.1598 111.629 59.5253 111.629 58.8638C111.629 58.2023 111.891 57.5678 112.359 57.0997C112.826 56.6316 113.46 56.3681 114.122 56.3672L166.55 56.3672C167.212 56.3681 167.846 56.6316 168.313 57.0997C168.781 57.5678 169.043 58.2023 169.043 58.8638C169.043 59.5253 168.781 60.1598 168.313 60.6279C167.846 61.096 167.212 61.3594 166.55 61.3604Z" fill="#3F80FD"/>
<path d="M166.549 72.9053H114.121C113.458 72.9053 112.823 72.6422 112.355 72.174C111.887 71.7058 111.624 71.0708 111.624 70.4087C111.624 69.7466 111.887 69.1115 112.355 68.6433C112.823 68.1751 113.458 67.9121 114.121 67.9121H166.549C167.211 67.9121 167.846 68.1751 168.314 68.6433C168.782 69.1115 169.045 69.7466 169.045 70.4087C169.045 71.0708 168.782 71.7058 168.314 72.174C167.846 72.6422 167.211 72.9053 166.549 72.9053Z" fill="#3F80FD"/>
<path d="M226.196 88.8252C239.307 88.8252 249.936 78.1968 249.936 65.0859C249.936 51.9751 239.307 41.3467 226.196 41.3467C213.085 41.3467 202.457 51.9751 202.457 65.0859C202.457 78.1968 213.085 88.8252 226.196 88.8252Z" fill="#3F80FD"/>
<path d="M221.742 74.6613L214.637 65.5252L218.769 62.3115L222.133 66.6372L233.498 54.6396L237.298 58.2403L221.742 74.6613Z" fill="white"/>
<path d="M5.44019 23.6931C5.27815 23.5973 5.0924 23.5491 4.90422 23.5541C4.71605 23.559 4.53306 23.6168 4.37625 23.721C4.21944 23.8251 4.09515 23.9713 4.01763 24.1428C3.9401 24.3144 3.91248 24.5043 3.93792 24.6908L4.71157 30.3653C4.72221 30.4489 4.7165 30.5339 4.69475 30.6154C4.67049 30.6956 4.63001 30.77 4.57582 30.8339L0.242671 35.9673C0.0979138 36.1325 0.01292 36.3416 0.00135774 36.561C-0.0102045 36.7804 0.0523428 36.9972 0.178928 37.1768L0.18347 37.1834C0.304734 37.3648 0.483223 37.5005 0.69052 37.5688C0.897817 37.6371 1.122 37.6341 1.32738 37.5602L4.45668 36.4981C4.56042 36.4637 4.67153 36.4583 4.77813 36.4823C4.88473 36.5063 4.98281 36.5588 5.06185 36.6342C5.12082 36.6888 5.16785 36.7551 5.19997 36.8288C5.23209 36.9024 5.2486 36.982 5.24848 37.0624L5.37079 48.212C5.37206 48.3734 5.41263 48.532 5.48895 48.6743C5.56527 48.8165 5.67507 48.938 5.80887 49.0283C5.94218 49.1184 6.09516 49.1751 6.25497 49.1937C6.41479 49.2123 6.57673 49.1923 6.72717 49.1352L30.0834 40.2028C30.2596 40.1358 30.4132 40.0205 30.5267 39.87C30.6401 39.7196 30.7088 39.5402 30.7249 39.3524C30.7409 39.1647 30.7037 38.9762 30.6174 38.8087C30.5311 38.6412 30.3992 38.5015 30.237 38.4055L29.9191 38.2167L5.44019 23.6931ZM4.33332 24.6363C4.3183 24.5243 4.33512 24.4103 4.38185 24.3074C4.42858 24.2046 4.50335 24.1169 4.59758 24.0545C4.69181 23.9922 4.80169 23.9576 4.91465 23.9548C5.02762 23.952 5.13909 23.981 5.23632 24.0386L29.7073 38.5578L30.0331 38.751C30.1299 38.8088 30.2085 38.8927 30.2599 38.993C30.3113 39.0934 30.3335 39.2061 30.324 39.3185C30.3145 39.4308 30.2736 39.5383 30.206 39.6285C30.1384 39.7187 30.0467 39.7882 29.9416 39.8289L6.58536 48.7613C6.49502 48.7957 6.39773 48.8077 6.30174 48.7964C6.20575 48.7851 6.11391 48.7508 6.03402 48.6964C5.95412 48.6421 5.88853 48.5692 5.84282 48.484C5.79712 48.3989 5.77265 48.3039 5.77149 48.2073L5.64921 37.0578C5.64928 36.9474 5.63033 36.8379 5.59319 36.734L29.372 39.4662C29.4647 39.4778 29.5586 39.4566 29.6374 39.4063C29.7161 39.356 29.7748 39.2798 29.8034 39.1908C29.8319 39.1018 29.8284 39.0056 29.7935 38.9189C29.7586 38.8322 29.6945 38.7605 29.6123 38.716C29.5924 38.7049 29.5714 38.6958 29.5497 38.6888L5.11414 30.5321C5.12007 30.4583 5.11766 30.384 5.10698 30.3107L4.33332 24.6363Z" fill="#3F80FD"/>
<path d="M5.44019 23.6931C5.27815 23.5973 5.0924 23.5491 4.90422 23.5541C4.71605 23.559 4.53306 23.6168 4.37625 23.721C4.21944 23.8251 4.09515 23.9713 4.01763 24.1428C3.9401 24.3144 3.91248 24.5043 3.93792 24.6908L4.71157 30.3653C4.72221 30.4489 4.7165 30.5339 4.69475 30.6154C4.67049 30.6956 4.63001 30.77 4.57582 30.8339L0.242671 35.9673C0.0979138 36.1325 0.01292 36.3416 0.00135774 36.561C-0.0102045 36.7804 0.0523428 36.9972 0.178928 37.1768L0.18347 37.1834C0.304734 37.3648 0.483223 37.5005 0.69052 37.5688C0.897817 37.6371 1.122 37.6341 1.32738 37.5602L4.45668 36.4981C4.56042 36.4637 4.67153 36.4583 4.77813 36.4823C4.88473 36.5063 4.98281 36.5588 5.06185 36.6342C5.12082 36.6888 5.16785 36.7551 5.19997 36.8288C5.23209 36.9024 5.2486 36.982 5.24848 37.0624L5.37079 48.212C5.37206 48.3734 5.41263 48.532 5.48895 48.6743C5.56527 48.8165 5.67507 48.938 5.80887 49.0283C5.94218 49.1184 6.09516 49.1751 6.25497 49.1937C6.41479 49.2123 6.57673 49.1923 6.72717 49.1352L30.0834 40.2028C30.2596 40.1358 30.4132 40.0205 30.5267 39.87C30.6401 39.7196 30.7088 39.5402 30.7249 39.3524C30.7409 39.1647 30.7037 38.9762 30.6174 38.8087C30.5311 38.6412 30.3992 38.5015 30.237 38.4055L29.9191 38.2167L5.44019 23.6931ZM4.33332 24.6363C4.3183 24.5243 4.33512 24.4103 4.38185 24.3074C4.42858 24.2046 4.50335 24.1169 4.59758 24.0545C4.69181 23.9922 4.80169 23.9576 4.91465 23.9548C5.02762 23.952 5.13909 23.981 5.23632 24.0386L29.7073 38.5578L30.0331 38.751C30.1299 38.8088 30.2085 38.8927 30.2599 38.993C30.3113 39.0934 30.3335 39.2061 30.324 39.3185C30.3145 39.4308 30.2736 39.5383 30.206 39.6285C30.1384 39.7187 30.0467 39.7882 29.9416 39.8289L6.58536 48.7613C6.49502 48.7957 6.39773 48.8077 6.30174 48.7964C6.20576 48.7851 6.11391 48.7508 6.03402 48.6964C5.95412 48.6421 5.88854 48.5692 5.84284 48.484C5.79713 48.3989 5.77265 48.3039 5.77149 48.2073L5.64919 37.0578C5.64926 36.9474 5.63032 36.8379 5.59317 36.734C5.54084 36.5844 5.45278 36.4499 5.33664 36.342C5.32084 36.3262 5.3034 36.3115 5.28591 36.2968L5.2848 36.2952C5.1536 36.1868 4.9969 36.1138 4.82956 36.0831C4.66223 36.0523 4.4898 36.0649 4.32866 36.1195L1.19774 37.1827C1.07433 37.2275 0.939402 37.2293 0.814855 37.1878C0.690307 37.1463 0.583433 37.0639 0.511558 36.9541L0.509279 36.9508C0.432451 36.8435 0.39442 36.7132 0.401446 36.5815C0.408472 36.4497 0.46014 36.3242 0.547941 36.2257L4.88115 31.0924C4.92747 31.0386 4.9676 30.9798 5.00079 30.9171L5.00244 30.9159C5.03446 30.8559 5.06001 30.7926 5.07864 30.7271C5.09739 30.6636 5.10929 30.5982 5.11416 30.5322C5.12008 30.4583 5.11768 30.3841 5.107 30.3108L4.33332 24.6363Z" fill="#C7D7E9"/>
<path d="M5.10952 30.5341L29.5451 38.6908C29.5668 38.6978 29.5878 38.7069 29.6077 38.718C29.6899 38.7625 29.754 38.8343 29.7888 38.9209C29.8237 39.0076 29.8272 39.1038 29.7987 39.1928C29.7702 39.2818 29.7115 39.358 29.6327 39.4083C29.554 39.4586 29.4601 39.4798 29.3674 39.4682L5.58854 36.736L5.16861 36.6882L5.2151 36.2911L5.28016 36.2972L5.28126 36.2988L29.4127 39.0694L4.9978 30.9179L4.99615 30.9191L4.89062 30.8826L5.01736 30.5029L5.10952 30.5341Z" fill="#C7D7E9"/>
<path d="M277.942 0.140389L253.463 14.6639L253.145 14.8528C252.983 14.9487 252.851 15.0885 252.764 15.256C252.678 15.4235 252.641 15.612 252.657 15.7997C252.673 15.9875 252.742 16.1669 252.855 16.3173C252.969 16.4677 253.122 16.5831 253.298 16.6501L276.655 25.5825C276.805 25.6395 276.967 25.6596 277.127 25.641C277.287 25.6224 277.44 25.5656 277.573 25.4756C277.707 25.3853 277.817 25.2638 277.893 25.1215C277.969 24.9793 278.01 24.8207 278.011 24.6593L278.133 13.5096C278.133 13.4292 278.15 13.3497 278.182 13.276C278.214 13.2023 278.261 13.1361 278.32 13.0815C278.399 13.006 278.497 12.9535 278.604 12.9295C278.71 12.9056 278.821 12.911 278.925 12.9453L282.054 14.0075C282.26 14.0813 282.484 14.0844 282.691 14.0161C282.899 13.9478 283.077 13.8121 283.198 13.6306L283.203 13.624C283.33 13.4445 283.392 13.2276 283.381 13.0083C283.369 12.7889 283.284 12.5798 283.139 12.4146L278.806 7.28116C278.752 7.21723 278.711 7.14285 278.687 7.06263C278.665 6.98114 278.66 6.8962 278.67 6.81254L279.444 1.13806C279.469 0.951552 279.442 0.761651 279.364 0.59012C279.287 0.418589 279.162 0.272377 279.006 0.168239C278.849 0.0640999 278.666 0.0062463 278.478 0.00131977C278.289 -0.00360676 278.104 0.0445985 277.942 0.140389ZM279.049 1.08357L278.275 6.75802C278.264 6.83131 278.262 6.90557 278.268 6.9794L253.832 15.136C253.81 15.143 253.789 15.1522 253.77 15.1633C253.687 15.2077 253.623 15.2795 253.588 15.3662C253.553 15.4529 253.55 15.549 253.579 15.638C253.607 15.727 253.666 15.8033 253.745 15.8535C253.823 15.9038 253.917 15.925 254.01 15.9134L277.789 13.1813C277.752 13.2852 277.733 13.3947 277.733 13.505L277.61 24.6546C277.609 24.7512 277.585 24.8461 277.539 24.9313C277.493 25.0165 277.428 25.0893 277.348 25.1437C277.268 25.1981 277.176 25.2324 277.08 25.2437C276.984 25.255 276.887 25.2429 276.796 25.2086L253.44 16.2761C253.335 16.2354 253.244 16.166 253.176 16.0758C253.108 15.9855 253.067 15.8781 253.058 15.7658C253.048 15.6534 253.071 15.5406 253.122 15.4403C253.173 15.3399 253.252 15.2561 253.349 15.1982L253.675 15.0051L278.146 0.485842C278.243 0.428256 278.354 0.399213 278.467 0.402035C278.58 0.404857 278.69 0.439432 278.784 0.501801C278.879 0.56417 278.953 0.651809 279 0.754691C279.047 0.857573 279.064 0.97157 279.049 1.08357Z" fill="#3F80FD"/>
<path d="M277.942 0.140389L253.463 14.6639L253.145 14.8528C252.983 14.9487 252.851 15.0885 252.764 15.256C252.678 15.4235 252.641 15.612 252.657 15.7997C252.673 15.9875 252.742 16.1669 252.855 16.3173C252.969 16.4677 253.122 16.5831 253.298 16.6501L276.655 25.5825C276.805 25.6395 276.967 25.6596 277.127 25.641C277.287 25.6224 277.44 25.5656 277.573 25.4756C277.707 25.3853 277.817 25.2638 277.893 25.1215C277.969 24.9793 278.01 24.8207 278.011 24.6593L278.133 13.5096C278.133 13.4292 278.15 13.3497 278.182 13.276C278.214 13.2023 278.261 13.1361 278.32 13.0815C278.399 13.006 278.497 12.9535 278.604 12.9295C278.71 12.9056 278.821 12.911 278.925 12.9453L282.054 14.0075C282.26 14.0813 282.484 14.0844 282.691 14.0161C282.899 13.9478 283.077 13.8121 283.198 13.6306L283.203 13.624C283.33 13.4445 283.392 13.2276 283.381 13.0083C283.369 12.7889 283.284 12.5798 283.139 12.4146L278.806 7.28116C278.752 7.21723 278.711 7.14285 278.687 7.06263C278.665 6.98114 278.66 6.8962 278.67 6.81254L279.444 1.13806C279.469 0.951552 279.442 0.761651 279.364 0.59012C279.287 0.418589 279.162 0.272377 279.006 0.168239C278.849 0.0640999 278.666 0.0062463 278.478 0.00131977C278.289 -0.00360676 278.104 0.0445985 277.942 0.140389ZM279.049 1.08357L278.275 6.75803C278.264 6.83132 278.262 6.90558 278.268 6.97941C278.273 7.04547 278.285 7.11082 278.303 7.17435C278.322 7.23983 278.347 7.30313 278.379 7.3632L278.381 7.36434C278.414 7.42707 278.454 7.48586 278.501 7.53963L282.834 12.6729C282.922 12.7715 282.973 12.8969 282.98 13.0287C282.987 13.1605 282.949 13.2908 282.873 13.398L282.87 13.4013C282.798 13.5112 282.692 13.5936 282.567 13.6351C282.442 13.6766 282.308 13.6748 282.184 13.63L279.053 12.5667C278.892 12.5121 278.72 12.4996 278.552 12.5304C278.385 12.5611 278.228 12.6341 278.097 12.7424L278.096 12.744C278.078 12.7588 278.061 12.7735 278.045 12.7893C277.929 12.8971 277.841 13.0317 277.789 13.1813C277.752 13.2852 277.733 13.3947 277.733 13.505L277.61 24.6546C277.609 24.7512 277.585 24.8461 277.539 24.9313C277.493 25.0164 277.428 25.0893 277.348 25.1437C277.268 25.1981 277.176 25.2324 277.08 25.2437C276.984 25.255 276.887 25.2429 276.796 25.2086L253.44 16.2761C253.335 16.2354 253.244 16.166 253.176 16.0758C253.108 15.9855 253.067 15.8781 253.058 15.7658C253.048 15.6534 253.071 15.5406 253.122 15.4403C253.173 15.34 253.252 15.2561 253.349 15.1982L253.675 15.0051L278.146 0.48585C278.243 0.428263 278.354 0.399221 278.467 0.402043C278.58 0.404864 278.69 0.439439 278.784 0.501809C278.878 0.564178 278.953 0.651817 279 0.754699C279.047 0.85758 279.064 0.97157 279.049 1.08357Z" fill="#C7D7E9"/>
<path d="M278.358 6.9502L278.485 7.32989L278.379 7.36633L278.378 7.36519L253.963 15.5167L278.094 12.746L278.095 12.7444L278.16 12.7383L278.207 13.1355L277.787 13.1833L254.008 15.9154C253.915 15.927 253.821 15.9059 253.743 15.8556C253.664 15.8053 253.605 15.7291 253.577 15.6401C253.548 15.5511 253.552 15.4549 253.587 15.3682C253.621 15.2815 253.686 15.2097 253.768 15.1653C253.788 15.1542 253.809 15.1451 253.83 15.138L278.266 6.98142L278.358 6.9502Z" fill="#C7D7E9"/>
<path d="M68.4711 203.07C68.3035 203.156 68.1635 203.287 68.0671 203.449C67.9707 203.611 67.9218 203.796 67.926 203.984C67.9303 204.173 67.9874 204.356 68.091 204.513C68.1945 204.67 68.3403 204.795 68.5115 204.873L73.7211 207.252C73.7975 207.288 73.8663 207.338 73.9235 207.4C73.9784 207.463 74.0196 207.537 74.0447 207.617L76.0678 214.023C76.1301 214.234 76.2614 214.417 76.4406 214.544C76.6199 214.671 76.8366 214.734 77.056 214.723L77.064 214.723C77.2822 214.717 77.4923 214.639 77.6608 214.5C77.8293 214.362 77.9465 214.17 77.9939 213.957L78.7685 210.745C78.7949 210.639 78.8497 210.542 78.9269 210.465C79.0042 210.387 79.101 210.333 79.207 210.306C79.2847 210.285 79.3658 210.281 79.4452 210.293C79.5246 210.305 79.6007 210.334 79.6686 210.377L89.1578 216.232C89.2949 216.317 89.4507 216.368 89.6117 216.38C89.7727 216.391 89.9341 216.363 90.0819 216.298C90.2293 216.234 90.359 216.135 90.4601 216.01C90.5612 215.885 90.6309 215.737 90.6631 215.579L95.5954 191.064C95.6328 190.88 95.6175 190.688 95.5509 190.512C95.4844 190.336 95.3695 190.182 95.2194 190.068C95.0693 189.954 94.8901 189.885 94.7024 189.868C94.5147 189.852 94.3261 189.888 94.1584 189.974L93.8288 190.142L68.4711 203.07ZM68.6768 204.51C68.5741 204.463 68.4867 204.388 68.4247 204.293C68.3627 204.199 68.3286 204.089 68.3263 203.976C68.3239 203.863 68.3534 203.751 68.4114 203.654C68.4694 203.557 68.5535 203.479 68.6541 203.427L94.0039 190.503L94.3413 190.331C94.4419 190.28 94.5548 190.259 94.6671 190.269C94.7793 190.279 94.8865 190.32 94.9764 190.389C95.0663 190.457 95.1352 190.549 95.1753 190.654C95.2155 190.759 95.2252 190.874 95.2034 190.985L90.2711 215.499C90.2519 215.594 90.2101 215.683 90.1493 215.758C90.0884 215.833 90.0103 215.892 89.9217 215.931C89.833 215.969 89.7364 215.986 89.64 215.979C89.5436 215.972 89.4502 215.942 89.3679 215.891L79.8788 210.036C79.7856 209.977 79.6829 209.934 79.5753 209.91L94.5925 191.272C94.6518 191.2 94.6841 191.109 94.6837 191.016C94.6833 190.922 94.6502 190.832 94.5902 190.76C94.5302 190.689 94.4471 190.64 94.3552 190.623C94.2632 190.607 94.1683 190.622 94.0868 190.668C94.0668 190.679 94.0479 190.692 94.0303 190.706L74.0773 207.001C74.018 206.956 73.954 206.919 73.8864 206.888L68.6768 204.51Z" fill="#3F80FD"/>
<path d="M68.4711 203.07C68.3035 203.156 68.1635 203.287 68.0671 203.449C67.9707 203.611 67.9218 203.796 67.926 203.984C67.9303 204.173 67.9874 204.356 68.091 204.513C68.1945 204.67 68.3403 204.795 68.5115 204.873L73.7211 207.252C73.7975 207.288 73.8663 207.338 73.9235 207.4C73.9784 207.463 74.0196 207.537 74.0447 207.617L76.0678 214.023C76.1301 214.234 76.2614 214.417 76.4406 214.544C76.6199 214.671 76.8366 214.734 77.056 214.723L77.064 214.723C77.2822 214.717 77.4923 214.639 77.6608 214.5C77.8293 214.362 77.9465 214.17 77.9939 213.957L78.7685 210.745C78.7949 210.639 78.8497 210.542 78.9269 210.465C79.0042 210.387 79.101 210.333 79.207 210.306C79.2847 210.285 79.3658 210.281 79.4452 210.293C79.5246 210.305 79.6007 210.334 79.6686 210.377L89.1578 216.232C89.2949 216.317 89.4507 216.368 89.6117 216.38C89.7727 216.391 89.9341 216.363 90.0819 216.298C90.2293 216.234 90.359 216.135 90.4601 216.01C90.5612 215.885 90.6309 215.737 90.6631 215.579L95.5954 191.064C95.6328 190.88 95.6175 190.688 95.5509 190.512C95.4844 190.336 95.3695 190.182 95.2194 190.068C95.0693 189.954 94.8901 189.885 94.7024 189.868C94.5147 189.852 94.3261 189.888 94.1584 189.974L93.8288 190.142L68.4711 203.07ZM68.6768 204.51C68.5741 204.463 68.4867 204.388 68.4247 204.293C68.3627 204.199 68.3286 204.089 68.3263 203.976C68.3239 203.863 68.3534 203.751 68.4114 203.654C68.4694 203.557 68.5535 203.479 68.6541 203.427L94.0039 190.503L94.3413 190.331C94.4419 190.28 94.5548 190.259 94.6671 190.269C94.7793 190.279 94.8865 190.32 94.9764 190.389C95.0663 190.457 95.1352 190.549 95.1753 190.654C95.2155 190.759 95.2252 190.874 95.2034 190.985L90.2711 215.499C90.2519 215.594 90.2101 215.683 90.1493 215.758C90.0884 215.833 90.0103 215.892 89.9217 215.931C89.833 215.969 89.7364 215.986 89.64 215.979C89.5436 215.972 89.4502 215.942 89.3679 215.891L79.8788 210.036C79.7856 209.977 79.6829 209.934 79.5752 209.91C79.4208 209.875 79.26 209.877 79.1068 209.918C79.085 209.922 79.0633 209.929 79.0415 209.936L79.0395 209.936C78.8778 209.989 78.7324 210.083 78.617 210.208C78.5016 210.333 78.42 210.485 78.38 210.651L77.6055 213.865C77.5774 213.993 77.5068 214.108 77.4051 214.191C77.3035 214.275 77.1768 214.321 77.0455 214.323L77.0415 214.323C76.9097 214.331 76.7793 214.293 76.6717 214.217C76.5641 214.14 76.4856 214.03 76.4493 213.903L74.4263 207.497C74.4056 207.429 74.3773 207.364 74.3421 207.302L74.342 207.3C74.3083 207.241 74.2685 207.186 74.2231 207.135C74.1794 207.085 74.1305 207.04 74.0773 207.001C74.0181 206.956 73.954 206.919 73.8864 206.888L68.6768 204.51Z" fill="#C7D7E9"/>
<path d="M74.0824 206.999L94.0355 190.705C94.053 190.69 94.0719 190.677 94.092 190.666C94.1735 190.621 94.2684 190.605 94.3603 190.622C94.4522 190.639 94.5354 190.687 94.5954 190.759C94.6553 190.83 94.6884 190.921 94.6888 191.014C94.6892 191.108 94.6569 191.198 94.5976 191.27L79.5804 209.909L79.3156 210.238L79.0047 209.986L79.0447 209.935L79.0466 209.935L94.2848 191.019L74.3471 207.299L74.3472 207.301L74.26 207.37L74.0068 207.06L74.0824 206.999Z" fill="#C7D7E9"/>
<path d="M85.1008 63.097C80.7806 61.9394 76.3413 64.4979 75.1855 68.8115L73.0927 76.622C71.9368 80.9357 74.5021 85.371 78.8223 86.5286L86.6448 88.6246C90.965 89.7822 95.4043 87.2238 96.5601 82.9101L98.653 75.0996C99.8088 70.786 97.2435 66.3506 92.9233 65.193L85.1008 63.097Z" fill="#3F80FD"/>
<path d="M136.322 116.673C132.001 115.516 127.562 118.074 126.406 122.388L124.313 130.198C123.158 134.512 125.723 138.947 130.043 140.105L137.866 142.201C142.186 143.358 146.625 140.8 147.781 136.486L149.874 128.676C151.029 124.362 148.464 119.927 144.144 118.769L136.322 116.673Z" fill="#3F80FD"/>
</svg>
