<svg width="20" height="24" viewBox="0 0 20 24" fill="none" xmlns="http://www.w3.org/2000/svg">
<path d="M8.95655 3.72079C8.78089 3.23751 8.42888 2.84047 7.97274 2.61111C7.5166 2.38176 6.9909 2.33747 6.50348 2.48734C4.19288 3.20725 2.57808 5.21101 2.92479 7.52913C3.31495 10.1014 4.17753 12.5772 5.4681 14.8291C6.74678 17.0749 8.42355 19.0638 10.4146 20.6964C12.2052 22.1602 14.7176 21.757 16.4891 20.0772C16.8618 19.7238 17.0879 19.2407 17.1218 18.7254C17.1557 18.2101 16.995 17.701 16.672 17.3008L15.4039 15.7338C15.1499 15.4187 14.8081 15.1879 14.4227 15.0716C14.0374 14.9552 13.6264 14.9585 13.2429 15.081L10.3173 16.0169L9.8067 15.4842C9.16367 14.8097 8.60099 14.0615 8.13016 13.2549C7.67417 12.4385 7.3185 11.569 7.07103 10.6656L6.87393 9.95765L9.12991 7.85789C9.4284 7.57913 9.63779 7.2167 9.73128 6.81699C9.82478 6.41728 9.79812 5.99847 9.65472 5.61416L8.95655 3.72079ZM5.80531 0.193209C6.87192 -0.136565 8.02295 -0.0416528 9.02254 0.458498C10.0221 0.958649 10.7946 1.82617 11.1817 2.88329L11.8774 4.77426C12.1854 5.6049 12.2414 6.5094 12.0383 7.37235C11.8353 8.2353 11.3825 9.01755 10.7376 9.61928L9.57398 10.7016C9.72359 11.1191 9.92544 11.5966 10.1867 12.0598C10.4479 12.5157 10.7518 12.9309 11.0297 13.2693L12.5257 12.7893C13.3621 12.5225 14.2586 12.5154 15.099 12.7691C15.9394 13.0228 16.6851 13.5256 17.2395 14.2123L18.5076 15.7794C19.2124 16.6502 19.5637 17.759 19.4905 18.8815C19.4173 20.0041 18.9251 21.0567 18.1134 21.8266C15.753 24.0656 11.8988 24.9943 8.92331 22.5609C6.70591 20.7435 4.83837 18.5293 3.41398 16.0289C1.97395 13.5174 1.01148 10.7558 0.5762 7.88669C0.00626954 4.06395 2.72056 1.15309 5.80531 0.195609" fill="#030438"/>
</svg>
