<svg width="19" height="24" viewBox="0 0 19 24" fill="none" xmlns="http://www.w3.org/2000/svg">
<path d="M8.45655 3.72079C8.28089 3.23751 7.92888 2.84047 7.47274 2.61111C7.0166 2.38176 6.4909 2.33747 6.00348 2.48734C3.69288 3.20725 2.07808 5.21101 2.42479 7.52913C2.81495 10.1014 3.67753 12.5772 4.9681 14.8291C6.24678 17.0749 7.92355 19.0638 9.91463 20.6964C11.7052 22.1602 14.2176 21.757 15.9891 20.0772C16.3618 19.7238 16.5879 19.2407 16.6218 18.7254C16.6557 18.2101 16.495 17.701 16.172 17.3008L14.9039 15.7338C14.6499 15.4187 14.3081 15.1879 13.9227 15.0716C13.5374 14.9552 13.1264 14.9585 12.7429 15.081L9.81726 16.0169L9.3067 15.4842C8.66367 14.8097 8.10099 14.0615 7.63016 13.2549C7.17417 12.4385 6.8185 11.569 6.57103 10.6656L6.37393 9.95765L8.62991 7.85789C8.9284 7.57913 9.13779 7.2167 9.23128 6.81699C9.32478 6.41728 9.29812 5.99847 9.15472 5.61416L8.45655 3.72079ZM5.30531 0.193209C6.37192 -0.136565 7.52295 -0.0416528 8.52254 0.458498C9.52214 0.958649 10.2946 1.82617 10.6817 2.88329L11.3774 4.77426C11.6854 5.6049 11.7414 6.5094 11.5383 7.37235C11.3353 8.2353 10.8825 9.01755 10.2376 9.61928L9.07398 10.7016C9.22359 11.1191 9.42544 11.5966 9.68666 12.0598C9.94787 12.5157 10.2518 12.9309 10.5297 13.2693L12.0257 12.7893C12.8621 12.5225 13.7586 12.5154 14.599 12.7691C15.4394 13.0228 16.1851 13.5256 16.7395 14.2123L18.0076 15.7794C18.7124 16.6502 19.0637 17.759 18.9905 18.8815C18.9173 20.0041 18.4251 21.0567 17.6134 21.8266C15.253 24.0656 11.3988 24.9943 8.42331 22.5609C6.20591 20.7435 4.33837 18.5293 2.91398 16.0289C1.47395 13.5174 0.511477 10.7558 0.0762001 7.88669C-0.49373 4.06395 2.22056 1.15309 5.30531 0.195609" fill="white"/>
</svg>
