<svg xmlns="http://www.w3.org/2000/svg" xmlns:xlink="http://www.w3.org/1999/xlink" width="130" zoomAndPan="magnify" viewBox="0 0 97.5 37.5" height="50" preserveAspectRatio="xMidYMid meet" version="1.0"><defs><g/><clipPath id="a686a42106"><path d="M 6 1 L 91 1 L 91 36 L 6 36 Z M 6 1 " clip-rule="nonzero"/></clipPath><clipPath id="536d4d7a71"><path d="M 6.976562 9.121094 L 87.410156 1.085938 L 90.039062 27.421875 L 9.609375 35.457031 Z M 6.976562 9.121094 " clip-rule="nonzero"/></clipPath></defs><path fill="#cb73fe" d="M 6.949219 8.386719 L 87.195312 0.621094 C 87.617188 0.582031 88.039062 0.582031 88.460938 0.625 C 88.882812 0.664062 89.296875 0.746094 89.699219 0.871094 C 90.105469 0.996094 90.496094 1.15625 90.867188 1.355469 C 91.242188 1.554688 91.589844 1.789062 91.917969 2.058594 C 92.246094 2.328125 92.542969 2.625 92.8125 2.953125 C 93.078125 3.277344 93.3125 3.628906 93.511719 4 C 93.710938 4.375 93.871094 4.761719 93.992188 5.167969 C 94.117188 5.574219 94.199219 5.984375 94.238281 6.40625 L 95.691406 21.351562 C 95.730469 21.773438 95.730469 22.195312 95.6875 22.613281 C 95.648438 23.035156 95.5625 23.449219 95.441406 23.851562 C 95.316406 24.257812 95.15625 24.644531 94.953125 25.015625 C 94.753906 25.390625 94.519531 25.738281 94.25 26.066406 C 93.980469 26.390625 93.683594 26.6875 93.355469 26.957031 C 93.027344 27.222656 92.675781 27.457031 92.304688 27.65625 C 91.929688 27.851562 91.539062 28.015625 91.132812 28.136719 C 90.730469 28.257812 90.316406 28.339844 89.894531 28.378906 L 9.644531 36.144531 C 9.222656 36.183594 8.800781 36.183594 8.378906 36.140625 C 7.960938 36.101562 7.546875 36.015625 7.140625 35.894531 C 6.734375 35.769531 6.347656 35.609375 5.972656 35.410156 C 5.601562 35.210938 5.25 34.976562 4.921875 34.707031 C 4.597656 34.4375 4.296875 34.140625 4.03125 33.8125 C 3.761719 33.484375 3.527344 33.136719 3.328125 32.761719 C 3.128906 32.390625 2.96875 32 2.847656 31.597656 C 2.726562 31.191406 2.644531 30.78125 2.601562 30.359375 L 1.148438 15.410156 C 1.109375 14.992188 1.109375 14.570312 1.152344 14.148438 C 1.195312 13.730469 1.277344 13.316406 1.402344 12.914062 C 1.523438 12.507812 1.6875 12.121094 1.886719 11.75 C 2.085938 11.375 2.320312 11.027344 2.589844 10.699219 C 2.859375 10.375 3.15625 10.078125 3.484375 9.808594 C 3.8125 9.542969 4.164062 9.308594 4.539062 9.109375 C 4.910156 8.910156 5.300781 8.75 5.707031 8.628906 C 6.113281 8.507812 6.527344 8.425781 6.949219 8.386719 Z M 6.949219 8.386719 " fill-opacity="1" fill-rule="nonzero"/><path fill="#ffffff" d="M 13.464844 24.472656 L 13.25 22.289062 L 15.847656 22.039062 C 16.609375 21.964844 17.167969 21.75 17.511719 21.394531 C 17.859375 21.042969 17.996094 20.492188 17.921875 19.738281 C 17.859375 19.082031 17.632812 18.597656 17.246094 18.292969 C 16.871094 17.984375 16.308594 17.867188 15.554688 17.941406 L 12.855469 18.203125 L 12.644531 16.035156 L 15.433594 15.765625 C 16.1875 15.691406 16.871094 15.714844 17.488281 15.832031 C 18.117188 15.949219 18.667969 16.164062 19.136719 16.472656 C 19.605469 16.773438 19.976562 17.179688 20.253906 17.699219 C 20.539062 18.203125 20.71875 18.816406 20.789062 19.53125 C 20.878906 20.449219 20.742188 21.238281 20.378906 21.902344 C 20.027344 22.5625 19.453125 23.09375 18.660156 23.492188 C 17.878906 23.886719 16.875 24.144531 15.652344 24.261719 Z M 11.691406 27.863281 L 10.558594 16.238281 L 13.402344 15.960938 L 14.53125 27.589844 Z M 27.398438 26.59375 C 26.457031 26.683594 25.601562 26.582031 24.835938 26.289062 C 24.082031 25.996094 23.464844 25.503906 22.984375 24.816406 C 22.5 24.125 22.207031 23.234375 22.101562 22.144531 C 21.992188 21.050781 22.113281 20.128906 22.453125 19.371094 C 22.796875 18.601562 23.3125 18.007812 24.007812 17.585938 C 24.703125 17.148438 25.523438 16.886719 26.464844 16.796875 C 27.40625 16.707031 28.257812 16.804688 29.023438 17.101562 C 29.789062 17.394531 30.414062 17.882812 30.894531 18.574219 C 31.375 19.25 31.671875 20.132812 31.777344 21.226562 C 31.886719 22.339844 31.761719 23.285156 31.410156 24.054688 C 31.054688 24.820312 30.527344 25.417969 29.820312 25.84375 C 29.121094 26.253906 28.316406 26.503906 27.398438 26.59375 Z M 27.285156 24.523438 C 27.707031 24.480469 28.054688 24.355469 28.316406 24.136719 C 28.582031 23.910156 28.761719 23.589844 28.867188 23.179688 C 28.96875 22.765625 28.992188 22.265625 28.933594 21.679688 C 28.871094 21.054688 28.746094 20.539062 28.550781 20.132812 C 28.355469 19.714844 28.09375 19.40625 27.765625 19.214844 C 27.449219 19.007812 27.054688 18.925781 26.585938 18.972656 C 26.183594 19.011719 25.847656 19.144531 25.574219 19.371094 C 25.308594 19.585938 25.125 19.902344 25.023438 20.3125 C 24.921875 20.726562 24.898438 21.234375 24.957031 21.832031 C 25.050781 22.796875 25.296875 23.5 25.695312 23.949219 C 26.109375 24.394531 26.636719 24.585938 27.285156 24.523438 Z M 33.894531 25.714844 L 33.472656 21.398438 L 32.988281 16.414062 L 35.320312 16.1875 L 35.679688 19.335938 L 36.03125 19.300781 C 36.035156 18.472656 36.125 17.804688 36.300781 17.300781 C 36.488281 16.785156 36.785156 16.398438 37.1875 16.132812 C 37.597656 15.867188 38.125 15.703125 38.757812 15.640625 C 38.855469 15.632812 38.960938 15.628906 39.078125 15.628906 C 39.195312 15.617188 39.332031 15.617188 39.488281 15.625 L 39.675781 18.664062 C 39.480469 18.589844 39.269531 18.550781 39.042969 18.550781 C 38.828125 18.535156 38.636719 18.535156 38.472656 18.550781 C 38.011719 18.59375 37.621094 18.722656 37.296875 18.929688 C 36.984375 19.140625 36.746094 19.433594 36.582031 19.816406 C 36.429688 20.199219 36.347656 20.671875 36.34375 21.226562 L 36.753906 25.4375 Z M 45.707031 24.804688 C 44.613281 24.910156 43.777344 24.699219 43.203125 24.175781 C 42.628906 23.636719 42.28125 22.726562 42.15625 21.449219 L 41.800781 17.800781 L 40.476562 17.929688 L 40.316406 15.722656 L 41.269531 15.628906 C 41.644531 15.582031 41.921875 15.496094 42.101562 15.371094 C 42.289062 15.246094 42.394531 15.035156 42.414062 14.738281 L 42.515625 13.410156 L 44.121094 13.257812 L 44.320312 15.316406 L 46.5625 15.101562 L 46.789062 17.410156 L 44.546875 17.625 L 44.878906 21.058594 C 44.917969 21.460938 45.042969 21.742188 45.25 21.914062 C 45.464844 22.082031 45.777344 22.148438 46.175781 22.109375 C 46.398438 22.085938 46.609375 22.042969 46.804688 21.976562 C 47 21.910156 47.160156 21.828125 47.28125 21.734375 L 47.535156 24.359375 C 47.171875 24.515625 46.828125 24.617188 46.515625 24.671875 C 46.210938 24.738281 45.941406 24.78125 45.707031 24.804688 Z M 49.925781 24.164062 L 49.367188 18.402344 L 47.9375 18.542969 L 47.738281 16.480469 L 50.289062 16.339844 L 50.257812 16.003906 C 49.800781 15.96875 49.417969 15.855469 49.101562 15.671875 C 48.796875 15.476562 48.566406 15.238281 48.410156 14.957031 C 48.25 14.675781 48.15625 14.367188 48.121094 14.023438 C 48.070312 13.507812 48.164062 13.054688 48.398438 12.664062 C 48.632812 12.261719 48.988281 11.9375 49.464844 11.691406 C 49.9375 11.441406 50.503906 11.289062 51.164062 11.222656 C 51.742188 11.167969 52.269531 11.1875 52.757812 11.28125 C 53.238281 11.367188 53.632812 11.496094 53.933594 11.667969 L 54.023438 14.238281 C 53.710938 14.066406 53.359375 13.933594 52.96875 13.839844 C 52.589844 13.746094 52.242188 13.714844 51.925781 13.746094 C 51.597656 13.777344 51.328125 13.894531 51.121094 14.089844 C 50.914062 14.277344 50.828125 14.5625 50.867188 14.949219 C 50.898438 15.257812 50.984375 15.480469 51.128906 15.621094 C 51.285156 15.757812 51.464844 15.847656 51.671875 15.886719 C 51.875 15.914062 52.078125 15.917969 52.277344 15.898438 L 54.324219 15.699219 L 54.539062 17.902344 L 52.136719 18.136719 L 52.699219 23.894531 Z M 60.792969 23.363281 C 59.851562 23.453125 58.996094 23.351562 58.234375 23.058594 C 57.480469 22.761719 56.863281 22.273438 56.378906 21.582031 C 55.894531 20.894531 55.601562 20.003906 55.496094 18.914062 C 55.390625 17.820312 55.507812 16.898438 55.851562 16.140625 C 56.191406 15.371094 56.710938 14.777344 57.40625 14.355469 C 58.097656 13.917969 58.917969 13.65625 59.859375 13.566406 C 60.800781 13.472656 61.652344 13.574219 62.417969 13.867188 C 63.183594 14.164062 63.808594 14.652344 64.289062 15.339844 C 64.773438 16.019531 65.066406 16.902344 65.171875 17.996094 C 65.28125 19.109375 65.160156 20.054688 64.804688 20.820312 C 64.453125 21.589844 63.921875 22.1875 63.214844 22.613281 C 62.519531 23.023438 61.710938 23.273438 60.792969 23.363281 Z M 60.679688 21.292969 C 61.105469 21.25 61.449219 21.121094 61.714844 20.90625 C 61.976562 20.679688 62.160156 20.359375 62.261719 19.949219 C 62.363281 19.535156 62.386719 19.035156 62.328125 18.449219 C 62.269531 17.824219 62.140625 17.308594 61.945312 16.902344 C 61.753906 16.480469 61.492188 16.175781 61.164062 15.980469 C 60.847656 15.777344 60.453125 15.695312 59.980469 15.742188 C 59.582031 15.78125 59.242188 15.914062 58.96875 16.140625 C 58.703125 16.355469 58.519531 16.671875 58.417969 17.082031 C 58.316406 17.496094 58.292969 18.003906 58.351562 18.601562 C 58.445312 19.5625 58.691406 20.269531 59.09375 20.714844 C 59.503906 21.164062 60.035156 21.355469 60.679688 21.292969 Z M 67.289062 22.484375 L 66.054688 9.800781 L 68.847656 9.53125 L 70.078125 22.214844 Z M 72.289062 22 L 71.386719 12.699219 L 74.226562 12.425781 L 75.132812 21.726562 Z M 72.6875 11.257812 C 72.148438 11.308594 71.71875 11.238281 71.402344 11.042969 C 71.097656 10.835938 70.925781 10.519531 70.882812 10.097656 C 70.839844 9.652344 70.949219 9.304688 71.207031 9.054688 C 71.480469 8.789062 71.886719 8.632812 72.429688 8.578125 C 72.980469 8.527344 73.410156 8.601562 73.714844 8.8125 C 74.03125 9.003906 74.210938 9.320312 74.253906 9.753906 C 74.296875 10.1875 74.179688 10.539062 73.910156 10.800781 C 73.648438 11.050781 73.242188 11.203125 72.6875 11.257812 Z M 81.65625 21.34375 C 80.714844 21.433594 79.859375 21.332031 79.09375 21.039062 C 78.339844 20.746094 77.722656 20.253906 77.238281 19.566406 C 76.757812 18.878906 76.464844 17.988281 76.355469 16.894531 C 76.25 15.800781 76.367188 14.878906 76.710938 14.121094 C 77.050781 13.355469 77.570312 12.757812 78.265625 12.335938 C 78.960938 11.902344 79.777344 11.636719 80.71875 11.546875 C 81.664062 11.457031 82.515625 11.558594 83.28125 11.851562 C 84.046875 12.144531 84.667969 12.636719 85.152344 13.324219 C 85.632812 14 85.925781 14.882812 86.035156 15.976562 C 86.140625 17.09375 86.019531 18.035156 85.667969 18.804688 C 85.3125 19.574219 84.785156 20.167969 84.078125 20.59375 C 83.378906 21.003906 82.574219 21.253906 81.65625 21.34375 Z M 81.542969 19.273438 C 81.964844 19.234375 82.308594 19.105469 82.574219 18.890625 C 82.835938 18.664062 83.019531 18.34375 83.121094 17.929688 C 83.226562 17.515625 83.246094 17.015625 83.191406 16.429688 C 83.128906 15.808594 83.003906 15.292969 82.808594 14.882812 C 82.613281 14.464844 82.351562 14.15625 82.023438 13.964844 C 81.707031 13.757812 81.3125 13.675781 80.84375 13.722656 C 80.441406 13.761719 80.105469 13.894531 79.828125 14.121094 C 79.566406 14.339844 79.382812 14.652344 79.28125 15.066406 C 79.179688 15.476562 79.15625 15.984375 79.214844 16.582031 C 79.308594 17.546875 79.554688 18.25 79.953125 18.699219 C 80.367188 19.144531 80.894531 19.335938 81.542969 19.273438 Z M 81.542969 19.273438 " fill-opacity="1" fill-rule="nonzero"/><g clip-path="url(#a686a42106)"><g clip-path="url(#536d4d7a71)"><path fill="#cb73fe" d="M 6.976562 9.121094 L 87.425781 1.082031 L 90.058594 27.417969 L 9.609375 35.457031 Z M 6.976562 9.121094 " fill-opacity="1" fill-rule="nonzero"/></g></g><g fill="#ffffff" fill-opacity="1"><g transform="translate(9.654965, 29.287637)"><g><path d="M 2.875 -4.09375 L 2.578125 -6.3125 L 5.25 -6.671875 C 5.457031 -6.703125 5.703125 -6.738281 5.984375 -6.78125 C 6.273438 -6.832031 6.550781 -6.914062 6.8125 -7.03125 C 7.070312 -7.15625 7.300781 -7.316406 7.5 -7.515625 C 7.707031 -7.710938 7.851562 -7.972656 7.9375 -8.296875 C 8.03125 -8.628906 8.046875 -9.039062 7.984375 -9.53125 C 7.921875 -10.007812 7.800781 -10.382812 7.625 -10.65625 C 7.445312 -10.9375 7.238281 -11.144531 7 -11.28125 C 6.757812 -11.425781 6.507812 -11.519531 6.25 -11.5625 C 5.988281 -11.613281 5.742188 -11.628906 5.515625 -11.609375 C 5.296875 -11.597656 5.113281 -11.582031 4.96875 -11.5625 L 1.953125 -11.15625 L 1.65625 -13.359375 L 4.828125 -13.78125 C 5.640625 -13.882812 6.390625 -13.882812 7.078125 -13.78125 C 7.765625 -13.675781 8.367188 -13.46875 8.890625 -13.15625 C 9.410156 -12.84375 9.835938 -12.410156 10.171875 -11.859375 C 10.503906 -11.304688 10.722656 -10.632812 10.828125 -9.84375 C 10.960938 -8.84375 10.847656 -7.96875 10.484375 -7.21875 C 10.117188 -6.46875 9.515625 -5.859375 8.671875 -5.390625 C 7.828125 -4.929688 6.734375 -4.613281 5.390625 -4.4375 Z M 1.390625 -0.1875 L -0.3125 -13.109375 L 2.515625 -13.484375 L 4.21875 -0.5625 Z M 1.390625 -0.1875 "/></g></g></g><g fill="#ffffff" fill-opacity="1"><g transform="translate(22.134003, 27.641539)"><g><path d="M 1.390625 -0.1875 L -0.3125 -13.109375 L 4.921875 -13.796875 C 5.554688 -13.878906 6.148438 -13.90625 6.703125 -13.875 C 7.265625 -13.851562 7.78125 -13.769531 8.25 -13.625 C 8.726562 -13.488281 9.15625 -13.296875 9.53125 -13.046875 C 9.90625 -12.796875 10.203125 -12.472656 10.421875 -12.078125 C 10.640625 -11.691406 10.785156 -11.238281 10.859375 -10.71875 C 10.921875 -10.25 10.910156 -9.820312 10.828125 -9.4375 C 10.742188 -9.0625 10.570312 -8.710938 10.3125 -8.390625 C 10.0625 -8.066406 9.734375 -7.789062 9.328125 -7.5625 C 8.921875 -7.332031 8.425781 -7.148438 7.84375 -7.015625 L 7.890625 -6.734375 C 8.566406 -6.742188 9.125 -6.65625 9.5625 -6.46875 C 10 -6.289062 10.359375 -6.015625 10.640625 -5.640625 C 10.921875 -5.265625 11.179688 -4.789062 11.421875 -4.21875 L 12.546875 -1.65625 L 9.4375 -1.25 L 8.515625 -3.625 C 8.335938 -4.113281 8.117188 -4.492188 7.859375 -4.765625 C 7.597656 -5.046875 7.289062 -5.222656 6.9375 -5.296875 C 6.582031 -5.367188 6.175781 -5.375 5.71875 -5.3125 L 3.625 -5.046875 L 4.21875 -0.5625 Z M 3.34375 -7.171875 L 5.15625 -7.40625 C 5.363281 -7.4375 5.609375 -7.472656 5.890625 -7.515625 C 6.171875 -7.566406 6.445312 -7.644531 6.71875 -7.75 C 6.988281 -7.851562 7.226562 -7.988281 7.4375 -8.15625 C 7.644531 -8.332031 7.804688 -8.5625 7.921875 -8.84375 C 8.035156 -9.125 8.066406 -9.46875 8.015625 -9.875 C 7.960938 -10.289062 7.84375 -10.617188 7.65625 -10.859375 C 7.476562 -11.097656 7.269531 -11.273438 7.03125 -11.390625 C 6.789062 -11.503906 6.539062 -11.578125 6.28125 -11.609375 C 6.03125 -11.648438 5.789062 -11.660156 5.5625 -11.640625 C 5.332031 -11.617188 5.15625 -11.601562 5.03125 -11.59375 L 2.796875 -11.296875 Z M 3.34375 -7.171875 "/></g></g></g><g fill="#ffffff" fill-opacity="1"><g transform="translate(35.29763, 25.905138)"><g><path d="M 1.390625 -0.1875 L -0.3125 -13.109375 L 2.546875 -13.484375 L 4.25 -0.5625 Z M 1.390625 -0.1875 "/></g></g></g><g fill="#ffffff" fill-opacity="1"><g transform="translate(40.930801, 25.162071)"><g><path d="M 7.328125 -0.6875 C 6.328125 -0.550781 5.410156 -0.578125 4.578125 -0.765625 C 3.753906 -0.953125 3.03125 -1.289062 2.40625 -1.78125 C 1.789062 -2.269531 1.28125 -2.90625 0.875 -3.6875 C 0.476562 -4.46875 0.210938 -5.382812 0.078125 -6.4375 C -0.0664062 -7.539062 -0.0507812 -8.53125 0.125 -9.40625 C 0.3125 -10.28125 0.640625 -11.050781 1.109375 -11.71875 C 1.578125 -12.382812 2.171875 -12.921875 2.890625 -13.328125 C 3.617188 -13.734375 4.453125 -14 5.390625 -14.125 C 6.109375 -14.21875 6.785156 -14.207031 7.421875 -14.09375 C 8.066406 -13.976562 8.632812 -13.769531 9.125 -13.46875 C 9.625 -13.175781 10.03125 -12.785156 10.34375 -12.296875 C 10.65625 -11.804688 10.851562 -11.242188 10.9375 -10.609375 L 8.4375 -9.59375 C 8.351562 -10.164062 8.171875 -10.625 7.890625 -10.96875 C 7.609375 -11.3125 7.265625 -11.550781 6.859375 -11.6875 C 6.453125 -11.820312 6.023438 -11.859375 5.578125 -11.796875 C 5.191406 -11.742188 4.820312 -11.613281 4.46875 -11.40625 C 4.125 -11.207031 3.820312 -10.914062 3.5625 -10.53125 C 3.300781 -10.144531 3.117188 -9.664062 3.015625 -9.09375 C 2.910156 -8.519531 2.910156 -7.820312 3.015625 -7 C 3.148438 -5.957031 3.410156 -5.125 3.796875 -4.5 C 4.179688 -3.882812 4.65625 -3.457031 5.21875 -3.21875 C 5.789062 -2.988281 6.414062 -2.914062 7.09375 -3 C 7.789062 -3.09375 8.316406 -3.3125 8.671875 -3.65625 C 9.035156 -4 9.273438 -4.421875 9.390625 -4.921875 C 9.503906 -5.421875 9.53125 -5.929688 9.46875 -6.453125 L 12.015625 -6.375 C 12.097656 -5.6875 12.082031 -5.023438 11.96875 -4.390625 C 11.851562 -3.765625 11.613281 -3.195312 11.25 -2.6875 C 10.894531 -2.175781 10.394531 -1.742188 9.75 -1.390625 C 9.101562 -1.046875 8.296875 -0.8125 7.328125 -0.6875 Z M 7.328125 -0.6875 "/></g></g></g><g fill="#ffffff" fill-opacity="1"><g transform="translate(54.153109, 23.41793)"><g><path d="M 1.390625 -0.1875 L -0.3125 -13.109375 L 2.546875 -13.484375 L 4.25 -0.5625 Z M 1.390625 -0.1875 "/></g></g></g><g fill="#ffffff" fill-opacity="1"><g transform="translate(59.786281, 22.674863)"><g><path d="M 1.390625 -0.1875 L -0.3125 -13.109375 L 3.359375 -13.59375 L 10.359375 -5.1875 L 10.5625 -5.203125 L 9.171875 -14.359375 L 11.921875 -14.71875 L 13.625 -1.796875 L 10.28125 -1.359375 L 2.90625 -10.09375 L 2.703125 -10.0625 L 4.125 -0.546875 Z M 1.390625 -0.1875 "/></g></g></g><g fill="#ffffff" fill-opacity="1"><g transform="translate(74.808071, 20.693353)"><g><path d="M 6.5 -0.578125 C 5.445312 -0.429688 4.472656 -0.550781 3.578125 -0.9375 C 2.679688 -1.320312 1.921875 -1.96875 1.296875 -2.875 C 0.671875 -3.789062 0.265625 -4.976562 0.078125 -6.4375 C -0.0664062 -7.519531 -0.0507812 -8.492188 0.125 -9.359375 C 0.300781 -10.234375 0.617188 -11.003906 1.078125 -11.671875 C 1.535156 -12.335938 2.140625 -12.882812 2.890625 -13.3125 C 3.640625 -13.738281 4.535156 -14.019531 5.578125 -14.15625 C 6.367188 -14.257812 7.09375 -14.257812 7.75 -14.15625 C 8.414062 -14.050781 9.003906 -13.859375 9.515625 -13.578125 C 10.023438 -13.296875 10.441406 -12.925781 10.765625 -12.46875 C 11.085938 -12.007812 11.300781 -11.484375 11.40625 -10.890625 L 8.84375 -9.765625 C 8.78125 -10.171875 8.65625 -10.515625 8.46875 -10.796875 C 8.28125 -11.078125 8.046875 -11.300781 7.765625 -11.46875 C 7.492188 -11.644531 7.1875 -11.757812 6.84375 -11.8125 C 6.5 -11.875 6.140625 -11.878906 5.765625 -11.828125 C 5.316406 -11.765625 4.90625 -11.628906 4.53125 -11.421875 C 4.15625 -11.222656 3.832031 -10.9375 3.5625 -10.5625 C 3.300781 -10.195312 3.117188 -9.71875 3.015625 -9.125 C 2.910156 -8.53125 2.914062 -7.804688 3.03125 -6.953125 C 3.132812 -6.097656 3.316406 -5.394531 3.578125 -4.84375 C 3.835938 -4.289062 4.144531 -3.867188 4.5 -3.578125 C 4.863281 -3.296875 5.257812 -3.109375 5.6875 -3.015625 C 6.125 -2.921875 6.570312 -2.90625 7.03125 -2.96875 C 7.601562 -3.039062 8.085938 -3.203125 8.484375 -3.453125 C 8.878906 -3.710938 9.171875 -4.050781 9.359375 -4.46875 C 9.546875 -4.882812 9.617188 -5.394531 9.578125 -6 L 7.1875 -5.6875 L 6.921875 -7.71875 L 12.09375 -8.390625 L 12.40625 -6.03125 L 12.96875 -1.703125 L 11 -1.453125 L 10.625 -4.78125 L 10.265625 -4.734375 C 10.171875 -3.929688 9.984375 -3.238281 9.703125 -2.65625 C 9.421875 -2.070312 9.019531 -1.601562 8.5 -1.25 C 7.976562 -0.90625 7.3125 -0.679688 6.5 -0.578125 Z M 6.5 -0.578125 "/></g></g></g></svg>