<svg xmlns="http://www.w3.org/2000/svg" viewBox="0 0 126 31">
  <path d="M33.5 9.3c-2.1 0-3.7 1-4.7 2.6V9.8h-3.7v20.6h3.7v-7.5c1 1.6 2.6 2.6 4.7 2.6 4.1 0 7-3.1 7-7.9s-2.9-8.3-7-8.3zm-.6 12.1c-2.4 0-4.1-1.9-4.1-4.5s1.7-4.5 4.1-4.5c2.4 0 4.1 1.9 4.1 4.5s-1.7 4.5-4.1 4.5zm18.1-12.1c-4.6 0-7.6 3.1-7.6 7.9s3.1 7.9 7.6 7.9c4.6 0 7.6-3.1 7.6-7.9.1-4.8-3-7.9-7.6-7.9zm0 12.1c-2.4 0-4.1-1.9-4.1-4.5s1.7-4.5 4.1-4.5c2.4 0 4.1 1.9 4.1 4.5s-1.7 4.5-4.1 4.5zm18.1-12.1c-4.6 0-7.6 3.1-7.6 7.9s3.1 7.9 7.6 7.9c4.6 0 7.6-3.1 7.6-7.9s-3-7.9-7.6-7.9zm0 12.1c-2.4 0-4.1-1.9-4.1-4.5s1.7-4.5 4.1-4.5c2.4 0 4.1 1.9 4.1 4.5s-1.7 4.5-4.1 4.5z" fill="#00b67a"/>
  <path d="M12.1 8.2c-.7-1.8-2.4-3-4.4-3-2.6 0-4.7 2.1-4.7 4.7 0 2.6 2.1 4.7 4.7 4.7 2 0 3.7-1.2 4.4-3h4.1c-.9 3.9-4.4 6.8-8.5 6.8C3.4 18.4 0 15 0 10.7 0 6.4 3.4 3 7.7 3c4.1 0 7.6 2.9 8.5 6.8h-4.1v-1.6z" fill="#191919"/>
  <path d="M7.7 21.7l-4.3 8.9h3.8l2.4-5.2 2.4 5.2h3.8l-4.3-8.9z" fill="#00b67a"/>
</svg> 