<svg width="79" height="80" viewBox="0 0 79 80" fill="none" xmlns="http://www.w3.org/2000/svg">
<circle cx="39.5002" cy="40.1523" r="39.5" fill="#CB73FE"/>
<g clip-path="url(#clip0_83_5968)">
<path d="M46.6669 37.9857C41.5202 37.9857 37.3335 42.1723 37.3335 47.319C37.3335 52.4657 41.5202 56.6523 46.6669 56.6523C51.8135 56.6523 56.0002 52.4657 56.0002 47.319C56.0002 42.1723 51.8135 37.9857 46.6669 37.9857ZM46.6669 53.9857C42.9869 53.9857 40.0002 50.999 40.0002 47.319C40.0002 43.639 42.9869 40.6523 46.6669 40.6523C50.3469 40.6523 53.3335 43.639 53.3335 47.319C53.3335 50.999 50.3469 53.9857 46.6669 53.9857ZM45.3335 43.319H48.0002V45.9857H45.3335V43.319ZM45.3335 47.319H48.0002V51.319H45.3335V47.319ZM26.6668 51.319V28.6523C26.6668 27.919 27.2668 27.319 28.0002 27.319H37.3335V35.319H48.0002V33.439L39.2135 24.6523H28.0002C25.8002 24.6523 24.0002 26.4523 24.0002 28.6523V53.9857H36.6935C36.1469 53.159 35.7069 52.2657 35.3735 51.319H26.6668ZM40.0002 29.199L43.4535 32.6523H40.0002V29.199Z" fill="white"/>
</g>
<defs>
<clipPath id="clip0_83_5968">
<rect width="32" height="32" fill="white" transform="translate(24.0002 24.6523)"/>
</clipPath>
</defs>
</svg>
