<svg id="Layer_1" data-name="Layer 1" xmlns="http://www.w3.org/2000/svg" xmlns:xlink="http://www.w3.org/1999/xlink" viewBox="0 0 83 84"><defs><style>.cls-1{fill:none;}.cls-2{fill:#cb73fe;}.cls-3{clip-path:url(#clip-path);}.cls-4{fill:#fff;}</style><clipPath id="clip-path"><rect class="cls-1" x="25.5" y="26" width="32" height="32"/></clipPath></defs><circle class="cls-2" cx="39.5" cy="40.15" r="39.5"/><g class="cls-3"><path class="cls-4" d="M48.17,39.33a9.34,9.34,0,1,0,9.33,9.34A9.35,9.35,0,0,0,48.17,39.33Zm0,16a6.67,6.67,0,1,1,6.66-6.66A6.67,6.67,0,0,1,48.17,55.33ZM46.83,44.67H49.5v2.66H46.83Zm0,4H49.5v4H46.83Zm-18.66,4V30a1.34,1.34,0,0,1,1.33-1.33h9.33v8H49.5V34.79L40.71,26H29.5a4,4,0,0,0-4,4V55.33H38.19a12.69,12.69,0,0,1-1.32-2.66ZM41.5,30.55,45,34H41.5Z"/></g></svg>