<svg id="Layer_1" data-name="Layer 1" xmlns="http://www.w3.org/2000/svg" xmlns:xlink="http://www.w3.org/1999/xlink" viewBox="0 0 79 78.99"><defs><style>.cls-1{fill:none;}.cls-2{fill:#421f5b;}.cls-3{fill:#cb73fe;}.cls-4{clip-path:url(#clip-path);}.cls-5{fill:#fff;}</style><clipPath id="clip-path" transform="translate(0 -0.51)"><rect class="cls-1" x="24" y="24.65" width="32" height="32"/></clipPath></defs><circle class="cls-2" cx="40.88" cy="40.87" r="38.12"/><circle class="cls-3" cx="38.12" cy="38.12" r="38.12"/><g class="cls-4"><path class="cls-5" d="M46.67,38A9.33,9.33,0,1,0,56,47.32,9.34,9.34,0,0,0,46.67,38Zm0,16a6.67,6.67,0,1,1,6.66-6.67A6.67,6.67,0,0,1,46.67,54ZM45.33,43.32H48V46H45.33Zm0,4H48v4H45.33Zm-18.66,4V28.65A1.34,1.34,0,0,1,28,27.32h9.33v8H48V33.44l-8.79-8.79H28a4,4,0,0,0-4,4V54H36.69a12.76,12.76,0,0,1-1.32-2.67ZM40,29.2l3.45,3.45H40Z" transform="translate(0 -0.51)"/></g></svg>