<svg width="83" height="84" viewBox="0 0 83 84" fill="none" xmlns="http://www.w3.org/2000/svg">
<g filter="url(#filter0_d_83_5982)">
<circle cx="39.5" cy="40.1523" r="39.5" fill="#CB73FE"/>
</g>
<g clip-path="url(#clip0_83_5982)">
<path d="M56 45.9857V56.6523H45.3333C41.3933 56.6523 37.9533 54.499 36.1067 51.3137C37.132 51.3057 38.1307 51.1923 39.096 50.983C40.564 52.811 42.812 53.9857 45.3333 53.9857H53.3333V45.9857C53.3333 43.4643 52.1587 41.2163 50.3307 39.7483C50.5387 38.783 50.6533 37.7843 50.6613 36.759C53.8467 38.6057 56 42.0457 56 45.9857ZM48 36.6523C48 30.035 42.6173 24.6523 36 24.6523C29.3827 24.6523 24 30.035 24 36.6523V48.6523H36C42.6173 48.6523 48 43.2697 48 36.6523ZM26.6667 36.6523C26.6667 31.507 30.8533 27.319 36 27.319C41.1467 27.319 45.3333 31.507 45.3333 36.6523C45.3333 41.7977 41.1467 45.9857 36 45.9857H26.6667V36.6523ZM37.3333 38.659C37.3333 38.243 37.68 37.6283 37.9293 37.491C39.428 36.663 40.2347 34.9683 39.9373 33.2723C39.6533 31.6563 38.3267 30.331 36.7147 30.0497C35.5333 29.835 34.3373 30.1577 33.4307 30.9203C32.5213 31.683 32.0013 32.8003 32.0013 33.9857H34.668C34.668 33.5897 34.8413 33.2177 35.1453 32.963C35.452 32.7057 35.8467 32.6017 36.2547 32.675C36.776 32.7657 37.2213 33.2097 37.312 33.7323C37.436 34.4403 37.0293 34.9417 36.6427 35.1537C35.516 35.7737 34.668 37.2803 34.668 38.6577V39.3177H37.3347V38.6577L37.3333 38.659ZM37.3333 40.6523H34.6667V43.319H37.3333V40.6523Z" fill="white"/>
</g>
<defs>
<filter id="filter0_d_83_5982" x="0" y="0.652344" width="83" height="83" filterUnits="userSpaceOnUse" color-interpolation-filters="sRGB">
<feFlood flood-opacity="0" result="BackgroundImageFix"/>
<feColorMatrix in="SourceAlpha" type="matrix" values="0 0 0 0 0 0 0 0 0 0 0 0 0 0 0 0 0 0 127 0" result="hardAlpha"/>
<feOffset dx="4" dy="4"/>
<feComposite in2="hardAlpha" operator="out"/>
<feColorMatrix type="matrix" values="0 0 0 0 0.054902 0 0 0 0 0.0392157 0 0 0 0 0.262745 0 0 0 1 0"/>
<feBlend mode="normal" in2="BackgroundImageFix" result="effect1_dropShadow_83_5982"/>
<feBlend mode="normal" in="SourceGraphic" in2="effect1_dropShadow_83_5982" result="shape"/>
</filter>
<clipPath id="clip0_83_5982">
<rect width="32" height="32" fill="white" transform="translate(24 24.6523)"/>
</clipPath>
</defs>
</svg>
