<svg id="Layer_1" data-name="Layer 1" xmlns="http://www.w3.org/2000/svg" xmlns:xlink="http://www.w3.org/1999/xlink" viewBox="0 0 83 84"><defs><style>.cls-1{fill:none;}.cls-2{fill:#421f5b;}.cls-3{fill:#cb73fe;}.cls-4{clip-path:url(#clip-path);}.cls-5{fill:#fff;}</style><clipPath id="clip-path"><rect class="cls-1" x="24" y="24.65" width="32" height="32"/></clipPath></defs><circle class="cls-2" cx="42.35" cy="42.99" r="39.5"/><circle class="cls-3" cx="39.5" cy="40.15" r="39.5"/><g class="cls-4"><path class="cls-5" d="M56,46V56.65H45.33a10.64,10.64,0,0,1-9.22-5.34,14.12,14.12,0,0,0,3-.33,8,8,0,0,0,6.23,3h8V46a8,8,0,0,0-3-6.24,14.8,14.8,0,0,0,.33-3A10.67,10.67,0,0,1,56,46Zm-8-9.34a12,12,0,0,0-24,0v12H36A12,12,0,0,0,48,36.65Zm-21.33,0A9.33,9.33,0,1,1,36,46H26.67Zm10.66,2a1.7,1.7,0,0,1,.6-1.17,4,4,0,0,0-1.22-7.44A4,4,0,0,0,32,34h2.67a1.33,1.33,0,0,1,.48-1,1.33,1.33,0,0,1,2.16.77,1.32,1.32,0,0,1-.67,1.42,4.26,4.26,0,0,0-2,3.51v.66h2.66v-.66Zm0,2H34.67v2.67h2.66Z"/></g></svg>