<svg width="79" height="80" viewBox="0 0 79 80" fill="none" xmlns="http://www.w3.org/2000/svg">
<circle cx="39.5" cy="40.1523" r="39.5" fill="#CB73FE"/>
<g clip-path="url(#clip0_83_6010)">
<path d="M43.3867 31.9483C44.9814 30.5883 46.6654 28.551 46.6654 25.9857V24.6523H33.332V25.9857C33.332 28.551 35.016 30.587 36.6107 31.9483C30.3374 34.1843 25.332 42.151 25.332 48.6523C25.332 53.0643 28.92 56.6523 33.332 56.6523H46.6654C51.0774 56.6523 54.6654 53.0643 54.6654 48.6523C54.6654 42.151 49.66 34.1843 43.3867 31.9483ZM36.2747 27.319H43.7187C43.024 28.9937 41.1987 30.399 40.008 31.1217C39.0054 30.5083 37.0067 29.1057 36.276 27.319H36.2747ZM46.6654 53.9857H33.332C30.3907 53.9857 27.9987 51.5937 27.9987 48.6523C27.9987 41.771 34.1187 34.0083 39.996 34.0083C45.8734 34.0083 51.9987 41.7723 51.9987 48.6523C51.9987 51.5937 49.6067 53.9857 46.6654 53.9857ZM37.332 41.9857C37.332 42.4897 37.6934 42.9163 38.1907 42.999L42.2467 43.675C44.0347 43.9723 45.3334 45.5057 45.3334 47.319C45.3334 49.5243 43.5387 51.319 41.3334 51.319V52.6523H38.6667V51.319C36.4614 51.319 34.6667 49.5243 34.6667 47.319H37.3334C37.3334 48.0537 37.932 48.6523 38.6667 48.6523H41.3334C42.068 48.6523 42.6667 48.0537 42.6667 47.319C42.6667 46.815 42.3054 46.3883 41.808 46.3057L37.752 45.6297C35.964 45.3323 34.6654 43.799 34.6654 41.9857C34.6654 39.7803 36.46 37.9857 38.6654 37.9857V36.6523H41.332V37.9857C43.5374 37.9857 45.332 39.7803 45.332 41.9857H42.6654C42.6654 41.251 42.0667 40.6523 41.332 40.6523H38.6654C37.9307 40.6523 37.332 41.251 37.332 41.9857Z" fill="white"/>
</g>
<defs>
<clipPath id="clip0_83_6010">
<rect width="32" height="32" fill="white" transform="translate(24 24.6523)"/>
</clipPath>
</defs>
</svg>
