<svg id="Layer_1" data-name="Layer 1" xmlns="http://www.w3.org/2000/svg" xmlns:xlink="http://www.w3.org/1999/xlink" viewBox="0 0 79 80"><defs><style>.cls-1{fill:none;}.cls-2{fill:#421f5b;}.cls-3{fill:#cb73fe;}.cls-4{clip-path:url(#clip-path);}.cls-5{fill:#fff;}</style><clipPath id="clip-path"><rect class="cls-1" x="23.5" y="24" width="32" height="32"/></clipPath></defs><circle class="cls-2" cx="40.88" cy="41.37" r="38.12"/><circle class="cls-3" cx="38.12" cy="38.63" r="38.12"/><g class="cls-4"><path class="cls-5" d="M42.89,31.3c1.59-1.36,3.28-3.4,3.28-6V24H32.83v1.33c0,2.57,1.69,4.6,3.28,6C29.84,33.53,24.83,41.5,24.83,48a8,8,0,0,0,8,8H46.17a8,8,0,0,0,8-8C54.17,41.5,49.16,33.53,42.89,31.3Zm-7.12-4.63h7.45a9.44,9.44,0,0,1-3.71,3.8,9.45,9.45,0,0,1-3.73-3.8Zm10.4,26.66H32.83A5.33,5.33,0,0,1,27.5,48c0-6.88,6.12-14.64,12-14.64s12,7.76,12,14.64A5.33,5.33,0,0,1,46.17,53.33Zm-9.34-12a1,1,0,0,0,.86,1l4.06.67a3.69,3.69,0,0,1,3.08,3.65,4,4,0,0,1-4,4V52H38.17V50.67a4,4,0,0,1-4-4h2.66A1.34,1.34,0,0,0,38.17,48h2.66a1.34,1.34,0,0,0,1.34-1.33,1,1,0,0,0-.86-1L37.25,45a3.68,3.68,0,0,1-3.08-3.65,4,4,0,0,1,4-4V36h2.66v1.33a4,4,0,0,1,4,4H42.17A1.34,1.34,0,0,0,40.83,40H38.17A1.34,1.34,0,0,0,36.83,41.33Z"/></g></svg>