<svg width="79" height="80" viewBox="0 0 79 80" fill="none" xmlns="http://www.w3.org/2000/svg">
<circle cx="39.5001" cy="40.1523" r="39.5" fill="#CB73FE"/>
<g clip-path="url(#clip0_83_5996)">
<path d="M37.3335 48.6523C37.3335 50.015 37.5988 51.3123 38.0641 52.511L27.5561 44.6523H24.0001V41.9857H28.4441L37.3348 48.6337C37.3348 48.6337 37.3348 48.6457 37.3348 48.6523H37.3335ZM52.3148 27.319L48.3828 25.3523C45.9428 24.1337 42.8441 24.591 40.8641 26.4577L40.0401 27.2337L39.1068 26.383C37.8828 25.267 36.2948 24.6523 34.5868 24.6523C33.5628 24.6523 32.5361 24.895 31.6175 25.3523L27.6855 27.319H24.0001V29.9857H28.3148L32.8081 27.7377C34.1788 27.0523 36.0855 27.239 37.3095 28.3537L38.0908 29.0657L34.5615 32.3883C33.1321 33.8177 32.9028 36.075 34.0308 37.6403C34.7241 38.603 35.7948 39.2097 36.9655 39.3057C37.0748 39.3137 37.1828 39.319 37.2908 39.319C38.3481 39.319 39.3628 38.903 40.0961 38.1683L41.4361 36.8857L43.9641 38.7817C45.0295 38.3457 46.1841 38.0857 47.3895 38.0177L43.3895 35.0177L45.6401 32.863L43.7961 30.9363L38.2308 36.263C37.9548 36.5403 37.5695 36.6857 37.1801 36.6497C36.7841 36.6177 36.4335 36.4177 36.1948 36.0857C35.8295 35.5777 35.9415 34.7843 36.4188 34.3057L42.6921 28.4003C43.8761 27.2857 45.7321 27.011 47.1908 27.7403L51.6855 29.9883H56.0001V27.3217H52.3148V27.319ZM56.0001 48.6523C56.0001 53.0643 52.4121 56.6523 48.0001 56.6523C43.5881 56.6523 40.0001 53.0643 40.0001 48.6523C40.0001 44.2403 43.5881 40.6523 48.0001 40.6523C52.4121 40.6523 56.0001 44.2403 56.0001 48.6523ZM53.3335 48.6523C53.3335 45.711 50.9415 43.319 48.0001 43.319C45.0588 43.319 42.6668 45.711 42.6668 48.6523C42.6668 51.5937 45.0588 53.9857 48.0001 53.9857C50.9415 53.9857 53.3335 51.5937 53.3335 48.6523ZM47.2508 49.083L45.5948 47.479L43.7388 49.3937L45.7855 51.375C46.1761 51.7697 46.6975 51.9857 47.2521 51.9857C47.8068 51.9857 48.3281 51.7697 48.7108 51.387L52.2588 47.9043L50.3908 46.0003L47.2508 49.083Z" fill="white"/>
</g>
<defs>
<clipPath id="clip0_83_5996">
<rect width="32" height="32" fill="white" transform="translate(24.0001 24.6523)"/>
</clipPath>
</defs>
</svg>
