<svg id="Layer_1" data-name="Layer 1" xmlns="http://www.w3.org/2000/svg" xmlns:xlink="http://www.w3.org/1999/xlink" viewBox="0 0 79 78.99"><defs><style>.cls-1{fill:none;}.cls-2{fill:#421f5b;}.cls-3{fill:#cb73fe;}.cls-4{clip-path:url(#clip-path);}.cls-5{fill:#fff;}</style><clipPath id="clip-path" transform="translate(0 -0.51)"><rect class="cls-1" x="23.5" y="24" width="32" height="32"/></clipPath></defs><circle class="cls-2" cx="40.88" cy="40.87" r="38.12"/><circle class="cls-3" cx="38.12" cy="38.12" r="38.12"/><g class="cls-4"><path class="cls-5" d="M36.83,48a10.77,10.77,0,0,0,.73,3.86L27.06,44H23.5V41.33h4.44L36.83,48v0Zm15-21.33-3.93-2a6.75,6.75,0,0,0-7.52,1.11l-.82.77-.93-.85a6.72,6.72,0,0,0-7.49-1l-3.93,2H23.5v2.66h4.31l4.5-2.24a4.15,4.15,0,0,1,4.5.61l.78.71-3.53,3.33A4.1,4.1,0,0,0,33.53,37a4,4,0,0,0,2.94,1.66l.32,0a4,4,0,0,0,2.81-1.15l1.34-1.29,2.52,1.9a10.33,10.33,0,0,1,3.43-.76l-4-3,2.25-2.16L43.3,30.28l-5.57,5.33a1.33,1.33,0,0,1-1,.39,1.31,1.31,0,0,1-1-.57,1.44,1.44,0,0,1,.23-1.78l6.27-5.9a4,4,0,0,1,4.5-.66l4.5,2.25H55.5V26.67ZM55.5,48a8,8,0,1,1-8-8A8,8,0,0,1,55.5,48Zm-2.67,0a5.33,5.33,0,1,0-5.33,5.33A5.33,5.33,0,0,0,52.83,48Zm-6.08.43-1.66-1.6-1.85,1.91,2,2a2.06,2.06,0,0,0,2.92,0l3.55-3.48-1.87-1.9Z" transform="translate(0 -0.51)"/></g></svg>