<svg width="155" height="165" viewBox="0 0 155 165" fill="none" xmlns="http://www.w3.org/2000/svg">
<path d="M103.897 141.808C93.43 143.566 82.9612 145.302 72.4993 147.09C68.0366 147.852 63.5905 148.713 59.1401 149.549C58.3795 149.692 57.6389 149.944 56.8847 150.125C54.4976 150.698 52.1633 151.487 49.7198 151.832C49.21 151.904 48.6683 151.972 48.213 152.193C45.3708 153.575 42.2249 153.753 39.2265 154.508C36.8472 155.107 34.4192 155.525 32.053 156.173C29.9222 156.758 27.7566 157.105 25.5893 157.472C19.8475 158.446 14.104 159.42 8.35536 160.354C7.08523 160.561 5.78364 160.727 4.50443 160.684C2.67888 160.622 0.869724 160.688 -0.896461 161.088C-3.07978 161.584 -5.26186 161.531 -7.4471 161.312C-8.47864 161.209 -9.4898 161.032 -10.5311 161.204C-11.5134 161.366 -12.2456 160.963 -12.89 160.205C-14.2589 158.592 -14.9371 156.634 -15.7257 154.733C-15.8685 154.391 -15.8623 153.978 -15.8886 153.597C-16.2579 148.298 -15.8783 142.592 -15.0554 137.815C-14.9016 136.923 -14.7917 136.023 -14.6395 135.131C-14.0521 131.689 -13.3496 128.287 -12.0459 125.015C-10.4655 121.045 -9.34581 116.941 -8.67284 112.699C-8.35933 110.724 -8.31026 108.817 -8.86093 106.945C-9.81371 103.714 -10.331 100.388 -11.1383 97.1246C-12.3776 92.1084 -13.3742 87.0235 -14.2557 81.9292C-16.6601 68.029 -18.9577 54.1091 -21.2793 40.1934C-21.5559 38.5361 -21.6317 36.8436 -21.9604 35.1984C-22.3036 33.4867 -21.958 31.8497 -21.664 30.2083C-21.4727 29.1389 -20.7936 28.4323 -19.6847 28.0476C-17.112 27.1528 -14.4951 26.5214 -11.8053 26.0796C1.47648 23.8924 14.7519 21.6668 28.0208 19.4029C36.3101 17.9898 44.5863 16.4887 52.8665 15.0214C53.5023 14.908 54.1614 14.8253 54.7558 14.5926C57.1733 13.6434 59.729 13.1749 62.1946 12.4147C65.7931 11.305 69.4538 10.5361 73.1505 9.89408C77.3591 9.16286 81.5777 8.50055 85.7842 7.75656C87.8357 7.39407 89.8895 7.17233 91.9627 7.38886C94.9381 7.7001 97.9117 7.44377 100.883 7.40616C102.167 7.39079 103.45 7.12608 104.728 6.946C107.802 6.51364 110.873 6.05226 113.948 5.62947C115.239 5.45203 116.537 5.51651 117.8 5.85588C118.847 6.13803 119.711 6.69872 119.987 7.82588C120.417 9.58377 120.876 11.34 121.182 13.1204C122.669 21.7944 124.12 30.4762 125.558 39.1585C125.79 40.559 125.883 41.9828 126.049 43.3943C126.489 47.1184 126.929 50.841 127.113 54.5899C127.158 55.4901 127.383 56.3797 127.478 57.2795C127.64 58.8214 127.873 60.3661 127.875 61.9103C127.877 63.735 128.071 65.5227 128.378 67.3111C128.992 70.8812 129.657 74.4443 129.608 78.0913C129.6 78.6031 129.746 79.1154 129.796 79.6305C129.96 81.3509 130.487 82.8775 131.809 84.1048C133.649 85.8131 134.71 88.0591 135.686 90.3046C138.217 96.12 141.286 101.661 144.195 107.285C145.023 108.884 146.059 110.361 147.207 111.785C148.902 113.885 150.475 116.085 151.432 118.688C152.292 121.021 152.791 123.4 153.01 125.848C153.159 127.519 153.196 129.202 153.226 130.88C153.236 131.384 153.115 131.91 152.957 132.395C152.706 133.166 152.196 133.753 151.389 133.974C150.768 134.144 150.126 134.252 149.487 134.359C141.701 135.67 133.922 137.015 126.127 138.271C118.719 139.466 111.296 140.569 103.879 141.711C103.887 141.746 103.892 141.776 103.897 141.808ZM32.8092 103.479C32.8038 103.447 32.7969 103.415 32.7918 103.385C26.1712 104.6 19.5486 105.802 12.9328 107.036C10.1335 107.558 7.36653 108.225 4.67896 109.178C2.2329 110.045 -0.277007 110.659 -2.83135 111.096C-3.59544 111.227 -4.37051 111.343 -5.10627 111.574C-5.42574 111.676 -5.7811 112.003 -5.90447 112.314C-6.14006 112.905 -6.26116 113.552 -6.35966 114.188C-6.65939 116.108 -7.1396 117.979 -7.63711 119.855C-8.3023 122.364 -9.19326 124.79 -10.1207 127.205C-10.7274 128.782 -11.2146 130.377 -11.4715 132.053C-12.002 135.502 -12.6115 138.939 -13.1388 142.388C-13.5098 144.812 -13.2897 147.276 -13.5763 149.714C-13.678 150.575 -13.394 151.504 -13.1575 152.365C-13.0853 152.629 -12.5921 152.936 -12.2853 152.946C-11.5168 152.968 -10.7377 152.876 -9.97601 152.75C-2.43959 151.496 5.0947 150.23 12.6284 148.96C13.3931 148.831 14.179 148.742 14.91 148.501C17.753 147.564 20.6972 147.123 23.6295 146.611C24.6469 146.433 25.6965 146.291 26.6487 145.921C31.7486 143.939 37.0659 142.861 42.4362 141.971C51.5061 140.466 60.5718 138.936 69.6359 137.406C71.9359 137.018 74.2628 136.888 76.572 136.624C81.5834 136.05 86.6206 135.718 91.6221 135.134C98.4313 134.339 105.188 133.096 111.959 131.995C118.861 130.873 125.732 129.547 132.655 128.578C137.447 127.908 141.849 125.922 146.536 124.956C146.66 124.93 146.774 124.859 146.891 124.803C149.63 123.496 150.36 123.152 149.109 119.766C148.29 117.55 147.004 115.611 145.515 113.816C144.017 112.011 142.754 110.054 141.695 107.987C138.809 102.356 135.663 96.854 133.214 91.0037C132.767 89.9363 132.207 88.9061 131.604 87.9175C130.814 86.6254 130.254 86.3257 128.723 86.9273C127.656 87.3477 126.464 87.4707 125.318 87.6647C119.701 88.6209 114.081 89.5563 108.463 90.5029C107.06 90.7401 105.665 90.9791 104.313 91.477C103.35 91.8323 102.307 91.9664 101.298 92.1932C99.7848 92.5343 98.2655 92.8501 96.7571 93.2117C94.4927 93.7527 92.2601 94.4542 89.9726 94.8579C82.3227 96.208 74.6564 97.4803 66.9888 98.725C64.8239 99.077 62.6335 99.4628 60.4313 99.3089C58.7257 99.1899 57.0759 99.4029 55.4157 99.6816C47.8772 100.952 40.3421 102.214 32.8092 103.479ZM127.063 84.5881C127.561 82.993 127.651 81.7305 127.442 80.4229C127.218 79.0194 126.977 77.6008 126.959 76.1857C126.926 73.319 126.412 70.5231 125.924 67.7214C125.522 65.4187 125.302 63.1087 125.259 60.7721C125.239 59.6135 125.087 58.4556 124.965 57.2993C124.856 56.2704 124.678 55.2482 124.579 54.2193C124.257 50.8726 123.961 47.5249 123.647 44.1785C123.551 43.1474 123.487 42.111 123.317 41.0907C121.724 31.5121 120.172 21.9249 118.477 12.3616C117.708 8.01646 117.737 7.99196 113.202 8.23633C112.042 8.29812 110.884 8.46635 109.734 8.63803C108.069 8.88802 106.413 9.1891 104.753 9.46623C101.681 9.97869 96.8094 10.204 93.5531 9.9892C90.5757 9.79318 87.6289 9.86774 84.6748 10.4458C80.7371 11.2169 76.7617 11.7924 72.805 12.4698C70.1261 12.9278 67.4877 13.5481 64.8792 14.3274C61.9081 15.2152 58.8502 15.791 55.9214 16.8522C54.9575 17.2012 53.9078 17.3233 52.8891 17.5025C50.4657 17.9274 48.0361 18.3156 45.6116 18.7342C44.7201 18.8888 43.7971 18.983 42.9553 19.2869C41.2311 19.9079 39.4384 20.1498 37.654 20.451C21.3103 23.2 4.96383 25.9428 -11.3807 28.687C-12.4023 28.8585 -13.4384 28.9733 -14.4408 29.2204C-15.6922 29.529 -16.9227 29.9326 -18.1516 30.326C-18.6733 30.494 -19.0514 30.9005 -19.1559 31.4219C-19.3332 32.3019 -19.5614 33.2101 -19.5058 34.0887C-19.3917 35.893 -19.1705 37.6991 -18.8743 39.4827C-16.4924 53.7872 -14.0862 68.0892 -11.6756 82.3889C-11.4614 83.6643 -11.1914 84.9304 -10.9057 86.1922C-10.3348 88.7126 -9.69929 91.2172 -9.15688 93.744C-8.58611 96.4006 -8.15475 99.0872 -7.5478 101.734C-7.05721 103.874 -6.40088 105.975 -5.8076 108.091C-5.68386 108.535 -5.08284 108.879 -4.57837 108.824C-4.06433 108.767 -3.53238 108.768 -3.04079 108.626C-0.186746 107.804 2.75573 107.294 5.532 106.194C6.24748 105.91 7.00431 105.705 7.75879 105.546C10.9233 104.872 14.0773 104.136 17.2635 103.591C30.1534 101.386 43.0539 99.2344 55.9542 97.0915C57.2251 96.8798 58.5315 96.7228 59.8134 96.762C62.4186 96.8432 64.9811 96.5525 67.5344 96.1288C74.56 94.9607 81.5816 93.7785 88.6037 92.5897C89.6234 92.4169 90.6792 92.302 91.6368 91.9443C94.5671 90.8434 97.6182 90.3048 100.68 89.7727C101.569 89.6186 102.52 89.5294 103.306 89.1381C104.738 88.4251 106.264 88.2197 107.79 87.9619C113.024 87.0748 118.261 86.2072 123.494 85.3154C124.63 85.1182 125.754 84.8555 127.063 84.5881Z" fill="#CB73FE"/>
<path d="M40.2277 135.954C33.8808 137.02 28.646 137.905 23.4082 138.773C22.5172 138.921 21.6172 139.024 20.7157 139.1C20.0069 139.16 19.155 138.486 18.9818 137.796C18.9184 137.546 18.8261 137.299 18.8013 137.043C18.6098 135.101 18.7397 133.167 19.0291 131.244C19.1529 130.417 19.732 129.869 20.5986 129.781C22.9148 129.548 25.2306 129.235 27.5538 129.161C29.1195 129.112 30.6451 128.892 32.1731 128.637C43.0293 126.822 53.8809 124.991 64.7366 123.183C65.8798 122.992 67.0415 122.902 68.1974 122.797C68.6468 122.756 69.2434 123.22 69.3746 123.65C69.8656 125.264 70.1674 126.916 70.1867 128.605C70.194 129.147 69.9165 129.625 69.4506 129.89C68.8946 130.205 68.3061 130.513 67.6926 130.662C65.9329 131.09 64.1369 131.372 62.3862 131.825C54.7283 133.802 46.8751 134.723 40.2277 135.954Z" fill="#CB73FE"/>
<path d="M42.6818 112.591C44.3388 112.313 45.9906 112.005 47.6537 111.773C48.2824 111.685 48.9396 111.728 49.577 111.79C50.2761 111.858 50.8362 112.301 51.0099 112.934C51.6257 115.175 52.1093 117.449 52.1211 119.787C52.1247 120.346 51.7406 120.747 51.2518 120.964C50.7858 121.17 50.2879 121.343 49.7872 121.43C46.6042 121.984 43.4196 122.529 40.2299 123.033C39.6062 123.131 38.9409 123.118 38.3181 123.016C37.9873 122.961 37.5593 122.67 37.4307 122.374C37.126 121.673 36.917 120.917 36.7743 120.165C36.488 118.645 36.2911 117.121 35.4023 115.776C35.0283 115.211 35.5805 114.071 36.2295 113.85C36.7155 113.685 37.2091 113.517 37.7124 113.426C39.3659 113.127 41.0251 112.861 42.682 112.583C42.681 112.586 42.6818 112.591 42.6818 112.591ZM44.3804 119.845C44.3737 119.795 44.3652 119.744 44.3585 119.694C45.76 119.459 47.1618 119.235 48.5607 118.984C49.0593 118.893 49.47 118.338 49.3997 117.871C49.2648 116.979 49.1156 116.09 48.9474 115.206C48.8553 114.726 48.2941 114.316 47.8083 114.394C45.1318 114.827 42.4586 115.279 39.7847 115.728C39.6618 115.749 39.5161 115.79 39.4366 115.874C39.2655 116.057 39.0211 116.264 39.003 116.478C38.9017 117.654 39.1037 118.799 39.5585 119.884C39.6404 120.079 39.9653 120.313 40.158 120.297C41.5663 120.181 42.9724 120.002 44.3804 119.845Z" fill="#CB73FE"/>
<path d="M65.0957 117.716C63.1961 118.035 61.3005 118.378 59.3953 118.663C58.2153 118.84 57.449 118.274 57.2115 117.045C56.9199 115.533 56.6629 114.012 56.4591 112.486C56.2972 111.267 57.3029 109.798 58.4938 109.589C62.2868 108.924 66.09 108.31 69.8935 107.707C70.6401 107.589 71.4479 108.187 71.5898 108.974C71.9582 110.991 72.2788 113.019 72.583 115.045C72.6613 115.561 72.0369 116.368 71.5201 116.525C71.0312 116.673 70.5375 116.822 70.037 116.911C68.3939 117.203 66.745 117.47 65.0976 117.747C65.0995 117.738 65.0976 117.727 65.0957 117.716ZM64.8188 115.323C64.8163 115.309 64.8158 115.296 64.8134 115.281C65.5796 115.153 66.348 115.037 67.1112 114.891C67.7457 114.769 68.3762 114.624 69.0038 114.471C69.4486 114.364 69.9082 113.758 69.8523 113.318C69.7728 112.678 69.6625 112.04 69.5332 111.407C69.4459 110.985 68.799 110.514 68.3693 110.584C65.5625 111.043 62.7601 111.518 59.9565 111.995C59.8384 112.015 59.7086 112.093 59.6286 112.183C59.4623 112.365 59.2397 112.556 59.1913 112.775C58.992 113.69 59.124 114.594 59.6306 115.372C59.8033 115.638 60.2744 115.883 60.5865 115.855C62.002 115.732 63.4089 115.509 64.8188 115.323Z" fill="#CB73FE"/>
<path d="M108.772 122.511C106.859 122.832 104.95 123.182 103.031 123.463C102.081 123.603 101.243 122.951 101.137 121.948C100.936 120.025 100.815 118.094 100.688 116.165C100.659 115.719 101.152 115.114 101.553 114.983C101.797 114.904 102.036 114.792 102.287 114.749C105.347 114.224 108.407 113.701 111.47 113.198C111.977 113.114 112.501 113.102 113.017 113.102C114.574 113.107 115.473 113.801 115.761 115.282C116.009 116.551 116.22 117.828 116.383 119.111C116.554 120.452 115.92 121.302 114.517 121.57C112.612 121.935 110.693 122.224 108.779 122.545C108.776 122.535 108.773 122.522 108.772 122.511ZM103.559 120.354C103.922 120.471 104.178 120.644 104.4 120.61C107.171 120.18 109.936 119.719 112.701 119.259C112.818 119.24 112.95 119.175 113.031 119.089C113.195 118.915 113.43 118.73 113.461 118.523C113.575 117.755 113.531 116.975 113.037 116.34C112.824 116.066 112.402 115.726 112.126 115.766C109.483 116.149 106.845 116.589 104.214 117.06C103.681 117.156 103.334 117.65 103.333 118.176C103.332 118.919 103.479 119.662 103.559 120.354Z" fill="#CB73FE"/>
<path d="M84.3972 112.739C82.8791 112.994 81.3664 113.281 79.843 113.494C78.6002 113.668 77.8156 113.13 77.5673 111.983C77.3238 110.856 77.2309 109.686 76.8988 108.588C76.2301 106.375 77.0499 105.91 78.6435 105.617C81.5439 105.08 84.4588 104.621 87.3713 104.146C87.7451 104.085 88.1372 104.123 88.5206 104.129C89.1704 104.138 89.8279 104.584 90.0064 105.148C90.5529 106.868 90.8203 108.637 90.901 110.437C90.9149 110.765 90.3727 111.563 90.05 111.645C89.1823 111.863 88.3159 112.089 87.4393 112.264C86.4323 112.465 85.4163 112.61 84.4042 112.78C84.4018 112.766 84.3994 112.752 84.3972 112.739ZM83.7137 107.475C83.7041 107.427 83.696 107.38 83.6867 107.334C82.5707 107.588 81.4498 107.824 80.3427 108.112C80.1288 108.167 79.9153 108.392 79.7916 108.593C79.4973 109.069 79.6113 109.611 79.8649 110.027C80.0283 110.296 80.4933 110.583 80.7822 110.544C82.9235 110.257 85.0535 109.893 87.188 109.546C87.3109 109.525 87.4589 109.487 87.5383 109.403C87.789 109.136 88.0715 108.903 88.0481 108.451C87.9945 107.467 87.5222 106.873 86.7323 106.978C85.7191 107.112 84.7178 107.307 83.7137 107.475Z" fill="#CB73FE"/>
<path d="M24.4092 125.798C22.755 125.985 21.1007 126.191 19.4436 126.351C18.8832 126.406 18.1177 125.835 17.9705 125.3C17.7676 124.561 17.5767 123.815 17.442 123.061C17.1931 121.677 17.0118 120.284 16.1429 119.097C15.9339 118.811 16.2902 117.902 16.6184 117.746C16.9586 117.582 17.3022 117.38 17.665 117.312C19.6854 116.94 21.7129 116.601 23.74 116.259C24.1183 116.196 24.5081 116.122 24.8867 116.139C29.8035 116.371 29.6011 116.162 30.3127 120.644C30.4333 121.402 30.4617 122.177 30.4889 122.945C30.5212 123.89 29.9446 124.65 28.9382 124.854C27.4303 125.159 25.9042 125.376 24.3845 125.631C24.3936 125.686 24.4014 125.742 24.4092 125.798ZM23.609 123.319C23.6025 123.271 23.5961 123.223 23.5897 123.175C24.7183 122.985 25.8492 122.81 26.9743 122.6C27.466 122.508 27.8783 121.962 27.8615 121.52C27.7636 119.08 27.2156 118.524 24.8734 118.797C23.3635 118.973 21.8737 119.338 20.3839 119.664C20.1876 119.707 19.949 119.996 19.9011 120.209C19.6716 121.238 19.8942 122.231 20.327 123.166C20.4147 123.357 20.7425 123.559 20.9527 123.55C21.8396 123.515 22.7237 123.404 23.609 123.319Z" fill="#CB73FE"/>
<path d="M85.3306 126.433C83.3001 126.774 81.2728 127.134 79.2388 127.444C78.517 127.554 77.5828 126.926 77.4594 126.25C77.2052 124.863 76.9364 123.467 76.8322 122.064C76.7221 120.568 77.5177 119.607 78.9745 119.33C80.9975 118.944 83.0307 118.609 85.0628 118.278C86.9672 117.968 88.8738 117.681 90.7851 117.412C91.4218 117.324 92.1485 117.791 92.2597 118.394C92.584 120.16 92.8866 121.933 93.1391 123.71C93.244 124.443 92.6172 125.177 91.8031 125.353C90.6722 125.597 89.5306 125.797 88.3898 126.001C87.3764 126.183 86.3598 126.346 85.3446 126.516C85.3397 126.487 85.3352 126.46 85.3306 126.433ZM84.8144 120.826C83.4224 121.06 82.0291 121.276 80.643 121.535C79.5785 121.735 79.2795 122.29 79.5024 123.52C79.639 124.275 80.1162 124.722 80.7776 124.614C83.6872 124.142 86.5932 123.649 89.4952 123.142C89.7216 123.103 89.9271 122.899 90.1249 122.748C90.2166 122.678 90.302 122.56 90.3263 122.451C90.6257 121.126 89.7989 120.024 88.6099 120.195C87.3408 120.379 86.0787 120.614 84.8144 120.826Z" fill="#CB73FE"/>
<path d="M5.79959 130.672C4.78275 130.842 3.76888 131.041 2.74641 131.178C1.37247 131.363 0.609549 130.699 0.474488 129.24C0.426244 128.728 0.322358 128.197 0.406654 127.702C0.713463 125.912 0.798617 124.122 0.697995 122.311C0.653127 121.506 1.26287 120.719 1.97668 120.591C4.26175 120.183 6.54898 119.787 8.84263 119.43C9.87918 119.269 10.9739 120.1 11.0166 121.146C11.1167 123.59 11.1547 126.035 11.1467 128.481C11.1443 129.17 10.6213 129.691 9.96796 129.857C8.59714 130.207 7.19985 130.458 5.8146 130.751C5.81004 130.724 5.80415 130.699 5.79959 130.672ZM5.67681 128.112C6.41581 127.919 7.15962 127.755 7.87914 127.514C8.08423 127.445 8.31568 127.182 8.36678 126.968C8.69326 125.598 8.83824 124.213 8.3704 122.844C8.30176 122.641 8.04824 122.49 7.85939 122.343C7.76883 122.272 7.62429 122.233 7.50881 122.239C6.24224 122.31 4.87149 122.26 3.84579 123.033C2.79243 123.827 3.55035 125.193 3.27516 126.272C3.18193 126.635 3.15764 127.019 3.12402 127.395C3.09275 127.727 3.48872 128.199 3.78435 128.19C4.41154 128.172 5.04112 128.139 5.67681 128.112Z" fill="#CB73FE"/>
<path d="M104.487 100.391C106.409 100.139 108.329 99.8724 110.255 99.6442C110.844 99.5748 111.603 100.127 111.743 100.675C112.161 102.303 112.536 103.941 112.478 105.641C112.463 106.087 112.02 106.704 111.613 106.835C111.246 106.954 110.88 107.101 110.502 107.158C107.687 107.578 104.868 107.979 102.05 108.383C101.795 108.419 101.536 108.43 101.278 108.447C100.519 108.494 99.6964 107.953 99.4848 107.24C99.3376 106.744 99.2592 106.229 99.0966 105.739C98.8538 105.007 98.5784 104.285 98.2954 103.568C97.8217 102.368 98.2008 101.606 99.5241 101.344C101.175 101.018 102.841 100.776 104.501 100.497C104.497 100.462 104.491 100.426 104.487 100.391ZM105.83 105.332C105.828 105.302 105.825 105.273 105.823 105.242C106.963 105.05 108.106 104.881 109.235 104.644C109.408 104.609 109.584 104.267 109.634 104.039C109.816 103.207 109.178 102.417 108.389 102.541C106.362 102.861 104.341 103.232 102.321 103.593C102.206 103.613 102.114 103.74 101.999 103.786C101.754 103.881 101.523 104.478 101.65 104.788C101.794 105.138 101.971 105.575 102.399 105.562C103.544 105.531 104.685 105.416 105.83 105.332Z" fill="#CB73FE"/>
<path d="M123.551 96.3959C124.826 96.1817 126.098 95.9354 127.379 95.7646C128.386 95.6301 129.25 96.1972 129.426 97.1148C129.717 98.6365 129.961 100.168 130.181 101.702C130.284 102.423 129.692 103.294 128.936 103.454C126.913 103.88 124.88 104.254 122.844 104.619C122.211 104.732 121.561 104.769 120.917 104.798C120.132 104.833 119.351 104.277 119.166 103.536C118.948 102.659 118.801 101.764 118.582 100.887C118.395 100.139 118.141 99.4066 117.932 98.6621C117.833 98.3077 118.266 97.4703 118.618 97.38C119.618 97.1252 120.621 96.8861 121.629 96.6693C122.261 96.5337 122.903 96.4504 123.542 96.3432C123.545 96.3591 123.548 96.3767 123.551 96.3959ZM124.741 101.678C125.273 101.539 126.016 101.374 126.739 101.142C126.954 101.073 127.165 100.856 127.282 100.652C127.559 100.171 127.439 99.6297 127.18 99.2218C127.011 98.9564 126.562 98.7297 126.236 98.7253C124.703 98.7053 123.2 98.9578 121.762 99.5061C121.563 99.5821 121.384 99.8732 121.317 100.1C121.047 101.015 121.78 102.009 122.634 101.923C123.267 101.861 123.896 101.777 124.741 101.678Z" fill="#CB73FE"/>
<path d="M127.235 110.383C129.017 110.084 130.794 109.752 132.582 109.499C133.618 109.353 134.736 110.086 134.952 111.081C135.252 112.461 135.465 113.865 135.653 115.266C135.751 116.006 135.115 116.891 134.438 117.054C133.686 117.236 132.926 117.393 132.162 117.518C129.36 117.974 126.555 118.422 123.747 118.846C123.092 118.944 122.239 118.26 122.075 117.492C121.727 115.855 121.432 114.206 121.121 112.559C121.099 112.436 121.092 112.281 121.147 112.177C121.264 111.954 121.382 111.683 121.58 111.559C121.901 111.36 122.275 111.2 122.646 111.131C124.169 110.849 125.699 110.607 127.227 110.35C127.232 110.364 127.234 110.374 127.235 110.383ZM128.228 115.638C128.224 115.616 128.22 115.593 128.216 115.571C129.49 115.357 130.768 115.169 132.036 114.92C132.793 114.772 133.072 114.05 132.853 113.046C132.74 112.53 132.237 112.099 131.761 112.177C129.467 112.551 127.175 112.936 124.883 113.326C124.765 113.346 124.624 113.412 124.555 113.502C124.406 113.698 124.23 113.911 124.185 114.142C123.965 115.238 124.737 116.257 125.933 116.027C126.694 115.879 127.461 115.767 128.228 115.638Z" fill="#CB73FE"/>
<path d="M5.56373 133.375C6.96369 133.14 8.36227 132.887 9.76652 132.678C10.5157 132.565 11.2651 133.06 11.574 133.834C11.7157 134.189 11.8849 134.571 11.881 134.939C11.8594 136.883 11.548 138.791 10.9733 140.647C10.8179 141.149 10.3937 141.614 9.86098 141.599C7.25307 141.521 4.74692 142.197 2.19539 142.533C1.94157 142.566 1.68239 142.567 1.42535 142.58C0.540076 142.625 -0.315966 141.76 -0.230335 140.823C-0.076653 139.158 0.118557 137.495 0.320676 135.834C0.52438 134.164 0.735202 133.992 2.48986 133.749C3.51153 133.607 4.52595 133.412 5.54439 133.241C5.54843 133.284 5.55623 133.331 5.56373 133.375ZM8.73142 138.732C8.88248 137.99 9.06865 137.251 9.17393 136.5C9.24728 135.979 8.72322 135.428 8.25257 135.499C6.73366 135.729 5.21339 135.962 3.70653 136.254C3.1678 136.359 2.88632 136.843 2.77012 137.363C2.68781 137.733 2.65605 138.121 2.65411 138.5C2.64999 139.287 3.11605 139.795 3.76978 139.72C5.42046 139.531 7.08344 139.396 8.73142 138.732Z" fill="#CB73FE"/>
<path d="M-3.7587 78.8849C-4.59409 73.9092 -5.44862 68.9368 -6.25687 63.9565C-6.61046 61.7821 -7.09677 59.648 -7.74884 57.5433C-9.01052 53.4697 -10.0522 49.3379 -10.8967 45.1581C-11.1055 44.1296 -11.4303 43.1829 -11.9239 42.2564C-12.3248 41.5014 -11.7344 40.3256 -10.8901 40.046C-8.56049 39.2774 -6.24922 38.4872 -3.79512 38.1178C-0.729362 37.6573 2.32318 37.0594 5.34395 36.3602C7.60308 35.8365 9.82393 35.114 12.0227 34.3674C13.3798 33.9065 14.7519 33.5842 16.1569 33.3499C24.9613 31.8766 33.7631 30.3874 42.5699 28.9285C43.8411 28.7183 45.1375 28.6582 46.4183 28.5056C47.7008 28.3526 48.9864 28.209 50.2605 27.9967C60.5969 26.2728 70.9265 24.509 81.2663 22.8058C89.6895 21.4179 98.1221 20.0956 106.552 18.7508C107.189 18.6489 107.833 18.5686 108.477 18.5409C109.693 18.4894 110.779 19.2968 111.057 20.458C111.24 21.212 111.376 21.9769 111.505 22.7415C112.731 30.0134 113.972 37.2827 115.156 44.56C115.509 46.7265 115.835 48.9153 115.92 51.1037C115.992 52.9267 116.251 54.705 116.547 56.4886C117.437 61.849 118.356 67.2046 119.233 72.5671C119.442 73.8401 119.562 75.1298 119.661 76.4163C119.725 77.2329 119.154 77.9787 118.401 78.1363C117.262 78.3734 116.116 78.584 114.968 78.7767C106.676 80.1738 98.3746 81.5248 90.0928 82.9727C85.641 83.7513 81.2373 84.7287 76.9674 86.2974C74.9219 87.0479 72.8209 87.7699 70.6187 88.0363C70.2358 88.0825 69.8367 88.1397 69.4835 88.2843C66.6961 89.4252 63.7243 89.742 60.7938 90.2357C48.1638 92.366 35.5326 94.4785 22.9018 96.604C20.2219 97.0556 17.5363 97.4245 14.8158 97.5365C13.6586 97.5848 12.5039 97.795 11.3562 97.9779C8.4187 98.4497 5.4871 98.9666 2.5472 99.424C1.92011 99.5211 1.25219 99.5216 0.628847 99.4162C0.309726 99.3631 -0.107087 99.031 -0.209895 98.7315C-0.503356 97.883 -0.708007 96.9965 -0.858616 96.1093C-1.83888 90.3685 -2.79494 84.6252 -3.7587 78.8849ZM60.494 28.7684C60.4988 28.7972 60.5017 28.8246 60.5065 28.8533C54.3702 29.7851 48.2275 30.6687 42.1011 31.6595C34.0573 32.9608 26.0306 34.3741 17.9873 35.6785C15.2968 36.1155 12.6631 36.7448 10.0732 37.567C6.00314 38.8592 1.86378 39.8562 -2.34567 40.5629C-3.36571 40.7342 -4.3919 40.8786 -5.4047 41.093C-6.16077 41.2527 -6.90399 41.4793 -7.64001 41.7194C-8.48829 41.9947 -8.78114 42.5478 -8.65942 43.5269C-8.62772 43.7842 -8.61329 44.046 -8.55019 44.2947C-7.60956 48.0497 -6.75486 51.8305 -5.68122 55.5467C-5.07171 57.6618 -4.44599 59.7561 -4.08415 61.9308C-2.40497 72.0104 -0.706667 82.0867 0.988471 92.1637C1.18117 93.3114 1.38345 94.4575 1.60808 95.5999C1.77782 96.4643 2.35386 96.8452 3.30821 96.703C4.97186 96.4549 6.62881 96.1767 8.28818 95.903C11.3483 95.3991 14.3969 94.8462 17.5142 94.7315C19.3151 94.6655 21.1171 94.4007 22.8991 94.1048C36.0418 91.9196 49.1794 89.704 62.3185 87.498C64.2309 87.1769 66.1441 86.9 67.9355 86.0642C68.622 85.7438 69.4269 85.6497 70.1883 85.5218C71.5963 85.2855 72.9542 84.9179 74.3046 84.4368C76.615 83.6123 78.9401 82.787 81.3173 82.2041C84.2021 81.4965 87.1387 80.9903 90.0676 80.4871C97.5891 79.1931 105.12 77.9534 112.644 76.6836C113.79 76.4896 114.932 76.265 116.071 76.031C116.706 75.8999 117.104 75.2799 117.009 74.5719C116.872 73.5463 116.716 72.5235 116.545 71.5035C115.672 66.2732 114.776 61.0451 113.924 55.8113C113.675 54.2823 113.522 52.7372 113.356 51.1977C113.119 49.0152 113.017 46.8133 112.67 44.6492C111.588 37.88 110.422 31.1232 109.279 24.3642C109.151 23.6011 108.967 22.8475 108.791 22.0941C108.686 21.644 108.115 21.2639 107.608 21.2932C107.093 21.3239 106.574 21.3421 106.067 21.4206C97.5079 22.7526 88.9471 24.0635 80.3956 25.4402C73.7549 26.5059 67.1282 27.6546 60.494 28.7684Z" fill="#CB73FE"/>
<path d="M46.7211 23.3963C46.7114 23.0352 46.6983 22.7814 46.6983 22.527C46.6982 22.0477 47.061 21.4715 47.5055 21.3525C47.9908 21.2218 48.4936 21.098 48.9933 21.083C49.7645 21.0619 50.5182 21.6313 50.6926 22.3668C50.8068 22.8515 50.8556 23.3768 50.8088 23.8704C50.742 24.5677 50.2521 25.0029 49.6177 25.2226C48.8761 25.4784 48.1162 25.5863 47.4633 24.9918C47.2811 24.8254 47.1124 24.6125 47.0187 24.3869C46.8736 24.0404 46.797 23.6626 46.7211 23.3963Z" fill="#CB73FE"/>
<path d="M17.3943 66.9006C16.4876 61.9402 15.5618 56.9829 14.6851 52.0158C14.3928 50.3629 14.2187 48.6901 14.0078 47.0235C13.9471 46.5446 14.3522 45.9563 14.7927 45.8331C15.288 45.6941 15.7823 45.5291 16.2875 45.4492C18.3359 45.1266 20.3505 44.7013 22.3101 43.9965C23.1538 43.694 24.065 43.559 24.956 43.4111C30.1869 42.5411 35.4207 41.6886 40.6521 40.8316C41.4172 40.7064 42.1794 40.544 42.9505 40.4638C47.5782 39.9806 52.1995 39.3803 56.8392 39.0855C61.2402 38.8062 65.5691 38.0778 69.9106 37.4145C75.1513 36.6134 80.3749 35.6904 85.6014 34.7949C87.9451 34.3932 88.4499 34.6728 89.0138 37.1517C91.7408 49.1414 93.2833 61.3399 95.4474 73.4275C95.8977 75.9435 95.5582 76.3747 93.0722 76.8085C89.2518 77.4762 85.4318 78.1668 81.5404 78.2752C81.4114 78.2788 81.2805 78.2811 81.1544 78.3023C75.42 79.2815 69.6564 80.126 63.9581 81.2814C58.6408 82.3596 53.3831 83.7249 48.0208 84.6038C40.4905 85.8353 32.9706 87.129 25.4416 88.3783C24.4261 88.5472 23.3954 88.6644 22.3688 88.7087C21.8342 88.7312 21.3604 88.3627 21.1679 87.8714C20.8887 87.1567 20.6659 86.4063 20.5344 85.6521C19.8879 81.9577 19.2796 78.257 18.6571 74.5586C18.2288 72.0077 17.8005 69.4568 17.3722 66.9059C17.3783 66.9032 17.3863 66.9019 17.3943 66.9006ZM53.0346 50.0054C42.9476 51.699 32.8617 53.389 22.7757 55.089C21.628 55.2817 20.4859 55.5079 19.3464 55.7501C18.6968 55.8887 18.1882 56.5551 18.2589 57.1522C18.3657 58.0517 18.4804 58.9499 18.635 59.8415C19.3924 64.177 20.1738 68.5085 20.9262 72.8432C21.501 76.159 22.0425 79.482 22.6047 82.8015C22.7135 83.4397 22.8271 84.0772 22.9628 84.7093C23.1661 85.6567 23.7034 86.0802 24.5683 85.9727C25.2098 85.8929 25.85 85.7953 26.4885 85.6881C34.4048 84.3606 42.3252 83.0571 50.2343 81.6865C53.0334 81.2018 55.8806 80.8862 58.5403 79.7668C58.893 79.6189 59.2899 79.5687 59.6725 79.5012C66.5559 78.2881 73.4394 77.0749 80.3258 75.8793C81.088 75.7464 81.8722 75.7346 82.6433 75.6445C85.3412 75.3294 88.0383 75.0194 90.7309 74.6724C91.2321 74.6079 91.7295 74.4128 92.1909 74.1991C92.3904 74.1065 92.5979 73.8271 92.6269 73.6089C92.6952 73.1067 92.7292 72.5758 92.6474 72.079C91.2668 63.7777 89.8687 55.4793 88.466 47.1834C88.4027 46.8066 88.3221 46.3951 88.1148 46.0885C87.918 45.7966 87.5709 45.4888 87.244 45.4288C86.7543 45.337 86.2211 45.4266 85.7108 45.486C81.727 45.953 77.7545 46.5264 73.7613 46.8784C69.6273 47.2426 65.5441 47.9002 61.4602 48.5924C58.6526 49.0655 55.8425 49.534 53.0346 50.0054ZM44.547 48.8487C51.8149 47.6284 59.0829 46.4082 66.3509 45.1879C67.2432 45.0381 68.1369 44.8963 69.0265 44.7305C69.4054 44.6603 69.8082 44.596 70.1379 44.4192C70.457 44.2474 70.7596 43.9865 70.7167 43.5161C70.4052 40.0478 70.2593 39.9509 67.0322 40.3893C66.0084 40.5283 64.9755 40.623 63.9597 40.8001C61.4099 41.2446 58.8381 41.4696 56.2633 41.7065C51.2459 42.1665 46.2272 42.6677 41.2348 43.3451C35.9841 44.0576 30.7638 44.9899 25.5324 45.837C24.8966 45.9405 24.2383 46.028 23.6465 46.2669C21.8312 47 19.9277 47.3443 18.0206 47.6973C17.7692 47.7444 17.5038 47.8152 17.2953 47.952C17.0914 48.0863 16.8197 48.3059 16.8026 48.5074C16.6827 49.944 16.9441 51.3346 17.5149 52.6519C17.5984 52.8463 17.9313 53.0596 18.1402 53.0524C19.0393 53.0213 19.9445 52.9678 20.831 52.8223C28.7367 51.5097 36.6421 50.1758 44.547 48.8487ZM78.6552 41.0688C78.5077 40.5717 78.366 40.0801 78.2135 39.592C78.0818 39.1693 77.4671 38.7834 76.9938 38.8481C76.1015 38.9683 75.2061 39.0809 74.3215 39.2475C73.1823 39.4617 72.7974 40.0138 72.9409 41.1321C72.9903 41.5144 73.0463 41.8973 73.1168 42.2777C73.387 43.7407 73.6807 44.2872 75.4246 44.1946C76.3211 44.1475 77.2139 44.0009 78.098 43.841C78.5074 43.7673 78.7172 43.3841 78.728 42.9983C78.7466 42.3567 78.6831 41.7141 78.6552 41.0688Z" fill="#CB73FE"/>
<path d="M54.6616 58.6869C46.8908 59.9916 39.1198 61.3045 31.3457 62.59C30.3379 62.7559 29.3058 62.7963 28.2835 62.8563C27.8186 62.8835 27.242 62.2942 27.3367 61.8417C27.4087 61.4981 27.5704 61.1115 27.8194 60.8843C28.0884 60.6389 28.4924 60.4939 28.8614 60.4139C29.8705 60.1969 30.8908 60.0272 31.9108 59.8559C46.8152 57.3519 61.7215 54.8493 76.6265 52.3484C77.6449 52.1775 78.6644 52.003 79.6898 51.8834C80.0583 51.8395 80.4589 51.9085 80.822 52.0084C81.192 52.1104 81.4696 52.356 81.6068 52.763C81.7633 53.2258 81.5007 53.5292 81.2352 53.7756C80.9654 54.0261 80.6093 54.2517 80.2568 54.3322C79.2518 54.5633 78.2288 54.7268 77.2104 54.8978C69.6958 56.1644 62.1786 57.4249 54.6616 58.6869Z" fill="#CB73FE"/>
<path d="M55.6003 62.9694C63.004 61.7263 70.406 60.4737 77.8129 59.2498C78.9548 59.0614 80.1157 58.9863 81.2705 58.8942C81.75 58.8564 82.2325 59.3646 82.2943 59.8597C82.3548 60.3469 81.9922 60.9445 81.5645 61.0852C81.1974 61.2059 80.8336 61.3458 80.4574 61.4221C79.6973 61.5776 78.9305 61.703 78.1643 61.8317C63.3573 64.3193 48.55 66.8054 33.7406 69.2885C32.8482 69.4384 31.953 69.5903 31.0524 69.6808C30.6812 69.7185 30.2662 69.6618 29.9212 69.5228C29.5833 69.3874 29.2845 69.1422 29.2416 68.6816C29.2006 68.2421 29.3666 67.881 29.6758 67.6896C30.1055 67.4238 30.6023 67.2254 31.0982 67.1192C32.2358 66.8757 33.3894 66.6984 34.5388 66.5055C41.5574 65.3254 48.5782 64.1483 55.6003 62.9694Z" fill="#CB73FE"/>
<path d="M56.8743 73.6554C49.2296 74.9389 41.5846 76.2306 33.9366 77.495C32.9272 77.6612 31.8941 77.7247 30.8699 77.7538C30.4891 77.7636 30.1979 77.4366 30.1008 77.0246C29.9925 76.5651 30.3234 75.8186 30.6764 75.7019C31.0434 75.5811 31.4092 75.4426 31.7857 75.3679C32.6721 75.1928 33.5652 75.0478 34.4575 74.898C49.1113 72.4361 63.7654 69.9757 78.4203 67.5202C79.5664 67.3277 80.716 67.1659 81.8692 67.0248C82.1009 66.9974 82.4102 67.0604 82.5823 67.2054C82.8575 67.4366 83.1994 67.7534 83.2339 68.0661C83.268 68.3771 83.0449 68.8561 82.7819 69.0299C82.3679 69.3013 81.8372 69.4347 81.3375 69.5284C79.6873 69.8367 78.0285 70.1037 76.3718 70.3835C69.8713 71.4732 63.3728 72.5643 56.8743 73.6554Z" fill="#CB73FE"/>
<path d="M76.0458 42.7887C75.5011 42.7899 74.9795 42.4015 74.9319 41.9614C74.8622 41.3019 75.4071 40.5785 75.9468 40.6159C76.6263 40.6643 77.1392 41.2363 77.0678 41.8671C77.0088 42.3858 76.5612 42.7892 76.0458 42.7887Z" fill="#CB73FE"/>
</svg>
