<svg width="166" height="66" viewBox="0 0 166 66" fill="none" xmlns="http://www.w3.org/2000/svg">
<rect x="0.331299" y="13.8176" width="162" height="52" rx="12" transform="rotate(-4.5675 0.331299 13.8176)" fill="#CB73FE"/>
<path d="M23.9058 43.0601L23.58 38.9811L28.4156 38.5948C29.841 38.4809 30.881 38.0999 31.5355 37.4517C32.1899 36.8036 32.4611 35.7777 32.349 34.3742C32.2509 33.1461 31.8474 32.2403 31.1387 31.6569C30.452 31.0718 29.4068 30.8352 28.0033 30.9474L22.9703 31.3494L22.6471 27.3033L27.8445 26.8881C29.248 26.776 30.5222 26.8397 31.6669 27.0793C32.8335 27.3172 33.8488 27.7326 34.7128 28.3257C35.575 28.8969 36.2548 29.6702 36.752 30.6457C37.2695 31.5975 37.5816 32.7423 37.6885 34.08C37.8251 35.7906 37.5452 37.2585 36.8485 38.4839C36.1738 39.7075 35.0926 40.6767 33.6048 41.3915C32.1389 42.1045 30.2656 42.5521 27.9848 42.7343L23.9058 43.0601ZM20.4999 49.3242L18.7654 27.6134L24.0616 27.1903L25.796 48.9012L20.4999 49.3242ZM41.6001 47.6386L40.9562 39.5793L40.2125 30.2699L44.5547 29.9231L45.1238 35.8034L45.7817 35.7509C45.8126 34.2035 46.0004 32.9636 46.3453 32.0312C46.7103 31.0751 47.2709 30.3571 48.0271 29.8774C48.8052 29.3959 49.7864 29.1078 50.9706 29.0132C51.1461 28.9992 51.3443 28.9944 51.5654 28.9988C51.7847 28.9813 52.0386 28.9831 52.3272 29.0042L52.5818 34.6779C52.2169 34.5305 51.8244 34.4515 51.4042 34.441C51.0042 34.4067 50.6507 34.4018 50.3437 34.4264C49.4884 34.4947 48.7559 34.7187 48.1462 35.0985C47.5585 35.4765 47.1053 36.0203 46.7868 36.7299C46.4903 37.4378 46.3283 38.3115 46.301 39.3509L46.9291 47.2129L41.6001 47.6386ZM64.3112 46.2878C62.5567 46.4279 60.9726 46.2124 59.5586 45.6412C58.1665 45.0682 57.0324 44.1325 56.1562 42.8342C55.2801 41.5358 54.7605 39.8669 54.5976 37.8274C54.4347 35.7879 54.6835 34.0686 55.3442 32.6696C56.0032 31.2486 56.9862 30.1548 58.2933 29.3883C59.5986 28.5999 61.1285 28.1355 62.8829 27.9954C64.6373 27.8552 66.2215 28.0708 67.6355 28.642C69.0495 29.2132 70.1946 30.148 71.0708 31.4463C71.9452 32.7227 72.4639 34.3807 72.6268 36.4202C72.7932 38.5036 72.536 40.2566 71.8551 41.6794C71.1743 43.1021 70.1693 44.1976 68.8403 44.9659C67.5314 45.7105 66.0217 46.1511 64.3112 46.2878ZM64.1682 42.4259C64.9577 42.3628 65.6015 42.1348 66.0998 41.7419C66.5964 41.327 66.9464 40.7363 67.15 39.9696C67.3536 39.203 67.4116 38.2714 67.324 37.1749C67.2312 36.0126 67.0107 35.0481 66.6625 34.2814C66.3126 33.4927 65.8359 32.9129 65.2324 32.5417C64.6491 32.1469 63.9189 31.9846 63.0417 32.0546C62.2961 32.1142 61.664 32.3523 61.1456 32.7689C60.6473 33.1618 60.2963 33.7416 60.0927 34.5083C59.8891 35.2749 59.832 36.2175 59.9214 37.3359C60.065 39.1342 60.5017 40.4566 61.2314 41.3032C61.9831 42.148 62.962 42.5222 64.1682 42.4259ZM84.6504 44.6629C83.1592 44.782 81.8267 44.6788 80.6531 44.3532C79.4794 44.0277 78.4781 43.5118 77.6493 42.8055C76.8186 42.0774 76.1512 41.1817 75.6469 40.1185C75.1646 39.0535 74.8691 37.8412 74.7605 36.4815C74.6484 35.078 74.7441 33.7902 75.0478 32.6183C75.3733 31.4447 75.8866 30.4105 76.5876 29.5159C77.2886 28.6212 78.1808 27.9099 79.2642 27.3819C80.3458 26.8321 81.6103 26.4993 83.0577 26.3837C84.5051 26.2681 85.7735 26.3985 86.863 26.7749C87.9524 27.1513 88.8593 27.73 89.5838 28.5107C90.3302 29.2898 90.8679 30.2179 91.1967 31.2951L86.4267 33.3315C86.3031 32.613 86.0803 32.0349 85.7585 31.5972C85.4366 31.1594 85.0375 30.8602 84.5612 30.6997C84.1051 30.5154 83.6138 30.4443 83.0875 30.4863C82.5393 30.5301 82.0656 30.6783 81.6664 30.9309C81.2673 31.1835 80.9427 31.5405 80.6926 32.0019C80.4425 32.4632 80.2662 33.0181 80.1635 33.6663C80.059 34.2926 80.0392 35.0115 80.104 35.8229C80.1969 36.9852 80.4174 37.9497 80.7655 38.7164C81.1339 39.4594 81.6189 40.0055 82.2206 40.3547C82.8443 40.7022 83.5728 40.8426 84.4061 40.776C85.2614 40.7077 85.9162 40.4788 86.3707 40.0894C86.8251 39.7 87.1418 39.2443 87.3208 38.7224C87.4981 38.1785 87.5885 37.6527 87.5921 37.1448L92.2789 37.7966C92.256 38.615 92.0997 39.422 91.8102 40.2176C91.5408 40.9895 91.1008 41.6978 90.4902 42.3425C89.8778 42.9652 89.0914 43.4805 88.1308 43.8883C87.1921 44.2943 86.032 44.5525 84.6504 44.6629ZM103.509 43.1564C102.061 43.272 100.753 43.1889 99.5826 42.9072C98.4107 42.6036 97.3892 42.1114 96.5182 41.4306C95.6692 40.748 94.9925 39.8751 94.4883 38.8119C93.984 37.7487 93.6749 36.5043 93.561 35.0789C93.4507 33.6973 93.5464 32.4096 93.8483 31.2157C94.1721 30.0202 94.6736 28.9759 95.3526 28.083C96.0519 27.1664 96.9313 26.434 97.991 25.8859C99.0727 25.336 100.304 25.0059 101.686 24.8955C103.089 24.7834 104.336 24.9156 105.425 25.292C106.535 25.6448 107.465 26.2326 108.215 27.0555C108.986 27.8766 109.588 28.91 110.018 30.1557C110.447 31.3794 110.671 32.8071 110.691 34.4387L97.1136 35.6227L96.8929 32.8595L107.444 31.9173L105.672 33.35C105.738 32.2412 105.601 31.3583 105.262 30.7012C104.92 30.0222 104.463 29.5511 103.891 29.2879C103.316 29.0027 102.711 28.8856 102.075 28.9364C101.307 28.9977 100.644 29.2603 100.085 29.7243C99.5485 30.1865 99.1471 30.8255 98.8812 31.6413C98.6153 32.4571 98.5279 33.4351 98.619 34.5755C98.7627 36.3738 99.2507 37.648 100.083 38.398C100.937 39.1464 101.968 39.4724 103.174 39.376C103.766 39.3287 104.253 39.2126 104.636 39.0275C105.016 38.8205 105.318 38.5868 105.54 38.3263C105.782 38.0421 105.956 37.7412 106.063 37.4237C106.192 37.1044 106.289 36.7987 106.354 36.5066L111.039 37.1256C110.928 37.951 110.702 38.7085 110.359 39.3979C110.039 40.0856 109.569 40.6969 108.95 41.232C108.352 41.7652 107.603 42.1893 106.701 42.5041C105.823 42.8391 104.759 43.0565 103.509 43.1564ZM121.825 41.6931C120.663 41.786 119.601 41.7604 118.641 41.6165C117.682 41.4944 116.836 41.2641 116.103 40.9254C115.369 40.5867 114.75 40.1616 114.246 39.6502C113.762 39.115 113.405 38.5145 113.175 37.8487L116.983 35.7899C117.167 36.1505 117.46 36.5132 117.865 36.8782C118.289 37.2195 118.829 37.4853 119.484 37.6758C120.162 37.8644 120.961 37.922 121.882 37.8484C122.759 37.7783 123.429 37.6034 123.892 37.3236C124.376 37.0202 124.598 36.6272 124.56 36.1447C124.532 35.7939 124.367 35.5311 124.066 35.3565C123.786 35.1582 123.365 35.0042 122.805 34.8945C122.242 34.7629 121.549 34.6527 120.726 34.564C119.878 34.4552 119.018 34.3252 118.145 34.1743C117.271 34.0014 116.445 33.7473 115.668 33.4121C114.889 33.055 114.243 32.5659 113.73 31.9448C113.237 31.3 112.949 30.4623 112.867 29.4315C112.781 28.357 112.992 27.4022 113.499 26.5671C114.004 25.7102 114.798 25.0067 115.879 24.4569C116.983 23.9052 118.346 23.5646 119.969 23.4349C121.416 23.3193 122.703 23.4041 123.829 23.6893C124.956 23.9745 125.909 24.4391 126.689 25.0831C127.488 25.7033 128.07 26.4846 128.432 27.4267L124.309 29.2789C124.161 28.8052 123.897 28.4069 123.518 28.0841C123.161 27.7594 122.713 27.5304 122.172 27.3971C121.652 27.24 121.041 27.1895 120.34 27.2455C119.484 27.3139 118.826 27.4989 118.365 27.8006C117.925 28.1005 117.723 28.4698 117.758 28.9084C117.786 29.2593 117.963 29.5431 118.289 29.7598C118.636 29.9528 119.111 30.1024 119.716 30.2086C120.32 30.3148 121.035 30.4233 121.86 30.5339C122.73 30.641 123.591 30.7819 124.443 30.9565C125.316 31.1075 126.108 31.3532 126.819 31.6936C127.551 32.0104 128.139 32.471 128.585 33.0754C129.051 33.6562 129.323 34.44 129.402 35.4269C129.495 36.5891 129.268 37.6225 128.723 38.5268C128.175 39.4092 127.317 40.1288 126.147 40.6857C124.998 41.2189 123.557 41.5547 121.825 41.6931ZM140.168 40.2278C139.005 40.3206 137.944 40.2951 136.984 40.1511C136.025 40.0291 135.179 39.7987 134.445 39.46C133.712 39.1213 133.093 38.6963 132.589 38.1848C132.105 37.6497 131.748 37.0492 131.518 36.3834L135.326 34.3246C135.51 34.6851 135.803 35.0479 136.208 35.4128C136.632 35.7541 137.172 36.02 137.827 36.2104C138.505 36.3991 139.304 36.4566 140.225 36.383C141.102 36.3129 141.772 36.138 142.235 35.8582C142.719 35.5548 142.941 35.1618 142.903 34.6794C142.875 34.3285 142.71 34.0657 142.409 33.8912C142.129 33.6929 141.708 33.5389 141.147 33.4292C140.585 33.2975 139.892 33.1874 139.069 33.0987C138.221 32.9898 137.361 32.8599 136.488 32.7089C135.614 32.536 134.788 32.282 134.011 31.9468C133.232 31.5897 132.586 31.1006 132.073 30.4794C131.58 29.8347 131.292 28.9969 131.21 27.9662C131.124 26.8916 131.335 25.9368 131.842 25.1018C132.347 24.2448 133.141 23.5414 134.222 22.9915C135.326 22.4399 136.689 22.0992 138.312 21.9696C139.759 21.8539 141.046 21.9387 142.172 22.224C143.299 22.5092 144.252 22.9738 145.031 23.6177C145.831 24.238 146.412 25.0192 146.775 25.9613L142.652 27.8135C142.504 27.3398 142.24 26.9415 141.861 26.6187C141.504 26.2941 141.056 26.0651 140.515 25.9317C139.995 25.7746 139.384 25.7241 138.683 25.7802C137.827 25.8485 137.169 26.0335 136.707 26.3352C136.268 26.6352 136.066 27.0044 136.101 27.443C136.129 27.7939 136.306 28.0777 136.632 28.2944C136.979 28.4874 137.454 28.6371 138.058 28.7433C138.663 28.8495 139.378 28.9579 140.203 29.0685C141.072 29.1756 141.933 29.3165 142.786 29.4912C143.659 29.6421 144.451 29.8879 145.162 30.2283C145.894 30.545 146.482 31.0056 146.928 31.6101C147.394 32.1908 147.666 32.9746 147.745 33.9615C147.838 35.1238 147.611 36.1571 147.065 37.0614C146.518 37.9438 145.66 38.6635 144.49 39.2204C143.341 39.7536 141.9 40.0894 140.168 40.2278Z" fill="white"/>
</svg>
