<svg width="140" height="180" viewBox="0 0 140 180" fill="none" xmlns="http://www.w3.org/2000/svg">
<g filter="url(#filter0_d_83_6054)">
<path d="M139.529 124.366C139.04 120.453 141.473 116.768 145.263 115.681L159.423 111.623C166.062 109.72 167.333 100.865 161.496 97.1721L129.058 76.6492C125.433 74.3556 124.262 69.6109 126.404 65.8941L145.571 32.635C149.019 26.6514 143.775 19.4036 137.013 20.8075L122.591 23.8019C118.731 24.6034 114.862 22.4732 113.475 18.7827L108.436 5.36924C106.058 -0.958581 97.3908 -1.66833 94.0156 4.18842L76.9401 33.8182C74.6693 37.7585 69.5748 39.0158 65.7315 36.5842L36.8319 18.3002C31.1195 14.6861 23.7772 19.3468 24.6166 26.0542L26.3959 40.2722C26.8854 44.1841 24.4521 47.8694 20.6623 48.9558L6.50256 53.0149C-0.136159 54.918 -1.4063 63.7734 4.42985 67.4658L36.8694 87.9894C40.4946 90.283 41.6655 95.0277 39.5235 98.7445L20.3572 132.002C16.9088 137.986 22.1532 145.234 28.9153 143.83L43.3374 140.835C47.1978 140.033 51.0667 142.163 52.4532 145.854L57.492 159.268C59.8691 165.596 68.5371 166.306 71.9124 160.449L88.9872 130.82C91.258 126.88 96.3525 125.623 100.196 128.054L129.094 146.338C134.807 149.952 142.149 145.291 141.31 138.583L139.529 124.366Z" fill="#5E51FE"/>
<path d="M144.437 112.797C139.225 114.291 135.879 119.359 136.553 124.738L138.333 138.956C138.858 143.148 134.269 146.061 130.698 143.802L101.8 125.519C96.5153 122.176 89.5102 123.904 86.3879 129.322L69.3131 158.951C67.2035 162.612 61.7861 162.168 60.3004 158.213L55.2616 144.799C53.3552 139.724 48.0354 136.795 42.7274 137.897L28.3053 140.892C24.079 141.77 20.8012 137.24 22.9565 133.5L42.1228 100.242C45.068 95.1318 43.458 88.6078 38.4733 85.4542L6.03381 64.9305C2.38622 62.6228 3.18005 57.0882 7.32926 55.8988L21.489 51.8397C26.6999 50.3459 30.0457 45.2785 29.3726 39.8997L27.5934 25.6816C27.0688 21.4895 31.6577 18.5766 35.228 20.8354L64.1276 39.1195C69.412 42.4628 76.4171 40.7341 79.5394 35.3161L96.6148 5.68636C98.7244 2.02589 104.142 2.46949 105.627 6.42437L110.667 19.8378C112.574 24.9123 117.893 27.8413 123.2 26.7393L137.623 23.7449C141.849 22.8674 145.127 27.3973 142.972 31.137L123.805 64.3961C120.859 69.5067 122.469 76.0307 127.454 79.1844L159.892 99.7073C163.54 102.015 162.746 107.55 158.597 108.739L144.437 112.797Z" stroke="#19154A" stroke-width="6"/>
</g>
<defs>
<filter id="filter0_d_83_6054" x="0.70459" y="0.182129" width="173.517" height="179.273" filterUnits="userSpaceOnUse" color-interpolation-filters="sRGB">
<feFlood flood-opacity="0" result="BackgroundImageFix"/>
<feColorMatrix in="SourceAlpha" type="matrix" values="0 0 0 0 0 0 0 0 0 0 0 0 0 0 0 0 0 0 127 0" result="hardAlpha"/>
<feOffset dx="9" dy="15"/>
<feComposite in2="hardAlpha" operator="out"/>
<feColorMatrix type="matrix" values="0 0 0 0 0.0980392 0 0 0 0 0.0823529 0 0 0 0 0.290196 0 0 0 1 0"/>
<feBlend mode="normal" in2="BackgroundImageFix" result="effect1_dropShadow_83_6054"/>
<feBlend mode="normal" in="SourceGraphic" in2="effect1_dropShadow_83_6054" result="shape"/>
</filter>
</defs>
</svg>
