<svg width="124" height="64" viewBox="0 0 124 64" fill="none" xmlns="http://www.w3.org/2000/svg">
<rect x="0.733887" y="11.3875" width="118" height="52" rx="12" transform="rotate(-5.53793 0.733887 11.3875)" fill="#5E51FE"/>
<path d="M24.6213 46.2449L17.7896 25.0252L23.5705 24.4647L28.0969 41.3989L28.4582 41.3638L30.3696 23.8054L37.0373 23.1589L42.352 40.0167L42.7133 39.9817L43.9022 22.4934L49.3546 21.9647L46.6938 44.1048L39.3363 44.8182L34.2219 27.9741L33.8934 28.006L32.143 45.5156L24.6213 46.2449ZM61.5016 43.1333C59.7498 43.3031 58.1622 43.1144 56.7388 42.5673C55.3372 42.0179 54.1874 41.1016 53.2894 39.8183C52.3913 38.535 51.8436 36.8751 51.6461 34.8386C51.4487 32.8022 51.6684 31.0789 52.3053 29.6689C52.9401 28.237 53.9044 27.1267 55.1984 26.3382C56.4902 25.5277 58.012 25.0376 59.7638 24.8677C61.5156 24.6979 63.1032 24.8865 64.5266 25.4337C65.9501 25.9809 67.1108 26.8962 68.0089 28.1795C68.9048 29.4409 69.4515 31.0899 69.6489 33.1263C69.8506 35.2065 69.6231 36.9637 68.9665 38.3978C68.3098 39.8318 67.3235 40.9442 66.0077 41.7349C64.7116 42.5015 63.2096 42.9677 61.5016 43.1333ZM61.2932 39.2744C62.0815 39.1979 62.7215 38.9591 63.213 38.5577C63.7025 38.1345 64.0425 37.5379 64.2331 36.768C64.4237 35.998 64.4659 35.0655 64.3597 33.9707C64.2472 32.8101 64.0104 31.8495 63.6493 31.0888C63.2861 30.3062 62.7996 29.7345 62.19 29.3736C61.6001 28.9887 60.8672 28.8388 59.9913 28.9237C59.2468 28.9959 58.6188 29.2446 58.1075 29.67C57.6159 30.0713 57.2749 30.6569 57.0843 31.4269C56.8937 32.1969 56.8525 33.1403 56.9608 34.257C57.1349 36.0526 57.5939 37.3675 58.3379 38.2016C59.1038 39.0335 60.0889 39.3911 61.2932 39.2744ZM73.5872 41.4973L72.807 33.45L71.9057 24.1546L76.2414 23.7343L76.91 29.6041L77.5669 29.5404C77.5715 27.9928 77.7384 26.7499 78.0674 25.8117C78.4162 24.8496 78.9645 24.1223 79.7125 23.6298C80.4824 23.1352 81.4585 22.8306 82.641 22.7159C82.8161 22.6989 83.0143 22.6908 83.2354 22.6914C83.4543 22.6702 83.7083 22.6677 83.9972 22.6839L84.3479 28.3525C83.9805 28.2113 83.5867 28.139 83.1664 28.1355C82.7659 28.108 82.4124 28.1092 82.1058 28.1389C81.2518 28.2217 80.5232 28.4581 79.9201 28.8481C79.3388 29.236 78.8949 29.7874 78.5885 30.5023C78.3039 31.2151 78.1568 32.0914 78.1471 33.1312L78.9082 40.9814L73.5872 41.4973ZM88.246 40.076L85.9499 16.3941L91.1395 15.8909L92.407 28.9636C92.9975 28.4422 93.5409 27.8922 94.0374 27.3136C94.5558 26.7328 95.0173 26.1355 95.4219 25.5216C95.8485 24.9056 96.2192 24.2839 96.5341 23.6566C96.8688 23.0052 97.1477 22.3482 97.3708 21.6856L103.414 21.0996C103.213 21.9812 102.901 22.8734 102.48 23.7763C102.057 24.6572 101.52 25.494 100.867 26.2867C100.212 27.0574 99.4059 27.7435 98.4475 28.3448C97.5109 28.944 96.4271 29.3917 95.1959 29.6878L95.2533 30.2791C96.8001 29.8197 98.0921 29.6944 99.1291 29.9033C100.186 30.0882 101.053 30.4793 101.729 31.0768C102.406 31.6743 102.951 32.395 103.365 33.2391C103.778 34.0831 104.136 34.9215 104.438 35.7543L105.392 38.4136L99.6435 38.971L99.1559 37.3605C98.8329 36.3088 98.4809 35.4146 98.1 34.6779C97.7411 33.9391 97.2677 33.3882 96.6799 33.0252C96.09 32.6403 95.2805 32.4978 94.2513 32.5976L92.7733 32.7409L93.4357 39.5729L88.246 40.076Z" fill="white"/>
</svg>
