<svg width="207" height="99" viewBox="0 0 207 99" fill="none" xmlns="http://www.w3.org/2000/svg">
<g filter="url(#filter0_d_83_4348)">
<path d="M168.952 9.25169L31.6274 1.50533C16.8892 0.673958 4.259 12.0986 3.41713 27.0229L3.31191 28.8882C2.47005 43.8125 13.7353 56.5851 28.4735 57.4164L165.798 65.1628C180.537 65.9942 193.167 54.5696 194.009 39.6452L194.114 37.7799C194.956 22.8556 183.691 10.0831 168.952 9.25169Z" fill="#5E51FE"/>
</g>
<path d="M53.0103 39.7703L53.186 36.6553L58.9668 36.9813C60.1649 37.0489 61.1686 36.8351 61.9777 36.3399C62.8069 35.8458 63.4393 35.1103 63.875 34.1333C64.3307 33.1574 64.598 31.9705 64.6768 30.5728C64.7433 29.3946 64.6709 28.3689 64.4598 27.4956C64.2686 26.6235 63.9386 25.9038 63.4698 25.3365C63.0022 24.7492 62.3968 24.2944 61.6538 23.972C60.9108 23.6497 60.0301 23.4598 59.0117 23.4023L53.9497 23.1168L54.1254 20.0017L59.0676 20.2805C61.4039 20.4123 63.2889 20.9092 64.7226 21.7714C66.1763 22.6346 67.2115 23.8148 67.8281 25.3119C68.4659 26.7901 68.7273 28.5477 68.6124 30.5844C68.5313 32.0221 68.2895 33.2905 67.887 34.3896C67.4856 35.4687 66.9728 36.3913 66.3486 37.1574C65.7256 37.9035 65.0107 38.5041 64.2037 38.9594C63.3968 39.4147 62.5373 39.7368 61.6252 39.9257C60.7342 40.0958 59.8195 40.1544 58.881 40.1015L53.0103 39.7703ZM51.1533 39.6655L52.2684 19.897L56.0424 20.1099L54.9273 39.8784L51.1533 39.6655ZM78.7874 41.615C77.5294 41.544 76.4113 41.3007 75.4332 40.8849C74.475 40.4703 73.6756 39.9044 73.035 39.1872C72.3955 38.45 71.9237 37.582 71.6194 36.5833C71.3152 35.5846 71.198 34.4662 71.2678 33.2282C71.3377 31.9901 71.5716 30.8615 71.9696 29.8423C72.3876 28.8242 72.9475 27.9544 73.6493 27.2328C74.351 26.5112 75.183 25.9671 76.1451 25.6008C77.1273 25.2355 78.2274 25.0872 79.4454 25.1559C80.5836 25.2201 81.5913 25.4673 82.4685 25.8974C83.3456 26.3274 84.0723 26.9393 84.6485 27.733C85.2259 28.5068 85.6328 29.4612 85.8692 30.5963C86.1068 31.7115 86.1345 32.9951 85.9525 34.4471L73.6969 33.846L73.8202 31.6594L83.8893 32.1373L82.5021 33.291C82.6861 32.1595 82.6486 31.226 82.3897 30.4902C82.1318 29.7345 81.7329 29.1711 81.193 28.8001C80.6541 28.4092 80.0253 28.1934 79.3064 28.1528C78.4877 28.1067 77.7565 28.2858 77.1127 28.6901C76.47 29.0746 75.9558 29.6665 75.5702 30.4661C75.2057 31.2468 74.9907 32.2162 74.9254 33.3744C74.8274 35.1116 75.1336 36.431 75.8439 37.3324C76.5743 38.235 77.6084 38.724 78.9462 38.7995C79.5453 38.8333 80.0484 38.7915 80.4557 38.6743C80.884 38.5382 81.2447 38.3582 81.5378 38.1344C81.832 37.8905 82.068 37.6134 82.2458 37.3029C82.4435 36.9936 82.6024 36.662 82.7225 36.3082L85.9751 37.2428C85.7736 37.9727 85.4769 38.617 85.0848 39.1758C84.6927 39.7346 84.1953 40.2073 83.5925 40.594C83.0098 40.9818 82.3228 41.2635 81.5317 41.4393C80.7405 41.615 79.8258 41.6736 78.7874 41.615ZM95.2322 42.5426C94.1739 42.4829 93.2216 42.319 92.3754 42.0509C91.548 41.8039 90.8454 41.4739 90.2678 41.0607C89.6913 40.6275 89.2385 40.1312 88.9095 39.5718C88.5816 38.9924 88.3969 38.361 88.3553 37.6776L91.3831 36.7366C91.3937 37.258 91.567 37.7386 91.9027 38.1782C92.2396 38.5978 92.7208 38.9455 93.3463 39.2211C93.9717 39.4968 94.7338 39.66 95.6323 39.7107C96.6308 39.767 97.408 39.6606 97.964 39.3915C98.5411 39.1035 98.846 38.67 98.8787 38.0909C98.9024 37.6716 98.7712 37.3337 98.4852 37.0771C98.2003 36.8007 97.7728 36.5662 97.2028 36.3738C96.6538 36.1626 95.9844 35.9545 95.1947 35.7497C94.4649 35.5483 93.7262 35.3263 92.9787 35.0839C92.2523 34.8225 91.5791 34.5041 90.9593 34.1286C90.3606 33.7343 89.8773 33.2463 89.5094 32.6646C89.1627 32.0642 89.0141 31.3246 89.0637 30.446C89.1178 29.4875 89.4141 28.6729 89.9527 28.0022C90.5113 27.3326 91.2811 26.8251 92.2621 26.4798C93.2631 26.1357 94.4525 26.0025 95.8303 26.0802C97.1283 26.1534 98.2363 26.3962 99.1546 26.8085C100.093 27.222 100.842 27.7851 101.403 28.4979C101.965 29.1906 102.3 30.0008 102.408 30.9283L99.2369 31.741C99.2085 31.1785 99.0453 30.6986 98.7472 30.3012C98.4503 29.8838 98.0378 29.56 97.51 29.3299C96.9821 29.0998 96.3587 28.9645 95.6399 28.924C94.7213 28.8721 93.9934 28.9913 93.4562 29.2815C92.919 29.5718 92.6352 29.9864 92.6048 30.5256C92.5801 30.9649 92.7201 31.3233 93.0249 31.6009C93.3498 31.8797 93.7972 32.1152 94.3673 32.3077C94.9573 32.5012 95.6272 32.6992 96.377 32.9018C97.1667 33.1066 97.9248 33.3397 98.6512 33.601C99.3988 33.8435 100.062 34.1513 100.642 34.5246C101.222 34.8978 101.676 35.3742 102.004 35.9535C102.333 36.513 102.473 37.222 102.425 38.0806C102.366 39.119 102.037 39.9918 101.436 40.6991C100.836 41.3864 100.007 41.8905 98.9468 42.2113C97.9081 42.5133 96.6699 42.6237 95.2322 42.5426ZM105.349 42.7227L106.233 27.0576L110.007 27.2705L109.123 42.9356L105.349 42.7227ZM108.258 24.7079C107.5 24.6651 106.92 24.4722 106.518 24.129C106.138 23.767 105.965 23.2765 106 22.6575C106.035 22.0385 106.261 21.5805 106.679 21.2835C107.117 20.9677 107.716 20.8312 108.475 20.874C109.273 20.9191 109.864 21.1126 110.245 21.4547C110.626 21.7967 110.799 22.2872 110.763 22.9262C110.728 23.5452 110.491 24.0126 110.053 24.3284C109.635 24.6254 109.037 24.7519 108.258 24.7079ZM119.14 48.9092C117.443 48.8135 116.052 48.6048 114.969 48.2833C113.905 47.9629 113.128 47.5284 112.638 46.98C112.149 46.4315 111.925 45.7779 111.968 45.0191C112.02 44.1005 112.421 43.372 113.173 42.8335C113.945 42.2761 115.055 41.9681 116.5 41.9094L116.534 41.3104C115.455 41.2695 114.642 41.1135 114.096 40.8423C113.552 40.5512 113.295 40.1261 113.327 39.567C113.357 39.0278 113.654 38.5638 114.217 38.1749C114.8 37.7871 115.738 37.4895 117.032 37.282L117.065 36.6829C115.851 36.5543 114.924 36.1214 114.284 35.3842C113.646 34.6271 113.359 33.6794 113.423 32.5412C113.48 31.5228 113.811 30.64 114.414 29.8928C115.017 29.1456 115.87 28.5828 116.973 28.2043C118.097 27.807 119.438 27.6522 120.995 27.7401L128.753 28.1777L128.584 31.1729L123.712 30.177L123.675 30.8359C124.902 31.1054 125.791 31.5061 126.342 32.038C126.913 32.571 127.174 33.2668 127.125 34.1255C127.079 34.9442 126.779 35.6584 126.223 36.2681C125.669 36.8578 124.883 37.3042 123.864 37.6073C122.867 37.8916 121.669 37.9943 120.271 37.9154C120.011 37.9008 119.732 37.8751 119.434 37.8382C119.136 37.8013 118.669 37.7249 118.035 37.609C117.599 37.8849 117.244 38.1353 116.971 38.3603C116.699 38.5653 116.557 38.7676 116.546 38.9673C116.537 39.1271 116.629 39.2725 116.822 39.4035C117.016 39.5147 117.271 39.5992 117.589 39.6571C117.906 39.7151 118.214 39.7525 118.514 39.7694L122.677 40.0043C123.077 40.0268 123.584 40.0855 124.2 40.1803C124.835 40.2763 125.455 40.4715 126.06 40.766C126.684 41.0616 127.19 41.5008 127.578 42.0836C127.986 42.6675 128.161 43.4686 128.103 44.487C128.039 45.6252 127.657 46.5351 126.958 47.2168C126.277 47.9196 125.278 48.4041 123.961 48.6703C122.664 48.9377 121.057 49.0173 119.14 48.9092ZM119.642 45.8726C120.88 45.9425 121.872 45.9283 122.619 45.8302C123.366 45.7321 123.908 45.5324 124.245 45.2309C124.582 44.9494 124.763 44.569 124.791 44.0898C124.815 43.6505 124.735 43.3054 124.548 43.0545C124.363 42.7837 124.114 42.5893 123.8 42.4714C123.506 42.3547 123.2 42.2773 122.882 42.2393C122.563 42.2013 122.294 42.1762 122.075 42.1638L118.391 41.9559C117.424 42.0417 116.73 42.2729 116.308 42.6498C115.906 43.0277 115.692 43.4563 115.665 43.9356C115.638 44.4148 115.777 44.7833 116.083 45.0409C116.388 45.3185 116.838 45.5141 117.432 45.6278C118.047 45.7426 118.783 45.8242 119.642 45.8726ZM120.298 35.8437C121.336 35.9022 122.138 35.7071 122.705 35.2583C123.272 34.7895 123.578 34.1557 123.623 33.357C123.672 32.4984 123.431 31.7837 122.903 31.213C122.395 30.6235 121.622 30.2995 120.584 30.2409C119.545 30.1823 118.722 30.4063 118.112 30.9127C117.523 31.4203 117.204 32.0935 117.157 32.9321C117.126 33.4713 117.219 33.9573 117.435 34.3901C117.672 34.8041 118.024 35.1445 118.489 35.4111C118.976 35.6589 119.579 35.8031 120.298 35.8437ZM131.177 44.1796L131.716 34.6248L132.061 28.5145L135.206 28.6919L134.846 33.4792L135.385 33.5097C135.731 32.3473 136.155 31.3997 136.657 30.6668C137.179 29.935 137.82 29.4003 138.581 29.0626C139.341 28.7249 140.21 28.5836 141.189 28.6388C142.966 28.739 144.278 29.4441 145.126 30.7539C145.993 32.0648 146.353 34.0382 146.204 36.674L145.734 45.0008L141.93 44.7862L142.378 36.8488C142.474 35.1515 142.284 33.8988 141.809 33.0908C141.355 32.2639 140.628 31.8223 139.63 31.766C138.791 31.7187 138.067 31.9482 137.458 32.4547C136.849 32.9412 136.361 33.6148 135.992 34.4754C135.644 35.3171 135.43 36.2566 135.352 37.2938L134.951 44.3925L131.177 44.1796Z" fill="white"/>
<path d="M168.248 42.9781C168.68 42.9319 169.112 43.0594 169.45 43.3326C169.788 43.6057 170.004 44.0021 170.05 44.4345L170.747 50.9561C170.793 51.3885 170.666 51.8216 170.393 52.1599C170.121 52.4983 169.725 52.7143 169.293 52.7605C168.862 52.8066 168.429 52.6791 168.091 52.406C167.753 52.1328 167.537 51.7364 167.491 51.304L166.794 44.7824C166.748 44.35 166.875 43.917 167.148 43.5786C167.421 43.2402 167.816 43.0242 168.248 42.9781ZM156.144 49.5814C156.279 49.4134 156.446 49.2737 156.635 49.1704C156.824 49.067 157.031 49.0021 157.245 48.9792C157.459 48.9563 157.676 48.976 157.882 49.037C158.089 49.0981 158.282 49.1994 158.449 49.335L163.546 53.4571C163.717 53.5909 163.861 53.7576 163.967 53.9474C164.074 54.1372 164.141 54.3463 164.166 54.5626C164.191 54.7789 164.173 54.998 164.113 55.2071C164.052 55.4162 163.951 55.6111 163.814 55.7806C163.678 55.95 163.509 56.0905 163.318 56.1938C163.127 56.2972 162.917 56.3613 162.7 56.3826C162.484 56.4038 162.265 56.3816 162.058 56.3174C161.85 56.2532 161.657 56.1482 161.49 56.0085L156.394 51.8897C156.056 51.6165 155.84 51.2202 155.794 50.7879C155.748 50.3556 155.875 49.9226 156.147 49.5843M181.478 46.8775C181.646 47.0127 181.785 47.1798 181.888 47.3691C181.992 47.5584 182.056 47.7662 182.079 47.9807C182.102 48.1951 182.083 48.412 182.022 48.6188C181.961 48.8257 181.86 49.0185 181.724 49.1861L177.603 54.2866C177.47 54.4584 177.303 54.6018 177.114 54.7085C176.924 54.8152 176.716 54.883 176.5 54.9079C176.284 54.9329 176.065 54.9146 175.856 54.854C175.647 54.7934 175.453 54.6917 175.283 54.555C175.114 54.4182 174.974 54.2491 174.871 54.0575C174.767 53.8659 174.703 53.6556 174.682 53.4389C174.661 53.2222 174.683 53.0035 174.747 52.7954C174.811 52.5874 174.916 52.3942 175.055 52.2272L179.166 47.1245C179.439 46.7862 179.834 46.5703 180.266 46.5241C180.698 46.478 181.13 46.6055 181.468 46.8785M152.257 62.826C152.211 62.3936 152.338 61.9606 152.611 61.6222C152.884 61.2838 153.279 61.0678 153.711 61.0217L160.223 60.3258C160.655 60.2797 161.087 60.4072 161.425 60.6804C161.763 60.9535 161.979 61.3499 162.025 61.7823C162.071 62.2147 161.944 62.6477 161.671 62.9861C161.399 63.3245 161.003 63.5405 160.571 63.5867L154.06 64.2825C153.628 64.3286 153.195 64.2011 152.857 63.928C152.519 63.6548 152.304 63.2585 152.257 62.826ZM170.35 62.6472L173.576 92.8423C173.61 93.1653 173.739 93.4709 173.947 93.7205C174.154 93.97 174.431 94.1522 174.742 94.244C175.053 94.3359 175.385 94.3331 175.694 94.2362C176.003 94.1392 176.277 93.9525 176.48 93.6995L183.923 84.4612C185.013 83.1076 186.596 82.2433 188.323 82.0584L198.846 80.9339C199.183 80.8976 199.502 80.7568 199.756 80.5311C200.01 80.3055 200.188 80.0061 200.265 79.6746C200.342 79.343 200.314 78.9957 200.184 78.6809C200.055 78.366 199.831 78.0992 199.544 77.9174L172.85 61.0839C172.59 60.9196 172.288 60.832 171.981 60.8314C171.673 60.8307 171.371 60.9169 171.11 61.0801C170.849 61.2433 170.639 61.4769 170.505 61.7541C170.37 62.0313 170.317 62.3408 170.35 62.6472Z" fill="white"/>
<defs>
<filter id="filter0_d_83_4348" x="3.26764" y="1.46268" width="200.891" height="75.7428" filterUnits="userSpaceOnUse" color-interpolation-filters="sRGB">
<feFlood flood-opacity="0" result="BackgroundImageFix"/>
<feColorMatrix in="SourceAlpha" type="matrix" values="0 0 0 0 0 0 0 0 0 0 0 0 0 0 0 0 0 0 127 0" result="hardAlpha"/>
<feOffset dx="10" dy="12"/>
<feComposite in2="hardAlpha" operator="out"/>
<feColorMatrix type="matrix" values="0 0 0 0 0.0196078 0 0 0 0 0.0196078 0 0 0 0 0.231373 0 0 0 1 0"/>
<feBlend mode="normal" in2="BackgroundImageFix" result="effect1_dropShadow_83_4348"/>
<feBlend mode="normal" in="SourceGraphic" in2="effect1_dropShadow_83_4348" result="shape"/>
</filter>
</defs>
</svg>
