<svg width="237" height="110" viewBox="0 0 237 110" fill="none" xmlns="http://www.w3.org/2000/svg">
<g filter="url(#filter0_d_83_4343)">
<path d="M192.454 3.2912L31.3138 20.2277C14.0197 22.0454 1.26666 35.5703 2.82916 50.4365L3.02444 52.2945C4.58694 67.1607 19.8733 77.7386 37.1674 75.9209L198.307 58.9844C215.601 57.1667 228.354 43.6418 226.792 28.7756L226.597 26.9176C225.034 12.0514 209.748 1.47351 192.454 3.2912Z" fill="#CB73FE"/>
</g>
<path d="M24.994 58.2897L24.6679 55.1868L30.4261 54.5816C31.6196 54.4561 32.5759 54.0841 33.2952 53.4656C34.0344 52.8449 34.5407 52.0174 34.8141 50.9832C35.1073 49.9469 35.1808 48.7325 35.0345 47.3402C34.9111 46.1667 34.6752 45.1658 34.3267 44.3377C33.9982 43.5075 33.557 42.85 33.0033 42.3653C32.4475 41.8606 31.7771 41.5087 30.992 41.3097C30.2069 41.1107 29.3071 41.0645 28.2927 41.1711L23.2505 41.7011L22.9243 38.5982L27.8472 38.0807C30.1744 37.8362 32.1147 38.0244 33.6681 38.6454C35.2414 39.2643 36.4525 40.2632 37.3013 41.642C38.1678 42.9989 38.7077 44.6917 38.921 46.7206C39.0715 48.1527 39.0362 49.4434 38.8152 50.5928C38.592 51.7223 38.2338 52.7152 37.7406 53.5715C37.2453 54.4078 36.636 55.1154 35.9125 55.6942C35.189 56.273 34.3923 56.7288 33.5223 57.0615C32.6702 57.3723 31.7766 57.5768 30.8418 57.6751L24.994 58.2897ZM23.1442 58.4841L21.0745 38.7926L24.8338 38.3975L26.9035 58.089L23.1442 58.4841ZM50.7333 55.9765C49.4802 56.1082 48.3376 56.0473 47.3054 55.7938C46.2931 55.5383 45.4133 55.1079 44.666 54.5027C43.9165 53.8776 43.3116 53.0965 42.8511 52.1595C42.3907 51.2225 42.0956 50.1374 41.966 48.9042C41.8364 47.671 41.8863 46.5195 42.1157 45.4497C42.365 44.3777 42.7782 43.4293 43.3551 42.6045C43.9321 41.7797 44.666 41.1093 45.5569 40.5933C46.4678 40.0753 47.5299 39.7525 48.7432 39.625C49.8769 39.5058 50.9112 39.5882 51.846 39.872C52.7808 40.1558 53.5962 40.6433 54.2923 41.3343C54.9862 42.0055 55.5409 42.8823 55.9563 43.9648C56.3697 45.0274 56.6029 46.2899 56.6561 47.7524L44.4627 49.1245L44.2338 46.9465L54.2492 45.8033L53.065 47.1645C53.0651 46.0182 52.8784 45.1027 52.5048 44.418C52.1291 43.7135 51.645 43.2214 51.0525 42.9418C50.458 42.6423 49.8027 42.5302 49.0866 42.6054C48.2711 42.6911 47.578 42.9852 47.0074 43.4876C46.4347 43.9701 46.0222 44.6369 45.7697 45.4879C45.5351 46.317 45.4784 47.3083 45.5997 48.462C45.7816 50.1924 46.2954 51.4456 47.1411 52.2215C48.0067 52.9952 49.1059 53.3121 50.4385 53.172C51.0352 53.1093 51.5252 52.9874 51.9083 52.8063C52.3093 52.6033 52.6365 52.3678 52.8899 52.0999C53.1412 51.812 53.3296 51.5006 53.4553 51.1657C53.6009 50.8286 53.7046 50.4758 53.7664 50.1073L57.1267 50.5083C57.045 51.261 56.8554 51.9445 56.558 52.559C56.2606 53.1734 55.8454 53.7198 55.3125 54.1981C54.7994 54.6744 54.1666 55.0627 53.4138 55.363C52.6611 55.6633 51.7676 55.8678 50.7333 55.9765ZM64.1897 54.1701L57.2122 39.1572L61.3892 38.7182L66.3195 50.8995L66.767 50.8525L69.0569 37.9122L73.1146 37.4858L69.3811 53.6244L64.1897 54.1701ZM84.007 52.4793C82.7539 52.611 81.6113 52.5501 80.5792 52.2966C79.5669 52.041 78.6871 51.6107 77.9397 51.0055C77.1903 50.3804 76.5853 49.5993 76.1249 48.6623C75.6644 47.7253 75.3694 46.6402 75.2398 45.407C75.1101 44.1738 75.16 43.0223 75.3895 41.9524C75.6388 40.8805 76.0519 39.9321 76.6289 39.1073C77.2058 38.2825 77.9397 37.6121 78.8307 37.0961C79.7415 36.5781 80.8036 36.2553 82.0169 36.1278C83.1507 36.0086 84.185 36.0909 85.1198 36.3748C86.0545 36.6586 86.87 37.1461 87.566 37.8371C88.26 38.5082 88.8147 39.3851 89.2301 40.4676C89.6434 41.5302 89.8767 42.7927 89.9298 44.2552L77.7364 45.6272L77.5075 43.4492L87.5229 42.3061L86.3387 43.6673C86.3389 42.521 86.1522 41.6055 85.7785 40.9208C85.4028 40.2162 84.9188 39.7242 84.3263 39.4445C83.7317 39.1451 83.0764 39.0329 82.3604 39.1082C81.5448 39.1939 80.8518 39.488 80.2812 39.9904C79.7085 40.4729 79.2959 41.1397 79.0435 41.9907C78.8089 42.8198 78.7522 43.8111 78.8734 44.9648C79.0553 46.6952 79.5691 47.9484 80.4148 48.7242C81.2805 49.498 82.3796 49.8148 83.7123 49.6748C84.309 49.6121 84.7989 49.4902 85.1821 49.3091C85.5831 49.1061 85.9103 48.8706 86.1636 48.6027C86.4149 48.3148 86.6034 48.0034 86.7291 47.6684C86.8746 47.3314 86.9783 46.9786 87.0402 46.6101L90.4005 47.0111C90.3187 47.7637 90.1291 48.4473 89.8317 49.0618C89.5343 49.6762 89.1191 50.2226 88.5862 50.7009C88.0732 51.1772 87.4403 51.5654 86.6876 51.8658C85.9349 52.1661 85.0413 52.3706 84.007 52.4793ZM94.1155 51.0247L91.8891 29.8414L95.5887 29.4526L97.8151 50.6359L94.1155 51.0247ZM109.003 49.8521C107.472 50.0131 106.087 49.8469 104.848 49.3537C103.608 48.8405 102.586 48.0128 101.782 46.8706C100.996 45.7064 100.509 44.2292 100.321 42.4391C100.128 40.6091 100.308 39.0619 100.859 37.7974C101.427 36.5109 102.267 35.5077 103.378 34.7876C104.489 34.0676 105.78 33.6302 107.252 33.4755C108.783 33.3145 110.168 33.4806 111.407 33.9739C112.645 34.4672 113.667 35.2949 114.473 36.457C115.277 37.5992 115.774 39.0754 115.964 40.8854C116.156 42.7153 115.978 44.2725 115.429 45.5569C114.881 46.8413 114.041 47.8445 112.91 48.5667C111.797 49.2668 110.495 49.6953 109.003 49.8521ZM108.851 46.9722C109.687 46.8844 110.373 46.6212 110.91 46.1827C111.445 45.7243 111.821 45.0915 112.038 44.2844C112.275 43.4752 112.337 42.5336 112.224 41.4595C112.104 40.3258 111.834 39.3788 111.412 38.6188C111.008 37.8367 110.475 37.2593 109.812 36.8865C109.17 36.5116 108.391 36.3723 107.476 36.4684C106.68 36.5521 106.005 36.8241 105.45 37.2847C104.893 37.7253 104.495 38.3403 104.256 39.1296C104.038 39.9167 103.987 40.8673 104.104 41.9811C104.288 43.7315 104.797 45.0354 105.631 45.8929C106.485 46.7483 107.559 47.1081 108.851 46.9722ZM120.684 53.2397L119.354 40.5894L118.523 32.6829L121.686 32.3505L122.101 36.5903L122.612 36.5669C122.706 35.5514 122.936 34.6726 123.3 33.9305C123.684 33.1862 124.206 32.5985 124.864 32.1673C125.523 31.7361 126.329 31.4703 127.284 31.37C128.676 31.2237 129.897 31.4473 130.944 32.0411C131.99 32.6149 132.827 33.5022 133.456 34.7031C134.103 35.8819 134.513 37.2968 134.687 38.9477C134.85 40.4992 134.758 41.9166 134.41 43.2C134.08 44.4614 133.475 45.5003 132.596 46.3167C131.734 47.1111 130.607 47.5815 129.215 47.7278C128.2 47.8344 127.324 47.7254 126.586 47.4008C125.848 47.0762 125.224 46.5887 124.713 45.9386C124.202 45.2884 123.759 44.5205 123.385 43.6348L122.848 43.6912C123.024 44.2157 123.182 44.7622 123.322 45.3307C123.48 45.8771 123.618 46.4257 123.736 46.9764C123.852 47.5071 123.936 48.0212 123.989 48.5184L124.443 52.8446L120.684 53.2397ZM127.668 44.7833C128.444 44.7018 129.078 44.4239 129.572 43.9498C130.063 43.4558 130.408 42.8162 130.607 42.0311C130.804 41.2261 130.85 40.3263 130.745 39.3318C130.637 38.2975 130.393 37.4181 130.016 36.6936C129.658 35.9671 129.178 35.4242 128.577 35.065C127.977 34.7059 127.298 34.566 126.542 34.6455C125.886 34.7145 125.325 34.9243 124.859 35.2749C124.393 35.6255 124.017 36.0672 123.731 36.6C123.443 37.1129 123.249 37.6562 123.149 38.2299C123.048 38.8035 123.026 39.3589 123.082 39.8959L123.136 40.4031C123.177 40.8009 123.271 41.2134 123.417 41.6405C123.58 42.0457 123.794 42.4556 124.059 42.8702C124.321 43.2649 124.631 43.6245 124.986 43.9491C125.34 44.2538 125.746 44.4826 126.205 44.6355C126.663 44.7884 127.151 44.8377 127.668 44.7833ZM138.898 46.3179L137.86 36.4423L137.258 30.7138L140.331 30.3908L140.743 35.174L141.28 35.1175C141.438 33.9346 141.695 32.9422 142.053 32.1404C142.429 31.3166 142.926 30.6812 143.542 30.2343C144.159 29.7874 144.895 29.519 145.75 29.4291C146.705 29.3288 147.514 29.465 148.176 29.8378C148.839 30.2106 149.37 30.7681 149.77 31.5104C150.187 32.2307 150.489 33.0938 150.676 34.0999L151.153 34.0497C151.29 32.8689 151.558 31.8755 151.956 31.0695C152.374 30.2614 152.911 29.6318 153.567 29.1807C154.244 28.7275 155.009 28.456 155.865 28.3661C156.7 28.2783 157.454 28.37 158.126 28.6412C158.798 28.9125 159.377 29.3543 159.864 29.9668C160.368 30.5573 160.771 31.3294 161.073 32.2831C161.394 33.2348 161.621 34.3471 161.755 35.6201L162.617 43.8249L158.828 44.2231L158.016 36.4957C157.899 35.3818 157.702 34.4674 157.426 33.7523C157.17 33.0352 156.824 32.5185 156.388 32.2023C155.971 31.8641 155.454 31.7274 154.837 31.7922C154.141 31.8654 153.558 32.1579 153.089 32.6697C152.62 33.1816 152.28 33.8709 152.07 34.7376C151.857 35.5845 151.776 36.5382 151.828 37.5986L152.593 44.8785L148.893 45.2674L148.1 37.719C147.978 36.5653 147.779 35.621 147.5 34.8861C147.22 34.1313 146.861 33.5858 146.423 33.2497C145.986 32.9136 145.459 32.7779 144.842 32.8427C144.126 32.918 143.535 33.2215 143.068 33.7532C142.621 34.2829 142.292 34.9811 142.081 35.8478C141.89 36.7125 141.83 37.6641 141.899 38.7025L142.657 45.9228L138.898 46.3179ZM173.689 43.0534C172.436 43.1851 171.293 43.1242 170.261 42.8707C169.249 42.6151 168.369 42.1847 167.622 41.5795C166.872 40.9544 166.267 40.1734 165.807 39.2364C165.346 38.2994 165.051 37.2143 164.922 35.9811C164.792 34.7479 164.842 33.5963 165.071 32.5265C165.321 31.4546 165.734 30.5062 166.311 29.6814C166.888 28.8565 167.622 28.1861 168.512 27.6702C169.423 27.1521 170.485 26.8294 171.699 26.7018C172.832 26.5827 173.867 26.665 174.802 26.9489C175.736 27.2327 176.552 27.7201 177.248 28.4112C177.942 29.0823 178.496 29.9591 178.912 31.0416C179.325 32.1042 179.558 33.3668 179.612 34.8292L167.418 36.2013L167.189 34.0233L177.205 32.8802L176.02 34.2414C176.021 33.0951 175.834 32.1796 175.46 31.4949C175.085 30.7903 174.601 30.2982 174.008 30.0186C173.414 29.7191 172.758 29.607 172.042 29.6823C171.227 29.768 170.534 30.062 169.963 30.5644C169.39 31.0469 168.978 31.7137 168.725 32.5648C168.491 33.3938 168.434 34.3852 168.555 35.5388C168.737 37.2693 169.251 38.5225 170.097 39.2983C170.962 40.0721 172.061 40.3889 173.394 40.2488C173.991 40.1861 174.481 40.0642 174.864 39.8832C175.265 39.6802 175.592 39.4447 175.845 39.1767C176.097 38.8889 176.285 38.5775 176.411 38.2425C176.556 37.9054 176.66 37.5527 176.722 37.1842L180.082 37.5851C180 38.3378 179.811 39.0214 179.514 39.6358C179.216 40.2503 178.801 40.7967 178.268 41.275C177.755 41.7512 177.122 42.1395 176.369 42.4398C175.617 42.7402 174.723 42.9447 173.689 43.0534ZM183.797 41.5988L182.797 32.0812L182.157 25.9947L185.29 25.6655L185.702 30.4486L186.239 30.3922C186.394 29.1893 186.661 28.186 187.039 27.3821C187.437 26.5761 187.984 25.9454 188.68 25.4901C189.376 25.0349 190.212 24.756 191.187 24.6536C192.957 24.4675 194.365 24.953 195.412 26.1099C196.478 27.2647 197.15 29.1549 197.426 31.7805L198.297 40.0748L194.508 40.473L193.677 32.5666C193.5 30.8759 193.111 29.6699 192.513 28.9485C191.932 28.2051 191.144 27.8857 190.15 27.9902C189.314 28.0781 188.636 28.4208 188.116 29.0185C187.593 29.5962 187.219 30.3394 186.993 31.2481C186.784 32.1347 186.725 33.0962 186.813 34.1326L187.557 41.2037L183.797 41.5988ZM207.738 39.4445C206.087 39.618 204.828 39.3079 203.96 38.5143C203.09 37.7008 202.557 36.3591 202.361 34.4894L201.574 27.0007L199.276 27.2421L199.022 24.2523L200.544 24.0924C201.121 24.0318 201.539 23.8973 201.799 23.689C202.058 23.4807 202.194 23.1447 202.206 22.681L202.325 20.3758L204.503 20.1469L204.867 23.6078L208.984 23.1751L209.314 26.3078L205.196 26.7406L205.955 33.9608C206.033 34.6968 206.258 35.216 206.632 35.5186C207.025 35.8191 207.57 35.9328 208.266 35.8596C208.644 35.8199 209.008 35.7415 209.358 35.6243C209.725 35.4851 210.057 35.2894 210.352 35.0371L210.728 38.6174C210.132 38.8811 209.579 39.07 209.068 39.184C208.579 39.3159 208.136 39.4027 207.738 39.4445Z" fill="white"/>
<path d="M55.0182 58.9489C55.3719 58.8519 55.7498 58.8996 56.0686 59.0816C56.3874 59.2636 56.6211 59.5649 56.7182 59.9192L58.1829 65.2628C58.28 65.6171 58.2326 65.9954 58.0511 66.3145C57.8696 66.6336 57.5689 66.8673 57.2152 66.9643C56.8614 67.0612 56.4836 67.0135 56.1647 66.8315C55.8459 66.6496 55.6123 66.3483 55.5152 65.994L54.0505 60.6504C53.9534 60.2961 54.0008 59.9178 54.1822 59.5987C54.3637 59.2796 54.6644 59.0458 55.0182 58.9489ZM45.8198 66.0949C45.9096 65.9365 46.0297 65.7975 46.1733 65.6857C46.3169 65.5739 46.4811 65.4916 46.6566 65.4436C46.832 65.3955 47.0153 65.3825 47.1958 65.4054C47.3763 65.4284 47.5505 65.4867 47.7085 65.5772L52.517 68.3239C52.6781 68.4122 52.8201 68.5317 52.9347 68.6756C53.0493 68.8194 53.1342 68.9846 53.1843 69.1615C53.2345 69.3385 53.2489 69.5237 53.2269 69.7062C53.2048 69.8888 53.1466 70.0651 53.0558 70.2249C52.9649 70.3846 52.8432 70.5246 52.6977 70.6367C52.5522 70.7488 52.3858 70.8308 52.2082 70.8778C52.0307 70.9248 51.8456 70.9359 51.6637 70.9105C51.4817 70.8851 51.3066 70.8237 51.1486 70.7298L46.341 67.9858C46.0222 67.8038 45.7886 67.5026 45.6915 67.1483C45.5944 66.7941 45.6418 66.4159 45.8232 66.0968M66.5781 60.408C66.7363 60.498 66.8753 60.6184 66.987 60.7623C67.0987 60.9062 67.181 61.0707 67.2292 61.2464C67.2774 61.4221 67.2904 61.6056 67.2677 61.7863C67.2449 61.9671 67.1868 62.1415 67.0966 62.2996L64.3512 67.111C64.2631 67.2723 64.1438 67.4145 64.0003 67.5291C63.8567 67.6437 63.6918 67.7285 63.5151 67.7786C63.3384 67.8287 63.1535 67.843 62.9712 67.8208C62.7889 67.7986 62.6127 67.7402 62.4531 67.6491C62.2935 67.558 62.1536 67.436 62.0415 67.2902C61.9294 67.1444 61.8475 66.9777 61.8004 66.7999C61.7533 66.6221 61.7421 66.4367 61.7673 66.2546C61.7925 66.0724 61.8537 65.8972 61.9474 65.739L64.684 60.9272C64.8655 60.6081 65.1661 60.3745 65.5198 60.2775C65.8735 60.1806 66.2513 60.2283 66.5701 60.4102M44.3735 77.6655C44.2764 77.3112 44.3238 76.9328 44.5053 76.6138C44.6868 76.2947 44.9875 76.0609 45.3412 75.964L50.6767 74.5015C51.0304 74.4046 51.4083 74.4523 51.7271 74.6343C52.0459 74.8163 52.2796 75.1175 52.3767 75.4718C52.4738 75.8261 52.4264 76.2044 52.2449 76.5235C52.0635 76.8426 51.7628 77.0764 51.409 77.1733L46.0736 78.6358C45.7198 78.7327 45.3419 78.685 45.0231 78.503C44.7043 78.321 44.4706 78.0198 44.3735 77.6655ZM59.4356 75.0652L66.217 99.8061C66.289 100.071 66.4379 100.308 66.6448 100.488C66.8517 100.668 67.1072 100.783 67.379 100.817C67.6508 100.851 67.9266 100.804 68.1715 100.682C68.4164 100.559 68.6193 100.366 68.7545 100.128L73.7091 91.4158C74.4347 90.1394 75.6372 89.2043 77.0521 88.8162L85.6742 86.4529C85.951 86.3768 86.1972 86.2163 86.3788 85.9937C86.5603 85.771 86.6681 85.4973 86.6871 85.2105C86.7062 84.9236 86.6357 84.6378 86.4853 84.3928C86.335 84.1478 86.1122 83.9556 85.8479 83.843L61.3087 73.4229C61.0693 73.3211 60.8061 73.289 60.5494 73.3301C60.2927 73.3712 60.0528 73.484 59.8573 73.6554C59.6617 73.8269 59.5184 74.0501 59.4439 74.2994C59.3693 74.5488 59.3664 74.8142 59.4356 75.0652Z" fill="white"/>
<defs>
<filter id="filter0_d_83_4343" x="2.69958" y="3.08798" width="234.222" height="85.0362" filterUnits="userSpaceOnUse" color-interpolation-filters="sRGB">
<feFlood flood-opacity="0" result="BackgroundImageFix"/>
<feColorMatrix in="SourceAlpha" type="matrix" values="0 0 0 0 0 0 0 0 0 0 0 0 0 0 0 0 0 0 127 0" result="hardAlpha"/>
<feOffset dx="10" dy="12"/>
<feComposite in2="hardAlpha" operator="out"/>
<feColorMatrix type="matrix" values="0 0 0 0 0.0196078 0 0 0 0 0.0196078 0 0 0 0 0.231373 0 0 0 1 0"/>
<feBlend mode="normal" in2="BackgroundImageFix" result="effect1_dropShadow_83_4343"/>
<feBlend mode="normal" in="SourceGraphic" in2="effect1_dropShadow_83_4343" result="shape"/>
</filter>
</defs>
</svg>
