<svg width="134" height="61" viewBox="0 0 134 61" fill="none" xmlns="http://www.w3.org/2000/svg">
<rect x="0.308594" y="8.15436" width="130" height="52" rx="12" transform="rotate(-3.59628 0.308594 8.15436)" fill="#CB73FE"/>
<path d="M18.061 44.1117L24.0723 21.9109L31.845 21.4224L40.5886 42.6958L34.792 43.0601L28.4829 25.7999L27.956 25.833L23.8576 43.7473L18.061 44.1117ZM22.1847 39.7524L21.9612 36.1954L36.5184 35.2805L36.742 38.8375L22.1847 39.7524ZM54.0538 42.3124C52.9559 42.3814 51.9767 42.2336 51.1161 41.8688C50.2775 41.5027 49.5685 40.919 48.9891 40.1178C48.4317 39.3152 48.0265 38.3046 47.7736 37.0861L47.1478 37.1254L47.3719 42.2695L43.0245 42.5427L42.4884 34.0125L41.5341 18.8295L46.8367 18.4962L47.1989 24.2599C47.232 24.7868 47.2233 25.3495 47.1727 25.9478C47.1427 26.5228 47.0819 27.1329 46.9902 27.7779C46.9204 28.4215 46.8424 29.1098 46.7562 29.8426L47.5137 29.795C47.7466 28.59 48.0907 27.5765 48.546 26.7543C49.0013 25.9321 49.5898 25.2999 50.3115 24.8578C51.0538 24.3923 51.9409 24.1272 52.9729 24.0623C54.422 23.9712 55.697 24.2658 56.7978 24.9461C57.9206 25.625 58.8219 26.6375 59.5017 27.9835C60.1801 29.3076 60.5793 30.9247 60.6994 32.8349C60.8153 34.6793 60.6196 36.3008 60.1123 37.6993C59.6256 39.0746 58.8678 40.1693 57.8388 40.9834C56.8085 41.7756 55.5468 42.2186 54.0538 42.3124ZM51.8086 38.1551C52.5331 38.1095 53.1575 37.8719 53.6815 37.4422C54.2042 36.9905 54.5855 36.3934 54.8254 35.6509C55.0859 34.8851 55.1851 34.0081 55.123 33.0201C55.0595 32.0101 54.863 31.1627 54.5334 30.4781C54.2024 29.7714 53.761 29.2371 53.2092 28.875C52.6794 28.5115 52.0522 28.3525 51.3276 28.398C50.8446 28.4284 50.4 28.5445 49.9938 28.7464C49.6096 28.9469 49.2735 29.2105 48.9854 29.5372C48.6974 29.8639 48.456 30.2318 48.2612 30.6408C48.0651 31.0279 47.926 31.4444 47.8438 31.8904C47.7602 32.3145 47.7316 32.7351 47.7578 33.1523L47.8013 33.844C47.8302 34.3051 47.9272 34.7949 48.092 35.3136C48.2569 35.8323 48.4965 36.3132 48.8109 36.7564C49.1473 37.1981 49.5557 37.5582 50.0361 37.8366C50.5371 38.0917 51.1279 38.1979 51.8086 38.1551ZM72.413 41.1586C70.6564 41.269 69.0761 41.0266 67.672 40.4315C66.2899 39.835 65.1718 38.8803 64.3178 37.5673C63.4637 36.2543 62.9725 34.5768 62.8442 32.5348C62.7159 30.4928 62.9938 28.778 63.6781 27.3904C64.3611 25.9807 65.3625 24.9038 66.6824 24.1596C68.0009 23.3933 69.5385 22.955 71.295 22.8446C73.0515 22.7342 74.6319 22.9766 76.036 23.5717C77.44 24.1668 78.5691 25.1208 79.4232 26.4339C80.2758 27.7249 80.7663 29.3914 80.8947 31.4334C81.0258 33.5193 80.7389 35.2677 80.034 36.6787C79.3291 38.0897 78.3057 39.168 76.9638 39.9137C75.6425 40.636 74.1256 41.0509 72.413 41.1586ZM72.3355 37.2948C73.1259 37.2451 73.7736 37.0281 74.2784 36.6437C74.7819 36.2373 75.142 35.6526 75.3585 34.8895C75.5751 34.1264 75.6489 33.1959 75.5799 32.0981C75.5067 30.9344 75.3026 29.9663 74.9675 29.1938C74.631 28.3993 74.1642 27.8114 73.5671 27.4301C72.9906 27.0255 72.2632 26.8508 71.3849 26.906C70.6384 26.9529 70.0024 27.1803 69.477 27.588C68.9721 27.9724 68.6114 28.5462 68.3948 29.3093C68.1782 30.0724 68.1051 31.0138 68.1755 32.1336C68.2887 33.934 68.7029 35.2637 69.4182 36.1225C70.1554 36.98 71.1278 37.3707 72.3355 37.2948ZM90.5373 40.0195C88.4733 40.1492 86.8709 39.5555 85.7301 38.2385C84.6098 36.8981 83.96 34.8008 83.7806 31.9464L83.1906 22.5599L88.5261 22.2246L89.0726 30.9194C89.1747 32.5442 89.4928 33.7476 90.0269 34.5297C90.5596 35.2898 91.32 35.6387 92.3081 35.5766C92.9009 35.5394 93.3969 35.3649 93.7962 35.0533C94.216 34.7183 94.5521 34.2783 94.8044 33.7334C95.0773 33.1652 95.2575 32.5256 95.3451 31.8147C95.4546 31.1025 95.4832 30.3292 95.4307 29.4948L94.9484 21.8209L100.251 21.4877L100.901 31.8293L101.344 38.8774L97.1282 39.1423L96.692 33.7801L96.0333 33.8215C95.7895 35.2035 95.4427 36.3495 94.9929 37.2596C94.5637 38.1462 93.9882 38.8106 93.2665 39.2528C92.5449 39.6949 91.6351 39.9505 90.5373 40.0195ZM112.232 38.6229C110.19 38.7512 108.653 38.3078 107.619 37.2926C106.584 36.2555 105.991 34.5403 105.841 32.1471L105.412 25.3295L102.942 25.4848L102.782 21.3617L104.561 21.2499C105.262 21.1838 105.782 21.0409 106.121 20.8212C106.482 20.6001 106.689 20.2124 106.742 19.6579L107.017 17.1938L110.014 17.0055L110.256 20.8589L114.439 20.596L114.71 24.9105L110.527 25.1733L110.931 31.5957C110.978 32.3422 111.188 32.8801 111.562 33.2093C111.957 33.5371 112.528 33.6776 113.274 33.6307C113.692 33.6045 114.084 33.5357 114.452 33.4244C114.819 33.3131 115.119 33.1731 115.351 33.0042L115.66 37.9115C114.971 38.1752 114.331 38.3477 113.741 38.4289C113.174 38.5306 112.672 38.5953 112.232 38.6229Z" fill="white"/>
</svg>
