<svg width="114" height="189" viewBox="0 0 114 189" fill="none" xmlns="http://www.w3.org/2000/svg">
<path d="M12.588 166.733C11.5757 166.639 10.6424 166.146 9.99387 165.363L-3.43553 149.163C-4.78641 147.533 -4.56046 145.116 -2.93105 143.765C-1.30107 142.414 1.11554 142.639 2.46636 144.27L13.4491 157.518L82.1925 100.522L68.85 84.4268C67.4986 82.7966 67.7245 80.3804 69.3545 79.0289C70.9845 77.6778 73.4011 77.9026 74.7519 79.5333L90.5412 98.5802C91.892 100.21 91.666 102.627 90.0366 103.979L15.3907 165.868C14.6085 166.516 13.6002 166.828 12.588 166.733Z" fill="#007EFA"/>
<path d="M18.2922 98.4624C17.3241 99.265 15.8882 99.1313 15.0857 98.1625C14.2827 97.1937 14.4169 95.7582 15.3857 94.9551C16.3538 94.1525 17.7897 94.2862 18.5922 95.255C19.3947 96.2232 19.2604 97.6592 18.2922 98.4624Z" fill="#007EFA"/>
<path d="M11.3431 180.056C10.9613 180.02 10.5934 179.839 10.3291 179.52L-65.7379 87.7601C-65.9916 87.4543 -66.1134 87.0599 -66.0764 86.6646C-66.0394 86.2692 -65.8468 85.9041 -65.5405 85.6505L26.2135 9.57564C26.8505 9.04751 27.7954 9.13615 28.323 9.77305L104.39 101.533C104.644 101.839 104.765 102.234 104.728 102.629C104.691 103.025 104.499 103.39 104.193 103.644L12.439 179.718C12.1203 179.981 11.7248 180.091 11.3431 180.056ZM-62.4745 87.0008L11.68 176.454L101.127 102.292L26.9727 12.8387L-62.4745 87.0008Z" fill="#007EFA"/>
<path d="M15.3981 136.676C15.3229 136.669 15.25 136.633 15.1982 136.57L-22.6328 90.9351C-22.6831 90.8745 -22.7071 90.7967 -22.6997 90.7187C-22.6923 90.6407 -22.6541 90.5686 -22.5936 90.5183L23.0389 52.6834C23.1649 52.5793 23.351 52.5965 23.4557 52.7226L61.2861 98.3582C61.3365 98.4187 61.3605 98.4965 61.3531 98.5746C61.3457 98.6526 61.3074 98.7247 61.2475 98.7745L15.6151 136.609C15.5515 136.661 15.4734 136.683 15.3981 136.676ZM-21.9888 90.7851L15.4645 135.965L60.6415 98.5087L23.1882 53.3284L-21.9888 90.7851Z" fill="#CB73FE"/>
<path d="M-18.3535 129.408C-19.3301 129.317 -20.2721 128.853 -20.9476 128.038L-51.8892 90.7129C-52.5383 89.9305 -52.8497 88.9218 -52.7548 87.9094C-52.6604 86.897 -52.1676 85.9635 -51.3848 85.315L23.2608 23.4242C24.8907 22.0732 27.3072 22.2992 28.6581 23.9287L59.6003 61.254C60.9512 62.8841 60.7252 65.3008 59.0958 66.6518C57.4664 68.0029 55.0494 67.7769 53.6984 66.1474L25.203 31.7735L-43.5406 88.7703L-15.0451 123.144C-13.6942 124.774 -13.9196 127.191 -15.5496 128.543C-16.3649 129.218 -17.3762 129.5 -18.3535 129.408Z" fill="#CB73FE"/>
<path d="M81.8268 98.321C80.8501 98.2297 79.9081 97.7657 79.2327 96.9509L34.3361 42.7916C32.9852 41.1615 33.2112 38.7448 34.8406 37.3937C36.4705 36.0427 38.887 36.2686 40.238 37.8981L85.1346 92.0575C86.4854 93.6876 86.2595 96.1043 84.63 97.4553C83.8153 98.1309 82.804 98.4124 81.8268 98.321Z" fill="#CB73FE"/>
</svg>
