<svg width="147" height="150" viewBox="0 0 147 150" fill="none" xmlns="http://www.w3.org/2000/svg">
<path d="M1.71673 86.8051C5.01938 87.6993 7.39768 88.756 9.16566 90.5257C10.9339 92.2957 11.9885 94.6758 12.883 97.9772C13.778 94.6751 14.8357 92.295 16.607 90.5251C18.3776 88.7558 20.7584 87.6993 24.0613 86.8051C20.7584 85.911 18.3776 84.8544 16.607 83.0852C14.8357 81.3152 13.778 78.9352 12.883 75.633C11.9885 78.9345 10.9339 81.3145 9.16566 83.0845C7.39768 84.8542 5.01938 85.9109 1.71673 86.8051ZM12.8903 98.9388V98.9388ZM12.8833 98.9299L13.1155 98.8694C13.102 98.8176 13.0717 98.7719 13.0296 98.7394C12.9875 98.7069 12.9359 98.6893 12.8829 98.6893C12.83 98.6893 12.7784 98.7069 12.7363 98.7394C12.6941 98.7719 12.6639 98.8176 12.6504 98.8694L12.8825 98.9299L12.8833 98.9299Z" fill="#FFADE3" stroke="#19154A" stroke-width="2"/>
<path d="M48.2253 29.7392C47.464 30.5014 46.5223 31.0287 45.362 31.4503C46.5223 31.8718 47.464 32.3992 48.2253 33.1614C48.9863 33.9235 49.5126 34.8659 49.9335 36.026C50.3553 34.8654 50.8828 33.9229 51.6452 33.1608C52.4075 32.3989 53.3501 31.8718 54.5108 31.4503C53.3501 31.0288 52.4075 30.5016 51.6452 29.7398C50.8828 28.9777 50.3553 28.0352 49.9335 26.8746C49.5126 28.0347 48.9863 28.9771 48.2253 29.7392ZM49.6796 38.3998C49.7523 38.4559 49.8415 38.4863 49.9333 38.4863C50.0251 38.4863 50.1143 38.4559 50.1869 38.3998H49.6796Z" fill="#FFADE3" stroke="#19154A" stroke-width="2"/>
<path d="M124.273 72.8727L124.27 72.8647L124.267 72.8566C119.331 59.9505 117.665 47.7085 116.409 38.4794C116.366 38.1609 116.323 37.846 116.281 37.5348C115.637 32.8211 115.092 29.0694 114.265 26.4107C113.41 23.6647 112.465 22.7656 111.495 22.5992C110.309 22.396 109.61 22.6717 109.112 23.1094C108.541 23.6107 108.056 24.4863 107.685 25.776C107.053 27.9732 106.908 30.7515 106.771 33.369C106.745 33.8614 106.72 34.348 106.691 34.824L103.717 34.9964L105.194 34.7349C103.717 34.9964 103.717 34.9963 103.717 34.9961L103.717 34.9957L103.717 34.9939L103.715 34.9876L103.711 34.9633L103.695 34.8694C103.68 34.7872 103.659 34.6663 103.633 34.5102C103.579 34.1981 103.503 33.7452 103.41 33.1799C103.224 32.0496 102.973 30.4685 102.711 28.6637C102.189 25.0671 101.616 20.5337 101.441 16.9081L101.441 16.9077C101.306 14.0837 100.507 11.8823 99.4695 10.3977C98.419 8.89499 97.2026 8.21842 96.2066 8.13872C95.2885 8.06527 94.2193 8.47138 93.281 9.9182C92.313 11.4109 91.5414 13.964 91.4884 17.8844L88.492 17.9665C87.936 9.8337 86.8343 5.70591 85.6088 3.61826C85.0247 2.62327 84.4448 2.14965 83.9209 1.8934C83.3722 1.62501 82.7465 1.52596 81.9411 1.50098C81.1501 1.47646 79.9864 1.95067 78.9391 4.83537C77.9018 7.69223 77.2076 12.4114 77.1529 19.6018C77.0983 26.7672 77.7054 35.1982 78.3303 41.8626C78.6423 45.1894 78.9577 48.0656 79.1951 50.1095C79.3137 51.1312 79.4128 51.9446 79.4822 52.5018C79.5168 52.7804 79.5441 52.9949 79.5626 53.1394L79.5836 53.3029L79.589 53.3438L79.5903 53.3538L79.5906 53.3562L79.5907 53.3567L78.1035 53.5523L79.5907 53.3568L76.8807 54.4156C76.8781 54.4175 76.8781 54.4175 76.8782 54.4176L76.8776 54.4168L76.8751 54.4132L76.8565 54.3874C76.8388 54.363 76.8105 54.3244 76.7719 54.2727C76.6946 54.1692 76.5761 54.0136 76.4181 53.815C76.102 53.4177 75.6292 52.8501 75.0144 52.1855C73.7812 50.8524 71.9956 49.1498 69.7764 47.6477C65.3409 44.6457 59.3375 42.5343 52.4785 45.5019C45.6351 48.4628 42.172 55.1066 40.8356 62.5645C39.5003 70.0161 40.3639 77.9478 41.8616 82.8657L41.8623 82.8681C42.238 84.1093 42.5978 84.9353 43.1559 85.4721C43.6414 85.9392 44.4716 86.3637 46.2253 86.2852C48.1639 86.1888 49.3984 85.4378 50.199 84.2625C51.0512 83.0115 51.5268 81.1055 51.4979 78.5448C51.4424 73.7343 51.7971 69.5218 52.9544 66.4268C53.5398 64.8614 54.3606 63.4982 55.5153 62.4982C56.6919 61.4793 58.1319 60.9107 59.8029 60.8205C63.2118 60.6363 67.1887 62.837 70.2305 67.1374C73.3076 71.4877 75.5479 78.1109 75.5479 87.2327C75.5479 96.1606 74.6335 102.124 72.8501 105.956C71.9444 107.902 70.7913 109.351 69.3761 110.339C67.958 111.33 66.3764 111.79 64.7278 111.916C61.2228 112.185 58.302 110.47 56.0699 107.758C53.858 105.07 52.2244 101.308 51.164 97.1016C49.9 92.114 47.7808 90.2275 46.1467 89.7051C44.4898 89.1754 42.8484 89.8707 41.994 91.0425L41.9932 91.0436C41.605 91.5749 41.304 92.6366 41.2893 94.3229C41.2751 95.952 41.5288 97.937 42.0059 100.087C42.9609 104.391 44.7622 109.141 46.8088 112.667L46.8092 112.668C50.5771 119.168 55.3897 125.34 62.6308 128.977C69.839 132.597 79.6862 133.818 93.7565 129.947L94.6105 129.712L95.2286 130.346C104.317 139.67 119.358 139.543 128.207 130.012L132.963 124.889C140.011 117.299 140.737 105.798 135.579 96.6176C131.284 88.9723 127.506 81.0397 124.273 72.8727Z" fill="#FCD700" stroke="#19154A" stroke-width="3"/>
</svg>
