<svg width="231" height="188" viewBox="0 0 231 188" fill="none" xmlns="http://www.w3.org/2000/svg">
<path d="M62.4956 92.5592C89.471 125.44 131.623 141.683 172.884 152C162.398 145.264 153.546 136.273 146.975 125.684C172.379 127.593 197.925 126.008 222.898 120.971C202.605 112.808 182.785 103.52 163.527 93.1504C178.402 87.3402 192.414 79.529 205.178 69.9325C162.46 70.0005 119.858 65.4976 78.099 56.5009L62.4956 92.5592Z" fill="#098AF5"/>
<path d="M60.944 97.1442L81.6753 118.98L77.6106 89.1464L107.529 92.549L85.2383 72.3072L110.347 55.6785L80.2568 54.5L88.8053 25.6299L64.997 44.0651L52.9848 16.4555L46.5941 45.8804L19.6427 32.4521L33.6671 59.0957L4.3873 66.1304L32.2608 77.533L14.3543 101.74L43.0315 92.5573L44.874 122.61L60.944 97.1442Z" fill="#FFADE3"/>
</svg>
