<svg width="78" height="59" viewBox="0 0 78 59" fill="none" xmlns="http://www.w3.org/2000/svg">
<rect x="4.79761" width="73" height="52" rx="12" transform="rotate(5.29345 4.79761 0)" fill="#5E51FE"/>
<path d="M28.3697 39.8065C26.9896 39.6786 25.776 39.4225 24.729 39.0383C23.68 38.676 22.7855 38.1954 22.0456 37.5966C21.3057 36.9978 20.7073 36.3016 20.2506 35.5081C19.8158 34.7166 19.5095 33.8486 19.3319 32.9042C19.1782 31.9399 19.1521 30.9101 19.2536 29.8148L20.4653 16.7368L25.7885 17.23L24.592 30.1437C24.4946 31.1952 24.5787 32.0757 24.8444 32.7853C25.1101 33.4948 25.5672 34.0453 26.2159 34.4369C26.8665 34.8065 27.7176 35.04 28.7691 35.1374C29.8206 35.2348 30.7001 35.1616 31.4076 34.9179C32.1172 34.6522 32.6677 34.195 33.0592 33.5464C33.4507 32.8978 33.6952 32.0477 33.7926 30.9962L34.9891 18.0825L40.2794 18.5727L39.0677 31.6506C38.8018 34.5203 37.7733 36.6787 35.9822 38.1256C34.215 39.5526 31.6775 40.1129 28.3697 39.8065ZM49.4471 41.7593C48.2861 41.6517 47.2447 41.4448 46.323 41.1385C45.3993 40.854 44.6053 40.4822 43.9408 40.0229C43.2763 39.5637 42.7395 39.0389 42.3302 38.4486C41.9448 37.8385 41.696 37.1857 41.5836 36.4904L45.6881 35.1142C45.807 35.5008 46.0343 35.9085 46.3702 36.3373C46.73 36.7463 47.2164 37.1007 47.8293 37.4005C48.4642 37.7023 49.2416 37.8959 50.1617 37.9811C51.0379 38.0623 51.7282 38.0048 52.2325 37.8084C52.7607 37.5922 53.0471 37.2432 53.0917 36.7612C53.1242 36.4107 53.0072 36.1237 52.7407 35.9002C52.4981 35.6568 52.1101 35.433 51.5766 35.2289C51.0452 35.0029 50.3814 34.7757 49.585 34.5473C48.7688 34.2949 47.9437 34.0196 47.1097 33.7214C46.2777 33.4013 45.5075 33.0095 44.7992 32.5462C44.093 32.061 43.5403 31.4685 43.1412 30.7687C42.766 30.049 42.626 29.1744 42.7214 28.1448C42.8209 27.0714 43.1919 26.1667 43.8346 25.4309C44.4792 24.6731 45.3815 24.116 46.5413 23.7595C47.723 23.405 49.1244 23.3028 50.7455 23.453C52.1913 23.587 53.4446 23.8909 54.5054 24.3648C55.5662 24.8387 56.4256 25.4596 57.0836 26.2276C57.7655 26.9757 58.2041 27.8449 58.3996 28.8351L54.0207 29.9539C53.9558 29.4618 53.7644 29.0243 53.4464 28.6413C53.1502 28.2604 52.7474 27.9579 52.2379 27.734C51.7523 27.4901 51.1591 27.3357 50.4581 27.2708C49.6037 27.1916 48.9234 27.2612 48.4171 27.4794C47.9327 27.6996 47.6702 28.0288 47.6296 28.467C47.5972 28.8175 47.7231 29.1274 48.0075 29.3968C48.3158 29.6463 48.7586 29.8751 49.3358 30.0833C49.9131 30.2914 50.5988 30.5206 51.3931 30.771C52.2312 31.0254 53.0553 31.3116 53.8655 31.6297C54.6995 31.928 55.4378 32.3057 56.0804 32.7629C56.7469 33.2003 57.2478 33.7549 57.5833 34.4267C57.9427 35.0786 58.0767 35.8975 57.9854 36.8832C57.8778 38.0443 57.4777 39.0235 56.7852 39.821C56.0947 40.5966 55.1257 41.1586 53.8783 41.507C52.6547 41.8356 51.1777 41.9197 49.4471 41.7593Z" fill="white"/>
</svg>
