<svg width="287" height="80" viewBox="0 0 287 80" fill="none" xmlns="http://www.w3.org/2000/svg">
<rect x="0.151367" y="27.3107" width="283" height="52" rx="12" transform="rotate(-5.53793 0.151367 27.3107)" fill="#CB73FE"/>
<path d="M20.9183 62.4707L18.8164 40.7924L28.1775 39.8848C29.5351 39.7531 30.7621 39.7557 31.8584 39.8926C32.9745 40.0054 33.9392 40.2655 34.7523 40.673C35.5633 41.0585 36.2019 41.6044 36.6683 42.3107C37.1544 42.993 37.4463 43.8377 37.5439 44.845C37.6267 45.699 37.5128 46.4616 37.2021 47.1327C36.9133 47.8017 36.4048 48.3704 35.6766 48.8389C34.9484 49.3073 33.9557 49.6688 32.6984 49.9233L32.7525 50.4817C34.8674 50.4093 36.4709 50.7622 37.5631 51.5404C38.6553 52.3186 39.2736 53.4523 39.418 54.9413C39.5411 56.2113 39.3036 57.2953 38.7055 58.1932C38.1074 59.0911 37.1726 59.8228 35.9012 60.3881C34.6277 60.9315 33.0275 61.2967 31.1005 61.4835L20.9183 62.4707ZM25.5689 57.776L30.4958 57.2983C31.8316 57.1688 32.7989 56.8871 33.3978 56.4533C33.9946 55.9976 34.2527 55.3537 34.172 54.5216C34.0828 53.6019 33.6328 52.9493 32.8218 52.5638C32.0108 52.1782 30.817 52.0619 29.2404 52.2148L25.0689 52.6192L25.5689 57.776ZM24.7568 49.4003L28.2057 49.0659C29.7604 48.9152 30.8789 48.5967 31.5611 48.1106C32.2413 47.6026 32.54 46.9216 32.4572 46.0676C32.3765 45.2355 31.9787 44.6663 31.2638 44.3598C30.5686 44.0294 29.5423 43.9299 28.1846 44.0616L24.276 44.4406L24.7568 49.4003ZM51.4565 59.974C49.7047 60.1439 48.1171 59.9552 46.6937 59.408C45.2921 58.8587 44.1423 57.9424 43.2443 56.6591C42.3462 55.3757 41.7985 53.7158 41.601 51.6794C41.4036 49.6429 41.6233 47.9197 42.2602 46.5096C42.895 45.0777 43.8593 43.9675 45.1533 43.1789C46.4451 42.3685 47.9669 41.8783 49.7187 41.7085C51.4705 41.5386 53.0581 41.7273 54.4815 42.2745C55.905 42.8217 57.0657 43.7369 57.9638 45.0202C58.8597 46.2817 59.4064 47.9306 59.6038 49.967C59.8055 52.0473 59.578 53.8044 58.9214 55.2385C58.2647 56.6726 57.2784 57.7849 55.9626 58.5756C54.6665 59.3423 53.1645 59.8084 51.4565 59.974ZM51.2481 56.1151C52.0364 56.0387 52.6764 55.7998 53.1679 55.3985C53.6574 54.9753 53.9974 54.3787 54.188 53.6087C54.3786 52.8387 54.4208 51.9063 54.3146 50.8114C54.2021 49.6509 53.9653 48.6902 53.6042 47.9295C53.241 47.1469 52.7545 46.5752 52.1448 46.2144C51.555 45.8295 50.8221 45.6795 49.9462 45.7644C49.2017 45.8366 48.5737 46.0854 48.0624 46.5107C47.5708 46.912 47.2298 47.4977 47.0392 48.2677C46.8486 49.0376 46.8074 49.981 46.9157 51.0978C47.0898 52.8934 47.5488 54.2082 48.2928 55.0423C49.0587 55.8743 50.0438 56.2319 51.2481 56.1151ZM71.5682 58.024C69.8165 58.1939 68.2288 58.0052 66.8054 57.458C65.4038 56.9087 64.254 55.9924 63.356 54.7091C62.458 53.4258 61.9102 51.7659 61.7128 49.7294C61.5153 47.693 61.7351 45.9697 62.372 44.5597C63.0067 43.1277 63.9711 42.0175 65.265 41.2289C66.5568 40.4185 68.0786 39.9283 69.8304 39.7585C71.5822 39.5886 73.1698 39.7773 74.5933 40.3245C76.0167 40.8717 77.1775 41.7869 78.0755 43.0703C78.9714 44.3317 79.5181 45.9806 79.7156 48.0171C79.9173 50.0973 79.6898 51.8545 79.0331 53.2885C78.3764 54.7226 77.3902 55.835 76.0743 56.6256C74.7783 57.3923 73.2762 57.8584 71.5682 58.024ZM71.3599 54.1651C72.1482 54.0887 72.7881 53.8498 73.2797 53.4485C73.7691 53.0253 74.1091 52.4287 74.2997 51.6587C74.4903 50.8887 74.5325 49.9563 74.4264 48.8614C74.3138 47.7009 74.077 46.7403 73.7159 45.9796C73.3527 45.197 72.8663 44.6252 72.2566 44.2644C71.6667 43.8795 70.9338 43.7295 70.0579 43.8145C69.3134 43.8866 68.6855 44.1354 68.1741 44.5607C67.6826 44.9621 67.3415 45.5477 67.1509 46.3177C66.9603 47.0877 66.9192 48.031 67.0275 49.1478C67.2016 50.9434 67.6606 52.2582 68.4045 53.0923C69.1704 53.9243 70.1555 54.2819 71.3599 54.1651ZM83.6538 56.3881L81.3577 32.7061L86.5474 32.203L87.8149 45.2757C88.4053 44.7542 88.9488 44.2042 89.4452 43.6256C89.9636 43.0449 90.4251 42.4476 90.8298 41.8336C91.2563 41.2176 91.627 40.5959 91.942 39.9686C92.2767 39.3173 92.5556 38.6603 92.7787 37.9977L98.8223 37.4117C98.6205 38.2933 98.3091 39.1855 97.8883 40.0883C97.4653 40.9692 96.9276 41.806 96.275 42.5987C95.6203 43.3695 94.8138 44.0555 93.8553 44.6568C92.9188 45.256 91.8349 45.7037 90.6038 45.9999L90.6611 46.5911C92.208 46.1317 93.4999 46.0064 94.5369 46.2153C95.5937 46.4002 96.4605 46.7914 97.1373 47.3889C97.8141 47.9863 98.3592 48.7071 98.7726 49.5511C99.186 50.3952 99.5436 51.2336 99.8453 52.0664L100.799 54.7257L95.0514 55.283L94.5637 53.6726C94.2407 52.6208 93.8888 51.7266 93.5079 50.9899C93.1489 50.2511 92.6755 49.7002 92.0878 49.3373C91.4979 48.9524 90.6883 48.8098 89.6592 48.9096L88.1811 49.0529L88.8435 55.8849L83.6538 56.3881ZM114.972 53.8157C114.008 53.9092 113.136 53.8058 112.356 53.5058C111.573 53.1838 110.939 52.6817 110.453 51.9994C109.964 51.2952 109.669 50.4176 109.567 49.3665C109.472 48.3812 109.579 47.5529 109.89 46.8818C110.22 46.1867 110.729 45.6179 111.415 45.1756C112.122 44.7093 112.978 44.3058 113.984 43.9651C114.987 43.6026 116.137 43.2591 117.431 42.9346C118.056 42.7636 118.572 42.6141 118.979 42.4861C119.407 42.3342 119.719 42.1381 119.917 41.8979C120.115 41.6577 120.193 41.3296 120.153 40.9135C120.1 40.3661 119.857 39.9144 119.425 39.5585C118.992 39.2025 118.338 39.067 117.462 39.1519C116.849 39.2114 116.302 39.375 115.819 39.6428C115.359 39.9085 114.973 40.2664 114.663 40.7164C114.353 41.1664 114.139 41.6955 114.021 42.3037L109.224 41.3764C109.419 40.4291 109.736 39.5917 110.174 38.864C110.633 38.1342 111.203 37.5153 111.883 37.0073C112.561 36.4774 113.351 36.0694 114.251 35.7831C115.172 35.4728 116.157 35.2668 117.208 35.1648C118.96 34.995 120.411 35.1417 121.561 35.6048C122.731 36.044 123.636 36.8293 124.276 37.9608C124.936 39.0683 125.355 40.5417 125.534 42.3811L125.792 45.0416C125.868 45.8299 125.957 46.6281 126.057 47.4362C126.177 48.2203 126.298 49.0153 126.421 49.8212C126.563 50.6032 126.717 51.395 126.883 52.1967L122.219 52.6489C122.083 52.1538 121.937 51.5601 121.781 50.8678C121.624 50.1537 121.487 49.4265 121.371 48.6863L120.747 48.7468C120.521 49.6086 120.146 50.4185 119.623 51.1766C119.119 51.9106 118.471 52.515 117.677 52.9898C116.903 53.4407 116.001 53.716 114.972 53.8157ZM117.007 49.8388C117.401 49.8006 117.789 49.6967 118.17 49.5271C118.571 49.3335 118.946 49.0982 119.295 48.8212C119.642 48.5224 119.95 48.1719 120.221 47.77C120.491 47.368 120.682 46.9406 120.793 46.4878L120.476 43.8993L121.214 43.9935C120.824 44.2966 120.384 44.5492 119.895 44.7513C119.406 44.9534 118.903 45.1238 118.386 45.2623C117.891 45.3987 117.397 45.5461 116.904 45.7044C116.431 45.8387 116.005 46.0016 115.625 46.1931C115.268 46.3825 114.992 46.6192 114.799 46.9032C114.605 47.1872 114.531 47.5591 114.576 48.0189C114.635 48.632 114.891 49.1046 115.343 49.4365C115.795 49.7684 116.35 49.9025 117.007 49.8388ZM137.932 51.1254L135.83 29.4471L143.746 28.6796L150.908 43.7337L151.073 43.7177L155.078 27.5809L162.633 26.8484L164.734 48.5267L159.742 49.0108L158.458 32.6905L158.097 32.7256L153.403 49.6254L149.067 50.0458L141.345 34.3497L140.984 34.3848L142.859 50.6477L137.932 51.1254ZM177.362 47.7666C175.916 47.9067 174.606 47.8459 173.432 47.584C172.255 47.3003 171.225 46.8254 170.343 46.1595C169.482 45.4914 168.791 44.6301 168.269 43.5756C167.746 42.521 167.416 41.2821 167.278 39.8588C167.145 38.4793 167.219 37.1901 167.5 35.9913C167.804 34.7904 168.287 33.7378 168.951 32.8336C169.635 31.9053 170.502 31.1581 171.552 30.5921C172.624 30.024 173.85 29.673 175.23 29.5393C176.631 29.4034 177.88 29.5144 178.975 29.8724C180.091 30.2063 181.03 30.7783 181.794 31.5884C182.58 32.3963 183.198 33.4194 183.65 34.6576C184.099 35.8739 184.348 37.2975 184.395 38.9286L170.84 40.3424L170.572 37.5833L181.106 36.4625L179.358 37.925C179.405 36.8153 179.254 35.9348 178.903 35.2836C178.55 34.6105 178.086 34.1472 177.508 33.8937C176.929 33.6183 176.322 33.5114 175.687 33.573C174.921 33.6473 174.262 33.9211 173.711 34.3945C173.182 34.8657 172.792 35.5114 172.539 36.3316C172.287 37.1517 172.217 38.1311 172.327 39.2698C172.501 41.0654 173.011 42.3311 173.856 43.067C174.722 43.8008 175.758 44.1093 176.962 43.9925C177.554 43.9352 178.039 43.8108 178.418 43.6193C178.795 43.4059 179.093 43.1671 179.31 42.9029C179.548 42.6146 179.717 42.3108 179.819 41.9915C179.942 41.6701 180.034 41.3628 180.094 41.0697L184.788 41.6092C184.691 42.4364 184.478 43.1975 184.147 43.8927C183.839 44.5857 183.379 45.2049 182.769 45.7503C182.181 46.2937 181.439 46.7303 180.542 47.0604C179.67 47.4102 178.61 47.6456 177.362 47.7666ZM196.832 45.8788C195.387 46.019 194.077 45.9581 192.902 45.6962C191.725 45.4125 190.695 44.9376 189.813 44.2717C188.952 43.6036 188.261 42.7423 187.739 41.6878C187.217 40.6333 186.887 39.3943 186.749 37.971C186.615 36.5915 186.689 35.3023 186.97 34.1035C187.274 32.9027 187.758 31.8501 188.421 30.9458C189.105 30.0175 189.972 29.2703 191.022 28.7043C192.094 28.1362 193.32 27.7853 194.7 27.6515C196.101 27.5156 197.35 27.6267 198.445 27.9846C199.561 28.3185 200.5 28.8905 201.264 29.7006C202.05 30.5085 202.668 31.5316 203.12 32.7698C203.57 33.9861 203.818 35.4098 203.866 37.0408L190.31 38.4546L190.042 35.6955L200.576 34.5747L198.828 36.0372C198.875 34.9275 198.724 34.047 198.373 33.3958C198.021 32.7227 197.556 32.2594 196.979 32.0059C196.399 31.7305 195.792 31.6236 195.157 31.6852C194.391 31.7595 193.732 32.0333 193.181 32.5067C192.652 32.978 192.262 33.6237 192.01 34.4438C191.758 35.264 191.687 36.2434 191.797 37.382C191.971 39.1776 192.481 40.4433 193.326 41.1792C194.193 41.913 195.228 42.2215 196.433 42.1047C197.024 42.0474 197.509 41.923 197.888 41.7315C198.266 41.5181 198.563 41.2793 198.78 41.0151C199.018 40.7268 199.187 40.4231 199.289 40.1038C199.412 39.7823 199.504 39.475 199.564 39.1819L204.258 39.7214C204.162 40.5486 203.948 41.3098 203.618 42.0049C203.309 42.6979 202.85 43.3171 202.239 43.8626C201.651 44.4059 200.909 44.8425 200.012 45.1726C199.14 45.5224 198.08 45.7578 196.832 45.8788ZM214.628 44.1202C212.592 44.3176 211.04 43.9266 209.972 42.947C208.903 41.9456 208.252 40.2515 208.021 37.8646L207.362 31.0655L204.898 31.3044L204.599 27.1891L206.372 27.0171C207.071 26.9273 207.586 26.7668 207.917 26.5358C208.27 26.3026 208.464 25.9081 208.498 25.3521L208.69 22.8801L211.679 22.5903L212.051 26.4333L216.223 26.0289L216.64 30.3317L212.469 30.7361L213.09 37.1411C213.162 37.8856 213.39 38.4161 213.774 38.7324C214.181 39.0467 214.756 39.1677 215.5 39.0956C215.916 39.0552 216.306 38.9732 216.67 38.8495C217.034 38.7258 217.329 38.5757 217.555 38.3991L218.029 43.2931C217.35 43.58 216.717 43.774 216.13 43.8752C215.567 43.996 215.066 44.0777 214.628 44.1202ZM221.164 43.0555L219.483 25.7128L224.771 25.2001L226.452 42.5427L221.164 43.0555ZM221.908 23.0242C220.9 23.1219 220.103 22.9892 219.515 22.6263C218.947 22.2393 218.625 21.6516 218.548 20.8633C218.468 20.0312 218.67 19.3817 219.155 18.9147C219.66 18.4236 220.416 18.1293 221.424 18.0316C222.453 17.9319 223.251 18.0755 223.819 18.4624C224.407 18.8254 224.74 19.412 224.819 20.2222C224.897 21.0324 224.684 21.683 224.179 22.174C223.694 22.641 222.937 22.9244 221.908 23.0242ZM230.563 42.1442L229.55 31.6992L228.881 24.8016L233.151 24.3875L233.71 29.4723L234.367 29.4086C234.533 28.1548 234.838 27.0863 235.283 26.2033C235.728 25.3202 236.337 24.6423 237.109 24.1696C237.878 23.675 238.811 23.3746 239.906 23.2685C241.942 23.071 243.555 23.633 244.744 24.9544C245.955 26.2737 246.711 28.4881 247.013 31.5975L247.872 40.4659L242.551 40.9818L241.749 32.7046C241.575 30.9091 241.186 29.6316 240.582 28.8724C239.997 28.0891 239.201 27.7463 238.194 27.844C237.362 27.9247 236.697 28.2434 236.198 28.8001C235.721 29.3547 235.392 30.0608 235.21 30.9183C235.028 31.7759 234.987 32.7193 235.086 33.7485L235.851 41.6315L230.563 42.1442ZM259.254 45.496C257.327 45.6828 255.725 45.6835 254.447 45.4979C253.193 45.3322 252.253 44.9813 251.626 44.4452C251.002 43.9311 250.649 43.258 250.568 42.4259C250.471 41.4186 250.785 40.5593 251.512 39.8478C252.26 39.1342 253.408 38.6583 254.954 38.4199L254.887 37.7302C253.683 37.847 252.741 37.8168 252.06 37.6396C251.402 37.4603 251.041 37.0422 250.977 36.3852C250.918 35.7721 251.181 35.183 251.767 34.6177C252.353 34.0525 253.366 33.5565 254.806 33.1296L254.739 32.4398C253.393 32.4598 252.288 32.1248 251.426 31.4349C250.561 30.723 250.067 29.732 249.944 28.462C249.84 27.389 250.052 26.3849 250.58 25.4495C251.106 24.4923 251.957 23.6915 253.132 23.047C254.305 22.3807 255.811 21.9584 257.651 21.78L266.651 20.9074L267.036 24.8818L261.481 24.691L261.557 25.4793C263 25.5384 264.05 25.7681 264.707 26.1685C265.365 26.5689 265.734 27.1852 265.815 28.0173C265.9 28.8932 265.669 29.7002 265.121 30.4385C264.596 31.1747 263.805 31.7929 262.748 32.2932C261.689 32.7716 260.405 33.084 258.894 33.2305C258.631 33.256 258.334 33.2737 258.004 33.2837C257.695 33.2915 257.109 33.293 256.247 33.2882C255.926 33.6288 255.678 33.9181 255.502 34.1562C255.324 34.3723 255.244 34.568 255.261 34.7432C255.273 34.8746 255.339 34.9788 255.457 35.0557C255.575 35.1327 255.734 35.1835 255.936 35.2082C256.157 35.2089 256.388 35.1975 256.629 35.1742L261.917 34.6615C262.355 34.619 262.927 34.5966 263.634 34.5944C264.361 34.5681 265.089 34.6634 265.817 34.8801C266.567 35.0947 267.214 35.4962 267.757 36.0845C268.323 36.6707 268.663 37.555 268.777 38.7374C268.903 40.0294 268.645 41.1374 268.005 42.0614C267.368 43.0074 266.325 43.7606 264.876 44.321C263.427 44.8814 261.553 45.2731 259.254 45.496ZM259.536 41.2249C260.806 41.1017 261.785 40.9405 262.473 40.7412C263.161 40.5418 263.623 40.2871 263.858 39.977C264.115 39.6647 264.223 39.3005 264.183 38.8845C264.145 38.4903 264.038 38.1912 263.864 37.9871C263.687 37.7611 263.474 37.616 263.225 37.5517C262.976 37.4875 262.718 37.4572 262.454 37.4607C262.211 37.4622 262.001 37.4714 261.826 37.4884L257.589 37.8992C256.779 37.9778 256.196 38.2332 255.84 38.6656C255.504 39.074 255.36 39.5299 255.409 40.0336C255.449 40.4496 255.611 40.7544 255.895 40.9479C256.182 41.1633 256.614 41.2872 257.191 41.3196C257.791 41.3498 258.573 41.3183 259.536 41.2249ZM258.278 30.6379C259.219 30.5466 259.895 30.2268 260.307 29.6786C260.739 29.1283 260.919 28.4699 260.844 27.7035C260.764 26.8714 260.457 26.2159 259.924 25.7371C259.39 25.2364 258.673 25.0295 257.775 25.1166C256.878 25.2036 256.203 25.5453 255.753 26.1416C255.3 26.7159 255.114 27.4192 255.195 28.2512C255.244 28.7549 255.398 29.2041 255.657 29.5989C255.914 29.9719 256.263 30.2586 256.702 30.4591C257.139 30.6377 257.664 30.6973 258.278 30.6379Z" fill="white"/>
</svg>
