<svg width="97" height="90" viewBox="0 0 97 90" fill="none" xmlns="http://www.w3.org/2000/svg">
<path d="M73.9836 69.9762C73.1672 70.0084 72.4114 69.9897 71.6681 70.0761C66.2695 70.702 60.8392 71.1414 55.4839 72.0363C45.7981 73.6566 36.0225 74.5055 26.2945 75.7712C23.2942 76.1618 20.2847 76.2185 17.2717 75.8284C16.3267 75.7066 15.524 75.3414 14.8632 74.6968C14.0002 73.8554 13.1709 72.9777 12.359 72.0865C11.7418 71.4081 11.352 70.6095 11.1502 69.6953C10.5676 67.0489 9.92352 64.4137 9.33716 61.7678C8.58704 58.384 7.97215 54.9688 7.10957 51.6155C6.32161 48.5539 5.42471 45.5205 4.75484 42.4279C4.5317 41.3982 4.24453 40.3742 4.11687 39.3313C3.25563 32.2879 2.43004 25.2404 1.5953 18.1958C1.54181 17.7454 1.48647 17.2953 1.47074 16.8423C1.39412 14.4347 2.66956 12.4677 4.93974 11.5378C8.85949 9.93237 12.8644 8.7393 17.1254 8.3246C23.5855 7.69628 30.0212 6.82924 36.4672 6.0656C38.1148 5.86992 39.7522 5.71728 41.429 5.84735C43.8432 6.03447 46.249 5.50902 48.648 5.50384C50.9024 5.49871 53.1655 5.69425 55.4261 5.5818C56.3305 5.5372 57.2353 5.44878 58.1287 5.31223C62.0198 4.715 65.9134 4.50758 69.8444 4.91989C71.0275 5.04389 72.2512 4.86809 73.4485 4.74302C76.0011 4.47603 78.5429 4.11903 81.0972 3.86705C82.1392 3.76423 83.2107 3.74924 84.2498 3.86181C85.555 4.00367 86.6144 4.80075 86.853 6.05691C87.586 9.90521 88.8016 13.6353 89.2399 17.5661C90.8458 31.9693 92.6208 46.3543 94.3243 60.7459C94.8727 65.3792 95.3502 66.2112 89.8638 66.7867C89.5706 66.8177 89.2254 66.8758 89.016 67.051C88.6887 67.3239 88.2766 67.683 88.2234 68.0528C88.1179 68.7828 88.1882 69.5508 88.2687 70.2929C88.5432 72.8446 88.8778 75.3891 89.1354 77.9427C89.1944 78.5199 89.0569 79.1243 88.9703 79.7093C88.9043 80.1472 87.9041 80.6503 87.494 80.4821C87.2179 80.3684 86.9031 80.2973 86.6782 80.1185C85.9701 79.5556 85.2528 78.9957 84.6154 78.3558C81.4046 75.131 77.6492 72.6084 73.9836 69.9762ZM88.8139 38.6389C88.1549 33.0901 87.3887 27.552 86.869 21.9905C86.4189 17.159 85.3311 12.4699 84.1957 7.78074C84.0576 7.21103 83.4631 6.73928 82.891 6.76155C82.1389 6.78997 81.3838 6.80922 80.6365 6.89416C77.9361 7.19775 75.2396 7.55035 72.5368 7.83329C71.4916 7.94219 70.416 8.0509 69.3843 7.92034C66.3586 7.53562 63.3657 7.76358 60.3618 8.12413C58.5664 8.34116 56.7605 8.53282 54.9542 8.57797C49.9817 8.70609 45.0056 8.7395 40.0319 8.84113C38.9782 8.86161 37.9227 8.97931 36.8737 9.10389C29.8245 9.93157 22.7814 10.8118 15.7268 11.5945C12.3873 11.9644 9.25089 12.9554 6.19701 14.2886C5.27056 14.6916 4.81143 15.4884 4.68558 16.3996C4.56413 17.2837 4.59008 18.2074 4.69196 19.0973C5.4136 25.3979 6.16364 31.6971 6.93032 37.9924C7.05821 39.0372 7.31179 40.0671 7.51639 41.1008C8.13461 44.2073 9.00919 47.2452 9.82132 50.3019C10.786 53.9381 11.4279 57.6603 12.2491 61.3382C12.7085 63.396 13.3972 65.4132 13.7086 67.4904C13.9745 69.2647 14.8302 70.5579 16.05 71.7432C16.8478 72.5163 17.7504 72.9057 18.8726 72.9646C21.4388 73.1014 23.9913 73.1541 26.5549 72.8363C33.8993 71.9298 41.2486 71.0817 48.5963 70.2034C49.6453 70.0788 50.7213 70.0214 51.7284 69.7362C53.7789 69.1521 55.8802 68.9634 57.9775 68.7087C61.8755 68.2343 65.7737 67.777 69.6735 67.3177C70.7225 67.1931 71.7744 67.0777 72.8259 66.9738C74.0785 66.8497 75.2392 67.1534 76.2496 67.8897C78.689 69.6666 81.1052 71.473 83.5248 73.2751C83.8839 73.5426 84.2153 73.8496 84.5647 74.1316C84.8469 74.3607 85.1304 74.3441 85.3838 74.0742C85.4751 73.9778 85.5958 73.8397 85.5866 73.7305C85.4214 71.7786 85.2768 69.8243 85.0515 67.8796C84.7548 65.3173 85.1008 64.2086 87.9426 63.8939C88.5419 63.8285 89.1432 63.7475 89.7382 63.6464C91.2115 63.3934 91.6274 62.9216 91.5067 61.5848C91.3981 60.3817 91.2538 59.1828 91.1111 57.9819C90.3456 51.5361 89.5799 45.0885 88.8139 38.6389Z" fill="#341E61"/>
<path d="M48.6874 19.2295C50.335 19.0338 51.9973 18.9144 53.6298 18.6235C55.7634 18.2426 57.8369 18.6205 59.9176 18.931C60.6498 19.04 61.3918 19.2944 62.0575 19.6283C65.9021 21.5561 69.075 24.3021 71.6235 27.7502C72.0519 28.3292 72.3456 29.1031 72.4386 29.8228C72.9818 34.0114 73.5103 38.2056 73.9165 42.4105C74.1856 45.1892 73.3663 47.7927 72.0761 50.2276C70.5773 53.0545 68.4257 55.3995 66.2018 57.6484C65.1449 58.7159 63.7646 59.367 62.164 59.4772C60.5103 59.5899 58.8514 59.7698 57.2215 60.0661C53.5986 60.7266 50.0346 60.4078 46.4433 59.78C43.5304 59.2715 41.0094 58.0257 38.7477 56.2068C38.0514 55.6482 37.4146 54.9645 36.9105 54.2289C35.5459 52.2406 34.2232 50.2207 32.9788 48.1553C32.5259 47.4023 32.1859 46.5102 32.0602 45.644C31.6473 42.8082 31.3484 39.955 31.0178 37.1074C30.767 34.9469 31.3843 32.9021 32.0666 30.9238C32.903 28.4971 34.0512 26.1952 35.8748 24.3097C36.1883 23.9851 36.5089 23.6559 36.7514 23.2788C38.0788 21.2201 40.0092 20.2335 42.3938 19.9788C44.4947 19.7541 46.5904 19.4861 48.6883 19.237C48.6879 19.2332 48.6874 19.2295 48.6874 19.2295ZM53.8107 34.9523C54.3569 34.7447 54.9417 34.6049 55.4422 34.3171C56.5892 33.6556 57.6425 32.815 58.8304 32.242C60.481 31.4465 61.6952 30.2138 62.8243 28.8408C63.3764 28.1701 63.565 27.2267 64.3864 26.7562C64.2396 26.6252 64.0906 26.4925 64.0841 26.4857C64.095 26.4977 64.2382 26.6463 64.3813 26.793C63.5353 26.3359 62.7464 26.2944 61.9572 26.9724C59.5038 29.083 57.0236 31.1606 54.568 33.2696C54.2398 33.5502 53.9372 33.9021 53.7426 34.2829C53.6499 34.4633 53.8428 34.7905 53.8931 35.0377C53.6436 34.9874 53.3797 34.8646 53.1493 34.911C52.9617 34.9504 52.8175 35.194 52.6546 35.3446C52.731 35.4269 52.7958 35.5562 52.8857 35.576C53.0048 35.6018 53.1759 35.5834 53.2661 35.5099C53.4679 35.3508 53.6316 35.143 53.8107 34.9523ZM34.3962 41.2943C34.231 44.2292 35.5016 47.3648 37.8346 50.121C38.22 50.5776 38.5329 51.1133 38.7949 51.653C39.6347 53.3725 41.0944 54.4152 42.6957 55.304C44.9919 56.5803 47.4818 57.0839 50.0835 57.1346C50.5565 57.1431 51.2871 56.5653 51.3775 56.0446C51.942 52.7863 52.689 49.5424 52.982 46.2574C53.2391 43.3743 52.775 40.5407 50.2667 38.4884C49.3392 37.7289 48.561 36.7842 47.7268 35.9127C46.3713 34.4981 45.0744 33.0479 43.9818 31.3946C42.822 29.6407 41.4466 28.0267 40.1334 26.3749C39.6212 25.7316 38.7467 25.7707 38.1561 26.2938C36.87 27.4342 36.228 28.9662 35.4913 30.4543C34.184 33.0986 33.6573 35.8577 34.091 38.7881C34.1848 39.386 34.2411 39.9882 34.3962 41.2943ZM70.3793 36.6783C70.3718 36.6792 70.3624 36.6803 70.3549 36.6812C70.1254 34.7484 69.896 32.8174 69.6665 30.8846C69.5343 29.7718 68.8756 28.9842 68.0862 28.2654C67.6125 27.8345 66.92 27.932 66.5926 28.4123C65.6818 29.7479 65.6361 31.2053 65.8846 32.721C66.5135 36.5589 67.1408 40.3988 67.7698 44.2366C67.9632 45.4163 68.1286 46.6012 68.3647 47.772C68.4105 47.9969 68.7064 48.2776 68.9337 48.3325C69.1607 48.3854 69.5989 48.2611 69.6865 48.0851C70.6954 46.0376 71.247 43.8883 70.9635 41.5813C70.7621 39.9496 70.5734 38.3127 70.3793 36.6783ZM60.881 22.9898C60.9741 22.6038 60.816 22.4266 60.4324 22.337C59.8258 22.196 59.2495 22.1825 58.703 22.5158C58.5752 22.5937 58.4458 22.6738 58.3315 22.7692C56.0445 24.7269 53.7309 26.6534 51.49 28.6627C50.4977 29.5531 49.4483 30.4428 48.9578 31.7608C48.9073 31.8962 48.8787 32.1527 48.9425 32.1927C49.1752 32.342 49.4494 32.5036 49.7128 32.5103C49.9933 32.517 50.3403 32.4263 50.5516 32.2508C53.8949 29.4446 57.2251 26.6247 60.5377 23.7841C60.7326 23.6144 60.7704 23.2598 60.881 22.9898ZM64.52 42.141C64.546 42.136 64.5739 42.1308 64.5998 42.124C64.2374 40.2107 63.9068 38.2919 63.498 36.388C63.3758 35.824 63.076 35.2868 62.7888 34.7748C62.603 34.4448 62.3195 34.4765 62.0413 34.6656C61.4973 35.0366 61.1765 35.5562 61.2786 36.1758C61.7644 39.1286 62.2821 42.0776 62.8332 45.0189C62.9478 45.6313 63.4314 46.0344 64.0098 46.274C64.138 46.3273 64.349 46.3898 64.4199 46.33C64.6233 46.1517 64.9344 45.9035 64.9202 45.7035C64.8283 44.5136 64.661 43.3289 64.52 42.141ZM46.2816 28.5828C46.4235 28.5603 46.6111 28.5856 46.7023 28.5044C48.6778 26.7436 50.6447 24.9742 52.605 23.1981C52.7064 23.1062 52.7617 22.9474 52.8043 22.8091C52.8373 22.7024 52.8398 22.4833 52.8124 22.477C52.5466 22.402 52.1521 22.2205 52.019 22.3334C49.9976 24.0444 48.0028 25.7866 46.0301 27.5547C45.8771 27.6927 45.9094 28.0771 45.9258 28.3435C45.9323 28.4302 46.1578 28.5024 46.2816 28.5828ZM43.9668 22.9681C43.5087 23.0529 43.1814 23.0366 42.9487 23.1765C42.7428 23.3018 42.5268 23.5977 42.523 23.8227C42.5192 24.0629 42.7017 24.3819 42.9024 24.5331C43.2531 24.7941 43.6758 24.9246 44.0845 24.5678C44.4085 24.2839 44.921 24.0327 44.746 23.553C44.6397 23.2669 44.1703 23.1113 43.9668 22.9681ZM58.4553 41.7253C58.8823 41.8116 59.1689 41.4046 59.065 40.8346C58.989 40.4192 58.8596 39.9703 58.3636 39.9759C58.1508 39.9784 57.8687 40.263 57.7431 40.4873C57.5049 40.9171 57.6804 41.3054 58.0635 41.5834C58.1737 41.6617 58.3243 41.6799 58.4553 41.7253Z" fill="#341E61"/>
</svg>
