<svg id="Layer_1" data-name="Layer 1" xmlns="http://www.w3.org/2000/svg" viewBox="0 0 175 133"><defs><style>.cls-1{fill:#19154a;}.cls-2{fill:#5e51fe;}.cls-3{fill:none;stroke:#19154a;stroke-width:4px;}</style></defs><path class="cls-1" d="M176.71,95.76q-10.22-49.23-39.3-70T71.54,12.63A85,85,0,0,0,19,46.49a79.8,79.8,0,0,0-13.58,36,139.8,139.8,0,0,0,2.4,49.06,3,3,0,0,0,3.6,2.36l57.77-12a3,3,0,0,0,2.36-3.6q-5-23.88-1.16-36.61c2.51-8.48,6.57-13.27,12.16-14.43C88.57,66,93.84,69,99.47,76S110,94.06,113.18,109.3a3.38,3.38,0,0,0,4,2.63l56.62-11.74A3.74,3.74,0,0,0,176.71,95.76Z"/><path class="cls-2" d="M63.11,110.41a3,3,0,0,0,2.37-3.6q-5-23.88-1.17-36.6c2.52-8.49,6.57-13.28,12.16-14.44,6.07-1.26,11.87,1.62,17.5,8.64s10,18.16,13.17,33.4a3.4,3.4,0,0,0,4,2.64L167.77,88.7a3.74,3.74,0,0,0,2.91-4.43q-10.22-49.23-39.3-70T65.51,1.14A84.93,84.93,0,0,0,12.93,35,79.8,79.8,0,0,0-.65,71,139.8,139.8,0,0,0,1.75,120a3,3,0,0,0,3.59,2.36Z"/><path class="cls-3" d="M65.92,3.22h0q36-7.54,64.2,12.74C149,29.41,161.85,52.19,168.6,84.71a1.63,1.63,0,0,1-1.26,1.92L110.73,98.37a1.28,1.28,0,0,1-1.51-1C106,82,101.57,70.5,95.63,63.09S83.22,52.2,76,53.69c-6.72,1.39-11.16,7.12-13.76,15.91-2.68,9-2.21,21.62,1.12,37.64a.92.92,0,0,1-.72,1.09l-57.77,12a.92.92,0,0,1-1.09-.71v0A137.52,137.52,0,0,1,1.45,71.24h0a77.78,77.78,0,0,1,13.21-35A82.88,82.88,0,0,1,65.92,3.22Z"/></svg>