<svg width="175" height="133" viewBox="0 0 175 133" fill="none" xmlns="http://www.w3.org/2000/svg">
<g filter="url(#filter0_d_83_6066)">
<path d="M61.6722 105.471C63.2228 105.15 64.2192 103.632 63.8976 102.081C60.7853 87.0758 60.419 75.575 62.7987 67.5787C65.1705 59.584 68.9956 55.0634 74.2644 53.9706C79.9781 52.7856 85.4501 55.4988 90.7555 62.119C96.0609 68.7392 100.191 79.2334 103.171 93.5968C103.529 95.3269 105.223 96.4385 106.953 96.0797L160.31 85.013C162.219 84.617 163.446 82.748 163.05 80.8385C156.633 49.8996 144.286 27.895 126.009 14.8248C107.732 1.75461 87.0378 -2.35958 63.9272 2.48216C43.9204 6.4517 26.1834 17.8747 14.371 34.3974C7.39701 44.51 3.00352 56.145 1.56982 68.2978C-0.408553 83.734 0.357578 99.385 3.83337 114.539C4.15499 116.09 5.67276 117.086 7.2234 116.764L61.6722 105.471Z" fill="#5E51FE"/>
<path d="M64.3164 4.44392L64.3269 4.44184L64.3373 4.43966C86.9317 -0.293919 107.049 3.72513 124.846 16.4516C142.573 29.1288 154.735 50.5978 161.092 81.2447C161.264 82.0726 160.732 82.883 159.904 83.0547L106.547 94.1214C105.898 94.2559 105.263 93.8392 105.129 93.1907C102.126 78.7148 97.9146 67.8542 92.3162 60.8683C86.7834 53.9644 80.6242 50.609 73.8582 52.0123C67.5248 53.3259 63.3391 58.7252 60.8813 67.0098C58.3582 75.4898 58.8075 87.3881 61.9392 102.487C62.0365 102.957 61.7351 103.416 61.266 103.513L6.81723 114.806C6.34813 114.903 5.88899 114.602 5.7917 114.133L5.78744 114.112L5.78275 114.092C2.35975 99.168 1.60518 83.7545 3.55359 68.5521L3.55487 68.5421L3.55605 68.5321C4.95077 56.7098 9.22364 45.389 16.0079 35.5468C27.5229 19.4474 44.812 8.31378 64.3164 4.44392Z" stroke="#19154A" stroke-width="4"/>
</g>
<defs>
<filter id="filter0_d_83_6066" x="0.498596" y="0.519043" width="173.626" height="132.306" filterUnits="userSpaceOnUse" color-interpolation-filters="sRGB">
<feFlood flood-opacity="0" result="BackgroundImageFix"/>
<feColorMatrix in="SourceAlpha" type="matrix" values="0 0 0 0 0 0 0 0 0 0 0 0 0 0 0 0 0 0 127 0" result="hardAlpha"/>
<feOffset dx="11" dy="16"/>
<feComposite in2="hardAlpha" operator="out"/>
<feColorMatrix type="matrix" values="0 0 0 0 0.0980392 0 0 0 0 0.0823529 0 0 0 0 0.290196 0 0 0 1 0"/>
<feBlend mode="normal" in2="BackgroundImageFix" result="effect1_dropShadow_83_6066"/>
<feBlend mode="normal" in="SourceGraphic" in2="effect1_dropShadow_83_6066" result="shape"/>
</filter>
</defs>
</svg>
