<svg width="242" height="70" viewBox="0 0 242 70" fill="none" xmlns="http://www.w3.org/2000/svg">
<rect x="0.754272" y="17.5269" width="238" height="52" rx="12" transform="rotate(-4.22325 0.754272 17.5269)" fill="#5E51FE"/>
<path d="M25.2837 52.8161L23.6798 31.0953L29.0113 30.7016L30.6152 52.4224L25.2837 52.8161ZM17.6867 35.9719L17.361 31.5619L35.3959 30.2301L35.7215 34.6401L17.6867 35.9719ZM45.6142 51.7781C44.1662 51.885 42.8579 51.7941 41.6895 51.5054C40.5194 51.1947 39.501 50.6964 38.6341 50.0103C37.7892 49.3227 37.1177 48.4458 36.6199 47.3795C36.122 46.3133 35.8204 45.0671 35.7151 43.641C35.613 42.2588 35.7165 40.9717 36.0256 39.7797C36.3566 38.586 36.8643 37.5448 37.5487 36.656C38.2534 35.7436 39.1373 35.0166 40.2003 34.4748C41.2852 33.9315 42.5188 33.6087 43.901 33.5067C45.3052 33.403 46.5509 33.5426 47.638 33.9256C48.7455 34.285 49.6717 34.8784 50.4167 35.7058C51.1835 36.5316 51.7785 37.5686 52.2016 38.8168C52.6231 40.0431 52.8389 41.4721 52.8491 43.1038L39.2644 44.2062L39.0602 41.4417L49.6172 40.5629L47.8361 41.9849C47.9086 40.8765 47.7772 39.9928 47.4417 39.3337C47.1047 38.6527 46.6505 38.1789 46.0794 37.9122C45.5066 37.6236 44.902 37.5028 44.2657 37.5498C43.4978 37.6065 42.8331 37.8651 42.2715 38.3258C41.7318 38.7847 41.3266 39.4213 41.0558 40.2355C40.785 41.0496 40.6918 42.0271 40.776 43.168C40.9089 44.9671 41.3892 46.2442 42.2171 46.9993C43.0669 47.7528 44.0951 48.085 45.3018 47.9958C45.8942 47.9521 46.3822 47.8389 46.7658 47.6561C47.1478 47.4514 47.4505 47.2195 47.674 46.9603C47.9179 46.6776 48.0943 46.3778 48.2032 46.0609C48.3341 45.7424 48.4329 45.4373 48.4996 45.1456L53.18 45.7927C53.0644 46.6174 52.8335 47.3735 52.4871 48.0609C52.1628 48.7466 51.6893 49.3551 51.0667 49.8864C50.4661 50.4161 49.7139 50.8356 48.8103 51.145C47.9302 51.4747 46.8648 51.6858 45.6142 51.7781ZM63.9386 50.425C62.7758 50.5108 61.7146 50.4789 60.7549 50.3292C59.7969 50.2014 58.9523 49.9659 58.221 49.6229C57.4898 49.2798 56.8735 48.851 56.3723 48.3365C55.8914 47.7985 55.538 47.1959 55.3123 46.5287L59.1327 44.4928C59.3138 44.8544 59.6055 45.2189 60.0076 45.5863C60.4301 45.9301 60.9684 46.1992 61.6225 46.3936C62.2985 46.5863 63.0972 46.6487 64.0187 46.5806C64.8963 46.5158 65.5676 46.3449 66.0324 46.0679C66.5176 45.7674 66.7424 45.3758 66.7068 44.8931C66.6808 44.5421 66.518 44.2783 66.2182 44.1019C65.9387 43.902 65.519 43.7455 64.9592 43.6324C64.3977 43.4974 63.7054 43.383 62.8823 43.2894C62.0356 43.1754 61.1763 43.0403 60.3044 42.8841C59.4309 42.706 58.6066 42.447 57.8315 42.1071C57.0547 41.7454 56.4117 41.2524 55.9023 40.6282C55.4133 39.9804 55.1307 39.141 55.0546 38.1098C54.9752 37.0347 55.1916 36.0812 55.7037 35.2492C56.2142 34.3953 57.0119 33.6967 58.0968 33.1533C59.2037 32.6083 60.5689 32.2758 62.1925 32.156C63.6406 32.049 64.9269 32.1416 66.0514 32.4335C67.176 32.7255 68.1262 33.1958 68.9021 33.8444C69.6983 34.4695 70.2746 35.2542 70.6311 36.1985L66.4975 38.0259C66.3521 37.5513 66.091 37.1514 65.714 36.8263C65.359 36.4996 64.9117 36.2679 64.3722 36.1312C63.853 35.971 63.2423 35.9169 62.5402 35.9687C61.6846 36.0319 61.0251 36.2129 60.5619 36.5119C60.1206 36.8092 59.9161 37.1772 59.9485 37.616C59.9744 37.9671 60.1499 38.2519 60.4749 38.4706C60.8202 38.6657 61.2947 38.8182 61.8984 38.928C62.5021 39.0378 63.2164 39.1505 64.0411 39.2661C64.9098 39.3785 65.7699 39.5245 66.6214 39.7043C67.4933 39.8605 68.2839 40.111 68.9932 40.4557C69.7228 40.7768 70.3086 41.2409 70.7505 41.848C71.2127 42.4316 71.4803 43.217 71.5532 44.2043C71.6391 45.3672 71.4064 46.3991 70.8553 47.3001C70.3025 48.1792 69.4398 48.8937 68.2671 49.4435C67.1147 49.9698 65.6719 50.297 63.9386 50.425ZM81.6692 49.0826C79.6288 49.2333 78.0862 48.8067 77.0414 47.8029C75.9951 46.7772 75.3836 45.0686 75.207 42.6771L74.7039 35.8647L72.2356 36.0469L72.0306 31.9258L73.8078 31.7946C74.5082 31.7208 75.0267 31.5722 75.3632 31.3488C75.7216 31.1238 75.9244 30.7338 75.9716 30.1789L76.2196 27.7119L79.2145 27.4907L79.4988 31.3413L83.6784 31.0326L83.9968 35.3439L79.8172 35.6525L80.2911 42.07C80.3462 42.816 80.5622 43.3516 80.9392 43.6767C81.3381 44.0002 81.9105 44.1344 82.6565 44.0793C83.0733 44.0485 83.465 43.9755 83.8315 43.8602C84.198 43.7449 84.4963 43.6015 84.7263 43.4301L85.0884 48.3338C84.4025 48.605 83.765 48.7844 83.1758 48.8721C82.6102 48.98 82.108 49.0502 81.6692 49.0826ZM88.228 48.1681L86.9448 30.7914L92.2434 30.4002L93.5265 47.7768L88.228 48.1681ZM89.4307 28.1592C88.4215 28.2337 87.6272 28.0828 87.0479 27.7065C86.4889 27.3065 86.1803 26.7116 86.122 25.9218C86.0604 25.0881 86.2775 24.4433 86.7733 23.9876C87.2894 23.5083 88.0521 23.2314 89.0613 23.1568C90.0925 23.0807 90.8876 23.2426 91.4466 23.6425C92.0258 24.0188 92.3455 24.6129 92.4054 25.4247C92.4654 26.2365 92.2373 26.8821 91.7212 27.3614C91.2254 27.8171 90.4619 28.0831 89.4307 28.1592ZM97.6447 47.4727L96.816 36.2503L96.3615 30.0961L100.541 29.7874L100.984 34.8837L101.642 34.8351C101.857 33.5618 102.186 32.5006 102.631 31.6516C103.074 30.7806 103.643 30.1209 104.338 29.6725C105.031 29.2022 105.861 28.9314 106.826 28.8601C107.835 28.7855 108.685 28.9434 109.376 29.3336C110.087 29.7002 110.67 30.2858 111.127 31.0904C111.582 31.873 111.92 32.8628 112.14 34.0598L112.7 34.0185C112.955 32.6981 113.338 31.611 113.849 30.757C114.358 29.8812 114.993 29.2276 115.755 28.7963C116.516 28.343 117.357 28.0824 118.279 28.0144C119.266 27.9414 120.136 28.0757 120.89 28.4172C121.663 28.7351 122.319 29.2602 122.859 29.9924C123.419 30.7011 123.861 31.617 124.187 32.7401C124.511 33.8412 124.728 35.1378 124.838 36.6297L125.487 45.4168L120.155 45.8105L119.555 37.6816C119.469 36.5188 119.299 35.5607 119.045 34.8074C118.813 34.0524 118.486 33.503 118.063 33.1592C117.639 32.7934 117.12 32.6332 116.505 32.6786C115.803 32.7305 115.217 33.0054 114.746 33.5034C114.298 33.9998 113.973 34.6746 113.771 35.5277C113.567 36.359 113.504 37.2902 113.58 38.3214L114.166 46.2528L108.966 46.6368L108.373 38.6066C108.284 37.3999 108.101 36.4207 107.825 35.669C107.571 34.9157 107.221 34.3569 106.775 33.9928C106.351 33.627 105.831 33.4668 105.217 33.5122C104.515 33.564 103.94 33.8381 103.491 34.3345C103.042 34.8309 102.717 35.5057 102.515 36.3589C102.334 37.1885 102.281 38.1189 102.358 39.1501L102.943 47.0815L97.6447 47.4727ZM137.365 45.0029C135.61 45.1325 134.027 44.9075 132.616 44.3278C131.228 43.7465 130.099 42.804 129.231 41.5004C128.363 40.1968 127.853 38.5248 127.702 36.4844C127.552 34.4439 127.811 32.7262 128.48 31.3311C129.148 29.9141 130.137 28.8263 131.449 28.0676C132.759 27.287 134.292 26.8319 136.047 26.7023C137.802 26.5727 139.385 26.7977 140.795 27.3774C142.206 27.9571 143.345 28.8988 144.214 30.2024C145.08 31.484 145.589 33.1451 145.74 35.1855C145.894 37.2698 145.626 39.0213 144.937 40.4399C144.247 41.8586 143.236 42.948 141.902 43.7083C140.589 44.445 139.076 44.8765 137.365 45.0029ZM137.245 41.1402C138.035 41.0819 138.68 40.8578 139.181 40.4679C139.68 40.056 140.034 39.4674 140.242 38.702C140.45 37.9365 140.514 37.0053 140.433 35.9083C140.347 34.7455 140.132 33.7797 139.789 33.0109C139.443 32.2202 138.97 31.6374 138.369 31.2627C137.788 30.8644 137.059 30.6976 136.181 30.7624C135.435 30.8175 134.802 31.0518 134.281 31.4653C133.78 31.8552 133.426 32.4329 133.217 33.1983C133.009 33.9637 132.946 34.9059 133.029 36.0248C133.162 37.8239 133.591 39.149 134.315 39.9999C135.062 40.8492 136.039 41.2294 137.245 41.1402ZM149.485 43.6447L148.712 33.1792L148.202 26.268L152.48 25.9521L152.923 31.0483L153.581 30.9997C153.775 29.75 154.105 28.6888 154.57 27.8162C155.035 26.9436 155.659 26.2799 156.442 25.825C157.223 25.3482 158.162 25.0693 159.259 24.9883C161.299 24.8376 162.899 25.4364 164.057 26.7848C165.237 28.1315 165.943 30.3626 166.173 33.4781L166.829 42.364L161.497 42.7577L160.885 34.4642C160.752 32.6651 160.392 31.3791 159.806 30.6062C159.24 29.8098 158.452 29.4488 157.443 29.5233C156.609 29.5849 155.936 29.8882 155.425 30.4334C154.936 30.9769 154.59 31.6752 154.389 32.5284C154.187 33.3815 154.124 34.3237 154.2 35.3549L154.784 43.2534L149.485 43.6447ZM170.632 42.0831L169.349 24.7064L174.648 24.3151L175.931 41.6918L170.632 42.0831ZM171.835 22.0742C170.826 22.1487 170.032 21.9978 169.452 21.6214C168.893 21.2215 168.585 20.6266 168.526 19.8368C168.465 19.003 168.682 18.3583 169.178 17.9025C169.694 17.4232 170.457 17.1463 171.466 17.0718C172.497 16.9956 173.292 17.1575 173.851 17.5575C174.43 17.9338 174.75 18.5279 174.81 19.3397C174.87 20.1515 174.642 20.797 174.126 21.2763C173.63 21.7321 172.866 21.998 171.835 22.0742ZM184.164 41.5471C183.199 41.6184 182.329 41.4951 181.556 41.1772C180.781 40.8374 180.158 40.3208 179.688 39.6276C179.216 38.9124 178.941 38.0282 178.863 36.9751C178.79 35.9878 178.917 35.1622 179.243 34.4984C179.589 33.811 180.11 33.2541 180.807 32.8277C181.524 32.3777 182.389 31.9939 183.402 31.6764C184.414 31.337 185.571 31.0199 186.873 30.7253C187.501 30.5686 188.02 30.431 188.43 30.3124C188.861 30.1703 189.178 29.9815 189.381 29.7459C189.584 29.5103 189.671 29.184 189.64 28.7672C189.599 28.2187 189.367 27.7615 188.943 27.3958C188.519 27.03 187.868 26.8795 186.99 26.9443C186.376 26.9897 185.825 27.1407 185.336 27.3974C184.87 27.6524 184.476 28.0013 184.156 28.4441C183.836 28.8869 183.61 29.411 183.478 30.0163L178.703 28.9792C178.92 28.0366 179.256 27.2066 179.71 26.4892C180.186 25.7702 180.77 25.1645 181.462 24.6723C182.152 24.1581 182.951 23.7682 183.857 23.5027C184.785 23.2136 185.775 23.0302 186.828 22.9524C188.583 22.8228 190.03 23.0027 191.17 23.4922C192.329 23.9581 193.216 24.764 193.83 25.9098C194.464 27.0322 194.849 28.5148 194.986 30.3578L195.182 33.0236C195.241 33.8134 195.311 34.6134 195.393 35.4236C195.495 36.2102 195.598 37.0078 195.702 37.8163C195.826 38.6013 195.962 39.3965 196.11 40.2018L191.436 40.5469C191.311 40.0487 191.179 39.4518 191.039 38.7562C190.898 38.0387 190.778 37.3085 190.679 36.5658L190.054 36.612C189.808 37.4684 189.415 38.2695 188.874 39.0154C188.354 39.7376 187.692 40.327 186.887 40.7835C186.103 41.2164 185.195 41.471 184.164 41.5471ZM186.29 37.6179C186.684 37.5888 187.075 37.4938 187.46 37.333C187.865 37.1486 188.246 36.922 188.601 36.6531C188.954 36.3623 189.271 36.019 189.551 35.6234C189.83 35.2277 190.031 34.8048 190.152 34.3546L189.894 31.7596L190.63 31.8707C190.233 32.1647 189.787 32.4072 189.294 32.598C188.801 32.7889 188.294 32.9476 187.774 33.0743C187.276 33.1993 186.779 33.3353 186.282 33.4822C185.806 33.6057 185.376 33.7587 184.992 33.9415C184.631 34.1226 184.35 34.3529 184.15 34.6324C183.95 34.9119 183.867 35.282 183.901 35.7427C183.946 36.3571 184.191 36.8353 184.636 37.1775C185.08 37.5197 185.631 37.6665 186.29 37.6179ZM199.622 39.9424L197.872 16.2469L203.072 15.8629L204.822 39.5584L199.622 39.9424ZM216.085 39.19C214.922 39.2758 213.861 39.2439 212.901 39.0942C211.943 38.9664 211.099 38.7309 210.367 38.3879C209.636 38.0448 209.02 37.616 208.519 37.1015C208.038 36.5635 207.684 35.9608 207.459 35.2937L211.279 33.2578C211.46 33.6194 211.752 33.9839 212.154 34.3513C212.576 34.6951 213.115 34.9642 213.769 35.1586C214.445 35.3513 215.244 35.4137 216.165 35.3456C217.043 35.2808 217.714 35.1099 218.179 34.8329C218.664 34.5324 218.889 34.1408 218.853 33.6581C218.827 33.3071 218.664 33.0433 218.364 32.8669C218.085 32.667 217.665 32.5104 217.105 32.3974C216.544 32.2624 215.852 32.148 215.029 32.0544C214.182 31.9404 213.323 31.8053 212.451 31.6491C211.577 31.471 210.753 31.212 209.978 30.8721C209.201 30.5104 208.558 30.0174 208.049 29.3932C207.56 28.7454 207.277 27.906 207.201 26.8748C207.121 25.7997 207.338 24.8462 207.85 24.0142C208.36 23.1603 209.158 22.4617 210.243 21.9183C211.35 21.3733 212.715 21.0408 214.339 20.921C215.787 20.814 217.073 20.9065 218.198 21.1985C219.322 21.4905 220.272 21.9608 221.048 22.6094C221.845 23.2345 222.421 24.0192 222.777 24.9635L218.644 26.7909C218.498 26.3163 218.237 25.9164 217.86 25.5913C217.505 25.2646 217.058 25.0329 216.518 24.8962C215.999 24.736 215.389 24.6819 214.687 24.7337C213.831 24.7969 213.171 24.9779 212.708 25.2769C212.267 25.5742 212.062 25.9422 212.095 26.381C212.121 26.7321 212.296 27.0169 212.621 27.2356C212.966 27.4307 213.441 27.5832 214.045 27.693C214.648 27.8028 215.363 27.9155 216.187 28.0311C217.056 28.1435 217.916 28.2895 218.768 28.4693C219.64 28.6255 220.43 28.876 221.139 29.2207C221.869 29.5418 222.455 30.0059 222.897 30.613C223.359 31.1966 223.627 31.982 223.699 32.9693C223.785 34.1322 223.553 35.1641 223.002 36.0651C222.449 36.9442 221.586 37.6587 220.413 38.2085C219.261 38.7348 217.818 39.062 216.085 39.19Z" fill="white"/>
</svg>
