<svg width="165" height="119" viewBox="0 0 165 119" fill="none" xmlns="http://www.w3.org/2000/svg">
<path d="M100.103 28.6582C97.3893 34.0837 95.1406 39.6001 92.8539 45.1013C91.766 47.7167 90.5367 50.2732 89.3727 52.8583C88.9439 53.8089 88.4555 54.7406 88.1219 55.7242C87.9419 56.2542 87.901 56.9085 88.0351 57.4461C88.2497 58.3074 88.7002 59.1046 88.9806 59.9543C89.6044 61.8457 89.6181 63.727 88.9987 65.6573C88.4941 67.2297 87.4777 68.1814 86.0006 68.7254C84.1198 69.4173 82.2393 69.6434 80.3715 68.6503C79.5597 68.2174 78.8762 67.676 78.517 66.799C78.233 66.1093 77.9205 65.4288 77.6772 64.7251C76.6029 61.6211 76.4106 61.8529 73.6985 61.2565C69.9142 60.4234 66.1465 59.5095 62.382 58.5883C59.0519 57.7721 55.7322 56.9157 52.4211 56.0298C51.509 55.7867 50.675 55.8301 49.8112 56.1822C48.7069 56.6324 47.5934 57.0642 46.4632 57.4483C45.4301 57.7984 44.3925 57.6345 43.4045 57.2384C42.5574 56.8995 41.8198 56.3994 41.44 55.5164C41.1456 54.8308 40.909 54.1185 40.5864 53.448C39.7227 51.6565 40.0519 49.9641 40.9659 48.3199C41.1794 47.9372 41.4357 47.4998 41.7917 47.2862C43.7406 46.1221 45.767 45.1765 48.129 45.9039C49.3136 46.2692 50.3055 46.9267 50.7437 48.1541C51.1432 49.2723 51.5544 50.3999 51.795 51.5582C52.0144 52.6163 52.6729 53.027 53.5905 53.264C59.0788 54.6767 64.5544 56.1285 70.0548 57.4902C72.3663 58.0628 74.7243 58.4466 77.1921 58.9419C78.921 57.595 80.8168 56.4696 83.1583 56.4163C84.1709 56.3934 84.7854 55.7274 85.1687 54.8709C87.1178 50.5174 89.3301 46.2877 91.0589 41.8277C92.4572 38.2157 94.1099 34.7048 95.6556 31.1514C95.8933 30.6048 96.1818 30.0804 96.4147 29.5317C96.8348 28.5384 96.9838 27.5447 96.4775 26.5125C96.1496 25.844 95.9095 25.1332 95.6308 24.4414C94.9977 22.8648 94.9816 21.2493 95.3049 19.6034C95.4897 18.6601 95.9452 17.8957 96.8401 17.5514C98.3665 16.9641 99.9123 16.4113 101.482 15.9614C102.63 15.6327 103.973 16.3455 104.455 17.4234C104.88 18.3769 105.274 19.3468 105.616 20.333C106.178 21.9553 105.954 23.5765 105.422 25.1556C105.073 26.1873 104.343 26.9486 103.343 27.3822C102.258 27.851 101.144 28.2509 100.103 28.6582ZM80.5146 64.1185C80.6816 64.4887 80.7927 64.7623 80.9268 65.0229C81.3722 65.8943 82.1364 66.3238 83.0685 66.3003C85.4125 66.2379 86.6804 64.8826 86.4257 62.6521C86.3293 61.8007 86.0153 60.9522 85.6727 60.159C85.4397 59.62 84.9398 59.2556 84.2639 59.3234C83.6793 59.3836 83.0894 59.4097 82.5128 59.5109C80.104 59.9358 79.8861 61.2816 80.163 62.9636C80.2348 63.3931 80.4174 63.8033 80.5146 64.1185ZM48.549 50.5465C48.3584 50.1314 48.3018 49.997 48.2365 49.866C47.8105 49.0031 46.9682 48.5278 46.0834 48.7236C45.5164 48.8492 44.9472 49.0258 44.4199 49.2683C43.5886 49.6518 43.108 50.5624 43.1988 51.4201C43.214 51.5666 43.2198 51.7149 43.2479 51.8584C43.7545 54.5684 45.2377 55.2143 47.6665 53.7841C47.7923 53.7108 47.9144 53.6228 48.0193 53.5216C48.4528 53.101 48.7806 52.6155 48.7298 51.9831C48.6835 51.4031 48.5854 50.8293 48.549 50.5465ZM102.675 20.5022C102.379 20.0002 102.269 19.7099 102.069 19.5113C101.872 19.3154 101.586 19.0939 101.335 19.0879C99.0312 19.0422 97.7808 20.4629 98.1968 22.6644C98.3033 23.2289 98.5495 23.7708 98.7694 24.3069C98.9664 24.7898 99.6462 25.142 100.212 25.1053C102.021 24.9893 102.98 24.0659 102.943 22.3747C102.924 21.6613 102.742 20.9497 102.675 20.5022Z" fill="#5E51FE"/>
<path d="M152.728 51.517C151.359 51.3284 150.293 50.6778 149.544 49.5806C148.993 48.7701 148.454 47.9509 147.958 47.1077C147.447 46.2397 147.335 45.2592 147.384 44.263C147.418 43.5442 147.642 42.8642 148.173 42.3206C149.195 41.2734 150.301 40.3125 151.655 39.6881C152.653 39.2277 153.73 39.1666 154.546 39.8583C156.3 41.3489 157.601 43.1335 157.945 45.4855C158.147 46.874 157.739 48.0355 156.589 48.8741C155.293 49.8191 153.896 50.6353 152.55 51.5075C152.557 51.5048 152.728 51.517 152.728 51.517ZM151.759 43.3186C151.276 43.7622 150.638 44.2402 150.73 45.0039C150.863 46.1139 151.205 47.1592 152.401 47.6513C152.526 47.7023 152.683 47.7317 152.82 47.712C153.813 47.5797 154.731 46.5299 154.647 45.6857C154.562 44.836 154.259 44.1003 153.695 43.4512C153.203 42.8891 152.402 42.7972 151.759 43.3186Z" fill="#5E51FE"/>
<path d="M14.2401 83.9252C12.8711 83.7367 11.8053 83.0863 11.0566 81.9892C10.5054 81.1789 9.96663 80.3598 9.47007 79.5168C8.95982 78.6489 8.84791 77.6685 8.89646 76.6725C8.93055 75.9537 9.15379 75.2722 9.68553 74.7303C10.7079 73.6832 11.8136 72.7223 13.1673 72.0963C14.1654 71.636 15.2423 71.5747 16.0585 72.2663C17.812 73.7567 19.1133 75.541 19.4565 77.8926C19.6586 79.281 19.2503 80.4423 18.1001 81.2792C16.8037 82.2241 15.4073 83.0403 14.0607 83.9125C14.0688 83.9131 14.2401 83.9252 14.2401 83.9252ZM13.2732 75.7273C12.7903 76.1709 12.1522 76.6488 12.2447 77.4124C12.3776 78.5222 12.7192 79.5675 13.9147 80.0577C14.0398 80.1087 14.1961 80.1381 14.3332 80.1184C15.3268 79.9861 16.245 78.9364 16.1606 78.0923C16.076 77.2427 15.7723 76.5071 15.2089 75.8581C14.7161 75.2984 13.9162 75.2059 13.2732 75.7273Z" fill="#CB73FE"/>
<path d="M120.818 80.3482C119.281 80.1449 118.087 79.426 117.251 78.2085C116.636 77.3092 116.035 76.4002 115.481 75.4643C114.912 74.5008 114.791 73.4102 114.85 72.3014C114.894 71.5005 115.146 70.7417 115.745 70.1342C116.898 68.964 118.144 67.8895 119.669 67.1882C120.792 66.6711 122.004 66.5972 122.915 67.3638C124.877 69.0142 126.331 70.9939 126.705 73.6096C126.925 75.1538 126.461 76.4483 125.166 77.385C123.705 78.4428 122.133 79.3578 120.616 80.3349C120.625 80.3337 120.818 80.3482 120.818 80.3482ZM119.77 71.2288C119.226 71.7248 118.507 72.2597 118.605 73.1098C118.749 74.3444 119.129 75.5079 120.469 76.0479C120.61 76.1041 120.787 76.1353 120.939 76.1135C122.056 75.9615 123.092 74.7889 123.001 73.85C122.908 72.9055 122.572 72.0875 121.943 71.3678C121.392 70.7428 120.494 70.6437 119.77 71.2288Z" fill="#CB73FE"/>
</svg>
