<svg width="158" height="111" viewBox="0 0 158 111" fill="none" xmlns="http://www.w3.org/2000/svg">
<g clip-path="url(#clip0_83_6077)">
<path d="M7.49978 57.0322C7.28864 56.8451 7.09795 56.6744 6.9282 56.5211C7.0725 56.3439 7.23479 56.1463 7.41478 55.9293C8.30283 54.8591 9.6209 53.3209 11.3308 51.4627C14.7519 47.7447 19.734 42.7536 25.9709 37.6675C38.472 27.4731 55.8735 17.012 75.7597 15.481C95.6453 13.95 114.44 21.6349 128.352 29.8069C135.293 33.8839 140.979 38.0592 144.928 41.2138C146.901 42.7905 148.439 44.1105 149.48 45.0335C149.692 45.2208 149.882 45.3918 150.052 45.5452C149.908 45.7226 149.746 45.9205 149.565 46.1376C148.678 47.2082 147.36 48.7467 145.65 50.6053C142.23 54.3241 137.248 59.3162 131.012 64.4029C118.512 74.5986 101.111 85.0594 81.2233 86.585C61.3356 88.1106 42.5399 80.4256 28.6279 72.2551C21.6872 68.1788 16.0011 64.0046 12.0521 60.8508C10.0785 59.2745 8.54089 57.9549 7.49978 57.0322Z" fill="white" stroke="#26103D" stroke-width="3"/>
<path d="M106.25 49.5356C106.665 54.9528 105.467 60.3708 102.807 65.1045C100.148 69.8381 96.147 73.6746 91.3105 76.1294C86.4741 78.5842 81.0192 79.547 75.6354 78.8964C70.2515 78.2457 65.1802 76.0107 61.0627 72.4734C56.9452 68.9361 53.9665 64.2555 52.5038 59.0233C51.041 53.791 51.16 48.2425 52.8454 43.0793C54.5307 37.9162 57.7068 33.3706 61.9716 30.017C66.2363 26.6634 71.3983 24.6524 76.8049 24.2378C80.3954 23.9625 84.0053 24.3983 87.4284 25.5205C90.8514 26.6427 94.0205 28.4293 96.7549 30.7784C99.4893 33.1275 101.735 35.993 103.364 39.2114C104.994 42.4299 105.974 45.938 106.25 49.5356Z" fill="#CB73FE" stroke="#26103D" stroke-width="3"/>
<path d="M7.26458 54.9909C7.83104 53.795 8.65603 52.169 9.77066 50.2437C12.2248 46.0044 16.0762 40.3252 21.6537 34.5883C32.7902 23.1336 50.8291 11.4204 78.5015 10.4926C106.241 9.56255 124.299 18.5285 135.412 27.6437C140.98 32.2114 144.824 36.8326 147.27 40.3012C148.333 41.8096 149.132 43.0986 149.692 44.0685L7.26458 54.9909Z" fill="#CB73FE" stroke="#26103D" stroke-width="3"/>
<mask id="path-4-inside-1_83_6077" fill="white">
<path d="M128.137 61.0281C131.053 66.5141 133.969 71.9995 136.885 77.484C137.239 78.1536 137.959 78.5631 138.711 78.2577C139.364 77.9934 139.839 77.1007 139.482 76.4269C136.568 70.9422 133.652 65.4576 130.735 59.9732C130.38 59.3037 129.661 58.8941 128.909 59.1996C128.255 59.4616 127.78 60.3543 128.137 61.0281Z"/>
</mask>
<path d="M128.137 61.0281C131.053 66.5141 133.969 71.9995 136.885 77.484C137.239 78.1536 137.959 78.5631 138.711 78.2577C139.364 77.9934 139.839 77.1007 139.482 76.4269C136.568 70.9422 133.652 65.4576 130.735 59.9732C130.38 59.3037 129.661 58.8941 128.909 59.1996C128.255 59.4616 127.78 60.3543 128.137 61.0281Z" fill="#26103D"/>
<path d="M128.137 61.0281L125.487 62.4343L125.488 62.4361L128.137 61.0281ZM136.885 77.484L139.536 76.0794L139.534 76.0758L136.885 77.484ZM138.711 78.2577L137.587 75.4762L137.581 75.4783L138.711 78.2577ZM139.482 76.4269L142.132 75.0207L142.131 75.0193L139.482 76.4269ZM130.735 59.9732L128.084 61.3779L128.086 61.3821L130.735 59.9732ZM128.909 59.1996L130.024 61.9845L130.031 61.9818L130.038 61.9789L128.909 59.1996ZM125.488 62.4361C128.404 67.9222 131.32 73.4076 134.236 78.8923L139.534 76.0758C136.618 70.5913 133.702 65.106 130.786 59.62L125.488 62.4361ZM134.234 78.8887C135.081 80.4878 137.252 82.0886 139.84 81.037L137.581 75.4783C138.011 75.3039 138.51 75.3285 138.913 75.5161C139.266 75.6802 139.45 75.917 139.536 76.0794L134.234 78.8887ZM139.835 81.0392C140.967 80.5816 141.774 79.6836 142.203 78.7444C142.642 77.7852 142.855 76.3826 142.132 75.0207L136.832 77.8332C136.467 77.1451 136.62 76.5257 136.748 76.2474C136.866 75.9891 137.108 75.6695 137.587 75.4762L139.835 81.0392ZM142.131 75.0193C139.217 69.5342 136.301 64.0492 133.383 58.5644L128.086 61.3821C131.003 66.8661 133.919 72.3502 136.833 77.8346L142.131 75.0193ZM133.385 58.5686C132.538 56.9695 130.368 55.3687 127.78 56.4202L130.038 61.9789C129.609 62.1534 129.109 62.1288 128.706 61.9412C128.353 61.7771 128.17 61.5402 128.084 61.3779L133.385 58.5686ZM127.793 56.4146C126.656 56.8702 125.847 57.7702 125.416 58.7098C124.976 59.6697 124.765 61.0726 125.487 62.4343L130.787 59.6218C131.152 60.3097 130.999 60.9294 130.871 61.209C130.752 61.4683 130.508 61.791 130.024 61.9845L127.793 56.4146Z" fill="#26103D" mask="url(#path-4-inside-1_83_6077)"/>
<mask id="path-6-inside-2_83_6077" fill="white">
<path d="M136.08 57.7179C138.925 61.2151 141.77 64.7116 144.616 68.2073C144.727 68.3547 144.865 68.4788 145.024 68.5725C145.182 68.6661 145.358 68.7276 145.54 68.7533C145.723 68.7791 145.908 68.7686 146.087 68.7225C146.265 68.6764 146.432 68.5955 146.58 68.4846C146.727 68.3736 146.85 68.2348 146.944 68.0759C147.037 67.917 147.099 67.7412 147.124 67.5585C147.15 67.3759 147.139 67.1899 147.093 67.0113C147.047 66.8327 146.966 66.665 146.856 66.5176L138.319 56.0282C138.096 55.7306 137.763 55.5342 137.395 55.4822C137.026 55.4302 136.653 55.5268 136.356 55.7509C136.059 55.975 135.863 56.3081 135.811 56.677C135.759 57.0459 135.856 57.4203 136.08 57.7179Z"/>
</mask>
<path d="M136.08 57.7179C138.925 61.2151 141.77 64.7116 144.616 68.2073C144.727 68.3547 144.865 68.4788 145.024 68.5725C145.182 68.6661 145.358 68.7276 145.54 68.7533C145.723 68.7791 145.908 68.7686 146.087 68.7225C146.265 68.6764 146.432 68.5955 146.58 68.4846C146.727 68.3736 146.85 68.2348 146.944 68.0759C147.037 67.917 147.099 67.7412 147.124 67.5585C147.15 67.3759 147.139 67.1899 147.093 67.0113C147.047 66.8327 146.966 66.665 146.856 66.5176L138.319 56.0282C138.096 55.7306 137.763 55.5342 137.395 55.4822C137.026 55.4302 136.653 55.5268 136.356 55.7509C136.059 55.975 135.863 56.3081 135.811 56.677C135.759 57.0459 135.856 57.4203 136.08 57.7179Z" fill="#26103D"/>
<path d="M144.616 68.2073L147.013 66.4041L146.979 66.3582L146.942 66.3136L144.616 68.2073ZM146.856 66.5176L149.253 64.7144L149.219 64.6686L149.182 64.624L146.856 66.5176ZM138.319 56.0282L135.922 57.8314L135.956 57.8772L135.993 57.9217L138.319 56.0282ZM133.753 59.6112C136.598 63.1086 139.444 66.6052 142.289 70.1011L146.942 66.3136C144.097 62.818 141.252 59.3216 138.407 55.8245L133.753 59.6112ZM142.218 70.0105C142.565 70.472 143 70.8614 143.499 71.1558L146.549 65.9891C146.73 66.0962 146.888 66.2374 147.013 66.4041L142.218 70.0105ZM143.499 71.1558C143.997 71.45 144.548 71.643 145.121 71.7239L145.96 65.7828C146.168 65.8122 146.368 65.8823 146.549 65.9891L143.499 71.1558ZM145.121 71.7239C145.694 71.8048 146.277 71.7719 146.838 71.6269L145.335 65.8181C145.539 65.7654 145.751 65.7534 145.96 65.7828L145.121 71.7239ZM146.838 71.6269C147.398 71.4821 147.924 71.2281 148.386 70.8796L144.773 66.0896C144.941 65.963 145.132 65.8707 145.335 65.8181L146.838 71.6269ZM148.386 70.8796C148.849 70.5308 149.237 70.0947 149.53 69.5969L144.358 66.5548C144.464 66.3748 144.605 66.2165 144.773 66.0896L148.386 70.8796ZM149.53 69.5969C149.823 69.0987 150.015 68.5477 150.095 67.9754L144.153 67.1416C144.182 66.9346 144.252 66.7352 144.358 66.5548L149.53 69.5969ZM150.095 67.9754C150.175 67.4036 150.143 66.8212 149.998 66.2614L144.189 67.7612C144.136 67.5587 144.124 67.3481 144.153 67.1416L150.095 67.9754ZM149.998 66.2614C149.854 65.7018 149.6 65.1761 149.253 64.7144L144.458 68.3208C144.332 68.1538 144.241 67.9637 144.189 67.7612L149.998 66.2614ZM149.182 64.624L140.646 54.1346L135.993 57.9217L144.529 68.4112L149.182 64.624ZM140.717 54.225C140.016 53.2922 138.972 52.675 137.814 52.5116L136.975 58.4527C136.554 58.3933 136.176 58.169 135.922 57.8314L140.717 54.225ZM137.814 52.5116C136.656 52.3482 135.482 52.6522 134.549 53.356L138.162 58.1459C137.823 58.4015 137.396 58.5121 136.975 58.4527L137.814 52.5116ZM134.549 53.356C133.616 54.0595 133.002 55.1044 132.84 56.2601L138.782 57.0939C138.723 57.5118 138.501 57.8905 138.162 58.1459L134.549 53.356ZM132.84 56.2601C132.678 57.416 132.981 58.5888 133.682 59.5211L138.477 55.9147C138.731 56.2518 138.84 56.6757 138.782 57.0939L132.84 56.2601Z" fill="#26103D" mask="url(#path-6-inside-2_83_6077)"/>
<mask id="path-8-inside-3_83_6077" fill="white">
<path d="M117.26 72.6358C118.948 78.6286 121.711 84.2635 125.416 89.264C126.5 90.7148 128.733 89.0304 127.656 87.5743C124.107 82.763 121.464 77.3428 119.86 71.5807C119.655 70.8478 118.677 70.5441 118.032 70.8073C117.266 71.1259 117.056 71.9029 117.26 72.6358Z"/>
</mask>
<path d="M117.26 72.6358C118.948 78.6286 121.711 84.2635 125.416 89.264C126.5 90.7148 128.733 89.0304 127.656 87.5743C124.107 82.763 121.464 77.3428 119.86 71.5807C119.655 70.8478 118.677 70.5441 118.032 70.8073C117.266 71.1259 117.056 71.9029 117.26 72.6358Z" fill="#26103D"/>
<path d="M125.416 89.264L123.006 91.05L123.013 91.0591L125.416 89.264ZM127.656 87.5743L125.242 89.3554L125.244 89.3585L127.656 87.5743ZM119.86 71.5807L122.75 70.776L122.75 70.7737L119.86 71.5807ZM118.032 70.8073L116.899 68.0297L116.889 68.0334L116.88 68.0372L118.032 70.8073ZM114.373 73.4488C116.159 79.792 119.084 85.7567 123.006 91.05L127.827 87.4781C124.339 82.7704 121.737 77.4652 120.148 71.8228L114.373 73.4488ZM123.013 91.0591C123.79 92.0996 124.925 92.7256 126.172 92.81C127.337 92.8888 128.383 92.4853 129.153 91.9044C129.924 91.323 130.594 90.4323 130.843 89.3017C131.109 88.0937 130.84 86.8332 130.068 85.7901L125.244 89.3585C125.011 89.0435 124.867 88.5395 124.983 88.0115C125.082 87.561 125.328 87.2737 125.54 87.1141C125.751 86.9549 126.103 86.7915 126.577 86.8237C127.135 86.8614 127.585 87.1538 127.82 87.469L123.013 91.0591ZM130.07 85.7932C126.738 81.2759 124.257 76.1865 122.75 70.776L116.97 72.3854C118.672 78.499 121.476 84.2502 125.242 89.3554L130.07 85.7932ZM122.75 70.7737C122.325 69.2524 121.161 68.3937 120.186 68.0197C119.232 67.6534 118.028 67.5687 116.899 68.0297L119.166 73.5849C118.681 73.7828 118.289 73.7183 118.036 73.6213C117.763 73.5166 117.191 73.1761 116.971 72.3877L122.75 70.7737ZM116.88 68.0372C114.285 69.1161 113.897 71.746 114.371 73.4428L120.15 71.8288C120.186 71.9583 120.232 72.2469 120.089 72.624C119.924 73.0638 119.574 73.415 119.184 73.5774L116.88 68.0372Z" fill="#26103D" mask="url(#path-8-inside-3_83_6077)"/>
<mask id="path-10-inside-4_83_6077" fill="white">
<path d="M107.307 77.7572C108.226 83.3371 110.19 88.6931 113.095 93.5428C113.483 94.1833 114.501 94.24 115.059 93.8201C115.717 93.322 115.725 92.5071 115.335 91.8531C112.701 87.4167 110.922 82.5243 110.091 77.4306C109.8 75.6514 107.012 75.9624 107.307 77.7572Z"/>
</mask>
<path d="M107.307 77.7572C108.226 83.3371 110.19 88.6931 113.095 93.5428C113.483 94.1833 114.501 94.24 115.059 93.8201C115.717 93.322 115.725 92.5071 115.335 91.8531C112.701 87.4167 110.922 82.5243 110.091 77.4306C109.8 75.6514 107.012 75.9624 107.307 77.7572Z" fill="#26103D"/>
<path d="M107.307 77.7572L104.347 78.2438L104.347 78.2445L107.307 77.7572ZM113.095 93.5428L110.522 95.0846L110.525 95.0908L110.529 95.0969L113.095 93.5428ZM115.059 93.8201L116.863 96.2171L116.869 96.2127L115.059 93.8201ZM115.335 91.8531L112.756 93.3848L112.758 93.3881L115.335 91.8531ZM110.091 77.4306L113.052 76.9476L113.051 76.9465L110.091 77.4306ZM104.347 78.2445C105.327 84.197 107.422 89.9108 110.522 95.0846L115.669 92.001C112.957 87.4755 111.125 82.4773 110.268 77.2699L104.347 78.2445ZM110.529 95.0969C111.333 96.4237 112.657 96.9459 113.68 97.0605C114.687 97.1733 115.878 96.9585 116.863 96.2171L113.255 91.423C113.682 91.1015 114.085 91.0683 114.347 91.0977C114.625 91.1288 115.246 91.3024 115.661 91.9887L110.529 95.0969ZM116.869 96.2127C119.118 94.5114 118.82 91.8423 117.913 90.3181L112.758 93.3881C112.681 93.2593 112.565 92.9887 112.605 92.5912C112.653 92.1295 112.898 91.6931 113.249 91.4274L116.869 96.2127ZM117.915 90.3213C115.472 86.2077 113.822 81.6711 113.052 76.9476L107.13 77.9137C108.021 83.3776 109.93 88.6257 112.756 93.3848L117.915 90.3213ZM113.051 76.9465C112.586 74.0993 110.015 73.0584 108.138 73.2731C107.184 73.3824 106.125 73.8118 105.33 74.7115C104.471 75.6819 104.136 76.9608 104.347 78.2438L110.268 77.2706C110.331 77.6562 110.234 78.2232 109.824 78.6861C109.477 79.0783 109.079 79.2047 108.82 79.2342C108.558 79.2643 108.211 79.2234 107.859 78.9957C107.449 78.7293 107.194 78.3058 107.13 77.9148L113.051 76.9465Z" fill="#26103D" mask="url(#path-10-inside-4_83_6077)"/>
<path d="M93.9531 85.0472C93.9529 85.0466 93.9527 85.0461 93.9525 85.0455L93.9531 85.0472Z" fill="#26103D" stroke="#26103D" stroke-width="3"/>
<mask id="path-13-inside-5_83_6077" fill="white">
<path d="M81.724 86.5283C81.6784 91.3282 81.627 96.1303 81.5698 100.935C81.5605 101.693 82.4426 102.245 83.1249 102.165C83.9582 102.068 84.3463 101.368 84.3553 100.608C84.4006 95.8049 84.4521 91.0028 84.5097 86.2015C84.5164 85.4415 83.6365 84.8884 82.952 84.9687C82.121 85.0662 81.7327 85.7658 81.724 86.5283Z"/>
</mask>
<path d="M81.724 86.5283C81.6784 91.3282 81.627 96.1303 81.5698 100.935C81.5605 101.693 82.4426 102.245 83.1249 102.165C83.9582 102.068 84.3463 101.368 84.3553 100.608C84.4006 95.8049 84.4521 91.0028 84.5097 86.2015C84.5164 85.4415 83.6365 84.8884 82.952 84.9687C82.121 85.0662 81.7327 85.7658 81.724 86.5283Z" fill="#26103D"/>
<path d="M81.5698 100.935L84.5695 100.971L84.5695 100.97L81.5698 100.935ZM84.3553 100.608L87.3551 100.643L87.3552 100.636L84.3553 100.608ZM84.5097 86.2015L87.5095 86.2375L87.5096 86.228L84.5097 86.2015ZM78.7242 86.4998C78.6786 91.2973 78.6272 96.097 78.57 100.899L84.5695 100.97C84.6269 96.1637 84.6782 91.3591 84.7239 86.5568L78.7242 86.4998ZM78.57 100.898C78.5501 102.526 79.4858 103.678 80.3163 104.285C81.1312 104.882 82.2654 105.287 83.4745 105.145L82.7754 99.1859C83.3021 99.1241 83.6541 99.2929 83.8597 99.4433C84.0809 99.6052 84.5801 100.101 84.5695 100.971L78.57 100.898ZM83.4745 105.145C84.7417 104.996 85.8002 104.341 86.4872 103.383C87.1257 102.493 87.3451 101.49 87.3551 100.643L81.3555 100.572C81.3565 100.486 81.3774 100.213 81.6113 99.8868C81.7349 99.7144 81.9096 99.5424 82.1365 99.4078C82.3649 99.2722 82.5908 99.2075 82.7754 99.1859L83.4745 105.145ZM87.3552 100.636C87.4004 95.8358 87.4519 91.0363 87.5095 86.2375L81.5099 86.1655C81.4523 90.9694 81.4007 95.7741 81.3554 100.58L87.3552 100.636ZM87.5096 86.228C87.5239 84.6089 86.5959 83.4601 85.763 82.8499C84.9463 82.2517 83.8116 81.8473 82.6024 81.9892L83.3015 87.9483C82.7769 88.0099 82.4244 87.8419 82.2171 87.6901C81.9937 87.5263 81.5022 87.0341 81.5098 86.175L87.5096 86.228ZM82.6024 81.9892C81.3337 82.138 80.2755 82.795 79.5897 83.7536C78.9525 84.6444 78.7339 85.6473 78.7242 86.4941L84.7238 86.5626C84.7229 86.6468 84.7027 86.9187 84.4696 87.2446C84.3462 87.4171 84.1715 87.5897 83.944 87.7249C83.7149 87.8612 83.4878 87.9265 83.3015 87.9483L82.6024 81.9892Z" fill="#26103D" mask="url(#path-13-inside-5_83_6077)"/>
<mask id="path-15-inside-6_83_6077" fill="white">
<path d="M67.3546 84.3405C64.8064 88.1379 63.6167 92.6878 63.9792 97.2497C63.9937 97.4385 64.0461 97.6225 64.1334 97.7905C64.2206 97.9586 64.3408 98.1072 64.4867 98.2276C64.6327 98.348 64.8015 98.4376 64.9829 98.491C65.1643 98.5445 65.3547 98.5607 65.5424 98.5387C65.7302 98.5166 65.9115 98.4568 66.0756 98.3628C66.2397 98.2688 66.3832 98.1426 66.4973 97.9917C66.6115 97.8408 66.6941 97.6684 66.74 97.4847C66.786 97.301 66.7945 97.1099 66.7649 96.9229C66.4563 93.0958 67.4391 89.2763 69.5559 86.0763C69.9751 85.4463 69.9512 84.6007 69.3243 84.1026C68.7656 83.6605 67.7773 83.7009 67.3538 84.3338L67.3546 84.3405Z"/>
</mask>
<path d="M67.3546 84.3405C64.8064 88.1379 63.6167 92.6878 63.9792 97.2497C63.9937 97.4385 64.0461 97.6225 64.1334 97.7905C64.2206 97.9586 64.3408 98.1072 64.4867 98.2276C64.6327 98.348 64.8015 98.4376 64.9829 98.491C65.1643 98.5445 65.3547 98.5607 65.5424 98.5387C65.7302 98.5166 65.9115 98.4568 66.0756 98.3628C66.2397 98.2688 66.3832 98.1426 66.4973 97.9917C66.6115 97.8408 66.6941 97.6684 66.74 97.4847C66.786 97.301 66.7945 97.1099 66.7649 96.9229C66.4563 93.0958 67.4391 89.2763 69.5559 86.0763C69.9751 85.4463 69.9512 84.6007 69.3243 84.1026C68.7656 83.6605 67.7773 83.7009 67.3538 84.3338L67.3546 84.3405Z" fill="#26103D"/>
<path d="M67.3546 84.3405L69.8457 86.0122L70.4634 85.0918L70.3342 83.9909L67.3546 84.3405ZM63.9792 97.2497L66.9704 97.0199L66.9698 97.0121L63.9792 97.2497ZM66.7649 96.9229L63.7746 97.1639L63.7838 97.2783L63.8017 97.3917L66.7649 96.9229ZM69.5559 86.0763L67.0582 84.4144L67.0537 84.4212L69.5559 86.0763ZM69.3243 84.1026L71.1906 81.7538L71.1859 81.7501L69.3243 84.1026ZM67.3538 84.3338L64.8605 82.6654L64.2454 83.5847L64.3743 84.6833L67.3538 84.3338ZM64.8635 82.6689C61.938 87.0285 60.5726 92.2514 60.9886 97.4873L66.9698 97.0121C66.6609 93.1242 67.6749 89.2472 69.8457 86.0122L64.8635 82.6689ZM60.988 97.4795C61.0334 98.0707 61.1976 98.6466 61.4707 99.1726L66.796 96.4084C66.8946 96.5984 66.954 96.8063 66.9704 97.0199L60.988 97.4795ZM61.4707 99.1726C61.7436 99.6983 62.12 100.164 62.5782 100.542L66.3953 95.913C66.5615 96.0501 66.6976 96.2188 66.796 96.4084L61.4707 99.1726ZM62.5782 100.542C63.0363 100.92 63.5659 101.201 64.135 101.369L65.8309 95.6134C66.0372 95.6742 66.2292 95.776 66.3953 95.913L62.5782 100.542ZM64.135 101.369C64.7043 101.536 65.302 101.587 65.892 101.518L65.1928 95.5591C65.4073 95.5339 65.6243 95.5525 65.8309 95.6134L64.135 101.369ZM65.892 101.518C66.4822 101.449 67.0517 101.261 67.5666 100.966L64.5846 95.7596C64.7712 95.6527 64.9782 95.5843 65.1928 95.5591L65.892 101.518ZM67.5666 100.966C68.0814 100.671 68.5316 100.275 68.8898 99.8017L64.1049 96.1817C64.2347 96.01 64.3979 95.8665 64.5846 95.7596L67.5666 100.966ZM68.8898 99.8017C69.2475 99.3289 69.5063 98.7885 69.6503 98.2129L63.8298 96.7564C63.8819 96.5482 63.9755 96.3527 64.1049 96.1817L68.8898 99.8017ZM69.6503 98.2129C69.7942 97.638 69.8207 97.0397 69.728 96.454L63.8017 97.3917C63.7682 97.1801 63.7778 96.9641 63.8298 96.7564L69.6503 98.2129ZM69.7552 96.6818C69.5005 93.5231 70.3118 90.3713 72.058 87.7314L67.0537 84.4212C64.5665 88.1814 63.4122 92.6686 63.7746 97.1639L69.7552 96.6818ZM72.0535 87.7382C73.1314 86.1182 73.3075 83.4359 71.1906 81.7538L67.4579 86.4513C67.0955 86.1633 66.8827 85.7312 66.8446 85.3107C66.8101 84.9295 66.9191 84.6235 67.0582 84.4145L72.0535 87.7382ZM71.1859 81.7501C70.2279 80.9919 69.0506 80.7325 68.014 80.8276C66.9569 80.9247 65.6834 81.4356 64.8605 82.6654L69.8471 86.0021C69.4477 86.5991 68.8801 86.7734 68.5627 86.8025C68.2658 86.8298 67.862 86.7711 67.4626 86.4551L71.1859 81.7501ZM64.3743 84.6833L64.3751 84.6901L70.3342 83.9909L70.3334 83.9842L64.3743 84.6833Z" fill="#26103D" mask="url(#path-15-inside-6_83_6077)"/>
<mask id="path-17-inside-7_83_6077" fill="white">
<path d="M53.8474 80.1259C50.1761 84.2194 47.6438 89.2078 46.5041 94.5914C46.3468 95.3324 46.9621 96.0812 47.6782 96.1915C48.0449 96.2414 48.4166 96.1467 48.7149 95.9274C49.0133 95.7081 49.215 95.3814 49.2775 95.016C50.3451 90.1161 52.6798 85.5837 56.0477 81.8732C56.557 81.3104 56.3827 80.3498 55.8164 79.9017C55.5224 79.6772 55.1527 79.5758 54.7856 79.6188C54.4184 79.6619 54.0823 79.8461 53.8482 80.1327L53.8474 80.1259Z"/>
</mask>
<path d="M53.8474 80.1259C50.1761 84.2194 47.6438 89.2078 46.5041 94.5914C46.3468 95.3324 46.9621 96.0812 47.6782 96.1915C48.0449 96.2414 48.4166 96.1467 48.7149 95.9274C49.0133 95.7081 49.215 95.3814 49.2775 95.016C50.3451 90.1161 52.6798 85.5837 56.0477 81.8732C56.557 81.3104 56.3827 80.3498 55.8164 79.9017C55.5224 79.6772 55.1527 79.5758 54.7856 79.6188C54.4184 79.6619 54.0823 79.8461 53.8482 80.1327L53.8474 80.1259Z" fill="#26103D"/>
<path d="M53.8474 80.1259L56.827 79.7763L56.0523 73.1741L51.614 78.1229L53.8474 80.1259ZM46.5041 94.5914L49.4387 95.2144L49.4391 95.2127L46.5041 94.5914ZM47.6782 96.1915L47.2212 99.1565L47.2477 99.1606L47.2743 99.1642L47.6782 96.1915ZM49.2775 95.016L46.3463 94.3774L46.3319 94.4433L46.3205 94.5099L49.2775 95.016ZM56.0477 81.8732L58.2691 83.8895L58.2723 83.886L56.0477 81.8732ZM55.8164 79.9017L57.6781 77.5492L57.6577 77.5331L57.637 77.5173L55.8164 79.9017ZM53.8482 80.1327L50.8686 80.4822L51.6933 87.5111L56.1713 82.0309L53.8482 80.1327ZM51.614 78.1229C47.5916 82.6078 44.8176 88.0729 43.5692 93.97L49.4391 95.2127C50.47 90.3428 52.7606 85.8309 56.0808 82.1289L51.614 78.1229ZM43.5695 93.9684C43.2757 95.3524 43.7311 96.5978 44.3771 97.4459C45.0136 98.2814 46.0066 98.9693 47.2212 99.1565L48.1351 93.2265C48.6337 93.3034 48.9609 93.5618 49.1501 93.8101C49.3488 94.0709 49.5752 94.5714 49.4387 95.2144L43.5695 93.9684ZM47.2743 99.1642C48.4128 99.3189 49.5663 99.0248 50.4916 98.3447L46.9383 93.5101C47.2669 93.2685 47.6771 93.1638 48.082 93.2188L47.2743 99.1642ZM50.4916 98.3447C51.4168 97.6647 52.0411 96.6524 52.2345 95.5221L46.3205 94.5099C46.3889 94.1103 46.6097 93.7515 46.9383 93.5101L50.4916 98.3447ZM52.2088 95.6547C53.1645 91.2677 55.2547 87.2106 58.2691 83.8895L53.8263 79.8569C50.105 83.9569 47.5256 88.9644 46.3463 94.3774L52.2088 95.6547ZM58.2723 83.886C59.2392 82.8174 59.4532 81.4896 59.3071 80.4333C59.1634 79.3945 58.6379 78.3088 57.6781 77.5492L53.9548 82.2542C53.5612 81.9428 53.406 81.5614 53.3637 81.2556C53.319 80.9323 53.3656 80.3662 53.8232 79.8604L58.2723 83.886ZM57.637 77.5173C56.7247 76.8207 55.577 76.5054 54.436 76.6393L55.1351 82.5984C54.7285 82.6461 54.32 82.5337 53.9958 82.2861L57.637 77.5173ZM54.436 76.6393C53.295 76.7732 52.2514 77.3455 51.5251 78.2344L56.1713 82.0309C55.9132 82.3467 55.5418 82.5507 55.1351 82.5984L54.436 76.6393ZM56.8277 79.7831L56.827 79.7763L50.8678 80.4755L50.8686 80.4822L56.8277 79.7831Z" fill="#26103D" mask="url(#path-17-inside-7_83_6077)"/>
<mask id="path-19-inside-8_83_6077" fill="white">
<path d="M42.6429 72.5794L34.3234 85.3392C33.9095 85.9754 33.9233 86.8131 34.5549 87.3129C35.1063 87.7513 36.107 87.7185 36.5232 87.082L44.8425 74.32C45.2567 73.686 45.2429 72.8484 44.6112 72.3485C44.0575 71.9104 43.0588 71.9406 42.6429 72.5794Z"/>
</mask>
<path d="M42.6429 72.5794L34.3234 85.3392C33.9095 85.9754 33.9233 86.8131 34.5549 87.3129C35.1063 87.7513 36.107 87.7185 36.5232 87.082L44.8425 74.32C45.2567 73.686 45.2429 72.8484 44.6112 72.3485C44.0575 71.9104 43.0588 71.9406 42.6429 72.5794Z" fill="#26103D"/>
<path d="M42.6429 72.5794L45.156 74.2179L45.157 74.2163L42.6429 72.5794ZM34.3234 85.3392L31.8104 83.7007L31.8086 83.7033L34.3234 85.3392ZM34.5549 87.3129L36.4219 84.9647L36.4166 84.9604L34.5549 87.3129ZM36.5232 87.082L39.0342 88.7236L39.0364 88.7203L36.5232 87.082ZM44.8425 74.32L42.3309 72.6793L42.3293 72.6817L44.8425 74.32ZM40.1299 70.9409L31.8104 83.7007L36.8364 86.9777L45.156 74.2179L40.1299 70.9409ZM31.8086 83.7033C30.7809 85.2831 30.5409 87.9621 32.6933 89.6654L36.4166 84.9604C36.7795 85.2476 36.9981 85.6858 37.0357 86.1163C37.0692 86.5006 36.9573 86.7919 36.8381 86.9751L31.8086 83.7033ZM32.6879 89.6612C33.6467 90.4234 34.8266 90.6802 35.8552 90.5888C36.9053 90.4955 38.2064 89.9898 39.0342 88.7236L34.0122 85.4403C34.4238 84.8107 35.0165 84.6397 35.3243 84.6123C35.6107 84.5869 36.0146 84.6408 36.4219 84.9647L32.6879 89.6612ZM39.0364 88.7203L47.3557 75.9583L42.3293 72.6817L34.01 85.4437L39.0364 88.7203ZM47.3541 75.9607C48.3879 74.3782 48.6236 71.698 46.4728 69.996L42.7495 74.701C42.3868 74.414 42.168 73.976 42.1304 73.5447C42.0968 73.1595 42.2091 72.8658 42.3309 72.6793L47.3541 75.9607ZM46.4728 69.996C45.5188 69.241 44.3441 68.9808 43.3123 69.0717C42.2581 69.1645 40.9556 69.6727 40.1288 70.9426L45.157 74.2163C44.7462 74.8473 44.151 75.021 43.8385 75.0486C43.5485 75.0741 43.1499 75.0178 42.7495 74.701L46.4728 69.996Z" fill="#26103D" mask="url(#path-19-inside-8_83_6077)"/>
<mask id="path-21-inside-9_83_6077" fill="white">
<path d="M31.967 67.1249C29.2486 71.6933 25.394 75.4775 20.7794 78.1082C20.123 78.487 20.0892 79.5223 20.5056 80.0749C21.0061 80.7411 21.8086 80.7315 22.4695 80.3521C27.4717 77.4345 31.6303 73.2641 34.5372 68.2503C34.9172 67.5974 34.4486 66.6782 33.8134 66.4006C33.0503 66.0648 32.3535 66.469 31.967 67.1249Z"/>
</mask>
<path d="M31.967 67.1249C29.2486 71.6933 25.394 75.4775 20.7794 78.1082C20.123 78.487 20.0892 79.5223 20.5056 80.0749C21.0061 80.7411 21.8086 80.7315 22.4695 80.3521C27.4717 77.4345 31.6303 73.2641 34.5372 68.2503C34.9172 67.5974 34.4486 66.6782 33.8134 66.4006C33.0503 66.0648 32.3535 66.469 31.967 67.1249Z" fill="#26103D"/>
<path d="M31.967 67.1249L34.5451 68.659L34.5517 68.6478L31.967 67.1249ZM20.7794 78.1082L19.2936 75.5019L19.2867 75.5059L19.2797 75.5099L20.7794 78.1082ZM20.5056 80.0749L22.9041 78.2729L22.9015 78.2694L20.5056 80.0749ZM22.4695 80.3521L23.963 82.9539L23.972 82.9488L23.981 82.9435L22.4695 80.3521ZM34.5372 68.2503L31.9444 66.7411L31.9419 66.7455L34.5372 68.2503ZM33.8134 66.4006L32.605 69.1465L32.612 69.1495L33.8134 66.4006ZM29.3889 65.5908C26.9355 69.7138 23.4572 73.1284 19.2936 75.5019L22.2651 80.7144C27.3309 77.8266 31.5616 73.6729 34.5451 68.6589L29.3889 65.5908ZM19.2797 75.5099C17.8823 76.3164 17.3611 77.6934 17.2558 78.7207C17.1525 79.729 17.3786 80.9101 18.1097 81.8804L22.9015 78.2694C23.2163 78.6871 23.251 79.0742 23.2246 79.3321C23.1962 79.6089 23.02 80.2788 22.2791 80.7064L19.2797 75.5099ZM18.1071 81.8769C18.8717 82.8946 19.9687 83.4785 21.1384 83.5916C22.2301 83.6973 23.2142 83.3838 23.963 82.9539L20.976 77.7503C21.0639 77.6999 21.3163 77.5808 21.7164 77.6195C22.1945 77.6658 22.64 77.9213 22.9041 78.2729L18.1071 81.8769ZM23.981 82.9435C29.433 79.7635 33.9649 75.2186 37.1326 69.755L31.9419 66.7455C29.2957 71.3097 25.5105 75.1054 20.958 77.7607L23.981 82.9435ZM37.13 69.7594C37.9305 68.384 37.719 66.9447 37.3114 65.9981C36.9107 65.0678 36.1366 64.1419 35.0147 63.6516L32.612 69.1495C32.1254 68.9369 31.9032 68.6094 31.8007 68.3714C31.6911 68.117 31.5239 67.4636 31.9444 66.7411L37.13 69.7594ZM35.0217 63.6547C33.8529 63.1404 32.6074 63.1716 31.5322 63.6487C30.5282 64.0942 29.8233 64.8534 29.3823 65.6019L34.5517 68.6478C34.4971 68.7404 34.3339 68.9696 33.9657 69.133C33.5263 69.328 33.0107 69.325 32.605 69.1465L35.0217 63.6547Z" fill="#26103D" mask="url(#path-21-inside-9_83_6077)"/>
<mask id="path-23-inside-10_83_6077" fill="white">
<path d="M21.4331 59.2207L6.58703 68.111C5.93645 68.5006 5.88925 69.5192 6.31095 70.078C6.80615 70.7379 7.62199 70.7451 8.27483 70.3552L23.121 61.465C23.7716 61.0753 23.8188 60.0568 23.3971 59.498C22.9019 58.838 22.086 58.8309 21.4331 59.2207Z"/>
</mask>
<path d="M21.4331 59.2207L6.58703 68.111C5.93645 68.5006 5.88925 69.5192 6.31095 70.078C6.80615 70.7379 7.62199 70.7451 8.27483 70.3552L23.121 61.465C23.7716 61.0753 23.8188 60.0568 23.3971 59.498C22.9019 58.838 22.086 58.8309 21.4331 59.2207Z" fill="#26103D"/>
<path d="M21.4331 59.2207L19.8949 56.6451L19.8919 56.6469L21.4331 59.2207ZM6.58703 68.111L5.04576 65.5372L5.04568 65.5372L6.58703 68.111ZM6.31095 70.078L8.71052 68.2774L8.70559 68.2709L6.31095 70.078ZM8.27483 70.3552L9.81303 72.9309L9.81609 72.929L8.27483 70.3552ZM23.121 61.465L24.6623 64.0388L24.6624 64.0387L23.121 61.465ZM23.3971 59.498L20.9975 61.2986L21.0025 61.3051L23.3971 59.498ZM19.8919 56.6469L5.04576 65.5372L8.1283 70.6848L22.9744 61.7946L19.8919 56.6469ZM5.04568 65.5372C3.70557 66.3398 3.17657 67.6713 3.06432 68.7081C2.95418 69.7252 3.18033 70.9098 3.9163 71.8851L8.70559 68.2709C9.01987 68.6873 9.05876 69.0833 9.02945 69.354C8.99801 69.6443 8.81791 70.2718 8.12838 70.6847L5.04568 65.5372ZM3.91138 71.8786C5.61033 74.1427 8.29064 73.84 9.81303 72.9309L6.73663 67.7796C6.86736 67.7015 7.13979 67.585 7.53914 67.6259C8.00344 67.6734 8.4433 67.9213 8.71051 68.2774L3.91138 71.8786ZM9.81609 72.929L24.6623 64.0388L21.5798 58.8912L6.73357 67.7814L9.81609 72.929ZM24.6624 64.0387C26.0025 63.2362 26.5315 61.9046 26.6437 60.8679C26.7539 59.8508 26.5277 58.6661 25.7918 57.6909L21.0025 61.3051C20.6882 60.8887 20.6493 60.4927 20.6786 60.222C20.7101 59.9316 20.8902 59.3041 21.5797 58.8912L24.6624 64.0387ZM25.7967 57.6974C24.0977 55.4333 21.4173 55.7359 19.8949 56.6451L22.9713 61.7964C22.8405 61.8745 22.5681 61.991 22.1689 61.9501C21.7047 61.9026 21.2648 61.6548 20.9975 61.2986L25.7967 57.6974Z" fill="#26103D" mask="url(#path-23-inside-10_83_6077)"/>
</g>
<defs>
<clipPath id="clip0_83_6077">
<rect width="147.847" height="93.5044" fill="white" transform="translate(0 17.8433) rotate(-6.69168)"/>
</clipPath>
</defs>
</svg>
