<svg id="Layer_1" data-name="Layer 1" xmlns="http://www.w3.org/2000/svg" xmlns:xlink="http://www.w3.org/1999/xlink" viewBox="0 0 158 111"><defs><style>.cls-1,.cls-4{fill:#fff;}.cls-2{fill:none;}.cls-3{clip-path:url(#clip-path);}.cls-4,.cls-5{stroke:#26103d;stroke-width:3px;}.cls-5{fill:#cb73fe;}.cls-6{fill:#26103d;}.cls-7{mask:url(#mask);}.cls-8{mask:url(#mask-2);}.cls-9{mask:url(#mask-3);}.cls-10{mask:url(#mask-4);}.cls-11{mask:url(#mask-5);}.cls-12{mask:url(#mask-6);}.cls-13{mask:url(#mask-7);}.cls-14{mask:url(#mask-8);}.cls-15{mask:url(#mask-9);}.cls-16{mask:url(#mask-10);}</style><clipPath id="clip-path"><rect class="cls-2" x="4.94" y="8.91" width="147.85" height="93.5" transform="translate(-5.95 9.57) rotate(-6.69)"/></clipPath><mask id="mask" x="125.01" y="56.08" width="17.59" height="25.29" maskUnits="userSpaceOnUse"><g id="path-4-inside-1_83_6077" data-name="path-4-inside-1 83 6077"><path class="cls-1" d="M128.14,61l8.74,16.45a1.46,1.46,0,0,0,1.83.78,1.41,1.41,0,0,0,.77-1.83L130.74,60a1.44,1.44,0,0,0-1.83-.77A1.41,1.41,0,0,0,128.14,61Z"/></g></mask><mask id="mask-2" x="132.8" y="52.47" width="17.34" height="19.3" maskUnits="userSpaceOnUse"><g id="path-6-inside-2_83_6077" data-name="path-6-inside-2 83 6077"><path class="cls-1" d="M136.08,57.72l8.54,10.49a1.52,1.52,0,0,0,.4.36,1.24,1.24,0,0,0,.52.18,1.28,1.28,0,0,0,.55,0,1.24,1.24,0,0,0,.49-.24,1.37,1.37,0,0,0,.36-.4,1.24,1.24,0,0,0,.18-.52,1.28,1.28,0,0,0,0-.55,1.23,1.23,0,0,0-.23-.49L138.32,56a1.39,1.39,0,0,0-.92-.55,1.42,1.42,0,0,0-1,.27,1.39,1.39,0,0,0-.55.93A1.43,1.43,0,0,0,136.08,57.72Z"/></g></mask><mask id="mask-3" x="114.2" y="67.71" width="16.75" height="25.11" maskUnits="userSpaceOnUse"><g id="path-8-inside-3_83_6077" data-name="path-8-inside-3 83 6077"><path class="cls-1" d="M117.26,72.64a51.22,51.22,0,0,0,8.16,16.62,1.4,1.4,0,0,0,2.24-1.69,49,49,0,0,1-7.8-16,1.41,1.41,0,0,0-1.83-.77A1.45,1.45,0,0,0,117.26,72.64Z"/></g></mask><mask id="mask-4" x="104.29" y="73.25" width="14.31" height="23.84" maskUnits="userSpaceOnUse"><g id="path-10-inside-4_83_6077" data-name="path-10-inside-4 83 6077"><path class="cls-1" d="M107.31,77.76a44.83,44.83,0,0,0,5.79,15.78,1.42,1.42,0,0,0,2,.28,1.44,1.44,0,0,0,.27-2,41.29,41.29,0,0,1-5.24-14.42C109.8,75.65,107,76,107.31,77.76Z"/></g></mask><mask id="mask-5" x="78.57" y="81.96" width="8.94" height="23.21" maskUnits="userSpaceOnUse"><g id="path-13-inside-5_83_6077" data-name="path-13-inside-5 83 6077"><path class="cls-1" d="M81.72,86.53q-.06,7.2-.15,14.4a1.4,1.4,0,0,0,1.55,1.23,1.43,1.43,0,0,0,1.24-1.55q.06-7.22.15-14.41A1.41,1.41,0,0,0,83,85,1.45,1.45,0,0,0,81.72,86.53Z"/></g></mask><mask id="mask-6" x="60.92" y="80.81" width="11.92" height="20.74" maskUnits="userSpaceOnUse"><g id="path-15-inside-6_83_6077" data-name="path-15-inside-6 83 6077"><path class="cls-1" d="M67.35,84.34A20.36,20.36,0,0,0,64,97.25a1.45,1.45,0,0,0,.15.54,1.39,1.39,0,0,0,.36.44,1.29,1.29,0,0,0,.49.26,1.51,1.51,0,0,0,.56.05,1.33,1.33,0,0,0,.54-.18A1.47,1.47,0,0,0,66.5,98a1.5,1.5,0,0,0,.24-.51,1.32,1.32,0,0,0,0-.56,17.19,17.19,0,0,1,2.8-10.84,1.45,1.45,0,0,0-.24-2,1.42,1.42,0,0,0-2,.23Z"/></g></mask><mask id="mask-7" x="43.48" y="73.17" width="15.87" height="26.03" maskUnits="userSpaceOnUse"><g id="path-17-inside-7_83_6077" data-name="path-17-inside-7 83 6077"><path class="cls-1" d="M53.85,80.13A31.42,31.42,0,0,0,46.5,94.59a1.43,1.43,0,0,0,1.18,1.6,1.4,1.4,0,0,0,1-.26,1.44,1.44,0,0,0,.57-.91,28.64,28.64,0,0,1,6.77-13.15,1.42,1.42,0,0,0-.23-2,1.47,1.47,0,0,0-1-.28,1.42,1.42,0,0,0-.94.51Z"/></g></mask><mask id="mask-8" x="31.05" y="69.05" width="17.07" height="21.55" maskUnits="userSpaceOnUse"><g id="path-19-inside-8_83_6077" data-name="path-19-inside-8 83 6077"><path class="cls-1" d="M42.64,72.58,34.32,85.34a1.45,1.45,0,0,0,.23,2,1.41,1.41,0,0,0,2-.23l8.32-12.76a1.44,1.44,0,0,0-.23-2A1.41,1.41,0,0,0,42.64,72.58Z"/></g></mask><mask id="mask-9" x="17.23" y="63.28" width="20.44" height="20.33" maskUnits="userSpaceOnUse"><g id="path-21-inside-9_83_6077" data-name="path-21-inside-9 83 6077"><path class="cls-1" d="M32,67.12a30.78,30.78,0,0,1-11.19,11,1.4,1.4,0,0,0-.27,2,1.43,1.43,0,0,0,2,.28,33.5,33.5,0,0,0,12.07-12.1A1.4,1.4,0,0,0,32,67.12Z"/></g></mask><mask id="mask-10" x="3.04" y="55.96" width="23.63" height="17.65" maskUnits="userSpaceOnUse"><g id="path-23-inside-10_83_6077" data-name="path-23-inside-10 83 6077"><path class="cls-1" d="M21.43,59.22,6.59,68.11a1.4,1.4,0,0,0,1.68,2.25l14.85-8.9a1.41,1.41,0,0,0,.28-2A1.44,1.44,0,0,0,21.43,59.22Z"/></g></mask></defs><g class="cls-3"><path class="cls-4" d="M7.5,57l-.57-.51.48-.59c.89-1.07,2.21-2.61,3.92-4.47A141.3,141.3,0,0,1,26,37.67C38.47,27.47,55.87,17,75.76,15.48s38.68,6.15,52.59,14.33a142.58,142.58,0,0,1,16.58,11.4c2,1.58,3.51,2.9,4.55,3.82l.57.52-.48.59c-.89,1.07-2.21,2.61-3.92,4.47A142.39,142.39,0,0,1,131,64.4c-12.5,10.2-29.9,20.66-49.79,22.18S42.54,80.43,28.63,72.26A143.73,143.73,0,0,1,12.05,60.85C10.08,59.27,8.54,58,7.5,57Z"/><path class="cls-5" d="M106.25,49.54a27.51,27.51,0,1,1-2.89-10.33A27.43,27.43,0,0,1,106.25,49.54Z"/><path class="cls-6" d="M128.14,61l8.74,16.45a1.46,1.46,0,0,0,1.83.78,1.41,1.41,0,0,0,.77-1.83L130.74,60a1.44,1.44,0,0,0-1.83-.77A1.41,1.41,0,0,0,128.14,61Z"/><g class="cls-7"><path class="cls-6" d="M128.14,61l-2.65,1.4h0Zm8.74,16.45,2.66-1.4h0Zm1.83.78-1.12-2.78h0Zm.77-1.83L142.13,75h0ZM130.74,60l-2.66,1.41h0Zm-1.83-.77L130,62h0Zm-3.42,3.24,8.75,16.45,5.29-2.81-8.74-16.46Zm8.74,16.45A4.44,4.44,0,0,0,139.84,81l-2.26-5.56a1.66,1.66,0,0,1,1.33,0,1.31,1.31,0,0,1,.63.56ZM139.84,81a4.5,4.5,0,0,0,2.36-2.3,4.19,4.19,0,0,0-.07-3.72l-5.3,2.81a1.8,1.8,0,0,1-.08-1.58,1.5,1.5,0,0,1,.84-.77Zm2.29-6q-4.37-8.23-8.75-16.46l-5.29,2.82q4.36,8.24,8.74,16.45Zm-8.75-16.45a4.43,4.43,0,0,0-5.6-2.15L130,62a1.7,1.7,0,0,1-1.33,0,1.31,1.31,0,0,1-.63-.56Zm-5.59-2.16a4.52,4.52,0,0,0-2.37,2.3,4.16,4.16,0,0,0,.07,3.72l5.3-2.81a1.82,1.82,0,0,1,.08,1.59A1.49,1.49,0,0,1,130,62Z"/></g><path class="cls-6" d="M136.08,57.72l8.54,10.49a1.52,1.52,0,0,0,.4.36,1.24,1.24,0,0,0,.52.18,1.28,1.28,0,0,0,.55,0,1.24,1.24,0,0,0,.49-.24,1.37,1.37,0,0,0,.36-.4,1.24,1.24,0,0,0,.18-.52,1.28,1.28,0,0,0,0-.55,1.23,1.23,0,0,0-.23-.49L138.32,56a1.39,1.39,0,0,0-.92-.55,1.42,1.42,0,0,0-1,.27,1.39,1.39,0,0,0-.55.93A1.43,1.43,0,0,0,136.08,57.72Z"/><g class="cls-8"><path class="cls-6" d="M144.62,68.21,147,66.4l0,0,0,0Zm2.24-1.69,2.39-1.81,0,0,0,0ZM138.32,56l-2.4,1.8,0,.05,0,0Zm-4.57,3.58q4.27,5.25,8.54,10.49l4.65-3.79-8.53-10.49ZM142.22,70a4.54,4.54,0,0,0,1.28,1.15L146.55,66a1.65,1.65,0,0,1,.46.41Zm1.28,1.15a4.47,4.47,0,0,0,1.62.56l.84-5.94a1.55,1.55,0,0,1,.59.21Zm1.62.56a4.53,4.53,0,0,0,1.72-.09l-1.5-5.81a1.61,1.61,0,0,1,.62,0Zm1.72-.09a4.55,4.55,0,0,0,1.55-.75l-3.62-4.79a1.5,1.5,0,0,1,.57-.27Zm1.55-.75a4.49,4.49,0,0,0,1.14-1.28l-5.17-3a1.5,1.5,0,0,1,.41-.46Zm1.14-1.28A4.68,4.68,0,0,0,150.1,68l-5.95-.84a1.61,1.61,0,0,1,.21-.59ZM150.1,68a4.52,4.52,0,0,0-.1-1.72l-5.81,1.5a1.61,1.61,0,0,1,0-.62Zm-.1-1.72a4.55,4.55,0,0,0-.75-1.55l-4.79,3.61a1.53,1.53,0,0,1-.27-.56Zm-.82-1.64-8.53-10.49L136,57.92l8.54,10.49Zm-8.46-10.4a4.4,4.4,0,0,0-2.91-1.71L137,58.45a1.6,1.6,0,0,1-1.06-.62Zm-2.91-1.71a4.38,4.38,0,0,0-3.26.85l3.61,4.79a1.6,1.6,0,0,1-1.18.3Zm-3.26.85a4.38,4.38,0,0,0-1.71,2.9l5.94.83a1.62,1.62,0,0,1-.62,1.06Zm-1.71,2.9a4.41,4.41,0,0,0,.84,3.26l4.8-3.61a1.61,1.61,0,0,1,.3,1.18Z"/></g><path class="cls-6" d="M117.26,72.64a51.22,51.22,0,0,0,8.16,16.62,1.4,1.4,0,0,0,2.24-1.69,49,49,0,0,1-7.8-16,1.41,1.41,0,0,0-1.83-.77A1.45,1.45,0,0,0,117.26,72.64Z"/><g class="cls-9"><path class="cls-6" d="M125.42,89.26,123,91.05h0Zm2.24-1.69-2.42,1.79h0Zm-7.8-16,2.89-.8h0ZM118,70.81,116.9,68h0Zm-3.66,2.64A54.2,54.2,0,0,0,123,91.05l4.82-3.57a48.24,48.24,0,0,1-7.68-15.66ZM123,91.06a4.29,4.29,0,0,0,3.16,1.75,4.41,4.41,0,0,0,3-.91,4.49,4.49,0,0,0,1.69-2.6,4.29,4.29,0,0,0-.77-3.51l-4.83,3.57A1.75,1.75,0,0,1,125,88a1.47,1.47,0,0,1,1.6-1.19,1.71,1.71,0,0,1,1.24.65Zm7.06-5.27a46.17,46.17,0,0,1-7.32-15L117,72.39a52.31,52.31,0,0,0,8.27,17Zm-7.32-15A4.18,4.18,0,0,0,120.19,68a4.5,4.5,0,0,0-3.29,0l2.27,5.55a1.48,1.48,0,0,1-1.13,0A1.79,1.79,0,0,1,117,72.39ZM116.88,68a4.44,4.44,0,0,0-2.51,5.4l5.78-1.61a1.26,1.26,0,0,1-.06.79,1.75,1.75,0,0,1-.91,1Z"/></g><path class="cls-6" d="M107.31,77.76a44.83,44.83,0,0,0,5.79,15.78,1.42,1.42,0,0,0,2,.28,1.44,1.44,0,0,0,.27-2,41.29,41.29,0,0,1-5.24-14.42C109.8,75.65,107,76,107.31,77.76Z"/><g class="cls-10"><path class="cls-6" d="M107.31,77.76l-3,.48h0Zm5.79,15.78-2.58,1.54h0Zm2,.28,1.8,2.4h0Zm.27-2-2.57,1.53h0Zm-5.24-14.42,3-.48h0Zm-5.74.81a47.82,47.82,0,0,0,6.17,16.84L115.67,92a41.92,41.92,0,0,1-5.4-14.73Zm6.18,16.86a4.2,4.2,0,0,0,3.15,2,4.5,4.5,0,0,0,3.18-.84l-3.61-4.8a1.52,1.52,0,0,1,1.1-.32,1.78,1.78,0,0,1,1.31.89Zm6.34,1.11a4.42,4.42,0,0,0,1-5.89l-5.15,3.07a1.29,1.29,0,0,1-.15-.8,1.66,1.66,0,0,1,.64-1.16Zm1-5.89A38.1,38.1,0,0,1,113.05,77l-5.92,1a44,44,0,0,0,5.63,15.47ZM113.05,77a4.47,4.47,0,0,0-7.72-2.24,4.23,4.23,0,0,0-1,3.53l5.92-1a1.81,1.81,0,0,1-.45,1.42,1.56,1.56,0,0,1-1,.54,1.49,1.49,0,0,1-1-.23,1.64,1.64,0,0,1-.73-1.09Z"/></g><path class="cls-6" d="M81.72,86.53q-.06,7.2-.15,14.4a1.4,1.4,0,0,0,1.55,1.23,1.43,1.43,0,0,0,1.24-1.55q.06-7.22.15-14.41A1.41,1.41,0,0,0,83,85,1.45,1.45,0,0,0,81.72,86.53Z"/><g class="cls-11"><path class="cls-6" d="M81.57,100.93l3,0h0Zm2.79-.32,3,0h0Zm.15-14.41,3,0h0Zm-5.79.3q-.06,7.2-.15,14.4l6,.07q.09-7.22.15-14.41Zm-.15,14.4a4.12,4.12,0,0,0,1.75,3.38,4.45,4.45,0,0,0,3.15.86l-.69-6a1.46,1.46,0,0,1,1.08.25,1.88,1.88,0,0,1,.71,1.53Zm4.9,4.24a4.26,4.26,0,0,0,3-1.76,4.78,4.78,0,0,0,.87-2.74l-6-.07a1.21,1.21,0,0,1,.25-.68,1.55,1.55,0,0,1,.53-.48,1.48,1.48,0,0,1,.64-.22Zm3.89-4.5q.06-7.2.15-14.4l-6-.07q-.09,7.2-.15,14.41Zm.15-14.41a4.15,4.15,0,0,0-1.75-3.38A4.51,4.51,0,0,0,82.6,82l.7,6a1.48,1.48,0,0,1-1.08-.26,1.83,1.83,0,0,1-.71-1.52ZM82.6,82a4.27,4.27,0,0,0-3,1.76,4.8,4.8,0,0,0-.87,2.74l6,.07a1.19,1.19,0,0,1-.25.68A1.8,1.8,0,0,1,83.3,88Z"/></g><path class="cls-6" d="M67.35,84.34A20.36,20.36,0,0,0,64,97.25a1.45,1.45,0,0,0,.15.54,1.39,1.39,0,0,0,.36.44,1.29,1.29,0,0,0,.49.26,1.51,1.51,0,0,0,.56.05,1.33,1.33,0,0,0,.54-.18A1.47,1.47,0,0,0,66.5,98a1.5,1.5,0,0,0,.24-.51,1.32,1.32,0,0,0,0-.56,17.19,17.19,0,0,1,2.8-10.84,1.45,1.45,0,0,0-.24-2,1.42,1.42,0,0,0-2,.23Z"/><g class="cls-12"><path class="cls-6" d="M67.35,84.34,69.85,86l.61-.92L70.33,84ZM64,97.25,67,97h0Zm2.78-.33-3,.24v.12l0,.11Zm2.8-10.84-2.5-1.67h0Zm-.24-2,1.87-2.35h0Zm-2,.23-2.49-1.66-.61.91.12,1.1Zm-2.49-1.66A23.29,23.29,0,0,0,61,97.49L67,97a17.23,17.23,0,0,1,2.88-11ZM61,97.48a4.33,4.33,0,0,0,.48,1.69l5.33-2.76A1.85,1.85,0,0,1,67,97Zm.48,1.69a4.33,4.33,0,0,0,1.11,1.37l3.82-4.63a1.76,1.76,0,0,1,.4.5Zm1.11,1.37a4.44,4.44,0,0,0,1.56.83l1.69-5.76a1.73,1.73,0,0,1,.57.3Zm1.56.83a4.3,4.3,0,0,0,1.75.15l-.7-6a1.53,1.53,0,0,1,.64,0Zm1.75.15a4.56,4.56,0,0,0,1.68-.55l-3-5.21a1.51,1.51,0,0,1,.61-.2Zm1.68-.55a4.62,4.62,0,0,0,1.32-1.17L64.1,96.18a1.75,1.75,0,0,1,.48-.42Zm1.32-1.17a4.26,4.26,0,0,0,.76-1.59l-5.82-1.45a1.71,1.71,0,0,1,.27-.58Zm.76-1.59a4.53,4.53,0,0,0,.08-1.76l-5.93.94a1.66,1.66,0,0,1,0-.63Zm.11-1.53a14.1,14.1,0,0,1,2.3-9l-5-3.31a20.22,20.22,0,0,0-3.28,12.74Zm2.29-8.94a4.45,4.45,0,0,0-.86-6l-3.73,4.7a1.7,1.7,0,0,1-.62-1.14,1.42,1.42,0,0,1,.22-.9Zm-.86-6A4.46,4.46,0,0,0,68,80.83a4.22,4.22,0,0,0-3.15,1.84l5,3.33a1.77,1.77,0,0,1-1.29.8,1.54,1.54,0,0,1-1.1-.34Zm-6.82,2.93h0l6-.7h0Z"/></g><path class="cls-6" d="M53.85,80.13A31.42,31.42,0,0,0,46.5,94.59a1.43,1.43,0,0,0,1.18,1.6,1.4,1.4,0,0,0,1-.26,1.44,1.44,0,0,0,.57-.91,28.64,28.64,0,0,1,6.77-13.15,1.42,1.42,0,0,0-.23-2,1.47,1.47,0,0,0-1-.28,1.42,1.42,0,0,0-.94.51Z"/><g class="cls-13"><path class="cls-6" d="M53.85,80.13l3-.35-.78-6.61-4.44,5ZM46.5,94.59l2.94.62h0Zm1.18,1.6-.46,3h.05ZM49.28,95l-2.93-.64,0,.06v.07Zm6.77-13.15,2.22,2h0Zm-.23-2,1.86-2.35,0,0h0Zm-2,.23-3,.35.82,7L56.17,82Zm-2.24-2a34.46,34.46,0,0,0-8,15.85l5.87,1.24a28.37,28.37,0,0,1,6.64-13.08ZM43.57,94a4.29,4.29,0,0,0,.81,3.48,4.48,4.48,0,0,0,2.84,1.71l.92-5.93a1.52,1.52,0,0,1,1,.58,1.7,1.7,0,0,1,.29,1.4Zm3.7,5.19a4.4,4.4,0,0,0,3.22-.82l-3.55-4.83a1.56,1.56,0,0,1,1.14-.29Zm3.22-.82a4.39,4.39,0,0,0,1.74-2.82l-5.91-1a1.57,1.57,0,0,1,.62-1Zm1.72-2.69a25.52,25.52,0,0,1,6.06-11.76l-4.44-4a31.51,31.51,0,0,0-7.48,14.52Zm6.06-11.76a4.29,4.29,0,0,0,1-3.46,4.48,4.48,0,0,0-1.63-2.88L54,82.25a1.58,1.58,0,0,1-.59-1,1.8,1.8,0,0,1,.46-1.4Zm-.63-6.37a4.44,4.44,0,0,0-3.2-.88l.7,6A1.59,1.59,0,0,1,54,82.29Zm-3.2-.88a4.4,4.4,0,0,0-2.91,1.59L56.17,82a1.58,1.58,0,0,1-1,.57Zm2.39,3.14h0l-6,.7h0Z"/></g><path class="cls-6" d="M42.64,72.58,34.32,85.34a1.45,1.45,0,0,0,.23,2,1.41,1.41,0,0,0,2-.23l8.32-12.76a1.44,1.44,0,0,0-.23-2A1.41,1.41,0,0,0,42.64,72.58Z"/><g class="cls-14"><path class="cls-6" d="M42.64,72.58l2.52,1.64h0ZM34.32,85.34,31.81,83.7h0Zm.23,2L36.42,85h0Zm2-.23L39,88.72h0Zm8.32-12.76-2.51-1.64h0Zm-4.71-3.38L31.81,83.7l5,3.28,8.32-12.76ZM31.81,83.7a4.45,4.45,0,0,0,.88,6L36.42,85A1.72,1.72,0,0,1,37,86.12a1.39,1.39,0,0,1-.2.86Zm.88,6a4.51,4.51,0,0,0,3.17.93A4.17,4.17,0,0,0,39,88.72l-5-3.28a1.81,1.81,0,0,1,1.31-.83,1.57,1.57,0,0,1,1.1.35ZM39,88.72,47.36,76l-5-3.28L34,85.44ZM47.35,76a4.43,4.43,0,0,0-.88-6l-3.72,4.7a1.7,1.7,0,0,1-.62-1.16,1.39,1.39,0,0,1,.2-.86Zm-.88-6a4.47,4.47,0,0,0-3.16-.93,4.21,4.21,0,0,0-3.18,1.87l5,3.28a1.81,1.81,0,0,1-1.32.83,1.53,1.53,0,0,1-1.09-.35Z"/></g><path class="cls-6" d="M32,67.12a30.78,30.78,0,0,1-11.19,11,1.4,1.4,0,0,0-.27,2,1.43,1.43,0,0,0,2,.28,33.5,33.5,0,0,0,12.07-12.1A1.4,1.4,0,0,0,32,67.12Z"/><g class="cls-15"><path class="cls-6" d="M32,67.12l2.58,1.54h0Zm-11.19,11L19.29,75.5h0Zm-.27,2,2.39-1.8h0Zm2,.28L24,83h0Zm12.07-12.1-2.6-1.51h0Zm-.73-1.85L32.6,69.15h0Zm-4.42-.81a27.66,27.66,0,0,1-10.1,9.91l3,5.21a33.78,33.78,0,0,0,12.28-12ZM19.28,75.51a4.13,4.13,0,0,0-2,3.21,4.49,4.49,0,0,0,.85,3.16l4.79-3.61a1.43,1.43,0,0,1,.32,1.06,1.82,1.82,0,0,1-.94,1.38Zm-1.17,6.37a4.28,4.28,0,0,0,3,1.71A4.73,4.73,0,0,0,24,83l-3-5.2a1.22,1.22,0,0,1,.74-.13,1.73,1.73,0,0,1,1.18.65ZM24,82.94A36.39,36.39,0,0,0,37.13,69.75l-5.19-3a30.34,30.34,0,0,1-11,11ZM37.13,69.76A4.17,4.17,0,0,0,37.31,66,4.49,4.49,0,0,0,35,63.65l-2.4,5.5a1.49,1.49,0,0,1-.81-.78,1.83,1.83,0,0,1,.14-1.63ZM35,63.65a4.29,4.29,0,0,0-3.49,0,4.74,4.74,0,0,0-2.15,1.95l5.17,3.05a1.24,1.24,0,0,1-.58.48,1.76,1.76,0,0,1-1.37,0Z"/></g><path class="cls-6" d="M21.43,59.22,6.59,68.11a1.4,1.4,0,0,0,1.68,2.25l14.85-8.9a1.41,1.41,0,0,0,.28-2A1.44,1.44,0,0,0,21.43,59.22Z"/><g class="cls-16"><path class="cls-6" d="M21.43,59.22l-1.54-2.57h0ZM6.59,68.11,5.05,65.54h0Zm-.28,2,2.4-1.8h0Zm2,.28,1.54,2.57h0Zm14.85-8.9L24.66,64h0Zm.28-2L21,61.3h0Zm-3.51-2.85L5.05,65.54l3.08,5.14L23,61.79ZM5.05,65.54a4.21,4.21,0,0,0-2,3.17,4.5,4.5,0,0,0,.86,3.18l4.79-3.62A1.51,1.51,0,0,1,9,69.35a1.81,1.81,0,0,1-.9,1.33ZM3.91,71.88a4.43,4.43,0,0,0,5.9,1.05L6.74,67.78a1.22,1.22,0,0,1,.8-.15,1.67,1.67,0,0,1,1.17.65Zm5.91,1.05L24.66,64l-3.08-5.15L6.73,67.78ZM24.66,64a4.19,4.19,0,0,0,2-3.17,4.49,4.49,0,0,0-.85-3.18L21,61.31a1.53,1.53,0,0,1-.32-1.09,1.81,1.81,0,0,1,.9-1.33ZM25.8,57.7a4.43,4.43,0,0,0-5.91-1.05L23,61.8a1.36,1.36,0,0,1-.8.15A1.71,1.71,0,0,1,21,61.3Z"/></g></g></svg>