<svg width="177" height="63" viewBox="0 0 177 63" fill="none" xmlns="http://www.w3.org/2000/svg">
<rect y="10.9143" width="174" height="52" rx="12" transform="rotate(-3.59628 0 10.9143)" fill="#5E51FE"/>
<path d="M23.0755 40.5522L22.8189 36.4683L27.6603 36.164C29.0875 36.0743 30.1338 35.7109 30.7991 35.074C31.4645 34.437 31.753 33.4159 31.6647 32.0106C31.5874 30.7811 31.1994 29.8686 30.5007 29.2732C29.8239 28.6765 28.7829 28.4223 27.3777 28.5106L22.3386 28.8273L22.084 24.7763L27.2878 24.4493C28.693 24.361 29.9658 24.4463 31.1063 24.7053C32.2688 24.9629 33.2769 25.3955 34.1307 26.0031C34.9831 26.5888 35.6496 27.3735 36.1303 28.3573C36.6315 29.3178 36.9242 30.4677 37.0084 31.807C37.1161 33.5197 36.8112 34.9827 36.0939 36.196C35.3986 37.408 34.3011 38.3588 32.8013 39.0482C31.3236 39.7362 29.443 40.152 27.1595 40.2955L23.0755 40.5522ZM19.5639 46.7577L18.1977 25.0206L23.5002 24.6873L24.8664 46.4244L19.5639 46.7577ZM48.8505 45.38C47.0939 45.4904 45.5136 45.248 44.1095 44.6529C42.7274 44.0564 41.6093 43.1017 40.7552 41.7887C39.9012 40.4757 39.41 38.7982 39.2817 36.7562C39.1533 34.7142 39.4313 32.9994 40.1156 31.6117C40.7986 30.2021 41.8 29.1252 43.1199 28.3809C44.4384 27.6147 45.976 27.1764 47.7325 27.066C49.489 26.9556 51.0693 27.198 52.4734 27.7931C53.8775 28.3882 55.0066 29.3422 55.8606 30.6552C56.7133 31.9463 57.2038 33.6128 57.3321 35.6548C57.4632 37.7407 57.1763 39.4891 56.4715 40.9001C55.7666 42.3111 54.7432 43.3894 53.4013 44.1351C52.08 44.8574 50.5631 45.2723 48.8505 45.38ZM48.7729 41.5162C49.5634 41.4665 50.211 41.2495 50.7159 40.8651C51.2194 40.4587 51.5795 39.8739 51.796 39.1109C52.0126 38.3478 52.0864 37.4173 52.0174 36.3195C51.9442 35.1558 51.7401 34.1877 51.405 33.4152C51.0685 32.6207 50.6017 32.0328 50.0046 31.6515C49.4281 31.2469 48.7007 31.0722 47.8224 31.1274C47.0759 31.1743 46.4399 31.4016 45.9144 31.8094C45.4096 32.1938 45.0488 32.7676 44.8323 33.5307C44.6157 34.2938 44.5426 35.2352 44.613 36.355C44.7262 38.1554 45.1404 39.4851 45.8557 40.3439C46.5929 41.2013 47.5653 41.5921 48.7729 41.5162ZM60.9845 44.1544L60.4774 36.0853L59.8916 26.7647L64.239 26.4915L64.7083 32.3807L65.367 32.3393C65.4241 30.7926 65.633 29.5561 65.9936 28.6297C66.3748 27.6799 66.9475 26.9716 67.7117 26.5047C68.4979 26.0365 69.4838 25.7651 70.6694 25.6906C70.8451 25.6795 71.0434 25.6781 71.2643 25.6863C71.4839 25.6725 71.7378 25.6785 72.026 25.7045L72.1844 31.3818C71.8221 31.2282 71.4309 31.1425 71.011 31.1249C70.6116 31.0838 70.2582 31.073 69.9509 31.0923C69.0945 31.1461 68.3584 31.3577 67.7423 31.7271C67.1482 32.0951 66.6859 32.6311 66.3555 33.3352C66.0469 34.038 65.8702 34.9088 65.8253 35.9476L66.32 43.8191L60.9845 44.1544ZM83.0092 43.2C80.9672 43.3284 79.4294 42.885 78.3957 41.8698C77.3606 40.8327 76.7678 39.1175 76.6174 36.7242L76.1889 29.9067L73.7188 30.0619L73.5589 25.9388L75.3374 25.827C76.0386 25.7609 76.5587 25.618 76.8975 25.3983C77.2584 25.1773 77.4655 24.7895 77.5188 24.2351L77.7938 21.771L80.7909 21.5826L81.033 25.436L85.2158 25.1731L85.487 29.4876L81.3042 29.7505L81.7079 36.1728C81.7548 36.9194 81.9649 37.4572 82.3383 37.7865C82.7337 38.1143 83.3046 38.2548 84.0511 38.2078C84.4683 38.1816 84.8608 38.1129 85.2285 38.0016C85.5962 37.8903 85.896 37.7502 86.1279 37.5813L86.4363 42.4887C85.7475 42.7524 85.1081 42.9248 84.518 43.006C83.9513 43.1078 83.4483 43.1724 83.0092 43.2ZM90.8949 42.2746L90.2181 31.5048L87.5503 31.6725L87.3081 27.8191L92.0632 27.7186L92.0239 27.0929C91.1799 26.9916 90.471 26.7606 89.8972 26.3999C89.344 26.0158 88.9294 25.5569 88.6534 25.0232C88.3774 24.4895 88.2194 23.9042 88.1793 23.2675C88.1186 22.3014 88.3194 21.4621 88.7816 20.7497C89.2425 20.0154 89.9222 19.4326 90.821 19.0014C91.7197 18.5702 92.7838 18.3159 94.0134 18.2386C95.0893 18.171 96.0746 18.2413 96.9695 18.4496C97.8629 18.636 98.5848 18.8992 99.1353 19.2393L99.139 24.0335C98.5666 23.6948 97.9215 23.4267 97.2037 23.2293C96.5079 23.0306 95.8636 22.9499 95.2707 22.9871C94.6559 23.0258 94.1503 23.2229 93.7538 23.5784C93.356 23.912 93.1798 24.4411 93.2254 25.1657C93.2612 25.7366 93.4089 26.1571 93.6684 26.4274C93.9498 26.6963 94.2806 26.8739 94.6607 26.9602C95.0395 27.0246 95.4155 27.045 95.7888 27.0216L99.6093 26.7815L99.868 30.8983L95.3889 31.1798L96.0657 41.9496L90.8949 42.2746ZM111.15 41.4644C109.394 41.5748 107.814 41.3325 106.409 40.7374C105.027 40.1409 103.909 39.1862 103.055 37.8731C102.201 36.5601 101.71 34.8826 101.582 32.8407C101.453 30.7987 101.731 29.0839 102.416 27.6962C103.098 26.2866 104.1 25.2097 105.42 24.4654C106.738 23.6992 108.276 23.2609 110.032 23.1505C111.789 23.0401 113.369 23.2825 114.773 23.8776C116.177 24.4727 117.307 25.4267 118.161 26.7397C119.013 28.0308 119.504 29.6973 119.632 31.7393C119.763 33.8252 119.476 35.5736 118.771 36.9846C118.067 38.3956 117.043 39.4739 115.701 40.2195C114.38 40.9418 112.863 41.3568 111.15 41.4644ZM111.073 37.6007C111.863 37.551 112.511 37.334 113.016 36.9495C113.519 36.5432 113.879 35.9584 114.096 35.1953C114.313 34.4322 114.386 33.5018 114.317 32.404C114.244 31.2402 114.04 30.2721 113.705 29.4996C113.368 28.7052 112.902 28.1173 112.305 27.736C111.728 27.3314 111.001 27.1567 110.122 27.2119C109.376 27.2588 108.74 27.4861 108.214 27.8939C107.709 28.2783 107.349 28.8521 107.132 29.6151C106.916 30.3782 106.843 31.3197 106.913 32.4395C107.026 34.2399 107.44 35.5695 108.156 36.4284C108.893 37.2858 109.865 37.6766 111.073 37.6007ZM123.284 40.2389L121.794 16.5257L126.998 16.1986L128.488 39.9119L123.284 40.2389ZM132.612 39.6527L131.519 22.263L136.821 21.9297L137.914 39.3194L132.612 39.6527ZM134.033 19.6581C133.023 19.7216 132.231 19.562 131.656 19.1793C131.101 18.7733 130.799 18.1751 130.749 17.3847C130.697 16.5503 130.921 15.908 131.422 15.4577C131.943 14.9841 132.709 14.7155 133.719 14.652C134.751 14.5872 135.544 14.7577 136.099 15.1638C136.674 15.5464 136.987 16.144 137.038 16.9564C137.089 17.7688 136.854 18.4118 136.332 18.8854C135.832 19.3357 135.065 19.5933 134.033 19.6581ZM150.068 39.0185C148.311 39.1289 146.731 38.8865 145.327 38.2915C143.945 37.695 142.827 36.7402 141.973 35.4272C141.118 34.1142 140.627 32.4367 140.499 30.3947C140.371 28.3528 140.649 26.6379 141.333 25.2503C142.016 23.8407 143.017 22.7637 144.337 22.0195C145.656 21.2533 147.193 20.815 148.95 20.7046C150.706 20.5942 152.287 20.8365 153.691 21.4316C155.095 22.0267 156.224 22.9808 157.078 24.2938C157.931 25.5848 158.421 27.2514 158.549 29.2933C158.681 31.3792 158.394 33.1277 157.689 34.5386C156.984 35.9496 155.96 37.028 154.619 37.7736C153.297 38.4959 151.78 38.9109 150.068 39.0185ZM149.99 35.1548C150.781 35.1051 151.428 34.888 151.933 34.5036C152.437 34.0972 152.797 33.5125 153.013 32.7494C153.23 31.9863 153.304 31.0558 153.235 29.958C153.162 28.7943 152.957 27.8262 152.622 27.0537C152.286 26.2592 151.819 25.6714 151.222 25.2901C150.645 24.8854 149.918 24.7107 149.04 24.7659C148.293 24.8128 147.657 25.0402 147.132 25.4479C146.627 25.8324 146.266 26.4061 146.05 27.1692C145.833 27.9323 145.76 28.8737 145.83 29.9935C145.943 31.794 146.358 33.1236 147.073 33.9824C147.81 34.8399 148.783 35.2307 149.99 35.1548Z" fill="white"/>
</svg>
