<svg width="114" height="119" viewBox="0 0 114 119" fill="none" xmlns="http://www.w3.org/2000/svg">
<path d="M-2.28493 40.4589C-2.3753 39.879 -2.35257 39.4104 -2.52344 39.0286C-3.23332 37.4451 -3.33504 35.7395 -3.59738 34.0686C-4.0259 31.3314 -3.06699 28.8958 -1.7846 26.5797C-1.51955 26.0988 -0.876297 25.637 -0.333969 25.531C2.8704 24.9027 6.10051 24.6904 9.274 25.6946C10.828 26.1871 11.9143 27.202 12.2865 28.9007C12.9262 31.8141 13.1853 34.693 12.0102 37.5472C11.8431 37.9543 11.8371 38.4301 11.7639 38.8381C12.3726 39.2709 12.988 39.2199 13.5735 39.0778C16.6149 38.344 19.7051 38.9391 22.7646 38.7104C24.1438 39.1345 25.5292 38.9459 26.8867 38.6542C28.8758 38.227 30.8782 38.425 32.8771 38.387C33.3816 38.3768 33.5539 38.2288 34.2701 37.232C33.3778 36.6344 32.4737 36.0621 31.6051 35.4412C30.7299 34.8155 29.8815 34.1486 29.0289 33.4921C27.4719 32.2907 26.6531 30.7105 26.4951 28.7439C26.4078 27.6692 26.2213 26.5981 25.9982 25.5426C25.6066 23.6945 25.7095 21.8593 26.0053 20.0213C26.3253 18.037 26.5687 16.0001 28.11 14.5054C30.1266 12.5498 32.319 10.8325 35.2423 10.5196C37.6947 10.2566 40.1644 9.87952 42.6127 9.96693C45.9077 10.0826 48.9988 11.0352 51.3126 13.6447C51.5165 13.8747 51.7415 14.0898 51.9589 14.306C54.2459 16.568 55.4594 19.2767 55.7672 22.5056C56.069 25.671 55.65 28.6497 54.2873 31.5039C53.8218 32.4792 53.3097 33.4305 52.8293 34.3983C52.4989 35.0615 52.8348 35.7125 53.4919 35.6785C55.0269 35.5976 56.5483 35.5422 58.0988 35.6738C59.4533 35.789 60.848 35.3978 62.2292 35.2705C63.6063 35.1418 64.9869 35.0107 66.3677 34.9811C67.3122 34.9609 68.1192 35.7008 68.3146 36.6532C68.5634 37.8611 68.7784 39.0782 68.9722 40.2966C69.6014 44.259 70.2119 48.2263 70.8373 52.1892C70.9341 52.7975 71.0597 53.4032 71.1889 54.0064C71.3883 54.9347 72.0741 55.373 72.8517 55.0213C74.3928 54.3278 75.9745 53.6944 77.4368 52.8588C81.7248 50.4065 86.1277 48.1904 90.6369 46.1804C94.2966 44.5491 97.9596 42.927 101.629 41.3214C102.042 41.1398 102.513 41.0841 102.96 40.985C103.412 40.8853 104.313 41.3526 104.499 41.8161C104.727 42.3823 104.992 42.9526 105.093 43.5466C105.557 46.2861 106.129 49.0204 106.355 51.7835C106.592 54.6952 106.479 57.6358 106.525 60.5636C106.543 61.6414 106.526 62.7227 106.613 63.7975C106.955 67.9473 107.382 72.0917 107.679 76.2445C107.889 79.1721 108.219 82.0772 108.589 84.9877C109.075 88.8102 109.341 92.6611 109.633 96.5041C109.702 97.4136 109.574 98.3598 109.38 99.2538C109.3 99.6199 108.86 100.019 108.488 100.188C107.488 100.643 106.398 100.797 105.321 100.535C102.328 99.8095 99.3515 99.0912 96.7425 97.2702C95.3658 96.3104 93.7943 95.5802 92.2311 94.9406C87.2348 92.8977 82.2014 90.9425 77.1767 88.9685C76.7585 88.805 76.2915 88.6922 75.8486 88.6967C75.6439 88.6993 75.2535 89.0533 75.2679 89.221C75.6125 93.388 75.1522 97.5182 74.7334 101.652C74.6359 102.619 74.1913 103.352 73.3844 103.955C71.4974 105.363 69.4636 106.242 67.0952 106.606C49.2421 109.331 31.3958 112.112 13.5574 114.945C10.9298 115.362 8.34104 115.076 5.74352 114.959C3.90144 114.875 2.07203 114.584 0.212389 114.75C-2.04029 114.953 -4.04745 114.148 -5.89415 112.968C-6.3649 112.668 -6.75889 112.071 -6.93727 111.528C-7.2233 110.659 -7.32231 109.722 -7.46501 108.807C-9.15848 97.9777 -10.8535 87.1508 -12.5184 76.3174C-12.7294 74.9512 -12.9361 73.5491 -12.8541 72.1822C-12.738 70.2941 -13.0479 68.5057 -13.4821 66.6975C-13.8054 65.3507 -14.1182 63.9828 -14.2269 62.6085C-14.5651 58.294 -15.3332 54.0425 -15.9696 49.7706C-16.1063 48.8559 -16.2318 47.9375 -16.3091 47.0156C-16.3877 46.0723 -16.1295 45.184 -15.7183 44.3364C-15.2942 43.4594 -14.6597 42.8036 -13.6947 42.5887C-12.6409 42.3542 -11.5721 42.1915 -10.5049 42.0174C-8.52464 41.697 -6.53646 41.4146 -4.56003 41.0694C-3.81561 40.9436 -3.09609 40.683 -2.28493 40.4589ZM39.8378 107.829C40.7535 107.686 41.6692 107.543 42.5829 107.401C50.2118 106.212 57.8373 105.002 65.4696 103.848C67.1744 103.59 68.7884 103.176 70.2278 102.194C71.0262 101.649 71.6597 100.937 71.7608 99.9812C72.0361 97.3844 72.2928 94.7807 72.4003 92.173C72.4512 90.9574 72.1726 89.721 71.9845 88.5017C71.023 82.2443 70.0367 75.9908 69.0676 69.7346C68.7609 67.7541 68.4673 65.7951 68.6514 63.7537C68.8179 61.9262 68.6774 60.0586 68.5393 58.2199C68.4487 56.9991 68.1336 55.7917 67.8965 54.584C67.7989 54.0833 67.0037 53.5194 66.5084 53.5634C65.8936 53.6182 65.28 53.6806 64.6673 53.7487C60.5252 54.2027 56.3853 54.6837 52.2373 55.0996C50.2443 55.3008 48.2281 55.2906 46.2413 55.5318C42.5637 55.9819 38.9 56.5469 35.2306 57.0621C31.261 57.6202 27.3322 58.5275 23.2808 58.3851C22.5205 58.359 21.7487 58.5594 20.9875 58.678C11.5311 60.1517 2.07471 61.6254 -7.3799 63.1105C-8.13886 63.2308 -8.91043 63.3705 -9.62492 63.6382C-10.0163 63.7852 -10.4096 64.1454 -10.3893 64.6894C-10.3662 65.3013 -10.36 65.9178 -10.2966 66.5254C-10.1217 68.2118 -9.67904 69.9112 -9.79308 71.5743C-9.92182 73.4565 -9.71997 75.2657 -9.43737 77.0917C-7.94532 86.7035 -6.44534 96.316 -4.94375 105.926C-4.77727 106.995 -4.59203 108.058 -4.41601 109.125C-4.25111 110.133 -3.67041 110.812 -2.71568 111.121C-1.99346 111.354 -1.21596 111.704 -0.504767 111.628C1.82238 111.377 4.09213 111.785 6.39141 111.919C9.29245 112.09 12.1979 112.202 15.1244 111.709C23.3488 110.33 31.5982 109.111 39.8378 107.829ZM97.8948 56.8301C97.9291 56.9498 97.9015 56.7978 97.8407 56.6588C97.78 56.5197 97.6911 56.2874 97.6045 56.2833C97.3307 56.2693 96.9504 56.2367 96.7875 56.395C93.3557 59.6889 89.9448 63.0049 86.5362 66.3225C82.6885 70.0701 78.8415 73.8214 75.0079 77.5843C74.5759 78.0093 74.2053 78.5028 73.8591 79.0022C73.4781 79.554 73.7274 81.0784 74.2386 81.6005C74.4945 81.8635 75.1532 81.6514 75.8169 81.083C77.2151 79.8861 78.5383 78.5837 80.0231 77.5043C83.5137 74.9633 86.5534 71.924 89.6781 68.9789C91.9118 66.8741 94.0685 64.6895 96.2579 62.5389C97.7969 61.0289 98.4582 59.2415 97.8948 56.8301ZM98.4365 67.014C98.4126 66.9611 98.2785 66.5267 98.0441 66.151C97.8668 65.866 96.9171 66.1292 96.4201 66.6014C95.6426 67.342 94.8932 68.1134 94.1179 68.8556C90.1228 72.673 86.2445 76.6129 81.8101 79.9555C80.105 81.2393 78.629 82.8274 77.0611 84.2891C76.7507 84.5797 76.8815 85.1807 77.2364 85.4771C78.2946 86.3615 79.4171 86.4426 80.6693 85.9016C81.6907 85.4591 82.5142 84.7621 83.1911 83.9395C85.0627 81.6684 87.2902 79.7874 89.5746 77.9698C92.469 75.6663 94.9371 72.9212 97.5612 70.3374C98.3721 69.535 98.762 68.5637 98.4365 67.014ZM73.4242 74.3432C73.5864 74.318 73.7822 74.3461 73.8844 74.2618C74.7077 73.5766 75.5738 72.9277 76.3177 72.1591C81.2379 67.0681 86.3558 62.1807 91.4525 57.2694C93.3314 55.4583 94.9958 53.4247 96.74 51.4763C97.1711 50.9949 97.3105 50.385 97.1543 49.7587C97.0861 49.484 96.9219 49.1579 96.7006 49.0165C96.5054 48.8925 96.0609 48.8739 95.9065 49.0113C93.9559 50.7515 91.9438 52.4348 90.1318 54.3117C84.683 59.9599 79.3127 65.6857 73.9191 71.3879C73.3943 71.9445 72.828 72.5114 72.7534 73.3242C72.7294 73.5839 72.924 73.8799 73.0671 74.1331C73.1266 74.2391 73.3106 74.2789 73.4242 74.3432ZM86.8644 89.2545C89.0818 87.2832 91.3926 85.2719 93.6519 83.2062C95.1208 81.8615 96.469 80.3813 97.9642 79.0677C99.3224 77.8771 99.4682 76.4807 98.9919 74.9038C98.9189 74.6611 98.6585 74.3441 98.4459 74.3089C98.1895 74.2687 97.8061 74.4164 97.6221 74.6151C94.9061 77.5492 91.7759 80.0204 88.7301 82.5819C86.9664 84.0663 85.5462 85.8489 84.1063 87.531C84.5039 88.9912 85.6864 88.9554 86.8644 89.2545ZM34.6834 33.3143C35.0662 33.6767 35.3387 34.1208 35.7129 34.2403C36.1014 34.3634 36.6747 34.3053 37.0223 34.0909C40.1856 32.1461 42.864 29.6223 45.3544 26.8952C47.3175 24.7467 49.0545 22.3891 51.2773 20.4775C51.4875 20.2963 51.6273 19.952 51.663 19.6671C51.6986 19.3938 51.6495 18.9911 51.4731 18.8369C51.1522 18.5586 50.707 18.4228 50.235 18.1896C48.4035 19.8917 46.5659 21.5166 44.8282 23.2431C43.1989 24.8629 41.6879 26.5893 39.9526 28.1181C38.1285 29.7291 36.2075 31.283 34.6834 33.3143ZM31.7503 31.3074C32.094 31.1053 32.3927 30.9904 32.6151 30.7876C35.1208 28.5096 37.7673 26.3581 40.0715 23.8906C42.4964 21.2949 45.0919 18.8915 47.6166 16.4092C47.8283 16.2003 48.0242 15.9158 48.0898 15.6339C48.1473 15.3885 48.1025 14.9754 47.9403 14.8502C47.5962 14.5853 47.0673 14.2262 46.7573 14.3311C46.2097 14.5161 45.7 14.957 45.2945 15.4013C43.2167 17.6791 41.1518 19.9647 38.8158 21.9896C36.4884 24.0074 34.173 26.0389 31.888 28.1028C31.3313 28.6058 30.877 29.2393 30.459 29.8672C30.3529 30.0264 30.4765 30.4937 30.6475 30.6507C30.9686 30.9426 31.4029 31.1094 31.7503 31.3074ZM93.8294 91.9814C95.3686 90.8114 96.9184 89.5596 98.5455 88.415C99.9722 87.413 100.449 86.0998 100.193 84.4417C100.122 83.9877 100.071 83.5326 100.006 83.0777C99.9491 82.6762 99.2488 82.3828 98.9396 82.6557C96.3058 84.9889 93.6764 87.3253 91.0572 89.6777C90.8566 89.8575 90.7621 90.1536 90.5653 90.4833C91.3952 91.4579 92.4744 91.9131 93.8294 91.9814ZM87.5667 51.0046C86.1335 51.6637 84.4314 52.0638 83.7528 53.8911C83.6522 54.1608 83.383 54.3766 83.1734 54.5988C79.5856 58.384 76.3022 62.4677 72.2306 65.7811C72.1143 65.8755 72.048 66.0265 71.9443 66.1384C71.5982 66.5128 71.6926 67.4575 72.1147 67.7962C72.4628 68.0741 72.9351 68.0201 73.3246 67.6233C74.7183 66.1966 76.1229 64.7779 77.4886 63.3223C80.0109 60.6372 82.5147 57.9334 85.0185 55.2297C86.0608 54.1059 87.0964 52.9772 88.0999 51.8184C88.2191 51.6807 88.1475 51.346 88.0978 51.1153C88.081 51.0574 87.8166 51.0536 87.5667 51.0046ZM2.9734 44.5597C2.77307 44.3525 2.60627 44.0346 2.36362 43.9571C1.74892 43.7617 1.18369 43.9339 0.707685 44.4027C-2.46233 47.521 -5.08875 51.0802 -7.64568 54.6969C-7.73234 54.8179 -7.81851 54.9798 -7.81076 55.1174C-7.79716 55.3927 -7.75066 55.6786 -7.65049 55.9326C-7.61774 56.0174 -7.37518 56.0441 -7.22544 56.052C-6.09946 56.1051 -5.08515 55.8181 -4.37957 54.8914C-1.97955 51.7348 0.402535 48.5635 2.77139 45.3825C2.92659 45.1746 2.90921 44.8374 2.9734 44.5597ZM38.7014 50.1316C39.8587 50.0978 40.8491 49.7696 41.5326 48.8267C43.4115 46.238 45.2815 43.6427 47.1471 41.0443C47.2322 40.9255 47.2343 40.7513 47.2951 40.6148C47.4369 40.2957 47.0122 39.6897 46.6177 39.6281C45.6647 39.4815 44.7619 39.5558 44.1355 40.3764C42.1971 42.9217 40.2873 45.4879 38.3688 48.0477C38.1859 48.2911 38.0232 48.551 37.8555 48.8038C37.5819 49.2177 37.5766 49.9356 37.8543 49.9998C38.1465 50.0696 38.4453 50.0934 38.7014 50.1316ZM18.6702 42.555C18.2597 42.2654 17.9519 41.8952 17.5795 41.8125C16.4198 41.5555 15.4267 41.9663 14.7676 42.9405C12.5304 46.2514 10.3303 49.5878 8.12118 52.9159C8.04054 53.0379 7.91909 53.2366 7.96489 53.3173C8.10101 53.5638 8.27073 53.9009 8.49853 53.9709C9.53064 54.2868 10.2908 53.7228 10.8712 52.9836C12.7711 50.5674 14.6371 48.1214 16.49 45.6675C17.2269 44.691 17.897 43.6623 18.6702 42.555ZM61.2836 38.5188C60.3378 38.6311 59.4808 38.9502 58.9146 39.7556C57.2417 42.1364 55.5909 44.5333 53.9376 46.9267C53.8532 47.0493 53.834 47.2145 53.7677 47.3538C53.6246 47.6516 54.1099 48.2833 54.5128 48.3104C55.2988 48.3638 56.0657 48.3068 56.6025 47.6389C58.4234 45.3679 60.2352 43.0885 62.0316 40.7979C62.3102 40.4418 62.489 40.0095 62.7123 39.6112C62.9384 39.2067 62.6311 38.5765 62.192 38.5551C61.8865 38.5382 61.5844 38.5306 61.2836 38.5188ZM24.7114 42.4382C23.617 41.8603 22.8433 42.0864 22.2032 42.9444C20.1065 45.7527 17.9963 48.5495 15.904 51.361C15.6342 51.7236 15.3924 52.1286 15.2534 52.5528C15.175 52.7897 15.3059 53.1152 15.4088 53.3746C15.4416 53.4594 15.6825 53.4883 15.8326 53.4981C17.2888 53.6014 18.5015 53.2581 19.3036 51.8727C20.8316 49.239 22.4349 46.6502 23.9843 44.0287C24.2813 43.5272 24.4732 42.9658 24.7114 42.4382ZM42.4667 13.4307C42.3813 13.3346 42.3159 13.1904 42.21 13.1503C41.4085 12.8472 40.699 13.0965 40.1216 13.6418C38.5704 15.1107 37.1308 16.7067 35.5047 18.0837C33.2726 19.9733 31.4478 22.2195 29.5541 24.4119C29.44 24.545 29.5183 25.0467 29.6679 25.1543C29.8462 25.2829 30.2887 25.2882 30.4609 25.1519C34.6491 21.8339 38.6888 18.3535 42.1743 14.2755C42.2717 14.1606 42.3557 14.0225 42.4041 13.8821C42.4504 13.74 42.447 13.5803 42.4667 13.4307ZM0.344586 54.5987C1.75072 54.9951 2.78139 54.6371 3.66294 53.5481C5.98792 50.6749 8.08344 47.6459 10.0334 44.5107C10.1897 44.2596 10.3758 43.9493 10.3487 43.6877C10.3233 43.4494 10.0654 43.1105 9.84169 43.0418C8.82544 42.7273 8.02593 43.2017 7.45335 43.9787C5.1743 47.0715 2.92166 50.1835 0.697441 53.3146C0.458683 53.6508 0.459692 54.1587 0.344586 54.5987ZM46.3512 48.6385C47.8047 48.963 49.002 48.7335 49.9084 47.3651C51.2509 45.3347 52.7218 43.3879 54.0943 41.3744C54.4219 40.8934 54.6052 40.3021 54.7952 39.741C54.9158 39.3861 54.696 39.1918 54.314 39.1106C53.3379 38.9032 52.4511 39.1059 51.8707 39.9076C49.9975 42.4955 48.1707 45.1172 46.3612 47.7499C46.222 47.9474 46.3475 48.3265 46.3512 48.6385ZM31.6075 42.5535C30.718 41.4474 29.9273 41.213 29.3915 41.8124C29.1885 42.0394 28.9577 42.2513 28.7938 42.5035C26.877 45.4382 24.9643 48.3742 23.0778 51.3276C22.9426 51.5382 22.9875 51.8887 23.0172 52.1674C23.0259 52.2482 23.2661 52.3475 23.4094 52.3643C24.0254 52.4304 24.6679 52.428 25.0655 51.8697C27.266 48.7619 29.4444 45.6379 31.6075 42.5535ZM39.1052 41.3127C39.1814 40.9491 39.013 40.7839 38.6038 40.7539C37.8112 40.6957 37.0547 40.8311 36.5164 41.427C33.9611 44.2521 31.7912 47.3552 29.9391 50.6803C29.8812 50.7851 29.9044 51.059 29.9518 51.075C30.2282 51.1687 30.5564 51.3188 30.8067 51.2447C31.2232 51.1211 31.6335 50.895 31.9779 50.6225C35.0227 48.2174 36.9109 44.8866 39.0425 41.7504C39.1154 41.6414 39.0852 41.4605 39.1052 41.3127ZM42.6645 35.6268C43.0315 35.4113 43.6248 35.1938 44.043 34.7926C45.4857 33.4051 46.8703 31.9583 48.271 30.5266C49.6717 29.0948 51.0905 27.6798 52.4302 26.195C52.6769 25.9221 52.6005 25.3439 52.6315 24.9034C52.6394 24.779 52.5101 24.6389 52.4283 24.5149C52.2287 24.2119 51.966 24.1942 51.6625 24.4662C51.3194 24.7717 50.9387 25.0499 50.6537 25.4031C47.9226 28.7675 44.9603 31.9023 41.6257 34.6788C41.4925 34.7895 41.4753 35.306 41.5806 35.3795C41.8059 35.5339 42.1462 35.5239 42.6645 35.6268ZM-11.681 54.2315C-11.4413 54.1395 -11.0967 54.119 -10.9605 53.9395C-8.9072 51.2415 -6.87843 48.5238 -4.84967 45.8062C-4.75919 45.6846 -4.69472 45.5339 -4.65889 45.3876C-4.63298 45.278 -4.65414 45.0547 -4.68234 45.0493C-4.96339 45.0012 -5.38112 44.8534 -5.51488 44.9856C-6.90086 46.3486 -11.4257 52.6598 -11.939 53.8926C-11.9663 53.9555 -11.7828 54.1047 -11.681 54.2315ZM65.8487 42.585C65.7843 42.4602 65.7392 42.3207 65.6524 42.215C65.4161 41.9275 65.1235 41.9183 64.877 42.2303C63.6535 43.7829 62.4217 45.3329 61.2489 46.9226C61.0457 47.1985 61.3098 47.5267 61.671 47.5876C61.8114 47.6107 62.0293 47.6295 62.1009 47.55C63.3071 46.1993 64.5108 44.8452 65.6738 43.4563C65.8382 43.2568 65.7951 42.8806 65.8487 42.585ZM100.241 91.4824C99.0197 91.4949 98.3124 92.3105 97.6569 93.1572C97.5205 93.3347 97.5096 93.8542 97.6424 93.9547C98.3632 94.5048 99.1326 94.9906 99.9092 95.4597C100.295 95.6927 100.919 95.3472 100.953 94.9511C101.057 93.7215 101.034 92.5233 100.241 91.4824ZM33.4281 15.5037C33.3442 15.3917 33.267 15.1848 33.1766 15.1814C31.4035 15.0884 29.7878 16.5829 29.5645 18.5229C29.5541 18.6066 29.8398 18.8219 29.8829 18.7976C31.1549 18.0699 32.8733 16.4577 33.4281 15.5037ZM75.7003 57.991C75.5372 57.8347 75.45 57.6763 75.3577 57.6731C73.8439 57.614 72.7883 58.5015 71.8533 59.5109C71.599 59.785 71.6522 60.3649 71.6079 60.8075C71.5942 60.9327 71.7019 61.1602 71.8025 61.1914C72.0433 61.2692 72.3923 61.377 72.5547 61.2657C73.8314 60.3926 74.847 59.2612 75.7003 57.991ZM-12.7719 48.3851C-11.6569 48.1918 -11.2617 47.3428 -10.8439 46.5254C-10.6582 46.1623 -11.063 45.5454 -11.4755 45.5315C-12.5814 45.4948 -13.3198 46.1355 -13.2208 47.1342C-13.1771 47.5651 -12.9256 47.9753 -12.7719 48.3851Z" fill="#FED33D"/>
<path d="M13.8097 105.454C10.9291 105.903 7.73798 106.416 4.54256 106.889C3.51503 107.041 2.76657 106.527 2.28383 105.648C1.9892 105.112 1.62675 104.567 1.52022 103.983C1.07852 101.563 0.705181 99.1296 0.341689 96.6968C0.222424 95.9065 0.541037 95.1924 0.910486 94.5037C1.21515 93.9384 1.64527 93.4884 2.26606 93.3467C4.51755 92.8356 6.79514 92.254 9.10423 92.451C11.4488 92.6504 13.7053 92.2967 15.9855 91.957C18.1166 91.6386 20.2444 91.2992 22.381 91.0288C23.7833 90.8493 24.739 91.5777 24.9644 93.0237C25.2483 94.8456 25.6108 96.6825 25.6289 98.5165C25.6856 103.821 25.9193 103.815 20.5364 104.596C18.4033 104.901 16.2622 105.143 13.8097 105.454Z" fill="#FED33D"/>
<path d="M11.9185 87.6155C9.0322 88.0653 6.14751 88.5383 3.25465 88.9461C2.6675 89.0279 2.02073 88.9528 1.44984 88.7878C1.04256 88.6695 0.698991 88.3205 0.67018 87.772C0.643796 87.2642 0.800413 86.8021 1.19739 86.6034C1.86815 86.2683 2.59566 85.9713 3.33084 85.8489C7.27511 85.1912 11.228 84.5889 15.1794 83.977C16.8508 83.7185 18.5212 83.4406 20.2023 83.2567C20.7902 83.1925 21.4341 83.2993 21.9977 83.4928C22.3921 83.6287 22.7484 83.9718 22.8017 84.5145C22.8525 85.0283 22.6708 85.467 22.2898 85.6807C21.7709 85.9746 21.1731 86.1889 20.5846 86.2865C17.7033 86.7687 14.8124 87.2016 11.9242 87.6517C11.9221 87.6384 11.9203 87.6269 11.9185 87.6155Z" fill="#FED33D"/>
<path d="M7.50314 63.394L7.59943 63.084L7.73741 63.3927L7.50314 63.394Z" fill="#FED33D"/>
</svg>
