<svg width="179" height="69" viewBox="0 0 179 69" fill="none" xmlns="http://www.w3.org/2000/svg">
<rect x="0.242798" y="16.792" width="174" height="52" rx="12" transform="rotate(-5.53793 0.242798 16.792)" fill="#CB73FE"/>
<path d="M24.3092 45.6311L23.9143 41.5582L28.7427 41.09C30.166 40.952 31.1994 40.5534 31.8428 39.8943C32.4862 39.2351 32.7399 38.2048 32.604 36.8034C32.4851 35.5771 32.0665 34.6783 31.348 34.107C30.6514 33.5336 29.6024 33.3148 28.2009 33.4507L23.1755 33.9379L22.7838 29.8979L27.9735 29.3947C29.3749 29.2588 30.6499 29.301 31.7985 29.5211C32.969 29.7392 33.9912 30.1374 34.8651 30.7158C35.7369 31.2722 36.4296 32.0339 36.9433 33.0009C37.4768 33.9438 37.8083 35.0831 37.9378 36.4189C38.1034 38.1268 37.8483 39.5993 37.1726 40.8363C36.5187 42.0712 35.454 43.0586 33.9785 43.7984C32.5249 44.5361 30.6595 45.0154 28.3821 45.2362L24.3092 45.6311ZM21.0098 51.952L18.908 30.2736L24.1962 29.7609L26.298 51.4393L21.0098 51.952ZM50.2329 49.5828C48.4812 49.7526 46.8935 49.5639 45.4701 49.0168C44.0685 48.4675 42.9187 47.5511 42.0207 46.2678C41.1227 44.9845 40.5749 43.3246 40.3775 41.2881C40.18 39.2517 40.3997 37.5285 41.0366 36.1184C41.6714 34.6865 42.6358 33.5762 43.9297 32.7877C45.2215 31.9772 46.7433 31.4871 48.4951 31.3172C50.2469 31.1474 51.8345 31.336 53.258 31.8832C54.6814 32.4304 55.8422 33.3457 56.7402 34.629C57.6361 35.8904 58.1828 37.5394 58.3802 39.5758C58.5819 41.6561 58.3545 43.4132 57.6978 44.8473C57.0411 46.2813 56.0549 47.3937 54.739 48.1844C53.443 48.951 51.9409 49.4172 50.2329 49.5828ZM50.0246 45.7239C50.8129 45.6474 51.4528 45.4086 51.9444 45.0072C52.4338 44.584 52.7738 43.9874 52.9644 43.2175C53.155 42.4475 53.1972 41.515 53.091 40.4202C52.9785 39.2596 52.7417 38.299 52.3806 37.5383C52.0174 36.7557 51.5309 36.184 50.9213 35.8231C50.3314 35.4382 49.5985 35.2883 48.7226 35.3732C47.9781 35.4454 47.3502 35.6941 46.8388 36.1195C46.3473 36.5208 46.0062 37.1064 45.8156 37.8764C45.625 38.6464 45.5839 39.5898 45.6921 40.7065C45.8662 42.5021 46.3253 43.817 47.0692 44.6511C47.8351 45.483 48.8202 45.8406 50.0246 45.7239ZM62.3185 47.9468L61.5383 39.8996L60.637 30.6041L64.9727 30.1838L65.6413 36.0536L66.2982 35.9899C66.3029 34.4423 66.4697 33.1994 66.7987 32.2612C67.1475 31.2991 67.6959 30.5718 68.4438 30.0793C69.2137 29.5847 70.1898 29.2801 71.3723 29.1654C71.5475 29.1484 71.7456 29.1403 71.9667 29.1409C72.1857 29.1197 72.4396 29.1172 72.7285 29.1334L73.0792 34.802C72.7119 34.6608 72.3181 34.5885 71.8978 34.585C71.4972 34.5575 71.1437 34.5587 70.8371 34.5884C69.9831 34.6712 69.2546 34.9076 68.6514 35.2976C68.0701 35.6855 67.6262 36.2369 67.3198 36.9519C67.0353 37.6646 66.8881 38.5409 66.8784 39.5807L67.6396 47.4309L62.3185 47.9468ZM84.2982 46.2467C82.2618 46.4442 80.7098 46.0531 79.6423 45.0736C78.5726 44.0721 77.9221 42.378 77.6907 39.9912L77.0315 33.1921L74.568 33.4309L74.2685 29.3156L76.0422 29.1437C76.7407 29.0538 77.2557 28.8934 77.5869 28.6623C77.9401 28.4292 78.1339 28.0346 78.1684 27.4787L78.3597 25.0067L81.3487 24.7169L81.7213 28.5599L85.8928 28.1554L86.3099 32.4582L82.1385 32.8627L82.7595 39.2677C82.8317 40.0122 83.06 40.5426 83.4443 40.859C83.8505 41.1733 84.4259 41.2943 85.1704 41.2221C85.5864 41.1818 85.9763 41.0998 86.3401 40.9761C86.7039 40.8524 86.9987 40.7022 87.2248 40.5256L87.6993 45.4197C87.0198 45.7066 86.3866 45.9006 85.7996 46.0017C85.2366 46.1226 84.7362 46.2043 84.2982 46.2467ZM92.1481 45.0546L91.1067 34.314L88.4462 34.572L88.0735 30.729L92.8225 30.4675L92.762 29.8434C91.915 29.7708 91.1987 29.5639 90.6131 29.2229C90.0472 28.8578 89.6173 28.4132 89.3233 27.8891C89.0294 27.365 88.8516 26.7855 88.79 26.1505C88.6966 25.187 88.8688 24.3414 89.3067 23.6138C89.7424 22.8642 90.402 22.2587 91.2856 21.7973C92.1692 21.3359 93.2241 21.0457 94.4504 20.9268C95.5233 20.8228 96.5105 20.8597 97.4119 21.0375C98.3111 21.1935 99.0415 21.4321 99.6032 21.7534L99.7693 26.5447C99.1858 26.2256 98.532 25.9795 97.8079 25.8066C97.1058 25.6315 96.4591 25.5727 95.8679 25.63C95.2547 25.6894 94.7561 25.9036 94.3719 26.2724C93.9855 26.6193 93.8274 27.154 93.8975 27.8766C93.9527 28.446 94.1145 28.8613 94.383 29.1226C94.6733 29.3818 95.01 29.5481 95.3928 29.6215C95.7736 29.673 96.1501 29.6807 96.5223 29.6446L100.332 29.2751L100.731 33.3809L96.2635 33.814L97.3049 44.5546L92.1481 45.0546ZM112.364 43.5587C110.613 43.7285 109.025 43.5399 107.602 42.9927C106.2 42.4434 105.05 41.527 104.152 40.2437C103.254 38.9604 102.706 37.3005 102.509 35.2641C102.312 33.2276 102.531 31.5044 103.168 30.0943C103.803 28.6624 104.767 27.5521 106.061 26.7636C107.353 25.9531 108.875 25.463 110.627 25.2931C112.378 25.1233 113.966 25.3119 115.389 25.8591C116.813 26.4063 117.974 27.3216 118.872 28.6049C119.768 29.8663 120.314 31.5153 120.512 33.5517C120.713 35.632 120.486 37.3891 119.829 38.8232C119.173 40.2572 118.186 41.3696 116.871 42.1603C115.574 42.9269 114.072 43.3931 112.364 43.5587ZM112.156 39.6998C112.944 39.6233 113.584 39.3845 114.076 38.9832C114.565 38.5599 114.905 37.9634 115.096 37.1934C115.286 36.4234 115.329 35.491 115.223 34.3961C115.11 33.2355 114.873 32.2749 114.512 31.5142C114.149 30.7316 113.662 30.1599 113.053 29.799C112.463 29.4142 111.73 29.2642 110.854 29.3491C110.11 29.4213 109.482 29.67 108.97 30.0954C108.479 30.4967 108.138 31.0823 107.947 31.8523C107.757 32.6223 107.715 33.5657 107.824 34.6825C107.998 36.478 108.457 37.7929 109.201 38.627C109.967 39.4589 110.952 39.8165 112.156 39.6998ZM124.45 41.9227L122.157 18.2736L127.347 17.7704L129.64 41.4195L124.45 41.9227ZM133.752 41.0208L132.071 23.6781L137.359 23.1654L139.04 40.5081L133.752 41.0208ZM134.495 20.9896C133.488 21.0872 132.691 20.9546 132.103 20.5916C131.535 20.2046 131.213 19.617 131.136 18.8287C131.056 17.9966 131.258 17.347 131.743 16.88C132.248 16.389 133.004 16.0947 134.011 15.997C135.041 15.8972 135.839 16.0408 136.407 16.4278C136.995 16.7908 137.328 17.3774 137.407 18.1876C137.485 18.9978 137.272 19.6484 136.767 20.1394C136.282 20.6064 135.525 20.8898 134.495 20.9896ZM151.177 39.7956C149.425 39.9654 147.837 39.7767 146.414 39.2296C145.012 38.6802 143.862 37.7639 142.964 36.4806C142.066 35.1973 141.519 33.5374 141.321 31.5009C141.124 29.4645 141.343 27.7412 141.98 26.3312C142.615 24.8993 143.579 23.789 144.873 23.0005C146.165 22.19 147.687 21.6999 149.439 21.53C151.191 21.3602 152.778 21.5488 154.202 22.096C155.625 22.6432 156.786 23.5585 157.684 24.8418C158.58 26.1032 159.126 27.7521 159.324 29.7886C159.526 31.8688 159.298 33.626 158.641 35.0601C157.985 36.4941 156.998 37.6065 155.683 38.3972C154.387 39.1638 152.885 39.63 151.177 39.7956ZM150.968 35.9367C151.756 35.8602 152.396 35.6214 152.888 35.22C153.377 34.7968 153.717 34.2002 153.908 33.4302C154.099 32.6603 154.141 31.7278 154.035 30.633C153.922 29.4724 153.685 28.5118 153.324 27.7511C152.961 26.9685 152.475 26.3968 151.865 26.0359C151.275 25.651 150.542 25.5011 149.666 25.586C148.922 25.6582 148.294 25.9069 147.782 26.3323C147.291 26.7336 146.95 27.3192 146.759 28.0892C146.569 28.8592 146.527 29.8026 146.636 30.9193C146.81 32.7149 147.269 34.0298 148.013 34.8639C148.779 35.6958 149.764 36.0534 150.968 35.9367Z" fill="white"/>
</svg>
