<svg width="169" height="315" viewBox="0 0 169 315" fill="none" xmlns="http://www.w3.org/2000/svg">
<path d="M153.654 236.254C154.402 236.059 155.142 235.922 155.656 236.721C156.063 237.358 156.521 237.969 156.861 238.64C159.426 243.714 162.455 248.523 165.522 253.29C169.819 259.968 174.261 266.56 179.47 272.585C180.085 273.296 180.741 273.999 181.48 274.575C182.263 275.185 183.257 275.325 184.168 274.932C185.11 274.527 185.51 273.609 185.602 272.643C185.67 271.902 185.634 271.117 185.463 270.394C184.947 268.188 184.328 266.006 183.8 263.802C183.741 263.555 183.993 263.21 184.164 262.954C184.203 262.899 184.56 262.965 184.688 263.073C186.133 264.287 187.632 265.447 188.985 266.758C193.743 271.368 198.515 275.943 203.667 280.138C208.063 283.718 212.098 287.741 216.294 291.567C217.274 292.459 218.183 293.452 219.258 294.208C222.676 296.612 225.873 299.261 228.781 302.263C229.041 302.534 229.352 302.758 229.65 302.992C230.416 303.6 231.648 303.696 232.285 303.225C232.952 302.732 233.183 302.058 233.168 301.26C233.12 298.571 232.225 296.083 231.435 293.555C230.764 291.407 229.628 289.385 229.575 287.07C229.57 286.857 230.063 286.434 230.303 286.452C230.842 286.49 231.424 286.646 231.888 286.92C236.114 289.434 240.343 291.95 244.528 294.533C249.356 297.512 254.086 300.66 258.973 303.538C261.57 305.068 264.394 306.215 267.15 307.466C267.62 307.679 268.263 307.632 268.803 307.549C270.113 307.352 271.14 305.831 270.819 304.596C270.63 303.874 270.401 303.145 270.078 302.474C267.936 298.005 264.989 294.044 261.921 290.207C258.377 285.777 254.57 281.561 250.878 277.248C250.138 276.386 249.377 275.538 248.686 274.637C244.06 268.628 239.08 262.934 233.608 257.671C232.792 256.887 231.945 256.094 231.974 254.817C232.87 254.284 233.802 254.507 234.712 254.711C239.698 255.826 244.645 257.073 249.488 258.728C251.629 259.459 253.833 260.031 256.03 260.578C256.936 260.804 257.906 260.85 258.846 260.842C261.662 260.825 262.545 259.331 261.6 256.736C261.284 255.87 260.698 255.079 260.136 254.329C255.121 247.636 249.321 241.69 242.958 236.273C236.894 231.109 230.231 226.763 223.806 222.093C223.213 221.661 222.694 221.117 222.176 220.588C222.088 220.498 222.136 220.227 222.188 220.057C222.232 219.912 222.355 219.698 222.47 219.678C224.555 219.31 226.619 219.648 228.66 219.986C231.874 220.517 235.07 220.383 238.269 219.953C239.017 219.853 239.796 218.471 239.563 217.707C239.455 217.345 239.395 216.939 239.181 216.646C237.519 214.354 235.908 212.05 233.601 210.283C228.336 206.252 222.942 202.413 217.266 198.987C215.149 197.71 213.138 196.321 211.339 194.627C210.789 194.11 210.896 192.952 211.555 192.688C212.95 192.129 214.355 191.586 215.778 191.1C216.668 190.795 217.616 190.662 218.501 190.348C220.673 189.584 221.134 186.881 219.364 185.29C218.663 184.659 217.941 184.002 217.119 183.566C212.108 180.907 207.302 177.863 202.105 175.545C199.865 174.544 197.705 173.361 195.516 172.244C187.928 168.377 180.106 165.036 172.197 161.89C170.623 161.262 169.074 160.549 167.565 159.778C166.698 159.335 166.13 158.528 165.94 157.557C165.76 156.631 165.754 155.669 165.555 154.751C165.176 153.005 164.231 151.62 162.648 150.747C161.656 150.199 160.613 149.74 159.603 149.226C151.686 145.194 143.764 141.174 135.869 137.096C134.882 136.586 134.024 135.803 133.174 135.072C132.425 134.428 132.011 133.522 132.102 132.546C132.585 127.434 132.094 122.328 132.034 117.22C132.016 115.712 131.8 114.206 131.688 112.7C131.345 108.015 128.719 104.238 126.702 100.223C125.856 98.5389 124.904 96.91 124.018 95.2463C123.797 94.8304 124.457 93.5202 124.941 93.3349C125.114 93.2688 125.284 93.1508 125.464 93.1367C129.663 92.7661 133.667 92.8955 137.375 95.5243C142.019 98.816 146.333 102.467 150.596 106.216C156.276 111.212 161.855 116.328 167.77 121.055C169.987 122.827 172.131 124.693 174.285 126.544C176.166 128.161 178.228 129.477 180.541 130.382C181.3 130.678 182.033 130.543 182.657 130.034C183.388 129.44 183.709 128.2 183.266 127.465C182.39 126.01 181.54 124.527 180.525 123.17C175.656 116.653 170.724 110.181 165.839 103.674C164.699 102.157 163.434 100.77 162.094 99.4262C159.425 96.7471 156.885 93.9438 154.239 91.2428C151.855 88.8122 149.344 86.5032 146.988 84.0458C144.457 81.4058 141.475 79.4619 138.202 77.9091C137.349 77.5047 136.5 77.093 135.642 76.6958C127.187 72.7794 127.187 72.7912 118.202 73.1922C116.673 73.2599 115.207 73.4206 113.808 74.1316C113.154 74.4657 112.374 74.6421 111.637 74.7083C110.084 74.8453 108.612 74.6201 107.545 73.2761C107.075 72.6841 106.419 72.2012 106.087 71.5488C104.952 69.3088 103.167 67.6042 101.538 65.7701C95.7525 59.2627 89.4844 53.2296 83.2925 47.1211C81.1443 44.9994 78.7953 43.0843 76.5938 41.0137C73.2687 37.8872 69.5072 35.39 65.6598 32.9567C61.6679 30.4323 57.8855 27.578 53.9915 24.8972C52.282 23.7212 50.439 22.7926 48.5771 21.8597C44.5388 19.8339 40.1744 18.3921 36.5879 15.5115C33.6311 14.2798 30.7504 12.7857 27.6914 11.9072C25.5057 11.2811 23.4028 10.5606 21.3035 9.70248C15.451 7.31345 9.36925 6.14301 3.01583 6.75599C1.44932 6.90749 0.286672 8.11924 0.211193 9.79341C0.150312 11.1143 0.160635 12.4428 0.192222 13.766C0.43522 23.6108 0.67352 33.4557 0.952059 43.2996C1.0756 47.6546 1.98216 51.8782 2.85903 56.1453C4.08774 62.1253 6.75741 67.5851 8.35168 73.4112C8.55022 74.1333 8.89262 74.8304 9.25539 75.4914C11.7127 79.9666 14.2564 84.3946 16.6412 88.9048C18.232 91.9148 19.8341 94.9079 21.7376 97.7369C22.3655 98.6706 22.7584 99.7666 23.3887 100.698C26.8846 105.864 30.4154 111.008 33.9485 116.147C35.0188 117.705 36.1328 119.211 37.517 120.54C39.4281 122.374 40.9198 124.571 42.4181 126.84C41.7648 128.058 41.1097 129.204 40.5193 130.382C38.8859 133.648 37.9985 137.096 38.0974 140.769C38.2115 145.125 38.38 149.478 38.4135 153.833C38.4392 156.957 39.3522 159.863 40.7751 162.518C42.9169 166.513 45.3413 170.352 48.6706 173.547C53.3159 177.999 57.7305 182.687 62.6204 186.889C64.7711 188.736 66.747 190.786 68.8104 192.74C71.971 195.731 74.9954 198.858 78.3546 201.65C80.5255 203.453 82.3379 205.685 84.3688 207.665C85.1705 208.448 86.1201 209.087 87.0323 209.745C87.5464 210.116 88.6469 209.711 88.9422 209.038C89.1638 208.533 89.4147 207.972 89.4011 207.444C89.3798 206.706 89.2946 205.876 88.9377 205.26C87.334 202.483 85.9564 199.562 83.8745 197.074C80.1065 192.566 76.8017 187.738 73.7848 182.688C71.6565 179.125 69.1804 175.769 66.8864 172.303C65.2182 169.783 63.4003 167.335 62.0008 164.671C60.3399 161.509 58.7312 158.263 58.7297 154.508C58.7295 153.393 58.3693 152.277 58.1749 151.162C57.6836 148.353 57.4809 145.528 57.7419 142.686C57.7697 142.385 58.0586 142.008 58.3295 141.859C58.6144 141.702 59.1286 141.618 59.3648 141.775C60.9117 142.801 62.0978 144.258 63.9356 144.986C65.6681 145.673 67.1869 146.894 68.8219 147.843C70.4544 148.788 72.1232 149.672 73.7558 150.618C74.7367 151.185 75.7203 151.763 76.6305 152.436C79.2092 154.348 81.6352 156.493 84.3345 158.212C88.3123 160.742 92.4857 162.954 97.0268 164.36C97.5568 164.524 98.0869 164.688 98.5095 164.82C99.6277 166.122 99.7435 167.682 100.256 169.09C100.704 170.33 101.167 171.566 101.695 172.772C102.453 174.496 103.282 176.19 104.068 177.901C105.882 181.853 107.691 185.804 109.493 189.761C109.884 190.62 110.101 191.591 110.632 192.344C111.861 194.082 112.622 195.97 113.066 198.04C113.484 199.998 114.801 200.864 116.795 200.742C117.166 200.718 117.545 200.81 118.118 200.869C121.328 204.408 124.611 208.097 126.935 212.457C130.251 218.675 134.396 224.294 138.837 229.715C141.357 232.791 143.829 235.895 146.134 239.14C147.331 240.826 148.798 242.326 150.185 243.873C150.553 244.285 151.039 244.637 151.537 244.88C152.977 245.587 154.405 244.859 154.535 243.441C154.76 240.967 154.631 238.533 153.716 236.181C153.869 236.147 153.985 236.127 154.1 236.107C153.964 236.149 153.809 236.2 153.654 236.254ZM76.5145 192.888C76.0254 192.751 75.9461 192.888 76.2787 193.299C76.3947 193.204 76.5107 193.108 76.6099 193.006C76.1457 193.009 76.0938 193.107 76.454 193.302C76.4742 193.164 76.4943 193.026 76.5145 192.888ZM113.45 81.7747C113.251 81.1379 113.043 80.5038 112.866 79.8617C112.821 79.7018 112.821 79.491 112.89 79.3494C112.944 79.2391 113.194 79.1048 113.262 79.1433C113.512 79.2909 113.935 79.5405 113.911 79.688C113.797 80.3565 113.554 81.0047 113.354 81.6422C113.743 81.7435 113.81 81.685 113.561 81.464C113.523 81.5692 113.488 81.6719 113.45 81.7747ZM167.046 177.804C166.076 177.571 165.523 177.064 165.725 175.96C165.816 175.453 165.776 174.923 165.796 174.402C164.179 174.258 163.886 172.873 163.378 171.742C163.217 171.381 163.055 170.772 163.82 170.577C164.487 171.856 165.157 173.137 165.825 174.417C165.684 175.764 166.067 176.915 167.094 177.824C166.765 178.37 167.043 178.879 167.224 179.377C167.428 179.938 167.335 180.115 166.905 179.861C166.83 179.818 166.884 179.516 166.915 179.34C167.011 178.833 167.399 178.352 167.046 177.804ZM137.409 84.6539C137.851 84.8202 138.468 84.4088 138.76 84.9722C138.895 85.234 138.879 85.6489 138.775 85.9382C138.669 86.237 138.379 86.1071 138.202 85.6403C138.019 85.1618 137.91 84.6221 137.281 84.5601C137.695 84.6324 137.884 84.4499 137.781 84.0238C137.76 83.9391 137.487 83.8182 137.433 83.8575C137.11 84.0931 137.118 84.3772 137.409 84.6539ZM176.504 180.205C176.831 180.132 177.271 179.889 177.468 180.019C178.803 180.892 179.395 182.198 179.407 183.773C179.409 183.934 179.262 184.217 179.154 184.232C178.861 184.273 178.352 184.298 178.282 184.157C177.64 182.828 177.069 181.465 176.498 180.063C176.452 179.749 176.406 179.435 176.36 179.121C176.407 179.482 176.455 179.844 176.504 180.205ZM158.873 102.766C159.044 102.842 159.288 102.869 159.372 102.999C160.376 104.575 161.015 106.287 161.101 108.163C161.116 108.459 160.853 108.923 160.604 109.024C160.4 109.105 159.858 108.832 159.755 108.591C158.927 106.691 158.445 104.728 158.991 102.644C158.827 102.632 158.641 102.658 158.506 102.588C158.437 102.552 158.419 102.235 158.443 102.227C158.806 102.097 158.956 102.287 158.873 102.766ZM121.474 84.8708C121.129 84.8322 120.577 84.9151 120.476 84.7401C119.379 82.8212 118.489 80.7975 118.13 78.611C118.035 78.0379 118.717 77.8641 119.418 78.1469C120.06 80.3664 120.726 82.6753 121.355 85.0254C121.65 86.2827 121.975 87.532 122.221 88.8001C122.284 89.1182 122.189 89.5707 121.986 89.808C121.814 90.0114 121.384 90.0366 121.064 90.0495C120.932 90.0553 120.655 89.8066 120.669 89.7068C120.917 88.0898 121.198 86.4814 121.474 84.8708ZM141.064 200.856C140.48 200.883 139.883 200.784 139.632 200.222C138.064 196.724 137.978 192.929 137.521 189.213C137.494 189.003 137.969 188.671 138.267 188.493C138.683 188.247 139.067 188.37 139.163 188.773C139.771 191.339 140.436 193.897 140.912 196.487C141.181 197.949 141.509 199.468 140.939 200.963C141.067 200.984 141.21 200.983 141.32 201.039C141.356 201.057 141.318 201.323 141.299 201.326C140.94 201.364 140.86 201.198 141.064 200.856ZM168.632 188.462C169.293 188.841 169.868 189.279 170.141 190.051C170.961 192.356 171.843 194.64 172.642 196.953C174.238 201.578 175.826 206.206 177.361 210.851C178.365 213.891 179.28 216.958 180.216 220.02C180.495 220.932 180.59 221.865 180.135 222.765C180.48 222.574 180.553 222.634 180.357 222.94C180.317 222.837 180.274 222.733 180.233 222.633C179.868 222.687 179.496 222.808 179.138 222.781C177.944 222.694 176.974 222.276 176.67 220.95C176.212 218.951 175.788 216.941 175.243 214.963C172.816 206.155 170.357 197.355 168.668 188.31C168.585 187.663 168.5 187.016 168.417 186.372C168.531 186.369 168.642 186.366 168.753 186.363C168.714 187.063 168.673 187.763 168.632 188.462ZM171.509 182.877C172.064 182.827 172.619 182.775 173.262 182.716C173.689 183.576 174.193 184.383 174.507 185.259C177.123 192.527 179.7 199.811 182.298 207.084C183.691 210.988 184.749 215.004 186.419 218.817C187.557 221.414 188.182 224.189 188.63 226.989C188.664 227.208 188.272 227.533 188.022 227.741C187.908 227.834 187.586 227.844 187.482 227.752C186.937 227.269 186.153 226.829 185.958 226.214C184.303 221.005 182.858 215.729 181.162 210.536C178.296 201.76 175.298 193.029 172.333 184.286C172.162 183.779 171.788 183.339 171.508 182.86C171.5 182.005 171.486 181.151 171.499 180.298C171.5 180.243 171.732 180.133 171.834 180.154C171.958 180.179 172.122 180.298 172.156 180.413C172.457 181.363 171.779 182.067 171.509 182.877ZM180.17 267.555C178.641 265.637 177.032 263.779 175.605 261.788C173.841 259.332 172.166 256.808 170.563 254.243C167.658 249.595 164.791 244.922 161.989 240.211C158.122 233.709 154.337 227.158 150.504 220.636C150.219 220.15 149.864 219.698 149.495 219.271C149.253 218.991 148.924 218.788 148.638 218.545C148.008 218.011 146.505 218.495 146.263 219.314C146.156 219.672 145.995 220.031 145.978 220.394C145.901 222.104 146.045 223.758 146.722 225.392C148.1 228.708 149.157 232.137 149.833 235.672C149.863 235.83 149.743 236.146 149.637 236.172C149.345 236.248 148.853 236.346 148.738 236.2C144.748 231.165 140.781 226.11 136.833 221.043C134.501 218.052 132.545 214.834 130.703 211.515C129.24 208.883 127.392 206.455 125.616 204.007C124.403 202.33 122.983 200.801 122.03 198.739C123.483 197.475 124.873 196.245 126.289 195.048C126.57 194.811 126.955 194.702 127.292 194.53C128.365 193.984 129.673 194.201 130.383 195.066C132.541 197.695 134.772 200.271 136.827 202.978C138.45 205.115 140.406 206.863 142.448 208.554C144.701 210.419 147.184 210.792 149.863 209.702C150.548 209.424 151.117 208.831 152.182 209.446C154.985 212.896 158.013 216.518 160.92 220.233C163.601 223.658 166.199 227.152 168.746 230.68C170.374 232.935 172.652 234.215 175.109 235.239C176.15 235.672 177.308 235.733 178.459 235.476C179.31 235.286 180.291 234.405 180.296 233.567C180.307 232.25 180.2 230.933 180.175 229.614C180.16 228.833 180.446 228.139 180.93 227.53L180.678 227.792L180.85 227.48C181.436 228.793 182.72 229.348 183.821 230.002C187.395 232.127 190.959 234.298 194.691 236.118C199.304 238.366 203.669 240.935 207.627 244.204C208.174 244.657 208.985 244.856 209.709 245.006C211.016 245.28 212.359 244.088 212.421 242.795C212.501 241.043 212.133 239.432 211.251 237.908C208.302 232.818 204.801 228.121 200.837 223.8C197.501 220.165 194.539 216.252 191.624 212.293C191.064 211.533 190.572 210.721 190.064 209.924C189.597 209.19 189.965 208.297 190.766 208.229C192.461 208.081 194.162 208.005 195.848 207.805C197.534 207.605 199.25 207.443 200.872 206.987C202.629 206.492 203.163 204.616 202.226 203.359C201.336 202.164 200.245 201.081 199.093 200.13C195.301 197.002 191.436 193.96 187.614 190.87C186.734 190.158 185.904 189.386 185.065 188.628C184.616 188.223 184.688 187.411 185.188 187.247C186.44 186.831 187.707 186.467 188.954 186.044C190.166 185.634 190.898 183.81 190.186 182.741C189.57 181.814 188.86 180.883 188.001 180.192C185.053 177.821 181.977 175.626 178.638 173.812C174.818 171.735 171.028 169.606 167.245 167.462C166.265 166.907 165.331 166.256 164.451 165.556C164.26 165.405 164.3 164.831 164.386 164.49C164.592 163.662 165.413 163.17 166.067 163.43C175.722 167.271 185.336 171.21 194.622 175.898C197.49 177.345 200.403 178.711 203.236 180.22C206.738 182.087 210.187 184.047 213.629 186.017C214.028 186.246 214.237 186.802 214.514 187.181C212.199 188.335 209.965 189.344 207.836 190.541C205.94 191.605 206.055 194.066 206.979 195.568C207.367 196.195 207.963 196.712 208.528 197.207C210.665 199.083 212.958 200.739 215.406 202.197C221.263 205.685 226.787 209.662 232.137 213.881C232.698 214.323 233.09 215.014 233.445 215.652C233.532 215.811 233.225 216.401 232.995 216.478C232.478 216.65 231.858 216.78 231.346 216.656C226.865 215.572 222.328 215.887 217.795 216.02C217.237 216.037 216.674 216.17 216.126 216.3C214.755 216.624 214.05 219.051 215.059 220.051C215.727 220.711 216.442 221.337 217.202 221.888C221.634 225.114 225.988 228.458 230.549 231.492C239.603 237.515 247.397 244.892 254.502 253.054C255.114 253.759 255.569 254.605 256.064 255.404C256.147 255.537 256.144 255.845 256.047 255.947C255.821 256.185 255.472 256.552 255.246 256.505C253.956 256.242 252.651 255.973 251.417 255.521C246.793 253.825 242.021 252.662 237.253 251.469C233.892 250.629 230.515 250.662 227.118 251.092C226.091 251.223 225.285 252.783 225.739 253.773C226.05 254.454 226.349 255.186 226.834 255.735C228.459 257.578 230.098 259.417 231.852 261.137C236.318 265.515 240.452 270.182 244.346 275.068C247.412 278.912 250.581 282.665 253.914 286.289C258.012 290.746 261.563 295.65 264.853 300.734C264.989 300.944 264.778 301.406 264.663 301.729C264.628 301.827 264.337 301.941 264.231 301.894C263.024 301.368 261.753 300.932 260.641 300.243C253.411 295.765 246.226 291.212 239.001 286.726C236.914 285.429 234.788 284.181 232.593 283.086C231.258 282.42 229.789 281.934 228.325 281.637C225.218 281.011 223.682 282.915 224.702 285.996C224.938 286.712 225.252 287.403 225.518 288.112C226.114 289.707 226.732 291.292 227.28 292.903C227.585 293.802 227.704 294.745 227.277 295.637C227.599 295.823 227.665 295.79 227.476 295.541C227.464 295.634 227.455 295.727 227.443 295.819C225.346 294.218 223.157 292.72 221.17 290.99C217.044 287.396 213.022 283.683 208.967 280.009C207.99 279.122 207.13 278.09 206.091 277.29C200.99 273.366 196.491 268.789 191.853 264.354C187.762 260.439 183.52 256.685 179.332 252.874C179.063 252.628 178.689 252.365 178.355 252.355C177.821 252.335 177.159 252.364 176.778 252.663C176.388 252.966 176.184 253.599 176.067 254.128C175.995 254.452 176.207 254.859 176.341 255.208C177.5 258.194 178.661 261.177 179.839 264.152C180.28 265.264 180.119 266.376 179.912 267.471C180.034 267.409 180.155 267.347 180.277 267.284C180.177 267.263 180.079 267.242 179.979 267.218C180.039 267.331 180.106 267.443 180.17 267.555ZM5.47761 46.6843C9.96623 44.9348 14.1924 43.2916 18.4136 41.6437C24.5461 39.2505 29.618 35.4017 33.8115 30.3651C34.9006 29.0557 35.9075 27.6775 36.9894 26.3636C39.9871 22.7267 40.3424 21.249 45.1848 24.5214C45.3391 24.6264 45.5233 24.6927 45.7002 24.7593C50.7324 26.6553 54.8244 30.0393 59.069 33.1826C60.129 33.9678 61.2555 34.6661 62.368 35.3789C64.5909 36.807 66.919 38.0927 69.0365 39.6609C74.2083 43.4932 78.8861 47.9186 83.471 52.415C88.328 57.1793 92.9541 62.1768 97.6819 67.0722C101.638 71.1703 104.631 76.0297 108.242 80.3995C108.479 80.6871 108.651 81.038 108.812 81.3797C109.315 82.4516 109.368 83.5872 109.082 84.7054C108.894 85.4303 108.574 86.1349 108.221 86.8C106.183 90.642 104.205 94.518 102.042 98.2875C98.8388 103.872 95.3704 109.288 90.9681 114.036C89.168 115.977 87.2733 117.831 85.4902 119.785C78.148 127.837 68.8445 132.01 58.2385 133.602C57.3183 133.739 56.3641 133.664 55.4268 133.688C53.1915 131.497 51.0984 129.308 48.8602 127.279C44.0708 122.937 40.0693 117.916 36.1698 112.805C34.7997 111.007 33.5619 109.104 32.3265 107.207C29.9546 103.566 27.6479 99.8852 25.276 96.2463C23.5228 93.5531 21.6064 90.959 20.4882 87.9037C17.4194 83.7805 15.8146 78.8381 13.0305 74.5513C12.5201 73.7662 12.0005 72.9032 11.8093 72.0056C11.2543 69.3907 10.1152 66.9969 9.17084 64.5317C7.88375 61.1705 7.17302 57.6548 6.2411 54.1968C5.99749 53.2864 5.55305 52.3954 5.50347 51.4776C5.41556 49.9901 4.9863 48.4923 5.47761 46.6843ZM127.848 135.781C127.619 136.071 127.424 136.403 127.153 136.647C126.31 137.403 125.448 138.14 124.573 138.864C117.736 144.525 110.728 150.01 105.439 157.283C105.109 157.736 104.635 158.08 104.257 158.504C102.42 160.565 100.104 161.043 97.539 160.413C96.2685 160.1 95.0377 159.577 93.8305 159.056C89.8138 157.319 86.3286 154.694 82.7049 152.302C82.5531 152.202 82.3756 152.024 82.3598 151.868C82.3249 151.523 82.2431 151.013 82.4283 150.843C83.9699 149.446 85.6475 148.269 87.5821 147.416C91.2124 145.816 94.7776 144.079 97.6653 141.233C98.1967 140.708 98.8387 140.254 99.5026 139.912C102.404 138.419 104.685 136.12 107.106 134.021C108.52 132.798 109.788 131.344 110.874 129.819C112.954 126.895 115.091 123.969 116.782 120.819C119.045 116.599 122.099 113.027 125.137 109.415C125.448 109.047 126.433 109.126 126.613 109.522C127.564 111.591 128.35 113.71 128.412 116.02C128.584 122.617 129.089 129.224 127.848 135.781ZM61.3596 137.361C62.917 136.855 64.4915 136.369 66.0482 135.834C67.6541 135.281 69.2447 134.681 70.8453 134.107C77.3769 131.758 82.9057 127.9 87.6807 122.908C88.5941 121.951 89.4832 120.969 90.4332 120.052C94.1174 116.492 97.4666 112.614 100.191 108.304C104.125 102.088 108.204 95.9361 111.186 89.1613C111.483 88.4833 111.95 87.8578 112.448 87.305C112.598 87.1378 113.285 87.1557 113.441 87.3364C115.172 89.3409 116.586 91.5571 117.865 93.8787C119.555 96.943 119.555 100.003 118.025 103.079C115.577 107.997 112.585 112.589 109.4 117.05C106.866 120.599 103.652 123.543 100.692 126.722C95.4687 132.332 89.0176 136.247 82.837 140.553C81.9202 141.192 80.8193 141.58 79.789 142.045C78.068 142.821 76.3495 143.604 74.5983 144.31C73.7403 144.656 72.8164 144.836 72.1369 145.031C67.9382 143.403 64.9628 140.428 61.579 138.066C61.4584 137.979 61.4634 137.714 61.3596 137.361ZM158.908 171.708C161.372 176.45 163.318 181.85 164.577 187.541C166.329 195.461 168.072 203.382 170.354 211.178C171.73 215.882 172.958 220.64 173.696 225.503C173.864 226.619 174.193 227.709 174.366 228.823C174.417 229.153 174.2 229.526 174.104 229.879C173.601 229.724 172.975 229.704 172.616 229.387C171.77 228.634 171.034 227.745 170.928 226.531C170.53 222.003 169.269 217.639 168.359 213.209C167.564 209.331 166.654 205.444 165.383 201.703C163.316 195.619 161.834 189.376 159.95 183.249C158.945 179.982 158.522 176.611 157.722 173.311C157.516 172.468 158.089 171.932 158.908 171.708ZM5.00801 38.9012C5.57889 38.7184 5.93146 38.5199 6.2935 38.5059C8.61009 38.418 10.7564 37.8774 12.6847 36.5016C13.4383 35.9635 14.3862 35.7023 15.228 35.2805C18.7918 33.4884 22.051 31.2731 24.9675 28.5312C27.4539 26.196 29.7176 23.677 31.787 20.971C32.3554 20.2269 33.0224 19.5466 33.7267 18.9317C33.9306 18.7535 34.4833 18.7867 34.7712 18.9309C36.3116 19.6991 36.7442 20.6828 35.67 22.0226C34.1322 23.938 32.6597 25.9061 31.1097 27.81C27.7134 31.9758 23.6052 35.2622 18.7073 37.4911C15.9586 38.7412 13.1475 39.8626 10.3179 40.9134C8.91717 41.4325 7.41228 41.6772 5.94776 42.0179C5.44626 42.135 4.92465 41.6557 4.89298 40.9744C4.86043 40.2599 4.96754 39.5394 5.00801 38.9012ZM165.195 219.134C161.812 215.393 161.406 214.906 160.924 213.004C160.366 210.816 159.823 208.61 159.48 206.381C158.642 200.967 157.4 195.662 155.724 190.442C154.689 187.216 153.856 183.922 153.08 180.623C152.74 179.175 152.608 177.637 153.195 176.17C154.43 176.19 154.705 177.13 154.889 178.033C156.178 184.315 158.125 190.418 159.889 196.572C161.499 202.189 163.265 207.76 164.633 213.445C165.028 215.097 165.347 216.728 165.195 219.134ZM49.782 167.474C49.222 167.431 48.5485 167.584 48.2527 167.317C47.5545 166.693 47.007 165.847 47.1868 164.824C47.9416 160.546 48.8131 156.293 49.2943 151.965C49.7121 148.217 50.3343 144.491 50.9114 140.763C50.9562 140.48 51.3553 140.249 51.5904 139.994C51.7871 140.276 52.1088 140.535 52.1592 140.84C52.675 143.865 52.2832 146.876 51.9244 149.88C51.6552 152.129 51.2603 154.366 50.9911 156.616C50.5637 160.178 50.1956 163.742 49.782 167.474ZM148.74 180.962C149.063 181.356 149.405 181.596 149.489 181.907C150.634 186.098 151.753 190.293 153.048 194.445C154.114 197.859 154.679 201.431 155.419 204.943C155.464 205.165 155.13 205.505 154.906 205.721C154.825 205.799 154.508 205.732 154.37 205.633C153.108 204.713 152.265 203.532 151.931 201.963C150.87 196.973 149.717 192.001 148.693 187.003C148.393 185.535 148.356 184.004 148.294 182.499C148.277 182.021 148.567 181.53 148.74 180.962ZM142.909 187.071C142.967 186.475 142.986 186.102 143.05 185.738C143.081 185.558 143.226 185.234 143.26 185.243C143.612 185.321 144.096 185.349 144.271 185.591C145.321 187.03 145.194 188.817 145.565 190.456C146.522 194.678 147.388 198.917 148.288 203.153C148.366 203.521 148.423 203.893 148.464 204.266C148.482 204.448 148.426 204.639 148.433 204.824C148.458 205.534 147.727 206.308 147.028 206.302C146.597 206.299 145.961 205.712 145.919 205.241C145.457 200.163 144.554 195.16 143.401 190.197C143.146 189.102 143.045 187.967 142.909 187.071ZM197.785 233.346C196.375 233.133 195.358 232.38 194.754 231.105C192.979 227.356 191.459 223.517 190.726 219.412C190.688 219.188 190.967 218.897 191.138 218.665C191.157 218.641 191.485 218.791 191.614 218.918C194.199 221.448 196.252 224.304 197.236 227.85C197.588 229.116 198.082 230.344 198.467 231.601C198.573 231.945 198.622 232.374 198.507 232.695C198.41 232.965 198.035 233.133 197.785 233.346ZM134.486 86.7706C134.819 88.5788 134.632 89.2539 134.14 89.3731C133.724 89.4738 132.901 89.1586 132.726 88.8007C131.328 85.9326 130.68 82.8251 130.034 79.7222C130.002 79.569 130.123 79.3717 130.206 79.2132C130.283 79.0668 130.385 78.87 130.516 78.8311C130.676 78.782 130.888 78.8476 131.061 78.9118C131.807 79.1935 132.239 79.8006 132.541 80.4869C133.598 82.8923 134.238 85.4221 134.486 86.7706ZM123.647 78.8154C123.715 78.5223 123.765 78.1705 123.894 77.845C123.939 77.7302 124.169 77.6603 124.327 77.6278C124.506 77.5925 124.798 77.5423 124.874 77.6328C126.222 79.3083 126.369 81.4268 126.964 83.3822C127.401 84.8159 128.012 86.2166 127.891 87.7522C127.869 88.0109 127.474 88.4048 127.217 88.4327C126.924 88.4663 126.576 88.1886 126.282 87.9972C126.137 87.9038 126.014 87.7151 125.967 87.5457C125.187 84.6547 124.423 81.7562 123.647 78.8154ZM150.972 94.3584C151.877 94.4607 152.595 94.7668 152.799 95.5859C153.3 97.5934 153.726 99.6171 154.155 101.641C154.23 102.001 154.205 102.395 154.167 102.768C154.116 103.262 153.873 103.498 153.562 103.387C152.64 103.056 151.688 102.507 151.496 101.586C151.001 99.2156 150.353 96.8163 150.972 94.3584ZM187.835 197.743C187.919 197.407 187.903 196.954 188.116 196.769C188.287 196.62 188.838 196.67 189.046 196.842C189.605 197.306 190.281 197.801 190.534 198.431C191.147 199.974 191.575 201.593 191.995 203.205C192.053 203.423 191.695 203.904 191.433 204.008C191.151 204.117 190.694 204.01 190.422 203.832C190.142 203.648 189.927 203.288 189.8 202.96C189.126 201.229 188.489 199.483 187.835 197.743ZM143.897 88.3507C144.085 88.0498 144.222 87.5678 144.476 87.495C144.747 87.4194 145.217 87.6489 145.436 87.892C145.79 88.2856 146.215 88.7839 146.256 89.2684C146.435 91.4619 146.499 93.6631 146.576 95.8615C146.582 96.0035 146.329 96.2942 146.26 96.277C145.95 96.1926 145.43 96.0567 145.404 95.8821C145.099 93.6919 144.698 91.5325 143.939 89.4439C143.819 89.1178 143.904 88.7177 143.897 88.3507ZM46.9634 137.827C47.7328 141.413 46.095 144.605 45.9275 148.138C45.2785 146.94 45.2467 145.79 45.5842 144.819C46.2857 142.802 46.2853 140.756 46.3388 138.687C46.3466 138.435 46.6885 138.192 46.9634 137.827ZM59.4365 174.034C59.3938 174.03 59.3512 174.029 59.3084 174.025C59.3606 172.733 59.4032 171.439 59.4837 170.148C59.4922 170.015 59.7844 169.771 59.8727 169.799C60.1283 169.883 60.5477 170.073 60.5517 170.232C60.63 172.636 60.6539 175.045 60.6801 177.45C60.6824 177.633 60.6767 177.872 60.5706 177.986C60.347 178.224 60.0338 178.571 59.7915 178.546C59.535 178.52 59.1075 178.107 59.1158 177.877C59.1634 176.592 59.3201 175.313 59.4365 174.034ZM54.4278 164.003C54.5397 164.116 54.7486 164.227 54.7881 164.382C55.4783 167.096 55.4989 169.838 55.0268 172.581C54.9958 172.757 54.5567 172.906 54.2836 172.972C54.1848 172.996 53.9133 172.754 53.8979 172.615C53.5978 169.87 53.4278 167.125 54.04 164.397C54.0741 164.249 54.2846 164.144 54.4278 164.003ZM69.3742 186.647C69.3542 185.871 69.2806 185.492 69.3569 185.144C69.414 184.877 69.6618 184.655 69.8261 184.412C70.1179 184.615 70.5573 184.755 70.6758 185.032C71.0363 185.882 71.1495 186.789 70.6791 187.656C70.6158 187.774 70.4049 187.862 70.2559 187.871C70.0903 187.88 69.8166 187.827 69.7689 187.722C69.5579 187.256 69.415 186.762 69.3742 186.647ZM166.604 111.322C167.942 112.176 168.718 113.309 168.348 114.955C168.286 115.229 167.944 115.466 167.683 115.65C167.609 115.704 167.328 115.559 167.207 115.439C166.83 115.065 166.223 114.683 166.184 114.258C166.095 113.289 165.491 112.165 166.604 111.322ZM65.0209 177.237C65.0503 178.383 65.1134 179.085 65.072 179.782C65.0375 180.375 65.3626 181.047 64.773 181.609C64.608 180.256 64.3215 178.963 65.0209 177.237ZM205.435 237.579C205.254 237.562 205.012 237.613 204.9 237.514C204.047 236.759 203.626 235.778 203.534 234.655C203.52 234.497 203.619 234.3 203.725 234.167C203.784 234.092 204.004 234.051 204.081 234.101C205.217 234.832 205.845 235.86 205.812 237.235C205.81 237.354 205.567 237.464 205.435 237.579ZM169.661 174.556C169.797 174.252 169.934 173.95 170.071 173.645C170.325 173.854 170.687 174.018 170.807 174.287C170.946 174.594 170.885 174.998 170.88 175.358C170.873 175.844 170.671 176.084 170.351 175.974C170.21 175.925 170.082 175.741 170.017 175.591C169.875 175.256 169.776 174.904 169.661 174.556ZM139.612 91.0211C139.659 90.8564 139.707 90.6941 139.758 90.5294C139.863 90.6499 140.003 90.7576 140.061 90.8959C140.124 91.0482 140.141 91.2373 140.124 91.4035C140.106 91.565 140.02 91.7212 139.965 91.8789C139.846 91.593 139.728 91.3071 139.612 91.0211ZM54.8077 160.066C54.9114 159.77 55.0152 159.474 55.1165 159.175C55.2472 159.285 55.497 159.419 55.4826 159.504C55.4291 159.818 55.2874 160.116 55.1768 160.419C55.0554 160.304 54.9316 160.186 54.8077 160.066ZM183.901 182.407C183.99 182.277 184.079 182.149 184.168 182.019C184.28 182.135 184.475 182.248 184.478 182.367C184.482 182.513 184.324 182.662 184.238 182.811C184.126 182.676 184.011 182.542 183.901 182.407ZM184.994 201.852L184.641 201.932L184.74 201.474L184.994 201.852ZM180.935 191.427L181.26 191.184L181.321 191.55L180.935 191.427Z" fill="#CB73FE"/>
<path d="M54.4267 104.277C56.505 104.223 58.5824 104.137 60.6594 104.126C62.4333 104.119 64.0727 103.579 65.4419 102.57C69.5565 99.5374 73.3215 96.1674 76.2743 91.8897C78.5078 88.6538 79.6767 85.1894 79.9167 81.339C80.0107 79.8325 79.8929 78.2888 80.1726 76.8179C80.7655 73.7093 80.0735 70.8326 79.0545 67.9477C77.7902 64.3657 75.9456 61.0638 74.1295 57.7611C72.5418 54.8719 70.1236 52.7525 67.0112 51.5485C65.4323 50.9376 63.8329 50.2704 62.1812 49.9623C55.4792 48.713 48.7251 48.0217 41.8933 48.6374C41.1442 48.704 40.3489 48.7244 39.6616 48.9884C31.1006 52.2753 24.7844 56.9282 23.4353 68.0478C22.8407 72.9424 23.1233 77.8618 23.299 82.7721C23.3181 83.3354 23.3591 83.917 23.5197 84.4529C25.4643 90.919 28.4177 96.7245 34.1298 100.751C36.1753 102.194 38.3783 103.217 40.8614 103.528C43.8578 103.901 46.8396 104.443 49.8878 104.253C51.3943 104.16 52.908 104.166 54.4205 104.127C54.4241 104.177 54.4254 104.227 54.4267 104.277ZM72.9712 82.3272L72.9829 82.3221C71.8848 85.5905 69.7741 88.2596 67.8827 91.0723C65.3387 94.8538 61.7922 97.1334 57.5229 98.4769C54.4261 99.4517 51.2611 99.7081 48.0388 99.76C46.2773 99.7886 44.6032 99.4383 43.1109 98.695C40.5893 97.4403 38.2049 95.9003 35.7757 94.4609C35.4583 94.2748 35.1248 94.0181 34.9487 93.7076C32.9414 90.1565 29.6619 87.1495 30.1191 82.5332C28.3754 77.9924 29.0061 73.2153 28.7225 68.5304C28.5617 65.8627 29.7262 63.7959 31.624 62.0631C33.3112 60.5229 35.1979 59.1884 37.3396 58.4702C41.7992 56.975 46.2878 55.5003 51.098 55.5759C53.1713 55.6079 55.2576 55.59 57.3206 55.4044C60.0737 55.1585 62.4995 56.0011 64.9193 57.1636C66.6795 58.0091 68.1073 59.1946 69.1711 60.7756C70.0084 62.0214 70.7884 63.342 71.3615 64.7248C73.334 69.5038 74.1233 74.512 73.8386 79.6663C73.7859 80.5677 73.2706 81.4407 72.9712 82.3272Z" fill="#CB73FE"/>
<path d="M36.4365 66.7054C36.4719 67.8082 35.4409 68.2444 34.9636 69.0289C34.4296 69.9095 33.6065 70.2314 32.5385 69.9651C32.2334 69.89 31.7982 70.0977 31.4976 70.2926C31.0036 70.6108 30.7057 71.0922 30.8024 71.7197C30.888 72.2884 31.0537 72.8407 31.6997 72.9994C32.4053 73.1756 33.1214 73.2969 33.8166 73.4378C34.6992 74.6042 34.3303 76.0135 34.6445 77.275C34.9191 78.3765 35.1467 79.4934 35.4965 80.5692C35.9028 81.8213 36.3797 83.0525 36.8963 84.2639C38.3227 87.6073 41.0867 89.5402 44.2253 91.0277C44.8943 91.3445 45.6684 91.6042 46.3932 91.6022C48.6597 91.5938 50.9534 91.6321 53.1883 91.3118C57.6769 90.6685 61.3477 88.4332 64.2477 84.9551C64.5993 84.5339 64.9645 83.9988 65.027 83.4808C65.6526 78.1354 65.544 72.8823 62.563 68.122C60.8885 65.4482 58.344 63.8555 55.4749 62.7187C55.3002 62.6497 55.1112 62.5764 54.9312 62.5763C51.5402 62.6088 48.132 62.2485 44.7922 63.258C41.8848 64.1378 39.1204 65.3291 36.4274 66.7175L36.4365 66.7054ZM60.8105 79.8631C59.7738 80.2592 58.8149 80.3667 58.2224 79.1526C57.2265 79.2942 56.2484 79.3951 55.9655 78.0594C55.004 78.3446 54.109 78.0762 53.2146 77.7438C48.5967 76.0242 44.2959 73.6451 39.9455 71.3668C39.5494 71.159 39.4487 70.8324 39.5582 70.3938C39.6719 69.9337 40.45 69.4258 40.8476 69.598C41.5398 69.8976 42.2915 70.1129 42.9015 70.533C45.7201 72.4717 48.7961 73.9182 51.8835 75.3478C53.0821 75.9045 54.2697 76.4946 55.4208 77.1401C55.69 77.2919 55.7961 77.7345 55.9746 78.0449C57.6877 77.9773 57.6877 77.9773 58.1421 79.2541C59.1417 78.9774 60.0128 79.1422 60.6485 80.0094L60.6667 80.1653L60.8105 79.8631ZM60.9999 74.3205C60.4345 74.3468 59.868 74.4229 59.3081 74.3876C58.7103 74.3508 58.3052 73.9775 58.0824 73.4195C57.1013 73.582 56.2336 73.4598 55.7178 72.4663C54.7951 72.4166 53.7954 72.5038 53.5501 71.2476C52.9953 71.2263 52.3688 71.3656 51.9015 71.1525C50.1975 70.3743 48.5359 69.4979 46.8836 68.6118C46.5737 68.4445 46.3606 68.0781 46.1421 67.7758C46.0856 67.6991 46.1345 67.4775 46.2104 67.3903C46.3255 67.2594 46.5409 67.0739 46.6578 67.1064C49.1778 67.8377 51.4968 68.9483 53.3897 70.8136C53.4918 70.9152 53.437 71.1771 53.456 71.3637C53.9653 71.3673 54.4959 71.2779 54.9774 71.3958C55.5209 71.5287 55.7366 71.9992 55.6351 72.5656C57.3101 72.3047 57.3101 72.3047 57.9905 73.5308C59.2285 73.2219 60.0304 74.1961 61.0272 74.5519C60.6726 74.2105 60.5716 74.2438 60.7219 74.6545C60.8115 74.5456 60.9057 74.4319 60.9999 74.3205ZM44.4529 84.0156C45.4138 84.3557 46.3746 84.6935 47.3089 85.0129C46.9964 85.2033 47.026 85.2476 47.3928 85.1434C47.3222 85.0671 47.2516 84.9907 47.1809 84.912C46.0676 85.0045 45.2652 84.1937 44.3183 83.9385C44.7421 83.9324 44.7617 83.8655 44.377 83.7357C44.4007 83.8298 44.4268 83.9215 44.4529 84.0156ZM39.1253 75.9569C39.2447 75.8117 39.4291 75.5204 39.4723 75.5406C44.2351 77.742 48.888 80.1808 53.7877 82.085C55.1825 82.6271 56.5465 83.2577 57.8899 83.9197C58.0338 83.9894 57.984 84.5425 57.9376 84.8588C57.9217 84.9776 57.6446 85.16 57.5091 85.1421C56.9554 85.0711 56.3624 85.0389 55.8709 84.8075C52.1331 83.0464 48.3998 81.2781 44.7003 79.4402C42.8626 78.528 41.097 77.4743 39.3135 76.4589C39.1909 76.391 39.1842 76.1283 39.1253 75.9569ZM50.8454 86.6797L50.4276 86.9202L50.3452 86.5694L50.8454 86.6797ZM41.3587 82.598C41.2273 82.554 41.0959 82.51 40.9645 82.466C41.1979 82.4268 41.4338 82.3876 41.6673 82.3485C41.5652 82.4316 41.4608 82.5148 41.3587 82.598Z" fill="#CB73FE"/>
<path d="M32.2387 81.072C31.6202 81.1518 30.8843 82.0116 30.8888 82.6486C30.895 83.539 31.9408 84.327 32.8549 84.133C33.5003 83.9957 34.2322 83.1645 34.2403 82.5555C34.2498 81.7263 33.202 80.9502 32.2387 81.072Z" fill="#CB73FE"/>
<path d="M64.2058 59.7263C63.2463 59.8077 62.487 60.7746 62.7081 61.6359C62.8791 62.3018 63.6483 62.9263 64.3143 62.94C65.184 62.958 65.91 61.9896 65.7638 61.0009C65.663 60.3 64.8889 59.6685 64.2058 59.7263Z" fill="#CB73FE"/>
<path d="M72.9708 82.328C72.4635 82.5921 71.9673 82.728 71.4681 82.2908C71.0514 81.9272 70.6456 81.5279 70.1697 81.2606C69.6194 80.9502 68.6055 81.4049 68.2831 82.0408C68.0193 82.5616 67.9666 83.0935 68.3302 83.6029C68.8216 84.2914 69.7205 84.6165 70.2747 84.2447C71.1923 83.6337 72.0777 82.9715 72.9802 82.3254L72.9708 82.328Z" fill="#CB73FE"/>
<path d="M57.6722 59.7204C57.697 58.7486 56.8933 57.7957 56.0794 57.8308C55.2584 57.8661 54.5143 58.8705 54.5834 59.8091C54.6304 60.4403 55.4616 61.0798 56.1743 61.0686C56.8776 61.0601 57.6865 60.369 57.6722 59.7204Z" fill="#CB73FE"/>
<path d="M36.4276 66.7203C37.098 66.0754 37.8047 65.4651 38.429 64.7764C38.9887 64.1605 38.6526 62.7811 37.8997 62.3314C37.3127 61.9793 36.4415 62.1817 35.9033 62.809C35.5078 63.2715 35.4647 63.8079 35.6941 64.3492C36.0168 65.1107 37.2276 65.5889 36.4366 66.7035L36.4276 66.7203Z" fill="#CB73FE"/>
<path d="M69.073 68.3999C68.3301 68.5255 67.6773 69.3002 67.7581 69.9566C67.8719 70.8869 68.9721 71.5787 69.8261 71.2607C70.5605 70.9861 70.9192 70.29 70.7489 69.4678C70.5947 68.7185 69.8795 68.2631 69.073 68.3999Z" fill="#CB73FE"/>
<path d="M44.9393 95.4576C44.9735 96.1436 45.7559 96.7299 46.4788 96.6569C47.2159 96.5812 47.9712 95.9223 47.98 95.3441C47.9949 94.446 47.1975 93.5546 46.3485 93.5148C45.5517 93.4784 44.8541 94.4437 44.9393 95.4576Z" fill="#CB73FE"/>
<path d="M59.389 95.6176C60.2433 95.5862 61.0691 94.447 60.8555 93.5998C60.6948 92.9668 59.8456 92.368 59.1669 92.4091C58.5 92.4499 57.7924 93.1194 57.6685 93.826C57.528 94.6302 58.5087 95.6496 59.389 95.6176Z" fill="#CB73FE"/>
<path d="M38.1487 92.6168C38.7654 92.5583 39.3856 91.8058 39.3982 91.0996C39.4172 90.1754 38.5181 89.476 37.588 89.687C36.8485 89.8552 36.2288 90.5367 36.2657 91.1444C36.3181 91.984 37.2367 92.7041 38.1487 92.6168Z" fill="#CB73FE"/>
<path d="M45.0576 59.5448C45.0867 60.2167 45.8038 61.0273 46.3944 61.0572C47.279 61.1008 48.285 60.246 48.2812 59.4503C48.2778 58.6735 47.2253 57.8999 46.3032 57.9638C45.6766 58.0083 45.0212 58.8636 45.0576 59.5448Z" fill="#CB73FE"/>
</svg>
