<svg width="149" height="261" viewBox="0 0 149 261" fill="none" xmlns="http://www.w3.org/2000/svg">
<path d="M158.591 202.461C154.675 203.254 150.612 201.215 148.993 197.392C147.144 193.027 149.183 187.988 153.549 186.139C164.401 181.542 173.597 173.895 180.144 164.025C189.022 150.639 192.157 134.596 188.971 118.852C185.784 103.107 176.657 89.5461 163.272 80.6661C149.887 71.7861 133.845 68.6505 118.102 71.8369C102.358 75.0233 88.7985 84.1504 79.9196 97.5364C71.0407 110.922 67.9059 126.965 71.0926 142.71C74.2792 158.454 83.4059 172.015 96.7912 180.896C104.205 185.815 112.386 188.968 121.107 190.271C125.796 190.971 129.03 195.34 128.33 200.029C127.63 204.718 123.261 207.952 118.573 207.252C107.347 205.576 96.8256 201.522 87.3012 195.204C70.0943 183.789 58.3619 166.355 54.2657 146.116C50.1695 125.877 54.1996 105.254 65.6132 88.0461C77.0268 70.8381 94.4577 59.1055 114.696 55.0096C134.934 50.9137 155.555 54.9441 172.762 66.3597C189.969 77.7748 201.701 95.2074 205.797 115.447C209.893 135.687 205.864 156.31 194.45 173.517C186.037 186.203 174.208 196.034 160.246 201.949C159.702 202.179 159.148 202.349 158.591 202.461Z" fill="#CB73FE"/>
<path d="M145.353 206.56C136.567 208.338 127.509 208.586 118.573 207.252C113.884 206.552 110.65 202.183 111.35 197.494C112.049 192.805 116.418 189.571 121.107 190.272C132.083 191.91 143.301 190.481 153.549 186.14C157.914 184.291 162.952 186.331 164.801 190.697C166.65 195.062 164.611 200.1 160.246 201.949C155.424 203.991 150.433 205.532 145.353 206.56Z" fill="white"/>
<path d="M236.796 156.136C236.512 156.194 236.214 156.194 235.913 156.129C234.755 155.876 234.022 154.732 234.274 153.574C243.735 110.245 225.963 66.4021 188.998 41.8798C165.254 26.1273 136.796 20.5647 108.868 26.2173C80.9408 31.8699 56.8859 48.0604 41.135 71.8073C22.9838 99.1733 18.4398 132.791 28.6682 164.039C29.0372 165.166 28.4227 166.378 27.2965 166.747C26.1734 167.113 24.9583 166.501 24.5894 165.375C13.9493 132.87 18.6768 97.9014 37.5583 69.4347C53.9423 44.7329 78.9649 27.891 108.016 22.0105C137.068 16.1307 166.67 21.9168 191.37 38.3035C210.377 50.9123 224.841 68.7485 233.197 89.8834C241.364 110.537 243.186 132.878 238.467 154.49C238.28 155.348 237.604 155.973 236.796 156.136Z" fill="#5E51FE"/>
<path d="M50.069 206.271C49.3547 206.416 48.585 206.193 48.0575 205.616C43.4104 200.532 39.2195 194.98 35.6007 189.113C34.9787 188.105 35.2917 186.783 36.3007 186.16C37.3085 185.537 38.6313 185.851 39.2535 186.861C42.731 192.499 46.7586 197.835 51.2247 202.721C52.0243 203.596 51.9638 204.953 51.0886 205.753C50.7913 206.024 50.4375 206.197 50.069 206.271Z" fill="#5E51FE"/>
<path d="M152.102 239.517C137.988 242.374 123.347 242.515 109.163 239.806C107.999 239.583 107.236 238.459 107.457 237.295C107.68 236.13 108.803 235.368 109.968 235.589C132.759 239.944 156.78 236.64 177.608 226.289C178.668 225.76 179.957 226.193 180.485 227.256C181.012 228.318 180.58 229.605 179.518 230.132C170.817 234.457 161.578 237.6 152.102 239.517Z" fill="#CB73FE"/>
<path d="M149.605 227.494C123.775 232.722 97.4545 227.577 75.492 213.007C53.9067 198.688 39.0195 176.857 33.5737 151.536L34.098 151.423C39.5146 176.607 54.3205 198.318 75.7885 212.561C97.6313 227.051 123.809 232.168 149.499 226.969C175.189 221.769 197.317 206.875 211.805 185.031C241.715 139.938 229.364 78.916 184.274 49.0029C162.432 34.512 136.254 29.3951 110.564 34.5951C84.8739 39.7946 62.7468 54.6885 48.2578 76.5326C44.2462 82.5805 40.9088 89.0521 38.3373 95.7684L37.8361 95.5768C40.4215 88.8242 43.7772 82.3171 47.8108 76.2366C62.3784 54.2729 84.6273 39.2977 110.458 34.07C136.288 28.8418 162.609 33.9867 184.571 48.5568C206.533 63.1264 221.508 85.3774 226.736 111.21C231.965 137.043 226.821 163.366 212.253 185.329C197.685 207.291 175.436 222.266 149.605 227.494Z" fill="#5E51FE"/>
<path d="M133.218 132.896C132.051 134.657 129.677 135.137 127.917 133.969C126.156 132.801 125.676 130.427 126.844 128.667C128.012 126.906 130.385 126.426 132.145 127.594C133.906 128.762 134.386 131.136 133.218 132.896Z" fill="#5E51FE"/>
</svg>
