<svg width="289" height="235" viewBox="0 0 289 235" fill="none" xmlns="http://www.w3.org/2000/svg">
<g clip-path="url(#clip0_1035_1589)">
<path d="M115.96 228.46H112.569C112.258 228.46 112.004 228.206 112.004 227.893C112.004 227.581 112.258 227.326 112.569 227.326H115.96C116.272 227.326 116.526 227.581 116.526 227.893C116.526 228.206 116.272 228.46 115.96 228.46Z" fill="#341E61"/>
<path d="M105.556 228.46H98.5429C98.2315 228.46 97.9777 228.205 97.9777 227.893C97.9777 227.581 98.2315 227.326 98.5429 227.326H105.556C105.867 227.326 106.121 227.581 106.121 227.893C106.121 228.205 105.867 228.46 105.556 228.46ZM91.5301 228.46H84.9565C84.8035 228.46 84.6505 228.456 84.4975 228.453C84.1861 228.442 83.9413 228.178 83.9521 227.866C83.9629 227.554 84.2365 227.306 84.5371 227.319C84.6757 227.324 84.8161 227.326 84.9565 227.326H91.5301C91.8415 227.326 92.0953 227.581 92.0953 227.893C92.0953 228.205 91.8415 228.46 91.5301 228.46ZM77.9581 226.255C77.8465 226.255 77.7331 226.223 77.6359 226.153C75.6109 224.733 74.0467 222.774 73.1125 220.488C72.9955 220.2 73.1323 219.867 73.4221 219.748C73.7101 219.629 74.0413 219.768 74.1601 220.057C75.0115 222.141 76.4371 223.928 78.2857 225.223C78.5413 225.401 78.6043 225.755 78.4261 226.012C78.3163 226.169 78.1399 226.254 77.9617 226.254L77.9581 226.255ZM72.7273 213.925C72.4159 213.925 72.1621 213.671 72.1621 213.358V206.324C72.1621 206.011 72.4159 205.757 72.7273 205.757C73.0387 205.757 73.2925 206.011 73.2925 206.324V213.358C73.2925 213.671 73.0387 213.925 72.7273 213.925ZM72.7273 199.856C72.4159 199.856 72.1621 199.602 72.1621 199.289V192.255C72.1621 191.942 72.4159 191.688 72.7273 191.688C73.0387 191.688 73.2925 191.942 73.2925 192.255V199.289C73.2925 199.602 73.0387 199.856 72.7273 199.856ZM72.7273 185.787C72.4159 185.787 72.1621 185.533 72.1621 185.22V178.186C72.1621 177.873 72.4159 177.619 72.7273 177.619C73.0387 177.619 73.2925 177.873 73.2925 178.186V185.22C73.2925 185.533 73.0387 185.787 72.7273 185.787ZM72.7273 171.718C72.4159 171.718 72.1621 171.464 72.1621 171.151V164.117C72.1621 163.805 72.4159 163.55 72.7273 163.55C73.0387 163.55 73.2925 163.805 73.2925 164.117V171.151C73.2925 171.464 73.0387 171.718 72.7273 171.718Z" fill="#341E61"/>
<path d="M72.7273 157.635C72.4159 157.635 72.1621 157.38 72.1621 157.068V153.666C72.1621 153.354 72.4159 153.099 72.7273 153.099C73.0387 153.099 73.2925 153.354 73.2925 153.666V157.068C73.2925 157.38 73.0387 157.635 72.7273 157.635Z" fill="#341E61"/>
<path d="M138.689 21.7046H9.12123C4.50655 21.7046 0.765625 25.4571 0.765625 30.086V169.279C0.765625 173.908 4.50655 177.66 9.12123 177.66H138.689C143.303 177.66 147.044 173.908 147.044 169.279V30.086C147.044 25.4571 143.303 21.7046 138.689 21.7046Z" fill="white"/>
<path d="M138.69 178.227H9.12197C4.20257 178.227 0.201172 174.214 0.201172 169.279V30.0861C0.201172 25.1515 4.20257 21.1377 9.12197 21.1377H138.69C143.609 21.1377 147.61 25.1515 147.61 30.0861V169.277C147.61 174.212 143.609 178.226 138.69 178.226V178.227ZM9.12197 22.2716C4.82717 22.2716 1.33157 25.778 1.33157 30.0861V169.277C1.33157 173.587 4.82717 177.092 9.12197 177.092H138.69C142.986 177.092 146.48 173.585 146.48 169.277V30.0861C146.48 25.7762 142.984 22.2716 138.69 22.2716H9.12197Z" fill="#341E61"/>
<path d="M104.498 51.7169H67.9414V67.624H104.498V51.7169Z" fill="#F1D9FF"/>
<path d="M132.015 76.0666H67.9422C67.6308 76.0666 67.377 75.812 67.377 75.4997C67.377 75.1873 67.6308 74.9327 67.9422 74.9327H132.015C132.326 74.9327 132.58 75.1873 132.58 75.4997C132.58 75.812 132.326 76.0666 132.015 76.0666Z" fill="#341E61"/>
<path d="M132.015 85.8835H67.9422C67.6308 85.8835 67.377 85.6289 67.377 85.3166C67.377 85.0042 67.6308 84.7496 67.9422 84.7496H132.015C132.326 84.7496 132.58 85.0042 132.58 85.3166C132.58 85.6289 132.326 85.8835 132.015 85.8835Z" fill="#341E61"/>
<path d="M132.015 95.6986H67.9422C67.6308 95.6986 67.377 95.444 67.377 95.1316C67.377 94.8193 67.6308 94.5647 67.9422 94.5647H132.015C132.326 94.5647 132.58 94.8193 132.58 95.1316C132.58 95.444 132.326 95.6986 132.015 95.6986Z" fill="#341E61"/>
<path d="M132.014 105.515H14.3894C14.078 105.515 13.8242 105.261 13.8242 104.948C13.8242 104.636 14.078 104.381 14.3894 104.381H132.014C132.325 104.381 132.579 104.636 132.579 104.948C132.579 105.261 132.325 105.515 132.014 105.515Z" fill="#341E61"/>
<path d="M132.014 115.332H14.3894C14.078 115.332 13.8242 115.078 13.8242 114.765C13.8242 114.453 14.078 114.198 14.3894 114.198H132.014C132.325 114.198 132.579 114.453 132.579 114.765C132.579 115.078 132.325 115.332 132.014 115.332Z" fill="#341E61"/>
<path d="M132.014 125.149H14.3894C14.078 125.149 13.8242 124.895 13.8242 124.582C13.8242 124.27 14.078 124.015 14.3894 124.015H132.014C132.325 124.015 132.579 124.27 132.579 124.582C132.579 124.895 132.325 125.149 132.014 125.149Z" fill="#341E61"/>
<path d="M132.014 134.965H14.3894C14.078 134.965 13.8242 134.71 13.8242 134.398C13.8242 134.085 14.078 133.831 14.3894 133.831H132.014C132.325 133.831 132.579 134.085 132.579 134.398C132.579 134.71 132.325 134.965 132.014 134.965Z" fill="#341E61"/>
<path d="M132.014 144.781H14.3894C14.078 144.781 13.8242 144.526 13.8242 144.214C13.8242 143.902 14.078 143.647 14.3894 143.647H132.014C132.325 143.647 132.579 143.902 132.579 144.214C132.579 144.526 132.325 144.781 132.014 144.781Z" fill="#341E61"/>
<path d="M132.014 154.598H14.3894C14.078 154.598 13.8242 154.344 13.8242 154.031C13.8242 153.719 14.078 153.464 14.3894 153.464H132.014C132.325 153.464 132.579 153.719 132.579 154.031C132.579 154.344 132.325 154.598 132.014 154.598Z" fill="#341E61"/>
<path d="M132.014 164.415H14.3894C14.078 164.415 13.8242 164.16 13.8242 163.848C13.8242 163.535 14.078 163.281 14.3894 163.281H132.014C132.325 163.281 132.579 163.535 132.579 163.848C132.579 164.16 132.325 164.415 132.014 164.415Z" fill="#341E61"/>
<path d="M147.044 37.0195V30.088C147.044 25.4585 143.302 21.7065 138.689 21.7065H9.12123C4.50603 21.7065 0.765625 25.4585 0.765625 30.088V37.0195H147.044Z" fill="#E6F3FC"/>
<path d="M147.045 37.5865H0.766372C0.454972 37.5865 0.201172 37.332 0.201172 37.0196V30.088C0.201172 25.1534 4.20257 21.1396 9.12197 21.1396H138.688C143.607 21.1396 147.609 25.1534 147.609 30.088V37.0196C147.609 37.332 147.355 37.5865 147.043 37.5865H147.045ZM1.33157 36.4526H146.48V30.088C146.48 25.7781 142.984 22.2717 138.69 22.2717H9.12197C4.82537 22.2717 1.33157 25.7781 1.33157 30.088V36.4526Z" fill="#341E61"/>
<path d="M8.01367 29.7703C8.01367 30.9421 8.96047 31.8937 10.1305 31.8937C11.3005 31.8937 12.2473 30.9421 12.2473 29.7703C12.2473 28.5985 11.2987 27.647 10.1305 27.647C8.96227 27.647 8.01367 28.5985 8.01367 29.7703Z" fill="#341E61"/>
<path d="M14.3008 29.7703C14.3008 30.9421 15.2494 31.8937 16.4176 31.8937C17.5858 31.8937 18.5344 30.9421 18.5344 29.7703C18.5344 28.5985 17.5858 27.647 16.4176 27.647C15.2494 27.647 14.3008 28.5985 14.3008 29.7703Z" fill="#341E61"/>
<path d="M20.5879 29.7703C20.5879 30.9421 21.5365 31.8937 22.7047 31.8937C23.8729 31.8937 24.8215 30.9421 24.8215 29.7703C24.8215 28.5985 23.8729 27.647 22.7047 27.647C21.5365 27.647 20.5879 28.5985 20.5879 29.7703Z" fill="#341E61"/>
<path d="M183.945 162.221L162.716 205.248C161.186 208.348 158.849 210.872 156.031 212.625C153.212 214.378 149.92 215.355 146.474 215.355C140.446 215.355 134.809 212.347 131.448 207.328L102.254 148.37L85.0008 122.461C84.0594 120.926 84.1566 118.855 85.3626 117.614C86.9898 115.944 89.5602 116.338 90.759 118.295C89.6898 116.549 87.4506 112.913 90.5412 111.105C92.2602 110.107 94.3842 110.441 95.4768 112.201L93.4878 108.989C92.1918 106.888 93.1116 103.894 95.6514 103.154C97.1292 102.722 98.688 103.41 99.525 104.764L99.5322 104.788L101.235 107.532C100.308 105.393 101.462 102.603 103.993 102.045C105.447 101.713 106.925 102.415 107.738 103.715H107.746L120.112 123.611L123.465 118.1C125.078 115.462 128.62 114.782 131.075 116.686C132.01 117.405 132.65 118.387 132.944 119.46C133.282 120.691 133.185 122.031 132.589 123.248L129.65 129.212C128.429 131.669 128.203 134.459 128.912 137.059V137.073L143.902 171.558L154.166 159.258L183.94 162.221H183.945Z" fill="#FFC8AC"/>
<path d="M146.476 215.922C140.245 215.922 134.452 212.827 130.98 207.644L101.75 148.623L84.5329 122.777C83.4115 120.951 83.5969 118.622 84.9613 117.221C85.8325 116.327 87.0205 115.89 88.2139 116.024C88.4785 116.053 88.7377 116.11 88.9861 116.19C88.5325 115.112 88.2391 113.913 88.5145 112.815C88.7431 111.9 89.3299 111.16 90.2569 110.618C91.3135 110.004 92.4745 109.852 93.5167 110.112L93.0073 109.291C92.2693 108.092 92.1325 106.581 92.6437 105.246C93.1387 103.955 94.1755 102.995 95.4913 102.61C97.1959 102.114 99.0085 102.859 100.004 104.466C100.018 104.49 100.029 104.513 100.04 104.537L100.423 105.154C100.504 104.697 100.65 104.25 100.864 103.829C101.484 102.612 102.551 101.781 103.869 101.491C105.487 101.121 107.206 101.865 108.169 103.343C108.189 103.365 108.205 103.388 108.221 103.414L120.103 122.529L122.979 117.802C123.838 116.398 125.254 115.423 126.867 115.126C128.473 114.832 130.129 115.237 131.418 116.235C132.418 117.004 133.155 118.097 133.486 119.308C133.869 120.706 133.731 122.192 133.093 123.495L130.154 129.461C129.018 131.748 128.77 134.392 129.456 136.907L144.054 170.489L153.73 158.892C153.851 158.747 154.029 158.673 154.22 158.691L183.994 161.654C184.179 161.672 184.341 161.78 184.433 161.943C184.523 162.105 184.527 162.302 184.446 162.468L163.216 205.495C161.67 208.629 159.285 211.26 156.324 213.104C153.365 214.945 149.958 215.919 146.471 215.919L146.476 215.922ZM87.7801 117.132C87.0331 117.132 86.3311 117.438 85.7713 118.012C84.7813 119.03 84.6589 120.814 85.4869 122.163L102.729 148.055L131.959 207.075C135.183 211.881 140.625 214.788 146.48 214.788C149.758 214.788 152.958 213.875 155.737 212.145C158.52 210.413 160.759 207.942 162.214 204.997L183.079 162.705L154.416 159.852L144.345 171.92C144.219 172.07 144.023 172.146 143.832 172.117C143.638 172.09 143.472 171.962 143.395 171.783L128.404 137.299C128.385 137.252 128.37 137.205 128.363 137.154C127.621 134.386 127.902 131.478 129.155 128.957L132.094 122.995C132.609 121.942 132.721 120.74 132.409 119.61C132.143 118.635 131.551 117.757 130.741 117.134C129.688 116.318 128.388 116.002 127.083 116.242C125.785 116.481 124.646 117.266 123.955 118.394L120.601 123.905C120.499 124.073 120.317 124.176 120.121 124.176H120.117C119.923 124.176 119.741 124.075 119.637 123.909L107.312 104.08C107.296 104.06 107.28 104.038 107.265 104.015C106.565 102.896 105.3 102.327 104.124 102.596C103.138 102.814 102.342 103.434 101.88 104.344C101.404 105.277 101.359 106.384 101.759 107.305C101.878 107.577 101.766 107.895 101.503 108.032C101.239 108.171 100.917 108.081 100.76 107.83L99.0571 105.086C99.0427 105.064 99.0319 105.041 99.0211 105.017C98.2939 103.88 97.0141 103.349 95.8135 103.697C94.8271 103.986 94.0783 104.679 93.7057 105.651C93.3205 106.657 93.4213 107.794 93.9739 108.691L95.9629 111.903C96.1285 112.169 96.0475 112.519 95.7811 112.683C95.5129 112.85 95.1673 112.767 95.0017 112.501C94.1215 111.084 92.3665 110.703 90.8275 111.597C90.1651 111.985 89.7673 112.472 89.6125 113.09C89.2129 114.684 90.5287 116.833 91.2361 117.986C91.2397 117.99 91.2415 117.995 91.2433 117.999C91.4053 118.266 91.3225 118.615 91.0579 118.779C90.7915 118.943 90.4441 118.86 90.2803 118.593C90.2803 118.591 90.2767 118.589 90.2767 118.588C89.7763 117.775 88.9807 117.252 88.0897 117.15C87.9853 117.14 87.8827 117.132 87.7801 117.132Z" fill="#341E61"/>
<path d="M100.352 120.637C100.163 120.637 99.978 120.542 99.8718 120.37L94.9956 112.492C94.83 112.227 94.9128 111.877 95.1774 111.712C95.4438 111.546 95.7912 111.629 95.955 111.895L100.831 119.772C100.997 120.038 100.914 120.388 100.649 120.552C100.556 120.61 100.453 120.637 100.352 120.637Z" fill="#341E61"/>
<path d="M106.475 116.506C106.286 116.506 106.103 116.412 105.995 116.239L100.766 107.848C100.6 107.583 100.681 107.232 100.946 107.066C101.208 106.9 101.559 106.981 101.725 107.247L106.954 115.637C107.12 115.903 107.039 116.253 106.774 116.419C106.68 116.477 106.578 116.506 106.475 116.506Z" fill="#341E61"/>
<path d="M94.3421 124.69C94.1513 124.69 93.9659 124.595 93.8597 124.421L89.0645 116.621C88.9007 116.354 88.9835 116.006 89.2499 115.841C89.5145 115.677 89.8637 115.76 90.0275 116.026L94.8227 123.826C94.9865 124.093 94.9037 124.441 94.6373 124.606C94.5455 124.663 94.4429 124.69 94.3421 124.69Z" fill="#341E61"/>
<path d="M114.173 132.341C114.163 132.341 114.152 132.341 114.141 132.341C113.83 132.323 113.592 132.056 113.608 131.743C113.95 125.622 119.647 123.192 119.89 123.091C120.182 122.97 120.508 123.109 120.628 123.398C120.747 123.687 120.61 124.019 120.322 124.138C120.27 124.16 115.037 126.408 114.737 131.806C114.721 132.108 114.47 132.341 114.173 132.341Z" fill="#341E61"/>
<path d="M147.578 178.228C147.385 178.228 147.198 178.13 147.094 177.953L143.425 171.848C143.263 171.579 143.35 171.231 143.618 171.07C143.884 170.908 144.234 170.994 144.394 171.263L148.062 177.368C148.224 177.637 148.138 177.984 147.87 178.146C147.778 178.202 147.679 178.228 147.58 178.228H147.578Z" fill="#341E61"/>
<path d="M190.854 141.278L175.111 141.26C170.71 141.392 166.473 142.97 163.055 145.754L147.35 165.524L175.791 180.069L190.854 141.278Z" fill="#F1D9FF"/>
<path d="M175.788 180.636C175.7 180.636 175.612 180.615 175.531 180.575L147.089 166.029C146.938 165.952 146.83 165.811 146.794 165.645C146.758 165.479 146.799 165.305 146.904 165.172L162.609 145.402C162.803 145.159 163.158 145.117 163.404 145.312C163.647 145.507 163.689 145.865 163.494 146.108L148.22 165.336L175.497 179.286L185.625 154.477C185.744 154.187 186.074 154.049 186.363 154.167C186.653 154.286 186.79 154.616 186.673 154.907L176.312 180.286C176.251 180.432 176.134 180.548 175.985 180.602C175.922 180.625 175.855 180.638 175.788 180.638V180.636Z" fill="#341E61"/>
<path d="M239.47 233.451L244.715 159.242C245.432 151.991 240.462 145.409 233.311 144.136C233.311 144.136 214.558 139.897 208.181 139.662C203.099 139.474 187.949 141.746 187.949 141.746C181.96 142.363 177.046 146.778 175.779 152.682L158.463 233.451H239.47Z" fill="#F1D9FF"/>
<path d="M158.464 234.02C158.425 234.02 158.385 234.016 158.345 234.007C158.039 233.942 157.845 233.64 157.912 233.333L174.063 157.996C174.13 157.689 174.434 157.496 174.734 157.561C175.04 157.626 175.235 157.928 175.168 158.235L159.017 233.572C158.959 233.837 158.725 234.02 158.464 234.02Z" fill="#341E61"/>
<path d="M287.636 233.99H8.80739C8.49599 233.99 8.24219 233.736 8.24219 233.424C8.24219 233.111 8.49599 232.857 8.80739 232.857H287.636C287.948 232.857 288.202 233.111 288.202 233.424C288.202 233.736 287.948 233.99 287.636 233.99Z" fill="#341E61"/>
<path d="M269.577 228.422C264.222 234.084 255.997 235.957 248.729 233.171L213.688 219.732C209.453 221.281 200.251 220.859 200.251 220.859C197.078 222.355 193.296 220.752 193.296 220.752C189.513 222.74 187.268 220.517 187.268 220.517C183.477 220.427 181.985 218.582 181.985 218.582C178.066 221.568 175.564 218.771 175.564 218.771C172.317 221.342 170.078 219.912 169.709 217.396C169.333 214.886 178.135 201.786 183.907 198.731C189.694 195.669 206.847 197.5 206.847 197.5L213.516 198.112L240.625 203.426L228.972 174.082L254.768 165.791L273.195 207.266C276.366 214.404 274.937 222.754 269.577 228.424V228.422Z" fill="#FFC8AC"/>
<path d="M255.627 235.02C253.247 235.02 250.844 234.588 248.528 233.7L213.681 220.335C209.558 221.74 201.555 221.478 200.365 221.429C197.478 222.717 194.249 221.709 193.329 221.372C189.927 223.044 187.682 221.586 187.052 221.077C184.216 220.962 182.61 219.904 181.933 219.32C178.767 221.491 176.43 220.194 175.539 219.501C173.563 220.924 172.125 220.83 171.248 220.48C170.13 220.034 169.367 218.939 169.153 217.477C168.73 214.664 177.708 201.371 183.647 198.23C189.516 195.124 206.201 196.859 206.908 196.935L213.57 197.547L239.72 202.67L228.45 174.291C228.393 174.145 228.398 173.983 228.463 173.84C228.53 173.697 228.652 173.591 228.801 173.542L254.597 165.251C254.871 165.162 255.168 165.296 255.285 165.56L273.711 207.035C276.987 214.409 275.526 222.957 269.987 228.812C266.164 232.855 260.958 235.02 255.629 235.02H255.627ZM213.689 219.165C213.757 219.165 213.825 219.178 213.89 219.203L248.931 232.642C256.008 235.356 263.952 233.546 269.166 228.032C274.39 222.509 275.767 214.449 272.678 207.496L254.457 166.486L229.719 174.438L241.148 203.217C241.225 203.41 241.191 203.628 241.058 203.789C240.926 203.948 240.716 204.024 240.514 203.984L213.404 198.67L206.791 198.065C206.613 198.045 189.736 196.289 184.167 199.234C178.401 202.283 169.947 215.197 170.264 217.311C170.418 218.363 170.926 219.134 171.659 219.425C172.587 219.795 173.846 219.403 175.21 218.326C175.446 218.14 175.781 218.168 175.98 218.392C176.069 218.488 178.205 220.749 181.638 218.131C181.879 217.946 182.226 217.986 182.419 218.224C182.473 218.288 183.83 219.868 187.276 219.951C187.42 219.954 187.556 220.012 187.659 220.113C187.74 220.189 189.686 222.007 193.028 220.248C193.178 220.171 193.354 220.162 193.509 220.229C193.545 220.243 197.107 221.711 200.005 220.344C200.09 220.304 200.183 220.286 200.271 220.29C200.363 220.294 209.408 220.691 213.489 219.198C213.552 219.174 213.617 219.163 213.683 219.163L213.689 219.165Z" fill="#341E61"/>
<path d="M175.564 219.335C175.449 219.335 175.332 219.299 175.231 219.227C174.979 219.042 174.925 218.687 175.109 218.434L178.896 213.236C179.078 212.983 179.432 212.927 179.686 213.113C179.938 213.297 179.992 213.653 179.809 213.905L176.021 219.104C175.912 219.255 175.739 219.337 175.564 219.337V219.335Z" fill="#341E61"/>
<path d="M181.984 218.582C181.984 218.582 179.54 215.307 179.286 213.685C178.872 211.047 183.946 206.405 183.946 206.405" fill="#FFC8AC"/>
<path d="M181.985 219.149C181.812 219.149 181.643 219.071 181.531 218.921C181.274 218.575 178.995 215.484 178.727 213.772C178.279 210.914 183.022 206.481 183.564 205.984C183.796 205.773 184.152 205.789 184.363 206.021C184.573 206.252 184.557 206.611 184.327 206.822C182.979 208.057 179.544 211.681 179.845 213.595C180.036 214.81 181.782 217.36 182.437 218.241C182.624 218.492 182.574 218.847 182.323 219.035C182.223 219.111 182.104 219.149 181.985 219.149Z" fill="#341E61"/>
<path d="M187.266 220.515C187.266 220.515 184.802 219.051 184.739 215.976C184.678 212.901 188.467 206.087 188.467 206.087" fill="#FFC8AC"/>
<path d="M187.265 221.081C187.168 221.081 187.069 221.055 186.979 221.001C186.867 220.935 184.243 219.337 184.175 215.985C184.11 212.793 187.818 206.091 187.974 205.807C188.127 205.535 188.469 205.436 188.743 205.589C189.017 205.741 189.114 206.087 188.961 206.36C188.923 206.427 185.246 213.077 185.303 215.962C185.359 218.669 187.465 219.972 187.555 220.026C187.821 220.187 187.91 220.535 187.749 220.803C187.643 220.98 187.456 221.079 187.263 221.079L187.265 221.081Z" fill="#341E61"/>
<path d="M193.302 220.754C193.302 220.754 191.312 219.708 191.312 217.193C191.312 214.678 194.814 209.651 194.814 209.651" fill="#FFC8AC"/>
<path d="M193.3 221.321C193.212 221.321 193.122 221.299 193.039 221.256C192.946 221.207 190.748 220.017 190.748 217.193C190.748 214.532 194.204 209.538 194.35 209.327C194.528 209.07 194.879 209.007 195.136 209.186C195.392 209.365 195.455 209.718 195.277 209.975C194.332 211.333 191.877 215.278 191.877 217.192C191.877 219.315 193.497 220.214 193.565 220.252C193.839 220.4 193.945 220.743 193.797 221.018C193.696 221.209 193.5 221.319 193.299 221.319L193.3 221.321Z" fill="#341E61"/>
<path d="M200.336 220.754C200.336 220.754 204.582 217.887 205.183 215.789C205.785 213.691 205.578 212.028 203.691 212.672C201.807 213.317 200.75 215.103 200.75 215.103" fill="#FFC8AC"/>
<path d="M200.336 221.321C200.154 221.321 199.976 221.232 199.866 221.07C199.692 220.81 199.76 220.458 200.019 220.283C201.153 219.517 204.193 217.188 204.638 215.631C205.029 214.265 204.958 213.42 204.715 213.189C204.534 213.017 204.109 213.127 203.871 213.208C202.215 213.774 201.243 215.377 201.232 215.393C201.072 215.66 200.727 215.751 200.457 215.59C200.188 215.429 200.1 215.083 200.259 214.814C200.307 214.734 201.445 212.838 203.504 212.136C204.568 211.773 205.171 212.062 205.491 212.369C206.305 213.145 206.064 214.743 205.72 215.946C205.081 218.177 201.097 220.92 200.646 221.225C200.548 221.29 200.439 221.323 200.331 221.323L200.336 221.321Z" fill="#341E61"/>
<path d="M230.365 143.713L239.102 145.489C246.154 146.923 252.01 151.827 254.677 158.531L261.847 176.552L231.238 189.545L224.907 172.544C222.612 166.38 222.898 159.546 225.703 153.598L230.363 143.713H230.365Z" fill="#F1D9FF"/>
<path d="M231.238 190.113C231.162 190.113 231.085 190.097 231.014 190.066C230.872 190.005 230.762 189.89 230.708 189.743L224.378 172.742C224.268 172.45 224.417 172.123 224.709 172.013C225.004 171.902 225.326 172.052 225.436 172.345L231.56 188.792L261.116 176.245L254.152 158.738C254.035 158.447 254.177 158.117 254.467 158.001C254.758 157.886 255.086 158.027 255.201 158.317L262.37 176.339C262.484 176.626 262.349 176.951 262.066 177.072L231.457 190.065C231.387 190.095 231.311 190.11 231.238 190.11V190.113Z" fill="#341E61"/>
<path d="M194.572 142.367L195.062 116.573H217.821C217.821 116.573 218.078 142.185 218.071 142.349C207.287 150.561 199.159 151.393 194.572 142.367Z" fill="#FFC8AC"/>
<path d="M203.742 149.398C202.945 149.398 202.178 149.313 201.442 149.143C198.393 148.443 195.912 146.249 194.071 142.623C194.028 142.54 194.008 142.448 194.01 142.354L194.499 116.56C194.505 116.251 194.757 116.004 195.065 116.004H217.824C218.133 116.004 218.385 116.255 218.389 116.566C218.45 122.576 218.646 142.205 218.639 142.371C218.632 142.54 218.551 142.698 218.416 142.799C212.611 147.22 207.782 149.396 203.744 149.396L203.742 149.398ZM195.142 142.235C196.818 145.473 199.021 147.424 201.694 148.038C205.71 148.961 211.031 146.953 217.507 142.067C217.491 139.942 217.345 125.449 217.262 117.138H195.617L195.14 142.233L195.142 142.235Z" fill="#341E61"/>
<path d="M217.581 122.026C221.48 111.236 219.425 95.8036 219.425 95.8036L192.138 89.067C191.694 89.578 181.569 97.6741 181.364 115.387C181.162 132.803 194.729 138.662 211.042 130.954" fill="#FFC8AC"/>
<path d="M197.791 134.84C194.198 134.84 190.964 133.986 188.303 132.272C183.303 129.049 180.709 123.208 180.799 115.377C180.967 100.825 187.594 92.5208 191.529 88.8663C191.623 88.7797 191.687 88.7219 191.718 88.6876C191.857 88.5377 192.073 88.4655 192.276 88.5143L219.56 95.2508C219.785 95.3068 219.955 95.4946 219.985 95.7257C220.07 96.3612 222.014 111.42 218.113 122.217C218.007 122.511 217.685 122.663 217.39 122.556C217.096 122.45 216.945 122.125 217.051 121.831C220.522 112.225 219.19 98.694 218.911 96.2583L192.307 89.6897C192.307 89.6897 192.301 89.6951 192.298 89.6987C188.496 93.2304 182.093 101.263 181.931 115.392C181.845 122.811 184.261 128.318 188.917 131.319C194.299 134.789 202.277 134.47 210.803 130.441C211.086 130.308 211.423 130.43 211.556 130.712C211.689 130.996 211.568 131.333 211.286 131.467C206.534 133.713 201.926 134.841 197.795 134.841L197.791 134.84Z" fill="#341E61"/>
<path d="M221.964 110.593L214.639 108.211C214.639 108.211 214.708 112.906 212.537 111.71C212.334 109.805 212.04 107.908 211.837 106.003C211.702 104.725 211.551 103.387 210.827 102.329C209.779 100.779 207.767 100.182 205.906 100.12C204.045 100.061 202.176 100.431 200.313 100.317C199.417 100.258 198.511 100.082 197.743 99.6076C196.981 99.1309 196.395 98.3148 196.364 97.4157C196.35 96.9083 196.395 96.3341 196.567 95.8195C194.442 97.58 191.828 98.7446 189.099 99.1147C185.67 99.5823 182.09 98.7969 179.167 96.9516C177.298 95.7726 175.662 94.1097 174.879 92.0387C174.103 89.9677 174.375 88.1982 174.886 86.0442C179.664 65.9898 209.439 79.0224 210.516 87.4273C210.516 87.4273 220.592 86.3457 225.384 92.3258C230.184 98.2986 221.962 110.589 221.962 110.589L221.964 110.593Z" fill="#341E61"/>
<path d="M198.718 116.26C198.718 116.26 198.701 116.26 198.692 116.26C195.596 116.244 193.067 113.072 193.055 109.192C193.048 107.036 193.811 105.032 195.146 103.695C196.129 102.711 197.369 102.172 198.638 102.172C198.647 102.172 198.655 102.172 198.664 102.172C201.76 102.188 204.289 105.36 204.301 109.24C204.308 111.396 203.547 113.4 202.21 114.736C201.227 115.72 199.988 116.26 198.718 116.26ZM198.638 103.685C197.758 103.685 196.919 104.058 196.21 104.766C195.157 105.821 194.556 107.431 194.561 109.188C194.57 112.241 196.428 114.736 198.701 114.749C198.707 114.749 198.712 114.749 198.718 114.749C199.598 114.749 200.437 114.375 201.146 113.666C202.199 112.611 202.8 111.001 202.793 109.246C202.784 106.191 200.928 103.697 198.655 103.685C198.649 103.685 198.644 103.685 198.638 103.685Z" fill="#341E61"/>
<path d="M185.507 115.752C185.507 115.752 185.49 115.752 185.481 115.752C182.385 115.735 179.855 112.563 179.844 108.683C179.837 106.527 180.6 104.523 181.935 103.187C182.918 102.204 184.157 101.663 185.427 101.663H185.453C188.549 101.679 191.079 104.851 191.09 108.732C191.097 110.887 190.334 112.892 188.999 114.228C188.016 115.21 186.777 115.752 185.507 115.752ZM185.426 103.176C184.545 103.176 183.707 103.55 182.999 104.257C181.946 105.312 181.345 106.922 181.35 108.679C181.359 111.732 183.215 114.228 185.49 114.24C185.496 114.24 185.501 114.24 185.507 114.24C186.387 114.24 187.226 113.867 187.933 113.159C188.986 112.104 189.587 110.494 189.582 108.737C189.573 105.684 187.717 103.188 185.442 103.176H185.426Z" fill="#341E61"/>
<path d="M196.965 106.911C198.156 106.198 199.706 106.321 200.898 107.225L196.965 106.911Z" fill="#FFC8AC"/>
<path d="M184.16 106.651C185.352 105.938 186.902 106.061 188.093 106.965L184.16 106.651Z" fill="#FFC8AC"/>
<path d="M203.546 108.264C203.199 108.264 202.888 108.022 202.81 107.668C202.722 107.26 202.981 106.857 203.388 106.769C203.788 106.682 213.243 104.662 218.459 105.772C218.866 105.859 219.125 106.259 219.041 106.669C218.953 107.077 218.551 107.337 218.146 107.253C213.241 106.207 203.8 108.228 203.707 108.247C203.653 108.258 203.6 108.264 203.546 108.264Z" fill="#341E61"/>
<path d="M214.35 108.412C214.35 108.412 219.85 102.082 223.238 103.026C226.627 103.97 226.181 115.751 222.329 117.12C218.477 118.487 215.206 117.145 215.206 117.145" fill="#FFC8AC"/>
<path d="M218.723 118.303C216.574 118.303 215.085 117.707 214.994 117.669C214.706 117.55 214.567 117.221 214.684 116.93C214.801 116.642 215.132 116.501 215.42 116.618C215.453 116.631 218.552 117.857 222.141 116.584C224.051 115.907 225.068 111.922 224.949 108.462C224.858 105.821 224.111 103.856 223.088 103.571C220.584 102.872 216.243 107.097 214.778 108.784C214.572 109.02 214.216 109.044 213.98 108.838C213.746 108.632 213.721 108.275 213.926 108.038C214.513 107.363 219.764 101.468 223.392 102.479C224.962 102.917 225.968 105.138 226.082 108.424C226.215 112.335 225.036 116.761 222.521 117.655C221.148 118.142 219.848 118.305 218.727 118.305L218.723 118.303Z" fill="#341E61"/>
<path d="M193.55 107.465C193.41 107.465 193.266 107.426 193.138 107.343C191.975 106.581 191.282 107.146 191.207 107.213C190.901 107.485 190.425 107.467 190.148 107.164C189.869 106.862 189.878 106.398 190.173 106.113C190.712 105.595 192.195 104.92 193.962 106.077C194.31 106.305 194.409 106.774 194.18 107.122C194.036 107.345 193.795 107.465 193.548 107.465H193.55Z" fill="#341E61"/>
<path d="M191.873 112.85C191.561 114.273 191.25 115.695 190.94 117.118C190.753 117.976 190.566 118.868 190.823 119.682C191.081 120.496 191.918 121.209 192.94 121.137" fill="#FFC8AC"/>
<path d="M191.311 232.915V232.628C191.311 230.248 188.575 228.319 185.2 228.319L118.498 223.916C115.123 223.916 112.387 225.844 112.387 228.224V232.915H191.313H191.311Z" fill="#341E61"/>
<path d="M125.069 228.823L120.488 228.503C119.554 228.438 118.852 227.669 118.921 226.784L119.308 221.801C119.376 220.916 120.19 220.253 121.124 220.318L125.705 220.638C126.639 220.703 127.341 221.472 127.273 222.357L126.886 227.34C126.817 228.225 126.004 228.888 125.069 228.823Z" fill="#341E61"/>
<path d="M134.622 229.487L130.041 229.168C129.107 229.103 128.405 228.333 128.473 227.449L128.86 222.465C128.929 221.581 129.742 220.918 130.677 220.983L135.258 221.303C136.192 221.368 136.894 222.137 136.825 223.022L136.438 228.005C136.37 228.89 135.556 229.552 134.622 229.487Z" fill="#341E61"/>
<path d="M144.177 230.152L139.596 229.832C138.662 229.767 137.96 228.998 138.028 228.113L138.415 223.13C138.483 222.245 139.297 221.583 140.231 221.648L144.812 221.967C145.746 222.032 146.448 222.801 146.38 223.686L145.993 228.669C145.925 229.554 145.111 230.217 144.177 230.152Z" fill="#341E61"/>
<path d="M153.732 230.816L149.151 230.497C148.216 230.432 147.514 229.663 147.583 228.778L147.97 223.795C148.038 222.91 148.852 222.247 149.786 222.312L154.367 222.632C155.301 222.697 156.003 223.466 155.935 224.351L155.548 229.334C155.479 230.219 154.666 230.881 153.732 230.816Z" fill="#341E61"/>
<path d="M163.284 231.481L158.703 231.161C157.769 231.096 157.067 230.327 157.135 229.442L157.522 224.459C157.591 223.574 158.404 222.912 159.339 222.977L163.92 223.296C164.854 223.361 165.556 224.13 165.487 225.015L165.1 229.999C165.032 230.883 164.218 231.546 163.284 231.481Z" fill="#341E61"/>
<path d="M172.839 232.145L168.258 231.826C167.324 231.761 166.622 230.992 166.69 230.107L167.077 225.124C167.146 224.239 167.959 223.576 168.893 223.641L173.474 223.961C174.409 224.026 175.111 224.795 175.042 225.68L174.655 230.663C174.587 231.548 173.773 232.21 172.839 232.145Z" fill="#341E61"/>
<path d="M182.394 232.81L177.813 232.49C176.878 232.425 176.176 231.656 176.245 230.771L176.632 225.788C176.7 224.903 177.514 224.24 178.448 224.305L183.029 224.625C183.963 224.69 184.665 225.459 184.597 226.344L184.21 231.327C184.141 232.212 183.328 232.875 182.394 232.81Z" fill="#341E61"/>
<path d="M59.1559 49.6749H12.2461V96.7298H59.1559V49.6749Z" fill="#B6B0FF"/>
<path d="M40.0699 64.0109C39.2401 64.0109 37.9459 63.9513 36.1909 63.8304C34.4989 63.7094 33.2047 63.6552 32.3119 63.6661C32.3551 64.9137 32.4973 67.1364 32.7439 70.3322C32.9671 73.1561 33.0787 75.3896 33.0787 77.0309C33.0787 77.4028 33.1147 77.9553 33.1903 78.6884C33.2641 79.4214 33.3019 79.9757 33.3019 80.3477C33.3019 81.1692 33.1327 81.9077 32.7907 82.5631C32.3551 83.4063 31.7323 83.827 30.9223 83.827C30.3373 83.827 29.8207 83.6356 29.3743 83.251C28.8739 82.8249 28.6237 82.2887 28.6237 81.6423C28.6237 81.4888 28.6507 81.2559 28.7047 80.9453C28.7569 80.633 28.7839 80.3946 28.7839 80.2303C28.7839 79.7266 28.7497 78.9664 28.6795 77.9481C28.6111 76.9316 28.5751 76.1642 28.5751 75.6496C28.5751 74.1835 28.4635 72.1956 28.2403 69.6894C27.9847 66.8096 27.8353 64.8234 27.7921 63.7293H26.9623C24.5881 63.7293 22.7053 63.5541 21.3103 63.2038C20.1295 62.9077 19.5391 62.1909 19.5391 61.0534C19.5391 60.4955 19.7299 59.9917 20.1133 59.544C20.5597 59.0077 21.1447 58.7658 21.8683 58.8217C22.2409 58.8434 23.0869 58.9373 24.4063 59.1016C25.4593 59.2226 26.3107 59.2821 26.9605 59.2821C27.6103 59.2821 28.5805 59.2713 29.8747 59.2497C31.1671 59.228 32.1391 59.2172 32.7889 59.2172C33.5971 59.2172 34.8121 59.2749 36.4285 59.3905C38.0467 59.5042 39.2599 59.562 40.0681 59.562C40.7071 59.562 41.2417 59.7751 41.6719 60.2012C42.1039 60.6291 42.3181 61.1527 42.3181 61.7774C42.3181 62.4022 42.1021 62.9294 41.6719 63.3609C41.2417 63.7943 40.7071 64.0091 40.0681 64.0091L40.0699 64.0109Z" fill="white"/>
<path d="M51.1471 73.5498C50.4757 73.5498 49.4281 73.5011 48.0061 73.4036C46.6363 73.3061 45.5905 73.2627 44.8668 73.27C44.901 74.2793 45.0181 76.0776 45.2161 78.665C45.3979 80.9508 45.4879 82.7582 45.4879 84.0871C45.4879 84.3886 45.5185 84.8364 45.5779 85.4286C45.6373 86.0227 45.6679 86.4704 45.6679 86.772C45.6679 87.4364 45.5293 88.0341 45.2539 88.5667C44.9011 89.2492 44.397 89.5905 43.7418 89.5905C43.2684 89.5905 42.8509 89.4352 42.4891 89.1246C42.0841 88.7798 41.8825 88.3446 41.8825 87.8228C41.8825 87.6982 41.904 87.5105 41.9472 87.2577C41.9904 87.0049 42.012 86.8117 42.012 86.6799C42.012 86.2718 41.9833 85.6561 41.9275 84.8328C41.8717 84.0095 41.8429 83.3884 41.8429 82.9731C41.8429 81.7868 41.7529 80.1781 41.5729 78.1486C41.3659 75.8194 41.2453 74.2107 41.2111 73.3259H40.5397C38.6191 73.3259 37.0945 73.1851 35.9659 72.9016C35.0101 72.6633 34.5312 72.0819 34.5312 71.1611C34.5312 70.7097 34.6861 70.3034 34.9957 69.9387C35.3575 69.5054 35.8309 69.3104 36.4159 69.3537C36.7183 69.3717 37.4023 69.4458 38.4715 69.5794C39.3246 69.6769 40.0141 69.7256 40.5379 69.7256C41.0617 69.7256 41.8501 69.7166 42.8959 69.6986C43.9435 69.6805 44.7283 69.6715 45.2539 69.6715C45.9073 69.6715 46.8901 69.7184 48.2005 69.8105C49.5091 69.9044 50.4919 69.9495 51.1471 69.9495C51.6637 69.9495 52.0975 70.1229 52.4467 70.4677C52.7959 70.8126 52.9705 71.2387 52.9705 71.7443C52.9705 72.2498 52.7959 72.6759 52.4467 73.0262C52.0975 73.3765 51.6637 73.5516 51.1471 73.5516V73.5498Z" fill="white"/>
<path d="M246.294 116.365C245.228 118.71 242.469 119.745 240.13 118.676C237.792 117.607 236.761 114.839 237.826 112.494C238.892 110.148 241.651 109.114 243.99 110.183C246.328 111.252 247.359 114.02 246.294 116.365Z" fill="#341E61"/>
<path d="M258.926 105.357C255.531 105.974 252.651 108.228 251.222 111.375L251.042 111.77L238.161 105.884L238.341 105.488C239.794 102.289 239.5 98.6092 237.729 95.5687C234.5 90.0256 233.915 83.0435 236.771 76.7547C241.633 66.0513 254.539 61.5681 265.035 67.2466C274.123 72.1649 278.107 83.3522 274.204 92.938C271.448 99.7197 265.534 104.163 258.926 105.358V105.357Z" fill="#F1D9FF"/>
<path d="M247.91 109.273C247.827 109.273 247.745 109.255 247.664 109.217C247.383 109.08 247.266 108.742 247.401 108.46L254.676 93.382C252.898 92.8241 251.197 92.0477 249.611 91.0673L243.043 106.469C242.919 106.758 242.584 106.889 242.301 106.767C242.015 106.644 241.882 106.31 242.004 106.023L248.65 90.4371C247.971 89.9677 247.316 89.4603 246.688 88.9132L244.244 86.7899C243.592 86.2247 243.203 85.4375 243.147 84.5744C243.092 83.7132 243.378 82.8826 243.95 82.238C244.589 81.5176 245.504 81.1276 246.47 81.1691C247.431 81.2107 248.313 81.6783 248.888 82.4511C250.502 84.6178 250.927 87.4652 250.043 89.9984C251.649 91.0095 253.377 91.8003 255.191 92.351C256.518 90.0182 258.937 88.4727 261.626 88.2722C262.591 88.2018 263.516 88.5611 264.179 89.2617C264.841 89.9623 265.151 90.912 265.028 91.8707C264.92 92.7284 264.483 93.4885 263.797 94.0121C263.111 94.5357 262.26 94.7578 261.412 94.6351L258.208 94.1782C257.385 94.0609 256.574 93.8984 255.776 93.6925L248.412 108.95C248.315 109.152 248.114 109.269 247.903 109.269L247.91 109.273ZM256.327 92.6634C257 92.8277 257.682 92.9595 258.374 93.0588L261.578 93.5156C262.128 93.5932 262.676 93.4506 263.118 93.113C263.561 92.7753 263.844 92.2842 263.914 91.7299C263.993 91.1124 263.793 90.4985 263.365 90.0453C262.938 89.5939 262.339 89.3592 261.718 89.4061C259.502 89.5704 257.499 90.7982 256.331 92.6634H256.327ZM246.333 82.3012C245.745 82.3012 245.19 82.5504 244.796 82.9928C244.425 83.4099 244.242 83.9443 244.278 84.5022C244.314 85.0583 244.564 85.5675 244.985 85.9322L247.43 88.0556C247.957 88.5142 248.504 88.9457 249.071 89.3466C249.708 87.2377 249.316 84.9175 247.986 83.1318C247.613 82.6317 247.044 82.3301 246.423 82.303C246.393 82.303 246.362 82.3012 246.333 82.3012Z" fill="white"/>
<path d="M248.418 116.831L236.082 111.194C234.921 110.663 234.41 109.291 234.939 108.126L236.181 105.391C236.71 104.226 238.078 103.713 239.239 104.244L251.575 109.881C252.736 110.412 253.247 111.784 252.718 112.949L251.476 115.684C250.947 116.849 249.579 117.362 248.418 116.831Z" fill="#341E61"/>
<path d="M267.139 60.6581L265.615 59.962L264.186 63.1086L265.71 63.8047L267.139 60.6581Z" fill="#F1D9FF"/>
<path d="M253.334 57.8985L251.668 58.0597L251.999 61.5014L253.665 61.3401L253.334 57.8985Z" fill="#F1D9FF"/>
<path d="M277.72 69.9651L276.748 68.5983L273.942 70.6066L274.914 71.9735L277.72 69.9651Z" fill="#F1D9FF"/>
<path d="M56.175 195.622C56.2632 209.07 45.465 220.044 32.0586 220.133C18.6522 220.221 7.71178 209.39 7.62358 195.942C7.53538 182.494 18.3336 171.52 31.74 171.431C45.1464 171.343 56.0868 182.174 56.175 195.622Z" fill="#F1D9FF"/>
<path d="M31.8991 220.7C18.2749 220.7 7.1491 209.63 7.0591 195.945C7.0141 188.916 9.9517 182.16 15.1213 177.408C15.3517 177.196 15.7099 177.211 15.9205 177.442C16.1311 177.673 16.1167 178.031 15.8863 178.244C10.9525 182.779 8.1481 189.229 8.1913 195.938C8.2777 209 18.8977 219.566 31.9009 219.566C31.9531 219.566 32.0053 219.566 32.0575 219.566C45.1309 219.479 55.6987 208.741 55.6123 195.626C55.6105 195.313 55.8625 195.057 56.1739 195.055C56.5015 195.055 56.7409 195.304 56.7427 195.619C56.8327 209.357 45.7627 220.609 32.0647 220.7C32.0107 220.7 31.9531 220.7 31.8991 220.7Z" fill="#341E61"/>
<path d="M42.8086 175.414L52.4224 174.75C53.9794 174.642 55.1692 176.12 54.7372 177.624L52.0696 186.914L42.8086 175.416V175.414Z" fill="#F1D9FF"/>
<path d="M52.069 187.479C52.0168 187.479 51.9646 187.472 51.9124 187.458C51.6136 187.371 51.4408 187.057 51.5254 186.755L54.193 177.466C54.3478 176.929 54.2362 176.371 53.8852 175.938C53.536 175.503 53.0248 175.275 52.4596 175.315C52.1554 175.337 51.8782 175.1 51.8566 174.788C51.835 174.476 52.0708 174.205 52.3804 174.183C53.2966 174.12 54.1858 174.51 54.7618 175.225C55.3378 175.94 55.5304 176.895 55.2766 177.78L52.609 187.068C52.537 187.317 52.312 187.477 52.0654 187.477L52.069 187.479Z" fill="#341E61"/>
<path d="M44.738 193.492C45.1538 202.81 32.4512 209.816 32.4512 209.816C32.4512 209.816 19.1762 203.976 18.7604 194.658C18.557 190.102 22.0724 186.242 26.612 186.038C28.3886 185.959 30.0644 186.452 31.4486 187.353C32.7482 186.332 34.3682 185.69 36.143 185.61C40.6826 185.406 44.5346 188.938 44.7362 193.492H44.738Z" fill="white"/>
<path d="M201.113 45.9739C211.597 35.4577 211.597 18.4077 201.113 7.89163C190.63 -2.62449 173.632 -2.62449 163.148 7.89163C152.665 18.4077 152.665 35.4577 163.148 45.9739C173.632 56.49 190.63 56.49 201.113 45.9739Z" fill="#B6B0FF"/>
<path d="M173.942 51.1445L163.578 53.629C161.9 54.0316 160.333 52.6377 160.531 50.9188L161.749 40.3003L173.942 51.1445Z" fill="#B6B0FF"/>
<path d="M178.171 31.8809C174.011 27.7083 174.011 20.9193 178.171 16.7467C182.33 12.574 189.098 12.574 193.258 16.7467C197.418 20.9193 197.418 27.7083 193.258 31.8791C189.098 36.0518 182.33 36.0518 178.172 31.8791L178.171 31.8809ZM190.243 19.771C187.747 17.2667 183.684 17.2667 181.186 19.771C178.689 22.2753 178.689 26.3505 181.186 28.8566C183.682 31.3609 187.745 31.3609 190.241 28.8566C192.738 26.3523 192.738 22.2771 190.241 19.7728L190.243 19.771Z" fill="white"/>
<path d="M170.878 39.1321C169.832 38.0831 169.832 36.3804 170.878 35.3314L177.167 29.0227C178.213 27.9737 179.91 27.9737 180.956 29.0227C182.002 30.0718 182.002 31.7744 180.956 32.8235L174.667 39.1321C173.621 40.1811 171.924 40.1811 170.878 39.1321Z" fill="white"/>
<path d="M272.948 147.074L269.701 149.123C268.176 150.077 266.174 149.62 265.222 148.101L263.179 144.846C262.227 143.327 262.682 141.32 264.196 140.365L267.445 138.304C268.959 137.349 270.961 137.806 271.924 139.326L273.965 142.593C274.917 144.111 274.462 146.119 272.948 147.074Z" fill="#F1D9FF"/>
<path d="M163.456 122.062L161.481 123.307C160.554 123.887 159.337 123.609 158.758 122.686L157.516 120.706C156.936 119.783 157.213 118.561 158.133 117.981L160.11 116.728C161.029 116.147 162.248 116.425 162.833 117.349L164.075 119.335C164.655 120.258 164.377 121.48 163.458 122.06L163.456 122.062Z" fill="#F1D9FF"/>
<path d="M221.552 64.3812L219.141 65.9015C218.011 66.6093 216.524 66.2699 215.817 65.1432L214.299 62.7255C213.592 61.5989 213.93 60.1075 215.054 59.3997L217.466 57.8704C218.589 57.1608 220.074 57.5002 220.79 58.6287L222.306 61.0536C223.013 62.1803 222.675 63.6698 221.552 64.3794V64.3812Z" fill="#F1D9FF"/>
<path d="M118.976 14.4264L117.371 15.4394C116.618 15.9106 115.628 15.6849 115.157 14.9338L114.147 13.3232C113.675 12.5721 113.9 11.5791 114.649 11.1078L116.255 10.0895C117.004 9.61641 117.992 9.8421 118.469 10.595L119.479 12.211C119.95 12.9621 119.725 13.9534 118.976 14.4264Z" fill="#F1D9FF"/>
<path d="M229.053 32.3973L227.447 33.4102C226.693 33.8814 225.705 33.6557 225.233 32.9046L224.223 31.2941C223.752 30.5429 223.977 29.5499 224.725 29.0786L226.331 28.0603C227.08 27.5872 228.068 27.8129 228.545 28.5658L229.555 30.1818C230.026 30.9329 229.801 31.9242 229.053 32.3973Z" fill="#F1D9FF"/>
</g>
<defs>
<clipPath id="clip0_1035_1589">
<rect width="288" height="235" fill="white" transform="translate(0.201172)"/>
</clipPath>
</defs>
</svg>
