<svg width="74" height="93" viewBox="0 0 74 93" fill="none" xmlns="http://www.w3.org/2000/svg">
<g clip-path="url(#clip0_1035_4529)">
<path fill-rule="evenodd" clip-rule="evenodd" d="M53.2413 59.0063C54.2459 58.7798 55.1834 58.3211 55.9787 57.6669C58.8702 55.3122 59.0933 49.9491 56.7388 47.0575C54.7191 44.5731 52.1385 42.6036 49.2093 41.3108C46.2801 40.0181 43.0859 39.4391 39.8893 39.6214L46.9055 23.5374C47.3049 22.623 47.5183 21.6383 47.5336 20.6406C47.5486 19.6429 47.3652 18.6522 46.9936 17.7262C46.6221 16.8001 46.0701 15.9572 45.3696 15.2466C44.6692 14.536 43.8343 13.9719 42.9137 13.5871C41.3853 12.9269 39.6746 12.8198 38.0759 13.2845C36.4772 13.7492 35.0904 14.7565 34.1541 16.1331C32.6871 18.3284 30.8745 21.1508 29.0142 24.34V20.1887C28.8919 19.1985 28.5739 18.2425 28.0785 17.3764C27.5832 16.5103 26.9205 15.7515 26.129 15.144C25.3375 14.5365 24.433 14.0926 23.4683 13.8381C22.5036 13.5836 21.4979 13.5236 20.5097 13.6615C17.092 14.1399 14.4503 16.8667 14.2589 20.3057C13.754 29.3523 13.5414 46.8237 18.2986 57.4596H18.3623C18.1042 65.0956 18.1823 72.7393 18.5962 80.3685H47.0862C49.6277 79.6047 51.9938 78.3476 54.0492 76.669C56.8222 74.4116 58.9463 71.4585 60.2043 68.1114C60.6086 67.0386 60.733 65.8806 60.5658 64.7464C60.3985 63.6122 59.9452 62.5393 59.2485 61.6289C58.5518 60.7184 57.6348 60.0004 56.5838 59.5425C55.5328 59.0846 54.3825 58.9019 53.2413 59.0116V59.0063ZM36.5672 65.0498C35.4359 63.6613 34.9026 61.8802 35.0845 60.0984C35.2664 58.3166 36.1487 56.68 37.5373 55.5487C38.9258 54.4174 40.7069 53.8841 42.4887 54.066C44.2705 54.2479 45.9071 55.1302 47.0384 56.5188C48.5213 58.3419 50.759 59.187 52.9277 58.9797C51.8426 59.2291 50.8361 59.743 49.9977 60.4757C49.1592 61.2083 48.5152 62.1369 48.1227 63.1788C47.7028 64.2885 46.9979 65.2678 46.079 66.0183C45.1601 66.7687 44.0597 67.2638 42.8885 67.4535C41.7174 67.6432 40.5169 67.5209 39.4081 67.0989C38.2992 66.6769 37.3212 65.9702 36.5725 65.0498H36.5672Z" fill="#5E51FE"/>
<path d="M47.0821 80.3685C49.5484 79.6244 51.9191 78.4018 54.0452 76.669C56.8182 74.4116 58.9421 71.4585 60.2002 68.1114C60.6044 67.0386 60.7288 65.8806 60.5616 64.7464C60.3944 63.6122 59.9411 62.5393 59.2444 61.6289C58.5477 60.7184 57.6307 60.0004 56.5797 59.5425C55.5287 59.0846 54.3784 58.9019 53.2373 59.0116C54.2153 58.7884 55.1508 58.3419 55.9799 57.6669C58.8715 55.3122 59.0946 49.9491 56.7399 47.0575C54.7197 44.5741 52.139 42.6056 49.2098 41.3138C46.2806 40.022 43.0867 39.4438 39.8905 39.6268L46.9067 23.5374C47.3062 22.623 47.5196 21.6383 47.5347 20.6406C47.5499 19.6429 47.3664 18.6522 46.9949 17.7262C46.6234 16.8001 46.0713 15.9572 45.3709 15.2466C44.6704 14.536 43.8356 13.9719 42.915 13.5871C41.3866 12.9269 39.6759 12.8198 38.0772 13.2845C36.4785 13.7492 35.0917 14.7565 34.1553 16.1331C28.8879 24.0104 19.1981 39.9882 18.5975 51.7456C17.763 67.9573 18.5975 80.3685 18.5975 80.3685" stroke="#5E51FE" stroke-width="25.1148" stroke-linecap="round" stroke-linejoin="round"/>
<path fill-rule="evenodd" clip-rule="evenodd" d="M37.5346 55.5513C36.7353 56.2072 36.0973 57.038 35.6699 57.9796C35.2425 58.9212 35.0372 59.9484 35.0697 60.9819C35.1022 62.0154 35.3717 63.0277 35.8574 63.9405C36.3431 64.8534 37.0321 65.6425 37.8711 66.2469C38.7101 66.8513 39.6767 67.2548 40.6964 67.4265C41.7161 67.5981 42.7616 67.5331 43.7522 67.2367C44.7429 66.9402 45.6521 66.4201 46.4099 65.7165C47.1677 65.0129 47.7537 64.1447 48.1227 63.1787C48.5152 62.1368 49.1593 61.2082 49.9977 60.4756C50.8361 59.7429 51.8426 59.229 52.9277 58.9796C51.8192 59.0871 50.7014 58.9186 49.6738 58.4892C48.6462 58.0598 47.7408 57.3828 47.0384 56.5187C46.4783 55.8314 45.7883 55.2612 45.0078 54.8406C44.2273 54.42 43.3716 54.1573 42.4895 54.0675C41.6075 53.9776 40.7164 54.0624 39.8671 54.317C39.0179 54.5716 38.2271 54.991 37.5399 55.5513H37.5346Z" stroke="#5E51FE" stroke-width="25.1148" stroke-linecap="round" stroke-linejoin="round"/>
<path d="M39.9371 39.6375C38.5764 39.7969 35.3447 40.3975 33.293 41.5137" stroke="#5E51FE" stroke-width="25.1148" stroke-linecap="round" stroke-linejoin="round"/>
<path d="M18.2927 57.4597C13.5355 46.8238 13.7481 29.3524 14.2531 20.3058C14.3609 18.646 15.0433 17.0756 16.1829 15.8641C17.3226 14.6527 18.8485 13.8758 20.4986 13.667C21.4867 13.529 22.4924 13.589 23.4571 13.8435C24.4219 14.098 25.3263 14.542 26.1178 15.1494C26.9093 15.7569 27.572 16.5158 28.0673 17.3819C28.5627 18.2479 28.8808 19.2039 29.003 20.1941V24.4411" stroke="#5E51FE" stroke-width="25.1148" stroke-linecap="round" stroke-linejoin="round"/>
<path fill-rule="evenodd" clip-rule="evenodd" d="M53.2413 59.0063C54.2459 58.7798 55.1834 58.3211 55.9787 57.6669C58.8702 55.3122 59.0933 49.9491 56.7388 47.0575C54.7191 44.5731 52.1385 42.6036 49.2093 41.3108C46.2801 40.0181 43.0859 39.4391 39.8893 39.6214L46.9055 23.5374C47.3049 22.623 47.5183 21.6383 47.5336 20.6406C47.5486 19.6429 47.3652 18.6522 46.9936 17.7262C46.6221 16.8001 46.0701 15.9572 45.3696 15.2466C44.6692 14.536 43.8343 13.9719 42.9137 13.5871C41.3853 12.9269 39.6746 12.8198 38.0759 13.2845C36.4772 13.7492 35.0904 14.7565 34.1541 16.1331C32.6871 18.3284 30.8745 21.1508 29.0142 24.34V20.1887C28.8919 19.1985 28.5739 18.2425 28.0785 17.3764C27.5832 16.5103 26.9205 15.7515 26.129 15.144C25.3375 14.5365 24.433 14.0926 23.4683 13.8381C22.5036 13.5836 21.4979 13.5236 20.5097 13.6615C17.092 14.1399 14.4503 16.8667 14.2589 20.3057C13.754 29.3523 13.5414 46.8237 18.2986 57.4596H18.3623C18.1042 65.0956 18.1823 72.7393 18.5962 80.3685H47.0862C49.6277 79.6047 51.9938 78.3476 54.0492 76.669C56.8222 74.4116 58.9463 71.4585 60.2043 68.1114C60.6086 67.0386 60.733 65.8806 60.5658 64.7464C60.3985 63.6122 59.9452 62.5393 59.2485 61.6289C58.5518 60.7184 57.6348 60.0004 56.5838 59.5425C55.5328 59.0846 54.3825 58.9019 53.2413 59.0116V59.0063ZM36.5672 65.0498C35.4359 63.6613 34.9026 61.8802 35.0845 60.0984C35.2664 58.3166 36.1487 56.68 37.5373 55.5487C38.9258 54.4174 40.7069 53.8841 42.4887 54.066C44.2705 54.2479 45.9071 55.1302 47.0384 56.5188C48.5213 58.3419 50.759 59.187 52.9277 58.9797C51.8426 59.2291 50.8361 59.743 49.9977 60.4757C49.1592 61.2083 48.5152 62.1369 48.1227 63.1788C47.7028 64.2885 46.9979 65.2678 46.079 66.0183C45.1601 66.7687 44.0597 67.2638 42.8885 67.4535C41.7174 67.6432 40.5169 67.5209 39.4081 67.0989C38.2992 66.6769 37.3212 65.9702 36.5725 65.0498H36.5672Z" fill="#5E51FE"/>
<path d="M47.0821 80.3685C49.5484 79.6244 51.9191 78.4018 54.0452 76.669C56.8182 74.4116 58.9421 71.4585 60.2002 68.1114C60.6044 67.0386 60.7288 65.8806 60.5616 64.7464C60.3944 63.6122 59.9411 62.5393 59.2444 61.6289C58.5477 60.7184 57.6307 60.0004 56.5797 59.5425C55.5287 59.0846 54.3784 58.9019 53.2373 59.0116C54.2153 58.7884 55.1508 58.3419 55.9799 57.6669C58.8715 55.3122 59.0946 49.9491 56.7399 47.0575C54.7197 44.5741 52.139 42.6056 49.2098 41.3138C46.2806 40.022 43.0867 39.4438 39.8905 39.6268L46.9067 23.5374C47.3062 22.623 47.5196 21.6383 47.5347 20.6406C47.5499 19.6429 47.3664 18.6522 46.9949 17.7262C46.6234 16.8001 46.0713 15.9572 45.3709 15.2466C44.6704 14.536 43.8356 13.9719 42.915 13.5871C41.3866 12.9269 39.6759 12.8198 38.0772 13.2845C36.4785 13.7492 35.0917 14.7565 34.1553 16.1331C28.8879 24.0104 19.1981 39.9882 18.5975 51.7456C17.763 67.9573 18.5975 80.3685 18.5975 80.3685" stroke="#5E51FE" stroke-width="23.2544" stroke-linecap="round" stroke-linejoin="round"/>
<path fill-rule="evenodd" clip-rule="evenodd" d="M37.5346 55.5513C36.7353 56.2072 36.0973 57.038 35.6699 57.9796C35.2425 58.9212 35.0372 59.9484 35.0697 60.9819C35.1022 62.0154 35.3717 63.0277 35.8574 63.9405C36.3431 64.8534 37.0321 65.6425 37.8711 66.2469C38.7101 66.8513 39.6767 67.2548 40.6964 67.4265C41.7161 67.5981 42.7616 67.5331 43.7522 67.2367C44.7429 66.9402 45.6521 66.4201 46.4099 65.7165C47.1677 65.0129 47.7537 64.1447 48.1227 63.1787C48.5152 62.1368 49.1593 61.2082 49.9977 60.4756C50.8361 59.7429 51.8426 59.229 52.9277 58.9796C51.8192 59.0871 50.7014 58.9186 49.6738 58.4892C48.6462 58.0598 47.7408 57.3828 47.0384 56.5187C46.4783 55.8314 45.7883 55.2612 45.0078 54.8406C44.2273 54.42 43.3716 54.1573 42.4895 54.0675C41.6075 53.9776 40.7164 54.0624 39.8671 54.317C39.0179 54.5716 38.2271 54.991 37.5399 55.5513H37.5346Z" stroke="#5E51FE" stroke-width="23.2544" stroke-linecap="round" stroke-linejoin="round"/>
<path d="M39.9371 39.6375C38.5764 39.7969 35.3447 40.3975 33.293 41.5137" stroke="#5E51FE" stroke-width="23.2544" stroke-linecap="round" stroke-linejoin="round"/>
<path d="M18.2927 57.4597C13.5355 46.8238 13.7481 29.3524 14.2531 20.3058C14.3609 18.646 15.0433 17.0756 16.1829 15.8641C17.3226 14.6527 18.8485 13.8758 20.4986 13.667C21.4867 13.529 22.4924 13.589 23.4571 13.8435C24.4219 14.098 25.3263 14.542 26.1178 15.1494C26.9093 15.7569 27.572 16.5158 28.0673 17.3819C28.5627 18.2479 28.8808 19.2039 29.003 20.1941V24.4411" stroke="#5E51FE" stroke-width="23.2544" stroke-linecap="round" stroke-linejoin="round"/>
<path d="M48.3774 76.188H17.6816V92.9312H48.3774V76.188Z" fill="#5E51FE"/>
<path fill-rule="evenodd" clip-rule="evenodd" d="M53.2413 59.0063C54.2459 58.7798 55.1834 58.3211 55.9787 57.6669C58.8702 55.3122 59.0933 49.9491 56.7388 47.0575C54.7191 44.5731 52.1385 42.6036 49.2093 41.3108C46.2801 40.0181 43.0859 39.4391 39.8893 39.6214L46.9055 23.5374C47.3049 22.623 47.5183 21.6383 47.5336 20.6406C47.5486 19.6429 47.3652 18.6522 46.9936 17.7262C46.6221 16.8001 46.0701 15.9572 45.3696 15.2466C44.6692 14.536 43.8343 13.9719 42.9137 13.5871C41.3853 12.9269 39.6746 12.8198 38.0759 13.2845C36.4772 13.7492 35.0904 14.7565 34.1541 16.1331C32.6871 18.3284 30.8745 21.1508 29.0142 24.34V20.1887C28.8919 19.1985 28.5739 18.2425 28.0785 17.3764C27.5832 16.5103 26.9205 15.7515 26.129 15.144C25.3375 14.5365 24.433 14.0926 23.4683 13.8381C22.5036 13.5836 21.4979 13.5236 20.5097 13.6615C17.092 14.1399 14.4503 16.8667 14.2589 20.3057C13.754 29.3523 13.5414 46.8237 18.2986 57.4596H18.3623C18.1042 65.0956 18.1823 72.7393 18.5962 80.3685H47.0862C49.6277 79.6047 51.9938 78.3476 54.0492 76.669C56.8222 74.4116 58.9463 71.4585 60.2043 68.1114C60.6086 67.0386 60.733 65.8806 60.5658 64.7464C60.3985 63.6122 59.9452 62.5393 59.2485 61.6289C58.5518 60.7184 57.6348 60.0004 56.5838 59.5425C55.5328 59.0846 54.3825 58.9019 53.2413 59.0116V59.0063ZM36.5672 65.0498C35.4359 63.6613 34.9026 61.8802 35.0845 60.0984C35.2664 58.3166 36.1487 56.68 37.5373 55.5487C38.9258 54.4174 40.7069 53.8841 42.4887 54.066C44.2705 54.2479 45.9071 55.1302 47.0384 56.5188C48.5213 58.3419 50.759 59.187 52.9277 58.9797C51.8426 59.2291 50.8361 59.743 49.9977 60.4757C49.1592 61.2083 48.5152 62.1369 48.1227 63.1788C47.7028 64.2885 46.9979 65.2678 46.079 66.0183C45.1601 66.7687 44.0597 67.2638 42.8885 67.4535C41.7174 67.6432 40.5169 67.5209 39.4081 67.0989C38.2992 66.6769 37.3212 65.9702 36.5725 65.0498H36.5672Z" fill="#5E51FE"/>
<path d="M47.0821 80.3685C49.5484 79.6244 51.9191 78.4018 54.0452 76.669C56.8182 74.4116 58.9421 71.4585 60.2002 68.1114C60.6044 67.0386 60.7288 65.8806 60.5616 64.7464C60.3944 63.6122 59.9411 62.5393 59.2444 61.6289C58.5477 60.7184 57.6307 60.0004 56.5797 59.5425C55.5287 59.0846 54.3784 58.9019 53.2373 59.0116C54.2153 58.7884 55.1508 58.3419 55.9799 57.6669C58.8715 55.3122 59.0946 49.9491 56.7399 47.0575C54.7197 44.5741 52.139 42.6056 49.2098 41.3138C46.2806 40.022 43.0867 39.4438 39.8905 39.6268L46.9067 23.5374C47.3062 22.623 47.5196 21.6383 47.5347 20.6406C47.5499 19.6429 47.3664 18.6522 46.9949 17.7262C46.6234 16.8001 46.0713 15.9572 45.3709 15.2466C44.6704 14.536 43.8356 13.9719 42.915 13.5871C41.3866 12.9269 39.6759 12.8198 38.0772 13.2845C36.4785 13.7492 35.0917 14.7565 34.1553 16.1331C28.8879 24.0104 19.1981 39.9882 18.5975 51.7456C17.763 67.9573 18.5975 80.3685 18.5975 80.3685" stroke="#F1D9FF" stroke-width="4.65088" stroke-linecap="round" stroke-linejoin="round"/>
<path fill-rule="evenodd" clip-rule="evenodd" d="M37.5346 55.5513C36.7353 56.2072 36.0973 57.038 35.6699 57.9796C35.2425 58.9212 35.0372 59.9484 35.0697 60.9819C35.1022 62.0154 35.3717 63.0277 35.8574 63.9405C36.3431 64.8534 37.0321 65.6425 37.8711 66.2469C38.7101 66.8513 39.6767 67.2548 40.6964 67.4265C41.7161 67.5981 42.7616 67.5331 43.7522 67.2367C44.7429 66.9402 45.6521 66.4201 46.4099 65.7165C47.1677 65.0129 47.7537 64.1447 48.1227 63.1787C48.5152 62.1368 49.1593 61.2082 49.9977 60.4756C50.8361 59.7429 51.8426 59.229 52.9277 58.9796C51.8192 59.0871 50.7014 58.9186 49.6738 58.4892C48.6462 58.0598 47.7408 57.3828 47.0384 56.5187C46.4783 55.8314 45.7883 55.2612 45.0078 54.8406C44.2273 54.42 43.3716 54.1573 42.4895 54.0675C41.6075 53.9776 40.7164 54.0624 39.8671 54.317C39.0179 54.5716 38.2271 54.991 37.5399 55.5513H37.5346Z" stroke="#F1D9FF" stroke-width="4.65088" stroke-linecap="round" stroke-linejoin="round"/>
<path d="M39.9371 39.6375C38.5764 39.7969 35.3447 40.3975 33.293 41.5137" stroke="#F1D9FF" stroke-width="4.65088" stroke-linecap="round" stroke-linejoin="round"/>
<path d="M18.2927 57.4597C13.5355 46.8238 13.7481 29.3524 14.2531 20.3058C14.3609 18.646 15.0433 17.0756 16.1829 15.8641C17.3226 14.6527 18.8485 13.8758 20.4986 13.667C21.4867 13.529 22.4924 13.589 23.4571 13.8435C24.4219 14.098 25.3263 14.542 26.1178 15.1494C26.9093 15.7569 27.572 16.5158 28.0673 17.3819C28.5627 18.2479 28.8808 19.2039 29.003 20.1941V24.4411" stroke="#F1D9FF" stroke-width="4.65088" stroke-linecap="round" stroke-linejoin="round"/>
</g>
<defs>
<clipPath id="clip0_1035_4529">
<rect width="73" height="93" fill="white" transform="translate(0.5)"/>
</clipPath>
</defs>
</svg>
