<svg width="92" height="90" viewBox="0 0 92 90" fill="none" xmlns="http://www.w3.org/2000/svg">
<g clip-path="url(#clip0_1035_4550)">
<path d="M56.2287 52.0835H33.2539V71.3755H56.2287V52.0835Z" fill="#5E51FE"/>
<path d="M45.7849 78.3833C64.3793 78.3833 79.4525 63.4865 79.4525 45.11C79.4525 26.7336 64.3793 11.8367 45.7849 11.8367C27.1908 11.8367 12.1172 26.7336 12.1172 45.11C12.1172 63.4865 27.1908 78.3833 45.7849 78.3833Z" stroke="#5E51FE" stroke-width="23.7322" stroke-linecap="round" stroke-linejoin="round"/>
<path d="M14.707 57.9072H23.7714C26.1755 57.9072 28.4809 56.9633 30.1809 55.2833C31.8808 53.6034 32.8358 51.3248 32.8358 48.949V41.2705C32.8358 38.8947 33.7907 36.6162 35.4907 34.9362C37.1905 33.2562 39.4961 32.3123 41.9002 32.3123C44.3041 32.3123 46.6097 31.3685 48.3097 29.6885C50.0095 28.0086 50.9645 25.73 50.9645 23.3541V12.1948" stroke="#5E51FE" stroke-width="23.7322" stroke-linecap="round" stroke-linejoin="round"/>
<path d="M79.4509 44.5983C76.8575 43.2685 73.9817 42.5667 71.06 42.5508H60.0273C57.6232 42.5508 55.3177 43.4945 53.6178 45.1745C51.9179 46.8545 50.9629 49.1331 50.9629 51.509C50.9629 53.8849 51.9179 56.1634 53.6178 57.8433C55.3177 59.5233 57.6232 60.4672 60.0273 60.4672C61.7444 60.4672 63.3915 61.1413 64.6055 62.3412C65.8197 63.5411 66.5018 65.1689 66.5018 66.8659V71.3193" stroke="#5E51FE" stroke-width="23.7322" stroke-linecap="round" stroke-linejoin="round"/>
<path d="M45.7849 78.3833C64.3793 78.3833 79.4525 63.4865 79.4525 45.11C79.4525 26.7336 64.3793 11.8367 45.7849 11.8367C27.1908 11.8367 12.1172 26.7336 12.1172 45.11C12.1172 63.4865 27.1908 78.3833 45.7849 78.3833Z" stroke="#F1D9FF" stroke-width="4.74645" stroke-linecap="round" stroke-linejoin="round"/>
<path d="M14.707 57.9072H23.7714C26.1755 57.9072 28.4809 56.9633 30.1809 55.2833C31.8808 53.6034 32.8358 51.3248 32.8358 48.949V41.2705C32.8358 38.8947 33.7907 36.6162 35.4907 34.9362C37.1905 33.2562 39.4961 32.3123 41.9002 32.3123C44.3041 32.3123 46.6097 31.3685 48.3097 29.6885C50.0095 28.0086 50.9645 25.73 50.9645 23.3541V12.1948" stroke="#F1D9FF" stroke-width="4.74645" stroke-linecap="round" stroke-linejoin="round"/>
<path d="M79.4509 44.5983C76.8575 43.2685 73.9817 42.5667 71.06 42.5508H60.0273C57.6232 42.5508 55.3177 43.4945 53.6178 45.1745C51.9179 46.8545 50.9629 49.1331 50.9629 51.509C50.9629 53.8849 51.9179 56.1634 53.6178 57.8433C55.3177 59.5233 57.6232 60.4672 60.0273 60.4672C61.7444 60.4672 63.3915 61.1413 64.6055 62.3412C65.8197 63.5411 66.5018 65.1689 66.5018 66.8659V71.3193" stroke="#F1D9FF" stroke-width="4.74645" stroke-linecap="round" stroke-linejoin="round"/>
</g>
<defs>
<clipPath id="clip0_1035_4550">
<rect width="91" height="90" fill="white" transform="translate(0.5)"/>
</clipPath>
</defs>
</svg>
