<svg width="95" height="58" viewBox="0 0 95 58" fill="none" xmlns="http://www.w3.org/2000/svg">
<rect x="0.96814" y="6.03015" width="90" height="52" rx="12" transform="rotate(-3.59628 0.96814 6.03015)" fill="#CB73FE"/>
<path d="M30.1451 41.7323C28.5642 41.8316 27.1218 41.6798 25.818 41.2768C24.5141 40.8738 23.3714 40.2292 22.3899 39.343C21.4304 38.4555 20.6656 37.3352 20.0956 35.9823C19.5242 34.6074 19.1806 32.9978 19.0647 31.1535C18.9018 28.5626 19.2181 26.4045 20.0135 24.6792C20.8294 22.9306 22.0125 21.5887 23.5629 20.6536C25.1133 19.7185 26.8985 19.1875 28.9186 19.0606C30.4775 18.9626 31.9089 19.1151 33.2127 19.5181C34.5166 19.9211 35.6483 20.5664 36.6078 21.454C37.5893 22.3401 38.3665 23.4816 38.9392 24.8785C39.5325 26.252 39.8872 27.8609 40.0031 29.7052C40.1231 31.6155 39.9645 33.3007 39.5273 34.761C39.1106 36.198 38.4598 37.4182 37.575 38.4217C36.7122 39.4238 35.6482 40.2071 34.3832 40.7715C33.1167 41.3141 31.704 41.6343 30.1451 41.7323ZM30.0489 37.5721C31.1248 37.5045 32.0085 37.1844 32.6999 36.6119C33.412 36.0161 33.9229 35.2015 34.2326 34.168C34.563 33.1112 34.682 31.8472 34.5895 30.3761C34.4915 28.8172 34.2111 27.5122 33.7483 26.4612C33.2841 25.3882 32.6505 24.6014 31.8475 24.1008C31.0651 23.5768 30.1249 23.3493 29.0271 23.4183C27.9732 23.4846 27.0902 23.8156 26.3782 24.4114C25.6867 24.9839 25.1765 25.8096 24.8475 26.8883C24.5172 27.9451 24.3996 29.231 24.4948 30.7461C24.5666 31.8878 24.7405 32.9019 25.0167 33.7883C25.3134 34.6514 25.6897 35.3772 26.1455 35.9658C26.5999 36.5324 27.1559 36.9604 27.8133 37.2497C28.4913 37.5157 29.2365 37.6232 30.0489 37.5721ZM50.221 40.4705C48.1571 40.6002 46.5547 40.0066 45.4138 38.6895C44.2936 37.3492 43.6437 35.2518 43.4643 32.3974L42.8744 23.011L48.2099 22.6756L48.7563 31.3705C48.8584 32.9953 49.1766 34.1987 49.7107 34.9807C50.2434 35.7408 51.0038 36.0898 51.9918 36.0277C52.5847 35.9904 53.0807 35.816 53.4799 35.5043C53.8997 35.1693 54.2358 34.7294 54.4881 34.1845C54.761 33.6162 54.9413 32.9767 55.0288 32.2658C55.1384 31.5535 55.1669 30.7802 55.1145 29.9458L54.6322 22.272L59.9347 21.9387L60.5847 32.2803L61.0277 39.3284L56.812 39.5934L56.3758 34.2312L55.7171 34.2726C55.4733 35.6546 55.1265 36.8006 54.6767 37.7106C54.2474 38.5973 53.672 39.2617 52.9503 39.7038C52.2286 40.1459 51.3189 40.4015 50.221 40.4705ZM65.1047 39.0722L64.5975 31.0031L64.0117 21.6825L68.3591 21.4093L68.8285 27.2984L69.4872 27.257C69.5443 25.7104 69.7531 24.4738 70.1137 23.5474C70.4949 22.5976 71.0676 21.8893 71.8318 21.4225C72.618 20.9542 73.6039 20.6828 74.7896 20.6083C74.9652 20.5973 75.1635 20.5958 75.3845 20.604C75.604 20.5902 75.8579 20.5963 76.1461 20.6223L76.3045 26.2995C75.9422 26.1459 75.551 26.0603 75.1311 26.0426C74.7317 26.0016 74.3784 25.9907 74.071 26.01C73.2147 26.0638 72.4785 26.2754 71.8624 26.6448C71.2684 27.0128 70.8061 27.5489 70.4756 28.253C70.1671 28.9557 69.9903 29.8265 69.9454 30.8654L70.4401 38.7368L65.1047 39.0722Z" fill="white"/>
</svg>
