<svg width="178" height="69" viewBox="0 0 178 69" fill="none" xmlns="http://www.w3.org/2000/svg">
<rect x="5.7655" y="0.384888" width="172" height="52" rx="12" transform="rotate(5.29345 5.7655 0.384888)" fill="#5E51FE"/>
<path d="M28.1218 40.0786C26.7198 39.9487 25.4614 39.6996 24.3466 39.3312C23.2319 38.9628 22.2826 38.4771 21.4989 37.8742C20.7172 37.2494 20.124 36.4985 19.7191 35.6214C19.3143 34.7443 19.1189 33.7541 19.1327 32.6507L23.909 31.5355C23.8894 32.4617 24.0813 33.2528 24.4845 33.9088C24.8877 34.5648 25.4584 35.0816 26.1967 35.4593C26.959 35.8172 27.822 36.0408 28.7859 36.1301C29.7059 36.2153 30.4828 36.1768 31.1165 36.0146C31.7741 35.8325 32.2725 35.5804 32.6116 35.2583C32.9747 34.9163 33.1756 34.5372 33.2141 34.121C33.2588 33.6391 33.0872 33.2255 32.6994 32.8803C32.3136 32.5131 31.7694 32.1865 31.0668 31.9005C30.3662 31.5925 29.5442 31.2844 28.6006 30.976C27.5296 30.6116 26.4826 30.2274 25.4595 29.8233C24.4365 29.4192 23.5201 28.9366 22.7104 28.3755C21.9027 27.7925 21.2825 27.0943 20.8497 26.2809C20.4408 25.4476 20.2912 24.4395 20.4008 23.2566C20.5246 21.9203 20.9717 20.7907 21.7421 19.8679C22.5126 18.945 23.5803 18.2707 24.9454 17.8448C26.3126 17.397 27.96 17.2624 29.8878 17.441C31.7936 17.6176 33.3893 18.0416 34.6748 18.7131C35.9604 19.3845 36.9189 20.2467 37.5505 21.2994C38.1841 22.3303 38.4739 23.495 38.4198 24.7935L33.5633 25.7023C33.6221 25.0671 33.5644 24.4983 33.39 23.9961C33.2375 23.4959 32.9892 23.0752 32.6452 22.734C32.3033 22.3709 31.8656 22.0873 31.3321 21.8832C30.8007 21.6572 30.1845 21.5118 29.4835 21.4468C28.6511 21.3697 27.93 21.4023 27.3202 21.5446C26.7324 21.689 26.2809 21.9123 25.9657 22.2145C25.6525 22.4948 25.4766 22.8431 25.438 23.2593C25.3893 23.7851 25.5678 24.2435 25.9734 24.6346C26.403 25.0058 26.99 25.3474 27.7344 25.6594C28.5027 25.9515 29.3477 26.2508 30.2694 26.5571C31.1931 26.8415 32.1446 27.1838 33.1238 27.5838C34.1051 27.962 35.0116 28.4326 35.8432 28.9957C36.6748 29.5588 37.3149 30.281 37.7635 31.1621C38.2361 32.0234 38.4145 33.0784 38.2988 34.327C38.175 35.6633 37.705 36.8018 36.8887 37.7425C36.0964 38.6633 34.9629 39.3316 33.4882 39.7473C32.0136 40.163 30.2248 40.2735 28.1218 40.0786ZM49.1584 42.0277C47.7126 41.8938 46.4374 41.5878 45.3327 41.1099C44.2302 40.61 43.3081 39.9501 42.5666 39.1302C41.847 38.3123 41.3298 37.3365 41.0151 36.2026C40.7003 35.0687 40.6089 33.7898 40.7408 32.3659C40.8687 30.9858 41.1836 29.7336 41.6855 28.6091C42.2093 27.4866 42.8821 26.5437 43.7041 25.7802C44.5499 24.9969 45.5418 24.426 46.6798 24.0675C47.8396 23.7109 49.1096 23.5966 50.4897 23.7245C51.8916 23.8544 53.0971 24.198 54.106 24.7555C55.1388 25.2931 55.9541 26.0314 56.552 26.9706C57.1718 27.9118 57.5872 29.0329 57.7981 30.3339C58.011 31.613 57.9875 33.058 57.7278 34.6689L44.1478 33.5101L44.4035 30.75L54.9605 31.6287L52.9688 32.7366C53.2236 31.6555 53.2401 30.7622 53.0182 30.0568C52.7984 29.3294 52.4289 28.787 51.9096 28.4295C51.3924 28.0502 50.8162 27.8311 50.1809 27.7723C49.4142 27.7012 48.7158 27.8464 48.0858 28.2078C47.4777 28.5713 46.9728 29.1321 46.5711 29.8903C46.1694 30.6484 45.9158 31.5971 45.8103 32.7362C45.6439 34.5325 45.9065 35.8715 46.5981 36.753C47.3116 37.6366 48.2708 38.1342 49.4756 38.2459C50.0671 38.3007 50.5671 38.2697 50.9756 38.1528C51.3862 38.0141 51.7231 37.8354 51.9864 37.6168C52.2736 37.3783 52.4971 37.1118 52.657 36.8173C52.8388 36.5248 52.9866 36.2402 53.1006 35.9636L57.6096 37.3756C57.3593 38.1699 57.0065 38.8773 56.5513 39.498C56.118 40.1207 55.5504 40.6425 54.8486 41.0636C54.1687 41.4866 53.3575 41.776 52.4151 41.9318C51.4926 42.1114 50.407 42.1434 49.1584 42.0277ZM60.2389 42.5904L60.9848 34.5398L61.8464 25.2407L66.1838 25.6425L65.7374 31.5335L66.3946 31.5944C66.69 30.0752 67.0874 28.8857 67.5869 28.0262C68.1102 27.1467 68.7855 26.5354 69.6127 26.1922C70.4618 25.8511 71.4778 25.7354 72.6607 25.845C72.836 25.8612 73.0321 25.8904 73.2492 25.9326C73.4682 25.9529 73.7181 25.9982 73.9988 26.0684L73.278 31.7019C72.9438 31.4942 72.5706 31.3491 72.1584 31.2667C71.7702 31.1645 71.4227 31.0991 71.116 31.0707C70.2617 30.9916 69.5017 31.0869 68.8359 31.3566C68.1921 31.6284 67.6526 32.0865 67.2172 32.7311C66.8038 33.3777 66.4946 34.2108 66.2897 35.2302L65.5621 43.0836L60.2389 42.5904ZM79.4236 44.3679L75.3433 26.5243L81.2252 27.0693L83.2902 40.5503L83.8489 40.6021L88.4213 27.736L94.0403 28.2566L86.7183 45.0437L79.4236 44.3679ZM94.7347 45.7865L96.3422 28.4368L101.633 28.9269L100.025 46.2766L94.7347 45.7865ZM99.2291 26.2518C98.2214 26.1584 97.463 25.8783 96.9539 25.4113C96.4687 24.9245 96.2627 24.2867 96.3358 23.4981C96.4129 22.6657 96.7336 22.0657 97.2979 21.6982C97.8862 21.3108 98.6841 21.1638 99.6918 21.2572C100.721 21.3526 101.479 21.6437 101.964 22.1305C102.473 22.5975 102.69 23.2362 102.615 24.0468C102.54 24.8573 102.208 25.4562 101.62 25.8436C101.056 26.2111 100.259 26.3472 99.2291 26.2518ZM112.276 47.8757C110.787 47.7377 109.491 47.4078 108.391 46.886C107.29 46.3643 106.392 45.6845 105.697 44.8468C105.003 43.9871 104.499 42.9903 104.184 41.8565C103.891 40.7246 103.808 39.4796 103.933 38.1214C104.063 36.7194 104.378 35.4671 104.878 34.3646C105.4 33.264 106.083 32.333 106.926 31.5716C107.77 30.8102 108.771 30.2622 109.929 29.9276C111.089 29.5711 112.392 29.4598 113.837 29.5938C115.283 29.7277 116.511 30.0734 117.519 30.6309C118.528 31.1883 119.323 31.9137 119.903 32.807C120.505 33.7024 120.876 34.7089 121.015 35.8265L115.967 37.0159C115.968 36.2869 115.848 35.6792 115.605 35.1928C115.363 34.7063 115.021 34.3432 114.58 34.1035C114.162 33.8438 113.69 33.6896 113.164 33.6409C112.617 33.5902 112.124 33.6551 111.688 33.8356C111.251 34.016 110.87 34.3122 110.545 34.7239C110.22 35.1356 109.951 35.652 109.739 36.2731C109.529 36.8723 109.386 37.5771 109.311 38.3877C109.203 39.5487 109.255 40.5367 109.467 41.3517C109.703 42.1468 110.087 42.768 110.62 43.215C111.175 43.6641 111.869 43.9273 112.701 44.0044C113.555 44.0835 114.24 43.9702 114.754 43.6644C115.269 43.3585 115.659 42.9638 115.924 42.4803C116.192 41.9748 116.371 41.4722 116.462 40.9724L120.968 42.4173C120.805 43.2197 120.513 43.988 120.091 44.7223C119.694 45.4366 119.139 46.0591 118.427 46.5897C117.717 47.0983 116.854 47.4713 115.838 47.7086C114.843 47.9479 113.656 48.0036 112.276 47.8757ZM131.114 49.6211C129.668 49.4871 128.393 49.1811 127.288 48.7032C126.186 48.2033 125.264 47.5435 124.522 46.7236C123.803 45.9057 123.285 44.9298 122.971 43.7959C122.656 42.6621 122.565 41.3832 122.696 39.9593C122.824 38.5792 123.139 37.3269 123.641 36.2024C124.165 35.0799 124.838 34.137 125.66 33.3736C126.506 32.5903 127.497 32.0193 128.635 31.6608C129.795 31.3043 131.065 31.1899 132.445 31.3178C133.847 31.4477 135.053 31.7914 136.062 32.3488C137.094 32.8864 137.91 33.6248 138.508 34.564C139.127 35.5052 139.543 36.6263 139.754 37.9273C139.967 39.2064 139.943 40.6514 139.683 42.2623L126.103 41.1035L126.359 38.3433L136.916 39.222L134.924 40.33C135.179 39.2489 135.196 38.3556 134.974 37.6501C134.754 36.9227 134.384 36.3803 133.865 36.0229C133.348 35.6436 132.772 35.4245 132.137 35.3656C131.37 35.2946 130.671 35.4397 130.041 35.8012C129.433 36.1646 128.928 36.7254 128.527 37.4836C128.125 38.2418 127.871 39.1904 127.766 40.3295C127.599 42.1259 127.862 43.4648 128.554 44.3464C129.267 45.23 130.226 45.7276 131.431 45.8392C132.023 45.894 132.523 45.863 132.931 45.7462C133.342 45.6075 133.679 45.4288 133.942 45.2101C134.229 44.9716 134.453 44.7051 134.613 44.4106C134.794 44.1181 134.942 43.8336 135.056 43.5569L139.565 44.9689C139.315 45.7632 138.962 46.4707 138.507 47.0913C138.074 47.714 137.506 48.2359 136.804 48.6569C136.124 49.08 135.313 49.3694 134.371 49.5251C133.448 49.7048 132.363 49.7367 131.114 49.6211ZM149.41 51.3162C148.249 51.2086 147.208 51.0017 146.286 50.6953C145.362 50.4109 144.568 50.0391 143.904 49.5798C143.239 49.1206 142.702 48.5958 142.293 48.0055C141.908 47.3954 141.659 46.7426 141.546 46.0473L145.651 44.6711C145.77 45.0577 145.997 45.4654 146.333 45.8942C146.693 46.3032 147.179 46.6575 147.792 46.9574C148.427 47.2592 149.204 47.4528 150.125 47.538C151.001 47.6192 151.691 47.5616 152.195 47.3653C152.724 47.1491 153.01 46.8001 153.055 46.3181C153.087 45.9676 152.97 45.6806 152.704 45.4571C152.461 45.2137 152.073 44.9899 151.539 44.7858C151.008 44.5598 150.344 44.3326 149.548 44.1042C148.732 43.8518 147.907 43.5765 147.073 43.2783C146.241 42.9582 145.47 42.5664 144.762 42.1031C144.056 41.6179 143.503 41.0254 143.104 40.3256C142.729 39.6059 142.589 38.7312 142.684 37.7017C142.784 36.6283 143.155 35.7236 143.797 34.9878C144.442 34.23 145.344 33.6729 146.504 33.3164C147.686 32.9619 149.087 32.8597 150.708 33.0099C152.154 33.1439 153.407 33.4478 154.468 33.9217C155.529 34.3956 156.388 35.0165 157.046 35.7845C157.728 36.5326 158.167 37.4018 158.362 38.392L153.984 39.5108C153.919 39.0187 153.727 38.5812 153.409 38.1982C153.113 37.8173 152.71 37.5148 152.201 37.2909C151.715 37.047 151.122 36.8926 150.421 36.8277C149.567 36.7485 148.886 36.8181 148.38 37.0363C147.896 37.2565 147.633 37.5857 147.592 38.0238C147.56 38.3743 147.686 38.6843 147.97 38.9537C148.279 39.2032 148.721 39.432 149.299 39.6401C149.876 39.8483 150.562 40.0775 151.356 40.3279C152.194 40.5823 153.018 40.8685 153.828 41.1866C154.662 41.4849 155.401 41.8626 156.043 42.3198C156.71 42.7572 157.211 43.3117 157.546 43.9836C157.906 44.6355 158.04 45.4543 157.948 46.4401C157.841 47.6012 157.441 48.5804 156.748 49.3779C156.058 50.1535 155.089 50.7155 153.841 51.0639C152.618 51.3925 151.141 51.4766 149.41 51.3162Z" fill="white"/>
</svg>
