<svg width="80" height="94" viewBox="0 0 80 94" fill="none" xmlns="http://www.w3.org/2000/svg">
<path d="M25.3189 12.5107L13.3461 40.2383C13.1805 40.6339 13.1165 41.0633 13.1595 41.4888C13.2027 41.9144 13.3516 42.323 13.5933 42.6788C13.835 43.0345 14.1621 43.3266 14.5458 43.5294C14.9295 43.7322 15.3581 43.8393 15.7938 43.8413H30.6402L19.9977 80.3938L65.7076 37.8886C66.0876 37.5295 66.3499 37.0679 66.4616 36.5622C66.5734 36.0567 66.5297 35.5297 66.3355 35.0485C66.1419 34.5674 65.8066 34.1536 65.3729 33.8597C64.9386 33.5658 64.4257 33.405 63.8983 33.3978H43.9435L54.5861 12.5107H25.3189Z" stroke="#5E51FE" stroke-width="23" stroke-linecap="round" stroke-linejoin="round"/>
<path d="M45.9605 19.2305H22.3574V38.91H45.9605V19.2305Z" fill="#5E51FE"/>
<path d="M25.3189 12.5107L13.3461 40.2383C13.1805 40.6339 13.1165 41.0633 13.1595 41.4888C13.2027 41.9144 13.3516 42.323 13.5933 42.6788C13.835 43.0345 14.1621 43.3266 14.5458 43.5294C14.9295 43.7322 15.3581 43.8393 15.7938 43.8413H30.6402L19.9977 80.3938L65.7076 37.8886C66.0876 37.5295 66.3499 37.0679 66.4616 36.5622C66.5734 36.0567 66.5297 35.5297 66.3355 35.0485C66.1419 34.5674 65.8066 34.1536 65.3729 33.8597C64.9386 33.5658 64.4257 33.405 63.8983 33.3978H43.9435L54.5861 12.5107H25.3189Z" stroke="#F1D9FF" stroke-width="4.74645" stroke-linecap="round" stroke-linejoin="round"/>
</svg>
