<svg width="263" height="221" viewBox="0 0 263 221" fill="none" xmlns="http://www.w3.org/2000/svg">
<path d="M261.891 9.15995V103.39C261.891 108.216 257.979 112.127 253.156 112.127H131.532C126.703 112.127 122.796 108.214 122.796 103.39V9.15995C122.796 4.3346 126.703 0.423096 131.532 0.423096H253.156C257.981 0.423096 261.891 4.33594 261.891 9.15995Z" fill="#B6B0FF"/>
<path d="M253.157 112.549H131.533C126.484 112.549 122.375 108.44 122.375 103.389V9.16008C122.375 4.10964 126.484 0 131.533 0H253.157C258.207 0 262.316 4.10964 262.316 9.16008V103.391C262.316 108.441 258.207 112.551 253.157 112.551V112.549ZM131.533 0.845111C126.95 0.845111 123.219 4.57465 123.219 9.16008V103.391C123.219 107.976 126.949 111.706 131.533 111.706H253.157C257.742 111.706 261.471 107.976 261.471 103.391V9.16008C261.471 4.57465 257.742 0.845111 253.157 0.845111H131.533Z" fill="#341E61"/>
<path d="M245.061 13.5151H225.88V17.7636H245.061V13.5151Z" fill="#C2F963"/>
<path d="M239.239 22.8258H220.057V27.1754H239.239V22.8258Z" fill="#D4E8E8"/>
<path d="M251.024 33.7181H189.899V37.697H251.024V33.7181Z" fill="#F1D9FF"/>
<path d="M238.154 41.8755H174.456V45.8544H238.154V41.8755Z" fill="#D4E8E8"/>
<path d="M223.134 50.0327H180.367V54.0116H223.134V50.0327Z" fill="#D4E8E8"/>
<path d="M231.821 58.1901H138.928V62.169H231.821V58.1901Z" fill="#8670C5"/>
<path d="M223.737 66.3474H202.504V70.3263H223.737V66.3474Z" fill="#C2F963"/>
<path d="M249.072 74.5048H230.794V78.4837H249.072V74.5048Z" fill="#D4E8E8"/>
<path d="M237.309 98.5151H146.889V101.656H237.309V98.5151Z" fill="#341E61"/>
<path d="M237.308 84.8065H175.179V93.1538H237.308V84.8065Z" fill="#F1D9FF"/>
<path d="M151.175 33.5457L138.162 27.886V24.7522L151.175 19.1195V22.81L142.098 26.2807L151.175 29.8809V33.5457Z" fill="#341E61"/>
<path d="M152.377 36.0315L157.078 16.3999H159.81L155.058 36.0315H152.377Z" fill="#341E61"/>
<path d="M161.015 33.5579V29.893L170.105 26.3198L161.015 22.7844V19.1451L174.04 24.7779V27.886L161.015 33.5579Z" fill="#341E61"/>
<path d="M161.057 125.653C161.057 125.653 160.952 118.721 173.974 122.607C186.997 126.493 191.238 134.58 189.274 137.102C187.311 139.622 178.525 142.879 178.525 142.879L164.822 139.517L161.057 125.653Z" fill="#341E61"/>
<path d="M193.69 116.102C191.239 123.03 182.128 131.805 182.128 131.805L178.216 141.073L162.101 132.899L166.506 119.945C165.42 118.007 164.812 110.446 167.382 105.579C169.948 100.716 172.951 101.951 172.951 101.951C175.406 97.1174 179.387 99.5894 179.387 99.5894C182.316 94.8786 186.046 99.2107 186.046 99.2107C186.046 99.2107 188.361 94.7843 189.147 93.3852C189.929 91.9821 193.359 85.4463 195.978 87.5638C198.598 89.6867 192.334 105.219 192.334 105.219C192.334 105.219 196.584 107.922 193.687 116.101L193.69 116.102Z" fill="#FFC8AC"/>
<path d="M178.219 141.495C178.153 141.495 178.088 141.48 178.027 141.449L161.912 133.276C161.725 133.181 161.636 132.961 161.703 132.762L166.051 119.979C164.897 117.59 164.51 110.117 167.012 105.383C169.222 101.195 171.79 101.257 172.741 101.454C173.561 99.9752 174.618 99.0478 175.883 98.6934C177.325 98.2917 178.633 98.7513 179.247 99.0398C180.126 97.7647 181.161 97.0732 182.327 96.9829C183.905 96.8616 185.278 97.8927 185.944 98.506C186.578 97.297 188.162 94.2859 188.782 93.182L188.898 92.973C190.256 90.5091 192.307 87.1853 194.429 86.7702C195.089 86.6394 195.702 86.7985 196.248 87.2392C198.903 89.3904 193.883 102.481 192.849 105.082C193.806 105.886 196.651 109.013 194.089 116.245C191.712 122.962 183.363 131.196 182.484 132.05L178.606 141.239C178.56 141.347 178.472 141.431 178.362 141.472C178.315 141.489 178.266 141.497 178.216 141.497L178.219 141.495ZM162.622 132.688L178.006 140.491L181.742 131.639C181.765 131.587 181.797 131.539 181.837 131.499C181.928 131.411 190.905 122.714 193.294 115.961C196.03 108.236 192.271 105.682 192.111 105.577C191.941 105.466 191.872 105.251 191.948 105.063C194.325 99.1692 197.45 89.2961 195.718 87.8943C195.372 87.6139 195.006 87.5169 194.593 87.5978C193.279 87.8552 191.612 89.8002 189.639 93.3787L189.52 93.593C188.746 94.9719 186.448 99.3646 186.424 99.4091C186.359 99.5331 186.236 99.6167 186.097 99.6328C185.955 99.645 185.821 99.5951 185.729 99.4886C185.713 99.4711 184.147 97.6798 182.389 97.8253C181.41 97.9022 180.522 98.5721 179.75 99.8148C179.627 100.013 179.366 100.074 179.168 99.9509C179.154 99.9428 177.693 99.0627 176.102 99.5102C174.991 99.8242 174.059 100.71 173.329 102.144C173.23 102.339 172.995 102.426 172.792 102.343C172.685 102.302 170.095 101.347 167.757 105.778C165.216 110.587 165.911 118.019 166.875 119.739C166.933 119.844 166.946 119.968 166.906 120.081L162.619 132.688H162.622Z" fill="#341E61"/>
<path d="M192.342 105.22C192.342 105.22 189.473 110.022 189.332 110.609C188.976 112.083 190.368 113.6 190.368 113.6" fill="white"/>
<path d="M190.366 114.023C190.251 114.023 190.138 113.977 190.054 113.887C189.991 113.818 188.514 112.184 188.92 110.51C189.065 109.909 191.298 106.143 191.979 105.004C192.099 104.803 192.359 104.739 192.558 104.859C192.759 104.979 192.824 105.237 192.704 105.438C191.322 107.75 189.837 110.354 189.74 110.711C189.442 111.944 190.665 113.303 190.677 113.316C190.835 113.489 190.822 113.756 190.65 113.914C190.569 113.988 190.467 114.024 190.364 114.024L190.366 114.023Z" fill="#341E61"/>
<path d="M186.052 99.2104C186.052 99.2104 185.381 101.732 185.104 103.816L186.052 99.2104Z" fill="white"/>
<path d="M185.105 104.238C185.086 104.238 185.067 104.238 185.048 104.234C184.817 104.203 184.654 103.99 184.685 103.76C184.964 101.673 185.617 99.2053 185.645 99.1015C185.704 98.8751 185.936 98.7416 186.162 98.8009C186.388 98.8616 186.522 99.0921 186.463 99.3185C186.456 99.3441 185.796 101.839 185.524 103.872C185.495 104.083 185.313 104.238 185.106 104.238H185.105Z" fill="#341E61"/>
<path d="M179.39 99.5907C179.39 99.5907 178.262 102.094 178.699 104.734L179.39 99.5907Z" fill="white"/>
<path d="M178.7 105.156C178.496 105.156 178.317 105.009 178.283 104.803C177.831 102.068 178.957 99.5236 179.006 99.4171C179.101 99.2041 179.351 99.1111 179.565 99.2055C179.778 99.3012 179.872 99.5519 179.777 99.7649C179.766 99.7891 178.707 102.19 179.118 104.666C179.155 104.896 179 105.113 178.77 105.151C178.747 105.155 178.723 105.156 178.701 105.156H178.7Z" fill="#341E61"/>
<path d="M172.957 101.949C172.957 101.949 172.656 103.676 172.729 105.44L172.957 101.949Z" fill="white"/>
<path d="M172.727 105.862C172.502 105.862 172.315 105.684 172.305 105.457C172.231 103.668 172.526 101.948 172.539 101.877C172.579 101.646 172.797 101.494 173.028 101.533C173.258 101.573 173.412 101.792 173.371 102.022C173.369 102.04 173.08 103.729 173.149 105.424C173.158 105.657 172.978 105.854 172.745 105.864C172.739 105.864 172.733 105.864 172.727 105.864V105.862Z" fill="#341E61"/>
<path d="M105.043 132.345C105.043 132.345 113.621 132.51 120.872 135.042C128.122 137.576 146.339 167.291 146.339 167.291L161.056 125.652C166.644 135.315 175.569 139.868 189.273 137.1C189.273 137.1 172.868 198.776 145.455 194.53C115.344 189.867 103.01 151.372 103.01 151.372L105.043 132.344V132.345Z" fill="#F1D9FF"/>
<path d="M87.7857 132.731C81.1605 133.361 61.5424 137.21 61.5424 137.21C55.1085 138.834 50.955 145.074 51.9415 151.637L60.9251 213.042C61.8914 223.861 133.308 222.575 132.341 211.756L117.673 142.433C116.463 136.922 111.815 132.837 106.196 132.346C106.196 132.346 92.3678 132.294 87.7857 132.731Z" fill="#F1D9FF"/>
<path d="M132.343 212.179C132.147 212.179 131.972 212.043 131.93 211.843L119.111 151.257C119.063 151.029 119.21 150.804 119.437 150.755C119.667 150.707 119.89 150.852 119.939 151.082L132.758 211.668C132.806 211.896 132.66 212.121 132.432 212.169C132.402 212.176 132.372 212.179 132.344 212.179H132.343Z" fill="#341E61"/>
<path d="M76.9536 185.007L77.5048 204.283L88.9426 204.216L92.739 204.109C90.6191 205.296 91.4169 207.139 93.1702 208.172C94.6837 209.066 100.046 210.527 101.543 209.178C103.039 207.829 103.07 206.43 103.07 206.43C103.07 206.43 104.915 206.593 105.762 205.68C107.039 204.311 106.57 203.092 106.57 203.092C106.57 203.092 108.09 203.723 109.243 201.829C110.371 199.984 108.561 198.125 108.473 198.037C108.57 198.08 110.547 198.976 113.381 198.561C116.286 198.134 117.156 196.96 116.628 195.383C116.102 193.807 98.4922 183.017 91.9613 182.881C85.4318 182.742 76.9536 185.008 76.9536 185.008V185.007Z" fill="#FFC8AC"/>
<path d="M99.4103 210.151C97.0762 210.151 94.0317 209.172 92.955 208.538C91.7474 207.826 91.0332 206.816 91.0439 205.838C91.048 205.479 91.1504 205.024 91.5143 204.567L88.9537 204.64L77.5065 204.706H77.5038C77.2747 204.706 77.0874 204.524 77.0807 204.295L76.5295 185.017C76.5241 184.822 76.6534 184.648 76.8435 184.597C76.9284 184.574 85.439 182.319 91.9698 182.456C98.537 182.593 116.365 193.264 117.029 195.246C117.293 196.036 117.245 196.733 116.886 197.318C116.361 198.17 115.236 198.713 113.442 198.976C111.826 199.213 110.483 199.045 109.568 198.829C110.014 199.654 110.34 200.839 109.603 202.046C108.824 203.327 107.797 203.631 107.075 203.615C107.085 204.187 106.918 205.056 106.068 205.966C105.347 206.742 104.079 206.857 103.432 206.861C103.312 207.428 102.945 208.478 101.824 209.489C101.297 209.964 100.418 210.148 99.4076 210.148L99.4103 210.151ZM92.7393 203.687C92.9293 203.687 93.0965 203.813 93.1463 203.997C93.1989 204.184 93.1153 204.382 92.9455 204.478C92.4671 204.745 91.897 205.199 91.8889 205.846C91.8809 206.508 92.455 207.26 93.3849 207.808C94.9172 208.713 99.9966 210.003 101.261 208.864C102.587 207.667 102.646 206.467 102.647 206.417C102.651 206.302 102.704 206.192 102.79 206.116C102.877 206.039 102.987 205.996 103.107 206.009C103.563 206.047 104.875 206.013 105.452 205.393C106.518 204.251 106.189 203.28 106.174 203.239C106.118 203.081 106.159 202.904 106.281 202.789C106.402 202.673 106.579 202.639 106.734 202.703C106.854 202.749 107.961 203.127 108.883 201.611C109.818 200.081 108.344 198.508 108.173 198.333C108.031 198.189 108.011 197.962 108.127 197.797C108.243 197.629 108.461 197.57 108.646 197.652C108.851 197.744 110.701 198.527 113.321 198.146C114.809 197.927 115.793 197.489 116.166 196.881C116.391 196.515 116.411 196.069 116.228 195.52C115.568 193.99 98.3861 183.44 91.9536 183.307C86.253 183.182 78.9944 184.931 77.3866 185.336L77.9162 203.862L88.9402 203.799L92.7272 203.691H92.7393V203.687Z" fill="#341E61"/>
<path d="M103.071 206.43C103.071 206.43 102.6 204.908 100.75 203.252C98.8997 201.595 95.0278 200.691 95.0278 200.691" fill="#FFC8AC"/>
<path d="M103.071 206.852C102.89 206.852 102.725 206.736 102.668 206.555C102.661 206.534 102.192 205.108 100.47 203.566C98.7193 202 94.9701 201.11 94.9324 201.102C94.7046 201.049 94.5644 200.822 94.617 200.594C94.6695 200.367 94.8987 200.225 95.1251 200.278C95.2868 200.316 99.1236 201.227 101.033 202.936C102.95 204.651 103.455 206.239 103.475 206.305C103.544 206.529 103.419 206.764 103.196 206.833C103.155 206.847 103.113 206.852 103.072 206.852H103.071Z" fill="#341E61"/>
<path d="M106.572 203.091C106.572 203.091 106.398 201.829 104.743 200.506C103.088 199.182 98.3711 197.326 98.3711 197.326" fill="#FFC8AC"/>
<path d="M106.57 203.514C106.364 203.514 106.183 203.363 106.152 203.153C106.148 203.128 105.95 202.014 104.477 200.836C102.89 199.568 98.2603 197.737 98.2145 197.72C97.9975 197.635 97.8911 197.388 97.976 197.171C98.0622 196.954 98.3075 196.848 98.5245 196.933C98.7199 197.01 103.32 198.828 105.005 200.176C106.772 201.588 106.981 202.975 106.989 203.033C107.022 203.264 106.86 203.478 106.628 203.509C106.609 203.512 106.589 203.513 106.57 203.513V203.514Z" fill="#341E61"/>
<path d="M95.2796 205.054C95.2513 205.054 95.223 205.051 95.1947 205.046L92.6516 204.524C92.4225 204.477 92.2756 204.253 92.3228 204.026C92.3699 203.798 92.5896 203.651 92.8214 203.697L95.3645 204.218C95.5936 204.266 95.7405 204.489 95.6933 204.717C95.6529 204.917 95.4763 205.054 95.2796 205.054Z" fill="#341E61"/>
<path d="M108.469 198.034C108.469 198.034 107.376 196.591 106.256 195.769C105.136 194.947 101.124 193.269 101.124 193.269" fill="#FFC8AC"/>
<path d="M108.47 198.456C108.342 198.456 108.217 198.398 108.133 198.288C108.122 198.275 107.063 196.884 106.008 196.109C104.942 195.326 101.003 193.675 100.964 193.659C100.748 193.568 100.647 193.322 100.737 193.106C100.827 192.89 101.074 192.789 101.29 192.879C101.455 192.948 105.361 194.586 106.508 195.428C107.664 196.277 108.761 197.717 108.807 197.778C108.949 197.964 108.911 198.229 108.726 198.369C108.649 198.427 108.56 198.456 108.471 198.456H108.47Z" fill="#341E61"/>
<path d="M83.8175 208.446C83.8175 208.446 28.1544 226.732 22.9793 209.755C17.8083 192.773 38.014 155.75 43.5867 147.791C49.158 139.831 63.0849 136.912 63.0849 136.912L66.4541 143.437C70.3502 150.988 69.4648 160.117 64.1913 166.778L46.7699 188.785L77.4524 177.933L83.8189 208.446H83.8175Z" fill="#F1D9FF"/>
<path d="M50.7225 216.586C50.5123 216.586 50.329 216.428 50.3034 216.214C50.2751 215.982 50.4408 215.771 50.6726 215.743C62.8934 214.277 80.5628 208.994 83.3255 208.153L77.137 178.492L46.9099 189.182C46.7334 189.245 46.5353 189.182 46.4261 189.03C46.317 188.876 46.3223 188.67 46.4382 188.522L63.8597 166.515C64.0039 166.333 64.2707 166.301 64.454 166.446C64.6373 166.591 64.6683 166.857 64.5227 167.041L48.011 187.898L77.3108 177.535C77.4254 177.493 77.5521 177.506 77.6585 177.565C77.765 177.624 77.8405 177.728 77.8647 177.847L84.2312 208.36C84.2756 208.572 84.1516 208.785 83.9428 208.849C83.746 208.909 64.0726 214.986 50.7737 216.583C50.7562 216.586 50.74 216.586 50.7225 216.586Z" fill="#341E61"/>
<path d="M121.835 204.83H195.167C196.549 204.83 197.799 204.012 198.357 202.748L216.775 160.918H141.169L121.836 204.83H121.835Z" fill="#8670C5"/>
<path d="M119.248 200.86L121.833 204.831L141.166 160.918H216.772L213.652 156.13H138.047L119.107 199.144C118.862 199.702 118.914 200.348 119.247 200.858L119.248 200.86Z" fill="#341E61"/>
<path d="M166.174 187.865L177.559 221.001H188.54L177.153 187.865H166.174Z" fill="#4C2BA0"/>
<path d="M163.239 187.865L172.165 215.603H146.916L143.751 221.001H177.559L166.174 187.865H163.239Z" fill="#341E61"/>
<path d="M138.447 217.867V221.001H91.7891V217.867C91.7891 214.493 94.5262 211.757 97.8981 211.757H132.341C135.714 211.757 138.447 214.495 138.447 217.867Z" fill="#341E61"/>
<path d="M72.5404 135.546C72.5404 135.546 73.4576 121.513 71.936 111.71L93.1019 119.853L94.7798 132.345C94.7798 140.229 79.1723 142.002 72.5404 135.546Z" fill="#FFC8AC"/>
<path d="M88.8648 125.748C93.7825 126.838 98.9454 126.57 103.037 123.036C119.231 109.048 101.305 81.7843 101.305 81.7843L72.2399 82.5068C72.2399 82.5068 64.9678 94.9341 64.7023 94.6133C64.4368 94.2925 72.3921 117.753 72.3921 117.753" fill="#FFC8AC"/>
<path d="M80.2614 108.249L76.8855 109.338C75.6281 106.675 71.9152 105.987 71.9152 105.987L73.1969 123.501C71.3789 124.413 42.7825 103.533 58.6999 91.3792C58.5678 91.4789 57.2485 87.19 57.1892 86.7938C56.9452 85.1669 56.9668 83.4093 57.6258 81.8754C58.363 80.1596 59.2902 79.5881 60.9101 78.7416C62.9572 77.6714 65.0043 76.6012 67.0515 75.531C68.3776 74.8382 69.7037 74.1441 71.0298 73.4513C72.9961 72.4228 74.965 71.3944 77.0027 70.5129C81.0255 68.7742 85.3866 67.615 89.7598 67.8859C94.1344 68.1555 98.5278 69.9832 101.289 73.3866C101.898 74.1373 102.435 74.9824 102.615 75.9313C102.795 76.8816 102.56 77.9531 101.831 78.588C101.102 79.2228 99.8512 79.2511 99.2273 78.5125C98.6828 77.8655 98.7583 76.8654 99.1787 76.1322C99.5992 75.3989 100.296 74.8719 100.975 74.3692C102.809 73.0092 104.819 71.6074 107.1 71.5818C110.355 71.5467 113.119 74.632 113.316 77.8803C113.513 81.13 111.548 84.2517 108.855 86.0794C106.162 87.9084 102.844 88.6026 99.5938 88.7603C97.6599 88.8546 95.4349 88.6322 94.2934 87.0687C93.3244 85.7424 93.5926 83.6789 94.8608 82.6356C96.1289 81.5924 98.1949 81.7191 99.3337 82.9025C100.793 84.4188 100.483 86.9622 99.4132 88.7738C97.8365 91.4452 94.8028 93.1921 91.7005 93.2136C88.5995 93.2352 85.5402 91.5315 83.9271 88.8816C85.6494 91.0773 85.6737 94.4415 83.9823 96.6615C82.9311 98.0417 81.2735 98.9016 79.5606 99.093C78.8719 99.1698 78.0013 98.9609 77.4973 99.5634C77 100.156 77.2803 100.919 77.5189 101.549C78.3693 103.804 79.3477 106.017 80.26 108.248L80.2614 108.249Z" fill="#341E61"/>
<path d="M98.7057 117.261C98.1787 118.24 97.1221 118.91 96.0116 118.97C94.9012 119.031 93.7785 118.48 93.1465 117.566" fill="#FFC8AC"/>
<path d="M75.3344 107.501C75.3344 107.501 67.6311 102.278 65.5974 108.74C63.5638 115.202 69.4639 119.548 75.771 117.97" fill="#FFC8AC"/>
<path d="M73.1645 118.72C70.616 118.72 68.2643 117.804 66.67 116.111C64.817 114.145 64.2941 111.482 65.1957 108.615C65.7307 106.916 66.6889 105.816 68.0447 105.345C71.2198 104.239 75.3962 107.034 75.5741 107.152C75.7668 107.283 75.8181 107.546 75.6873 107.739C75.5566 107.933 75.2938 107.982 75.1011 107.852C75.0607 107.825 71.0958 105.175 68.3223 106.143C67.2334 106.523 66.453 107.439 66.0029 108.868C65.197 111.432 65.6525 113.799 67.2859 115.532C69.2266 117.593 72.4408 118.369 75.6712 117.562C75.8976 117.505 76.1267 117.643 76.1833 117.869C76.2399 118.095 76.1024 118.325 75.876 118.381C74.965 118.609 74.0526 118.721 73.1658 118.721L73.1645 118.72Z" fill="#341E61"/>
<path d="M87.2739 35.1347C87.3129 36.5688 87.2092 37.9895 86.972 39.3804L92.4664 43.8163L88.0555 52.6475L81.208 50.9182C80.2376 51.9425 79.1635 52.8793 77.9937 53.7096L78.7417 60.7306L69.3807 63.855L65.7622 57.7936C64.3296 57.8354 62.9038 57.7303 61.513 57.493L57.0805 62.9883L48.2505 58.5767L49.9796 51.7282C48.9553 50.7578 48.0187 49.6835 47.1885 48.5136L40.1658 49.2616L37.0405 39.8967L43.1064 36.2804C43.0646 34.8476 43.1684 33.4269 43.4043 32.0346L37.9111 27.5934L42.3234 18.7649L49.1656 20.4928C50.1359 19.4685 51.2127 18.5276 52.3825 17.7001L51.6345 10.6804L60.9955 7.55603L64.614 13.6174C66.0479 13.5783 67.4724 13.6807 68.8632 13.9179L73.2971 8.42675L82.1271 12.8356L80.398 19.6841C81.4222 20.6546 82.3629 21.7315 83.1904 22.9015L90.2118 22.1494L93.3371 31.5143L87.2725 35.1347H87.2739Z" fill="#F1D9FF"/>
<path d="M76.3829 46.9014C82.5643 40.7191 82.5643 30.6957 76.3829 24.5134C70.2015 18.3312 60.1795 18.3312 53.9981 24.5134C47.8167 30.6957 47.8167 40.7191 53.9981 46.9014C60.1795 53.0836 70.2015 53.0836 76.3829 46.9014Z" fill="white"/>
<path d="M60.9925 36.5233L59.5438 37.3158C59.3888 37.0247 59.1934 36.8319 58.9575 36.7376C58.7217 36.6432 58.4576 36.6446 58.1638 36.7416C57.7743 36.8724 57.5088 37.1109 57.3659 37.4574C57.2231 37.8051 57.2581 38.293 57.4684 38.9238C57.7029 39.6261 57.9859 40.0816 58.3174 40.2919C58.6489 40.5035 59.0142 40.5426 59.4117 40.4092C59.7082 40.3108 59.9238 40.145 60.0559 39.9118C60.1893 39.68 60.2257 39.3444 60.1651 38.9063L61.789 38.6556C61.8645 39.4145 61.7365 40.0493 61.4036 40.5601C61.0707 41.0723 60.5249 41.4538 59.7635 41.7085C58.8983 41.997 58.1179 41.9538 57.4212 41.5805C56.7244 41.2071 56.215 40.5372 55.8943 39.5721C55.5681 38.5963 55.5722 37.7498 55.9078 37.0341C56.242 36.3171 56.8498 35.813 57.7285 35.5191C58.4481 35.2792 59.0734 35.2428 59.6004 35.4099C60.1287 35.5784 60.5923 35.9491 60.9898 36.5219L60.9925 36.5233Z" fill="#341E61"/>
<path d="M64.9683 38.5193L64.2608 36.3978L62.122 37.1108L61.6328 35.6457L63.7716 34.9327L63.064 32.8111L64.4899 32.3353L65.1974 34.4569L67.3416 33.7412L67.8308 35.2063L65.6866 35.922L66.3942 38.0435L64.9683 38.5193Z" fill="#341E61"/>
<path d="M71.6285 36.2965L70.9209 34.175L68.7822 34.8894L68.293 33.4242L70.4317 32.7099L69.7242 30.5883L71.15 30.1125L71.8576 32.2341L74.0017 31.5184L74.4909 32.9835L72.3468 33.6992L73.0543 35.8208L71.6285 36.2965Z" fill="#341E61"/>
<path d="M225.426 181.775C225.307 181.775 225.19 181.725 225.106 181.63C224.954 181.453 224.973 181.186 225.149 181.034C232.613 174.566 238.052 165.728 240.467 156.151C240.658 155.392 240.819 154.658 240.95 153.946C240.49 154.088 240.022 154.209 239.551 154.307C234.853 155.28 230.18 153.835 227.648 150.626C226.184 148.772 225.587 146.197 226.051 143.74C226.451 141.614 227.589 139.908 229.254 138.931C230.862 137.989 232.849 137.791 234.846 138.373C237.335 139.099 239.61 140.969 240.78 143.255C242.091 145.814 242.498 148.916 242.006 152.668C246.373 150.854 249.862 146.976 251.061 142.377C252.492 136.886 250.576 130.699 246.289 126.981C246.113 126.827 246.094 126.56 246.246 126.385C246.4 126.208 246.665 126.189 246.842 126.342C251.364 130.265 253.389 136.794 251.878 142.59C250.571 147.606 246.684 151.807 241.861 153.633C241.715 154.508 241.524 155.415 241.285 156.359C238.828 166.102 233.295 175.093 225.702 181.674C225.622 181.743 225.523 181.778 225.426 181.778V181.775ZM232.59 138.884C231.673 138.884 230.665 139.08 229.679 139.659C228.227 140.509 227.233 142.013 226.878 143.895C226.466 146.083 227.013 148.46 228.308 150.102C230.607 153.017 235.055 154.373 239.375 153.478C239.962 153.357 240.539 153.198 241.102 153.007C241.664 149.226 241.307 146.142 240.024 143.639C238.955 141.554 236.88 139.846 234.605 139.183C234.037 139.018 233.345 138.884 232.589 138.884H232.59Z" fill="#341E61"/>
<path d="M44.1504 117.368L4.92091 96.8927L0.0854492 125.872L44.1504 117.368Z" fill="#8670C5"/>
<path d="M42.2738 122.548L19.4023 127.215L25.2607 135.746L42.2738 122.548Z" fill="#D4E8E8"/>
<path d="M36.4821 87.9995L44.1948 109.099L23.0889 100.419L36.4821 87.9995Z" fill="white"/>
<path d="M44.1975 109.521C44.1436 109.521 44.0883 109.51 44.0371 109.489L22.9298 100.808C22.7963 100.753 22.6993 100.635 22.6737 100.493C22.6481 100.352 22.6966 100.206 22.8031 100.108L36.1977 87.6884C36.3014 87.5927 36.447 87.5549 36.5844 87.5873C36.7219 87.621 36.8338 87.7207 36.8823 87.8528L44.595 108.952C44.653 109.11 44.6112 109.287 44.4913 109.402C44.4104 109.479 44.3053 109.521 44.1988 109.521H44.1975ZM23.8624 100.279L43.4711 108.343L36.3055 88.7411L23.8624 100.279Z" fill="#341E61"/>
</svg>
