<svg width="255" height="244" viewBox="0 0 255 244" fill="none" xmlns="http://www.w3.org/2000/svg">
<path d="M1.2666 206.493H253.135" stroke="#341E61" stroke-width="2.5" stroke-linecap="round" stroke-linejoin="round"/>
<path d="M246.005 176.439V171.289H242.616C242.309 169.878 241.752 168.563 240.999 167.386L243.396 164.989L239.756 161.349L237.359 163.746C236.182 162.993 234.867 162.436 233.456 162.129V158.74H228.305V162.129C226.895 162.436 225.579 162.993 224.403 163.746L222.006 161.349L218.366 164.989L220.763 167.386C220.01 168.563 219.453 169.878 219.146 171.289H215.757V176.439H219.146C219.453 177.85 220.01 179.166 220.763 180.342L218.366 182.739L222.006 186.379L224.403 183.982C225.579 184.735 226.895 185.292 228.305 185.599V188.988H233.456V185.599C234.867 185.292 236.182 184.735 237.359 183.982L239.756 186.379L243.396 182.739L240.999 180.342C241.752 179.166 242.309 177.85 242.616 176.439H246.005ZM230.881 179.238C227.915 179.238 225.507 176.83 225.507 173.864C225.507 170.898 227.915 168.49 230.881 168.49C233.847 168.49 236.255 170.898 236.255 173.864C236.255 176.83 233.847 179.238 230.881 179.238Z" fill="#B6B0FF" stroke="#341E61" stroke-width="2.5" stroke-linecap="round" stroke-linejoin="round"/>
<path d="M48.852 41.7284V35.4848H44.7434C44.3699 33.7734 43.6954 32.179 42.7812 30.7519L45.6856 27.8475L41.2704 23.4324L38.366 26.3368C36.9389 25.4225 35.3446 24.748 33.6332 24.3745V20.266H27.3896V24.3745C25.6781 24.748 24.0838 25.4225 22.6567 26.3368L19.7523 23.4324L15.3372 27.8475L18.2416 30.7519C17.3273 32.179 16.6528 33.7734 16.2793 35.4848H12.1708V41.7284H16.2793C16.6528 43.4398 17.3273 45.0341 18.2416 46.4613L15.3372 49.3657L19.7523 53.7808L22.6567 50.8764C24.0838 51.7906 25.6781 52.4652 27.3896 52.8387V56.9472H33.6332V52.8387C35.3446 52.4652 36.9389 51.7906 38.366 50.8764L41.2704 53.7808L45.6856 49.3657L42.7812 46.4613C43.6954 45.0341 44.3699 43.4398 44.7434 41.7284H48.852ZM30.5114 45.1233C26.9101 45.1233 23.9946 42.2022 23.9946 38.6066C23.9946 35.0109 26.9157 32.0898 30.5114 32.0898C34.107 32.0898 37.0281 35.0109 37.0281 38.6066C37.0281 42.2022 34.107 45.1233 30.5114 45.1233Z" fill="#F1D9FF" stroke="#341E61" stroke-width="2.5" stroke-linecap="round" stroke-linejoin="round"/>
<path d="M165.769 138.214H151.425V152.558H165.769V138.214Z" fill="#B6B0FF" stroke="#341E61" stroke-width="2.5" stroke-linecap="round" stroke-linejoin="round"/>
<path d="M184.204 138.214H169.861V152.558H184.204V138.214Z" fill="#F1D9FF" stroke="#341E61" stroke-width="2.5" stroke-linecap="round" stroke-linejoin="round"/>
<path d="M202.634 138.214H188.29V152.558H202.634V138.214Z" fill="white" stroke="#341E61" stroke-width="2.5" stroke-linecap="round" stroke-linejoin="round"/>
<path d="M221.069 138.214H206.726V152.558H221.069V138.214Z" fill="#341E61" stroke="#341E61" stroke-width="2.5" stroke-linecap="round" stroke-linejoin="round"/>
<path d="M62.9726 2.03125H235.012C237.465 2.03125 239.455 4.0214 239.455 6.47424V119.01C239.455 121.462 237.465 123.453 235.012 123.453H62.9726C60.5198 123.453 58.5296 121.462 58.5296 119.01V6.47424C58.5296 4.0214 60.5198 2.03125 62.9726 2.03125Z" fill="white" stroke="#B6B0FF" stroke-width="2.5" stroke-linecap="round" stroke-linejoin="round"/>
<path d="M176.472 37.7202H69.2383V80.2771H176.472V37.7202Z" fill="white" stroke="#B6B0FF" stroke-width="2.5" stroke-linecap="round" stroke-linejoin="round"/>
<path d="M239.455 12.4893V6.47424C239.455 4.0214 237.465 2.03125 235.012 2.03125H62.9726C60.5198 2.03125 58.5296 4.0214 58.5296 6.47424V12.4893H239.455Z" fill="#B6B0FF" stroke="#341E61" stroke-width="2.5" stroke-linecap="round" stroke-linejoin="round"/>
<path d="M58.5296 115.966V119.015C58.5296 121.468 60.5198 123.458 62.9726 123.458H235.012C237.465 123.458 239.455 121.468 239.455 119.015V115.966H58.5296Z" fill="white" stroke="#B6B0FF" stroke-width="2.5" stroke-linecap="round" stroke-linejoin="round"/>
<path d="M242.616 58.8982H202.952V82.9026H242.616V58.8982Z" fill="white" stroke="#341E61" stroke-width="2.5" stroke-linecap="round" stroke-linejoin="round"/>
<path d="M225.83 71.224L219.737 74.6189V67.1768L225.83 71.224Z" fill="#B6B0FF" stroke="#341E61" stroke-width="2.5" stroke-linecap="round" stroke-linejoin="round"/>
<path d="M246.591 55.5479H199.083V86.2474H246.591V55.5479Z" stroke="#341E61" stroke-width="2.5" stroke-linecap="round" stroke-linejoin="round"/>
<path d="M200.349 54.2766H197.812V56.8131H200.349V54.2766Z" fill="#B6B0FF" stroke="#341E61" stroke-width="2.5" stroke-linecap="round" stroke-linejoin="round"/>
<path d="M200.349 84.9766H197.812V87.513H200.349V84.9766Z" fill="#B6B0FF" stroke="#341E61" stroke-width="2.5" stroke-linecap="round" stroke-linejoin="round"/>
<path d="M247.856 54.2766H245.32V56.8131H247.856V54.2766Z" fill="#B6B0FF" stroke="#341E61" stroke-width="2.5" stroke-linecap="round" stroke-linejoin="round"/>
<path d="M247.856 84.9934H245.32V87.5299H247.856V84.9934Z" fill="#B6B0FF" stroke="#341E61" stroke-width="2.5" stroke-linecap="round" stroke-linejoin="round"/>
<path d="M228.211 107.036H149.731V129.485H228.211V107.036Z" fill="white" stroke="#B6B0FF" stroke-width="2.5" stroke-linecap="round" stroke-linejoin="round"/>
<path d="M149.731 107.036L228.216 129.485" stroke="#B6B0FF" stroke-width="2.5" stroke-linecap="round" stroke-linejoin="round"/>
<path d="M228.216 107.036L149.731 129.485" stroke="#B6B0FF" stroke-width="2.5" stroke-linecap="round" stroke-linejoin="round"/>
<path d="M186.245 27.9478H229.348" stroke="#341E61" stroke-width="2.5" stroke-linecap="round" stroke-linejoin="round"/>
<path d="M186.245 33.277H229.348" stroke="#341E61" stroke-width="2.5" stroke-linecap="round" stroke-linejoin="round"/>
<path d="M186.245 23.0085H200.806" stroke="#B6B0FF" stroke-width="2.5" stroke-linecap="round" stroke-linejoin="round"/>
<path d="M186.245 38.6008H229.348" stroke="#341E61" stroke-width="2.5" stroke-linecap="round" stroke-linejoin="round"/>
<path d="M186.245 43.9304H229.348" stroke="#341E61" stroke-width="2.5" stroke-linecap="round" stroke-linejoin="round"/>
<path d="M186.245 49.2542H229.348" stroke="#341E61" stroke-width="2.5" stroke-linecap="round" stroke-linejoin="round"/>
<path d="M186.245 92.5522H229.348" stroke="#341E61" stroke-width="2.5" stroke-linecap="round" stroke-linejoin="round"/>
<path d="M186.245 97.8818H229.348" stroke="#341E61" stroke-width="2.5" stroke-linecap="round" stroke-linejoin="round"/>
<path d="M186.245 103.205H229.348" stroke="#341E61" stroke-width="2.5" stroke-linecap="round" stroke-linejoin="round"/>
<path d="M213.327 8.72068C214.133 8.72068 214.787 8.06676 214.787 7.26012C214.787 6.45347 214.133 5.79956 213.327 5.79956C212.52 5.79956 211.866 6.45347 211.866 7.26012C211.866 8.06676 212.52 8.72068 213.327 8.72068Z" fill="#B6B0FF" stroke="#341E61" stroke-width="2.5" stroke-linecap="round" stroke-linejoin="round"/>
<path d="M221.37 8.72068C222.177 8.72068 222.831 8.06676 222.831 7.26012C222.831 6.45347 222.177 5.79956 221.37 5.79956C220.564 5.79956 219.91 6.45347 219.91 7.26012C219.91 8.06676 220.564 8.72068 221.37 8.72068Z" fill="#B6B0FF" stroke="#341E61" stroke-width="2.5" stroke-linecap="round" stroke-linejoin="round"/>
<path d="M229.421 8.72068C230.227 8.72068 230.881 8.06676 230.881 7.26012C230.881 6.45347 230.227 5.79956 229.421 5.79956C228.614 5.79956 227.96 6.45347 227.96 7.26012C227.96 8.06676 228.614 8.72068 229.421 8.72068Z" fill="#B6B0FF" stroke="#341E61" stroke-width="2.5" stroke-linecap="round" stroke-linejoin="round"/>
<path d="M176.472 23.0085H69.2383V27.9477H176.472V23.0085Z" fill="white" stroke="#341E61" stroke-width="2.5" stroke-linecap="round" stroke-linejoin="round"/>
<path d="M148.716 75.1594H113.83C112.207 75.1594 110.892 76.475 110.892 78.0973V91.6771C110.892 92.9983 111.527 94.169 112.508 94.9048L108.846 99.3924C108.333 100.017 108.985 100.92 109.738 100.624L122.476 95.7132H148.71C150.332 95.7132 151.648 94.3975 151.648 92.7753V78.0973C151.648 76.475 150.332 75.1594 148.71 75.1594H148.716Z" fill="#F1D9FF" stroke="#341E61" stroke-width="2.5" stroke-linecap="round" stroke-linejoin="round"/>
<path d="M127.047 81.9102C126.902 81.821 126.73 81.8155 126.579 81.8935L120.765 84.8871C120.603 84.9707 120.503 85.1324 120.503 85.3108V85.9853C120.503 86.1637 120.603 86.3309 120.765 86.409L126.579 89.4025C126.646 89.436 126.724 89.4583 126.796 89.4583C126.886 89.4583 126.969 89.436 127.047 89.3858C127.192 89.2966 127.276 89.1461 127.276 88.9789V88.1148C127.276 87.9308 127.176 87.7692 127.014 87.6856L122.944 85.6452L127.014 83.6049C127.176 83.5213 127.276 83.3596 127.276 83.1757V82.3116C127.276 82.1444 127.187 81.9883 127.047 81.9047V81.9102Z" fill="#341E61"/>
<path d="M133.72 79.9202H132.867C132.667 79.9202 132.494 80.0428 132.421 80.2268L128.926 89.3079C128.87 89.4528 128.887 89.6201 128.976 89.7538C129.065 89.8821 129.216 89.9601 129.372 89.9601H130.214C130.409 89.9601 130.587 89.8375 130.66 89.6535L134.166 80.5724C134.222 80.4275 134.205 80.2602 134.116 80.1264C134.027 79.9926 133.876 79.9202 133.72 79.9202Z" fill="#341E61"/>
<path d="M142.35 84.8706L136.535 81.8882C136.385 81.8101 136.207 81.8213 136.067 81.9049C135.922 81.9941 135.839 82.1446 135.839 82.3118V83.1759C135.839 83.3599 135.939 83.5215 136.106 83.6052L140.204 85.6455L136.106 87.6858C135.945 87.7694 135.839 87.9311 135.839 88.115V88.9791C135.839 89.1464 135.928 89.3024 136.067 89.3861C136.145 89.4307 136.229 89.4585 136.318 89.4585C136.391 89.4585 136.469 89.4418 136.535 89.4084L142.35 86.4259C142.511 86.3423 142.612 86.1806 142.612 86.0023V85.2998C142.612 85.1215 142.511 84.9542 142.35 84.8762V84.8706Z" fill="#341E61"/>
<path d="M112.497 190.103H24.1115V197.005H112.497V190.103Z" fill="#B6B0FF" stroke="#341E61" stroke-width="2.5" stroke-linecap="round" stroke-linejoin="round"/>
<path d="M43.8066 235.007V197.005H36.4481V235.007H43.8066Z" fill="#B6B0FF" stroke="#341E61" stroke-width="2.5" stroke-linecap="round" stroke-linejoin="round"/>
<path d="M100.294 235.007V197.005H92.9359V235.007H100.294Z" fill="#B6B0FF" stroke="#341E61" stroke-width="2.5" stroke-linecap="round" stroke-linejoin="round"/>
<path d="M60.3912 224.315C60.6031 224.733 60.9877 225.118 61.0156 225.631C61.0936 227.091 62.2476 232.532 62.2476 232.532H83.3476C83.3476 232.532 83.6542 229.249 84.1114 224.315H60.3968H60.3912Z" fill="#FFC8AC"/>
<path d="M60.3912 224.315C60.6031 224.733 60.893 225.134 61.0156 225.631C61.8351 229.014 62.2476 232.532 62.2476 232.532H83.3476C83.3476 232.532 83.6542 229.249 84.1114 224.315H60.3968H60.3912Z" stroke="#341E61" stroke-width="2.5" stroke-linecap="round" stroke-linejoin="round"/>
<path d="M62.2421 232.532H83.3421L99.7985 242.031H61.0881L62.2421 232.532Z" fill="#B6B0FF" stroke="#341E61" stroke-width="2.5" stroke-linecap="round" stroke-linejoin="round"/>
<path d="M102.898 224.315C103.11 224.733 103.494 225.118 103.522 225.631C103.6 227.091 104.754 232.532 104.754 232.532H125.854C125.854 232.532 126.161 229.249 126.618 224.315H102.904H102.898Z" fill="#FFC8AC"/>
<path d="M102.898 224.315C103.11 224.733 103.4 225.134 103.522 225.631C104.342 229.014 104.754 232.532 104.754 232.532H125.854C125.854 232.532 126.161 229.249 126.618 224.315H102.904H102.898Z" stroke="#341E61" stroke-width="2.5" stroke-linecap="round" stroke-linejoin="round"/>
<path d="M104.754 232.532H125.854L142.311 242.031H103.6L104.754 232.532Z" fill="#B6B0FF" stroke="#341E61" stroke-width="2.5" stroke-linecap="round" stroke-linejoin="round"/>
<path d="M134.044 178.547L132.237 226.634L128.235 225.714C124.466 224.85 120.52 225.268 117.019 226.907C113.468 228.568 109.454 228.975 105.641 228.061L99.6927 226.634L98.2879 218.578C96.8942 210.579 97.6022 202.356 100.345 194.708H58.2731C43.9295 194.708 32.3008 177.387 32.3008 163.044L85.3268 167.152L121.662 166.065C128.62 165.859 134.306 171.59 134.044 178.547Z" fill="#F1D9FF"/>
<path d="M134.038 178.541L132.232 226.628L126.523 225.313L128.285 178.603C128.525 172.209 125.62 166.785 119.438 166.121L121.662 166.06C128.619 165.854 134.305 171.584 134.043 178.541H134.038Z" fill="white"/>
<path d="M134.044 178.547L132.237 226.634L128.235 225.714C124.466 224.85 120.52 225.268 117.019 226.907C113.468 228.568 109.454 228.975 105.641 228.061L99.6927 226.634L98.2879 218.578C96.8942 210.579 97.6022 202.356 100.345 194.708H58.2731C43.9295 194.708 32.3008 177.387 32.3008 163.044L85.3268 167.152L121.662 166.065C128.62 165.859 134.306 171.59 134.044 178.547Z" stroke="#341E61" stroke-width="2.5" stroke-linecap="round" stroke-linejoin="round"/>
<path d="M92.3451 178.547L91.7375 194.708L90.5445 226.634L90.4107 226.595C85.7002 225.274 80.6997 225.441 76.0895 227.08C71.7022 228.641 66.9526 228.869 62.4372 227.743L57.9942 226.634L56.4221 217.174C55.1678 209.62 55.9315 201.871 58.6408 194.708H58.2617C43.9182 194.708 32.2337 178.424 32.2337 164.081L85.3155 167.152C89.5968 169.104 92.5291 173.508 92.3396 178.547H92.3451Z" fill="#F1D9FF"/>
<path d="M92.3507 178.541L91.7486 194.702L90.5501 226.628L90.4163 226.589C88.7272 226.121 86.999 225.831 85.2653 225.742L86.4304 194.702L87.0325 178.541C87.2164 173.63 84.4347 169.321 80.3262 167.292L85.3211 167.147C89.5968 169.103 92.5402 173.496 92.3507 178.541Z" fill="white"/>
<path d="M92.3451 178.547L91.7374 194.708L90.5444 226.634L90.4107 226.595C85.7001 225.273 80.6996 225.441 76.0894 227.08C71.7021 228.641 66.9525 228.869 62.4371 227.743L57.9941 226.634L56.422 217.174C55.1677 209.62 55.9314 201.871 58.6407 194.708H58.2617C43.9181 194.708 32.2894 177.387 32.2894 163.044L85.3154 167.152C89.5968 169.103 92.529 173.507 92.3395 178.547H92.3451Z" stroke="#341E61" stroke-width="2.5" stroke-linecap="round" stroke-linejoin="round"/>
<path d="M112.497 128.085L111.187 127.94C110.362 127.845 109.543 127.734 108.735 127.656C106.811 127.483 105.78 127.812 103.5 128.838C103.5 128.838 98.0033 131.274 95.6397 131.318L89.1786 131.424C89.1786 131.424 89.9257 135.784 91.6984 141.191C91.8935 142.077 92.3841 143.488 93.2203 145.378C94.4913 148.533 96.0968 151.744 98.0869 154.487C98.2765 154.793 98.4995 155.066 98.7336 155.334C99.2966 156.053 99.8987 156.733 100.523 157.363L102.719 166.048L44.0519 166.026C44.0519 166.026 44.024 166.043 44.0073 166.048C42.8812 166.048 41.7997 166.048 40.774 166.037C39.7148 166.026 38.7281 166.004 37.8417 165.959C37.5463 165.943 37.2731 165.926 37.0055 165.915C36.4648 165.881 35.9742 165.837 35.5505 165.792C31.442 165.324 28.2533 164.839 25.767 164.298C25.6388 164.27 25.5162 164.242 25.3991 164.214C14.7794 161.722 17.2434 155.813 16.9424 150.172C16.9089 149.475 16.9033 148.628 16.9312 147.674C16.9758 146.069 17.104 144.174 17.2713 142.234C17.1876 142.273 17.1263 142.306 17.1263 142.306L18.0573 138.276C18.0852 138.064 18.0907 137.952 18.0907 137.952C18.0907 137.952 15.755 137.322 15.9278 136.118C16.2344 133.944 18.1744 125.337 18.4977 123.854C18.9046 121.981 19.3618 104.51 33.7722 102.024C39.2354 101.087 52.1407 98.0322 60.5528 96.0086C64.3547 95.0887 70.5036 95.1389 70.5036 95.1389C70.5036 95.1389 86.3356 97.3911 88.4372 97.8538C90.2713 98.2551 92.9025 99.175 95.662 100.831C100.824 103.93 102.842 109.137 105.44 114.249C107.82 118.926 111.711 122.678 112.503 128.085H112.497Z" fill="white" stroke="#341E61" stroke-width="2.5" stroke-linecap="round" stroke-linejoin="round"/>
<path d="M90.1208 113.296C92.7242 111.991 92.5681 125.933 92.5681 125.933C92.5681 125.933 90.5612 125.46 89.7027 127.316C88.8498 129.172 89.1843 127.489 89.7027 124.116C90.2212 120.749 89.1007 113.803 90.1208 113.29V113.296Z" fill="white"/>
<path d="M112.497 128.085L111.187 127.94C110.362 127.845 109.543 127.734 108.735 127.656C106.811 127.483 105.78 127.812 103.5 128.838C103.5 128.838 98.0033 131.274 95.6397 131.318L89.1786 131.424C89.1786 131.424 89.9256 135.784 91.6984 141.191C91.8935 142.077 92.3841 143.488 93.2203 145.378C94.4913 148.533 96.0968 151.744 98.0869 154.487C98.2765 154.793 98.4995 155.066 98.7336 155.334C99.2966 156.053 99.8987 156.733 100.523 157.363L102.719 166.048L44.0519 166.026C44.0519 166.026 44.024 166.043 44.0073 166.048C42.8812 166.048 41.7997 166.048 40.774 166.037C39.7148 166.026 38.7281 166.004 37.8417 165.959C37.5463 165.943 37.2731 165.926 37.0055 165.915C36.4648 165.881 35.9742 165.837 35.5505 165.792C31.442 165.324 28.2533 164.839 25.767 164.298C25.6388 164.27 25.5162 164.242 25.3991 164.214C14.7794 161.722 17.2434 155.813 16.9424 150.172C16.9089 149.475 16.9033 148.628 16.9312 147.674C16.9758 146.069 17.104 144.174 17.2713 142.234C17.1876 142.273 17.1263 142.306 17.1263 142.306L18.0573 138.276C18.0852 138.064 18.0907 137.952 18.0907 137.952C18.0907 137.952 15.755 137.322 15.9278 136.118C16.2344 133.944 18.1744 125.337 18.4977 123.854C18.9046 121.981 19.3618 104.51 33.7722 102.024C39.2354 101.087 52.1407 98.0322 60.5528 96.0086C64.3547 95.0887 70.5036 95.1389 70.5036 95.1389C70.5036 95.1389 86.3356 97.3911 88.4372 97.8538C90.2713 98.2551 92.9025 99.175 95.6564 100.831C99.0569 102.877 101.577 106.037 103.45 109.655C105.607 113.814 107.943 117.644 110.195 121.713C112.057 125.075 112.497 128.08 112.497 128.08V128.085Z" stroke="#341E61" stroke-width="2.5" stroke-linecap="round" stroke-linejoin="round"/>
<path d="M89.1788 131.43C89.1788 128.955 93.5605 127.595 94.6476 127.595" stroke="#341E61" stroke-width="2.5" stroke-linecap="round" stroke-linejoin="round"/>
<path d="M48.9353 121.34C48.3778 123.235 48.3834 127.327 47.8984 137.217L40.289 138.571" stroke="#341E61" stroke-width="2.5" stroke-linecap="round" stroke-linejoin="round"/>
<path d="M91.6986 114.612C92.2393 115.409 93.1034 126.43 93.3041 125.465" stroke="#341E61" stroke-width="2.5" stroke-linecap="round" stroke-linejoin="round"/>
<path d="M88.1642 150.228C86.5699 150.941 84.1672 150.924 82.8739 150.858C82.3164 150.824 81.9708 150.78 81.9708 150.78C81.9708 150.78 81.9875 150.869 81.9819 151.014C81.9652 151.527 81.7757 152.731 80.2872 153.21C79.111 153.595 77.9682 152.842 77.2546 152.19C76.8142 151.777 76.5355 151.421 76.5355 151.421C76.5355 151.421 76.5355 151.8 76.4909 152.435C76.3237 154.81 75.5265 160.747 71.797 163.367C71.4737 163.596 71.1281 163.802 70.7602 163.991C68.43 165.19 65.2691 165.664 62.0916 165.77C62.0916 165.781 62.0916 165.786 62.1027 165.798C57.827 165.786 50.8977 166.004 44.944 166.048H44.0353C42.9092 166.06 41.8222 166.048 40.8076 166.048H40.7908C39.7317 166.032 38.745 166.009 37.8642 165.97C37.5687 165.954 37.2955 165.937 37.028 165.926C36.4872 165.892 35.9966 165.848 35.573 165.803C31.4645 165.335 28.2758 164.85 25.7895 164.309C25.6613 164.281 25.5386 164.253 25.4215 164.226C17.1711 162.358 17.0874 159.788 16.7976 154.777C16.7028 153.126 16.7976 150.512 16.9592 147.691C17.2881 142.105 17.9348 139.803 18.0853 138.292C18.1132 138.08 18.1188 137.969 18.1188 137.969H18.1299C18.4309 138.041 18.7431 138.114 19.0441 138.181C19.9584 138.387 20.8782 138.56 21.8036 138.716C27.4284 139.664 33.1815 139.692 38.8397 138.811L44.197 137.975C44.236 137.963 43.4946 143.694 43.4946 143.694L63.6302 144.904C63.6302 144.904 66.3283 141.871 68.9149 142.429C69.8403 142.629 70.2919 142.769 70.4981 142.864C70.6598 142.546 71.195 141.91 73.0012 141.342C75.3091 140.606 76.2289 141.514 76.2289 141.514C76.2289 141.514 77.7006 139.836 79.7465 139.686C81.9039 139.53 89.3795 143.967 89.7474 147.858C89.8533 149.051 89.1844 149.782 88.1921 150.233L88.1642 150.228Z" fill="#FFC8AC"/>
<path d="M85.7113 150.78C85.7113 150.78 85.7113 150.796 85.7113 150.802C85.7503 150.802 85.7837 150.796 85.8172 150.791C85.7503 150.785 85.7057 150.78 85.7057 150.78H85.7113Z" fill="white"/>
<path d="M42.5581 138.8L44.1357 138.554C44.158 138.181 44.1692 137.963 44.1636 137.963L38.8064 138.8C36.6267 139.14 34.4359 139.329 32.2394 139.396C35.6846 139.53 39.1409 139.335 42.5581 138.8Z" fill="white"/>
<path d="M88.1642 150.228C86.5699 150.941 84.1672 150.924 82.8739 150.858C82.3164 150.824 81.9708 150.78 81.9708 150.78C81.9708 150.78 81.9875 150.869 81.9819 151.014C81.9652 151.527 81.7757 152.731 80.2872 153.21C79.111 153.595 77.9682 152.842 77.2546 152.19C76.8142 151.777 76.5355 151.421 76.5355 151.421C76.5355 151.421 76.5355 151.8 76.4909 152.435C76.3237 154.81 75.5265 160.747 71.797 163.367C71.4737 163.596 71.1281 163.802 70.7602 163.991C68.43 165.19 65.2691 165.664 62.0916 165.77C62.0916 165.781 62.0916 165.786 62.1027 165.798C57.827 165.786 50.8977 166.004 44.944 166.048H44.0353C42.9092 166.06 41.8222 166.048 40.8076 166.048H40.7908C39.7317 166.032 38.745 166.009 37.8642 165.97C37.5687 165.954 37.2955 165.937 37.028 165.926C36.4872 165.892 35.9966 165.848 35.573 165.803C31.4645 165.335 28.2758 164.85 25.7895 164.309C25.6613 164.281 25.5386 164.253 25.4215 164.226C17.1711 162.358 17.0874 159.788 16.7976 154.777C16.7028 153.126 16.7976 150.512 16.9592 147.691C17.2881 142.105 17.9348 139.803 18.0853 138.292C18.1132 138.08 18.1188 137.969 18.1188 137.969H18.1299C18.4309 138.041 18.7431 138.114 19.0441 138.181C19.9584 138.387 20.8782 138.56 21.8036 138.716C27.4284 139.664 33.1815 139.692 38.8397 138.811L44.197 137.975C44.236 137.963 43.4946 143.694 43.4946 143.694L63.6302 144.904C63.6302 144.904 66.3283 141.871 68.9149 142.429C69.8403 142.629 70.2919 142.769 70.4981 142.864C70.6598 142.546 71.195 141.91 73.0012 141.342C75.3091 140.606 76.2289 141.514 76.2289 141.514C76.2289 141.514 77.7006 139.836 79.7465 139.686C81.9039 139.53 89.3795 143.967 89.7474 147.858C89.8533 149.051 89.1844 149.782 88.1921 150.233L88.1642 150.228Z" stroke="#341E61" stroke-width="2.5" stroke-linecap="round" stroke-linejoin="round"/>
<path d="M81.9595 150.785C81.9595 150.785 82.0376 146.627 76.2009 141.503" stroke="#341E61" stroke-width="2.5" stroke-linecap="round" stroke-linejoin="round"/>
<path d="M76.5245 151.426C76.5245 151.426 75.4542 147.1 70.3979 143.053" stroke="#341E61" stroke-width="2.5" stroke-linecap="round" stroke-linejoin="round"/>
<path d="M75.7105 149.414L76.5077 151.945C77.1265 153.912 74.3168 157.285 69.2773 151.393L66.7966 148.99" stroke="#341E61" stroke-width="2.5" stroke-linecap="round" stroke-linejoin="round"/>
<path d="M74.0884 154.487C70.1026 149.821 74.2557 147.234 74.0884 147.234" stroke="#341E61" stroke-width="2.5" stroke-linecap="round" stroke-linejoin="round"/>
<path d="M53.2278 144.263H37.2899" stroke="#341E61" stroke-width="2.5" stroke-linecap="round" stroke-linejoin="round"/>
<path d="M77.4553 163.105L130.169 163.507L141.764 130.611C142.589 128.275 140.867 125.828 138.392 125.811L93.2984 125.465C91.7598 125.454 90.3829 126.418 89.87 127.873L77.4497 163.111L77.4553 163.105Z" fill="#B6B0FF" stroke="#341E61" stroke-width="2.5" stroke-linecap="round" stroke-linejoin="round"/>
<path d="M109.353 145.874C109.353 147.117 110.362 148.126 111.605 148.126C112.849 148.126 113.858 147.117 113.858 145.874C113.858 144.631 112.849 143.622 111.605 143.622C110.362 143.622 109.353 144.631 109.353 145.874Z" fill="#341E61"/>
<path d="M69.1156 166.907L128.212 167.359C129.277 167.364 130.152 166.511 130.158 165.441C130.164 164.376 129.311 163.501 128.24 163.495L69.1435 163.044C68.0787 163.038 67.2035 163.891 67.1979 164.961C67.1923 166.026 68.0453 166.901 69.1156 166.907Z" fill="#B6B0FF" stroke="#341E61" stroke-width="2.5" stroke-linecap="round" stroke-linejoin="round"/>
<path d="M42.1064 103.211C39.5643 101.611 36.6599 101.115 33.7723 102.029" stroke="#341E61" stroke-width="2.5" stroke-linecap="round" stroke-linejoin="round"/>
<path d="M51.7895 121.646C51.7895 123.67 48.8517 127.394 48.8517 127.394L51.7895 121.646Z" fill="white"/>
<path d="M51.7895 121.646C51.7895 123.67 48.8517 127.394 48.8517 127.394" stroke="#341E61" stroke-width="2.5" stroke-linecap="round" stroke-linejoin="round"/>
<path d="M98.7391 200.232C99.7649 196.871 100.685 192.93 102.898 190.103" stroke="#341E61" stroke-width="2.5" stroke-linecap="round" stroke-linejoin="round"/>
<path d="M56.7735 201.119C57.6153 197.518 58.7804 193.13 61.8297 190.733" stroke="#341E61" stroke-width="2.5" stroke-linecap="round" stroke-linejoin="round"/>
<path d="M44.7542 171.501C51.5776 181.089 64.2543 180.275 67.666 181.574C71.0777 182.873 65.5365 182.806 65.5421 184.06C65.5532 185.315 68.4242 184.328 68.7754 185.387C69.1266 186.446 61.4726 197.501 65.5421 222.849" stroke="#341E61" stroke-width="2.5" stroke-linecap="round" stroke-linejoin="round"/>
<path d="M65.5255 103.255C66.122 103.512 66.7018 103.735 67.2536 103.908C70.643 105.006 73.0847 104.61 72.9509 102.821C72.7948 100.736 69.2159 97.547 64.9569 95.7018C62.4594 94.6204 60.2798 94.2357 58.9418 94.5312C57.9997 94.7374 57.4701 95.2782 57.537 96.1367C57.6875 98.2216 61.272 101.41 65.5255 103.255Z" fill="#341E61" stroke="#341E61" stroke-width="2.5" stroke-linecap="round" stroke-linejoin="round"/>
<path d="M74.5733 92.3237C74.4674 92.6025 74.3503 92.8812 74.2277 93.1543C74.0381 93.5669 73.8319 93.9571 73.6033 94.3362C73.5308 94.4588 73.4528 94.587 73.3636 94.7152C72.5609 95.9417 71.5574 96.9841 70.3979 97.7757C70.2585 97.8761 70.1024 97.9764 69.9519 98.0712C69.807 98.1715 69.6509 98.2496 69.4948 98.3388C69.4056 98.3945 69.3108 98.4447 69.2105 98.5004C69.1101 98.545 69.0098 98.5896 68.9095 98.6342C68.7924 98.69 68.6697 98.7457 68.5471 98.7959C68.4969 98.8182 68.4412 98.8349 68.391 98.8516C68.2516 98.913 68.1011 98.9631 67.9618 99.0021C67.3764 99.1973 66.7688 99.3311 66.1444 99.4035C65.9382 99.4314 65.7375 99.4425 65.5256 99.4537C65.3194 99.4704 65.1131 99.476 64.8957 99.4648H64.8901C64.8065 99.4593 64.7229 99.4537 64.6393 99.4481C64.578 99.4481 64.4943 99.4426 64.4219 99.4258C64.1822 99.4203 63.9536 99.3924 63.725 99.3478C63.686 99.3478 63.6526 99.3478 63.6191 99.331C63.6024 99.331 63.5857 99.3311 63.5689 99.3255C63.5411 99.3255 63.5132 99.3143 63.4853 99.3143C62.7049 99.175 61.9523 98.9297 61.2443 98.5896C60.8318 98.4001 60.4193 98.1659 60.0402 97.9039C59.5831 97.6141 59.1482 97.2684 58.758 96.8949H58.7413C58.5072 96.6831 58.2953 96.449 58.0779 96.2093C57.9051 96.0086 57.7379 95.8246 57.5706 95.6016C57.5372 95.5459 57.4926 95.4901 57.4591 95.4399C57.2696 95.1835 57.0856 94.9271 56.9128 94.6483C56.7121 94.325 56.5226 93.9682 56.3442 93.6226C56.2996 93.5223 56.255 93.4275 56.2216 93.3327C56.0264 92.9369 55.8648 92.5244 55.731 92.1007C55.7087 92.0506 55.692 91.9948 55.6752 91.9446C55.5024 91.4095 55.3798 90.8576 55.2739 90.289C55.2293 90.0102 55.1902 89.7427 55.1735 89.4416C55.1568 89.4082 55.1568 89.3692 55.1568 89.3301C55.1401 89.2242 55.1345 89.1127 55.1234 89.0012C55.0899 88.5776 55.0899 88.1316 55.0899 87.68C55.1011 87.5462 55.1066 87.418 55.1122 87.2787C55.1233 87.0724 55.1457 86.8606 55.1679 86.6655C55.2181 86.1136 55.324 85.5784 55.4411 85.0544C55.4857 84.9039 55.5192 84.7478 55.5582 84.6196C55.5972 84.4579 55.6529 84.2907 55.6975 84.1401C55.731 84.0342 55.7644 83.9339 55.8035 83.8391C55.9763 83.3095 56.1993 82.7911 56.4445 82.3061C56.5449 82.0887 56.662 81.8824 56.779 81.6817L56.7957 81.6483C56.9072 81.442 57.041 81.2413 57.1748 81.0518C57.1915 81.0128 57.2194 80.9849 57.2417 80.9459C57.3978 80.7173 57.5539 80.4887 57.7323 80.2713C58.6298 79.1341 59.7224 78.192 60.9377 77.5175C61.4673 77.2332 62.0359 76.999 62.599 76.815H62.6157C62.6157 76.815 62.6436 76.7983 62.6547 76.7983H62.6658C62.8219 76.7314 62.9836 76.6868 63.1564 76.6422C63.2177 76.6311 63.2735 76.6144 63.3404 76.5976C63.4073 76.5865 63.463 76.5753 63.5243 76.5642C63.6414 76.5419 63.7473 76.514 63.87 76.5029C63.9424 76.4861 64.0093 76.475 64.0874 76.4639C64.132 76.4583 64.171 76.4471 64.2156 76.4471C64.3048 76.436 64.394 76.4304 64.4776 76.4193C64.6281 76.4081 64.7675 76.3914 64.918 76.3858H64.9236C64.9236 76.3858 64.957 76.3858 64.9682 76.3802C64.9905 76.3802 65.0072 76.3691 65.0184 76.3747C65.0518 76.3747 65.0964 76.3747 65.1298 76.3747H65.2079C65.3473 76.3691 65.4587 76.3802 65.5925 76.3747C65.7765 76.3747 65.9549 76.3802 66.1221 76.4025C68.2349 76.5642 70.1359 77.4673 71.6745 78.8721C71.8696 79.0449 72.0424 79.2177 72.2208 79.4017C72.2375 79.4351 72.271 79.4519 72.2933 79.4797C72.349 79.5411 72.4048 79.6024 72.4494 79.6581C72.533 79.7473 72.611 79.8477 72.6891 79.948C72.9009 80.1933 73.0904 80.4386 73.2688 80.7062C73.28 80.7173 73.2911 80.734 73.3023 80.7452C73.4472 80.9626 73.581 81.1911 73.7092 81.4141C73.843 81.6371 73.9657 81.849 74.0827 82.0775C74.2054 82.3005 74.3001 82.5291 74.4061 82.7688C75.0973 84.3743 75.4652 86.2083 75.3983 88.1372C75.3816 88.9901 75.2757 89.8096 75.0973 90.6012C74.9691 91.1976 74.8019 91.7718 74.59 92.3237H74.5733Z" fill="#FFC8AC"/>
<path d="M74.5732 92.3239C74.4673 92.6026 74.3447 92.8869 74.2276 93.1545C74.0325 93.567 73.8262 93.9628 73.6032 94.3363C73.5308 94.459 73.4527 94.5872 73.3635 94.7154C72.5552 95.9307 71.5518 96.9787 70.3922 97.7703C70.2529 97.8707 70.1024 97.9766 69.9518 98.0658C69.8069 98.1661 69.6508 98.2442 69.4947 98.3334C69.3442 98.417 69.1881 98.5006 69.032 98.5731C68.8704 98.64 68.7143 98.718 68.547 98.7849L68.3965 98.8462C68.2571 98.9076 68.1066 98.9577 67.9673 98.9968C67.3819 99.1919 66.7743 99.3257 66.1499 99.3981C65.9437 99.426 65.743 99.4371 65.5311 99.4483C65.3249 99.465 65.1186 99.4706 64.9012 99.4594H64.8956C64.812 99.4539 64.7284 99.4483 64.6448 99.4427C64.5835 99.4427 64.4998 99.4371 64.4274 99.4204C64.7172 99.3257 65.0071 99.2197 65.2914 99.0915C66.3562 98.6344 67.3318 97.9766 68.1903 97.1571C68.3686 96.9955 68.5526 96.8059 68.7143 96.6275C70.6152 94.5872 71.8138 91.7274 71.9141 88.5499C71.9643 87.3513 71.8361 86.1918 71.5685 85.1047C71.4849 84.7591 71.3789 84.4079 71.2619 84.0734C71.1281 83.6832 70.9776 83.3041 70.8215 82.9362C70.788 82.8582 70.749 82.7857 70.7156 82.7076C70.0912 81.392 69.2327 80.2158 68.207 79.2681C66.6684 77.8465 64.7395 76.9602 62.6156 76.8041H62.5989V76.7985C62.6156 76.7985 62.6323 76.7985 62.6379 76.7874C62.649 76.7874 62.6602 76.7874 62.6602 76.7874H62.6714C62.8274 76.7205 62.9891 76.6759 63.1619 76.6313C63.2232 76.6201 63.279 76.6034 63.3459 76.5867C63.4128 76.5755 63.4685 76.5644 63.5298 76.5532C63.6469 76.5309 63.7528 76.5031 63.8755 76.4919C63.9479 76.4752 64.0148 76.464 64.0929 76.4529C64.1319 76.4362 64.1765 76.4362 64.2155 76.425C64.3047 76.4139 64.3939 76.4083 64.4831 76.4027C64.6336 76.3916 64.773 76.3748 64.9235 76.3693C64.9235 76.3693 64.9625 76.3581 64.9737 76.3637C64.996 76.3637 65.0127 76.3525 65.0239 76.3581C65.0573 76.3581 65.1019 76.3581 65.1353 76.3581C65.1688 76.3581 65.1855 76.3581 65.2078 76.3525V76.3637C65.3528 76.3581 65.4642 76.3637 65.598 76.3637C65.782 76.3637 65.9604 76.3693 66.1276 76.3916C68.2404 76.5532 70.1414 77.4563 71.68 78.8611C71.8751 79.0339 72.0479 79.2068 72.2263 79.3907C72.243 79.4242 72.2765 79.4409 72.2988 79.4688C72.3545 79.5301 72.4103 79.5914 72.4549 79.6471C72.5385 79.7363 72.6165 79.8367 72.6946 79.937C72.9064 80.1823 73.0959 80.4276 73.2743 80.6952C73.2855 80.7063 73.2966 80.7231 73.3078 80.7342C73.4527 80.946 73.5809 81.1579 73.7092 81.3753C73.8541 81.5983 73.9712 81.8324 74.0882 82.0721C74.2109 82.2951 74.3056 82.5237 74.4116 82.7634C75.1028 84.3689 75.4707 86.2029 75.4038 88.1318C75.3871 88.9847 75.2812 89.8042 75.1028 90.5958C74.9746 91.1922 74.8074 91.7664 74.5955 92.3183L74.5732 92.3239Z" fill="white"/>
<path d="M74.5732 92.3237C74.4673 92.6025 74.3502 92.8812 74.2276 93.1543C74.0381 93.5669 73.8318 93.9571 73.6032 94.3362C73.5308 94.4588 73.4527 94.587 73.3635 94.7152C72.5608 95.9417 71.5573 96.9841 70.3978 97.7757C70.2584 97.8761 70.1023 97.9764 69.9518 98.0712C69.8069 98.1715 69.6508 98.2496 69.4947 98.3388C69.3442 98.4224 69.1881 98.506 69.032 98.5785C68.993 98.6064 68.954 98.6231 68.9149 98.6342C68.7979 98.69 68.6752 98.7457 68.5526 98.7959C68.5024 98.8182 68.4467 98.8349 68.3965 98.8516C68.2571 98.913 68.1066 98.9631 67.9673 99.0021C67.3819 99.1973 66.7743 99.3311 66.1499 99.4035C65.9437 99.4314 65.743 99.4425 65.5311 99.4537C65.3249 99.4704 65.1186 99.476 64.9012 99.4648H64.8956C64.812 99.4593 64.7284 99.4537 64.6448 99.4481C64.5835 99.4481 64.4998 99.4426 64.4274 99.4258C64.1877 99.4203 63.9591 99.3924 63.7305 99.3478C63.6915 99.3478 63.6581 99.3478 63.6246 99.331C63.6079 99.331 63.5912 99.3311 63.5744 99.3255C63.5466 99.3255 63.5187 99.3143 63.4908 99.3143C62.7104 99.175 61.9578 98.9297 61.2498 98.5896C60.8373 98.4001 60.4248 98.1659 60.0457 97.9039C59.5886 97.6141 59.1537 97.2684 58.7635 96.8949H58.7468C58.5127 96.6831 58.3008 96.449 58.0834 96.2093C57.9106 96.0086 57.7489 95.8079 57.5761 95.596C57.5371 95.5459 57.4981 95.4901 57.4646 95.4399C57.2751 95.1835 57.0911 94.9271 56.9183 94.6483C56.7176 94.325 56.5281 93.9682 56.3497 93.6226C56.3051 93.5223 56.2605 93.4275 56.2271 93.3327C56.0319 92.9369 55.8703 92.5244 55.7365 92.1007C55.7142 92.0506 55.6975 91.9948 55.6807 91.9446C55.5079 91.4095 55.3853 90.8576 55.2794 90.289C55.2348 90.0102 55.1957 89.7427 55.179 89.4416C55.1623 89.4082 55.1623 89.3692 55.1623 89.3301C55.1456 89.2242 55.14 89.1127 55.1288 89.0012C55.0954 88.5776 55.0954 88.1316 55.0954 87.68C55.1065 87.5462 55.1121 87.418 55.1177 87.2787C55.1288 87.0724 55.1511 86.8606 55.1734 86.6655C55.2236 86.1136 55.3295 85.5784 55.4466 85.0544C55.4912 84.9039 55.5246 84.7478 55.5637 84.6196C55.6027 84.4579 55.6584 84.2907 55.703 84.1401C55.7365 84.0342 55.7699 83.9339 55.809 83.8391C55.9818 83.3095 56.2048 82.7911 56.45 82.3061C56.5504 82.0887 56.6674 81.8824 56.7845 81.6817L56.8012 81.6483C56.9127 81.442 57.0465 81.2413 57.1803 81.0518C57.197 81.0128 57.2249 80.9849 57.2472 80.9459C57.4033 80.7173 57.5594 80.4887 57.7378 80.2713C58.6353 79.1341 59.7279 78.192 60.9432 77.5175C61.4728 77.2332 62.0414 76.999 62.6044 76.815H62.6212C62.6212 76.815 62.649 76.7983 62.6602 76.7983H62.6713C62.8274 76.7314 62.9891 76.6868 63.1619 76.6422C63.2232 76.6311 63.279 76.6144 63.3459 76.5976C63.4128 76.5865 63.4685 76.5753 63.5298 76.5642C63.6469 76.5419 63.7528 76.514 63.8755 76.5029C63.9479 76.4861 64.0148 76.475 64.0929 76.4639C64.1375 76.4583 64.1765 76.4471 64.2211 76.4471C64.3103 76.436 64.3995 76.4304 64.4831 76.4193C64.6336 76.4081 64.773 76.3914 64.9235 76.3858H64.9291C64.9291 76.3858 64.9625 76.3858 64.9737 76.3802C64.996 76.3802 65.0127 76.3691 65.0238 76.3747C65.0573 76.3747 65.1019 76.3747 65.1353 76.3747H65.2134C65.3527 76.3691 65.4642 76.3802 65.598 76.3747C65.782 76.3747 65.9604 76.3802 66.1276 76.4025C68.2404 76.5642 70.1414 77.4673 71.68 78.8721C71.8751 79.0449 72.0479 79.2177 72.2263 79.4017C72.243 79.4351 72.2765 79.4519 72.2988 79.4797C72.3545 79.5411 72.4103 79.6024 72.4548 79.6581C72.5385 79.7473 72.6165 79.8477 72.6946 79.948C72.9064 80.1933 73.0959 80.4386 73.2743 80.7062C73.2855 80.7173 73.2966 80.734 73.3078 80.7452C73.4527 80.957 73.5809 81.1689 73.7091 81.3863C73.8541 81.6093 73.9712 81.8434 74.0882 82.0831C74.2109 82.3061 74.3056 82.5346 74.4116 82.7743C75.1028 84.3798 75.4707 86.2139 75.4038 88.1427C75.3871 88.9957 75.2812 89.8151 75.1028 90.6067C74.9746 91.2032 74.8073 91.7774 74.5955 92.3293L74.5732 92.3237Z" stroke="#341E61" stroke-width="2.5" stroke-linecap="round" stroke-linejoin="round"/>
<path d="M72.2877 79.4744C72.2654 79.4465 72.2375 79.4298 72.2152 79.3963C72.0368 79.2124 71.864 79.0451 71.6689 78.8667C70.2139 77.54 68.4356 76.6647 66.4622 76.4418C66.4845 76.3749 66.5124 76.308 66.5347 76.2355C67.2594 73.844 65.9103 71.3131 63.5132 70.5884C61.1217 69.8637 58.5908 71.2127 57.8661 73.6098C57.303 75.4718 57.9999 77.4173 59.466 78.5267C58.8361 79.0395 58.2452 79.6193 57.7323 80.2715C57.5595 80.489 57.4034 80.7175 57.2417 80.9461C57.2138 80.9795 57.1915 81.013 57.1748 81.052C57.041 81.2471 56.9128 81.4422 56.7957 81.6485L56.779 81.6819C56.6564 81.8882 56.5449 82.0889 56.4445 82.3063C56.2048 82.7857 55.9818 83.3097 55.8035 83.8393C55.7644 83.9397 55.731 84.0344 55.6975 84.1403C55.6529 84.2909 55.6028 84.4581 55.5582 84.6198C55.5192 84.7536 55.4857 84.9041 55.4411 85.0546C55.324 85.5786 55.2237 86.1138 55.1679 86.6657C55.1457 86.8608 55.1233 87.0726 55.1122 87.2789C55.1122 87.4182 55.1066 87.5465 55.0899 87.6802C55.0899 88.1318 55.0899 88.5778 55.1234 89.0014C55.1345 89.1129 55.1345 89.2244 55.1568 89.3303C55.1568 89.3749 55.1568 89.4084 55.1735 89.4418C55.1902 89.7373 55.2293 90.0105 55.2739 90.2892C55.3798 90.8578 55.5024 91.4153 55.6752 91.9448C55.692 91.995 55.7087 92.0508 55.731 92.1009C59.8618 91.8445 64.4832 89.6537 68.2126 85.7737C69.1547 84.7982 69.9854 83.7724 70.7045 82.7077C71.3846 81.7042 71.9644 80.6841 72.4382 79.6472C72.388 79.5914 72.3379 79.5301 72.2821 79.4688L72.2877 79.4744Z" fill="#341E61" stroke="#341E61" stroke-width="2.5" stroke-linecap="round" stroke-linejoin="round"/>
<path d="M64.6841 65.6937C59.8565 65.9446 61.462 64.7572 57.5096 67.4776C54.9954 69.2058 53.5794 67.6281 54.633 66.2512C56.1215 64.3168 57.8106 63.3468 60.6091 62.7838C64.9796 61.9085 67.1314 65.5599 64.6897 65.6882L64.6841 65.6937Z" fill="#341E61" stroke="#341E61" stroke-width="2.5" stroke-linecap="round" stroke-linejoin="round"/>
<path d="M50.7974 72.7234C50.2065 73.0244 49.4372 72.6008 49.2142 71.9262C48.9912 71.2573 49.3982 70.5939 49.9891 70.2929C50.58 69.9918 51.2434 70.2929 51.4664 70.9618C51.6894 71.6308 51.3939 72.4224 50.7974 72.7234Z" fill="#341E61" stroke="#341E61" stroke-width="2.5" stroke-linecap="round" stroke-linejoin="round"/>
<path d="M73.224 133.259C78.0485 133.259 81.9595 129.348 81.9595 124.523C81.9595 119.699 78.0485 115.788 73.224 115.788C68.3995 115.788 64.4885 119.699 64.4885 124.523C64.4885 129.348 68.3995 133.259 73.224 133.259Z" fill="#B6B0FF"/>
</svg>
